<?xml version="1.0" standalone="no"?>
<!DOCTYPE svg PUBLIC "-//W3C//DTD SVG 1.1//EN" "http://www.w3.org/Graphics/SVG/1.1/DTD/svg11.dtd" >
<svg xmlns="http://www.w3.org/2000/svg">
<metadata>
Created by FontPrep 20130207 at Mon Aug 18 14:19:14 2014
 By Joe Blau
Copyright (C) 1990, 2011 Hoefler &#38; Frere-Jones. http://www.typography.com
</metadata>
<defs>
<font id="b84924955d4e41e662c6092e94e569bf" horiz-adv-x='1024' >
  <font-face 
    font-family="IdealSans-Book"
    font-weight="325"
    font-stretch="normal"
    units-per-em="2048"
    panose-1="0 0 0 0 0 0 0 0 0 0"
    ascent="1638"
    descent="-410"
    x-height="952"
    cap-height="1450"
    bbox="-338 -532 2447 2267"
    underline-thickness="102"
    underline-position="-102"
    unicode-range="U+0020-FB04"
  />
<missing-glyph horiz-adv-x="1024" 
d="M512 492l-367 -799h734zM922 1384l-353 -770l353 -770v1540zM102 -156l353 770l-353 770v-1540zM145 1536l367 -799l367 799h-734zM0 -410v2048h1024v-2048h-1024z" />
    <glyph glyph-name="f_f" unicode="ff" horiz-adv-x="1363" 
d="M1096 1055v-105h256q-8 -59 -9 -164h-247v-587q0 -131 8 -199h-209q14 123 14 334v452h-186l51 164h135v84q0 205 88 326t250 121q54 -1 103 -17l14 -176q-43 16 -90 17q-178 0 -178 -250zM414 1055v-105h256q-8 -59 -8 -164h-248v-587q0 -131 8 -199h-209q14 123 14 334
v452h-186l51 164h135v84q0 205 88 326t250 121q54 -1 103 -17l14 -176q-43 16 -90 17q-178 0 -178 -250z" />
    <glyph glyph-name="fi" unicode="fi" horiz-adv-x="1169" 
d="M1059 1290q0 -51 -36 -90t-90 -39t-88 36t-34 88t36 91t89 39t88 -37t35 -88zM831 336v258q0 225 -14 348q109 0 211 10q-8 -72 -8 -219v-534q0 -127 8 -199h-211q14 123 14 336zM414 1055v-105h256q-8 -59 -8 -164h-248v-587q0 -131 8 -199h-209q14 123 14 334v452h-186
l51 164h135v84q0 205 88 326t250 121q54 -1 103 -17l14 -176q-43 16 -90 17q-178 0 -178 -250z" />
    <glyph glyph-name="fl" unicode="fl" horiz-adv-x="1169" 
d="M831 336v780q0 215 -14 338q133 10 211 27q-8 -72 -8 -224v-1058q0 -127 8 -199h-211q14 123 14 336zM414 1055v-105h256q-8 -59 -8 -164h-248v-587q0 -131 8 -199h-209q14 123 14 334v452h-186l51 164h135v84q0 205 88 326t250 121q54 -1 103 -17l14 -176q-43 16 -90 17
q-178 0 -178 -250z" />
    <glyph glyph-name="f_f_i" unicode="ffi" horiz-adv-x="1851" 
d="M1741 1290q0 -51 -36 -90t-90 -39t-88 36t-34 88t36 91t89 39t88 -37t35 -88zM1513 336v258q0 225 -14 348q109 0 211 10q-8 -72 -8 -219v-534q0 -127 8 -199h-211q14 123 14 336zM1096 1055v-105h256q-8 -59 -9 -164h-247v-587q0 -131 8 -199h-209q14 123 14 334v452
h-186l51 164h135v84q0 205 88 326t250 121q54 -1 103 -17l14 -176q-43 16 -90 17q-178 0 -178 -250zM414 1055v-105h256q-8 -59 -8 -164h-248v-587q0 -131 8 -199h-209q14 123 14 334v452h-186l51 164h135v84q0 205 88 326t250 121q54 -1 103 -17l14 -176q-43 16 -90 17
q-178 0 -178 -250z" />
    <glyph glyph-name="f_f_l" unicode="ffl" horiz-adv-x="1851" 
d="M1513 336v780q0 215 -14 338q133 10 211 27q-8 -72 -8 -224v-1058q0 -127 8 -199h-211q14 123 14 336zM1096 1055v-105h256q-8 -59 -9 -164h-247v-587q0 -131 8 -199h-209q14 123 14 334v452h-186l51 164h135v84q0 205 88 326t250 121q54 -1 103 -17l14 -176
q-43 16 -90 17q-178 0 -178 -250zM414 1055v-105h256q-8 -59 -8 -164h-248v-587q0 -131 8 -199h-209q14 123 14 334v452h-186l51 164h135v84q0 205 88 326t250 121q54 -1 103 -17l14 -176q-43 16 -90 17q-178 0 -178 -250z" />
    <glyph glyph-name="f_f_b" unicode="ffb" horiz-adv-x="2490" 
d="M1916 129q130 -1 218 105t88 252t-71 233q-71 86 -201 86q-68 0 -134 -32t-114 -85v-504q84 -55 214 -55zM2006 971q172 0 288 -129t116 -344t-148 -375t-366 -160q-131 0 -227 70l-135 -64l-35 13q14 164 14 356v780q0 215 -14 338q102 8 211 27q-8 -72 -8 -223v-404
q131 115 304 115zM1096 1055v-105h256q-8 -59 -9 -164h-247v-587q0 -131 8 -199h-209q14 123 14 334v452h-186l51 164h135v84q0 205 88 326t250 121q54 -1 103 -17l14 -176q-43 16 -90 17q-178 0 -178 -250zM414 1055v-105h256q-8 -59 -8 -164h-248v-587q0 -131 8 -199h-209
q14 123 14 334v452h-186l51 164h135v84q0 205 88 326t250 121q54 -1 103 -17l14 -176q-43 16 -90 17q-178 0 -178 -250z" />
    <glyph glyph-name="f_f_h" unicode="ffh" horiz-adv-x="2480" 
d="M2146 348v246q0 211 -164 211q-100 0 -190 -82t-90 -174v-350q0 -127 8 -199h-209q12 131 12 336v780q0 207 -12 338q133 12 209 27q-8 -72 -8 -224v-485q57 92 149 146t181 53q152 0 228 -88t75 -252v-420q0 -105 8 -211h-211q14 123 14 348zM1096 1055v-105h256
q-8 -59 -9 -164h-247v-587q0 -131 8 -199h-209q14 123 14 334v452h-186l51 164h135v84q0 205 88 326t250 121q54 -1 103 -17l14 -176q-43 16 -90 17q-178 0 -178 -250zM414 1055v-105h256q-8 -59 -8 -164h-248v-587q0 -131 8 -199h-209q14 123 14 334v452h-186l51 164h135
v84q0 205 88 326t250 121q54 -1 103 -17l14 -176q-43 16 -90 17q-178 0 -178 -250z" />
    <glyph glyph-name="f_f_j" unicode="ffj" horiz-adv-x="1851" 
d="M1741 1290q0 -51 -36 -90t-90 -39t-88 36t-34 88t36 91t89 39t88 -37t35 -88zM1702 733v-813q0 -184 -80 -271t-201 -87q-49 0 -92 14l-22 166q41 -6 69 -6q72 0 105 41t32 135l3 682q0 225 -15 348q107 0 209 10q-8 -72 -8 -219zM1096 1055v-105h256q-8 -59 -9 -164
h-247v-587q0 -131 8 -199h-209q14 123 14 334v452h-186l51 164h135v84q0 205 88 326t250 121q54 -1 103 -17l14 -176q-43 16 -90 17q-178 0 -178 -250zM414 1055v-105h256q-8 -59 -8 -164h-248v-587q0 -131 8 -199h-209q14 123 14 334v452h-186l51 164h135v84q0 205 88 326
t250 121q54 -1 103 -17l14 -176q-43 16 -90 17q-178 0 -178 -250z" />
    <glyph glyph-name="f_f_k" unicode="ffk" horiz-adv-x="2326" 
d="M414 1055v-105h256q-8 -59 -8 -164h-248v-587q0 -131 8 -199h-209q14 123 14 334v452h-186l51 164h135v84q0 205 88 326t250 121q54 -1 103 -17l14 -176q-43 16 -90 17q-178 0 -178 -250zM1096 1055v-105h256q-8 -59 -9 -164h-247v-587q0 -131 8 -199h-209q14 123 14 334
v452h-186l51 164h135v84q0 205 88 326t250 121q54 -1 103 -17l14 -176q-43 16 -90 17q-178 0 -178 -250zM1702 199q0 -131 8 -199h-211q14 123 14 334v782q0 215 -14 338q133 10 211 27q-8 -72 -8 -226v-727q29 35 174 207t182 221q150 0 240 9l-408 -449l88 -98
q25 -27 160 -185t193 -217l-201 -41l-428 492v-268z" />
    <glyph glyph-name="f_b" unicode="fb" horiz-adv-x="1808" 
d="M1233 129q131 -1 219 105t88 252t-71 233q-71 86 -201 86q-68 0 -134 -32t-114 -85v-504q82 -55 213 -55zM1729 498q-1 -215 -149 -375t-366 -160q-131 0 -227 70l-135 -64l-35 13q14 164 14 356v780q0 215 -14 338q102 8 211 27q-8 -72 -8 -223v-404q131 115 304 115
t289 -129t116 -344zM414 1055v-105h256q-8 -59 -8 -164h-248v-587q0 -131 8 -199h-209q14 123 14 334v452h-186l51 164h135v84q0 205 88 326t250 121q54 -1 103 -17l14 -176q-43 16 -90 17q-178 0 -178 -250z" />
    <glyph glyph-name="f_h" unicode="fh" horiz-adv-x="1798" 
d="M1464 348v246q0 211 -164 211q-100 0 -190 -82t-90 -174v-350q0 -127 8 -199h-209q12 131 12 336v780q0 207 -12 338q133 12 209 27q-8 -72 -8 -224v-485q57 92 149 146t181 53q152 0 228 -88t75 -252v-420q0 -105 8 -211h-211q14 123 14 348zM414 1055v-105h256
q-8 -59 -8 -164h-248v-587q0 -131 8 -199h-209q14 123 14 334v452h-186l51 164h135v84q0 205 88 326t250 121q54 -1 103 -17l14 -176q-43 16 -90 17q-178 0 -178 -250z" />
    <glyph glyph-name="f_j" unicode="fj" horiz-adv-x="1169" 
d="M1059 1290q0 -51 -36 -90t-90 -39t-88 36t-34 88t36 91t89 39t88 -37t35 -88zM1020 733v-813q0 -184 -80 -271t-201 -87q-49 0 -92 14l-22 166q41 -6 69 -6q72 0 105 41t32 135l3 682q0 225 -15 348q107 0 209 10q-8 -72 -8 -219zM414 1055v-105h256q-8 -59 -8 -164h-248
v-587q0 -131 8 -199h-209q14 123 14 334v452h-186l51 164h135v84q0 205 88 326t250 121q54 -1 103 -17l14 -176q-43 16 -90 17q-178 0 -178 -250z" />
    <glyph glyph-name="f_k" unicode="fk" horiz-adv-x="1644" 
d="M414 1055v-105h256q-8 -59 -8 -164h-248v-587q0 -131 8 -199h-209q14 123 14 334v452h-186l51 164h135v84q0 205 88 326t250 121q54 -1 103 -17l14 -176q-43 16 -90 17q-178 0 -178 -250zM1020 199q0 -131 8 -199h-211q14 123 14 334v782q0 215 -14 338q133 10 211 27
q-8 -72 -8 -226v-727q29 35 174 207t182 221q150 0 240 9l-408 -449l88 -98q25 -27 160 -185t193 -217l-201 -41l-428 492v-268z" />
    <glyph glyph-name=".notdef" horiz-adv-x="1024" 
d="M512 492l-367 -799h734zM922 1384l-353 -770l353 -770v1540zM102 -156l353 770l-353 770v-1540zM145 1536l367 -799l367 799h-734zM0 -410v2048h1024v-2048h-1024z" />
    <glyph glyph-name=".null" horiz-adv-x="0" 
 />
    <glyph glyph-name="nonmarkingreturn" horiz-adv-x="681" 
 />
    <glyph glyph-name="space" unicode=" " horiz-adv-x="440" 
 />
    <glyph glyph-name="exclam" unicode="!" horiz-adv-x="516" 
d="M383 97q0 -54 -37 -94t-91 -40t-88 38t-34 91t36 93t90 40t89 -37t35 -91zM383 1468q-12 -127 -16 -211l-31 -630q-8 -172 -8 -193l-135 -10q0 31 -4 110t-9 218l-14 411q-2 125 -21 287q168 10 238 18z" />
    <glyph glyph-name="quotedbl" unicode="&#x22;" horiz-adv-x="731" 
d="M190 942l-104 -24q23 272 18 528q178 25 215 29q-51 -283 -129 -533zM547 954l-105 -24q23 272 19 528q186 27 213 29q-53 -297 -127 -533z" />
    <glyph glyph-name="numbersign" unicode="#" horiz-adv-x="1423" 
d="M567 842l-45 -342h324l45 340zM985 346q-34 -303 -35 -346h-182q31 127 57 346l-321 2l-2 -20q-31 -264 -33 -328h-182q18 80 59 348q-231 0 -317 -4q18 102 26 160q98 -4 310 -4l45 344q-184 0 -320 -6q18 102 27 159q98 -4 313 -4q25 197 29 355q92 0 182 10
q-27 -125 -51 -336l-4 -29h323q27 217 31 355q92 0 182 10q-14 -66 -51 -336l-4 -29q225 0 328 4q-20 -78 -31 -159l-317 2l-43 -340q227 0 329 4q-20 -78 -30 -160z" />
    <glyph glyph-name="dollar" unicode="$" horiz-adv-x="1083" 
d="M307 1014q0 -76 50 -121t147 -86q8 117 31 403q-106 -8 -167 -64t-61 -132zM813 361q0 81 -49 125t-141 83l-35 -440q106 14 166 82q59 68 59 150zM451 133l38 490q-208 79 -286 163t-76 203q0 153 114 261t302 120l8 205q96 0 151 4q-2 -23 -18 -213q152 -20 279 -96
l-54 -170q-104 72 -239 100l-33 -442q146 -55 253 -135t106 -243q0 -163 -110 -276t-306 -133l-11 -225h-159q14 104 24 225q-190 20 -362 115l14 201q170 -123 365 -154z" />
    <glyph glyph-name="percent" unicode="%" horiz-adv-x="1501" 
d="M1272 469q0 121 -87 121t-156 -118t-69 -240t87 -121q85 1 155 119t70 239zM317 762q86 0 156 118t70 240q0 121 -87 121t-156 -118q-69 -117 -69 -239t86 -122zM268 -63l-131 63q117 139 264 332l578 753q205 266 246 328l129 -72q-66 -78 -187 -237l-741 -965
q-28 -37 -84 -107t-74 -95zM1423 469q-1 -180 -117 -339t-266 -159q-111 0 -172 73t-61 185q0 180 118 339t267 159q109 1 170 -71t61 -187zM694 1120q0 -180 -116 -339t-267 -158q-111 1 -172 73t-61 185q0 180 118 339t267 158q109 0 170 -72t61 -186z" />
    <glyph glyph-name="ampersand" unicode="&#x26;" horiz-adv-x="1439" 
d="M697 1221q-67 -1 -115 -51t-47 -140q0 -90 83 -205q227 100 228 244q0 68 -41 110t-108 42zM557 137q162 0 326 142q-231 193 -351 354q-238 -104 -237 -268q1 -98 69 -163t193 -65zM554 -37q-202 1 -330 107t-128 286q0 264 342 410q-94 152 -94 266q0 154 106 249
t258 95t238 -91t86 -206t-70 -205t-249 -174q115 -150 295 -305q111 115 225 269l135 -111q-117 -143 -233 -264q150 -125 249 -197l-124 -143q-104 98 -252 219q-252 -205 -454 -205z" />
    <glyph glyph-name="quotesingle" unicode="'" horiz-adv-x="374" 
d="M190 942l-104 -24q23 272 18 528q178 25 215 29q-51 -283 -129 -533z" />
    <glyph glyph-name="parenleft" unicode="(" horiz-adv-x="854" 
d="M164 502q0 313 167 570t443 413l72 -125q-220 -135 -362 -349t-142 -503t143 -505t363 -351l-74 -119q-274 156 -442 406t-168 563z" />
    <glyph glyph-name="parenright" unicode=")" horiz-adv-x="854" 
d="M512 510q0 289 -143 503t-365 351l76 121q274 -156 442 -406t168 -563t-167 -570t-443 -413l-72 125q219 135 362 349q142 214 142 503z" />
    <glyph glyph-name="asterisk" unicode="*" 
d="M725 1253q4 -102 10 -143q-117 4 -264 -2q49 -121 117 -244q-53 -16 -135 -51q-47 182 -78 264q-45 -33 -207 -186q-47 66 -92 110q215 139 231 152q-92 61 -227 135q51 74 80 121q162 -137 205 -170q18 61 59 262q106 -29 143 -37q-61 -131 -98 -250q49 2 256 39z" />
    <glyph glyph-name="plus" unicode="+" horiz-adv-x="1167" 
d="M659 494v-62q0 -240 9 -315h-174q10 96 14 377h-55l-299 -5q6 55 6 156q102 -4 348 -8q-4 276 -14 371q41 0 174 10q-8 -80 -9 -322v-59q281 4 355 8q-8 -51 -13 -156l-303 5h-39z" />
    <glyph glyph-name="comma" unicode="," horiz-adv-x="477" 
d="M229 -47q0 76 -108 129l-33 16q45 133 154 133q66 0 112 -53t47 -141q0 -223 -309 -430l-59 96q102 61 149 117t47 133z" />
    <glyph glyph-name="hyphen" unicode="-" horiz-adv-x="913" 
d="M354 494q-86 0 -221 -5q6 59 6 156q151 -6 321 -6t320 6q-10 -68 -10 -156q-160 4 -231 5h-185z" />
    <glyph glyph-name="period" unicode="." horiz-adv-x="475" 
d="M238 225q54 0 90 -37q34 -37 34 -91t-36 -94t-92 -40q-54 0 -88 38t-34 91t36 93t90 40z" />
    <glyph glyph-name="slash" unicode="/" horiz-adv-x="696" 
d="M696 1509q-78 -250 -98 -323l-385 -1387q-14 -49 -78 -286l-172 -17q47 158 133 469l303 1086q88 309 119 450q67 -2 178 8z" />
    <glyph glyph-name="zero" unicode="0" horiz-adv-x="1214" 
d="M297 500q0 -164 83 -268t225 -103q141 1 227 111t86 274t-82 267t-226 103t-228 -110q-85 -110 -85 -274zM616 1053q228 -1 361 -151t133 -382t-142 -395q-142 -164 -370 -164t-360 152q-134 152 -134 382t142 394t370 164z" />
    <glyph glyph-name="one" unicode="1" horiz-adv-x="741" 
d="M516 815v-602q0 -147 6 -213h-205q10 86 11 354v480l-222 -56l-30 168q213 53 307 82l113 31l26 -21q-6 -55 -6 -223z" />
    <glyph glyph-name="two" unicode="2" horiz-adv-x="1009" 
d="M510 0q-223 0 -393 -8l-31 133q350 266 468 385t118 205t-51 129t-140 43q-141 0 -284 -119l-58 162q163 125 337 125t280 -86t106 -228q0 -178 -205 -360q-104 -92 -268 -215q336 0 526 8q-10 -76 -16 -182q-166 8 -389 8z" />
    <glyph glyph-name="three" unicode="3" horiz-adv-x="983" 
d="M860 61q0 -169 -141 -279t-359 -110q-137 0 -264 35l-28 170q154 -37 284 -37t222 56t94 164q0 106 -108 168t-300 51l-27 137q221 74 316 145q94 72 94 152t-53 127q-52 47 -138 47q-172 0 -298 -103l-64 156q174 115 351 115t285 -88q108 -89 108 -219t-78 -212
t-232 -145q147 -20 242 -104q94 -85 94 -226z" />
    <glyph glyph-name="four" unicode="4" horiz-adv-x="1101" 
d="M662 238v524l-402 -524h402zM662 86h-107q-313 0 -483 -8l-37 129l516 661l147 195l152 -14q-6 -82 -6 -224v-587q117 0 215 4q-14 -84 -17 -164l-198 6v-170q0 -170 6 -236h-199q10 86 11 334v74z" />
    <glyph glyph-name="five" unicode="5" horiz-adv-x="997" 
d="M698 115q0 102 -74 157q-76 56 -190 56t-252 -29l-49 31q8 92 12 235l9 244q4 152 0 203l28 26q202 -6 340 -6t355 6q-12 -45 -25 -184q-205 4 -317 4h-203l-13 -371q72 10 125 11q219 0 333 -100t114 -267q0 -213 -174 -336t-436 -123q-102 1 -168 17l-29 170
q78 -16 166 -17q196 0 322 73t126 200z" />
    <glyph glyph-name="six" unicode="6" horiz-adv-x="1132" 
d="M299 510q0 -186 76 -284t201 -97q126 0 194 83t68 209q0 127 -70 199t-202 72q-133 0 -265 -108q-2 -25 -2 -74zM640 850q178 0 284 -122t106 -308t-129 -322q-129 -135 -337 -135q-208 1 -333 149t-125 392q0 304 194 555q95 123 257 211t371 119l35 -168
q-532 -90 -637 -494q137 123 314 123z" />
    <glyph glyph-name="seven" unicode="7" horiz-adv-x="1015" 
d="M442 858q-246 0 -370 -2q14 172 14 182q226 -6 412 -6t409 6l45 -84q-18 -29 -121 -239l-380 -799q-98 -205 -117 -266l-172 90q109 188 174 334l371 784h-265z" />
    <glyph glyph-name="eight" unicode="8" horiz-adv-x="1089" 
d="M340 1014q0 -145 229 -238q98 37 151 104q52 68 52 152t-60 142t-156 57q-96 1 -156 -61t-60 -156zM293 344q0 -100 78 -160q77 -60 187 -61t174 65t65 159t-61 158t-193 122q-250 -102 -250 -283zM102 332q0 125 74 218t197 140q-98 49 -160 131q-61 82 -61 193
q0 156 118 266t291 109q172 1 286 -105t114 -252q0 -199 -226 -323q252 -133 252 -336q0 -180 -124 -295t-318 -115q-195 -1 -319 105t-124 264z" />
    <glyph glyph-name="nine" unicode="9" horiz-adv-x="1136" 
d="M561 887q-117 0 -189 -83t-73 -204q1 -122 71 -196t202 -74t253 73q6 51 6 111q0 373 -270 373zM490 170q-156 0 -271 120t-115 308t129 323q129 134 336 134q207 1 330 -141t123 -388q0 -336 -180 -551t-576 -325l-80 153q258 68 407 179q148 111 204 278
q-151 -90 -307 -90z" />
    <glyph glyph-name="colon" unicode=":" horiz-adv-x="475" 
d="M238 844q54 0 90 -37q34 -37 34 -91t-36 -94t-92 -40q-54 0 -88 38t-34 91t36 93t90 40zM238 225q54 0 90 -37q34 -37 34 -91t-36 -94t-92 -40q-54 0 -88 38t-34 91t36 93t90 40z" />
    <glyph glyph-name="semicolon" unicode=";" horiz-adv-x="477" 
d="M367 716q0 -54 -37 -94t-91 -40t-88 38t-34 91t36 93t90 40t89 -37t35 -91zM229 -48q0 75 -108 130l-33 16q45 133 154 133q66 0 112 -53t47 -141q0 -223 -309 -430l-59 96q102 61 149 117t47 132z" />
    <glyph glyph-name="less" unicode="&#x3c;" horiz-adv-x="1167" 
d="M827 70q-129 102 -577 440l-4 90q307 236 579 461l88 -131q-160 -117 -280 -211l-199 -158l209 -162q145 -115 275 -198z" />
    <glyph glyph-name="equal" unicode="=" horiz-adv-x="1167" 
d="M588 457q166 0 407 8q-8 -51 -12 -158l-285 4h-241l-283 -4q6 55 6 158q242 -8 408 -8zM588 815q166 0 407 8q-8 -51 -12 -157l-285 4h-241l-283 -4q6 55 6 157q242 -8 408 -8z" />
    <glyph glyph-name="greater" unicode="&#x3e;" horiz-adv-x="1167" 
d="M340 1061q129 -102 578 -440l4 -91q-307 -236 -580 -460l-88 131q160 117 281 211l196 157l-207 162q-145 115 -274 199z" />
    <glyph glyph-name="question" unicode="?" horiz-adv-x="927" 
d="M272 96q0 54 37 96t95 42t94 -40q37 -39 37 -93t-38 -96q-37 -42 -95 -42t-94 39t-36 94zM862 1151q0 -86 -52 -152q-52 -65 -127 -103t-149 -70t-127 -70q-52 -38 -53 -86q0 -109 144 -109q80 0 149 29l37 -178q-88 -27 -184 -27q-156 0 -248 75t-92 202q0 86 52 149
t127 99t151 68q179 76 180 169q0 73 -56 111t-155 38q-199 0 -346 -114l-11 196q58 41 162 69t193 28q185 -1 295 -89t110 -235z" />
    <glyph glyph-name="at" unicode="@" horiz-adv-x="1779" 
d="M942 793q-94 0 -177 -117t-83 -256q0 -94 24 -134t74 -40q76 0 167 112t114 269l18 125q-43 41 -137 41zM969 1202q-289 0 -495 -218t-206 -515t172 -462t447 -165q129 0 269 38t239 100l41 -97q-258 -153 -572 -153t-517 208q-202 208 -202 498q0 197 74 365
q140 318 469 451q154 62 313 63q307 0 483 -181t175 -423q0 -242 -139 -418t-346 -176q-106 0 -140 78q-33 78 2 184q-57 -115 -149 -189t-176 -74t-133 74q-49 72 -50 191q0 193 132 365t305 174q53 0 99 -14t62 -34l113 58l14 -15l-86 -548q-33 -144 54 -144
q117 0 216 126t99 326t-127 357q-63 78 -177 124t-263 46z" />
    <glyph glyph-name="A" unicode="A" horiz-adv-x="1435" 
d="M705 1092l-230 -517h459zM12 0l486 1049q121 260 178 411l53 15l492 -1057q123 -268 200 -418l-221 -16l-192 428h-607l-8 -21q-53 -125 -160 -391h-221z" />
    <glyph glyph-name="B" unicode="B" horiz-adv-x="1273" 
d="M901 1058q0 106 -82 162t-235 56q-45 0 -168 -6q-2 -35 -2 -121v-199q0 -85 2 -114q90 -4 151 -5q160 1 247 61t87 166zM623 174q161 0 251 62t90 183q0 119 -94 185q-96 66 -286 66q-119 0 -170 -6v-369q0 -70 2 -111q102 -10 207 -10zM1106 1079q0 -106 -62 -185
t-161 -120q141 -45 215 -137t73 -217q0 -176 -142 -298t-392 -122h-434q14 137 14 494v452q0 356 -14 494l395 10q252 0 380 -113t128 -258z" />
    <glyph glyph-name="C" unicode="C" horiz-adv-x="1390" 
d="M827 -37q-309 0 -513 212t-203 507q0 334 215 563t540 230q246 0 426 -129l-57 -185q-168 131 -391 131t-375 -162t-152 -420q-1 -258 147 -412q148 -155 388 -155t459 207l-15 -223q-211 -164 -469 -164z" />
    <glyph glyph-name="D" unicode="D" horiz-adv-x="1492" 
d="M1174 737q0 248 -151 393t-425 146q-94 0 -178 -6q-2 -37 -2 -127v-844q0 -74 2 -115q102 -10 184 -10q290 0 430 158t140 405zM1380 764q0 -336 -206 -550t-537 -214h-434q14 137 14 494v452q0 356 -14 494l399 10q366 0 572 -196t206 -490z" />
    <glyph glyph-name="E" unicode="E" horiz-adv-x="1116" 
d="M620 2q-266 0 -417 -10q14 137 14 502v452q0 369 -14 506q199 -10 403 -10t408 10q-12 -76 -17 -178q-242 4 -380 4t-197 -2q-2 -39 -2 -125v-309l500 4q-6 -74 -7 -176l-493 4v-379q0 -88 2 -127l186 -2q240 0 449 6q-10 -78 -15 -180q-154 10 -420 10z" />
    <glyph glyph-name="F" unicode="F" horiz-adv-x="1077" 
d="M617 1278q-138 0 -197 -2q-2 -39 -2 -125v-328l485 2q-6 -74 -6 -174l-479 4v-360q0 -238 6 -295h-221q14 137 14 494v452q0 369 -14 506q199 -10 403 -10t406 10q-12 -82 -15 -178q-242 4 -380 4z" />
    <glyph glyph-name="G" unicode="G" horiz-adv-x="1509" 
d="M836 -37q-297 0 -511 214q-214 213 -214 531t224 542t556 225q115 0 242 -37t213 -92l-58 -185q-74 59 -192 95t-226 36q-246 0 -400 -162t-153 -420q0 -258 160 -412q160 -155 397 -155q166 0 291 66v256q0 86 -4 123q-61 2 -135 2t-252 -6q6 109 0 184q188 -6 314 -6
t288 8q-14 -113 -14 -496v-159q-229 -152 -526 -152z" />
    <glyph glyph-name="H" unicode="H" horiz-adv-x="1591" 
d="M1174 666h-756v-371q0 -209 6 -295h-221q14 137 14 494v452q0 356 -14 494q139 0 221 10q-6 -90 -6 -303v-313h756v112q0 356 -15 494q139 0 221 10q-6 -90 -6 -303v-852q0 -209 6 -295h-221q14 137 15 494v172z" />
    <glyph glyph-name="I" unicode="I" horiz-adv-x="651" 
d="M225 494v452q0 356 -14 494q139 0 221 10q-6 -90 -6 -303v-852q0 -209 6 -295h-221q14 137 14 494z" />
    <glyph glyph-name="J" unicode="J" horiz-adv-x="872" 
d="M475 946q0 356 -14 494q139 0 221 10q-6 -88 -6 -303v-744q0 -229 -88 -334t-293 -106q-139 0 -260 55l12 189q131 -66 246 -66q182 0 182 226v579z" />
    <glyph glyph-name="K" unicode="K" horiz-adv-x="1327" 
d="M418 295q0 -209 6 -295h-221q14 137 14 494v452q0 356 -14 494q139 0 221 10q-6 -90 -6 -303v-383l264 289q104 115 350 391h260l-657 -692l301 -332q139 -158 381 -420l-246 -16l-653 731v-420z" />
    <glyph glyph-name="L" unicode="L" horiz-adv-x="1089" 
d="M620 2q-266 0 -417 -10q14 137 14 502v452q0 356 -14 494q139 0 221 10q-6 -90 -6 -303v-848q0 -86 4 -127l184 -2q240 0 449 6q-10 -78 -15 -184q-154 10 -420 10z" />
    <glyph glyph-name="M" unicode="M" horiz-adv-x="1804" 
d="M115 0q37 162 82 494l63 454q41 297 57 512l54 15q45 -109 139 -306l391 -843l391 843q106 231 138 306h49q4 -47 65 -525l64 -456q39 -281 84 -494l-211 -16q-12 186 -35 311l-82 629q-418 -883 -442 -944l-52 -15q-55 126 -232 513q-178 387 -204 444l-84 -627
q-29 -219 -31 -295h-204z" />
    <glyph glyph-name="N" unicode="N" horiz-adv-x="1607" 
d="M1208 946q0 362 -16 494q139 0 227 10q-10 -76 -16 -303l-14 -864q-7 -195 4 -303l-54 -15l-938 1079v-749q0 -219 9 -295h-226q18 156 25 494l8 491q4 317 -8 475l53 15l946 -1096v567z" />
    <glyph glyph-name="O" unicode="O" horiz-adv-x="1660" 
d="M820 -37q-316 0 -513 211t-196 508q0 336 207 564q208 228 524 228t512 -210q197 -211 196 -508q0 -336 -208 -564q-206 -228 -522 -229zM833 1305q-223 0 -369 -172t-146 -426t142 -414q144 -160 368 -160t370 172q145 172 145 426t-143 414t-367 160z" />
    <glyph glyph-name="P" unicode="P" horiz-adv-x="1173" 
d="M920 995q0 281 -351 281q-66 0 -153 -6v-563q55 -6 114 -7q182 0 286 78t104 217zM1126 1026q0 -217 -148 -353t-450 -136q-38 0 -112 4v-246q0 -209 6 -295h-221q14 137 14 494v452q0 356 -14 494l401 10q250 0 387 -122t137 -302z" />
    <glyph glyph-name="Q" unicode="Q" horiz-adv-x="1669" 
d="M833 1305q-223 0 -369 -172t-146 -426t142 -414q144 -160 368 -160t370 172q145 172 145 426t-143 414t-367 160zM111 682q0 336 207 564q208 228 524 228t512 -210q197 -211 196 -508q0 -244 -114 -438t-308 -285l254 -72q180 -51 344 -80l-131 -164l-809 248
q-297 8 -486 217t-189 500z" />
    <glyph glyph-name="R" unicode="R" horiz-adv-x="1296" 
d="M416 735h215q133 0 212 78t79 193q0 270 -324 270q-98 0 -182 -6v-535zM416 567v-272q0 -209 6 -295h-221q14 137 14 494v452q0 356 -14 494l377 10q258 4 406 -118t144 -300q-8 -287 -303 -418l211 -309q164 -230 215 -293l-237 -26l-371 581h-227z" />
    <glyph glyph-name="S" unicode="S" horiz-adv-x="1081" 
d="M979 403q0 -190 -130 -315t-347 -125q-98 0 -210 34t-194 87l13 213q67 -61 181 -107t228 -47q114 1 187 61q72 60 71 173q0 78 -64 141q-65 64 -156 114t-182 103t-156 136t-64 188q0 176 128 296t321 120t337 -107l-65 -176q-53 43 -131 73t-146 29q-108 0 -176 -58
t-68 -142t65 -141q65 -58 156 -105q91 -48 182 -102t155 -142t65 -201z" />
    <glyph glyph-name="T" unicode="T" horiz-adv-x="1314" 
d="M754 1141v-846q0 -209 6 -295h-221q14 137 14 494v444q0 221 -4 336q-174 0 -486 -4q8 68 9 182q306 -10 586 -10t593 10q-12 -76 -16 -182q-315 4 -479 4q-2 -45 -2 -133z" />
    <glyph glyph-name="U" unicode="U" horiz-adv-x="1548" 
d="M1354 1147v-549q0 -174 -38 -280t-120 -189q-166 -166 -453 -166q-245 0 -397 143t-151 386v454q0 356 -15 494q139 0 223 10q-8 -80 -8 -303v-590q0 -416 387 -416q174 1 272 101t99 272v432q0 362 -16 494q141 0 227 10q-10 -74 -10 -303z" />
    <glyph glyph-name="V" unicode="V" horiz-adv-x="1349" 
d="M12 1436l221 16l453 -1083l277 678q86 215 149 391h225l-456 -1049q-117 -260 -166 -412l-53 -14l-459 1055q-91 213 -191 418z" />
    <glyph glyph-name="W" unicode="W" horiz-adv-x="2027" 
d="M2015 1438l-397 -1049q-123 -330 -150 -412l-49 -14l-399 1063l-252 -647q-16 -43 -72 -183t-92 -233h-49l-383 1055q-96 268 -160 418l217 16l365 -1057l256 670l145 393l52 15l395 -1074l225 648q78 236 127 391h221z" />
    <glyph glyph-name="X" unicode="X" horiz-adv-x="1452" 
d="M319 0h-243l530 719l-215 303q-210 297 -301 420l234 16l399 -588l121 183q39 59 133 193t137 198h242l-518 -701l229 -323q297 -414 301 -420l-233 -16l-412 606l-133 -197q-103 -158 -271 -393z" />
    <glyph glyph-name="Y" unicode="Y" horiz-adv-x="1277" 
d="M743 295q0 -209 7 -295h-222q14 137 15 494v129l-217 335q-142 232 -314 484l226 16l407 -657l123 190q18 29 279 453h233l-537 -811v-338z" />
    <glyph glyph-name="Z" unicode="Z" horiz-adv-x="1298" 
d="M654 2q-388 0 -564 -10l-41 39l881 1245q-88 2 -284 2t-505 -4q8 68 9 178q303 -10 574 -10t486 10l39 -37l-880 -1247l274 -2q356 0 561 6q-12 -74 -16 -180q-146 10 -534 10z" />
    <glyph glyph-name="bracketleft" unicode="[" horiz-adv-x="798" 
d="M511 -459q-171 0 -275 -8l-25 14q12 121 12 410v1100q0 279 -12 399l27 29q129 -10 273 -10t265 8q-6 -57 -10 -160q-180 4 -256 4t-119 -2v-1372q0 -197 8 -262l127 -2q80 0 260 4q-14 -78 -16 -160q-88 8 -259 8z" />
    <glyph glyph-name="backslash" unicode="\" horiz-adv-x="653" 
d="M520 -504q-41 168 -80 303l-391 1387q-57 203 -92 315q104 0 176 8q25 -123 119 -458l305 -1086q94 -340 129 -452z" />
    <glyph glyph-name="bracketright" unicode="]" horiz-adv-x="798" 
d="M288 1475q170 0 275 8l25 -15q-12 -119 -13 -409v-1100q0 -279 13 -399l-27 -29q-129 10 -273 10t-265 -8q6 57 10 160q180 -4 256 -4t119 2v1366q0 203 -9 268l-127 2q-80 0 -260 -4q14 78 17 160q89 -8 259 -8z" />
    <glyph glyph-name="asciicircum" unicode="^" horiz-adv-x="1183" 
d="M700 1112l-116 145l-119 -153q-158 -213 -180 -246l-133 103q225 285 389 505l82 9q131 -172 409 -514l-139 -99q-87 117 -193 250z" />
    <glyph glyph-name="underscore" unicode="_" horiz-adv-x="1386" 
d="M907 0h-430q-178 0 -411 -4q6 59 6 156q208 -6 626 -6t627 6q-10 -68 -10 -156q-238 4 -408 4z" />
    <glyph glyph-name="grave" unicode="`" horiz-adv-x="634" 
d="M82 1395l231 18l187 -305l-121 -10z" />
    <glyph glyph-name="a" unicode="a" horiz-adv-x="993" 
d="M410 123q98 1 164 65t69 162l4 92q-57 4 -84 4q-161 0 -235 -51t-74 -135q0 -137 156 -137zM72 259q0 136 129 222t368 86q27 0 80 -4l2 31q4 106 -44 158q-49 52 -171 53q-122 0 -243 -90l-43 164q160 92 336 92q176 -1 264 -99q90 -98 86 -266l-13 -405q-2 -82 60 -82
q33 0 82 16l-19 -131q-70 -29 -127 -29t-102 42t-53 118q-94 -164 -314 -164q-116 0 -197 76t-81 212z" />
    <glyph glyph-name="b" unicode="b" horiz-adv-x="1126" 
d="M552 129q130 -1 218 105t88 252t-71 233q-71 86 -201 86q-68 0 -134 -32t-114 -85v-504q84 -55 214 -55zM1047 498q-1 -215 -149 -375t-366 -160q-131 0 -227 70l-135 -64l-35 13q14 164 15 356v780q0 215 -15 338q102 8 211 27q-8 -72 -8 -223v-404q131 115 304 115
t289 -129t116 -344z" />
    <glyph glyph-name="c" unicode="c" horiz-adv-x="978" 
d="M584 803q-142 0 -229 -94t-87 -245t94 -243t228 -92q88 0 156 27t143 94l-8 -195q-82 -51 -150 -71t-164 -21q-207 0 -346 138t-139 351t142 366t360 153q178 0 309 -92l-53 -166q-114 90 -256 90z" />
    <glyph glyph-name="d" unicode="d" horiz-adv-x="1126" 
d="M570 807q-136 0 -219 -101t-83 -255t81 -239t200 -85q75 0 141 39t98 104v451q-82 86 -218 86zM569 971q131 0 219 -68l-2 213q0 231 -12 338q133 10 211 27q-8 -72 -8 -224v-917q0 -209 14 -340h-174l-14 102q-47 -61 -127 -100t-162 -39q-198 0 -316 134t-118 348
t140 370t349 156z" />
    <glyph glyph-name="e" unicode="e" horiz-adv-x="1024" 
d="M546 813q-108 -1 -180 -71t-92 -185l502 14q-16 121 -69 181t-161 61zM565 129q172 0 342 139l-8 -192q-170 -113 -352 -113q-225 0 -345 137t-120 352t132 367t338 152t303 -129t97 -336l-123 -74l-559 -16q23 -287 295 -287z" />
    <glyph glyph-name="f" unicode="f" horiz-adv-x="681" 
d="M414 1055v-105h256q-8 -59 -8 -164h-248v-587q0 -131 8 -199h-209q14 123 14 334v452h-186l51 164h135v84q0 205 88 326t250 121q54 -1 103 -17l14 -176q-43 16 -90 17q-178 0 -178 -250z" />
    <glyph glyph-name="g" unicode="g" horiz-adv-x="974" 
d="M504 825q-92 0 -152 -60t-59 -150q0 -91 54 -145q53 -54 147 -54t152 58t59 148q-1 90 -55 146t-146 57zM506 -18q-72 0 -123 6q-172 -74 -172 -174q0 -53 62 -90q61 -37 193 -37t223 52t91 128q0 115 -245 115h-29zM881 626q0 -148 -115 -252q-115 -103 -289 -104
q-59 0 -119 17q-68 -41 -68 -80t45 -54q44 -15 165 -16h41q416 0 415 -243q0 -144 -147 -248t-353 -104t-314 68q-108 69 -107 175q0 150 203 244q-113 51 -113 141t129 168q-139 96 -139 258t113 268q114 106 284 107q80 0 150 -27q57 201 282 172l-10 -166
q-129 14 -168 -69q115 -107 115 -255z" />
    <glyph glyph-name="h" unicode="h" horiz-adv-x="1116" 
d="M782 348v246q0 211 -164 211q-100 0 -190 -82t-90 -174v-350q0 -127 8 -199h-209q12 131 13 336v780q0 207 -13 338q133 12 209 27q-8 -72 -8 -224v-485q57 92 149 146t181 53q152 0 228 -88t75 -252v-420q0 -105 8 -211h-211q14 123 14 348z" />
    <glyph glyph-name="i" unicode="i" horiz-adv-x="487" 
d="M377 1290q0 -51 -36 -90t-90 -39t-88 36t-34 88t36 91t89 39t88 -37t35 -88zM150 594q0 225 -15 348q109 0 211 10q-8 -72 -8 -219v-534q0 -127 8 -199h-211q14 123 15 336v258z" />
    <glyph glyph-name="j" unicode="j" horiz-adv-x="487" 
d="M377 1290q0 -51 -36 -90t-90 -39t-88 36t-34 88t36 91t89 39t88 -37t35 -88zM338 733v-813q0 -184 -80 -271t-201 -87q-49 0 -92 14l-22 166q39 -6 69 -6q72 0 105 41t33 135l2 682q0 225 -15 348q107 0 209 10q-8 -72 -8 -219z" />
    <glyph glyph-name="k" unicode="k" horiz-adv-x="962" 
d="M338 199q0 -131 8 -199h-211q14 123 15 334v782q0 215 -15 338q133 10 211 27q-8 -72 -8 -226v-727q29 35 174 207t182 221q150 0 240 9l-408 -449l88 -98q25 -27 160 -185t193 -217l-201 -41l-428 492v-268z" />
    <glyph glyph-name="l" unicode="l" horiz-adv-x="487" 
d="M150 1116q0 215 -15 338q133 10 211 27q-8 -72 -8 -224v-1058q0 -127 8 -199h-211q14 123 15 336v780z" />
    <glyph glyph-name="m" unicode="m" horiz-adv-x="1673" 
d="M1339 348v246q0 211 -157 211q-102 0 -177 -68t-75 -162v-364q0 -139 8 -211h-209q12 131 12 348v246q0 100 -32 156q-33 55 -126 55t-169 -69t-76 -161v-364q0 -139 8 -211h-211q14 123 15 348v246q0 225 -15 348q82 0 184 10l15 -155q129 174 305 174q215 0 272 -183
q49 82 133 132t185 51q299 0 299 -340v-420q0 -139 8 -211h-211q14 123 14 348z" />
    <glyph glyph-name="n" unicode="n" horiz-adv-x="1116" 
d="M782 348v246q0 211 -164 211q-100 0 -190 -82t-90 -174v-338q0 -139 8 -211h-209q12 131 13 348v246q0 217 -13 348q82 0 185 10l14 -182q57 92 149 146t183 55q152 0 228 -88t75 -252v-420q0 -105 8 -211h-211q14 123 14 348z" />
    <glyph glyph-name="o" unicode="o" horiz-adv-x="1101" 
d="M548 129q130 1 208 97t78 248t-79 241q-79 90 -204 90t-204 -95t-79 -250t75 -243t205 -88zM558 971q210 0 336 -140t126 -352t-134 -364t-343 -152t-335 140t-126 352t133 364t343 152z" />
    <glyph glyph-name="p" unicode="p" horiz-adv-x="1126" 
d="M575 125q125 1 204 107t79 260t-78 235q-78 80 -198 80q-70 0 -136 -39t-108 -102v-445q82 -96 237 -96zM1047 486q1 -220 -145 -372t-309 -151q-163 0 -255 78v-270q0 -123 8 -191l-211 -18q14 123 15 346v686q0 225 -15 348q102 0 184 8l9 -127q123 147 308 147
t298 -132t113 -352z" />
    <glyph glyph-name="q" unicode="q" horiz-adv-x="1126" 
d="M977 598v-825q0 -121 8 -193l-209 -18q12 109 12 348v168q-104 -115 -284 -115t-302 133t-122 348t144 371t358 156q131 0 241 -72l135 68l33 -13q-14 -160 -14 -356zM570 807q-130 0 -216 -102t-86 -253t77 -237t202 -86q70 0 138 34t103 87v489q-88 68 -218 68z" />
    <glyph glyph-name="r" unicode="r" horiz-adv-x="696" 
d="M338 563v-352q0 -139 8 -211h-209q12 106 13 348v287q0 174 -21 295q88 2 186 26l21 -186q57 94 136 140t196 61l-25 -217q-109 20 -207 -34t-98 -157z" />
    <glyph glyph-name="s" unicode="s" horiz-adv-x="849" 
d="M461 971q160 0 284 -78l-63 -164q-102 76 -231 76q-160 0 -160 -115q0 -70 172 -127q73 -25 143 -57t120 -89q50 -58 50 -141q0 -141 -108 -227t-262 -86q-80 0 -174 24t-150 60l10 195q62 -49 150 -81t169 -32t131 31t50 84q0 91 -171 149q-71 25 -141 56t-121 90
q-50 59 -50 143q0 121 96 205t256 84z" />
    <glyph glyph-name="t" unicode="t" horiz-adv-x="714" 
d="M205 250v536h-170l49 164h123l18 201l168 45v-246h252q-6 -68 -6 -164h-246v-524q0 -70 25 -96t91 -27q66 0 142 49l-8 -163q-66 -53 -186 -54q-252 0 -252 279z" />
    <glyph glyph-name="u" unicode="u" horiz-adv-x="1116" 
d="M334 367q0 -238 180 -238q92 0 178 71t86 156v238q0 225 -14 348q111 0 213 10q-10 -88 -10 -219v-393q0 -209 14 -340h-174l-23 147q-53 -88 -143 -136t-164 -48q-332 0 -332 367v264q0 217 -12 348q106 0 209 10q-8 -72 -8 -219v-366z" />
    <glyph glyph-name="v" unicode="v" horiz-adv-x="987" 
d="M430 -23q-23 72 -139 347l-115 262q-129 291 -158 346l205 26l277 -690q118 318 250 678q129 0 208 8l-399 -962z" />
    <glyph glyph-name="w" unicode="w" horiz-adv-x="1445" 
d="M373 -23q-27 104 -113 347l-98 262q-96 258 -137 346l206 26l211 -649l93 266q78 221 122 371l138 12l231 -645l84 265q63 197 109 368q119 0 200 8l-336 -962l-120 -15q-49 170 -129 392l-109 290l-229 -667z" />
    <glyph glyph-name="x" unicode="x" horiz-adv-x="946" 
d="M477 352l-248 -352h-213l355 471l-37 53q-117 186 -271 408l203 26l221 -352q17 28 222 340q143 0 217 8l-334 -471l53 -80q106 -170 268 -397l-200 -29z" />
    <glyph glyph-name="y" unicode="y" horiz-adv-x="958" 
d="M158 -434l235 536q-6 12 -38 96t-50 126l-119 262q-109 248 -161 346l211 26l253 -641l111 271q66 162 133 358q129 0 209 8l-459 -1083q-8 -23 -55 -137t-61 -160q-127 0 -209 -8z" />
    <glyph glyph-name="z" unicode="z" horiz-adv-x="940" 
d="M472 0q-183 0 -388 -10l-27 47l545 754q-182 0 -493 -5q8 106 8 168q197 -6 371 -6t376 6l27 -47l-547 -749q389 0 528 4q-14 -78 -16 -172q-201 10 -384 10z" />
    <glyph glyph-name="braceleft" unicode="{" horiz-adv-x="833" 
d="M432 692q0 32 -38 95q-113 184 -111 288q0 305 413 404l37 -119q-281 -84 -280 -242q1 -59 69 -186t68 -189q0 -152 -215 -235q125 -43 170 -101t45 -127t-69 -195t-68 -185q0 -158 280 -242l-37 -119q-414 98 -413 404q0 108 111 286q38 61 38 95t-60 64q-60 32 -225 69
v102q164 37 225 69q60 32 60 64z" />
    <glyph glyph-name="bar" unicode="|" horiz-adv-x="647" 
d="M246 1008q0 375 -13 493q86 0 175 10q-6 -59 -7 -303v-1405q1 -238 7 -295h-175q12 119 13 494v1006z" />
    <glyph glyph-name="braceright" unicode="}" horiz-adv-x="833" 
d="M401 696q0 -71 285 -135v-102q-282 -63 -284 -133q0 -32 36 -96q37 -62 75 -140t38 -147q0 -305 -414 -404l-37 119q281 84 281 242q0 59 -69 186t-68 188q0 152 215 236q-125 43 -170 101q-45 59 -45 127t68 194t69 186q0 158 -281 242l37 119q414 -98 414 -404
q0 -69 -38 -147t-75 -140t-37 -92z" />
    <glyph glyph-name="asciitilde" unicode="~" horiz-adv-x="1044" 
d="M350 723q66 0 187 -54q121 -55 149 -55t54 31q24 31 34 94l148 -20q-25 -133 -86 -200q-60 -67 -136 -67t-196 56q-120 55 -152 55q-66 0 -82 -117l-147 21q47 256 227 256z" />
    <glyph glyph-name="uni00A0" unicode="&#xa0;" horiz-adv-x="440" 
 />
    <glyph glyph-name="exclamdown" unicode="&#xa1;" horiz-adv-x="516" 
d="M137 1340q0 54 37 94t91 41q54 0 88 -38t34 -91q0 -54 -36 -94t-90 -40t-89 37t-35 91zM137 -31q12 127 17 211l30 631q8 172 9 193l135 10q0 -31 4 -107t8 -221l14 -412q2 -125 21 -286q-168 -11 -238 -19z" />
    <glyph glyph-name="cent" unicode="&#xa2;" horiz-adv-x="993" 
d="M264 475q0 -266 191 -336q2 37 10 154l29 448q0 20 4 66q-110 -27 -172 -117t-62 -215zM82 456q0 188 118 334t304 175q6 125 6 186q61 0 154 10q-10 -90 -17 -194q139 -18 258 -99l-53 -153q-98 76 -215 94q-4 -49 -4 -72l-31 -454l-10 -164q168 4 311 129l-8 -189
q-147 -90 -313 -96q-6 -133 -4 -186h-150l16 198q-164 35 -263 164t-99 317z" />
    <glyph glyph-name="sterling" unicode="&#xa3;" horiz-adv-x="1038" 
d="M94 766h168q-47 102 -47 199q0 171 123 291t296 120t298 -65l-43 -166q-119 63 -233 63t-185 -59q-70 -59 -70 -155t66 -226q205 2 375 14q-4 -35 -11 -170q-129 2 -292 0q20 -61 20 -116q0 -182 -158 -328q238 0 586 14q-12 -96 -14 -190q-133 8 -427 8t-452 -12
l-26 135q158 78 236 158t77 190q0 57 -35 131l-258 -4q6 61 6 168z" />
    <glyph glyph-name="yen" unicode="&#xa5;" horiz-adv-x="1292" 
d="M733 438q258 0 438 6q-4 -18 -14 -161q-125 4 -424 4v-11q0 -203 8 -276h-202q6 49 12 287q-313 0 -438 -4q6 61 6 161q178 -6 432 -6l2 127l-37 58q-285 0 -399 -2q6 61 6 155q123 -6 297 -6l-74 117q-182 295 -291 456l207 15l383 -621l115 185q53 86 256 424h225
l-379 -576q184 0 314 6q-4 -23 -15 -155q-115 2 -395 2l-33 -50v-135z" />
    <glyph glyph-name="section" unicode="&#xa7;" horiz-adv-x="956" 
d="M289 553q0 -61 60 -107t208 -108q59 23 96 68t37 89q0 43 -18 73q-35 58 -236 147q-147 -53 -147 -162zM100 526q0 184 187 271q-147 95 -147 237t104 242q106 100 282 100t305 -88l-51 -164q-133 88 -268 88q-82 0 -134 -42t-52 -105t56 -111t136 -83t160 -77t136 -111
t56 -159q0 -172 -168 -268q148 -94 148 -240t-111 -246t-299 -100t-338 90l11 191q158 -115 331 -115q98 0 159 45t61 111t-58 110q-58 45 -141 80q-82 35 -165 76q-84 40 -142 108t-58 160z" />
    <glyph glyph-name="dieresis" unicode="&#xa8;" horiz-adv-x="755" 
d="M682 1270q0 -51 -35 -90t-87 -39t-85 36t-33 88t35 91t87 39t85 -37t33 -88zM196 1395q52 0 84 -37t33 -88q-1 -51 -35 -90t-86 -39t-86 36q-32 36 -32 88t35 91t87 39z" />
    <glyph glyph-name="copyright" unicode="&#xa9;" horiz-adv-x="1777" 
d="M892 330q-152 0 -262 110t-110 277q0 168 116 288t294 119q129 0 225 -65l-31 -131q-86 66 -196 66t-180 -76q-72 -74 -72 -195t70 -193t186 -72q115 0 227 99l-8 -151q-106 -76 -259 -76zM1530 719q0 269 -186 459t-455 190t-455 -190t-186 -458t186 -460
q186 -190 454 -190t456 190q186 190 186 459zM1645 719q1 -313 -221 -535t-535 -221q-313 0 -535 221q-221 220 -221 534t221 535q220 221 534 221t536 -220q222 -222 221 -535z" />
    <glyph glyph-name="ordfeminine" unicode="&#xaa;" horiz-adv-x="735" 
d="M326 915q49 0 88 37t41 95l2 55q-41 4 -58 4q-84 0 -127 -28t-43 -70t24 -68q24 -25 73 -25zM334 1341q-96 0 -184 -61l-29 129q121 66 246 66q125 1 188 -63t59 -183l-8 -264q-2 -51 41 -52q20 0 45 11l-8 -99q-49 -27 -100 -26q-100 0 -119 102q-59 -105 -210 -103
q-75 0 -129 51q-54 50 -54 141q0 90 82 150t237 60q18 0 68 -4l2 29q6 116 -127 116z" />
    <glyph glyph-name="guillemotleft" unicode="&#xab;" horiz-adv-x="1210" 
d="M948 932q78 2 170 18q-168 -260 -330 -477q23 -35 116 -187t192 -292l-109 -49q-170 176 -432 499l6 31q199 226 387 457zM496 932q78 2 170 18q-168 -260 -330 -477q102 -164 307 -459l-108 -49q-272 283 -433 479l7 31q199 226 387 457z" />
    <glyph glyph-name="registered" unicode="&#xae;" horiz-adv-x="954" 
d="M426 1096h41q86 0 86 62t-82 63l-45 -2v-123zM426 1032v-69q0 -45 2 -60h-82q2 23 2 129v121q0 104 -2 127l117 4q82 0 125 -35t43 -86q-4 -82 -84 -114l112 -144l-88 -6l-100 133h-45zM801 1081q0 141 -92 237q-93 96 -233 95q-140 0 -231 -96q-91 -97 -91 -237t91 -235
t231 -95t233 95q92 95 92 236zM476 1475q166 0 280 -115t114 -279q0 -165 -114 -279t-279 -114t-279 115t-114 279t113 278q113 115 279 115z" />
    <glyph glyph-name="macron" unicode="&#xaf;" horiz-adv-x="796" 
d="M467 1190h-156q-84 0 -223 -4q8 74 8 155q152 -6 306 -6t307 6q-10 -68 -11 -155q-164 4 -231 4z" />
    <glyph glyph-name="degree" unicode="&#xb0;" horiz-adv-x="780" 
d="M553 1161q0 84 -43 134q-43 51 -119 51t-120 -52t-44 -136q0 -83 43 -134t119 -51t120 52t44 136zM700 1167q0 -133 -89 -229t-227 -96t-221 89t-83 222t88 227t226 94t222 -86q84 -87 84 -221z" />
    <glyph glyph-name="plusminus" unicode="&#xb1;" horiz-adv-x="1167" 
d="M643 0h-125q-111 0 -344 -4q6 57 6 154q208 -6 406 -6t407 6q-10 -68 -10 -154q-238 4 -340 4zM659 657v-20q0 -240 9 -315h-174q10 104 14 335h-35l-299 -4q6 55 6 156q117 -4 328 -8q-4 227 -14 329q41 0 174 11q-8 -80 -9 -322v-18q244 4 334 8q-8 -51 -12 -156
l-303 4h-19z" />
    <glyph glyph-name="two.sup" unicode="&#xb2;" 
d="M370 1726q138 0 215 -61t77 -155t-46 -166q-87 -135 -317 -318q59 0 385 6l-8 -143q-184 4 -290 4t-290 -4l-16 110q250 211 303 265q125 125 125 209q0 53 -36 83t-99 29q-107 0 -211 -90l-56 125q126 106 264 106z" />
    <glyph glyph-name="three.sup" unicode="&#xb3;" 
d="M522 1114q0 123 -286 129l-17 98q291 53 291 162q0 37 -41 62t-115 24q-123 0 -219 -59l-41 123q138 71 274 71t216 -55t80 -139q0 -143 -224 -213q240 -45 240 -201q0 -110 -96 -176t-234 -66t-237 31l-21 139q249 -68 374 -6q56 29 56 76z" />
    <glyph glyph-name="acute" unicode="&#xb4;" horiz-adv-x="634" 
d="M330 1395l268 18l-330 -305l-129 -10z" />
    <glyph glyph-name="paragraph" unicode="&#xb6;" horiz-adv-x="1300" 
d="M580 1352q48 0 118 -2t103 -2q-8 -74 -8 -277v-797q0 -203 8 -274h-174q16 147 16 459v39q-285 0 -422 120t-137 324q0 168 132 289q133 121 364 121zM948 459v422q0 340 -16 462q90 0 174 9q-10 -92 -10 -281v-797q0 -186 10 -274h-174q16 123 16 459z" />
    <glyph glyph-name="periodcentered" unicode="&#xb7;" horiz-adv-x="477" 
d="M373 716q0 -54 -37 -94t-91 -40t-88 38t-34 91t36 93t90 40t89 -37t35 -91z" />
    <glyph glyph-name="cedilla" unicode="&#xb8;" horiz-adv-x="614" 
d="M504 -332q0 -70 -62 -121t-152 -51q-92 0 -188 29l27 119q86 -31 163 -31t77 51q0 57 -187 103l-10 8q20 59 68 256l94 -27l-41 -145q211 -59 211 -191z" />
    <glyph glyph-name="one.sup" unicode="&#xb9;" horiz-adv-x="573" 
d="M408 1573v-545q0 -109 4 -135h-162q8 59 8 227v430l-180 -51l-29 129q39 10 83 24t87 26q43 13 62 20l94 28l37 -12q-4 -33 -4 -141z" />
    <glyph glyph-name="ordmasculine" unicode="&#xba;" horiz-adv-x="796" 
d="M399 1343q-73 0 -119 -57t-46 -152q0 -94 44 -150t118 -56t120 58q47 58 47 154q0 95 -46 149t-118 54zM727 1142q0 -144 -94 -244q-93 -101 -239 -101t-235 94q-89 93 -89 237t94 245t240 101t234 -94q89 -94 89 -238z" />
    <glyph glyph-name="guillemotright" unicode="&#xbb;" horiz-adv-x="1210" 
d="M262 -16q-78 -2 -170 -19q168 260 330 477q-102 164 -307 459l108 49q272 -283 432 -479l-6 -31q-199 -225 -387 -456zM715 -16q-82 -2 -168 -19q158 252 327 477q-123 199 -307 459l111 49q279 -293 430 -479l-6 -31q-166 -190 -387 -456z" />
    <glyph glyph-name="onequarter" unicode="&#xbc;" horiz-adv-x="1720" 
d="M1368 666l-276 -349h274zM465 1278v-545q0 -109 4 -135h-162q8 59 8 227v430l-180 -51l-29 129q39 9 83 23t87 27t62 20l94 29l37 -13q-4 -33 -4 -141zM422 -31l-121 51q104 145 229 332l496 764q188 287 211 328l62 -31q42 -20 59 -29q-33 -45 -162 -237l-639 -975
q-20 -35 -135 -203zM1362 176v27h-70q-252 0 -334 -4l-22 110l340 426q12 14 45 55t49 58l133 -10q-4 -35 -4 -140v-374q98 0 127 2q-10 -78 -10 -127q-29 2 -117 2v-66q0 -106 4 -135h-147q6 37 6 176z" />
    <glyph glyph-name="onehalf" unicode="&#xbd;" horiz-adv-x="1720" 
d="M465 1278v-545q0 -109 4 -135h-162q8 59 8 227v430l-180 -51l-29 129q39 9 83 23t87 27t62 20l94 29l37 -13q-4 -33 -4 -141zM358 -31l-120 51q104 145 229 332l496 764q188 287 211 328l62 -31q42 -20 58 -29q-33 -45 -161 -237l-639 -975q-21 -35 -136 -203zM1573 616
q0 -94 -45 -164q-87 -136 -318 -319q59 0 385 6l-8 -143q-183 4 -289 4t-290 -4l-17 110q250 211 303 265q125 125 125 209q0 53 -36 83t-99 29q-107 0 -211 -90l-55 125q125 107 263 107t215 -62t77 -156z" />
    <glyph glyph-name="threequarters" unicode="&#xbe;" horiz-adv-x="1912" 
d="M1561 666l-277 -349h275zM602 -31l-121 51q104 145 230 332l495 764q188 287 211 328l63 -30t58 -30q-33 -45 -162 -237l-639 -975q-20 -35 -135 -203zM381 715q94 1 150 29t57 75q0 123 -287 129l-16 99q291 53 290 161q0 37 -40 62q-41 25 -115 24q-123 0 -219 -59
l-41 123q137 72 273 72t216 -56t80 -139q0 -143 -223 -213q240 -45 239 -201q0 -109 -96 -175q-95 -66 -233 -67q-138 0 -238 31l-20 140q129 -35 223 -35zM1554 176v27h-69q-252 0 -334 -4l-23 110l340 426q12 15 46 57t49 56l133 -10q-4 -35 -4 -140v-374q98 0 127 2
q-10 -78 -11 -127q-29 2 -116 2v-66q0 -106 4 -135h-148q6 37 6 176z" />
    <glyph glyph-name="questiondown" unicode="&#xbf;" horiz-adv-x="927" 
d="M393 1336q0 54 38 96t95 43q58 0 94 -39t36 -94q0 -54 -38 -96q-37 -42 -94 -42t-94 39t-37 93zM66 287q0 85 52 151t127 104t149 70t127 69q52 38 52 87q0 109 -143 109q-80 0 -149 -29l-37 178q88 27 184 27q156 0 248 -75t92 -202q0 -86 -52 -149t-127 -99t-151 -68
q-180 -75 -180 -169q0 -72 55 -111t156 -39q199 0 346 115l10 -197q-59 -41 -162 -69t-192 -27q-184 0 -295 88q-110 89 -110 236z" />
    <glyph glyph-name="Agrave" unicode="&#xc0;" horiz-adv-x="1435" 
d="M385 1886l231 19l187 -306l-121 -10zM705 1092l-230 -517h459zM12 0l486 1049q121 260 178 411l53 15l492 -1057q123 -268 200 -418l-221 -16l-192 428h-607l-8 -21q-53 -125 -160 -391h-221z" />
    <glyph glyph-name="Aacute" unicode="&#xc1;" horiz-adv-x="1435" 
d="M797 1886l268 19l-330 -306l-129 -10zM705 1092l-230 -517h459zM12 0l486 1049q121 260 178 411l53 15l492 -1057q123 -268 200 -418l-221 -16l-192 428h-607l-8 -21q-53 -125 -160 -391h-221z" />
    <glyph glyph-name="Acircumflex" unicode="&#xc2;" horiz-adv-x="1435" 
d="M606 1907h236l196 -312l-139 -12l-178 199l-168 -183h-164zM705 1092l-230 -517h459zM12 0l486 1049q121 260 178 411l53 15l492 -1057q123 -268 200 -418l-221 -16l-192 428h-607l-8 -21q-53 -125 -160 -391h-221z" />
    <glyph glyph-name="Atilde" unicode="&#xc3;" horiz-adv-x="1435" 
d="M705 1092l-230 -517h459zM568 1907q76 0 174 -75t130 -75q53 0 78 158l142 -21q-45 -299 -222 -299q-66 0 -166 75t-130 75t-45 -31t-27 -117l-144 21q45 289 210 289zM12 0l486 1049q121 260 178 411l53 15l492 -1057q123 -268 200 -418l-221 -16l-192 428h-607l-8 -21
q-53 -125 -160 -391h-221z" />
    <glyph glyph-name="Adieresis" unicode="&#xc4;" horiz-adv-x="1435" 
d="M1018 1761q0 -51 -35 -90t-87 -39t-85 36t-33 88t35 91t87 39t85 -37t33 -88zM649 1761q0 -51 -35 -90t-87 -39t-85 36q-32 36 -32 88t34 91q35 39 87 39t85 -37t33 -88zM705 1092l-230 -517h459zM12 0l486 1049q121 260 178 411l53 15l492 -1057q123 -268 200 -418
l-221 -16l-192 428h-607l-8 -21q-53 -125 -160 -391h-221z" />
    <glyph glyph-name="Aring" unicode="&#xc5;" horiz-adv-x="1435" 
d="M823 1600q0 52 -28 86q-29 32 -82 32t-83 -32t-30 -84q0 -51 31 -86t82 -35t81 33q29 34 29 86zM705 1092l-230 -517h459zM469 1602q0 89 69 156t177 67q108 1 174 -61q65 -62 65 -149t-49 -151t-133 -84l449 -962q123 -268 200 -418l-221 -16l-192 428h-607l-8 -21
q-53 -125 -160 -391h-221l486 1049q88 190 145 329q-80 18 -127 76t-47 148z" />
    <glyph glyph-name="AE" unicode="&#xc6;" horiz-adv-x="1818" 
d="M918 958q0 160 -3 254l-389 -637h392v383zM1322 2q-267 0 -419 -10q10 96 15 416h-492l-8 -15q-74 -123 -221 -393h-228l641 1049q182 295 240 403q202 -10 432 -10t434 10q-12 -76 -16 -182q-242 4 -378 4t-196 -2q-4 -37 -4 -121v-309l498 4q-6 -78 -6 -176l-492 4
v-379q0 -86 4 -123l183 -2q240 0 448 6q-10 -82 -14 -184q-154 10 -421 10z" />
    <glyph glyph-name="Ccedilla" unicode="&#xc7;" horiz-adv-x="1390" 
d="M827 -37h-12l-29 -104q211 -59 211 -191q0 -70 -61 -121q-60 -51 -152 -51t-188 29l27 119q87 -31 163 -31t76 51q0 57 -186 103l-10 8q14 45 53 196q-268 39 -438 241t-170 470q0 334 215 563t540 230q246 0 426 -129l-57 -185q-168 131 -391 131t-375 -162t-152 -420
q-1 -258 147 -412q148 -155 388 -155t459 207l-15 -223q-211 -164 -469 -164z" />
    <glyph glyph-name="Egrave" unicode="&#xc8;" horiz-adv-x="1116" 
d="M301 1866l231 18l187 -305l-121 -10zM620 2q-266 0 -417 -10q14 137 14 502v452q0 369 -14 506q199 -10 403 -10t408 10q-12 -76 -17 -178q-242 4 -380 4t-197 -2q-2 -39 -2 -125v-309l500 4q-6 -74 -7 -176l-493 4v-379q0 -88 2 -127l186 -2q240 0 449 6
q-10 -78 -15 -180q-154 10 -420 10z" />
    <glyph glyph-name="Eacute" unicode="&#xc9;" horiz-adv-x="1116" 
d="M713 1866l268 18l-330 -305l-129 -10zM620 2q-266 0 -417 -10q14 137 14 502v452q0 369 -14 506q199 -10 403 -10t408 10q-12 -76 -17 -178q-242 4 -380 4t-197 -2q-2 -39 -2 -125v-309l500 4q-6 -74 -7 -176l-493 4v-379q0 -88 2 -127l186 -2q240 0 449 6
q-10 -78 -15 -180q-154 10 -420 10z" />
    <glyph glyph-name="Ecircumflex" unicode="&#xca;" horiz-adv-x="1116" 
d="M522 1886h236l196 -311l-139 -12l-178 198l-168 -182h-164zM620 2q-266 0 -417 -10q14 137 14 502v452q0 369 -14 506q199 -10 403 -10t408 10q-12 -76 -17 -178q-242 4 -380 4t-197 -2q-2 -39 -2 -125v-309l500 4q-6 -74 -7 -176l-493 4v-379q0 -88 2 -127l186 -2
q240 0 449 6q-10 -78 -15 -180q-154 10 -420 10z" />
    <glyph glyph-name="Edieresis" unicode="&#xcb;" horiz-adv-x="1116" 
d="M934 1741q0 -51 -35 -90t-87 -39t-85 36t-33 88t35 91t87 39t85 -37t33 -88zM448 1866q52 0 84 -37t33 -88q0 -51 -35 -90t-87 -39t-85 36q-32 36 -32 88t34 91q36 39 88 39zM620 2q-266 0 -417 -10q14 137 14 502v452q0 369 -14 506q199 -10 403 -10t408 10
q-12 -76 -17 -178q-242 4 -380 4t-197 -2q-2 -39 -2 -125v-309l500 4q-6 -74 -7 -176l-493 4v-379q0 -88 2 -127l186 -2q240 0 449 6q-10 -78 -15 -180q-154 10 -420 10z" />
    <glyph glyph-name="Igrave" unicode="&#xcc;" horiz-adv-x="651" 
d="M-6 1866l231 18l187 -305l-121 -10zM225 494v452q0 356 -14 494q139 0 221 10q-6 -90 -6 -303v-852q0 -209 6 -295h-221q14 137 14 494z" />
    <glyph glyph-name="Iacute" unicode="&#xcd;" horiz-adv-x="651" 
d="M406 1866l268 18l-330 -305l-129 -10zM225 494v452q0 356 -14 494q139 0 221 10q-6 -90 -6 -303v-852q0 -209 6 -295h-221q14 137 14 494z" />
    <glyph glyph-name="Icircumflex" unicode="&#xce;" horiz-adv-x="651" 
d="M215 1886h236l196 -311l-139 -12l-178 198l-168 -182h-164zM225 494v452q0 356 -14 494q139 0 221 10q-6 -90 -6 -303v-852q0 -209 6 -295h-221q14 137 14 494z" />
    <glyph glyph-name="Idieresis" unicode="&#xcf;" horiz-adv-x="651" 
d="M627 1741q0 -51 -35 -90t-87 -39t-85 36t-33 88t35 91t87 39t85 -37t33 -88zM258 1741q0 -51 -35 -90t-87 -39t-85 36t-33 88t35 91t87 39t85 -37t33 -88zM225 494v452q0 356 -14 494q139 0 221 10q-6 -90 -6 -303v-852q0 -209 6 -295h-221q14 137 14 494z" />
    <glyph glyph-name="Eth" unicode="&#xd0;" horiz-adv-x="1490" 
d="M1174 737q0 248 -151 393t-425 146q-94 0 -178 -6q-2 -37 -2 -127v-334q166 0 307 6q-10 -78 -10 -174q-172 4 -252 4h-45v-346q0 -74 2 -115q102 -10 184 -10q290 0 430 158t140 405zM1380 764q0 -336 -206 -550t-537 -214h-434q14 137 14 494v151l-166 -4q6 63 6 174
l160 -6v137q0 356 -14 494l399 10q366 0 572 -196t206 -490z" />
    <glyph glyph-name="Ntilde" unicode="&#xd1;" horiz-adv-x="1607" 
d="M965 1575q-66 0 -166 75q-100 74 -130 74t-45 -30t-28 -117l-143 20q25 158 79 224q113 136 305 -10q99 -75 130 -74q53 0 77 157l142 -20q-45 -299 -221 -299zM1208 946q0 362 -16 494q139 0 227 10q-10 -76 -16 -303l-14 -864q-7 -195 4 -303l-54 -15l-938 1079v-749
q0 -219 9 -295h-226q18 156 25 494l8 491q4 317 -8 475l53 15l946 -1096v567z" />
    <glyph glyph-name="Ograve" unicode="&#xd2;" horiz-adv-x="1660" 
d="M502 1886l231 19l187 -306l-121 -10zM820 -37q-316 0 -513 211t-196 508q0 336 207 564q208 228 524 228t512 -210q197 -211 196 -508q0 -336 -208 -564q-206 -228 -522 -229zM833 1305q-223 0 -369 -172t-146 -426t142 -414q144 -160 368 -160t370 172q145 172 145 426
t-143 414t-367 160z" />
    <glyph glyph-name="Oacute" unicode="&#xd3;" horiz-adv-x="1660" 
d="M913 1886l269 19l-330 -306l-129 -10zM820 -37q-316 0 -513 211t-196 508q0 336 207 564q208 228 524 228t512 -210q197 -211 196 -508q0 -336 -208 -564q-206 -228 -522 -229zM833 1305q-223 0 -369 -172t-146 -426t142 -414q144 -160 368 -160t370 172q145 172 145 426
t-143 414t-367 160z" />
    <glyph glyph-name="Ocircumflex" unicode="&#xd4;" horiz-adv-x="1660" 
d="M723 1907h235l197 -312l-139 -12l-178 199l-168 -183h-164zM820 -37q-316 0 -513 211t-196 508q0 336 207 564q208 228 524 228t512 -210q197 -211 196 -508q0 -336 -208 -564q-206 -228 -522 -229zM833 1305q-223 0 -369 -172t-146 -426t142 -414q144 -160 368 -160
t370 172q145 172 145 426t-143 414t-367 160z" />
    <glyph glyph-name="Otilde" unicode="&#xd5;" horiz-adv-x="1660" 
d="M989 1757q53 0 78 158l141 -21q-45 -299 -221 -299q-66 0 -166 75t-130 75t-45 -31t-28 -117l-143 21q46 289 210 289q75 0 174 -75t130 -75zM820 -37q-316 0 -513 211t-196 508q0 336 207 564q208 228 524 228t512 -210q197 -211 196 -508q0 -336 -208 -564
q-206 -228 -522 -229zM833 1305q-223 0 -369 -172t-146 -426t142 -414q144 -160 368 -160t370 172q145 172 145 426t-143 414t-367 160z" />
    <glyph glyph-name="Odieresis" unicode="&#xd6;" horiz-adv-x="1660" 
d="M1135 1761q0 -51 -35 -90t-87 -39t-85 36t-33 88t35 91t87 39t85 -37t33 -88zM766 1761q0 -51 -35 -90t-87 -39t-85 36t-33 88t35 91t87 39t85 -37t33 -88zM820 -37q-316 0 -513 211t-196 508q0 336 207 564q208 228 524 228t512 -210q197 -211 196 -508
q0 -336 -208 -564q-206 -228 -522 -229zM833 1305q-223 0 -369 -172t-146 -426t142 -414q144 -160 368 -160t370 172q145 172 145 426t-143 414t-367 160z" />
    <glyph glyph-name="multiply" unicode="&#xd7;" horiz-adv-x="1167" 
d="M692 563q91 -94 316 -319q-49 -39 -123 -109q-102 117 -299 326q-150 -152 -314 -324q-23 29 -110 117q258 252 317 311q-188 188 -317 312q70 49 125 104l299 -313q152 156 301 325l108 -121q-92 -90 -303 -309z" />
    <glyph glyph-name="Oslash" unicode="&#xd8;" horiz-adv-x="1658" 
d="M827 137q223 0 367 169q143 168 143 396t-102 383l-719 -843q129 -105 311 -105zM322 728q0 -234 102 -384l719 846q-133 111 -312 110q-223 0 -366 -170q-143 -168 -143 -402zM1548 756q0 -336 -208 -564t-531 -229q-242 0 -418 135l-137 -161l-131 67q102 106 170 184
q-182 201 -182 494q0 336 207 564q208 228 532 229q236 0 418 -136q102 117 141 172q76 -48 129 -75q-66 -72 -168 -193q178 -205 178 -487z" />
    <glyph glyph-name="Ugrave" unicode="&#xd9;" horiz-adv-x="1548" 
d="M444 1866l232 18l186 -305l-121 -10zM1354 1147v-549q0 -174 -38 -280t-120 -189q-166 -166 -453 -166q-245 0 -397 143t-151 386v454q0 356 -15 494q139 0 223 10q-8 -80 -8 -303v-590q0 -416 387 -416q174 1 272 101t99 272v432q0 362 -16 494q141 0 227 10
q-10 -74 -10 -303z" />
    <glyph glyph-name="Uacute" unicode="&#xda;" horiz-adv-x="1548" 
d="M856 1866l268 18l-329 -305l-129 -10zM1354 1147v-549q0 -174 -38 -280t-120 -189q-166 -166 -453 -166q-245 0 -397 143t-151 386v454q0 356 -15 494q139 0 223 10q-8 -80 -8 -303v-590q0 -416 387 -416q174 1 272 101t99 272v432q0 362 -16 494q141 0 227 10
q-10 -74 -10 -303z" />
    <glyph glyph-name="Ucircumflex" unicode="&#xdb;" horiz-adv-x="1548" 
d="M666 1886h235l197 -311l-140 -12l-178 198l-168 -182h-163zM1354 1147v-549q0 -174 -38 -280t-120 -189q-166 -166 -453 -166q-245 0 -397 143t-151 386v454q0 356 -15 494q139 0 223 10q-8 -80 -8 -303v-590q0 -416 387 -416q174 1 272 101t99 272v432q0 362 -16 494
q141 0 227 10q-10 -74 -10 -303z" />
    <glyph glyph-name="Udieresis" unicode="&#xdc;" horiz-adv-x="1548" 
d="M960 1866q52 0 84 -37t33 -88q0 -51 -35 -90t-87 -39t-85 36q-32 36 -32 88t34 91q36 39 88 39zM709 1741q0 -51 -35 -90t-87 -39t-85 36t-33 88t35 91t87 39t85 -37t33 -88zM1354 1147v-549q0 -174 -38 -280t-120 -189q-166 -166 -453 -166q-245 0 -397 143t-151 386
v454q0 356 -15 494q139 0 223 10q-8 -80 -8 -303v-590q0 -416 387 -416q174 1 272 101t99 272v432q0 362 -16 494q141 0 227 10q-10 -74 -10 -303z" />
    <glyph glyph-name="Yacute" unicode="&#xdd;" horiz-adv-x="1277" 
d="M729 1866l268 18l-329 -305l-129 -10zM743 295q0 -209 7 -295h-222q14 137 15 494v129l-217 335q-142 232 -314 484l226 16l407 -657l123 190q18 29 279 453h233l-537 -811v-338z" />
    <glyph glyph-name="Thorn" unicode="&#xde;" horiz-adv-x="1216" 
d="M526 428q180 0 287 75t107 208t-87 207t-251 73q-55 0 -162 -4v-553q57 -6 106 -6zM215 946q0 356 -14 494q143 0 227 10l-8 -281q92 6 164 7q254 0 400 -120t146 -296q0 -221 -151 -361q-152 -139 -455 -139q-27 0 -104 4q2 -207 8 -264h-227q14 137 14 494v452z" />
    <glyph glyph-name="germandbls" unicode="&#xdf;" horiz-adv-x="1026" 
d="M150 993q0 240 104 364t287 124q147 0 243 -87t97 -212q0 -84 -34 -154t-75 -106q-110 -95 -108 -136q0 -25 16 -45q16 -19 99 -87t139 -146t57 -194q-1 -116 -101 -218q-100 -104 -268 -104q-59 0 -119 14l-18 170q65 -18 139 -18t128 45t54 110t-50 127t-111 104
q-61 44 -111 104t-51 110q0 50 36 94q36 45 79 83t78 95q36 57 36 125t-47 114t-123 46t-130 -68t-58 -194v-854q0 -131 8 -199h-211q14 123 15 334v659z" />
    <glyph glyph-name="agrave" unicode="&#xe0;" horiz-adv-x="993" 
d="M172 1395l231 18l187 -305l-121 -10zM410 123q98 1 164 65t69 162l4 92q-57 4 -84 4q-161 0 -235 -51t-74 -135q0 -137 156 -137zM72 259q0 136 129 222t368 86q27 0 80 -4l2 31q4 106 -44 158q-49 52 -171 53q-122 0 -243 -90l-43 164q160 92 336 92q176 -1 264 -99
q90 -98 86 -266l-13 -405q-2 -82 60 -82q33 0 82 16l-19 -131q-70 -29 -127 -29t-102 42t-53 118q-94 -164 -314 -164q-116 0 -197 76t-81 212z" />
    <glyph glyph-name="aacute" unicode="&#xe1;" horiz-adv-x="993" 
d="M584 1395l268 18l-330 -305l-129 -10zM410 123q98 1 164 65t69 162l4 92q-57 4 -84 4q-161 0 -235 -51t-74 -135q0 -137 156 -137zM72 259q0 136 129 222t368 86q27 0 80 -4l2 31q4 106 -44 158q-49 52 -171 53q-122 0 -243 -90l-43 164q160 92 336 92q176 -1 264 -99
q90 -98 86 -266l-13 -405q-2 -82 60 -82q33 0 82 16l-19 -131q-70 -29 -127 -29t-102 42t-53 118q-94 -164 -314 -164q-116 0 -197 76t-81 212z" />
    <glyph glyph-name="acircumflex" unicode="&#xe2;" horiz-adv-x="993" 
d="M410 123q98 1 164 65t69 162l4 92q-57 4 -84 4q-161 0 -235 -51t-74 -135q0 -137 156 -137zM393 1415h236l196 -311l-139 -12l-178 198l-168 -182h-164zM72 259q0 136 129 222t368 86q27 0 80 -4l2 31q4 106 -44 158q-49 52 -171 53q-122 0 -243 -90l-43 164
q160 92 336 92q176 -1 264 -99q90 -98 86 -266l-13 -405q-2 -82 60 -82q33 0 82 16l-19 -131q-70 -29 -127 -29t-102 42t-53 118q-94 -164 -314 -164q-116 0 -197 76t-81 212z" />
    <glyph glyph-name="atilde" unicode="&#xe3;" horiz-adv-x="993" 
d="M410 123q98 1 164 65t69 162l4 92q-57 4 -84 4q-161 0 -235 -51t-74 -135q0 -137 156 -137zM657 1104q-65 0 -165 75t-130 75t-46 -32q-15 -30 -27 -116l-144 20q25 158 80 224q113 136 304 -10q99 -75 130 -74q53 0 78 157l142 -20q-45 -299 -222 -299zM72 259
q0 136 129 222t368 86q27 0 80 -4l2 31q4 106 -44 158q-49 52 -171 53q-122 0 -243 -90l-43 164q160 92 336 92q176 -1 264 -99q90 -98 86 -266l-13 -405q-2 -82 60 -82q33 0 82 16l-19 -131q-70 -29 -127 -29t-102 42t-53 118q-94 -164 -314 -164q-116 0 -197 76t-81 212z
" />
    <glyph glyph-name="adieresis" unicode="&#xe4;" horiz-adv-x="993" 
d="M805 1270q0 -51 -35 -90t-87 -39t-85 36t-33 88t35 91t87 39t85 -37t33 -88zM436 1270q0 -51 -35 -90t-87 -39t-85 36t-33 88t35 91t87 39t85 -37t33 -88zM410 123q98 1 164 65t69 162l4 92q-57 4 -84 4q-161 0 -235 -51t-74 -135q0 -137 156 -137zM72 259q0 136 129 222
t368 86q27 0 80 -4l2 31q4 106 -44 158q-49 52 -171 53q-122 0 -243 -90l-43 164q160 92 336 92q176 -1 264 -99q90 -98 86 -266l-13 -405q-2 -82 60 -82q33 0 82 16l-19 -131q-70 -29 -127 -29t-102 42t-53 118q-94 -164 -314 -164q-116 0 -197 76t-81 212z" />
    <glyph glyph-name="aring" unicode="&#xe5;" horiz-adv-x="993" 
d="M612 1326q0 52 -28 85q-29 33 -82 33t-83 -33t-30 -84t31 -86t82 -35t81 34q29 34 29 86zM410 123q98 1 164 65t69 162l4 92q-57 4 -84 4q-161 0 -235 -51t-74 -135q0 -137 156 -137zM743 1332q-1 -95 -69 -165q-68 -69 -176 -69t-174 63t-66 159t69 164q69 66 177 66
t174 -61q65 -62 65 -157zM72 259q0 136 129 222t368 86q27 0 80 -4l2 31q4 106 -44 158q-49 52 -171 53q-122 0 -243 -90l-43 164q160 92 336 92q176 -1 264 -99q90 -98 86 -266l-13 -405q-2 -82 60 -82q33 0 82 16l-19 -131q-70 -29 -127 -29t-102 42t-53 118
q-94 -164 -314 -164q-116 0 -197 76t-81 212z" />
    <glyph glyph-name="ae" unicode="&#xe6;" horiz-adv-x="1576" 
d="M1100 813q-96 1 -169 -73t-93 -183l491 14q-31 242 -229 242zM254 264q0 -61 39 -101t128 -40t157 80t73 194l2 43l-110 2q-289 0 -289 -178zM457 805q-143 0 -264 -90l-43 164q160 92 329 92q227 0 299 -172q117 172 322 172t305 -130t100 -335l-123 -74l-548 -16
q23 -287 288 -287q168 0 338 139l-8 -192q-170 -113 -348 -113q-274 0 -373 215q-119 -207 -350 -207q-137 0 -223 78t-86 212t123 218t354 84l108 -2l2 31q10 213 -202 213z" />
    <glyph glyph-name="ccedilla" unicode="&#xe7;" horiz-adv-x="978" 
d="M584 803q-142 0 -229 -94t-87 -245t94 -243t228 -92q88 0 156 27t143 94l-8 -195q-141 -86 -293 -92l-29 -104q211 -59 211 -191q0 -70 -61 -121t-153 -51t-187 29l26 119q86 -31 163 -31t77 51q0 57 -186 103l-11 8q20 63 51 194q-179 25 -293 158t-114 315
q0 223 142 376t360 153q178 0 309 -92l-53 -166q-114 90 -256 90z" />
    <glyph glyph-name="egrave" unicode="&#xe8;" horiz-adv-x="1024" 
d="M217 1395l232 18l186 -305l-121 -10zM546 813q-108 -1 -180 -71t-92 -185l502 14q-16 121 -69 181t-161 61zM565 129q172 0 342 139l-8 -192q-170 -113 -352 -113q-225 0 -345 137t-120 352t132 367t338 152t303 -129t97 -336l-123 -74l-559 -16q23 -287 295 -287z" />
    <glyph glyph-name="eacute" unicode="&#xe9;" horiz-adv-x="1024" 
d="M629 1395l268 18l-330 -305l-129 -10zM546 813q-108 -1 -180 -71t-92 -185l502 14q-16 121 -69 181t-161 61zM565 129q172 0 342 139l-8 -192q-170 -113 -352 -113q-225 0 -345 137t-120 352t132 367t338 152t303 -129t97 -336l-123 -74l-559 -16q23 -287 295 -287z" />
    <glyph glyph-name="ecircumflex" unicode="&#xea;" horiz-adv-x="1024" 
d="M438 1415h236l196 -311l-139 -12l-178 198l-168 -182h-164zM546 813q-108 -1 -180 -71t-92 -185l502 14q-16 121 -69 181t-161 61zM565 129q172 0 342 139l-8 -192q-170 -113 -352 -113q-225 0 -345 137t-120 352t132 367t338 152t303 -129t97 -336l-123 -74l-559 -16
q23 -287 295 -287z" />
    <glyph glyph-name="edieresis" unicode="&#xeb;" horiz-adv-x="1024" 
d="M850 1270q0 -51 -35 -90t-87 -39t-85 36t-33 88t35 91t87 39t85 -37t33 -88zM364 1395q52 0 84 -37t33 -88q0 -51 -35 -90t-87 -39t-85 36q-32 36 -32 88t34 91q36 39 88 39zM546 813q-108 -1 -180 -71t-92 -185l502 14q-16 121 -69 181t-161 61zM565 129q172 0 342 139
l-8 -192q-170 -113 -352 -113q-225 0 -345 137t-120 352t132 367t338 152t303 -129t97 -336l-123 -74l-559 -16q23 -287 295 -287z" />
    <glyph glyph-name="igrave" unicode="&#xec;" horiz-adv-x="487" 
d="M-88 1395l231 18l187 -305l-121 -10zM150 594q0 225 -15 348q109 0 211 10q-8 -72 -8 -219v-534q0 -127 8 -199h-211q14 123 15 336v258z" />
    <glyph glyph-name="iacute" unicode="&#xed;" horiz-adv-x="487" 
d="M324 1395l268 18l-330 -305l-129 -10zM150 594q0 225 -15 348q109 0 211 10q-8 -72 -8 -219v-534q0 -127 8 -199h-211q14 123 15 336v258z" />
    <glyph glyph-name="icircumflex" unicode="&#xee;" horiz-adv-x="487" 
d="M133 1415h236l196 -311l-139 -12l-178 198l-168 -182h-164zM150 594q0 225 -15 348q109 0 211 10q-8 -72 -8 -219v-534q0 -127 8 -199h-211q14 123 15 336v258z" />
    <glyph glyph-name="idieresis" unicode="&#xef;" horiz-adv-x="487" 
d="M545 1270q0 -51 -35 -90t-87 -39t-85 36t-33 88t35 91t87 39t85 -37t33 -88zM176 1270q0 -51 -35 -90t-87 -39t-85 36t-33 88t35 91t87 39t85 -37t33 -88zM150 594q0 225 -15 348q109 0 211 10q-8 -72 -8 -219v-534q0 -127 8 -199h-211q14 123 15 336v258z" />
    <glyph glyph-name="eth" unicode="&#xf0;" horiz-adv-x="1103" 
d="M266 466q0 -144 81 -240t206 -97t208 101t83 248t-83 236t-207 91q-124 0 -206 -98q-82 -97 -82 -241zM546 -37q-212 0 -338 139t-126 353t132 365t320 151t291 -133q-68 186 -213 336q-5 -3 -266 -156q-47 57 -117 110l269 146q-115 88 -250 139l174 86
q127 -59 225 -139q133 80 227 139q31 -35 113 -117q-94 -47 -229 -122q268 -289 270 -697q2 -274 -134 -437t-348 -163z" />
    <glyph glyph-name="ntilde" unicode="&#xf1;" horiz-adv-x="1116" 
d="M727 1104q-66 0 -166 75t-130 75t-45 -32q-15 -30 -28 -116l-143 20q46 292 210 290q75 0 174 -76q99 -75 130 -74q53 0 78 157l141 -20q-45 -299 -221 -299zM782 348v246q0 211 -164 211q-100 0 -190 -82t-90 -174v-338q0 -139 8 -211h-209q12 131 13 348v246
q0 217 -13 348q82 0 185 10l14 -182q57 92 149 146t183 55q152 0 228 -88t75 -252v-420q0 -105 8 -211h-211q14 123 14 348z" />
    <glyph glyph-name="ograve" unicode="&#xf2;" horiz-adv-x="1101" 
d="M223 1395l232 18l186 -305l-121 -10zM548 129q130 1 208 97t78 248t-79 241q-79 90 -204 90t-204 -95t-79 -250t75 -243t205 -88zM558 971q210 0 336 -140t126 -352t-134 -364t-343 -152t-335 140t-126 352t133 364t343 152z" />
    <glyph glyph-name="oacute" unicode="&#xf3;" horiz-adv-x="1101" 
d="M635 1395l268 18l-330 -305l-129 -10zM548 129q130 1 208 97t78 248t-79 241q-79 90 -204 90t-204 -95t-79 -250t75 -243t205 -88zM558 971q210 0 336 -140t126 -352t-134 -364t-343 -152t-335 140t-126 352t133 364t343 152z" />
    <glyph glyph-name="ocircumflex" unicode="&#xf4;" horiz-adv-x="1101" 
d="M444 1415h236l197 -311l-140 -12l-178 198l-168 -182h-164zM548 129q130 1 208 97t78 248t-79 241q-79 90 -204 90t-204 -95t-79 -250t75 -243t205 -88zM558 971q210 0 336 -140t126 -352t-134 -364t-343 -152t-335 140t-126 352t133 364t343 152z" />
    <glyph glyph-name="otilde" unicode="&#xf5;" horiz-adv-x="1101" 
d="M709 1104q-66 0 -166 75t-130 75t-45 -32q-15 -30 -28 -116l-143 20q25 158 79 224q113 136 305 -10q99 -75 130 -74q53 0 77 157l142 -20q-45 -299 -221 -299zM548 129q130 1 208 97t78 248t-79 241q-79 90 -204 90t-204 -95t-79 -250t75 -243t205 -88zM558 971
q210 0 336 -140t126 -352t-134 -364t-343 -152t-335 140t-126 352t133 364t343 152z" />
    <glyph glyph-name="odieresis" unicode="&#xf6;" horiz-adv-x="1101" 
d="M856 1270q0 -51 -35 -90t-87 -39t-85 36t-33 88t35 91t87 39t85 -37t33 -88zM370 1395q52 0 84 -37t33 -88q-1 -51 -35 -90t-86 -39t-85 36t-33 88t35 91t87 39zM548 129q130 1 208 97t78 248t-79 241q-79 90 -204 90t-204 -95t-79 -250t75 -243t205 -88zM558 971
q210 0 336 -140t126 -352t-134 -364t-343 -152t-335 140t-126 352t133 364t343 152z" />
    <glyph glyph-name="divide" unicode="&#xf7;" horiz-adv-x="1167" 
d="M581 336q53 0 85 -37t32 -88t-34 -90t-88 -39q-52 0 -84 36t-33 88q0 52 35 91t87 39zM581 1051q53 0 85 -37t32 -88t-34 -90t-88 -39q-52 0 -84 36t-33 88q0 52 35 91t87 39zM508 494q-131 0 -365 -5q6 59 7 156q209 -6 437 -6t437 6q-10 -68 -10 -156q-238 4 -361 5
h-145z" />
    <glyph glyph-name="oslash" unicode="&#xf8;" horiz-adv-x="1101" 
d="M562 129q116 1 195 97t79 223t-41 204l-416 -473q67 -51 183 -51zM555 805q-129 1 -209 -95t-80 -227t39 -209l416 474q-74 57 -166 57zM82 442q0 225 133 377t348 152q158 0 277 -92l108 125q41 -41 96 -78l-120 -131q96 -131 96 -303q0 -225 -134 -377t-349 -152
q-156 0 -273 88l-110 -121l-99 72l125 133q-98 129 -98 307z" />
    <glyph glyph-name="ugrave" unicode="&#xf9;" horiz-adv-x="1116" 
d="M229 1395l232 18l186 -305l-121 -10zM334 367q0 -238 180 -238q92 0 178 71t86 156v238q0 225 -14 348q111 0 213 10q-10 -88 -10 -219v-393q0 -209 14 -340h-174l-23 147q-53 -88 -143 -136t-164 -48q-332 0 -332 367v264q0 217 -12 348q106 0 209 10q-8 -72 -8 -219
v-366z" />
    <glyph glyph-name="uacute" unicode="&#xfa;" horiz-adv-x="1116" 
d="M641 1395l268 18l-329 -305l-129 -10zM334 367q0 -238 180 -238q92 0 178 71t86 156v238q0 225 -14 348q111 0 213 10q-10 -88 -10 -219v-393q0 -209 14 -340h-174l-23 147q-53 -88 -143 -136t-164 -48q-332 0 -332 367v264q0 217 -12 348q106 0 209 10q-8 -72 -8 -219
v-366z" />
    <glyph glyph-name="ucircumflex" unicode="&#xfb;" horiz-adv-x="1116" 
d="M451 1415h235l197 -311l-140 -12l-178 198l-168 -182h-164zM334 367q0 -238 180 -238q92 0 178 71t86 156v238q0 225 -14 348q111 0 213 10q-10 -88 -10 -219v-393q0 -209 14 -340h-174l-23 147q-53 -88 -143 -136t-164 -48q-332 0 -332 367v264q0 217 -12 348
q106 0 209 10q-8 -72 -8 -219v-366z" />
    <glyph glyph-name="udieresis" unicode="&#xfc;" horiz-adv-x="1116" 
d="M862 1270q0 -51 -35 -90t-87 -39t-85 36t-33 88t35 91t87 39t85 -37t33 -88zM494 1270q0 -51 -35 -90t-87 -39t-85 36t-33 88t35 91t87 39t85 -37t33 -88zM334 367q0 -238 180 -238q92 0 178 71t86 156v238q0 225 -14 348q111 0 213 10q-10 -88 -10 -219v-393
q0 -209 14 -340h-174l-23 147q-53 -88 -143 -136t-164 -48q-332 0 -332 367v264q0 217 -12 348q106 0 209 10q-8 -72 -8 -219v-366z" />
    <glyph glyph-name="yacute" unicode="&#xfd;" horiz-adv-x="958" 
d="M578 1395l268 18l-330 -305l-129 -10zM158 -434l235 536q-6 12 -38 96t-50 126l-119 262q-109 248 -161 346l211 26l253 -641l111 271q66 162 133 358q129 0 209 8l-459 -1083q-8 -23 -55 -137t-61 -160q-127 0 -209 -8z" />
    <glyph glyph-name="thorn" unicode="&#xfe;" horiz-adv-x="1126" 
d="M150 -92v1210q0 215 -15 338q102 8 211 27q-8 -72 -8 -223v-404q131 115 304 115t289 -129q116 -130 116 -352q1 -222 -145 -374t-309 -153q-163 0 -255 78v-270q0 -123 8 -191l-211 -18q15 123 15 346zM560 125q140 0 219 105t79 254t-71 235t-201 86q-68 0 -134 -32
t-114 -85v-467q82 -96 222 -96z" />
    <glyph glyph-name="ydieresis" unicode="&#xff;" horiz-adv-x="958" 
d="M430 1270q0 -51 -35 -90t-87 -39t-85 36t-33 88t35 91t87 39t85 -37t33 -88zM799 1270q0 -51 -35 -90t-87 -39t-85 36t-33 88t35 91t87 39t85 -37t33 -88zM158 -434l235 536q-6 12 -38 96t-50 126l-119 262q-109 248 -161 346l211 26l253 -641l111 271q66 162 133 358
q129 0 209 8l-459 -1083q-8 -23 -55 -137t-61 -160q-127 0 -209 -8z" />
    <glyph glyph-name="Amacron" unicode="&#x100;" horiz-adv-x="1435" 
d="M782 1681h-155q-84 0 -224 -4q8 74 9 156q150 -6 305 -6t307 6q-10 -68 -10 -156q-164 4 -232 4zM705 1092l-230 -517h459zM12 0l486 1049q121 260 178 411l53 15l492 -1057q123 -268 200 -418l-221 -16l-192 428h-607l-8 -21q-53 -125 -160 -391h-221z" />
    <glyph glyph-name="amacron" unicode="&#x101;" horiz-adv-x="993" 
d="M569 1190h-155q-84 0 -224 -4q8 74 9 155q152 -6 306 -6t306 6q-10 -68 -10 -155q-164 4 -232 4zM410 123q98 1 164 65t69 162l4 92q-57 4 -84 4q-161 0 -235 -51t-74 -135q0 -137 156 -137zM72 259q0 136 129 222t368 86q27 0 80 -4l2 31q4 106 -44 158q-49 52 -171 53
q-122 0 -243 -90l-43 164q160 92 336 92q176 -1 264 -99q90 -98 86 -266l-13 -405q-2 -82 60 -82q33 0 82 16l-19 -131q-70 -29 -127 -29t-102 42t-53 118q-94 -164 -314 -164q-116 0 -197 76t-81 212z" />
    <glyph glyph-name="Abreve" unicode="&#x102;" horiz-adv-x="1435" 
d="M705 1092l-230 -517h459zM716 1587q-144 0 -233 89q-88 89 -88 222l162 29q0 -96 42 -148q42 -53 119 -53q76 0 114 52t38 131l158 10q4 -154 -82 -243t-230 -89zM12 0l486 1049q121 260 178 411l53 15l492 -1057q123 -268 200 -418l-221 -16l-192 428h-607l-8 -21
q-53 -125 -160 -391h-221z" />
    <glyph glyph-name="abreve" unicode="&#x103;" horiz-adv-x="993" 
d="M410 123q98 1 164 65t69 162l4 92q-57 4 -84 4q-161 0 -235 -51t-74 -135q0 -137 156 -137zM503 1096q-144 0 -233 89q-88 89 -88 222l162 29q0 -96 42 -148t119 -53q77 0 115 51q37 51 37 131l158 10q4 -155 -82 -243t-230 -88zM72 259q0 136 129 222t368 86q27 0 80 -4
l2 31q4 106 -44 158q-49 52 -171 53q-122 0 -243 -90l-43 164q160 92 336 92q176 -1 264 -99q90 -98 86 -266l-13 -405q-2 -82 60 -82q33 0 82 16l-19 -131q-70 -29 -127 -29t-102 42t-53 118q-94 -164 -314 -164q-116 0 -197 76t-81 212z" />
    <glyph glyph-name="Aogonek" unicode="&#x104;" horiz-adv-x="1435" 
d="M705 1092l-230 -517h459zM1192 -242q0 -38 25 -62t77 -24t121 43l-10 -127q-61 -41 -155 -41q-94 1 -151 51q-58 50 -59 134q0 131 158 254l-190 426h-607l-8 -21q-53 -125 -160 -391h-221l486 1049q121 260 178 411l53 15l492 -1057q131 -287 198 -416l4 -2
q-231 -129 -231 -242z" />
    <glyph glyph-name="aogonek" unicode="&#x105;" horiz-adv-x="993" 
d="M410 123q98 1 164 65t69 162l4 92q-57 4 -84 4q-161 0 -235 -51t-74 -135q0 -137 156 -137zM72 259q0 136 129 222t368 86q27 0 80 -4l2 31q4 106 -44 158q-49 52 -171 53q-122 0 -243 -90l-43 164q160 92 336 92q176 -1 264 -99q90 -98 86 -266l-13 -405q-2 -82 60 -82
q33 0 82 16l-19 -125q-221 -143 -221 -252q0 -38 25 -62q26 -24 78 -24t120 43l-10 -127q-60 -41 -154 -41q-94 1 -152 51t-59 134q0 137 185 258q-86 35 -94 145q-94 -164 -314 -164q-116 0 -197 76t-81 212z" />
    <glyph glyph-name="Cacute" unicode="&#x106;" horiz-adv-x="1390" 
d="M895 1886l268 19l-329 -306l-129 -10zM827 -37q-309 0 -513 212t-203 507q0 334 215 563t540 230q246 0 426 -129l-57 -185q-168 131 -391 131t-375 -162t-152 -420q-1 -258 147 -412q148 -155 388 -155t459 207l-15 -223q-211 -164 -469 -164z" />
    <glyph glyph-name="cacute" unicode="&#x107;" horiz-adv-x="978" 
d="M647 1395l268 18l-329 -305l-129 -10zM584 803q-142 0 -229 -94t-87 -245t94 -243t228 -92q88 0 156 27t143 94l-8 -195q-82 -51 -150 -71t-164 -21q-207 0 -346 138t-139 351t142 366t360 153q178 0 309 -92l-53 -166q-114 90 -256 90z" />
    <glyph glyph-name="Cdotaccent" unicode="&#x10a;" horiz-adv-x="1390" 
d="M932 1761q0 -51 -35 -90t-87 -39t-85 36t-33 88t35 91t87 39t85 -37t33 -88zM827 -37q-309 0 -513 212t-203 507q0 334 215 563t540 230q246 0 426 -129l-57 -185q-168 131 -391 131t-375 -162t-152 -420q-1 -258 147 -412q148 -155 388 -155t459 207l-15 -223
q-211 -164 -469 -164z" />
    <glyph glyph-name="cdotaccent" unicode="&#x10b;" horiz-adv-x="978" 
d="M684 1270q0 -51 -35 -90t-87 -39t-85 36t-33 88t35 91t87 39t85 -37t33 -88zM584 803q-142 0 -229 -94t-87 -245t94 -243t228 -92q88 0 156 27t143 94l-8 -195q-82 -51 -150 -71t-164 -21q-207 0 -346 138t-139 351t142 366t360 153q178 0 309 -92l-53 -166
q-114 90 -256 90z" />
    <glyph glyph-name="Ccaron" unicode="&#x10c;" horiz-adv-x="1390" 
d="M924 1602h-236l-201 305l146 12l176 -193l170 183h158zM827 -37q-309 0 -513 212t-203 507q0 334 215 563t540 230q246 0 426 -129l-57 -185q-168 131 -391 131t-375 -162t-152 -420q-1 -258 147 -412q148 -155 388 -155t459 207l-15 -223q-211 -164 -469 -164z" />
    <glyph glyph-name="ccaron" unicode="&#x10d;" horiz-adv-x="978" 
d="M676 1110h-236l-200 305l145 12l176 -192l170 182h158zM584 803q-142 0 -229 -94t-87 -245t94 -243t228 -92q88 0 156 27t143 94l-8 -195q-82 -51 -150 -71t-164 -21q-207 0 -346 138t-139 351t142 366t360 153q178 0 309 -92l-53 -166q-114 90 -256 90z" />
    <glyph glyph-name="Dcaron" unicode="&#x10e;" horiz-adv-x="1492" 
d="M852 1581h-236l-200 305l145 12l176 -192l170 182h158zM1174 737q0 248 -151 393t-425 146q-94 0 -178 -6q-2 -37 -2 -127v-844q0 -74 2 -115q102 -10 184 -10q290 0 430 158t140 405zM1380 764q0 -336 -206 -550t-537 -214h-434q14 137 14 494v452q0 356 -14 494l399 10
q366 0 572 -196t206 -490z" />
    <glyph glyph-name="dcaron" unicode="&#x10f;" horiz-adv-x="1126" 
d="M1165 1133l-82 -19q16 201 17 340q35 6 155 23q-55 -238 -90 -344zM570 807q-136 0 -219 -101t-83 -255t81 -239t200 -85q75 0 141 39t98 104v451q-82 86 -218 86zM569 971q131 0 219 -68l-2 213q0 231 -12 338q133 10 211 27q-8 -72 -8 -224v-917q0 -209 14 -340h-174
l-14 102q-47 -61 -127 -100t-162 -39q-198 0 -316 134t-118 348t140 370t349 156z" />
    <glyph glyph-name="Dcroat" unicode="&#x110;" horiz-adv-x="1490" 
d="M1174 737q0 248 -151 393t-425 146q-94 0 -178 -6q-2 -37 -2 -127v-334q166 0 307 6q-10 -78 -10 -174q-172 4 -252 4h-45v-346q0 -74 2 -115q102 -10 184 -10q290 0 430 158t140 405zM1380 764q0 -336 -206 -550t-537 -214h-434q14 137 14 494v151l-166 -4q6 63 6 174
l160 -6v137q0 356 -14 494l399 10q366 0 572 -196t206 -490z" />
    <glyph glyph-name="dcroat" unicode="&#x111;" horiz-adv-x="1126" 
d="M570 807q-136 0 -219 -101t-83 -255t81 -239t200 -85q75 0 141 39t98 104v451q-82 86 -218 86zM569 971q131 0 219 -68l-2 197h-90q-86 0 -221 -4q6 59 6 155q145 -6 303 -6q0 113 -10 209q133 10 211 27q-8 -72 -8 -224v-10q55 0 145 4q-10 -68 -10 -155q-49 0 -135 4
v-760q0 -209 14 -340h-174l-14 102q-47 -61 -127 -100t-162 -39q-198 0 -316 134t-118 348t140 370t349 156z" />
    <glyph glyph-name="Emacron" unicode="&#x112;" horiz-adv-x="1116" 
d="M698 1661h-155q-84 0 -224 -4q8 74 9 155q150 -6 306 -6t306 6q-10 -68 -10 -155q-164 4 -232 4zM620 2q-266 0 -417 -10q14 137 14 502v452q0 369 -14 506q199 -10 403 -10t408 10q-12 -76 -17 -178q-242 4 -380 4t-197 -2q-2 -39 -2 -125v-309l500 4q-6 -74 -7 -176
l-493 4v-379q0 -88 2 -127l186 -2q240 0 449 6q-10 -78 -15 -180q-154 10 -420 10z" />
    <glyph glyph-name="emacron" unicode="&#x113;" horiz-adv-x="1024" 
d="M614 1190h-155q-84 0 -223 -4q8 74 8 155q152 -6 307 -6t305 6q-10 -68 -10 -155q-164 4 -232 4zM546 813q-108 -1 -180 -71t-92 -185l502 14q-16 121 -69 181t-161 61zM565 129q172 0 342 139l-8 -192q-170 -113 -352 -113q-225 0 -345 137t-120 352t132 367t338 152
t303 -129t97 -336l-123 -74l-559 -16q23 -287 295 -287z" />
    <glyph glyph-name="Ebreve" unicode="&#x114;" horiz-adv-x="1116" 
d="M632 1567q-144 0 -233 89q-88 89 -88 222l162 29q0 -97 42 -149t119 -52t115 51q37 51 37 131l158 10q4 -154 -82 -242t-230 -89zM620 2q-266 0 -417 -10q14 137 14 502v452q0 369 -14 506q199 -10 403 -10t408 10q-12 -76 -17 -178q-242 4 -380 4t-197 -2
q-2 -39 -2 -125v-309l500 4q-6 -74 -7 -176l-493 4v-379q0 -88 2 -127l186 -2q240 0 449 6q-10 -78 -15 -180q-154 10 -420 10z" />
    <glyph glyph-name="ebreve" unicode="&#x115;" horiz-adv-x="1024" 
d="M548 1096q-144 0 -233 89q-88 89 -88 222l162 29q0 -96 42 -148t119 -53q77 0 115 51q37 51 37 131l158 10q4 -155 -82 -243t-230 -88zM546 813q-108 -1 -180 -71t-92 -185l502 14q-16 121 -69 181t-161 61zM565 129q172 0 342 139l-8 -192q-170 -113 -352 -113
q-225 0 -345 137t-120 352t132 367t338 152t303 -129t97 -336l-123 -74l-559 -16q23 -287 295 -287z" />
    <glyph glyph-name="Edotaccent" unicode="&#x116;" horiz-adv-x="1116" 
d="M750 1741q0 -51 -35 -90t-87 -39t-85 36t-33 88t35 91t87 39t85 -37t33 -88zM620 2q-266 0 -417 -10q14 137 14 502v452q0 369 -14 506q199 -10 403 -10t408 10q-12 -76 -17 -178q-242 4 -380 4t-197 -2q-2 -39 -2 -125v-309l500 4q-6 -74 -7 -176l-493 4v-379
q0 -88 2 -127l186 -2q240 0 449 6q-10 -78 -15 -180q-154 10 -420 10z" />
    <glyph glyph-name="edotaccent" unicode="&#x117;" horiz-adv-x="1024" 
d="M666 1270q0 -51 -35 -90t-87 -39t-85 36t-33 88t35 91t87 39t85 -37t33 -88zM546 813q-108 -1 -180 -71t-92 -185l502 14q-16 121 -69 181t-161 61zM565 129q172 0 342 139l-8 -192q-170 -113 -352 -113q-225 0 -345 137t-120 352t132 367t338 152t303 -129t97 -336
l-123 -74l-559 -16q23 -287 295 -287z" />
    <glyph glyph-name="Eogonek" unicode="&#x118;" horiz-adv-x="1116" 
d="M809 -242q0 -38 25 -62q26 -24 78 -24t120 43l-10 -127q-60 -41 -154 -41q-94 1 -152 51t-59 134q0 141 215 268q-82 2 -300 2t-369 -10q14 137 14 502v452q0 369 -14 506q199 -10 403 -10t408 10q-12 -76 -17 -178q-242 4 -380 4t-197 -2q-2 -39 -2 -125v-309l500 4
q-6 -74 -7 -176l-493 4v-379q0 -88 2 -127l186 -2q240 0 449 6q-10 -78 -15 -180q-231 -125 -231 -234z" />
    <glyph glyph-name="eogonek" unicode="&#x119;" horiz-adv-x="1024" 
d="M546 813q-108 -1 -180 -71t-92 -185l502 14q-16 121 -69 181t-161 61zM590 -242q0 -86 102 -86q53 0 121 43l-10 -127q-61 -41 -155 -41q-94 1 -151 51q-58 50 -59 134q0 121 142 233q-10 -2 -33 -2q-225 0 -345 137t-120 352t132 367t338 152t303 -129t97 -336l-123 -74
l-559 -16q23 -287 295 -287q172 0 342 139l-8 -192q-309 -184 -309 -318z" />
    <glyph glyph-name="Ecaron" unicode="&#x11a;" horiz-adv-x="1116" 
d="M741 1581h-235l-201 305l146 12l176 -192l170 182h157zM620 2q-266 0 -417 -10q14 137 14 502v452q0 369 -14 506q199 -10 403 -10t408 10q-12 -76 -17 -178q-242 4 -380 4t-197 -2q-2 -39 -2 -125v-309l500 4q-6 -74 -7 -176l-493 4v-379q0 -88 2 -127l186 -2
q240 0 449 6q-10 -78 -15 -180q-154 10 -420 10z" />
    <glyph glyph-name="ecaron" unicode="&#x11b;" horiz-adv-x="1024" 
d="M657 1110h-235l-201 305l146 12l176 -192l170 182h157zM546 813q-108 -1 -180 -71t-92 -185l502 14q-16 121 -69 181t-161 61zM565 129q172 0 342 139l-8 -192q-170 -113 -352 -113q-225 0 -345 137t-120 352t132 367t338 152t303 -129t97 -336l-123 -74l-559 -16
q23 -287 295 -287z" />
    <glyph glyph-name="Gbreve" unicode="&#x11e;" horiz-adv-x="1509" 
d="M840 1587q-144 0 -232 89t-88 222l162 29q0 -96 42 -148q42 -53 119 -53t115 52t37 131l158 10q4 -154 -82 -243q-87 -89 -231 -89zM836 -37q-297 0 -511 214q-214 213 -214 531t224 542t556 225q115 0 242 -37t213 -92l-58 -185q-74 59 -192 95t-226 36
q-246 0 -400 -162t-153 -420q0 -258 160 -412q160 -155 397 -155q166 0 291 66v256q0 86 -4 123q-61 2 -135 2t-252 -6q6 109 0 184q188 -6 314 -6t288 8q-14 -113 -14 -496v-159q-229 -152 -526 -152z" />
    <glyph glyph-name="gbreve" unicode="&#x11f;" horiz-adv-x="974" 
d="M496 1096q-144 0 -232 89t-88 222l162 29q0 -96 42 -148t119 -53q77 0 115 51t37 131l158 10q4 -155 -82 -243q-87 -88 -231 -88zM504 825q-92 0 -152 -60t-59 -150q0 -91 54 -145q53 -54 147 -54t152 58t59 148q-1 90 -55 146t-146 57zM506 -18q-72 0 -123 6
q-172 -74 -172 -174q0 -53 62 -90q61 -37 193 -37t223 52t91 128q0 115 -245 115h-29zM881 624q0 -148 -115 -250q-115 -103 -289 -104q-59 0 -119 17q-68 -41 -68 -80t45 -54q44 -15 165 -16h41q416 0 415 -243q0 -144 -147 -248t-353 -104t-314 68q-108 69 -107 175
q0 150 203 244q-113 51 -113 141t129 168q-139 96 -139 258t113 268q114 106 284 107q82 0 158 -31q63 178 274 150l-10 -166q-117 14 -160 -52q107 -100 107 -248z" />
    <glyph glyph-name="Gdotaccent" unicode="&#x120;" horiz-adv-x="1509" 
d="M841 1886q53 0 85 -37t32 -88t-34 -90t-87 -39q-52 0 -85 36t-33 88t35 91t87 39zM836 -37q-297 0 -511 214q-214 213 -214 531t224 542t556 225q115 0 242 -37t213 -92l-58 -185q-74 59 -192 95t-226 36q-246 0 -400 -162t-153 -420q0 -258 160 -412q160 -155 397 -155
q166 0 291 66v256q0 86 -4 123q-61 2 -135 2t-252 -6q6 109 0 184q188 -6 314 -6t288 8q-14 -113 -14 -496v-159q-229 -152 -526 -152z" />
    <glyph glyph-name="gdotaccent" unicode="&#x121;" horiz-adv-x="974" 
d="M631 1270q0 -51 -35 -90t-87 -39t-85 36t-33 88t35 91t87 39t85 -37t33 -88zM504 825q-92 0 -152 -60t-59 -150q0 -91 54 -145q53 -54 147 -54t152 58t59 148q-1 90 -55 146t-146 57zM506 -18q-72 0 -123 6q-172 -74 -172 -174q0 -53 62 -90q61 -37 193 -37t223 52
t91 128q0 115 -245 115h-29zM881 626q0 -148 -115 -252q-115 -103 -289 -104q-59 0 -119 17q-68 -41 -68 -80t45 -54q44 -15 165 -16h41q416 0 415 -243q0 -144 -147 -248t-353 -104t-314 68q-108 69 -107 175q0 150 203 244q-113 51 -113 141t129 168q-139 96 -139 258
t113 268q114 106 284 107q80 0 150 -27q57 201 282 172l-10 -166q-129 14 -168 -69q115 -107 115 -255z" />
    <glyph glyph-name="Gcommaaccent" unicode="&#x122;" horiz-adv-x="1509" 
d="M809 -322q0 58 -66 93l-26 14q31 100 127 100q49 0 84 -37t35 -94q0 -154 -242 -286l-49 59l61 41q76 52 76 110zM836 -37q-297 0 -511 214q-214 213 -214 531t224 542t556 225q115 0 242 -37t213 -92l-58 -185q-74 59 -192 95t-226 36q-246 0 -400 -162t-153 -420
q0 -258 160 -412q160 -155 397 -155q166 0 291 66v256q0 86 -4 123q-61 2 -135 2t-252 -6q6 109 0 184q188 -6 314 -6t288 8q-14 -113 -14 -496v-159q-229 -152 -526 -152z" />
    <glyph glyph-name="gcommaaccent" unicode="&#x123;" horiz-adv-x="974" 
d="M500 1145q-49 0 -84 37t-35 94q0 154 242 287l49 -60l-62 -41q-76 -51 -76 -109t66 -93l27 -15q-31 -100 -127 -100zM504 825q-92 0 -152 -60t-59 -150q0 -91 54 -145q53 -54 147 -54t152 58t59 148q-1 90 -55 146t-146 57zM506 -18q-72 0 -123 6q-172 -74 -172 -174
q0 -53 62 -90q61 -37 193 -37t223 52t91 128q0 115 -245 115h-29zM881 626q0 -148 -115 -252q-115 -103 -289 -104q-59 0 -119 17q-68 -41 -68 -80t45 -54q44 -15 165 -16h41q416 0 415 -243q0 -144 -147 -248t-353 -104t-314 68q-108 69 -107 175q0 150 203 244
q-113 51 -113 141t129 168q-139 96 -139 258t113 268q114 106 284 107q80 0 150 -27q57 201 282 172l-10 -166q-129 14 -168 -69q115 -107 115 -255z" />
    <glyph glyph-name="Hbar" unicode="&#x126;" horiz-adv-x="1591" 
d="M420 1038v-225h751v223l-217 2h-534zM1376 295q0 -223 10 -295h-231q16 131 16 494v151h-751v-350q0 -219 8 -295h-227q14 137 14 494v542q-111 -4 -164 -4q6 66 6 148l156 -4q-4 186 -12 264q143 0 227 10q-8 -74 -8 -276q418 -8 749 0q-4 166 -14 266q143 0 231 10
q-10 -68 -10 -274l168 4q-10 -78 -10 -148l-158 2v-739z" />
    <glyph glyph-name="hbar" unicode="&#x127;" horiz-adv-x="1116" 
d="M782 348v246q0 211 -164 211q-100 0 -190 -82t-90 -174v-350q0 -127 8 -199h-209q12 131 13 336v764q-106 -4 -146 -4q6 59 6 155l137 -6q-2 104 -10 209q133 12 209 27q-8 -72 -8 -224v-12q166 0 313 6q-10 -68 -10 -155q-160 4 -231 4h-72v-328q57 92 149 146t181 53
q152 0 228 -88t75 -252v-420q0 -105 8 -211h-211q14 123 14 348z" />
    <glyph glyph-name="Imacron" unicode="&#x12a;" horiz-adv-x="651" 
d="M391 1661h-155q-84 0 -224 -4q8 74 8 155q152 -6 308 -6t305 6q-10 -68 -10 -155q-164 4 -232 4zM225 494v452q0 356 -14 494q139 0 221 10q-6 -90 -6 -303v-852q0 -209 6 -295h-221q14 137 14 494z" />
    <glyph glyph-name="imacron" unicode="&#x12b;" horiz-adv-x="487" 
d="M309 1190h-155q-84 0 -224 -4q8 74 9 155q152 -6 307 -6t305 6q-10 -68 -10 -155q-164 4 -232 4zM150 594q0 225 -15 348q109 0 211 10q-8 -72 -8 -219v-534q0 -127 8 -199h-211q14 123 15 336v258z" />
    <glyph glyph-name="Ibreve" unicode="&#x12c;" horiz-adv-x="651" 
d="M324 1567q-144 0 -232 89t-88 222l162 29q0 -97 42 -149t119 -52t115 51t37 131l158 10q4 -154 -82 -242q-87 -88 -231 -89zM225 494v452q0 356 -14 494q139 0 221 10q-6 -90 -6 -303v-852q0 -209 6 -295h-221q14 137 14 494z" />
    <glyph glyph-name="ibreve" unicode="&#x12d;" horiz-adv-x="487" 
d="M242 1096q-144 0 -232 89t-88 222l162 29q0 -96 42 -148t119 -53q77 0 115 51t37 131l158 10q4 -155 -82 -243q-87 -88 -231 -88zM150 594q0 225 -15 348q109 0 211 10q-8 -72 -8 -219v-534q0 -127 8 -199h-211q14 123 15 336v258z" />
    <glyph glyph-name="Iogonek" unicode="&#x12e;" horiz-adv-x="653" 
d="M252 -242q0 -86 102 -86q53 0 121 43l-10 -127q-61 -41 -155 -41q-94 1 -152 51t-58 134q0 143 174 268h-63q14 137 14 494v452q0 356 -14 494q139 0 221 10q-6 -90 -6 -303v-852q0 -227 4 -289l8 -6q-186 -127 -186 -242z" />
    <glyph glyph-name="iogonek" unicode="&#x12f;" horiz-adv-x="487" 
d="M377 1290q0 -51 -36 -90t-90 -39t-88 36t-34 88t36 91t89 39t88 -37t35 -88zM164 -242q0 -86 102 -86q53 0 121 43l-10 -127q-61 -41 -155 -41q-94 1 -151 51q-58 50 -59 134q0 141 168 268h-45q14 123 15 336v258q0 225 -15 348q109 0 211 10q-8 -72 -8 -219v-534
q0 -127 8 -199q-182 -129 -182 -242z" />
    <glyph glyph-name="Idotaccent" unicode="&#x130;" horiz-adv-x="651" 
d="M325 1866q53 0 85 -37t32 -88t-34 -90t-88 -39q-52 0 -84 36t-33 88q0 52 35 91t87 39zM225 494v452q0 356 -14 494q139 0 221 10q-6 -90 -6 -303v-852q0 -209 6 -295h-221q14 137 14 494z" />
    <glyph glyph-name="dotlessi" unicode="&#x131;" horiz-adv-x="487" 
d="M150 594q0 225 -15 348q109 0 211 10q-8 -72 -8 -219v-534q0 -127 8 -199h-211q14 123 15 336v258z" />
    <glyph glyph-name="Kcommaaccent" unicode="&#x136;" horiz-adv-x="1327" 
d="M721 -322q0 58 -66 93l-26 14q31 100 127 100q49 0 84 -37t34 -94q0 -154 -241 -286l-49 59l61 41q76 52 76 110zM418 295q0 -209 6 -295h-221q14 137 14 494v452q0 356 -14 494q139 0 221 10q-6 -90 -6 -303v-383l264 289q104 115 350 391h260l-657 -692l301 -332
q139 -158 381 -420l-246 -16l-653 731v-420z" />
    <glyph glyph-name="kcommaaccent" unicode="&#x137;" horiz-adv-x="962" 
d="M496 -322q0 58 -66 93l-27 14q31 100 127 100q49 0 84 -37t35 -94q0 -154 -241 -286l-50 59l62 41q76 52 76 110zM338 199q0 -131 8 -199h-211q14 123 15 334v782q0 215 -15 338q133 10 211 27q-8 -72 -8 -226v-727q29 35 174 207t182 221q150 0 240 9l-408 -449l88 -98
q25 -27 160 -185t193 -217l-201 -41l-428 492v-268z" />
    <glyph glyph-name="Lacute" unicode="&#x139;" horiz-adv-x="1089" 
d="M620 2q-266 0 -417 -10q14 137 14 502v452q0 356 -14 494q139 0 221 10q-6 -90 -6 -303v-848q0 -86 4 -127l184 -2q240 0 449 6q-10 -78 -15 -184q-154 10 -420 10zM465 1845l268 19l-330 -305l-129 -11z" />
    <glyph glyph-name="lacute" unicode="&#x13a;" horiz-adv-x="487" 
d="M303 1866l268 18l-329 -305l-129 -10zM150 1116q0 215 -15 338q133 10 211 27q-8 -72 -8 -224v-1058q0 -127 8 -199h-211q14 123 15 336v780z" />
    <glyph glyph-name="Lcommaaccent" unicode="&#x13b;" horiz-adv-x="1089" 
d="M590 -322q0 58 -66 93l-26 14q31 100 127 100q49 0 84 -37t34 -94q0 -154 -241 -286l-49 59l61 41q76 52 76 110zM620 2q-266 0 -417 -10q14 137 14 502v452q0 356 -14 494q139 0 221 10q-6 -90 -6 -303v-848q0 -86 4 -127l184 -2q240 0 449 6q-10 -78 -15 -184
q-154 10 -420 10z" />
    <glyph glyph-name="lcommaaccent" unicode="&#x13c;" horiz-adv-x="487" 
d="M201 -322q0 58 -66 93l-26 14q31 100 127 100q50 0 84 -37t34 -94q0 -154 -241 -286l-50 59l62 41q76 52 76 110zM150 1116q0 215 -15 338q133 10 211 27q-8 -72 -8 -224v-1058q0 -127 8 -199h-211q14 123 15 336v780z" />
    <glyph glyph-name="Lcaron" unicode="&#x13d;" horiz-adv-x="1089" 
d="M620 2q-266 0 -417 -10q14 137 14 502v452q0 356 -14 494q139 0 221 10q-6 -90 -6 -303v-848q0 -86 4 -127l184 -2q240 0 449 6q-10 -78 -15 -184q-154 10 -420 10zM672 1102l-82 -19q16 201 16 340q35 6 156 23q-55 -238 -90 -344z" />
    <glyph glyph-name="lcaron" unicode="&#x13e;" horiz-adv-x="487" 
d="M526 1133l-82 -19q16 201 17 340q35 6 155 23q-55 -238 -90 -344zM150 1116q0 215 -15 338q133 10 211 27q-8 -72 -8 -224v-1058q0 -127 8 -199h-211q14 123 15 336v780z" />
    <glyph glyph-name="Ldot" unicode="&#x13f;" horiz-adv-x="1089" 
d="M620 2q-266 0 -417 -10q14 137 14 502v452q0 356 -14 494q139 0 221 10q-6 -90 -6 -303v-848q0 -86 4 -127l184 -2q240 0 449 6q-10 -78 -15 -184q-154 10 -420 10zM855 911q52 -1 85 -37t33 -87t-35 -91t-87 -39q-52 0 -85 36t-33 88t35 91t87 39z" />
    <glyph glyph-name="ldot" unicode="&#x140;" horiz-adv-x="724" 
d="M715 715q0 -51 -35 -90t-87 -39t-85 36t-33 88t35 91t87 39t85 -37t33 -88zM150 1116q0 215 -15 338q133 10 211 27q-8 -72 -8 -224v-1058q0 -127 8 -199h-211q14 123 15 336v780z" />
    <glyph glyph-name="Lslash" unicode="&#x141;" horiz-adv-x="1089" 
d="M620 2q-266 0 -417 -10q14 137 14 502v110q-25 -14 -69 -41t-64 -39q-10 27 -78 150q25 12 211 112v160q0 356 -14 494q139 0 221 10q-6 -90 -6 -303v-248l237 141q16 -47 74 -149l-311 -172v-420q0 -86 4 -127l184 -2q240 0 449 6q-10 -78 -15 -184q-154 10 -420 10z
" />
    <glyph glyph-name="lslash" unicode="&#x142;" horiz-adv-x="487" 
d="M150 1116q0 215 -15 338q133 10 211 27q-8 -72 -8 -224v-368l125 78q37 -80 74 -138q-94 -51 -199 -110v-520q0 -127 8 -199h-211q14 123 15 336v272l-121 -69q-37 80 -74 137q27 14 195 104v336z" />
    <glyph glyph-name="Nacute" unicode="&#x143;" horiz-adv-x="1607" 
d="M891 1866l268 18l-330 -305l-129 -10zM1208 946q0 362 -16 494q139 0 227 10q-10 -76 -16 -303l-14 -864q-7 -195 4 -303l-54 -15l-938 1079v-749q0 -219 9 -295h-226q18 156 25 494l8 491q4 317 -8 475l53 15l946 -1096v567z" />
    <glyph glyph-name="nacute" unicode="&#x144;" horiz-adv-x="1116" 
d="M653 1395l269 18l-330 -305l-129 -10zM782 348v246q0 211 -164 211q-100 0 -190 -82t-90 -174v-338q0 -139 8 -211h-209q12 131 13 348v246q0 217 -13 348q82 0 185 10l14 -182q57 92 149 146t183 55q152 0 228 -88t75 -252v-420q0 -105 8 -211h-211q14 123 14 348z" />
    <glyph glyph-name="Ncommaaccent" unicode="&#x145;" horiz-adv-x="1607" 
d="M768 -322q0 58 -66 93l-26 14q31 100 127 100q49 0 84 -37t35 -94q0 -154 -242 -286l-49 59l61 41q76 52 76 110zM1208 946q0 362 -16 494q139 0 227 10q-10 -76 -16 -303l-14 -864q-7 -195 4 -303l-54 -15l-938 1079v-749q0 -219 9 -295h-226q18 156 25 494l8 491
q4 317 -8 475l53 15l946 -1096v567z" />
    <glyph glyph-name="ncommaaccent" unicode="&#x146;" horiz-adv-x="1116" 
d="M565 -115q49 0 84 -37t35 -94q0 -154 -242 -286l-49 59l62 41q75 52 75 110t-65 93l-27 14q31 100 127 100zM782 348v246q0 211 -164 211q-100 0 -190 -82t-90 -174v-338q0 -139 8 -211h-209q12 131 13 348v246q0 217 -13 348q82 0 185 10l14 -182q57 92 149 146t183 55
q152 0 228 -88t75 -252v-420q0 -105 8 -211h-211q14 123 14 348z" />
    <glyph glyph-name="Ncaron" unicode="&#x147;" horiz-adv-x="1607" 
d="M920 1581h-236l-201 305l146 12l176 -192l170 182h158zM1208 946q0 362 -16 494q139 0 227 10q-10 -76 -16 -303l-14 -864q-7 -195 4 -303l-54 -15l-938 1079v-749q0 -219 9 -295h-226q18 156 25 494l8 491q4 317 -8 475l53 15l946 -1096v567z" />
    <glyph glyph-name="ncaron" unicode="&#x148;" horiz-adv-x="1116" 
d="M682 1110h-236l-200 305l145 12l176 -192l170 182h158zM782 348v246q0 211 -164 211q-100 0 -190 -82t-90 -174v-338q0 -139 8 -211h-209q12 131 13 348v246q0 217 -13 348q82 0 185 10l14 -182q57 92 149 146t183 55q152 0 228 -88t75 -252v-420q0 -105 8 -211h-211
q14 123 14 348z" />
    <glyph glyph-name="Omacron" unicode="&#x14c;" horiz-adv-x="1660" 
d="M899 1681h-156q-84 0 -223 -4q8 74 8 156q150 -6 306 -6t307 6q-10 -68 -11 -156q-164 4 -231 4zM820 -37q-316 0 -513 211t-196 508q0 336 207 564q208 228 524 228t512 -210q197 -211 196 -508q0 -336 -208 -564q-206 -228 -522 -229zM833 1305q-223 0 -369 -172
t-146 -426t142 -414q144 -160 368 -160t370 172q145 172 145 426t-143 414t-367 160z" />
    <glyph glyph-name="omacron" unicode="&#x14d;" horiz-adv-x="1101" 
d="M621 1190h-156q-84 0 -223 -4q8 74 8 155q152 -6 306 -6t306 6q-10 -68 -10 -155q-164 4 -231 4zM548 129q130 1 208 97t78 248t-79 241q-79 90 -204 90t-204 -95t-79 -250t75 -243t205 -88zM558 971q210 0 336 -140t126 -352t-134 -364t-343 -152t-335 140t-126 352
t133 364t343 152z" />
    <glyph glyph-name="Obreve" unicode="&#x14e;" horiz-adv-x="1660" 
d="M832 1587q-144 0 -232 89t-88 222l162 29q0 -96 42 -148q42 -53 119 -53t115 52t37 131l158 10q4 -154 -82 -243q-87 -89 -231 -89zM820 -37q-316 0 -513 211t-196 508q0 336 207 564q208 228 524 228t512 -210q197 -211 196 -508q0 -336 -208 -564q-206 -228 -522 -229z
M833 1305q-223 0 -369 -172t-146 -426t142 -414q144 -160 368 -160t370 172q145 172 145 426t-143 414t-367 160z" />
    <glyph glyph-name="obreve" unicode="&#x14f;" horiz-adv-x="1101" 
d="M554 1096q-144 0 -232 89t-89 222l162 29q0 -96 42 -148t119 -53q77 0 115 51t38 131l157 10q4 -155 -82 -243t-230 -88zM548 129q130 1 208 97t78 248t-79 241q-79 90 -204 90t-204 -95t-79 -250t75 -243t205 -88zM558 971q210 0 336 -140t126 -352t-134 -364t-343 -152
t-335 140t-126 352t133 364t343 152z" />
    <glyph glyph-name="Ohungarumlaut" unicode="&#x150;" horiz-adv-x="1660" 
d="M1036 1901l248 22l-227 -324l-135 -6zM700 1896l238 19l-203 -320l-135 -6zM820 -37q-316 0 -513 211t-196 508q0 336 207 564q208 228 524 228t512 -210q197 -211 196 -508q0 -336 -208 -564q-206 -228 -522 -229zM833 1305q-223 0 -369 -172t-146 -426t142 -414
q144 -160 368 -160t370 172q145 172 145 426t-143 414t-367 160z" />
    <glyph glyph-name="ohungarumlaut" unicode="&#x151;" horiz-adv-x="1101" 
d="M758 1409l248 23l-228 -324l-135 -6zM422 1405l237 18l-202 -319l-135 -6zM548 129q130 1 208 97t78 248t-79 241q-79 90 -204 90t-204 -95t-79 -250t75 -243t205 -88zM558 971q210 0 336 -140t126 -352t-134 -364t-343 -152t-335 140t-126 352t133 364t343 152z" />
    <glyph glyph-name="OE" unicode="&#x152;" horiz-adv-x="1918" 
d="M848 178q119 0 164 4q6 160 6 303v473q0 190 -4 297q-53 6 -133 7q-250 0 -405 -144t-154 -368q0 -260 148 -416t378 -156zM113 700q0 328 221 537t534 209l541 -4q203 0 408 10q-12 -76 -17 -182q-242 4 -378 4t-195 -2q-4 -37 -4 -121v-309l497 4q-6 -78 -6 -176
l-491 4v-379q0 -86 4 -123l182 -2q240 0 449 6q-10 -82 -15 -184q-154 10 -420 10l-596 -6q-291 0 -503 207t-211 497z" />
    <glyph glyph-name="oe" unicode="&#x153;" horiz-adv-x="1777" 
d="M1300 813q-108 -1 -180 -71t-92 -185l502 14q-16 121 -70 181q-52 60 -160 61zM823 472q0 152 -77 243q-76 90 -200 90t-202 -95t-78 -250t73 -243t203 -88t206 95q75 96 75 248zM1319 129q172 0 342 139l-8 -192q-170 -113 -353 -113q-274 0 -391 209
q-131 -209 -379 -209q-204 0 -326 140t-122 353t131 364t344 151q125 1 220 -57t151 -158q127 215 385 215q199 0 296 -129t97 -336l-123 -74l-559 -16q23 -287 295 -287z" />
    <glyph glyph-name="Racute" unicode="&#x154;" horiz-adv-x="1296" 
d="M705 1866l268 18l-330 -305l-129 -10zM416 735h215q133 0 212 78t79 193q0 270 -324 270q-98 0 -182 -6v-535zM416 567v-272q0 -209 6 -295h-221q14 137 14 494v452q0 356 -14 494l377 10q258 4 406 -118t144 -300q-8 -287 -303 -418l211 -309q164 -230 215 -293
l-237 -26l-371 581h-227z" />
    <glyph glyph-name="racute" unicode="&#x155;" horiz-adv-x="696" 
d="M481 1395l269 18l-330 -305l-129 -10zM338 563v-352q0 -139 8 -211h-209q12 106 13 348v287q0 174 -21 295q88 2 186 26l21 -186q57 94 136 140t196 61l-25 -217q-109 20 -207 -34t-98 -157z" />
    <glyph glyph-name="Rcommaaccent" unicode="&#x156;" horiz-adv-x="1296" 
d="M635 -322q0 58 -66 93l-26 14q31 100 127 100q49 0 84 -37t34 -94q0 -154 -241 -286l-49 59l61 41q76 52 76 110zM416 735h215q133 0 212 78t79 193q0 270 -324 270q-98 0 -182 -6v-535zM416 567v-272q0 -209 6 -295h-221q14 137 14 494v452q0 356 -14 494l377 10
q258 4 406 -118t144 -300q-8 -287 -303 -418l211 -309q164 -230 215 -293l-237 -26l-371 581h-227z" />
    <glyph glyph-name="rcommaaccent" unicode="&#x157;" horiz-adv-x="696" 
d="M215 -322q0 58 -65 93l-27 14q31 100 127 100q49 0 84 -37t35 -94q0 -154 -242 -286l-49 59l61 41q76 52 76 110zM338 563v-352q0 -139 8 -211h-209q12 106 13 348v287q0 174 -21 295q88 2 186 26l21 -186q57 94 136 140t196 61l-25 -217q-109 20 -207 -34t-98 -157z" />
    <glyph glyph-name="Rcaron" unicode="&#x158;" horiz-adv-x="1296" 
d="M733 1581h-235l-201 305l145 12l176 -192l170 182h158zM416 735h215q133 0 212 78t79 193q0 270 -324 270q-98 0 -182 -6v-535zM416 567v-272q0 -209 6 -295h-221q14 137 14 494v452q0 356 -14 494l377 10q258 4 406 -118t144 -300q-8 -287 -303 -418l211 -309
q164 -230 215 -293l-237 -26l-371 581h-227z" />
    <glyph glyph-name="rcaron" unicode="&#x159;" horiz-adv-x="696" 
d="M510 1110h-236l-200 305l145 12l176 -192l170 182h158zM338 563v-352q0 -139 8 -211h-209q12 106 13 348v287q0 174 -21 295q88 2 186 26l21 -186q57 94 136 140t196 61l-25 -217q-109 20 -207 -34t-98 -157z" />
    <glyph glyph-name="Sacute" unicode="&#x15a;" horiz-adv-x="1081" 
d="M680 1886l268 19l-330 -306l-129 -10zM979 403q0 -190 -130 -315t-347 -125q-98 0 -210 34t-194 87l13 213q67 -61 181 -107t228 -47q114 1 187 61q72 60 71 173q0 78 -64 141q-65 64 -156 114t-182 103t-156 136t-64 188q0 176 128 296t321 120t337 -107l-65 -176
q-53 43 -131 73t-146 29q-108 0 -176 -58t-68 -142t65 -141q65 -58 156 -105q91 -48 182 -102t155 -142t65 -201z" />
    <glyph glyph-name="sacute" unicode="&#x15b;" horiz-adv-x="849" 
d="M539 1395l268 18l-330 -305l-129 -10zM461 971q160 0 284 -78l-63 -164q-102 76 -231 76q-160 0 -160 -115q0 -70 172 -127q73 -25 143 -57t120 -89q50 -58 50 -141q0 -141 -108 -227t-262 -86q-80 0 -174 24t-150 60l10 195q62 -49 150 -81t169 -32t131 31t50 84
q0 91 -171 149q-71 25 -141 56t-121 90q-50 59 -50 143q0 121 96 205t256 84z" />
    <glyph glyph-name="Scedilla" unicode="&#x15e;" horiz-adv-x="1081" 
d="M979 403q0 -171 -108 -291t-293 -143l-31 -110q211 -59 211 -191q0 -70 -62 -121t-152 -51q-92 0 -188 29l27 119q86 -31 163 -31t77 51q0 57 -187 103l-10 8q6 18 51 188q-209 10 -379 121l13 213q67 -61 181 -107t228 -47q114 1 187 61q72 60 71 173q0 78 -64 141
q-65 64 -156 114t-182 103t-156 136t-64 188q0 176 128 296t321 120t337 -107l-65 -176q-53 43 -131 73t-146 29q-108 0 -176 -58t-68 -142t65 -141q65 -58 156 -105q91 -48 182 -102t155 -142t65 -201z" />
    <glyph glyph-name="scedilla" unicode="&#x15f;" horiz-adv-x="849" 
d="M461 971q160 0 284 -78l-63 -164q-102 76 -231 76q-160 0 -160 -115q0 -70 172 -127q73 -25 143 -57t120 -89q50 -58 50 -141q0 -124 -84 -206t-215 -101l-31 -110q211 -59 211 -191q0 -70 -61 -121q-60 -51 -152 -51t-188 29l27 119q87 -31 163 -31t76 51q0 57 -186 103
l-10 8q10 29 51 190q-188 8 -295 82l10 195q62 -49 150 -81t169 -32t131 31t50 84q0 91 -171 149q-71 25 -141 56t-121 90q-50 59 -50 143q0 121 96 205t256 84z" />
    <glyph glyph-name="Scaron" unicode="&#x160;" horiz-adv-x="1081" 
d="M709 1602h-236l-201 305l146 12l176 -193l170 183h158zM979 403q0 -190 -130 -315t-347 -125q-98 0 -210 34t-194 87l13 213q67 -61 181 -107t228 -47q114 1 187 61q72 60 71 173q0 78 -64 141q-65 64 -156 114t-182 103t-156 136t-64 188q0 176 128 296t321 120
t337 -107l-65 -176q-53 43 -131 73t-146 29q-108 0 -176 -58t-68 -142t65 -141q65 -58 156 -105q91 -48 182 -102t155 -142t65 -201z" />
    <glyph glyph-name="scaron" unicode="&#x161;" horiz-adv-x="849" 
d="M567 1110h-235l-201 305l145 12l177 -192l170 182h157zM461 971q160 0 284 -78l-63 -164q-102 76 -231 76q-160 0 -160 -115q0 -70 172 -127q73 -25 143 -57t120 -89q50 -58 50 -141q0 -141 -108 -227t-262 -86q-80 0 -174 24t-150 60l10 195q62 -49 150 -81t169 -32
t131 31t50 84q0 91 -171 149q-71 25 -141 56t-121 90q-50 59 -50 143q0 121 96 205t256 84z" />
    <glyph glyph-name="Tcommaaccent" unicode="&#x162;" horiz-adv-x="1314" 
d="M653 -115q49 0 84 -37t35 -94q0 -154 -242 -286l-49 59l62 41q75 52 75 110t-65 93l-27 14q31 100 127 100zM754 1141v-846q0 -209 6 -295h-221q14 137 14 494v444q0 221 -4 336q-174 0 -486 -4q8 68 9 182q306 -10 586 -10t593 10q-12 -76 -16 -182q-315 4 -479 4
q-2 -45 -2 -133z" />
    <glyph glyph-name="Tcommaaccent" unicode="&#x21a;" horiz-adv-x="1314" 
d="M653 -115q49 0 84 -37t35 -94q0 -154 -242 -286l-49 59l62 41q75 52 75 110t-65 93l-27 14q31 100 127 100zM754 1141v-846q0 -209 6 -295h-221q14 137 14 494v444q0 221 -4 336q-174 0 -486 -4q8 68 9 182q306 -10 586 -10t593 10q-12 -76 -16 -182q-315 4 -479 4
q-2 -45 -2 -133z" />
    <glyph glyph-name="tcommaaccent" unicode="&#x163;" horiz-adv-x="714" 
d="M436 -115q49 0 84 -37t35 -94q0 -154 -242 -286l-49 59l62 41q76 52 76 110t-66 93l-27 14q31 100 127 100zM205 250v536h-170l49 164h123l18 201l168 45v-246h252q-6 -68 -6 -164h-246v-524q0 -70 25 -96t91 -27q66 0 142 49l-8 -163q-66 -53 -186 -54q-252 0 -252 279z
" />
    <glyph glyph-name="tcommaaccent" unicode="&#x21b;" horiz-adv-x="714" 
d="M436 -115q49 0 84 -37t35 -94q0 -154 -242 -286l-49 59l62 41q76 52 76 110t-66 93l-27 14q31 100 127 100zM205 250v536h-170l49 164h123l18 201l168 45v-246h252q-6 -68 -6 -164h-246v-524q0 -70 25 -96t91 -27q66 0 142 49l-8 -163q-66 -53 -186 -54q-252 0 -252 279z
" />
    <glyph glyph-name="Tcaron" unicode="&#x164;" horiz-adv-x="1314" 
d="M770 1581h-235l-201 305l145 12l176 -192l170 182h158zM754 1141v-846q0 -209 6 -295h-221q14 137 14 494v444q0 221 -4 336q-174 0 -486 -4q8 68 9 182q306 -10 586 -10t593 10q-12 -76 -16 -182q-315 4 -479 4q-2 -45 -2 -133z" />
    <glyph glyph-name="tcaron" unicode="&#x165;" horiz-adv-x="714" 
d="M602 1133l-82 -19q16 201 17 340q35 6 155 23q-55 -238 -90 -344zM215 250v536h-170l49 164h123l19 201l167 45v-246h252q-6 -68 -6 -164h-246v-524q0 -70 25 -96q26 -26 92 -27q66 0 142 49l-9 -163q-66 -53 -186 -54q-252 0 -252 279z" />
    <glyph glyph-name="Umacron" unicode="&#x16a;" horiz-adv-x="1548" 
d="M842 1661h-156q-84 0 -223 -4q8 74 8 155q152 -6 306 -6t306 6q-10 -68 -10 -155q-164 4 -231 4zM1354 1147v-549q0 -174 -38 -280t-120 -189q-166 -166 -453 -166q-245 0 -397 143t-151 386v454q0 356 -15 494q139 0 223 10q-8 -80 -8 -303v-590q0 -416 387 -416
q174 1 272 101t99 272v432q0 362 -16 494q141 0 227 10q-10 -74 -10 -303z" />
    <glyph glyph-name="umacron" unicode="&#x16b;" horiz-adv-x="1116" 
d="M627 1190h-156q-84 0 -223 -4q8 74 8 155q150 -6 305 -6t307 6q-10 -68 -10 -155q-164 4 -231 4zM334 367q0 -238 180 -238q92 0 178 71t86 156v238q0 225 -14 348q111 0 213 10q-10 -88 -10 -219v-393q0 -209 14 -340h-174l-23 147q-53 -88 -143 -136t-164 -48
q-332 0 -332 367v264q0 217 -12 348q106 0 209 10q-8 -72 -8 -219v-366z" />
    <glyph glyph-name="Ubreve" unicode="&#x16c;" horiz-adv-x="1548" 
d="M776 1567q-144 0 -233 89q-88 89 -88 222l161 29q0 -97 42 -149t119 -52t115 51t38 131l157 10q5 -154 -81 -242t-230 -89zM1354 1147v-549q0 -174 -38 -280t-120 -189q-166 -166 -453 -166q-245 0 -397 143t-151 386v454q0 356 -15 494q139 0 223 10q-8 -80 -8 -303
v-590q0 -416 387 -416q174 1 272 101t99 272v432q0 362 -16 494q141 0 227 10q-10 -74 -10 -303z" />
    <glyph glyph-name="ubreve" unicode="&#x16d;" horiz-adv-x="1116" 
d="M560 1096q-144 0 -232 89t-88 222l161 29q0 -96 42 -148t119 -53q77 0 115 51t38 131l157 10q4 -155 -82 -243t-230 -88zM334 367q0 -238 180 -238q92 0 178 71t86 156v238q0 225 -14 348q111 0 213 10q-10 -88 -10 -219v-393q0 -209 14 -340h-174l-23 147
q-53 -88 -143 -136t-164 -48q-332 0 -332 367v264q0 217 -12 348q106 0 209 10q-8 -72 -8 -219v-366z" />
    <glyph glyph-name="Uring" unicode="&#x16e;" horiz-adv-x="1548" 
d="M885 1797q0 52 -29 85t-82 33t-83 -33q-29 -33 -29 -84t30 -86t82 -35q51 0 81 34t30 86zM1016 1803q0 -95 -69 -165t-177 -70t-174 64t-66 160t69 163t177 67t174 -62t66 -157zM1354 1147v-549q0 -174 -38 -280t-120 -189q-166 -166 -453 -166q-245 0 -397 143t-151 386
v454q0 356 -15 494q139 0 223 10q-8 -80 -8 -303v-590q0 -416 387 -416q174 1 272 101t99 272v432q0 362 -16 494q141 0 227 10q-10 -74 -10 -303z" />
    <glyph glyph-name="uring" unicode="&#x16f;" horiz-adv-x="1116" 
d="M670 1326q0 52 -29 85t-82 33t-83 -33t-30 -84t31 -86t82 -35t81 34t30 86zM801 1332q0 -95 -69 -165q-69 -69 -177 -69t-174 63t-66 159t69 164q69 66 177 66t174 -62t66 -156zM334 367q0 -238 180 -238q92 0 178 71t86 156v238q0 225 -14 348q111 0 213 10
q-10 -88 -10 -219v-393q0 -209 14 -340h-174l-23 147q-53 -88 -143 -136t-164 -48q-332 0 -332 367v264q0 217 -12 348q106 0 209 10q-8 -72 -8 -219v-366z" />
    <glyph glyph-name="Uhungarumlaut" unicode="&#x170;" horiz-adv-x="1548" 
d="M979 1880l248 23l-228 -324l-135 -6zM643 1876l238 18l-203 -319l-135 -6zM1354 1147v-549q0 -174 -38 -280t-120 -189q-166 -166 -453 -166q-245 0 -397 143t-151 386v454q0 356 -15 494q139 0 223 10q-8 -80 -8 -303v-590q0 -416 387 -416q174 1 272 101t99 272v432
q0 362 -16 494q141 0 227 10q-10 -74 -10 -303z" />
    <glyph glyph-name="uhungarumlaut" unicode="&#x171;" horiz-adv-x="1116" 
d="M764 1409l248 23l-228 -324l-135 -6zM428 1405l238 18l-203 -319l-135 -6zM334 367q0 -238 180 -238q92 0 178 71t86 156v238q0 225 -14 348q111 0 213 10q-10 -88 -10 -219v-393q0 -209 14 -340h-174l-23 147q-53 -88 -143 -136t-164 -48q-332 0 -332 367v264
q0 217 -12 348q106 0 209 10q-8 -72 -8 -219v-366z" />
    <glyph glyph-name="Uogonek" unicode="&#x172;" horiz-adv-x="1548" 
d="M754 -242q0 -86 102 -86q53 0 121 43l-10 -127q-62 -41 -155 -41q-94 1 -152 51t-58 134q0 121 160 231h-19q-245 0 -397 143t-151 386v454q0 356 -15 494q143 0 228 10q-8 -80 -9 -303v-588q0 -414 383 -414q174 1 272 99t97 270v432q0 362 -16 494q143 0 231 10
q-10 -74 -10 -303v-547q0 -176 -37 -282t-120 -188q-83 -83 -193 -128q-252 -104 -252 -244z" />
    <glyph glyph-name="uogonek" unicode="&#x173;" horiz-adv-x="1116" 
d="M334 367q0 -238 180 -238q92 0 178 71t86 156v238q0 225 -14 348q111 0 213 10q-10 -88 -10 -219v-393q0 -209 14 -340q-231 -129 -231 -242q0 -86 102 -86q53 0 121 43l-10 -127q-61 -41 -155 -41q-94 1 -152 51t-58 134q0 143 209 270l-23 145q-53 -88 -143 -136
t-164 -48q-332 0 -332 367v264q0 217 -12 348q106 0 209 10q-8 -72 -8 -219v-366z" />
    <glyph glyph-name="Wcircumflex" unicode="&#x174;" horiz-adv-x="2027" 
d="M920 1886h235l197 -311l-140 -12l-178 198l-168 -182h-164zM2015 1438l-397 -1049q-123 -330 -150 -412l-49 -14l-399 1063l-252 -647q-16 -43 -72 -183t-92 -233h-49l-383 1055q-96 268 -160 418l217 16l365 -1057l256 670l145 393l52 15l395 -1074l225 648
q78 236 127 391h221z" />
    <glyph glyph-name="wcircumflex" unicode="&#x175;" horiz-adv-x="1445" 
d="M623 1415h235l197 -311l-140 -12l-178 198l-168 -182h-163zM373 -23q-27 104 -113 347l-98 262q-96 258 -137 346l206 26l211 -649l93 266q78 221 122 371l138 12l231 -645l84 265q63 197 109 368q119 0 200 8l-336 -962l-120 -15q-49 170 -129 392l-109 290l-229 -667z
" />
    <glyph glyph-name="Ycircumflex" unicode="&#x176;" horiz-adv-x="1277" 
d="M539 1886h235l197 -311l-140 -12l-178 198l-168 -182h-163zM743 295q0 -209 7 -295h-222q14 137 15 494v129l-217 335q-142 232 -314 484l226 16l407 -657l123 190q18 29 279 453h233l-537 -811v-338z" />
    <glyph glyph-name="ycircumflex" unicode="&#x177;" horiz-adv-x="958" 
d="M387 1415h236l196 -311l-139 -12l-178 198l-168 -182h-164zM158 -434l235 536q-6 12 -38 96t-50 126l-119 262q-109 248 -161 346l211 26l253 -641l111 271q66 162 133 358q129 0 209 8l-459 -1083q-8 -23 -55 -137t-61 -160q-127 0 -209 -8z" />
    <glyph glyph-name="Ydieresis" unicode="&#x178;" horiz-adv-x="1277" 
d="M582 1741q0 -51 -35 -90t-87 -39t-85 36t-33 88t35 91t87 39t85 -37t33 -88zM832 1866q52 0 86 -37q32 -37 32 -88t-35 -90t-87 -39t-85 36t-33 88t35 91t87 39zM743 295q0 -209 7 -295h-222q14 137 15 494v129l-217 335q-142 232 -314 484l226 16l407 -657l123 190
q18 29 279 453h233l-537 -811v-338z" />
    <glyph glyph-name="Zacute" unicode="&#x179;" horiz-adv-x="1298" 
d="M780 1866l269 18l-330 -305l-129 -10zM654 2q-388 0 -564 -10l-41 39l881 1245q-88 2 -284 2t-505 -4q8 68 9 178q303 -10 574 -10t486 10l39 -37l-880 -1247l274 -2q356 0 561 6q-12 -74 -16 -180q-146 10 -534 10z" />
    <glyph glyph-name="zacute" unicode="&#x17a;" horiz-adv-x="940" 
d="M584 1395l268 18l-330 -305l-129 -10zM472 0q-183 0 -388 -10l-27 47l545 754q-182 0 -493 -5q8 106 8 168q197 -6 371 -6t376 6l27 -47l-547 -749q389 0 528 4q-14 -78 -16 -172q-201 10 -384 10z" />
    <glyph glyph-name="Zdotaccent" unicode="&#x17b;" horiz-adv-x="1298" 
d="M817 1741q0 -51 -35 -90t-87 -39t-85 36q-32 36 -32 88t34 91q35 39 87 39t85 -37t33 -88zM654 2q-388 0 -564 -10l-41 39l881 1245q-88 2 -284 2t-505 -4q8 68 9 178q303 -10 574 -10t486 10l39 -37l-880 -1247l274 -2q356 0 561 6q-12 -74 -16 -180q-146 10 -534 10z
" />
    <glyph glyph-name="zdotaccent" unicode="&#x17c;" horiz-adv-x="940" 
d="M621 1270q0 -51 -35 -90t-87 -39t-85 36t-33 88t35 91t87 39t85 -37t33 -88zM472 0q-183 0 -388 -10l-27 47l545 754q-182 0 -493 -5q8 106 8 168q197 -6 371 -6t376 6l27 -47l-547 -749q389 0 528 4q-14 -78 -16 -172q-201 10 -384 10z" />
    <glyph glyph-name="Zcaron" unicode="&#x17d;" horiz-adv-x="1298" 
d="M809 1581h-236l-200 305l145 12l176 -192l170 182h158zM654 2q-388 0 -564 -10l-41 39l881 1245q-88 2 -284 2t-505 -4q8 68 9 178q303 -10 574 -10t486 10l39 -37l-880 -1247l274 -2q356 0 561 6q-12 -74 -16 -180q-146 10 -534 10z" />
    <glyph glyph-name="zcaron" unicode="&#x17e;" horiz-adv-x="940" 
d="M612 1110h-235l-201 305l146 12l176 -192l170 182h157zM472 0q-183 0 -388 -10l-27 47l545 754q-182 0 -493 -5q8 106 8 168q197 -6 371 -6t376 6l27 -47l-547 -749q389 0 528 4q-14 -78 -16 -172q-201 10 -384 10z" />
    <glyph glyph-name="florin" unicode="&#x192;" horiz-adv-x="940" 
d="M717 1266q-90 0 -134 -56t-71 -209l-8 -51h289q-19 -75 -29 -157h-283l-71 -498q-16 -109 -35 -295h-207q47 256 86 494l45 299h-186l75 157h136l6 31q37 240 135 346t254 107q92 0 160 -33l-41 -160q-10 1 -51 13t-70 12z" />
    <glyph glyph-name="Aringacute" unicode="&#x1fa;" horiz-adv-x="1435" 
d="M823 1600q0 52 -28 86q-29 32 -82 32t-83 -32t-30 -84q0 -51 31 -86t82 -35t81 33q29 34 29 86zM786 2249l269 18l-330 -305l-129 -10zM705 1092l-230 -517h459zM469 1602q0 89 69 156t177 67q108 1 174 -61q65 -62 65 -149t-49 -151t-133 -84l449 -962
q123 -268 200 -418l-221 -16l-192 428h-607l-8 -21q-53 -125 -160 -391h-221l486 1049q88 190 145 329q-80 18 -127 76t-47 148z" />
    <glyph glyph-name="aringacute" unicode="&#x1fb;" horiz-adv-x="993" 
d="M608 1326q0 52 -28 85q-29 33 -82 33t-83 -33t-30 -84t31 -86t82 -35t81 34q29 34 29 86zM571 1974l269 19l-330 -305l-129 -11zM410 123q98 1 164 65t69 162l4 92q-57 4 -84 4q-161 0 -235 -51t-74 -135q0 -137 156 -137zM739 1332q-1 -95 -69 -165q-68 -69 -176 -69
t-175 63q-65 63 -65 159t69 164q69 66 177 66t174 -61q65 -62 65 -157zM72 259q0 136 129 222t368 86q27 0 80 -4l2 31q4 106 -44 158q-49 52 -171 53q-122 0 -243 -90l-43 164q160 92 336 92q176 -1 264 -99q90 -98 86 -266l-13 -405q-2 -82 60 -82q33 0 82 16l-19 -131
q-70 -29 -127 -29t-102 42t-53 118q-94 -164 -314 -164q-116 0 -197 76t-81 212z" />
    <glyph glyph-name="AEacute" unicode="&#x1fc;" horiz-adv-x="1818" 
d="M1225 1866l268 18l-330 -305l-129 -10zM918 958q0 160 -3 254l-389 -637h392v383zM1322 2q-267 0 -419 -10q10 96 15 416h-492l-8 -15q-74 -123 -221 -393h-228l641 1049q182 295 240 403q202 -10 432 -10t434 10q-12 -76 -16 -182q-242 4 -378 4t-196 -2q-4 -37 -4 -121
v-309l498 4q-6 -78 -6 -176l-492 4v-379q0 -86 4 -123l183 -2q240 0 448 6q-10 -82 -14 -184q-154 10 -421 10z" />
    <glyph glyph-name="aeacute" unicode="&#x1fd;" horiz-adv-x="1576" 
d="M872 1395l269 18l-330 -305l-129 -10zM1100 813q-96 1 -169 -73t-93 -183l491 14q-31 242 -229 242zM254 264q0 -61 39 -101t128 -40t157 80t73 194l2 43l-110 2q-289 0 -289 -178zM457 805q-143 0 -264 -90l-43 164q160 92 329 92q227 0 299 -172q117 172 322 172
t305 -130t100 -335l-123 -74l-548 -16q23 -287 288 -287q168 0 338 139l-8 -192q-170 -113 -348 -113q-274 0 -373 215q-119 -207 -350 -207q-137 0 -223 78t-86 212t123 218t354 84l108 -2l2 31q10 213 -202 213z" />
    <glyph glyph-name="Oslashacute" unicode="&#x1fe;" horiz-adv-x="1658" 
d="M913 1886l269 19l-330 -306l-129 -10zM827 137q223 0 367 169q143 168 143 396t-102 383l-719 -843q129 -105 311 -105zM322 728q0 -234 102 -384l719 846q-133 111 -312 110q-223 0 -366 -170q-143 -168 -143 -402zM1548 756q0 -336 -208 -564t-531 -229
q-242 0 -418 135l-137 -161l-131 67q102 106 170 184q-182 201 -182 494q0 336 207 564q208 228 532 229q236 0 418 -136q102 117 141 172q76 -48 129 -75q-66 -72 -168 -193q178 -205 178 -487z" />
    <glyph glyph-name="oslashacute" unicode="&#x1ff;" horiz-adv-x="1101" 
d="M633 1395l268 18l-330 -305l-129 -10zM562 129q116 1 195 97t79 223t-41 204l-416 -473q67 -51 183 -51zM555 805q-129 1 -209 -95t-80 -227t39 -209l416 474q-74 57 -166 57zM82 442q0 225 133 377t348 152q158 0 277 -92l108 125q41 -41 96 -78l-120 -131
q96 -131 96 -303q0 -225 -134 -377t-349 -152q-156 0 -273 88l-110 -121l-99 72l125 133q-98 129 -98 307z" />
    <glyph glyph-name="Scommaaccent" unicode="&#x218;" horiz-adv-x="1081" 
d="M979 403q0 -190 -130 -315t-347 -125q-98 0 -210 34t-194 87l13 213q67 -61 181 -107t228 -47q114 1 187 61q72 60 71 173q0 78 -64 141q-65 64 -156 114t-182 103t-156 136t-64 188q0 176 128 296t321 120t337 -107l-65 -176q-53 43 -131 73t-146 29q-108 0 -176 -58
t-68 -142t65 -141q65 -58 156 -105q91 -48 182 -102t155 -142t65 -201zM496 -322q0 58 -66 93l-27 14q31 100 127 100q49 0 84 -37t35 -94q0 -154 -241 -286l-50 59l62 41q76 52 76 110z" />
    <glyph glyph-name="scommaaccent" unicode="&#x219;" horiz-adv-x="849" 
d="M375 -322q0 58 -66 93l-26 14q31 100 127 100q49 0 84 -37t34 -94q0 -154 -241 -286l-49 59l61 41q76 52 76 110zM461 971q160 0 284 -78l-63 -164q-102 76 -231 76q-160 0 -160 -115q0 -70 172 -127q73 -25 143 -57t120 -89q50 -58 50 -141q0 -141 -108 -227t-262 -86
q-80 0 -174 24t-150 60l10 195q62 -49 150 -81t169 -32t131 31t50 84q0 91 -171 149q-71 25 -141 56t-121 90q-50 59 -50 143q0 121 96 205t256 84z" />
    <glyph glyph-name="schwa" unicode="&#x259;" horiz-adv-x="1024" 
d="M478 121q108 1 180 71t92 185l-502 -15q16 -121 69 -181t161 -60zM459 805q-172 0 -342 -139l8 192q170 113 352 113q225 0 345 -137t120 -352t-132 -367t-338 -152t-303 129t-97 336l123 74l559 16q-23 287 -295 287z" />
    <glyph glyph-name="circumflex" unicode="&#x2c6;" horiz-adv-x="841" 
d="M313 1415h236l196 -311l-139 -12l-178 198l-168 -182h-164z" />
    <glyph glyph-name="caron" unicode="&#x2c7;" horiz-adv-x="841" 
d="M532 1110h-235l-201 305l146 12l176 -192l170 182h157z" />
    <glyph glyph-name="breve" unicode="&#x2d8;" horiz-adv-x="788" 
d="M398 1096q-144 0 -232 89t-88 222l162 29q0 -96 42 -148t118 -53q76 0 115 51q38 51 38 131l158 10q4 -155 -82 -243q-87 -88 -231 -88z" />
    <glyph glyph-name="dotaccent" unicode="&#x2d9;" horiz-adv-x="468" 
d="M237 1395q53 0 85 -37t32 -88t-35 -90t-87 -39t-85 36t-33 88t36 91q35 39 87 39z" />
    <glyph glyph-name="ring" unicode="&#x2da;" horiz-adv-x="632" 
d="M428 1326q0 52 -29 85t-82 33t-83 -33t-30 -84t32 -86t82 -35t80 34t30 86zM559 1332q0 -95 -69 -165q-69 -69 -177 -69t-174 63q-65 63 -65 159t68 164q70 66 178 66t174 -61q65 -62 65 -157z" />
    <glyph glyph-name="ogonek" unicode="&#x2db;" horiz-adv-x="614" 
d="M238 -242q0 -86 102 -86q53 0 121 43l-10 -127q-61 -41 -155 -41q-94 1 -152 51t-58 134q0 184 365 366l18 -67q-231 -160 -231 -273z" />
    <glyph glyph-name="tilde" unicode="&#x2dc;" horiz-adv-x="839" 
d="M565 1104q-66 0 -166 75t-130 75t-45 -32q-15 -30 -27 -116l-144 20q46 292 210 290q75 0 174 -76q99 -75 130 -74q53 0 78 157l141 -20q-45 -299 -221 -299z" />
    <glyph glyph-name="hungarumlaut" unicode="&#x2dd;" horiz-adv-x="880" 
d="M573 1409l248 23l-227 -324l-135 -6zM238 1405l237 18l-203 -319l-135 -6z" />
    <glyph glyph-name="commaaccent" unicode="&#x326;" horiz-adv-x="477" 
d="M246 -322q0 58 -66 93l-26 14q31 100 127 100q49 0 84 -37t34 -94q0 -154 -241 -286l-49 59l61 41q76 52 76 110z" />
    <glyph glyph-name="baht" unicode="&#xe3f;" horiz-adv-x="1282" 
d="M591 811q130 0 217 60q87 61 87 163t-81 154t-232 53q-43 0 -166 -6q-2 -29 -2 -111v-200q0 -84 2 -111q45 -2 175 -2zM648 172q130 0 222 61q90 61 90 177t-96 182q-96 68 -282 67q-104 0 -168 -10v-362q0 -64 2 -105q102 -10 232 -10zM1096 1060q0 -108 -60 -188
q-60 -78 -159 -116q287 -94 286 -346q0 -174 -139 -293t-389 -119h-275l-143 -277q-76 47 -147 70q90 174 135 252q10 195 10 440v441q0 350 -14 481l397 12q168 0 295 -61l154 297q115 -70 141 -80l-170 -313q78 -92 78 -200z" />
    <glyph glyph-name="Wgrave" unicode="&#x1e80;" horiz-adv-x="2027" 
d="M698 1866l232 18l186 -305l-121 -10zM2015 1438l-397 -1049q-123 -330 -150 -412l-49 -14l-399 1063l-252 -647q-16 -43 -72 -183t-92 -233h-49l-383 1055q-96 268 -160 418l217 16l365 -1057l256 670l145 393l52 15l395 -1074l225 648q78 236 127 391h221z" />
    <glyph glyph-name="wgrave" unicode="&#x1e81;" horiz-adv-x="1445" 
d="M401 1395l232 18l186 -305l-121 -10zM373 -23q-27 104 -113 347l-98 262q-96 258 -137 346l206 26l211 -649l93 266q78 221 122 371l138 12l231 -645l84 265q63 197 109 368q119 0 200 8l-336 -962l-120 -15q-49 170 -129 392l-109 290l-229 -667z" />
    <glyph glyph-name="Wacute" unicode="&#x1e82;" horiz-adv-x="2027" 
d="M1110 1866l268 18l-329 -305l-129 -10zM2015 1438l-397 -1049q-123 -330 -150 -412l-49 -14l-399 1063l-252 -647q-16 -43 -72 -183t-92 -233h-49l-383 1055q-96 268 -160 418l217 16l365 -1057l256 670l145 393l52 15l395 -1074l225 648q78 236 127 391h221z" />
    <glyph glyph-name="wacute" unicode="&#x1e83;" horiz-adv-x="1445" 
d="M813 1395l268 18l-329 -305l-129 -10zM373 -23q-27 104 -113 347l-98 262q-96 258 -137 346l206 26l211 -649l93 266q78 221 122 371l138 12l231 -645l84 265q63 197 109 368q119 0 200 8l-336 -962l-120 -15q-49 170 -129 392l-109 290l-229 -667z" />
    <glyph glyph-name="Wdieresis" unicode="&#x1e84;" horiz-adv-x="2027" 
d="M1331 1741q0 -51 -35 -90t-87 -39t-85 36q-32 36 -32 88t34 91q35 39 87 39t85 -37t33 -88zM963 1741q0 -51 -35 -90t-87 -39t-85 36t-33 88t35 91t87 39t85 -37t33 -88zM2015 1438l-397 -1049q-123 -330 -150 -412l-49 -14l-399 1063l-252 -647q-16 -43 -72 -183
t-92 -233h-49l-383 1055q-96 268 -160 418l217 16l365 -1057l256 670l145 393l52 15l395 -1074l225 648q78 236 127 391h221z" />
    <glyph glyph-name="wdieresis" unicode="&#x1e85;" horiz-adv-x="1445" 
d="M916 1395q52 0 86 -37q32 -37 32 -88t-35 -90t-87 -39t-85 36t-33 88t35 91t87 39zM666 1270q0 -51 -35 -90t-87 -39t-85 36t-33 88t35 91t87 39t85 -37t33 -88zM373 -23q-27 104 -113 347l-98 262q-96 258 -137 346l206 26l211 -649l93 266q78 221 122 371l138 12
l231 -645l84 265q63 197 109 368q119 0 200 8l-336 -962l-120 -15q-49 170 -129 392l-109 290l-229 -667z" />
    <glyph glyph-name="Ygrave" unicode="&#x1ef2;" horiz-adv-x="1277" 
d="M317 1866l232 18l186 -305l-121 -10zM743 295q0 -209 7 -295h-222q14 137 15 494v129l-217 335q-142 232 -314 484l226 16l407 -657l123 190q18 29 279 453h233l-537 -811v-338z" />
    <glyph glyph-name="ygrave" unicode="&#x1ef3;" horiz-adv-x="958" 
d="M166 1395l231 18l187 -305l-121 -10zM158 -434l235 536q-6 12 -38 96t-50 126l-119 262q-109 248 -161 346l211 26l253 -641l111 271q66 162 133 358q129 0 209 8l-459 -1083q-8 -23 -55 -137t-61 -160q-127 0 -209 -8z" />
    <glyph glyph-name="enspace" unicode="&#x2002;" horiz-adv-x="1024" 
 />
    <glyph glyph-name="emspace" unicode="&#x2003;" horiz-adv-x="2048" 
 />
    <glyph glyph-name="threeperemspace" unicode="&#x2004;" horiz-adv-x="681" 
 />
    <glyph glyph-name="fourperemspace" unicode="&#x2005;" horiz-adv-x="512" 
 />
    <glyph glyph-name="figurespace" unicode="&#x2007;" horiz-adv-x="1146" 
 />
    <glyph glyph-name="thinspace" unicode="&#x2009;" horiz-adv-x="272" 
 />
    <glyph glyph-name="hairspace" unicode="&#x200a;" horiz-adv-x="153" 
 />
    <glyph glyph-name="endash" unicode="&#x2013;" horiz-adv-x="1136" 
d="M477 494q-111 0 -344 -5q6 59 6 156q209 -6 433 -6t432 6q-10 -68 -11 -156q-238 4 -340 5h-176z" />
    <glyph glyph-name="emdash" unicode="&#x2014;" horiz-adv-x="2068" 
d="M545 494q-178 0 -412 -5q6 59 6 156q209 -6 898 -6t898 6q-10 -68 -10 -156q-238 4 -407 5h-973z" />
    <glyph glyph-name="quoteleft" unicode="&#x2018;" horiz-adv-x="460" 
d="M219 1148q0 -75 109 -130l32 -17q-45 -133 -153 -133q-66 0 -113 54t-47 141q0 223 309 430l60 -96q-102 -61 -150 -117t-47 -132z" />
    <glyph glyph-name="quoteright" unicode="&#x2019;" horiz-adv-x="460" 
d="M242 1195q0 75 -109 130l-33 16q45 133 154 134q66 1 113 -53t47 -142q-1 -223 -310 -430l-59 96q101 62 149 118t48 131z" />
    <glyph glyph-name="quotesinglbase" unicode="&#x201a;" horiz-adv-x="460" 
d="M240 -47q0 76 -109 129l-33 16q45 133 154 133q66 0 113 -53t47 -141q-1 -223 -310 -430l-59 96q101 61 149 117t48 133z" />
    <glyph glyph-name="quotedblleft" unicode="&#x201c;" horiz-adv-x="890" 
d="M219 1148q0 -75 109 -130l32 -17q-45 -133 -153 -133q-66 0 -113 54t-47 141q0 223 309 430l60 -96q-102 -61 -150 -117t-47 -132zM649 1148q0 -75 109 -130l33 -17q-45 -133 -154 -133q-66 0 -113 54t-47 141q0 223 309 430l60 -96q-102 -61 -150 -117t-47 -132z" />
    <glyph glyph-name="quotedblright" unicode="&#x201d;" horiz-adv-x="890" 
d="M672 1195q0 75 -109 130l-33 16q45 133 154 134q66 1 113 -53t47 -142q0 -223 -309 -430l-60 96q101 62 149 118t48 131zM242 1195q0 75 -109 130l-33 16q45 133 154 134q66 1 113 -53t47 -142q-1 -223 -310 -430l-59 96q101 62 149 118t48 131z" />
    <glyph glyph-name="quotedblbase" unicode="&#x201e;" horiz-adv-x="890" 
d="M670 -47q0 76 -109 129l-33 16q45 133 154 133q66 0 113 -53t47 -141q-1 -223 -310 -430l-59 96q101 61 149 117t48 133zM240 -47q0 76 -109 129l-33 16q45 133 154 133q66 0 113 -53t47 -141q-1 -223 -310 -430l-59 96q101 61 149 117t48 133z" />
    <glyph glyph-name="dagger" unicode="&#x2020;" horiz-adv-x="1060" 
d="M457 1073q0 254 -19 416q72 0 189 10q-8 -80 -17 -301l-4 -125q63 0 101 2l196 12q53 3 94 11l-6 -172q-47 6 -131 8l-129 6q-41 2 -129 2l4 -686q0 -213 8 -297h-176q8 111 13 494l6 489q-84 0 -156 -2l-98 -4q-45 -2 -140 -10l7 172q47 -8 90 -11l198 -12q37 -2 99 -2z
" />
    <glyph glyph-name="daggerdbl" unicode="&#x2021;" horiz-adv-x="1060" 
d="M606 256q0 -213 8 -297h-176q8 129 13 397l-187 -4q-135 -4 -201 -12l7 166q59 -8 131 -10l250 -13l6 463l-193 -4q-135 -4 -201 -12l7 166q59 -8 131 -11l254 -12v107q-6 203 -17 309q72 0 189 10q-9 -80 -17 -301l-6 -125l258 10q78 2 135 13l-6 -168q-70 10 -172 12
l-217 6l2 -463l258 11q78 2 135 12l-6 -168q-70 10 -172 12l-213 6v-100z" />
    <glyph glyph-name="bullet" unicode="&#x2022;" horiz-adv-x="913" 
d="M750 721q0 -125 -83 -211t-207 -86t-210 89t-86 214t83 211t208 86t210 -89t85 -214z" />
    <glyph glyph-name="ellipsis" unicode="&#x2026;" horiz-adv-x="1490" 
d="M1378 97q0 -54 -37 -94t-91 -40t-88 38t-34 91t36 93t90 40t89 -37t35 -91zM746 225q54 0 90 -37q34 -37 34 -91t-36 -94t-92 -40q-54 0 -88 38t-34 91t36 93t90 40zM238 225q54 0 90 -37q34 -37 34 -91t-36 -94t-92 -40q-54 0 -88 38t-34 91t36 93t90 40z" />
    <glyph glyph-name="guilsinglleft" unicode="&#x2039;" horiz-adv-x="757" 
d="M496 932q78 2 170 18q-168 -260 -330 -477q102 -164 307 -459l-108 -49q-272 283 -433 479l7 31q199 226 387 457z" />
    <glyph glyph-name="guilsinglright" unicode="&#x203a;" horiz-adv-x="757" 
d="M262 -16q-78 -2 -170 -19q168 260 330 477q-102 164 -307 459l108 49q272 -283 432 -479l-6 -31q-199 -225 -387 -456z" />
    <glyph glyph-name="fraction" unicode="&#x2044;" horiz-adv-x="380" 
d="M-217 -31l-121 51q104 145 229 332l496 764q188 287 211 328l62 -31q42 -20 59 -29q-33 -45 -162 -237l-639 -975q-20 -35 -135 -203z" />
    <glyph glyph-name="zero.sup" unicode="&#x2070;" 
d="M381 1001q80 0 127 82q47 81 47 221t-46 217t-126 77t-126 -82t-46 -220t45 -216t125 -79zM387 1729q154 0 235 -116q80 -117 80 -309t-86 -312t-240 -120t-235 115q-80 115 -80 307t86 314q86 121 240 121z" />
    <glyph glyph-name="four.sup" unicode="&#x2074;" 
d="M467 1559l-277 -349h275zM461 1069v27h-70q-252 0 -334 -4l-22 110l340 426q31 37 57 69q26 33 37 44l133 -10q-4 -35 -4 -140v-374q98 0 127 2q-10 -78 -10 -127q-29 2 -117 2v-66q0 -106 4 -135h-147q6 37 6 176z" />
    <glyph glyph-name="five.sup" unicode="&#x2075;" 
d="M406 1704q24 0 245 4q-16 -139 -16 -145q-76 2 -221 2h-133l-9 -179h47q170 0 263 -67q92 -69 92 -185t-90 -188t-232 -72t-246 33l-16 140q132 -37 230 -37t149 36t51 89q0 129 -258 129q-57 0 -119 -7l-16 11l12 280v144l19 16q224 -4 248 -4z" />
    <glyph glyph-name="six.sup" unicode="&#x2076;" 
d="M553 1154q0 71 -44 111t-117 40t-120 -42t-47 -111t46 -113t119 -44t118 44t45 115zM425 1417q120 0 199 -74q78 -73 78 -189t-89 -199t-232 -83t-225 90t-82 248q0 212 134 352t390 171l29 -131q-326 -41 -402 -261q80 76 200 76z" />
    <glyph glyph-name="seven.sup" unicode="&#x2077;" 
d="M381 1704q86 0 291 4l26 -80q-8 -14 -36 -69t-39 -76l-244 -443q-57 -100 -78 -159l-164 20q6 10 115 201l256 463h-180q-172 0 -256 -2q10 82 10 145q213 -4 299 -4z" />
    <glyph glyph-name="eight.sup" unicode="&#x2078;" 
d="M242 1505q0 -88 157 -135q137 37 138 131q0 49 -40 80t-108 31q-67 0 -107 -31t-40 -76zM547 1111q0 54 -44 86t-124 58q-162 -47 -162 -147q0 -53 48 -86t123 -33t117 34t42 88zM380 872q-140 0 -225 64t-85 162q0 152 188 213q-160 63 -160 190q0 98 84 163t210 65
q126 -1 206 -63t82 -155q2 -127 -164 -194q180 -74 180 -207q0 -106 -88 -172t-228 -66z" />
    <glyph glyph-name="nine.sup" unicode="&#x2079;" 
d="M213 1451q0 -71 44 -111t117 -40t120 42t47 111t-46 113t-119 44t-118 -44t-45 -115zM340 1188q-119 0 -198 74t-79 190q-1 116 89 198q90 83 233 83t225 -89t82 -249q0 -211 -134 -351t-390 -172l-29 132q324 41 400 260q-80 -76 -199 -76z" />
    <glyph glyph-name="zero.inf" unicode="&#x2080;" 
d="M381 -309q80 0 127 82q47 81 47 221t-46 216t-126 77q-80 0 -126 -82t-46 -220t45 -216t125 -78zM387 418q154 0 235 -116q80 -116 80 -308t-86 -312t-240 -120t-235 114q-80 114 -80 308q0 192 86 313t240 121z" />
    <glyph glyph-name="one.inf" unicode="&#x2081;" horiz-adv-x="573" 
d="M408 262v-545q0 -109 4 -135h-162q8 59 8 228v430l-180 -52l-29 129q63 16 138 40t94 30l94 29l37 -13q-4 -33 -4 -141z" />
    <glyph glyph-name="two.inf" unicode="&#x2082;" 
d="M662 198q0 -94 -46 -164q-87 -135 -317 -319q59 0 385 6l-8 -143q-184 4 -290 4t-290 -4l-16 111q250 211 303 264q125 125 125 209q0 53 -36 83t-99 29q-107 0 -211 -90l-56 125q126 107 264 107t215 -62t77 -156z" />
    <glyph glyph-name="three.inf" unicode="&#x2083;" 
d="M315 -301q94 0 151 29q56 29 56 75q0 123 -286 129l-17 99q291 53 291 162q0 37 -41 61t-115 25q-123 0 -219 -60l-41 123q138 72 274 72t216 -56t80 -139q0 -143 -224 -213q240 -45 240 -201q0 -109 -96 -175t-234 -67q-138 0 -237 31l-21 140q129 -35 223 -35z" />
    <glyph glyph-name="four.inf" unicode="&#x2084;" 
d="M467 248l-277 -348q199 0 275 2zM461 -242v27h-70q-252 0 -334 -4l-22 110l340 426q31 37 57 69q26 33 37 44l133 -10q-4 -35 -4 -139v-375q29 0 72 1t55 1q-10 -78 -10 -127q-32 4 -117 4v-68q0 -106 4 -135h-147q6 37 6 176z" />
    <glyph glyph-name="five.inf" unicode="&#x2085;" 
d="M406 393q24 0 245 4q-16 -139 -16 -145q-76 2 -221 2h-133l-9 -178h47q171 0 263 -68t92 -184t-90 -189q-90 -71 -232 -71t-246 33l-16 139q132 -37 230 -37t149 36t51 89q0 129 -258 129q-57 0 -119 -6l-16 10l6 133l6 148v143l19 16q224 -4 248 -4z" />
    <glyph glyph-name="six.inf" unicode="&#x2086;" 
d="M225 -159q0 -69 46 -113t119 -43q73 -1 118 43t45 115t-44 111t-117 40t-120 -42t-47 -111zM381 -438q-143 0 -225 89t-82 249q0 211 134 351t390 171l29 -131q-326 -41 -402 -260q80 75 200 75t199 -74q78 -74 78 -189q0 -117 -89 -199t-232 -82z" />
    <glyph glyph-name="seven.inf" unicode="&#x2087;" 
d="M381 393q86 0 291 4l26 -80q-12 -21 -40 -76t-35 -69l-244 -442q-57 -100 -78 -160l-164 20q6 10 115 201l256 463h-180q-172 0 -256 -2q10 82 10 145q213 -4 299 -4z" />
    <glyph glyph-name="eight.inf" unicode="&#x2088;" 
d="M242 195q0 -88 157 -136q137 37 138 131q0 49 -40 80t-108 31q-67 -1 -107 -31t-40 -75zM547 -199q0 55 -45 87t-123 57q-162 -47 -162 -148q0 -53 48 -86t123 -33t117 34t42 89zM696 -201q0 -105 -88 -171t-228 -66t-225 63t-85 162q0 152 188 213q-160 63 -160 190
q0 98 84 163t210 65t206 -62t82 -155q2 -127 -164 -195q180 -74 180 -207z" />
    <glyph glyph-name="nine.inf" unicode="&#x2089;" 
d="M213 140q0 -70 44 -110t117 -40t120 42t47 110t-46 113q-46 44 -119 44t-118 -44t-45 -115zM340 -123q-119 0 -198 74q-79 73 -79 189q-1 116 89 199t233 83t225 -89t82 -249q0 -211 -134 -351t-390 -171l-29 131q324 41 400 260q-80 -76 -199 -76z" />
    <glyph glyph-name="colonmonetary" unicode="&#x20a1;" horiz-adv-x="1529" 
d="M317 672q0 -215 121 -359q8 23 49 117l310 731q8 19 22 55t21 48q-229 0 -376 -165t-147 -427zM563 207q90 -53 199 -66l84 189l307 729q6 14 18 43t19 43q-86 59 -191 94q-184 -434 -215 -508zM852 1438l57 -2q49 127 107 254q125 -66 151 -76q-43 -90 -94 -211
q104 -33 191 -86q18 43 110 268l148 -74q-66 -159 -198 -459t-183 -419l-203 -483q170 35 352 202l-16 -221q-188 -152 -414 -166q-31 -72 -117 -282q-74 51 -145 77l94 213q-113 18 -200 64l-107 -254q-66 45 -147 82q57 133 116 262q-116 97 -180 239t-63 300
q0 328 211 550t530 222z" />
    <glyph glyph-name="naira" unicode="&#x20a6;" horiz-adv-x="1794" 
d="M1286 807h-373l373 -434v434zM504 582h375l-375 432v-432zM504 432v-145q0 -215 8 -289h-223q12 111 22 430q-33 0 -101 -2t-99 -2q10 49 10 162q78 -4 194 -4l4 225q-143 -4 -208 -4q10 45 10 158q37 -2 203 -3v7q4 319 -11 465l52 14l421 -490h500q-6 356 -18 451
q141 0 227 10q-12 -102 -16 -295l-4 -162q49 0 119 2t87 1q-14 -55 -14 -158q-68 0 -194 4l-5 -223q166 0 213 2q-14 -59 -14 -162l-201 6l-2 -156q-7 -191 4 -297l-53 -12l-405 467h-506z" />
    <glyph glyph-name="rupee" unicode="&#x20a8;" horiz-adv-x="2095" 
d="M414 719h207q129 0 205 77t77 187q0 258 -313 258l-176 -2v-520zM1661 971q160 0 285 -78l-64 -164q-102 76 -231 76q-160 0 -160 -115q0 -69 171 -127q70 -25 142 -57t122 -89q50 -58 50 -141q0 -141 -108 -227t-262 -86q-80 0 -174 24t-150 60l10 195q62 -49 150 -81
t169 -32t131 31t50 84q0 91 -171 149q-71 25 -141 56t-121 90q-50 59 -50 143q0 121 96 205t256 84zM414 551v-264q0 -205 6 -289h-219q12 115 12 483v443q0 367 -12 481q2 0 370 8q253 6 397 -113t140 -292q-8 -283 -293 -410l203 -301q158 -222 209 -285l-234 -26
l-362 565h-217z" />
    <glyph glyph-name="won" unicode="&#x20a9;" horiz-adv-x="2312" 
d="M1415 811l160 -434l149 434h-309zM911 809h-317l151 -434zM1161 1012l-168 -430h330zM2177 430l-412 2l-20 -53q-109 -287 -148 -402l-41 -14l-176 469h-446l-23 -61q-16 -43 -72 -181t-89 -227h-41l-172 469q-131 -2 -414 -2q6 55 6 158q82 -4 352 -4l-80 225
q-51 0 -142 -1t-136 -1q6 55 6 160q98 -4 217 -4l-12 32q-119 319 -156 408l205 16l158 -458h428l30 79q14 45 142 385l43 15l176 -479h418l20 61q33 94 125 383h209l-168 -442q114 0 225 4q-12 -82 -12 -160l-270 4l-86 -229q135 0 368 6q-12 -82 -12 -158z" />
    <glyph glyph-name="sheqel" unicode="&#x20aa;" horiz-adv-x="1419" 
d="M778 735q0 131 -133 131h-315v-635q0 -178 4 -231h-180q16 141 16 369v684h471q135 -1 210 -61t81 -167q2 -29 2 -53l2 -137q4 -137 10 -203l-168 -10v313zM1251 0h-405q-131 0 -192 58q-60 59 -97 192q-113 403 -115 409l142 -12l100 -325q39 -135 166 -136h244l-2 539
q0 248 -7 328h181q-14 -102 -15 -459v-594z" />
    <glyph glyph-name="Euro" unicode="&#x20ac;" horiz-adv-x="1343" 
d="M891 1378q223 0 373 -114l-52 -166q-63 51 -155 83t-178 31q-141 0 -255 -78t-171 -216h198q272 0 457 6q-16 -90 -18 -160q-129 2 -439 2h-237q-6 -43 -6 -97t8 -98h235q256 0 420 9q-18 -141 -18 -162q-127 2 -402 2h-194q59 -139 176 -215t256 -76q225 0 389 158
l-12 -207q-174 -117 -394 -117t-385 125q-164 125 -227 332q-164 0 -235 -2q6 61 6 162q61 -4 200 -9q-2 23 -2 68t9 127l-203 -2q8 82 8 160q197 -6 229 -6q70 212 233 336t386 124z" />
    <glyph glyph-name="peso" unicode="&#x20b1;" horiz-adv-x="1478" 
d="M604 584q154 0 252 68t123 192h-485v-254q51 -6 110 -6zM494 991h489q-37 258 -340 258q-63 0 -149 -6v-252zM494 293q0 -207 6 -293h-226q16 152 17 479v361q-123 -4 -213 -4q6 57 6 163q131 -4 205 -4q-4 311 -15 412l402 10q233 0 367 -120t151 -302q74 0 205 4
q-12 -74 -13 -163l-200 2q-31 -190 -176 -306t-408 -116q-74 0 -108 4v-127z" />
    <glyph glyph-name="numero" unicode="&#x2116;" horiz-adv-x="2433" 
d="M1936 268q-257 0 -382 -2q6 35 7 162q225 -6 385 -6t381 6q-8 -82 -9 -162q-125 2 -382 2zM2140 986q0 106 -54 172t-139 65q-85 0 -141 -68q-56 -67 -57 -175q0 -108 53 -174q52 -66 140 -65q88 0 143 69q55 70 55 176zM2322 992q0 -166 -108 -284t-277 -118
q-168 0 -270 110t-102 275q-1 165 109 283t278 118t269 -108t101 -276zM1143 879q0 338 -17 458q119 0 228 11q-8 -51 -15 -281l-14 -803q-7 -176 4 -282l-51 -13l-879 971v-664q0 -203 9 -274h-226q16 127 23 459l8 457q6 315 -6 440l51 14l885 -989v496z" />
    <glyph glyph-name="published" unicode="&#x2117;" horiz-adv-x="1777" 
d="M1212 862q0 -110 -83 -186q-83 -78 -248 -80q-31 0 -47 2v-96q0 -125 4 -154h-164q6 51 6 258v238q0 209 -6 260l223 6q147 0 231 -69t84 -179zM879 719q82 0 129 35t47 100q0 133 -156 133q-8 0 -65 -4v-262q16 -2 45 -2zM1530 719q0 269 -186 459t-455 190t-455 -190
t-186 -458t186 -460q186 -190 454 -190t456 190q186 190 186 459zM1645 719q1 -313 -221 -535t-535 -221q-313 0 -535 221q-221 220 -221 534t221 535q220 221 534 221t536 -220q222 -222 221 -535z" />
    <glyph glyph-name="servicemark" unicode="&#x2120;" horiz-adv-x="1646" 
d="M268 1255q0 -61 152 -126q56 -23 105 -75q48 -52 48 -138t-68 -149q-69 -62 -185 -62t-214 57l7 137q90 -74 215 -74q49 0 79 25q29 25 29 67q0 43 -48 77t-105 59t-106 74q-48 50 -48 132q0 81 67 141q68 60 174 60t183 -51l-35 -115q-66 45 -130 45q-120 0 -120 -84z
M1542 723l-158 -8q0 51 -10 137l-26 276q-199 -367 -222 -415l-43 -8l-213 413l-34 -270q-12 -98 -13 -125h-147q12 68 41 246l37 225q18 106 37 258l45 6q41 -82 71 -137l203 -375l199 375q12 21 41 77t30 60h43l39 -264l37 -225q7 -29 21 -117t22 -129z" />
    <glyph glyph-name="trademark" unicode="&#x2122;" horiz-adv-x="1738" 
d="M479 1249v-379q0 -104 6 -147h-170q8 63 9 246v180q0 111 -2 166q-152 0 -234 -2q4 53 4 135q98 -4 314 -4t313 4q0 -2 -8 -135q-84 2 -230 2q-2 -20 -2 -66zM1634 723l-157 -8q0 51 -11 137l-26 276q-199 -367 -221 -415l-43 -8l-213 413l-35 -270q-12 -98 -13 -125
h-147q12 68 41 246l37 225q18 106 37 258l45 6q41 -82 71 -137l203 -375l199 375q21 35 72 137h43l38 -264l37 -225q7 -29 21 -117t22 -129z" />
    <glyph glyph-name="onethird" unicode="&#x2153;" horiz-adv-x="1720" 
d="M1239 117q94 0 151 28q56 29 56 76q0 123 -287 129l-16 99q291 53 291 161q0 37 -41 62t-115 24q-123 0 -219 -59l-41 123q137 72 273 72t216 -56q80 -55 80 -139q0 -143 -223 -213q240 -45 240 -201q0 -109 -96 -175t-234 -67q-138 0 -238 31l-20 140q129 -35 223 -35z
M348 -31l-121 51q104 145 230 332l495 764q188 287 211 328l63 -30t58 -30q-33 -45 -162 -237l-639 -975q-20 -35 -135 -203zM465 1278v-545q0 -109 4 -135h-162q8 59 8 227v430l-180 -51l-29 129q39 9 83 23t87 27t62 20l94 29l37 -13q-4 -33 -4 -141z" />
    <glyph glyph-name="twothirds" unicode="&#x2154;" horiz-adv-x="1912" 
d="M592 -31l-121 51q104 145 229 332l496 764q188 287 211 328l62 -31q42 -20 59 -29q-33 -45 -162 -237l-639 -975q-20 -35 -135 -203zM729 1214q0 -94 -45 -164q-86 -134 -317 -319q59 0 385 6l-9 -143q-183 4 -289 4t-290 -4l-17 111q250 211 304 264q125 125 124 209
q0 53 -35 83q-36 30 -100 29q-107 0 -211 -90l-55 125q126 107 264 107t214 -62t77 -156zM1432 117q94 1 150 29t56 75q0 123 -286 129l-17 99q291 53 291 161q0 37 -41 62t-115 24q-123 0 -219 -59l-41 123q138 72 274 72t216 -56q80 -55 80 -139q0 -143 -224 -213
q240 -45 240 -201q0 -109 -96 -175t-234 -67q-138 0 -237 31l-21 140q130 -35 224 -35z" />
    <glyph glyph-name="onefifth" unicode="&#x2155;" horiz-adv-x="1720" 
d="M465 1278v-545q0 -109 4 -135h-162q8 59 8 227v430l-180 -51l-29 129q39 9 83 23t87 27t62 20l94 29l37 -13q-4 -33 -4 -141zM371 -31l-121 51q104 145 229 332l496 764q188 287 211 328l62 -31q42 -20 59 -29q-33 -45 -162 -237l-639 -975q-20 -35 -135 -203zM1330 811
q24 0 245 4q-16 -139 -16 -145q-76 2 -222 2h-133l-8 -178h47q170 0 262 -68t92 -184t-90 -189q-89 -72 -231 -72t-246 33l-16 140q131 -37 229 -37t150 36q51 36 51 89q0 129 -258 129q-57 0 -119 -6l-16 10l12 280v144l18 16q225 -4 249 -4z" />
    <glyph glyph-name="twofifths" unicode="&#x2156;" horiz-adv-x="1912" 
d="M598 -31l-121 51q104 145 230 332l495 764q188 287 211 328l63 -30t58 -30q-33 -45 -162 -237l-639 -975q-20 -35 -135 -203zM729 1214q0 -94 -45 -164q-86 -134 -317 -319q59 0 385 6l-9 -143q-183 4 -289 4t-290 -4l-17 111q250 211 304 264q125 125 124 209
q0 53 -35 83q-36 30 -100 29q-107 0 -211 -90l-55 125q126 107 264 107t214 -62t77 -156zM1523 811q24 0 244 4q-16 -139 -16 -145q-76 2 -221 2h-133l-8 -178h47q170 0 262 -68t92 -184t-90 -189q-90 -72 -232 -72t-245 33l-17 140q132 -37 230 -37t149 36t51 89
q0 129 -258 129q-57 0 -118 -6l-17 10l12 280v144l19 16q225 -4 249 -4z" />
    <glyph glyph-name="threefifths" unicode="&#x2157;" horiz-adv-x="1912" 
d="M561 -31l-121 51q104 145 230 332l495 764q188 287 211 328q20 -10 62 -30t59 -30q-33 -45 -162 -237l-639 -975q-20 -35 -135 -203zM381 715q94 1 150 29t57 75q0 123 -287 129l-16 99q291 53 290 161q0 37 -40 62q-41 25 -115 24q-123 0 -219 -59l-41 123
q137 72 273 72t216 -56t80 -139q0 -143 -223 -213q240 -45 239 -201q0 -109 -96 -175q-95 -66 -233 -67q-138 0 -238 31l-20 140q129 -35 223 -35zM1523 811q24 0 244 4q-16 -139 -16 -145q-76 2 -221 2h-133l-8 -178h47q170 0 262 -68t92 -184t-90 -189q-90 -72 -232 -72
t-245 33l-17 140q132 -37 230 -37t149 36t51 89q0 129 -258 129q-57 0 -118 -6l-17 10l12 280v144l19 16q225 -4 249 -4z" />
    <glyph glyph-name="fourfifths" unicode="&#x2158;" horiz-adv-x="1912" 
d="M518 1264l-276 -349h274zM575 -31l-120 51q104 145 229 332l496 764q188 287 211 328l62 -31q42 -20 58 -29q-33 -45 -161 -237l-639 -975q-21 -35 -136 -203zM1523 811q24 0 244 4q-16 -139 -16 -145q-76 2 -221 2h-133l-8 -178h47q170 0 262 -68t92 -184t-90 -189
q-90 -72 -232 -72t-245 33l-17 140q132 -37 230 -37t149 36t51 89q0 129 -258 129q-57 0 -118 -6l-17 10l12 280v144l19 16q225 -4 249 -4zM512 774v27h-70q-252 0 -333 -4l-23 110l340 426q12 14 46 55t48 58l133 -10q-4 -35 -4 -140v-374q98 0 127 2q-10 -78 -10 -127
q-29 2 -117 2v-66q0 -106 4 -135h-147q6 37 6 176z" />
    <glyph glyph-name="onesixth" unicode="&#x2159;" horiz-adv-x="1720" 
d="M1306 102q74 0 118 44t44 115t-44 111t-116 40t-120 -42q-47 -42 -47 -111t46 -113t119 -44zM465 1278v-545q0 -109 4 -135h-162q8 59 8 227v430l-180 -51l-29 129q39 9 83 23t87 27t62 20l94 29l37 -13q-4 -33 -4 -141zM397 -31l-121 51q104 145 230 332l495 764
q188 287 211 328q20 -10 62 -30t59 -30q-33 -45 -162 -237l-639 -975q-20 -35 -135 -203zM1618 261q0 -116 -89 -199q-89 -82 -233 -82t-225 89q-82 89 -82 248q0 211 134 351t390 172l29 -131q-326 -41 -401 -260q80 75 200 75q121 0 199 -74t78 -189z" />
    <glyph glyph-name="fivesixths" unicode="&#x215a;" horiz-adv-x="1912" 
d="M1661 261q0 71 -44 111t-117 40t-120 -42t-47 -111t46 -113t119 -44t118 44t45 115zM565 -31l-121 51q104 145 230 332l495 764q188 287 211 328q20 -10 62 -30t59 -30q-33 -45 -162 -237l-639 -975q-20 -35 -135 -203zM448 1409q24 0 244 4q-16 -139 -16 -145
q-76 2 -221 2h-133l-9 -178h47q170 0 262 -68t93 -184q0 -116 -90 -189q-90 -72 -232 -72t-246 33l-16 140q131 -37 229 -37t150 36q51 36 51 89q0 129 -258 129q-57 0 -119 -6l-16 10l12 280v144l19 16q225 -4 249 -4zM1182 317q0 211 134 351t390 172l29 -131
q-326 -41 -402 -260q80 75 200 75t199 -74q78 -74 78 -189q0 -116 -89 -199q-89 -82 -232 -82t-225 89t-82 248z" />
    <glyph glyph-name="oneeighth" unicode="&#x215b;" horiz-adv-x="1720" 
d="M1165 612q0 -88 158 -135q137 37 137 131q0 49 -40 80t-108 31t-107 -31q-40 -31 -40 -76zM1470 217q0 94 -167 145q-162 -47 -162 -147q0 -53 48 -86t123 -33q74 0 116 34t42 87zM465 1278v-545q0 -109 4 -135h-162q8 59 8 227v430l-180 -51l-29 129q39 9 83 23t87 27
t62 20l94 29l37 -13q-4 -33 -4 -141zM381 -31l-121 51q104 145 229 332l496 764q188 287 211 328l62 -31q42 -20 59 -29q-33 -45 -162 -237l-639 -975q-20 -35 -135 -203zM1620 217q0 -105 -88 -171t-228 -66t-226 63q-85 63 -85 162q0 152 189 213q-160 63 -160 190
q0 98 84 163t210 65t206 -62t82 -156q2 -127 -164 -194q180 -74 180 -207z" />
    <glyph glyph-name="threeeighths" unicode="&#x215c;" horiz-adv-x="1912" 
d="M1358 612q0 -88 158 -135q137 37 137 131q0 49 -40 80t-108 31q-67 0 -107 -31t-40 -76zM1663 217q0 94 -168 145q-162 -47 -162 -147q0 -53 48 -86t123 -33t117 34t42 87zM565 -31l-121 51q104 145 230 332l495 764q188 287 211 328q20 -10 62 -30t59 -30
q-33 -45 -162 -237l-639 -975q-20 -35 -135 -203zM381 715q94 1 150 29t57 75q0 123 -287 129l-16 99q291 53 290 161q0 37 -40 62q-41 25 -115 24q-123 0 -219 -59l-41 123q137 72 273 72t216 -56t80 -139q0 -143 -223 -213q240 -45 239 -201q0 -109 -96 -175
q-95 -66 -233 -67q-138 0 -238 31l-20 140q129 -35 223 -35zM1812 217q0 -105 -88 -171t-228 -66t-225 63t-85 162q0 152 188 213q-160 63 -160 190q0 98 84 163t210 65t206 -62t82 -156q2 -127 -164 -194q180 -74 180 -207z" />
    <glyph glyph-name="fiveeighths" unicode="&#x215d;" horiz-adv-x="1912" 
d="M1358 612q0 -88 158 -135q137 37 137 131q0 49 -40 80t-108 31q-67 0 -107 -31t-40 -76zM1663 217q0 94 -168 145q-162 -47 -162 -147q0 -53 48 -86t123 -33t117 34t42 87zM555 -31l-121 51q104 145 230 332l495 764q188 287 211 328q20 -10 62 -30t59 -30
q-33 -45 -162 -237l-639 -975q-20 -35 -135 -203zM448 1409q24 0 244 4q-16 -139 -16 -145q-76 2 -221 2h-133l-9 -178h47q170 0 262 -68t93 -184q0 -116 -90 -189q-90 -72 -232 -72t-246 33l-16 140q131 -37 229 -37t150 36q51 36 51 89q0 129 -258 129q-57 0 -119 -6
l-16 10l12 280v144l19 16q225 -4 249 -4zM1812 217q0 -105 -88 -171t-228 -66t-225 63t-85 162q0 152 188 213q-160 63 -160 190q0 98 84 163t210 65t206 -62t82 -156q2 -127 -164 -194q180 -74 180 -207z" />
    <glyph glyph-name="seveneighths" unicode="&#x215e;" horiz-adv-x="1912" 
d="M1358 612q0 -90 160 -135q135 41 135 131q0 49 -40 80t-108 31q-67 0 -107 -31t-40 -76zM1663 218q0 54 -44 86t-124 58q-162 -47 -162 -147q0 -53 48 -86t123 -33t117 34t42 88zM485 1405q86 0 291 4l27 -80q-15 -27 -41 -79t-35 -66l-244 -443q-57 -100 -77 -159
l-164 20q6 10 114 201l256 463h-180q-172 0 -256 -2q10 82 10 145q213 -4 299 -4zM489 -31l-120 51q104 145 229 332l496 764q188 287 211 328l62 -31q42 -20 58 -29q-33 -45 -161 -237l-639 -975q-21 -35 -136 -203zM1812 217q0 -105 -88 -171t-228 -66t-225 63t-85 162
q0 152 188 213q-160 63 -160 190q0 98 84 163t210 65t206 -62t82 -156q2 -127 -164 -194q180 -74 180 -207z" />
    <glyph glyph-name="minus" unicode="&#x2212;" horiz-adv-x="1167" 
d="M539 494q-111 0 -344 -5q6 59 6 156q209 -6 386 -6t386 6q-10 -68 -10 -156q-238 4 -340 5h-84z" />
    <glyph glyph-name="box.1" unicode="&#xe000;" horiz-adv-x="1615" 
d="M174 424v504q0 295 -12 391l28 27h1233l25 -13q-6 -74 -6 -252v-827q0 -153 6 -227l-27 -27h-1233l-26 12q12 98 12 412z" />
    <glyph glyph-name="box.2" unicode="&#xe001;" horiz-adv-x="1615" 
d="M1260 164v624q0 332 -11 394h-893v-754q0 -190 6 -264h898zM174 424v504q0 295 -12 391l28 27h1233l25 -13q-6 -74 -6 -252v-827q0 -153 6 -227l-27 -27h-1233l-26 12q12 98 12 412z" />
    <glyph glyph-name="arrow.1_W" unicode="&#xe01d;" horiz-adv-x="1622" 
d="M1012 582q264 0 501 4q-6 -59 -6 -160q-211 6 -599 6t-554 -2l90 -74q221 -184 304 -247l-111 -132l-574 508l-2 35l572 514q8 -10 42 -46t66 -79q-43 -35 -155 -132t-142 -120l-92 -75h660z" />
    <glyph glyph-name="arrow.1_E" unicode="&#xe01f;" horiz-adv-x="1622" 
d="M719 580q387 0 553 2l-90 73q-221 184 -303 248l110 131l574 -508l2 -34l-572 -515q-69 69 -110 125q45 34 161 134t138 118l92 76h-660q-263 0 -501 -4q6 57 6 160q213 -6 600 -6z" />
    <glyph glyph-name="G.alt" horiz-adv-x="1509" 
d="M1362 272v-157q-229 -152 -526 -152t-511 214q-214 213 -214 531t224 542t556 225q115 0 242 -37t213 -92l-58 -185q-74 59 -192 95t-226 36q-246 0 -400 -162t-153 -420q0 -258 160 -412q160 -155 397 -155q166 0 291 66v254l-6 266h215q-12 -324 -12 -457z" />
    <glyph glyph-name="J.alt" horiz-adv-x="645" 
d="M246 31v915q0 356 -15 494q139 0 222 10q-6 -90 -7 -303v-1129q0 -229 -88 -334t-292 -106q-51 0 -109 14l-27 187q66 -12 107 -12q123 0 166 53t43 211z" />
    <glyph glyph-name="a.sc" horiz-adv-x="1114" 
d="M547 743l-144 -340h289zM342 258l-106 -258h-205l352 756q104 225 129 291l72 14l350 -758q59 -131 147 -303l-207 -12l-120 270h-412z" />
    <glyph glyph-name="b.sc" horiz-adv-x="1005" 
d="M463 606q219 0 219 142q0 135 -211 135q-66 0 -119 -4q-2 -25 -2 -76v-195q29 -2 113 -2zM498 162q227 0 227 154t-254 153q-72 0 -121 -6v-230q0 -40 2 -65q61 -6 146 -6zM868 776q0 -156 -161 -221q209 -63 208 -252q-1 -133 -105 -218t-294 -85h-360q10 90 10 356v326
q0 264 -10 354l331 8q190 0 286 -77q95 -78 95 -191z" />
    <glyph glyph-name="c.sc" horiz-adv-x="1050" 
d="M621 -27q-225 0 -376 153q-151 154 -151 380t159 390t396 165q178 0 309 -88l-43 -174q-125 92 -271 92q-146 -1 -251 -107q-104 -106 -104 -271t101 -266t260 -101t321 143l-15 -205q-152 -111 -335 -111z" />
    <glyph glyph-name="d.sc" horiz-adv-x="1132" 
d="M846 529q0 159 -100 255t-275 97q-33 0 -111 -4q-2 -25 -2 -86v-543q0 -49 2 -76q82 -8 115 -8q188 0 280 103q91 103 91 262zM1036 534q0 -232 -150 -382q-150 -152 -392 -152h-338q10 90 10 356v326q0 264 -10 354l307 8q269 0 421 -139t152 -371z" />
    <glyph glyph-name="e.sc" horiz-adv-x="892" 
d="M483 2q-203 0 -327 -8q10 90 10 356v338q0 270 -10 356q141 -6 318 -6t317 6q-12 -76 -13 -167q-84 2 -286 2h-134q-2 -27 -2 -74v-184l373 2q-4 -45 -4 -162l-369 2v-227q0 -49 2 -74l134 -2q184 0 327 6q-6 -55 -10 -172q-123 8 -326 8z" />
    <glyph glyph-name="f.sc" horiz-adv-x="851" 
d="M358 791v-185l342 2q-4 -90 -4 -162l-338 3v-236q0 -172 7 -213h-209q10 90 10 356v332q0 270 -10 356q141 -6 315 -6t309 6q-10 -86 -10 -170q-84 2 -272 3h-138q-2 -27 -2 -86z" />
    <glyph glyph-name="g.sc" horiz-adv-x="1138" 
d="M660 891q-152 -1 -262 -107t-110 -271t102 -266q101 -101 255 -102q104 0 193 41v140q0 59 -2 86h-78q-104 0 -180 -4q6 94 0 165q134 -6 220 -6t226 6q-10 -72 -10 -362v-127q-176 -111 -397 -111t-372 153q-151 154 -151 380t164 390t412 165q198 0 331 -96l-55 -166
q-134 92 -286 92z" />
    <glyph glyph-name="g.sc_alt" horiz-adv-x="1138" 
d="M660 891q-152 -1 -262 -107t-110 -271t102 -266q101 -101 255 -102q106 0 186 39v154q0 162 -6 192h199q-10 -51 -10 -321v-125q-176 -111 -397 -111t-372 153q-151 154 -151 380t164 390t412 165q198 0 331 -96l-55 -166q-134 92 -286 92z" />
    <glyph glyph-name="h.sc" horiz-adv-x="1204" 
d="M848 350v107h-490v-244q0 -172 7 -213h-209q10 90 10 356v326q0 268 -10 354q143 0 209 8q-6 -43 -7 -219v-209h490v70q0 266 -12 350q143 0 211 8q-8 -57 -9 -219v-612q1 -158 9 -213h-211q12 86 12 350z" />
    <glyph glyph-name="i.sc" horiz-adv-x="534" 
d="M172 356v326q0 268 -10 354q143 0 209 8q-6 -43 -6 -219v-612q0 -172 6 -213h-209q10 90 10 356z" />
    <glyph glyph-name="j.sc" horiz-adv-x="708" 
d="M362 682q0 268 -10 354q143 0 209 8q-6 -43 -6 -219v-510q0 -178 -69 -260t-228 -82q-106 0 -209 41l10 179q92 -43 179 -43q125 0 124 149v383z" />
    <glyph glyph-name="k.sc" horiz-adv-x="1046" 
d="M358 213q0 -152 7 -213h-209q12 106 12 356v326q0 250 -12 354q143 0 209 8q-6 -66 -7 -219v-270l177 209q141 164 229 276h235l-446 -499l223 -260q189 -222 244 -279l-225 -14l-437 516v-291z" />
    <glyph glyph-name="l.sc" horiz-adv-x="849" 
d="M473 2q-192 0 -317 -8q10 90 10 358v330q0 268 -10 354q143 0 209 8q-6 -43 -7 -219v-577q0 -57 2 -84l125 -2q119 0 316 4q-8 -78 -13 -172q-123 8 -315 8z" />
    <glyph glyph-name="m.sc" horiz-adv-x="1376" 
d="M1280 0l-197 -12q-2 59 -26 225l-56 401q-193 -418 -280 -624l-72 -15q-14 35 -133 302q-119 266 -147 331l-56 -397q-4 -31 -16 -156l-6 -55h-195q25 102 64 356l47 330q35 264 43 373l74 14l366 -784l262 561l97 219h71q22 -141 49 -383l48 -328q24 -161 63 -358z" />
    <glyph glyph-name="n.sc" horiz-adv-x="1214" 
d="M872 682q0 270 -12 354q139 0 205 8q-4 -23 -10 -219l-8 -624q0 -172 4 -213l-72 -15l-635 713v-473q0 -152 6 -213h-205q16 143 17 356l4 349q6 244 -6 342l71 14l641 -719v340z" />
    <glyph glyph-name="o.sc" horiz-adv-x="1232" 
d="M289 510q0 -166 91 -270t235 -103q144 0 237 111q92 110 92 276t-91 270t-235 103q-144 0 -237 -111q-92 -110 -92 -276zM624 1061q230 0 372 -151t142 -381t-150 -393q-151 -163 -380 -163t-371 151q-143 152 -143 382t150 392t380 163z" />
    <glyph glyph-name="p.sc" horiz-adv-x="944" 
d="M700 698q0 180 -235 181q-68 0 -107 -2q-2 -31 -2 -80v-281q25 -4 82 -4q125 0 194 47q68 47 68 139zM889 708q0 -154 -112 -251q-112 -98 -341 -99q-55 0 -78 2v-147q0 -152 7 -213h-209q10 90 10 356v326q0 268 -10 354l319 8q197 0 305 -91t109 -245z" />
    <glyph glyph-name="q.sc" horiz-adv-x="1236" 
d="M617 897q-144 0 -236 -111q-92 -110 -92 -276t91 -269t235 -103t237 110q92 110 92 276t-91 270q-92 103 -236 103zM94 510q0 226 150 388t380 163q230 0 372 -151t143 -367q0 -172 -77 -307t-212 -205l178 -47q84 -25 242 -60l-121 -147l-588 198q-209 13 -338 161
t-129 374z" />
    <glyph glyph-name="r.sc" horiz-adv-x="1015" 
d="M356 532h144q90 0 143 50t53 125q0 174 -223 174q-45 0 -115 -4q-2 -31 -2 -78v-267zM356 381v-168q0 -152 6 -213h-206q10 90 10 356v326q0 268 -10 354q31 0 301 8q203 2 317 -84t113 -225q-2 -203 -211 -303l158 -229q69 -101 141 -195l-219 -20l-250 393h-150z" />
    <glyph glyph-name="s.sc" horiz-adv-x="856" 
d="M764 297q0 -143 -99 -233t-267 -91q-168 0 -306 86l8 193q52 -43 140 -77t168 -34t124 35t46 96q0 60 -71 114t-155 92t-154 111t-71 165q0 135 96 221t250 86t262 -76l-51 -164q-100 74 -213 74q-72 0 -114 -34t-42 -85t46 -90t113 -72q66 -32 132 -70t112 -102t46 -145
z" />
    <glyph glyph-name="t.sc" horiz-adv-x="1011" 
d="M600 780v-567q0 -172 6 -213h-209q12 106 13 356v291q0 106 -7 225q-119 0 -335 -4q4 49 4 176q205 -6 435 -6t437 6q-10 -88 -10 -176q-221 4 -332 4q-2 -31 -2 -92z" />
    <glyph glyph-name="u.sc" horiz-adv-x="1177" 
d="M1024 825v-385q0 -227 -121 -347t-321 -120q-200 1 -314 105q-115 104 -114 284v320q0 268 -11 354q141 0 207 8q-6 -66 -6 -219v-405q0 -274 250 -275q115 0 177 65t63 181v291q0 250 -13 354q143 0 211 8q-8 -57 -8 -219z" />
    <glyph glyph-name="v.sc" horiz-adv-x="1054" 
d="M31 1034l207 10l299 -731l182 461q47 117 98 262h207l-330 -755q-68 -156 -121 -291l-75 -15l-330 754q-114 256 -137 305z" />
    <glyph glyph-name="w.sc" horiz-adv-x="1538" 
d="M1507 1036l-286 -751q-72 -186 -107 -295l-70 -15l-272 717l-162 -413q-8 -23 -33 -84t-83 -215l-70 -5l-274 756q-53 147 -119 301l202 12l248 -698l258 698l70 13l270 -701l135 398q25 74 91 282h202z" />
    <glyph glyph-name="x.sc" horiz-adv-x="1114" 
d="M287 0h-219l374 520l-362 516l215 13l264 -398l82 127q27 42 99 148t75 112h219l-364 -508l153 -219q141 -205 219 -311l-217 -12l-272 411l-86 -133z" />
    <glyph glyph-name="y.sc" horiz-adv-x="1003" 
d="M596 213q0 -158 8 -213h-209q12 106 13 356v84l-154 244q-153 246 -227 352l211 13l268 -447l80 127q29 45 100 166q72 121 86 143h213l-389 -592v-233z" />
    <glyph glyph-name="z.sc" horiz-adv-x="1001" 
d="M561 158q166 0 350 4q-8 -76 -12 -168q-115 8 -391 8t-418 -8l-41 39l604 848q-49 2 -184 2t-348 -4q6 72 6 165q209 -6 424 -6t362 6l39 -36l-602 -848q45 -2 211 -2z" />
    <glyph glyph-name="aacute.sc" horiz-adv-x="1114" 
d="M547 743l-144 -340h289zM639 1485l268 18l-329 -305l-129 -10zM342 258l-106 -258h-205l352 756q104 225 129 291l72 14l350 -758q59 -131 147 -303l-207 -12l-120 270h-412z" />
    <glyph glyph-name="abreve.sc" horiz-adv-x="1114" 
d="M547 743l-144 -340h289zM558 1186q-144 0 -232 89t-88 222l161 29q0 -96 42 -148t119 -53q77 0 115 51t38 131l157 11q4 -154 -82 -243t-230 -89zM342 258l-106 -258h-205l352 756q104 225 129 291l72 14l350 -758q59 -131 147 -303l-207 -12l-120 270h-412z" />
    <glyph glyph-name="acircumflex.sc" horiz-adv-x="1114" 
d="M547 743l-144 -340h289zM446 1489h236l197 -311l-140 -13l-178 199l-168 -182h-164zM342 258l-106 -258h-205l352 756q104 225 129 291l72 14l350 -758q59 -131 147 -303l-207 -12l-120 270h-412z" />
    <glyph glyph-name="adieresis.sc" horiz-adv-x="1114" 
d="M860 1360q0 -51 -35 -90t-87 -39t-85 36t-33 88t35 91t87 39t85 -37t33 -88zM492 1360q0 -51 -35 -90t-87 -39t-85 36t-33 88t35 91t87 39t85 -37t33 -88zM547 743l-144 -340h289zM342 258l-106 -258h-205l352 756q104 225 129 291l72 14l350 -758q59 -131 147 -303
l-207 -12l-120 270h-412z" />
    <glyph glyph-name="agrave.sc" horiz-adv-x="1114" 
d="M547 743l-144 -340h289zM227 1485l232 18l186 -305l-121 -10zM342 258l-106 -258h-205l352 756q104 225 129 291l72 14l350 -758q59 -131 147 -303l-207 -12l-120 270h-412z" />
    <glyph glyph-name="amacron.sc" horiz-adv-x="1114" 
d="M547 743l-144 -340h289zM625 1280h-156q-84 0 -223 -4q8 74 8 156q150 -6 306 -6t306 6q-10 -68 -10 -156q-164 4 -231 4zM342 258l-106 -258h-205l352 756q104 225 129 291l72 14l350 -758q59 -131 147 -303l-207 -12l-120 270h-412z" />
    <glyph glyph-name="aogonek.sc" horiz-adv-x="1114" 
d="M547 743l-144 -340h289zM850 -242q0 -86 102 -86q53 0 121 43l-10 -127q-61 -41 -155 -41q-94 1 -151 51q-58 50 -59 134q0 131 174 258l-118 268h-412l-106 -258h-205l352 756q104 225 129 291l72 14l350 -758q59 -131 147 -303q-231 -129 -231 -242z" />
    <glyph glyph-name="aring.sc" horiz-adv-x="1114" 
d="M666 1185q0 52 -29 85t-82 33t-83 -33t-30 -84t31 -86t82 -35t81 34t30 86zM547 743l-144 -340h289zM311 1188q0 88 69 154t177 67t174 -61t66 -147t-46 -148t-124 -86l307 -664q59 -131 147 -303l-207 -12l-120 270h-412l-106 -258h-205l448 965q-78 20 -123 77
q-45 58 -45 146z" />
    <glyph glyph-name="aringacute.sc" horiz-adv-x="1114" 
d="M666 1185q0 52 -29 85t-82 33t-83 -33t-30 -84t31 -86t82 -35t81 34t30 86zM547 743l-144 -340h289zM647 1833l268 18l-329 -305l-129 -10zM311 1188q0 88 69 154t177 67t174 -61t66 -147t-46 -148t-124 -86l307 -664q59 -131 147 -303l-207 -12l-120 270h-412l-106 -258
h-205l448 965q-78 20 -123 77q-45 58 -45 146z" />
    <glyph glyph-name="atilde.sc" horiz-adv-x="1114" 
d="M547 743l-144 -340h289zM715 1356q53 0 78 157l141 -20q-45 -299 -221 -299q-66 0 -166 75t-130 75t-45 -32q-15 -30 -28 -116l-143 21q25 157 80 223q112 134 304 -9q99 -75 130 -75zM342 258l-106 -258h-205l352 756q104 225 129 291l72 14l350 -758q59 -131 147 -303
l-207 -12l-120 270h-412z" />
    <glyph glyph-name="cacute.sc" horiz-adv-x="1050" 
d="M696 1485l269 18l-330 -305l-129 -10zM621 -27q-225 0 -376 153q-151 154 -151 380t159 390t396 165q178 0 309 -88l-43 -174q-125 92 -271 92q-146 -1 -251 -107q-104 -106 -104 -271t101 -266t260 -101t321 143l-15 -205q-152 -111 -335 -111z" />
    <glyph glyph-name="ccaron.sc" horiz-adv-x="1050" 
d="M725 1200h-236l-200 305l145 13l176 -193l170 182h158zM621 -27q-225 0 -376 153q-151 154 -151 380t159 390t396 165q178 0 309 -88l-43 -174q-125 92 -271 92q-146 -1 -251 -107q-104 -106 -104 -271t101 -266t260 -101t321 143l-15 -205q-152 -111 -335 -111z" />
    <glyph glyph-name="ccedilla.sc" horiz-adv-x="1050" 
d="M817 -322q0 -70 -61 -120q-111 -92 -340 -23l26 119q86 -31 163 -31t77 51q0 57 -186 103l-11 8q16 55 54 195q-197 27 -321 173t-124 339q0 240 159 404t396 165q178 0 309 -88l-43 -174q-125 92 -271 92q-146 -1 -251 -107q-104 -106 -104 -271t101 -266t260 -101
t321 143l-15 -205q-141 -104 -321 -111l-29 -104q211 -59 211 -191z" />
    <glyph glyph-name="cdotaccent.sc" horiz-adv-x="1050" 
d="M733 1360q0 -51 -35 -90t-87 -39t-85 36q-32 36 -32 88t34 91q35 39 87 39t85 -37t33 -88zM621 -27q-225 0 -376 153q-151 154 -151 380t159 390t396 165q178 0 309 -88l-43 -174q-125 92 -271 92q-146 -1 -251 -107q-104 -106 -104 -271t101 -266t260 -101t321 143
l-15 -205q-152 -111 -335 -111z" />
    <glyph glyph-name="dcaron.sc" horiz-adv-x="1132" 
d="M672 1200h-236l-200 305l145 13l176 -193l170 182h158zM846 529q0 159 -100 255t-275 97q-33 0 -111 -4q-2 -25 -2 -86v-543q0 -49 2 -76q82 -8 115 -8q188 0 280 103q91 103 91 262zM1036 534q0 -232 -150 -382q-150 -152 -392 -152h-338q10 90 10 356v326
q0 264 -10 354l307 8q269 0 421 -139t152 -371z" />
    <glyph glyph-name="dcroat.sc" horiz-adv-x="1132" 
d="M846 529q0 159 -100 255t-275 97q-33 0 -111 -4q-2 -25 -2 -86v-191q117 0 220 6q-10 -76 -11 -162q-135 4 -198 5h-11v-201q0 -49 2 -76q82 -8 115 -8q188 0 280 103q91 103 91 262zM1036 534q0 -232 -150 -382q-150 -152 -392 -152h-338q10 90 10 356v93l-141 -5
q6 61 6 162l135 -6v82q0 264 -10 354l307 8q269 0 421 -139t152 -371z" />
    <glyph glyph-name="eacute.sc" horiz-adv-x="892" 
d="M567 1485l269 18l-330 -305l-129 -10zM483 2q-203 0 -327 -8q10 90 10 356v338q0 270 -10 356q141 -6 318 -6t317 6q-12 -76 -13 -167q-84 2 -286 2h-134q-2 -27 -2 -74v-184l373 2q-4 -45 -4 -162l-369 2v-227q0 -49 2 -74l134 -2q184 0 327 6q-6 -55 -10 -172
q-123 8 -326 8z" />
    <glyph glyph-name="ebreve.sc" horiz-adv-x="892" 
d="M486 1186q-144 0 -232 89t-88 222l162 29q0 -96 42 -148t118 -53q76 0 115 51q38 51 38 131l158 11q4 -154 -82 -243q-87 -89 -231 -89zM483 2q-203 0 -327 -8q10 90 10 356v338q0 270 -10 356q141 -6 318 -6t317 6q-12 -76 -13 -167q-84 2 -286 2h-134q-2 -27 -2 -74
v-184l373 2q-4 -45 -4 -162l-369 2v-227q0 -49 2 -74l134 -2q184 0 327 6q-6 -55 -10 -172q-123 8 -326 8z" />
    <glyph glyph-name="ecaron.sc" horiz-adv-x="892" 
d="M596 1200h-236l-200 305l145 13l176 -193l170 182h158zM483 2q-203 0 -327 -8q10 90 10 356v338q0 270 -10 356q141 -6 318 -6t317 6q-12 -76 -13 -167q-84 2 -286 2h-134q-2 -27 -2 -74v-184l373 2q-4 -45 -4 -162l-369 2v-227q0 -49 2 -74l134 -2q184 0 327 6
q-6 -55 -10 -172q-123 8 -326 8z" />
    <glyph glyph-name="ecircumflex.sc" horiz-adv-x="892" 
d="M377 1505h235l197 -311l-139 -12l-178 198l-168 -182h-164zM483 2q-203 0 -327 -8q10 90 10 356v338q0 270 -10 356q141 -6 318 -6t317 6q-12 -76 -13 -167q-84 2 -286 2h-134q-2 -27 -2 -74v-184l373 2q-4 -45 -4 -162l-369 2v-227q0 -49 2 -74l134 -2q184 0 327 6
q-6 -55 -10 -172q-123 8 -326 8z" />
    <glyph glyph-name="edieresis.sc" horiz-adv-x="892" 
d="M420 1360q0 -51 -35 -90t-87 -39t-85 36t-33 88t35 91t87 39t85 -37t33 -88zM671 1485q53 0 85 -37t32 -88t-34 -90t-87 -39q-52 0 -85 36t-33 88t35 91t87 39zM483 2q-203 0 -327 -8q10 90 10 356v338q0 270 -10 356q141 -6 318 -6t317 6q-12 -76 -13 -167q-84 2 -286 2
h-134q-2 -27 -2 -74v-184l373 2q-4 -45 -4 -162l-369 2v-227q0 -49 2 -74l134 -2q184 0 327 6q-6 -55 -10 -172q-123 8 -326 8z" />
    <glyph glyph-name="edotaccent.sc" horiz-adv-x="892" 
d="M604 1360q0 -51 -35 -90t-87 -39t-85 36t-33 88t35 91t87 39t85 -37t33 -88zM483 2q-203 0 -327 -8q10 90 10 356v338q0 270 -10 356q141 -6 318 -6t317 6q-12 -76 -13 -167q-84 2 -286 2h-134q-2 -27 -2 -74v-184l373 2q-4 -45 -4 -162l-369 2v-227q0 -49 2 -74l134 -2
q184 0 327 6q-6 -55 -10 -172q-123 8 -326 8z" />
    <glyph glyph-name="egrave.sc" horiz-adv-x="892" 
d="M156 1485l231 18l186 -305l-120 -10zM483 2q-203 0 -327 -8q10 90 10 356v338q0 270 -10 356q141 -6 318 -6t317 6q-12 -76 -13 -167q-84 2 -286 2h-134q-2 -27 -2 -74v-184l373 2q-4 -45 -4 -162l-369 2v-227q0 -49 2 -74l134 -2q184 0 327 6q-6 -55 -10 -172
q-123 8 -326 8z" />
    <glyph glyph-name="emacron.sc" horiz-adv-x="892" 
d="M553 1280h-156q-84 0 -223 -4q8 74 8 156q150 -6 306 -6t307 6q-10 -68 -11 -156q-164 4 -231 4zM483 2q-203 0 -327 -8q10 90 10 356v338q0 270 -10 356q141 -6 318 -6t317 6q-12 -76 -13 -167q-84 2 -286 2h-134q-2 -27 -2 -74v-184l373 2q-4 -45 -4 -162l-369 2v-227
q0 -49 2 -74l134 -2q184 0 327 6q-6 -55 -10 -172q-123 8 -326 8z" />
    <glyph glyph-name="eogonek.sc" horiz-adv-x="892" 
d="M668 -328q53 0 120 43l-10 -127q-61 -41 -154 -41q-94 1 -152 51t-58 134q0 141 215 268q-51 2 -200 2t-273 -8q10 90 10 356v338q0 270 -10 356q141 -6 318 -6t317 6q-12 -76 -13 -167q-84 2 -286 2h-134q-2 -27 -2 -74v-184l373 2q-4 -45 -4 -162l-369 2v-227
q0 -49 2 -74l134 -2q184 0 327 6q-6 -55 -10 -172l-12 2v-2q-231 -125 -232 -236q0 -38 25 -62t78 -24z" />
    <glyph glyph-name="gbreve.sc" horiz-adv-x="1138" 
d="M624 1186q-144 0 -233 89q-88 89 -88 222l162 29q0 -96 42 -148t119 -53q76 0 114 51t38 131l158 11q4 -154 -82 -243t-230 -89zM660 891q-152 -1 -262 -107t-110 -271t102 -266q101 -101 255 -102q104 0 193 41v140q0 59 -2 86h-78q-104 0 -180 -4q6 94 0 165
q134 -6 220 -6t226 6q-10 -72 -10 -362v-127q-176 -111 -397 -111t-372 153q-151 154 -151 380t164 390t412 165q198 0 331 -96l-55 -166q-134 92 -286 92z" />
    <glyph glyph-name="Gbreve.alt" horiz-adv-x="1509" 
d="M840 1587q-144 0 -232 89t-88 222l162 29q0 -96 42 -148q42 -53 119 -53t115 52t37 131l158 10q4 -154 -82 -243q-87 -89 -231 -89zM1362 272v-157q-229 -152 -526 -152t-511 214q-214 213 -214 531t224 542t556 225q115 0 242 -37t213 -92l-58 -185q-74 59 -192 95
t-226 36q-246 0 -400 -162t-153 -420q0 -258 160 -412q160 -155 397 -155q166 0 291 66v254l-6 266h215q-12 -324 -12 -457z" />
    <glyph glyph-name="gbreve.sc_alt" horiz-adv-x="1138" 
d="M634 1186q-144 0 -233 89q-88 89 -88 222l162 29q0 -96 42 -148t119 -53q77 0 115 51q37 51 37 131l158 11q4 -154 -82 -243t-230 -89zM660 891q-152 -1 -262 -107t-110 -271t102 -266q101 -101 255 -102q106 0 186 39v154q0 162 -6 192h199q-10 -51 -10 -321v-125
q-176 -111 -397 -111t-372 153q-151 154 -151 380t164 390t412 165q198 0 331 -96l-55 -166q-134 92 -286 92z" />
    <glyph glyph-name="gcommaaccent.sc" horiz-adv-x="1138" 
d="M592 -322q0 58 -66 93l-26 14q31 100 127 100q49 0 84 -37t34 -94q0 -154 -241 -286l-49 59l61 41q76 52 76 110zM660 891q-152 -1 -262 -107t-110 -271t102 -266q101 -101 255 -102q104 0 193 41v140q0 59 -2 86h-78q-104 0 -180 -4q6 94 0 165q134 -6 220 -6t226 6
q-10 -72 -10 -362v-127q-176 -111 -397 -111t-372 153q-151 154 -151 380t164 390t412 165q198 0 331 -96l-55 -166q-134 92 -286 92z" />
    <glyph glyph-name="Gcommaaccent.alt" horiz-adv-x="1509" 
d="M805 -322q0 58 -66 93l-26 14q31 100 127 100q49 0 84 -37t34 -94q0 -154 -241 -286l-49 59l61 41q76 52 76 110zM1362 272v-157q-229 -152 -526 -152t-511 214q-214 213 -214 531t224 542t556 225q115 0 242 -37t213 -92l-58 -185q-74 59 -192 95t-226 36
q-246 0 -400 -162t-153 -420q0 -258 160 -412q160 -155 397 -155q166 0 291 66v254l-6 266h215q-12 -324 -12 -457z" />
    <glyph glyph-name="gcommaaccent.sc_alt" horiz-adv-x="1138" 
d="M592 -322q0 58 -66 93l-26 14q31 100 127 100q49 0 84 -37t34 -94q0 -154 -241 -286l-49 59l61 41q76 52 76 110zM660 891q-152 -1 -262 -107t-110 -271t102 -266q101 -101 255 -102q106 0 186 39v154q0 162 -6 192h199q-10 -51 -10 -321v-125q-176 -111 -397 -111
t-372 153q-151 154 -151 380t164 390t412 165q198 0 331 -96l-55 -166q-134 92 -286 92z" />
    <glyph glyph-name="gdotaccent.sc" horiz-adv-x="1138" 
d="M624 1485q52 0 84 -37t33 -88q-1 -51 -35 -90t-86 -39t-86 36q-32 36 -32 88t35 91t87 39zM660 891q-152 -1 -262 -107t-110 -271t102 -266q101 -101 255 -102q104 0 193 41v140q0 59 -2 86h-78q-104 0 -180 -4q6 94 0 165q134 -6 220 -6t226 6q-10 -72 -10 -362v-127
q-176 -111 -397 -111t-372 153q-151 154 -151 380t164 390t412 165q198 0 331 -96l-55 -166q-134 92 -286 92z" />
    <glyph glyph-name="Gdotaccent.alt" horiz-adv-x="1509" 
d="M841 1886q53 0 85 -37t32 -88t-34 -90t-87 -39q-52 0 -85 36t-33 88t35 91t87 39zM1362 272v-157q-229 -152 -526 -152t-511 214q-214 213 -214 531t224 542t556 225q115 0 242 -37t213 -92l-58 -185q-74 59 -192 95t-226 36q-246 0 -400 -162t-153 -420q0 -258 160 -412
q160 -155 397 -155q166 0 291 66v254l-6 266h215q-12 -324 -12 -457z" />
    <glyph glyph-name="gdotaccent.sc_alt" horiz-adv-x="1138" 
d="M752 1360q0 -51 -35 -90t-87 -39t-85 36t-33 88t35 91t87 39t85 -37t33 -88zM660 891q-152 -1 -262 -107t-110 -271t102 -266q101 -101 255 -102q106 0 186 39v154q0 162 -6 192h199q-10 -51 -10 -321v-125q-176 -111 -397 -111t-372 153q-151 154 -151 380t164 390
t412 165q198 0 331 -96l-55 -166q-134 92 -286 92z" />
    <glyph glyph-name="hbar.sc" horiz-adv-x="1204" 
d="M848 598v135q-43 2 -123 2h-367v-137h490zM602 862q158 0 244 2q-4 113 -10 172q143 0 211 8q-8 -47 -9 -178l146 4q-10 -78 -10 -141q-45 0 -136 4v-520q0 -158 9 -213h-211q12 86 12 334v108h-490v-229q0 -172 7 -213h-209q10 90 10 356v377l-139 -4q6 66 6 141l131 -4
q-4 133 -8 170q143 0 209 8q-6 -37 -7 -182h244z" />
    <glyph glyph-name="iacute.sc" horiz-adv-x="534" 
d="M350 1485l268 18l-329 -305l-129 -10zM172 356v326q0 268 -10 354q143 0 209 8q-6 -43 -6 -219v-612q0 -172 6 -213h-209q10 90 10 356z" />
    <glyph glyph-name="ibreve.sc" horiz-adv-x="534" 
d="M270 1186q-144 0 -233 89q-88 89 -88 222l162 29q0 -96 42 -148q43 -52 119 -53q76 0 114 51t38 131l158 11q4 -154 -82 -243t-230 -89zM172 356v326q0 268 -10 354q143 0 209 8q-6 -43 -6 -219v-612q0 -172 6 -213h-209q10 90 10 356z" />
    <glyph glyph-name="icircumflex.sc" horiz-adv-x="534" 
d="M160 1505h235l197 -311l-139 -12l-179 198l-168 -182h-163zM172 356v326q0 268 -10 354q143 0 209 8q-6 -43 -6 -219v-612q0 -172 6 -213h-209q10 90 10 356z" />
    <glyph glyph-name="idieresis.sc" horiz-adv-x="534" 
d="M454 1485q52 0 84 -37t33 -88q-1 -51 -35 -90t-86 -39t-85 36t-33 88t35 91t87 39zM203 1360q0 -51 -35 -90t-87 -39t-85 36t-33 88t35 91t87 39t85 -37t33 -88zM172 356v326q0 268 -10 354q143 0 209 8q-6 -43 -6 -219v-612q0 -172 6 -213h-209q10 90 10 356z" />
    <glyph glyph-name="idotaccent.sc" horiz-adv-x="534" 
d="M387 1360q0 -51 -35 -90t-87 -39t-85 36t-33 88t35 91t87 39t85 -37t33 -88zM172 356v326q0 268 -10 354q143 0 209 8q-6 -43 -6 -219v-612q0 -172 6 -213h-209q10 90 10 356z" />
    <glyph glyph-name="dotlessi.sc" horiz-adv-x="534" 
d="M172 356v326q0 268 -10 354q143 0 209 8q-6 -43 -6 -219v-612q0 -172 6 -213h-209q10 90 10 356z" />
    <glyph glyph-name="igrave.sc" horiz-adv-x="534" 
d="M-61 1485l231 18l186 -305l-120 -10zM172 356v326q0 268 -10 354q143 0 209 8q-6 -43 -6 -219v-612q0 -172 6 -213h-209q10 90 10 356z" />
    <glyph glyph-name="imacron.sc" horiz-adv-x="534" 
d="M336 1280h-156q-84 0 -223 -4q8 74 8 156q153 -6 307 -6t306 6q-10 -68 -11 -156q-164 4 -231 4zM172 356v326q0 268 -10 354q143 0 209 8q-6 -43 -6 -219v-612q0 -172 6 -213h-209q10 90 10 356z" />
    <glyph glyph-name="iogonek.sc" horiz-adv-x="534" 
d="M291 -328q53 0 121 43l-11 -127q-61 -41 -154 -41q-93 1 -151 51t-59 134q0 141 168 268h-43q10 90 10 356v326q0 268 -10 354q143 0 209 8q-6 -43 -6 -219v-612q0 -172 6 -213q-182 -129 -183 -242q0 -38 25 -62t78 -24z" />
    <glyph glyph-name="kcommaaccent.sc" horiz-adv-x="1046" 
d="M549 -322q0 58 -66 93l-26 14q31 100 127 100q49 0 84 -37t34 -94q0 -154 -241 -286l-49 59l61 41q76 52 76 110zM358 213q0 -152 7 -213h-209q12 106 12 356v326q0 250 -12 354q143 0 209 8q-6 -66 -7 -219v-270l177 209q141 164 229 276h235l-446 -499l223 -260
q189 -222 244 -279l-225 -14l-437 516v-291z" />
    <glyph glyph-name="lacute.sc" horiz-adv-x="849" 
d="M401 1487l269 18l-330 -305l-129 -10zM473 2q-192 0 -317 -8q10 90 10 358v330q0 268 -10 354q143 0 209 8q-6 -43 -7 -219v-577q0 -57 2 -84l125 -2q119 0 316 4q-8 -78 -13 -172q-123 8 -315 8z" />
    <glyph glyph-name="lcaron.sc" horiz-adv-x="849" 
d="M586 719l-82 -19q16 201 16 340q35 6 156 23q-55 -238 -90 -344zM473 2q-192 0 -317 -8q10 90 10 358v330q0 268 -10 354q143 0 209 8q-6 -43 -7 -219v-577q0 -57 2 -84l125 -2q119 0 316 4q-8 -78 -13 -172q-123 8 -315 8z" />
    <glyph glyph-name="lcommaaccent.sc" horiz-adv-x="849" 
d="M438 -322q0 58 -65 93l-27 14q31 100 127 100q49 0 84 -37t35 -94q0 -154 -242 -286l-49 59l61 41q76 52 76 110zM473 2q-192 0 -317 -8q10 90 10 358v330q0 268 -10 354q143 0 209 8q-6 -43 -7 -219v-577q0 -57 2 -84l125 -2q119 0 316 4q-8 -78 -13 -172q-123 8 -315 8
z" />
    <glyph glyph-name="ldot.sc" horiz-adv-x="849" 
d="M793 586q0 -51 -35 -90t-87 -39t-85 36t-33 88t35 91t87 39t85 -37t33 -88zM473 2q-192 0 -317 -8q10 90 10 358v330q0 268 -10 354q143 0 209 8q-6 -43 -7 -219v-577q0 -57 2 -84l125 -2q119 0 316 4q-8 -78 -13 -172q-123 8 -315 8z" />
    <glyph glyph-name="lslash.sc" horiz-adv-x="849" 
d="M473 0q-192 0 -317 -8q10 90 10 358v56q-29 -16 -94 -56q-37 80 -74 137q106 55 168 91v102q0 266 -10 354q143 0 209 8q-6 -43 -7 -219v-137l148 92q37 -80 74 -137q-117 -63 -222 -125v-270q0 -57 2 -84l125 -2q119 0 316 4q-8 -78 -13 -172q-123 8 -315 8z" />
    <glyph glyph-name="nacute.sc" horiz-adv-x="1214" 
d="M688 1485l268 18l-329 -305l-129 -10zM872 682q0 270 -12 354q139 0 205 8q-4 -23 -10 -219l-8 -624q0 -172 4 -213l-72 -15l-635 713v-473q0 -152 6 -213h-205q16 143 17 356l4 349q6 244 -6 342l71 14l641 -719v340z" />
    <glyph glyph-name="ncaron.sc" horiz-adv-x="1214" 
d="M717 1200h-236l-200 305l145 13l176 -193l170 182h158zM872 682q0 270 -12 354q139 0 205 8q-4 -23 -10 -219l-8 -624q0 -172 4 -213l-72 -15l-635 713v-473q0 -152 6 -213h-205q16 143 17 356l4 349q6 244 -6 342l71 14l641 -719v340z" />
    <glyph glyph-name="ncommaaccent.sc" horiz-adv-x="1214" 
d="M565 -322q0 58 -65 93l-27 14q31 100 127 100q49 0 84 -37t35 -94q0 -154 -242 -286l-49 59l61 41q76 52 76 110zM872 682q0 270 -12 354q139 0 205 8q-4 -23 -10 -219l-8 -624q0 -172 4 -213l-72 -15l-635 713v-473q0 -152 6 -213h-205q16 143 17 356l4 349
q6 244 -6 342l71 14l641 -719v340z" />
    <glyph glyph-name="ntilde.sc" horiz-adv-x="1214" 
d="M764 1356q53 0 78 157l141 -20q-45 -299 -221 -299q-66 0 -166 75t-130 75t-45 -32q-15 -30 -28 -116l-143 21q25 157 80 223q112 134 304 -9q99 -75 130 -75zM872 682q0 270 -12 354q139 0 205 8q-4 -23 -10 -219l-8 -624q0 -172 4 -213l-72 -15l-635 713v-473
q0 -152 6 -213h-205q16 143 17 356l4 349q6 244 -6 342l71 14l641 -719v340z" />
    <glyph glyph-name="oacute.sc" horiz-adv-x="1232" 
d="M700 1485l269 18l-330 -305l-129 -10zM289 510q0 -166 91 -270t235 -103q144 0 237 111q92 110 92 276t-91 270t-235 103q-144 0 -237 -111q-92 -110 -92 -276zM624 1061q230 0 372 -151t142 -381t-150 -393q-151 -163 -380 -163t-371 151q-143 152 -143 382t150 392
t380 163z" />
    <glyph glyph-name="obreve.sc" horiz-adv-x="1232" 
d="M620 1186q-144 0 -233 89q-88 89 -88 222l162 29q0 -96 42 -148t119 -53q76 0 114 51t38 131l158 11q4 -154 -82 -243t-230 -89zM289 510q0 -166 91 -270t235 -103q144 0 237 111q92 110 92 276t-91 270t-235 103q-144 0 -237 -111q-92 -110 -92 -276zM624 1061
q230 0 372 -151t142 -381t-150 -393q-151 -163 -380 -163t-371 151q-143 152 -143 382t150 392t380 163z" />
    <glyph glyph-name="ocircumflex.sc" horiz-adv-x="1232" 
d="M510 1505h235l197 -311l-139 -12l-178 198l-168 -182h-164zM289 510q0 -166 91 -270t235 -103q144 0 237 111q92 110 92 276t-91 270t-235 103q-144 0 -237 -111q-92 -110 -92 -276zM624 1061q230 0 372 -151t142 -381t-150 -393q-151 -163 -380 -163t-371 151
q-143 152 -143 382t150 392t380 163z" />
    <glyph glyph-name="odieresis.sc" horiz-adv-x="1232" 
d="M922 1360q0 -51 -35 -90t-87 -39t-85 36t-33 88t35 91t87 39t85 -37t33 -88zM553 1360q0 -51 -35 -90t-87 -39t-85 36t-33 88t35 91t87 39t85 -37t33 -88zM289 510q0 -166 91 -270t235 -103q144 0 237 111q92 110 92 276t-91 270t-235 103q-144 0 -237 -111
q-92 -110 -92 -276zM624 1061q230 0 372 -151t142 -381t-150 -393q-151 -163 -380 -163t-371 151q-143 152 -143 382t150 392t380 163z" />
    <glyph glyph-name="ograve.sc" horiz-adv-x="1232" 
d="M289 1485l231 18l187 -305l-121 -10zM289 510q0 -166 91 -270t235 -103q144 0 237 111q92 110 92 276t-91 270t-235 103q-144 0 -237 -111q-92 -110 -92 -276zM624 1061q230 0 372 -151t142 -381t-150 -393q-151 -163 -380 -163t-371 151q-143 152 -143 382t150 392
t380 163z" />
    <glyph glyph-name="ohungarumlaut.sc" horiz-adv-x="1232" 
d="M823 1499l248 23l-227 -324l-135 -6zM487 1495l238 18l-203 -319l-135 -6zM289 510q0 -166 91 -270t235 -103q144 0 237 111q92 110 92 276t-91 270t-235 103q-144 0 -237 -111q-92 -110 -92 -276zM624 1061q230 0 372 -151t142 -381t-150 -393q-151 -163 -380 -163
t-371 151q-143 152 -143 382t150 392t380 163z" />
    <glyph glyph-name="omacron.sc" horiz-adv-x="1232" 
d="M686 1280h-156q-84 0 -223 -4q8 74 8 156q151 -6 307 -6t306 6q-10 -68 -10 -156q-164 4 -232 4zM289 510q0 -166 91 -270t235 -103q144 0 237 111q92 110 92 276t-91 270t-235 103q-144 0 -237 -111q-92 -110 -92 -276zM624 1061q230 0 372 -151t142 -381t-150 -393
q-151 -163 -380 -163t-371 151q-143 152 -143 382t150 392t380 163z" />
    <glyph glyph-name="oslash.sc" horiz-adv-x="1232" 
d="M614 137q145 0 238 111q92 111 92 255t-55 238l-463 -544q77 -60 188 -60zM618 897q-145 -1 -237 -111t-92 -256t57 -243l465 544q-82 66 -193 66zM94 510q0 226 151 388t386 163q168 0 297 -92q70 78 108 127q41 -41 97 -78q-39 -41 -117 -131q123 -145 123 -344
q0 -244 -151 -407t-386 -163q-168 0 -295 88q-102 -115 -112 -127l-99 72q98 104 123 135q-125 143 -125 369z" />
    <glyph glyph-name="oslashacute.sc" horiz-adv-x="1232" 
d="M700 1485l269 18l-330 -305l-129 -10zM614 137q145 0 238 111q92 111 92 255t-55 238l-463 -544q77 -60 188 -60zM618 897q-145 -1 -237 -111t-92 -256t57 -243l465 544q-82 66 -193 66zM94 510q0 226 151 388t386 163q168 0 297 -92q70 78 108 127q41 -41 97 -78
q-39 -41 -117 -131q123 -145 123 -344q0 -244 -151 -407t-386 -163q-168 0 -295 88q-102 -115 -112 -127l-99 72q98 104 123 135q-125 143 -125 369z" />
    <glyph glyph-name="otilde.sc" horiz-adv-x="1232" 
d="M776 1356q53 0 78 157l141 -20q-45 -299 -221 -299q-66 0 -166 75t-130 75t-45 -32q-15 -30 -27 -116l-144 21q25 157 80 223q112 134 304 -9q99 -75 130 -75zM289 510q0 -166 91 -270t235 -103q144 0 237 111q92 110 92 276t-91 270t-235 103q-144 0 -237 -111
q-92 -110 -92 -276zM624 1061q230 0 372 -151t142 -381t-150 -393q-151 -163 -380 -163t-371 151q-143 152 -143 382t150 392t380 163z" />
    <glyph glyph-name="racute.sc" horiz-adv-x="1015" 
d="M578 1485l268 18l-330 -305l-129 -10zM356 532h144q90 0 143 50t53 125q0 174 -223 174q-45 0 -115 -4q-2 -31 -2 -78v-267zM356 381v-168q0 -152 6 -213h-206q10 90 10 356v326q0 268 -10 354q31 0 301 8q203 2 317 -84t113 -225q-2 -203 -211 -303l158 -229
q69 -101 141 -195l-219 -20l-250 393h-150z" />
    <glyph glyph-name="rcaron.sc" horiz-adv-x="1015" 
d="M356 532h144q90 0 143 50t53 125q0 174 -223 174q-45 0 -115 -4q-2 -31 -2 -78v-267zM606 1200h-235l-201 305l145 13l177 -193l170 182h157zM356 381v-168q0 -152 6 -213h-206q10 90 10 356v326q0 268 -10 354q31 0 301 8q203 2 317 -84t113 -225q-2 -203 -211 -303
l158 -229q69 -101 141 -195l-219 -20l-250 393h-150z" />
    <glyph glyph-name="rcommaaccent.sc" horiz-adv-x="1015" 
d="M492 -322q0 58 -66 93l-27 14q31 100 127 100q49 0 84 -37t35 -94q0 -154 -242 -286l-49 59l62 41q76 52 76 110zM356 532h144q90 0 143 50t53 125q0 174 -223 174q-45 0 -115 -4q-2 -31 -2 -78v-267zM356 381v-168q0 -152 6 -213h-206q10 90 10 356v326q0 268 -10 354
q31 0 301 8q203 2 317 -84t113 -225q-2 -203 -211 -303l158 -229q69 -101 141 -195l-219 -20l-250 393h-150z" />
    <glyph glyph-name="sacute.sc" horiz-adv-x="856" 
d="M545 1485l268 18l-330 -305l-129 -10zM764 297q0 -143 -99 -233t-267 -91q-168 0 -306 86l8 193q52 -43 140 -77t168 -34t124 35t46 96q0 60 -71 114t-155 92t-154 111t-71 165q0 135 96 221t250 86t262 -76l-51 -164q-100 74 -213 74q-72 0 -114 -34t-42 -85t46 -90
t113 -72q66 -32 132 -70t112 -102t46 -145z" />
    <glyph glyph-name="scaron.sc" horiz-adv-x="856" 
d="M573 1200h-235l-201 305l146 13l176 -193l170 182h157zM764 297q0 -143 -99 -233t-267 -91q-168 0 -306 86l8 193q52 -43 140 -77t168 -34t124 35t46 96q0 60 -71 114t-155 92t-154 111t-71 165q0 135 96 221t250 86t262 -76l-51 -164q-100 74 -213 74q-72 0 -114 -34
t-42 -85t46 -90t113 -72q66 -32 132 -70t112 -102t46 -145z" />
    <glyph glyph-name="scedilla.sc" horiz-adv-x="856" 
d="M764 297q0 -127 -78 -213t-211 -104l-31 -111q211 -59 211 -191q0 -70 -61 -120q-111 -92 -340 -23l27 119q87 -31 163 -31t76 51q0 57 -186 103l-10 8q10 29 51 190q-166 10 -283 84l8 193q52 -43 140 -77t168 -34t124 35t46 96q0 60 -71 114t-155 92t-154 111t-71 165
q0 135 96 221t250 86t262 -76l-51 -164q-100 74 -213 74q-72 0 -114 -34t-42 -85t46 -90t113 -72q66 -32 132 -70t112 -102t46 -145z" />
    <glyph glyph-name="scommaaccent.sc" horiz-adv-x="856" 
d="M369 -322q0 58 -66 93l-27 14q31 100 127 100q49 0 84 -37t35 -94q0 -154 -241 -286l-50 59l62 41q76 52 76 110zM764 297q0 -143 -99 -233t-267 -91q-168 0 -306 86l8 193q52 -43 140 -77t168 -34t124 35t46 96q0 60 -71 114t-155 92t-154 111t-71 165q0 135 96 221
t250 86t262 -76l-51 -164q-100 74 -213 74q-72 0 -114 -34t-42 -85t46 -90t113 -72q66 -32 132 -70t112 -102t46 -145z" />
    <glyph glyph-name="tcaron.sc" horiz-adv-x="1011" 
d="M618 1200h-235l-201 305l146 13l176 -193l170 182h157zM600 780v-567q0 -172 6 -213h-209q12 106 13 356v291q0 106 -7 225q-119 0 -335 -4q4 49 4 176q205 -6 435 -6t437 6q-10 -88 -10 -176q-221 4 -332 4q-2 -31 -2 -92z" />
    <glyph glyph-name="tcommaaccent.sc" horiz-adv-x="1011" 
d="M467 -322q0 58 -66 93l-26 14q31 100 127 100q49 0 84 -37t35 -94q0 -154 -242 -286l-49 59l61 41q76 52 76 110zM600 780v-567q0 -172 6 -213h-209q12 106 13 356v291q0 106 -7 225q-119 0 -335 -4q4 49 4 176q205 -6 435 -6t437 6q-10 -88 -10 -176q-221 4 -332 4
q-2 -31 -2 -92z" />
    <glyph glyph-name="uacute.sc" horiz-adv-x="1177" 
d="M670 1485l268 18l-330 -305l-129 -10zM1024 825v-385q0 -227 -121 -347t-321 -120q-200 1 -314 105q-115 104 -114 284v320q0 268 -11 354q141 0 207 8q-6 -66 -6 -219v-405q0 -274 250 -275q115 0 177 65t63 181v291q0 250 -13 354q143 0 211 8q-8 -57 -8 -219z" />
    <glyph glyph-name="ubreve.sc" horiz-adv-x="1177" 
d="M589 1186q-144 0 -233 89q-88 89 -88 222l162 29q0 -96 42 -148t119 -53q77 0 115 51q37 51 37 131l158 11q4 -154 -82 -243t-230 -89zM1024 825v-385q0 -227 -121 -347t-321 -120q-200 1 -314 105q-115 104 -114 284v320q0 268 -11 354q141 0 207 8q-6 -66 -6 -219v-405
q0 -274 250 -275q115 0 177 65t63 181v291q0 250 -13 354q143 0 211 8q-8 -57 -8 -219z" />
    <glyph glyph-name="ucircumflex.sc" horiz-adv-x="1177" 
d="M479 1505h236l196 -311l-139 -12l-178 198l-168 -182h-164zM1024 825v-385q0 -227 -121 -347t-321 -120q-200 1 -314 105q-115 104 -114 284v320q0 268 -11 354q141 0 207 8q-6 -66 -6 -219v-405q0 -274 250 -275q115 0 177 65t63 181v291q0 250 -13 354q143 0 211 8
q-8 -57 -8 -219z" />
    <glyph glyph-name="udieresis.sc" horiz-adv-x="1177" 
d="M891 1360q0 -51 -35 -90t-87 -39t-85 36t-33 88t35 91t87 39t85 -37t33 -88zM404 1485q52 0 86 -37q32 -37 32 -88t-35 -90t-87 -39t-85 36t-33 88t35 91t87 39zM1024 825v-385q0 -227 -121 -347t-321 -120q-200 1 -314 105q-115 104 -114 284v320q0 268 -11 354
q141 0 207 8q-6 -66 -6 -219v-405q0 -274 250 -275q115 0 177 65t63 181v291q0 250 -13 354q143 0 211 8q-8 -57 -8 -219z" />
    <glyph glyph-name="ugrave.sc" horiz-adv-x="1177" 
d="M258 1485l231 18l187 -305l-121 -10zM1024 825v-385q0 -227 -121 -347t-321 -120q-200 1 -314 105q-115 104 -114 284v320q0 268 -11 354q141 0 207 8q-6 -66 -6 -219v-405q0 -274 250 -275q115 0 177 65t63 181v291q0 250 -13 354q143 0 211 8q-8 -57 -8 -219z" />
    <glyph glyph-name="uhungarumlaut.sc" horiz-adv-x="1177" 
d="M793 1499l247 23l-227 -324l-135 -6zM457 1495l237 18l-202 -319l-136 -6zM1024 825v-385q0 -227 -121 -347t-321 -120q-200 1 -314 105q-115 104 -114 284v320q0 268 -11 354q141 0 207 8q-6 -66 -6 -219v-405q0 -274 250 -275q115 0 177 65t63 181v291q0 250 -13 354
q143 0 211 8q-8 -57 -8 -219z" />
    <glyph glyph-name="umacron.sc" horiz-adv-x="1177" 
d="M655 1280h-155q-84 0 -224 -4q8 74 9 156q150 -6 305 -6t307 6q-10 -68 -10 -156q-164 4 -232 4zM1024 825v-385q0 -227 -121 -347t-321 -120q-200 1 -314 105q-115 104 -114 284v320q0 268 -11 354q141 0 207 8q-6 -66 -6 -219v-405q0 -274 250 -275q115 0 177 65
t63 181v291q0 250 -13 354q143 0 211 8q-8 -57 -8 -219z" />
    <glyph glyph-name="uogonek.sc" horiz-adv-x="1177" 
d="M416 -268q0 127 157 241h-4q-186 1 -301 105t-114 284v320q0 268 -11 354q141 0 207 8q-6 -66 -6 -219v-405q0 -274 250 -275q115 0 177 65t63 181v291q0 250 -13 354q143 0 211 8q-8 -57 -8 -219v-385q0 -124 -28 -200t-85 -134t-161 -116q-182 -104 -183 -232
q0 -38 25 -62t78 -24t121 43l-11 -127q-61 -41 -154 -41q-94 1 -152 51t-58 134z" />
    <glyph glyph-name="uring.sc" horiz-adv-x="1177" 
d="M698 1416q0 52 -28 85q-29 33 -82 33t-83 -33t-30 -84t31 -86t82 -35t81 34q29 34 29 86zM829 1422q-1 -95 -69 -165q-68 -69 -176 -69t-174 63t-66 159t69 164q69 66 177 66t174 -61q65 -62 65 -157zM1024 825v-385q0 -227 -121 -347t-321 -120q-200 1 -314 105
q-115 104 -114 284v320q0 268 -11 354q141 0 207 8q-6 -66 -6 -219v-405q0 -274 250 -275q115 0 177 65t63 181v291q0 250 -13 354q143 0 211 8q-8 -57 -8 -219z" />
    <glyph glyph-name="wacute.sc" horiz-adv-x="1538" 
d="M852 1485l268 18l-329 -305l-129 -10zM1507 1036l-286 -751q-72 -186 -107 -295l-70 -15l-272 717l-162 -413q-8 -23 -33 -84t-83 -215l-70 -5l-274 756q-53 147 -119 301l202 12l248 -698l258 698l70 13l270 -701l135 398q25 74 91 282h202z" />
    <glyph glyph-name="wcircumflex.sc" horiz-adv-x="1538" 
d="M662 1505h235l197 -311l-140 -12l-178 198l-168 -182h-164zM1507 1036l-286 -751q-72 -186 -107 -295l-70 -15l-272 717l-162 -413q-8 -23 -33 -84t-83 -215l-70 -5l-274 756q-53 147 -119 301l202 12l248 -698l258 698l70 13l270 -701l135 398q25 74 91 282h202z" />
    <glyph glyph-name="wdieresis.sc" horiz-adv-x="1538" 
d="M1073 1360q0 -51 -35 -90t-87 -39t-85 36q-32 36 -32 88t34 91q35 39 87 39t85 -37t33 -88zM705 1360q0 -51 -35 -90t-87 -39t-85 36t-33 88t35 91t87 39t85 -37t33 -88zM1507 1036l-286 -751q-72 -186 -107 -295l-70 -15l-272 717l-162 -413q-8 -23 -33 -84t-83 -215
l-70 -5l-274 756q-53 147 -119 301l202 12l248 -698l258 698l70 13l270 -701l135 398q25 74 91 282h202z" />
    <glyph glyph-name="wgrave.sc" horiz-adv-x="1538" 
d="M440 1485l232 18l186 -305l-121 -10zM1507 1036l-286 -751q-72 -186 -107 -295l-70 -15l-272 717l-162 -413q-8 -23 -33 -84t-83 -215l-70 -5l-274 756q-53 147 -119 301l202 12l248 -698l258 698l70 13l270 -701l135 398q25 74 91 282h202z" />
    <glyph glyph-name="yacute.sc" horiz-adv-x="1003" 
d="M590 1485l268 18l-330 -305l-129 -10zM596 213q0 -158 8 -213h-209q12 106 13 356v84l-154 244q-153 246 -227 352l211 13l268 -447l80 127q29 45 100 166q72 121 86 143h213l-389 -592v-233z" />
    <glyph glyph-name="ycircumflex.sc" horiz-adv-x="1003" 
d="M399 1505h236l196 -311l-139 -12l-178 198l-168 -182h-164zM596 213q0 -158 8 -213h-209q12 106 13 356v84l-154 244q-153 246 -227 352l211 13l268 -447l80 127q29 45 100 166q72 121 86 143h213l-389 -592v-233z" />
    <glyph glyph-name="ydieresis.sc" horiz-adv-x="1003" 
d="M325 1485q53 0 85 -37t32 -88t-34 -90t-88 -39q-52 0 -84 36t-33 88q0 52 35 91t87 39zM811 1360q0 -51 -35 -90t-87 -39t-85 36t-33 88t35 91t87 39t85 -37t33 -88zM596 213q0 -158 8 -213h-209q12 106 13 356v84l-154 244q-153 246 -227 352l211 13l268 -447l80 127
q29 45 100 166q72 121 86 143h213l-389 -592v-233z" />
    <glyph glyph-name="ygrave.sc" horiz-adv-x="1003" 
d="M178 1485l232 18l186 -305l-121 -10zM596 213q0 -158 8 -213h-209q12 106 13 356v84l-154 244q-153 246 -227 352l211 13l268 -447l80 127q29 45 100 166q72 121 86 143h213l-389 -592v-233z" />
    <glyph glyph-name="zacute.sc" horiz-adv-x="1001" 
d="M618 1485l269 18l-330 -305l-129 -10zM561 158q166 0 350 4q-8 -76 -12 -168q-115 8 -391 8t-418 -8l-41 39l604 848q-49 2 -184 2t-348 -4q6 72 6 165q209 -6 424 -6t362 6l39 -36l-602 -848q45 -2 211 -2z" />
    <glyph glyph-name="zcaron.sc" horiz-adv-x="1001" 
d="M647 1200h-235l-201 305l145 13l176 -193l170 182h158zM561 158q166 0 350 4q-8 -76 -12 -168q-115 8 -391 8t-418 -8l-41 39l604 848q-49 2 -184 2t-348 -4q6 72 6 165q209 -6 424 -6t362 6l39 -36l-602 -848q45 -2 211 -2z" />
    <glyph glyph-name="zdotaccent.sc" horiz-adv-x="1001" 
d="M538 1485q52 0 84 -37t33 -88q-1 -51 -35 -90t-86 -39t-86 36q-32 36 -32 88t35 91t87 39zM561 158q166 0 350 4q-8 -76 -12 -168q-115 8 -391 8t-418 -8l-41 39l604 848q-49 2 -184 2t-348 -4q6 72 6 165q209 -6 424 -6t362 6l39 -36l-602 -848q45 -2 211 -2z" />
    <glyph glyph-name="ae.sc" horiz-adv-x="1409" 
d="M694 688q0 92 -2 146l-258 -431h260v285zM1006 2q-196 0 -322 -8q6 47 10 264h-344q-51 -84 -147 -258h-209l463 756q117 195 168 288q160 -6 343 -6t339 6q-12 -76 -13 -167q-84 2 -274 2h-133q-2 -27 -2 -74v-184l352 4q-4 -45 -4 -162l-348 2v-229q0 -49 2 -74l133 -2
q172 0 315 6q-6 -55 -10 -172q-123 8 -319 8z" />
    <glyph glyph-name="aeacute.sc" horiz-adv-x="1409" 
d="M961 1485l268 18l-330 -305l-129 -10zM694 688q0 92 -2 146l-258 -431h260v285zM1006 2q-196 0 -322 -8q6 47 10 264h-344q-51 -84 -147 -258h-209l463 756q117 195 168 288q160 -6 343 -6t339 6q-12 -76 -13 -167q-84 2 -274 2h-133q-2 -27 -2 -74v-184l352 4
q-4 -45 -4 -162l-348 2v-229q0 -49 2 -74l133 -2q172 0 315 6q-6 -55 -10 -172q-123 8 -319 8z" />
    <glyph glyph-name="oe.sc" horiz-adv-x="1488" 
d="M285 515q0 -159 99 -255t275 -96q33 0 111 4q2 25 2 86v543q0 49 -2 75q-82 8 -115 9q-188 1 -279 -103t-91 -263zM94 510q0 232 150 383t393 151l418 -6q184 0 331 6q-12 -76 -12 -167q-84 2 -274 2h-133q-2 -27 -2 -74v-184l352 4q-4 -45 -4 -162l-348 2v-229
q0 -49 2 -74l133 -2q170 0 315 6q-6 -55 -10 -172q-123 8 -315 8l-422 -2q-270 0 -422 139t-152 371z" />
    <glyph glyph-name="eth.sc" horiz-adv-x="1132" 
d="M846 529q0 159 -100 255t-275 97q-33 0 -111 -4q-2 -25 -2 -86v-191q117 0 220 6q-10 -76 -11 -162q-135 4 -198 5h-11v-201q0 -49 2 -76q82 -8 115 -8q188 0 280 103q91 103 91 262zM1036 534q0 -232 -150 -382q-150 -152 -392 -152h-338q10 90 10 356v93l-141 -5
q6 61 6 162l135 -6v82q0 264 -10 354l307 8q269 0 421 -139t152 -371z" />
    <glyph glyph-name="thorn.sc" horiz-adv-x="991" 
d="M481 864q203 0 316 -91t113 -246t-120 -252q-118 -97 -341 -97q-68 0 -91 2q0 -125 7 -180h-209q10 90 10 356v326q0 268 -10 354q143 0 209 8q-7 -37 -7 -182q39 2 123 2zM356 616v-280q24 -4 120 -4t170 48t75 138q0 180 -250 180q-74 0 -113 -2q-2 -31 -2 -80z" />
    <glyph glyph-name="one.alt" horiz-adv-x="653" 
d="M233 346v330q0 229 -14 358q104 0 211 10q-8 -74 -8 -225v-614q0 -131 8 -205h-211q14 127 14 346z" />
    <glyph glyph-name="zero.lin" horiz-adv-x="1273" 
d="M637 133q147 0 235 164q88 163 88 415t-88 405t-235 153t-235 -164t-89 -416q1 -252 89 -404q88 -153 235 -153zM646 1440q241 0 376 -201t135 -525t-145 -538q-145 -213 -386 -213t-375 201q-134 202 -134 526t144 537t385 213z" />
    <glyph glyph-name="one.lin" horiz-adv-x="827" 
d="M575 207q0 -141 7 -207h-207q10 84 10 346v856l-301 -94l-43 166q139 41 367 117l149 49l25 -19q-6 -55 -7 -219v-995z" />
    <glyph glyph-name="two.lin" horiz-adv-x="1155" 
d="M568 0q-260 0 -455 -8l-27 133q395 385 477 475q201 219 225 367q4 29 5 57q0 104 -68 166t-182 63q-170 0 -336 -141l-68 166q197 156 405 156t326 -104t119 -281q0 -101 -44 -201t-96 -168t-180 -212t-294 -296q408 0 655 8q-8 -74 -14 -188q-188 8 -448 8z" />
    <glyph glyph-name="three.lin" horiz-adv-x="1087" 
d="M438 147q150 1 238 57t88 152q0 119 -119 190t-358 79l-25 139q231 49 354 136t123 185q0 72 -64 121q-65 49 -162 49q-97 -1 -184 -31t-147 -79l-67 164q191 125 387 125t316 -94t120 -234q0 -250 -348 -371q375 -82 375 -356q1 -180 -141 -296q-142 -115 -346 -115
t-355 55l-33 190q197 -66 348 -66z" />
    <glyph glyph-name="four.lin" horiz-adv-x="1196" 
d="M739 528v562l-458 -562h458zM739 344v29h-94q-362 0 -557 -8l-43 127l598 741l160 203l129 -13q-6 -90 -6 -235v-660q119 0 217 4q-14 -90 -17 -167l-200 6v-127q0 -176 6 -244h-203q10 86 10 344z" />
    <glyph glyph-name="five.lin" horiz-adv-x="1099" 
d="M981 404q0 -190 -137 -313q-137 -124 -342 -124t-352 56l-33 188q193 -66 346 -66t238 76q85 77 85 191t-105 185t-306 71q-55 0 -166 -13l-29 15q8 106 13 235l8 252q4 174 0 217l32 31q227 -6 353 -6t360 6q-16 -61 -26 -195q-217 4 -338 4h-193l-14 -378l78 2
q258 0 393 -122t135 -312z" />
    <glyph glyph-name="six.lin" horiz-adv-x="1146" 
d="M584 133q124 0 200 89t76 219t-80 210t-199 80t-199 -84t-81 -213q0 -129 80 -215t203 -86zM616 899q188 0 315 -128q126 -129 126 -327t-136 -340q-135 -142 -351 -141q-216 0 -342 152t-126 411q0 362 198 606t595 318l45 -168q-530 -100 -645 -541q133 158 321 158z
" />
    <glyph glyph-name="seven.lin" horiz-adv-x="1097" 
d="M540 1399q206 0 441 6l47 -88q-14 -23 -125 -252l-399 -805q-90 -172 -129 -276l-215 28q66 111 186 348l424 854h-281q-276 0 -407 -2q14 173 14 193q238 -6 444 -6z" />
    <glyph glyph-name="eight.lin" horiz-adv-x="1179" 
d="M358 1063q0 -158 260 -256q106 39 167 108q61 70 61 157q0 88 -70 146t-176 58t-174 -60t-68 -153zM868 356q0 98 -66 168q-67 70 -212 125q-279 -104 -279 -293q0 -104 84 -166t205 -63q120 -1 194 65t74 164zM590 -37q-211 -1 -343 109t-132 256t84 244q84 97 229 149
q-120 49 -192 135t-72 199q0 161 128 273t317 112t311 -108t120 -257q0 -211 -266 -340q291 -135 291 -370q0 -172 -132 -287t-343 -115z" />
    <glyph glyph-name="nine.lin" horiz-adv-x="1146" 
d="M563 1268q-123 0 -199 -90t-77 -219q0 -129 80 -209q81 -80 199 -80t199 84t81 213t-80 215t-203 86zM90 956q0 198 136 340t351 142t341 -152t126 -412q0 -362 -198 -606t-594 -317l-45 168q532 98 643 540q-127 -158 -334 -157q-174 0 -300 128t-126 326z" />
    <glyph glyph-name="hyphen.lin" horiz-adv-x="913" 
d="M539 637h-185q-86 0 -221 -4q6 59 6 155q151 -6 321 -6t320 6q-10 -68 -10 -155q-160 4 -231 4z" />
    <glyph glyph-name="endash.lin" horiz-adv-x="1136" 
d="M653 637h-176q-111 0 -344 -4q6 59 6 155q209 -6 433 -6t432 6q-10 -68 -11 -155q-238 4 -340 4z" />
    <glyph glyph-name="emdash.lin" horiz-adv-x="2068" 
d="M1518 637h-973q-178 0 -412 -4q6 59 6 155q209 -6 898 -6t898 6q-10 -68 -10 -155q-238 4 -407 4z" />
    <glyph glyph-name="parenleft.lin" horiz-adv-x="854" 
d="M164 704q0 312 167 570t443 414l72 -125q-220 -135 -362 -349t-142 -504q0 -288 143 -504t363 -351l-74 -119q-274 156 -442 406t-168 562z" />
    <glyph glyph-name="parenright.lin" horiz-adv-x="854" 
d="M512 713q0 289 -143 503t-365 351l76 121q274 -156 442 -406t168 -563t-167 -570t-443 -413l-72 125q219 135 362 349q142 214 142 503z" />
    <glyph glyph-name="bracketleft.lin" horiz-adv-x="798" 
d="M511 -256q-171 0 -275 -8l-25 14q12 121 12 410v1100q0 281 -12 399l27 29q277 -21 538 -2q-6 -57 -10 -160q-180 4 -256 4t-119 -2v-1372q0 -197 8 -262l127 -3q80 1 260 5q-14 -78 -16 -160q-88 8 -259 8z" />
    <glyph glyph-name="bracketright.lin" horiz-adv-x="798" 
d="M575 162q0 -281 13 -400l-27 -28q-129 10 -273 10t-265 -8q6 57 10 160q306 -7 375 -2v1366q0 203 -9 268l-127 2q-80 0 -260 -4q14 78 17 160q89 -8 259 -8t275 8l25 -15q-12 -121 -13 -409v-1100z" />
    <glyph glyph-name="braceleft.lin" horiz-adv-x="833" 
d="M432 895q0 33 -38 95q-112 184 -111 288q0 305 413 403l37 -118q-281 -84 -280 -242q1 -59 69 -186t68 -189q0 -152 -215 -235q125 -43 170 -101t45 -128q0 -68 -69 -194t-68 -186q0 -158 280 -241l-37 -119q-414 98 -413 403q0 109 111 287q38 61 38 94t-60 65
q-61 31 -225 68v103q164 37 225 68q60 32 60 65z" />
    <glyph glyph-name="braceright.lin" horiz-adv-x="833" 
d="M401 899q0 -71 285 -135v-102q-282 -64 -284 -134q0 -33 36 -95q37 -62 75 -140t38 -148q0 -305 -414 -403l-37 119q281 84 281 241q0 58 -69 186t-68 189q0 152 215 236q-125 43 -170 101t-45 126t68 196q68 126 69 185q0 158 -281 242l37 118q414 -98 414 -403
q0 -70 -38 -148t-75 -139t-37 -92z" />
    <glyph glyph-name="at.cap" horiz-adv-x="1705" 
d="M925 977q-89 0 -169 -111t-80 -243q0 -164 94 -164q72 0 159 105t107 255l19 119q-41 39 -130 39zM1143 336q-100 0 -132 74t3 174q-54 -108 -142 -178t-168 -70t-126 70q-47 70 -48 180q0 182 125 347t289 165q115 0 156 -45l106 55l13 -14l-80 -521q-14 -92 2 -114
t47 -23q111 0 206 118t95 309t-121 340q-61 75 -170 119t-250 44q-274 0 -470 -209t-196 -491t164 -439q164 -156 424 -155q123 0 256 34t228 95l39 -90q-244 -147 -543 -147t-492 197q-192 198 -192 460q0 261 120 457t304 296t391 101q291 -1 458 -175t167 -403t-133 -395
t-330 -166z" />
    <glyph glyph-name="registered.alt" horiz-adv-x="1777" 
d="M801 735h78q71 0 111 36t40 92t-37 90t-90 34t-102 -4v-248zM801 621v-158q0 -53 4 -115h-164q6 78 6 260v238q0 180 -6 258l227 6q152 2 237 -62t83 -163q-6 -152 -152 -226l131 -188q51 -74 86 -117l-174 -14l-184 281h-94zM1530 719q0 269 -186 459t-455 190
t-455 -190t-186 -458t186 -460q186 -190 454 -190t456 190q186 190 186 459zM1645 719q1 -313 -221 -535t-535 -221q-313 0 -535 221q-221 220 -221 534t221 535q220 221 534 221t536 -220q222 -222 221 -535z" />
    <glyph glyph-name="dollar.lin" horiz-adv-x="1144" 
d="M328 1059q0 -78 53 -127t151 -88l23 291l6 122q-105 -12 -169 -66t-64 -132zM858 360q0 83 -52 136t-149 98l-30 -449q106 16 169 74q62 58 62 141zM608 -268h-172q4 31 23 235q-211 18 -385 115l12 207q64 -51 170 -93t217 -55l43 510q-156 63 -259 134
q-126 89 -126 247t123 273t317 131q8 109 13 213q104 0 164 6q-8 -78 -21 -223q168 -18 293 -97l-66 -174q-106 70 -245 92l-37 -462q152 -57 268 -142q115 -85 115 -253t-119 -288q-119 -118 -320 -141q-8 -112 -8 -235z" />
    <glyph glyph-name="sterling.lin" horiz-adv-x="1095" 
d="M94 801h176q-51 111 -51 209q0 180 130 304q129 124 321 124t319 -68l-43 -176q-123 66 -252 66t-204 -60q-147 -119 -5 -397q227 2 410 16q-4 -35 -10 -180q-162 4 -326 -2q20 -61 21 -117q0 -195 -162 -344q197 0 629 17q-14 -100 -15 -201q-142 8 -456 8t-482 -12
l-28 143q166 78 246 163t81 200q0 59 -35 133l-270 -4q6 66 6 178z" />
    <glyph glyph-name="Euro.lin" horiz-adv-x="1394" 
d="M928 1438q232 0 389 -117l-55 -176q-66 51 -161 83t-186 32q-145 0 -263 -80t-177 -219h201q287 0 477 6q-14 -86 -18 -170q-135 2 -459 2h-244q-6 -49 -6 -101t6 -98h244q268 0 438 8l-20 -174q-131 2 -418 2h-199q59 -141 180 -217t269 -76q240 0 405 158l-12 -217
q-181 -121 -411 -121t-402 129t-238 344q-170 0 -243 -2q6 61 6 174q66 -4 207 -8q-2 22 -2 82t8 117l-209 -2q10 109 10 170q203 -6 236 -6q74 219 244 348q171 129 403 129z" />
    <glyph glyph-name="yen.lin" horiz-adv-x="1325" 
d="M756 457q252 0 446 6q-6 -29 -16 -172q-129 4 -430 4v-10q0 -199 6 -285h-209q6 92 12 295q-319 0 -450 -4q6 66 6 172q188 -6 444 -6l2 143l-28 45q-297 0 -420 -2q6 61 6 168q180 -8 315 -8l-84 137l-301 463l217 14l392 -647l114 186q86 141 264 449h232l-393 -602
q141 0 325 8q-6 -29 -16 -168q-123 2 -412 2l-22 -37v-151z" />
    <glyph glyph-name="cent.lin" horiz-adv-x="1024" 
d="M289 711q0 -262 184 -334q2 37 10 149l31 457q0 35 2 53q-109 -28 -168 -114t-59 -211zM530 1399q74 0 166 10q-10 -90 -16 -199q141 -18 258 -98l-55 -166q-92 74 -215 94q-4 -45 -4 -61l-39 -623q162 6 311 133l-8 -202q-156 -90 -314 -97q-6 -139 -4 -190h-164l17 203
q-166 39 -267 169q-102 130 -102 320t121 338q121 150 309 178q6 129 6 191z" />
    <glyph glyph-name="R_p" horiz-adv-x="2324" 
d="M414 719h207q129 0 205 77t77 187q0 258 -313 258l-176 -2v-520zM2023 492q0 154 -79 235q-80 80 -201 80q-69 0 -135 -39t-109 -102v-445q82 -96 238 -96q125 0 206 106q80 107 80 261zM2208 486q0 -220 -146 -372t-308 -151q-163 0 -255 78v-270q0 -123 8 -191
l-211 -18q14 123 15 346v686q0 225 -15 348q102 0 185 8l8 -127q123 147 308 147t298 -132t113 -352zM414 551v-264q0 -205 6 -289h-219q12 115 12 483v443q0 367 -12 481q2 0 370 8q253 6 397 -113t140 -292q-8 -283 -293 -410l203 -301q158 -222 209 -285l-234 -26
l-362 565h-217z" />
    <glyph glyph-name="numbersign.lin" horiz-adv-x="1478" 
d="M588 874l-43 -352h334l47 350zM1024 358q-34 -309 -37 -358h-190q31 117 61 358l-334 2l-2 -20q-31 -236 -35 -340h-190q27 117 61 360q-264 0 -329 -6q27 152 28 172q102 -4 322 -4l45 355q-184 0 -332 -7q25 137 29 168q102 -4 325 -4q25 207 29 371q98 0 189 10
q-33 -176 -52 -352l-4 -29h338q27 229 31 371q96 0 188 10q-6 -31 -15 -95q-10 -64 -22 -146q-12 -80 -16 -111l-4 -29q240 0 342 4q-20 -74 -31 -168l-332 2l-43 -350q236 0 342 4q-27 -102 -30 -172z" />
    <glyph glyph-name="paragraph.lin" horiz-adv-x="1419" 
d="M1028 479v441q0 387 -16 483q117 0 217 8q-10 -98 -10 -293v-833q0 -193 10 -285h-217q16 129 16 479zM854 1118v-833q0 -211 8 -285h-213q14 168 15 479v41q-297 0 -440 125q-142 125 -142 338q0 176 137 302t381 126l262 -4q-8 -80 -8 -289z" />
    <glyph glyph-name="section.lin" horiz-adv-x="976" 
d="M291 582q0 -56 61 -102t209 -109q66 25 106 69t40 94q0 52 -43 95t-87 65t-133 62q-153 -53 -153 -174zM98 561q0 190 191 279q-150 94 -150 238t109 252t291 108t315 -90l-55 -170q-133 90 -275 90q-84 0 -139 -42t-55 -108t58 -116q58 -48 140 -86t165 -80t141 -112
q58 -71 59 -165q0 -176 -174 -278q151 -92 151 -242t-114 -255q-114 -106 -306 -106t-350 95l11 194q166 -119 344 -119q100 0 161 46q62 46 62 115t-60 115t-144 83q-85 37 -171 78q-85 41 -145 111t-60 165z" />
    <glyph glyph-name="ordfeminine.lin" horiz-adv-x="716" 
d="M229 1067q0 -39 24 -63t73 -25q49 0 88 35t41 90l2 63q-41 4 -58 4q-170 0 -170 -104zM465 965q-59 -103 -210 -103q-75 0 -129 50t-54 142t85 148q85 57 240 58q20 0 62 -5l2 29q6 117 -127 117q-104 0 -184 -58l-29 130q121 65 246 65t188 -63t59 -183l-8 -258
q0 -55 41 -55l37 6l21 -82q-57 -41 -121 -41q-100 0 -119 103z" />
    <glyph glyph-name="ordmasculine.lin" horiz-adv-x="776" 
d="M563 1203q0 95 -46 149t-118 55q-73 0 -119 -57q-46 -56 -46 -152t44 -151t118 -55t120 58q47 58 47 153zM404 1538q146 0 234 -94q89 -94 89 -238t-94 -244q-93 -100 -239 -102q-146 0 -235 94t-89 238t94 245t240 101z" />
    <glyph glyph-name="degree.lin" horiz-adv-x="761" 
d="M389 1036q76 0 120 52t44 137q0 84 -43 134t-119 50t-120 -52t-44 -135q0 -82 43 -134t119 -52zM700 1230q0 -134 -89 -230t-227 -95q-138 0 -221 89t-83 222q0 134 88 228t226 94t222 -87t84 -221z" />
    <glyph glyph-name="percent.lin" horiz-adv-x="1550" 
d="M991 238q0 -126 90 -127q90 1 162 123t72 250t-90 128t-162 -124t-72 -250zM326 786q90 0 162 123t71 251q0 128 -90 128t-162 -124q-71 -124 -71 -251t90 -127zM272 -66l-133 66q164 203 273 344l600 782q227 301 254 338l135 -71q-53 -63 -195 -248l-768 -1000
q-38 -48 -90 -114q-51 -66 -76 -97zM1231 754q113 0 177 -76t65 -193q0 -186 -122 -351t-278 -165q-113 0 -177 76t-65 193q0 186 122 351t278 165zM475 1430q113 0 177 -76t65 -193q0 -186 -122 -351t-278 -165q-113 0 -177 76t-64 192q0 185 122 351t277 166z" />
    <glyph glyph-name="quotedbl.lin" horiz-adv-x="731" 
d="M190 1014l-104 -25q23 272 18 529q178 25 215 28q-51 -282 -129 -532zM547 1026l-105 -25q23 272 19 529q186 27 213 29q-53 -297 -127 -533z" />
    <glyph glyph-name="quotesingle.lin" horiz-adv-x="374" 
d="M190 1014l-104 -25q23 272 18 529q178 25 215 28q-51 -282 -129 -532z" />
    <glyph glyph-name="plus.lin" horiz-adv-x="1167" 
d="M662 604v-63q0 -236 8 -312h-178q10 96 14 375h-55l-297 -4q6 55 6 160q104 -4 346 -8q-4 272 -14 368q45 0 178 10q-8 -80 -8 -321v-57q276 4 352 8q-8 -49 -13 -160l-301 4h-38z" />
    <glyph glyph-name="minus.lin" horiz-adv-x="1167" 
d="M623 602h-84q-111 0 -344 -4q6 57 6 164q209 -6 386 -6t386 6q-10 -68 -10 -164q-238 4 -340 4z" />
    <glyph glyph-name="divide.lin" horiz-adv-x="1167" 
d="M723 325q0 -53 -35 -93t-91 -40t-89 38q-33 36 -33 88t35 92t90 41q55 0 89 -37t34 -89zM723 1039q0 -52 -35 -92t-91 -40t-89 37t-33 89t35 92t90 40t89 -37t34 -89zM674 602h-146q-131 0 -364 -4q6 57 6 164q209 -6 437 -6t437 6q-10 -68 -10 -164q-238 4 -360 4z" />
    <glyph glyph-name="equal.lin" horiz-adv-x="1167" 
d="M588 572q166 0 407 8q-6 -47 -12 -166l-285 4h-241l-283 -4q6 55 6 166q242 -8 408 -8zM588 934q166 0 407 8q-6 -47 -12 -166l-285 4h-241l-283 -4q6 55 6 166q242 -8 408 -8z" />
    <glyph glyph-name="multiply.lin" horiz-adv-x="1167" 
d="M887 1110q12 -17 110 -125q-92 -90 -303 -309q122 -126 201 -205l115 -115q-33 -27 -125 -112q-102 117 -299 325q-150 -152 -314 -323q-31 39 -112 121q258 252 317 311q-188 188 -317 311q63 45 127 109q220 -231 299 -314q152 156 301 326z" />
    <glyph glyph-name="less.lin" horiz-adv-x="1167" 
d="M825 178q-129 102 -577 440l-4 99q307 236 579 461l92 -136q-160 -117 -280 -211l-199 -157l209 -162q145 -115 275 -199z" />
    <glyph glyph-name="greater.lin" horiz-adv-x="1167" 
d="M342 1178q129 -102 578 -441l4 -98q-307 -236 -580 -461l-92 135q160 117 280 211l197 158l-207 162q-145 115 -274 198z" />
    <glyph glyph-name="plusminus.lin" horiz-adv-x="1167" 
d="M518 109q-111 0 -344 -5q6 57 6 162q208 -6 406 -6t407 6q-10 -68 -10 -162q-238 4 -340 5h-125zM664 766v-21q0 -236 8 -311h-183q10 106 15 332h-35l-295 -4q6 55 6 164q121 -4 324 -8q-4 221 -15 325q49 0 183 10q-8 -80 -8 -317v-18q235 4 329 8q-8 -49 -12 -164
l-299 4h-18z" />
    <glyph glyph-name="onehalf.alt" horiz-adv-x="1912" 
d="M512 598h-178q-111 0 -191 -2q0 88 -4 137q55 -4 158 -4h57q2 35 2 96v432l-194 -57l-25 131q140 36 238 72l94 29l37 -13q-4 -33 -4 -141v-549h39q119 0 164 4q-2 -25 -3 -137q-59 2 -190 2zM573 -31l-120 51q104 145 229 332l496 764q188 287 211 328l62 -31
q42 -20 58 -29q-33 -45 -161 -237l-639 -975q-21 -35 -136 -203zM1490 0q-106 0 -290 -4l-16 110q250 211 303 265q125 125 125 209q0 53 -36 83t-99 29q-107 0 -211 -90l-56 125q126 107 264 107t215 -62t77 -156t-46 -164q-86 -134 -317 -319q59 0 385 6l-8 -143
q-184 4 -290 4z" />
    <glyph glyph-name="onethird.alt" horiz-adv-x="1912" 
d="M512 598h-178q-111 0 -191 -2q0 88 -4 137q55 -4 158 -4h57q2 35 2 96v432l-194 -57l-25 131q140 36 238 72l94 29l37 -13q-4 -33 -4 -141v-549h39q119 0 164 4q-2 -25 -3 -137q-59 2 -190 2zM575 -31l-120 51q104 145 229 332l496 764q188 287 211 328l62 -31
q42 -20 58 -29q-33 -45 -161 -237l-639 -975q-21 -35 -136 -203zM1432 117q94 1 150 29t56 75q0 123 -286 129l-17 99q291 53 291 161q0 37 -41 62t-115 24q-123 0 -219 -59l-41 123q138 72 274 72t216 -56q80 -55 80 -139q0 -143 -224 -213q240 -45 240 -201
q0 -109 -96 -175t-234 -67q-138 0 -237 31l-21 140q130 -35 224 -35z" />
    <glyph glyph-name="onequarter.alt" horiz-adv-x="1912" 
d="M1561 666l-277 -349h275zM512 598h-178q-111 0 -191 -2q0 88 -4 137q55 -4 158 -4h57q2 35 2 96v432l-194 -57l-25 131q140 36 238 72l94 29l37 -13q-4 -33 -4 -141v-549h39q119 0 164 4q-2 -25 -3 -137q-59 2 -190 2zM616 -31l-120 51q104 145 229 332l496 764
q188 287 211 328l62 -31q42 -20 58 -29q-33 -45 -161 -237l-639 -975q-21 -35 -136 -203zM1554 176v27h-69q-252 0 -334 -4l-23 110l340 426q12 15 46 57t49 56l133 -10q-4 -35 -4 -140v-374q98 0 127 2q-10 -78 -11 -127q-29 2 -116 2v-66q0 -106 4 -135h-148q6 37 6 176z
" />
    <glyph glyph-name="onefifth.alt" horiz-adv-x="1912" 
d="M512 598h-178q-111 0 -191 -2q0 88 -4 137q55 -4 158 -4h57q2 35 2 96v432l-194 -57l-25 131q140 36 238 72l94 29l37 -13q-4 -33 -4 -141v-549h39q119 0 164 4q-2 -25 -3 -137q-59 2 -190 2zM586 -31l-121 51q104 145 229 332l496 764q188 287 211 328l62 -31
q42 -20 59 -29q-33 -45 -162 -237l-639 -975q-20 -35 -135 -203zM1523 811q24 0 244 4q-16 -139 -16 -145q-76 2 -221 2h-133l-8 -178h47q170 0 262 -68t92 -184t-90 -189q-90 -72 -232 -72t-245 33l-17 140q132 -37 230 -37t149 36t51 89q0 129 -258 129q-57 0 -118 -6
l-17 10l12 280v144l19 16q225 -4 249 -4z" />
    <glyph glyph-name="onesixth.alt" horiz-adv-x="1912" 
d="M1661 261q0 71 -44 111t-117 40t-120 -42t-47 -111t46 -113t119 -44t118 44t45 115zM512 598h-178q-111 0 -191 -2q0 88 -4 137q55 -4 158 -4h57q2 35 2 96v432l-194 -57l-25 131q140 36 238 72l94 29l37 -13q-4 -33 -4 -141v-549h39q119 0 164 4q-2 -25 -3 -137
q-59 2 -190 2zM590 -31l-121 51q104 145 229 332l496 764q188 287 211 328l62 -31q42 -20 59 -29q-33 -45 -162 -237l-639 -975q-20 -35 -135 -203zM1182 317q0 211 134 351t390 172l29 -131q-326 -41 -402 -260q80 75 200 75t199 -74q78 -74 78 -189q0 -116 -89 -199
q-89 -82 -232 -82t-225 89t-82 248z" />
    <glyph glyph-name="oneeighth.alt" horiz-adv-x="1912" 
d="M1358 612q0 -88 158 -135q137 37 137 131q0 49 -40 80t-108 31q-67 0 -107 -31t-40 -76zM1663 218q0 54 -44 86t-124 58q-162 -47 -162 -147q0 -53 48 -86t123 -33t117 34t42 88zM512 598h-178q-111 0 -191 -2q0 88 -4 137q55 -4 158 -4h57q2 35 2 96v432l-194 -57
l-25 131q140 36 238 72l94 29l37 -13q-4 -33 -4 -141v-549h39q119 0 164 4q-2 -25 -3 -137q-59 2 -190 2zM588 -31l-121 51q104 145 229 332l496 764q188 287 211 328l62 -31q42 -20 59 -29q-33 -45 -162 -237l-639 -975q-20 -35 -135 -203zM1812 217q0 -105 -88 -171
t-228 -66t-225 63t-85 162q0 152 188 213q-160 63 -160 190q0 98 84 163t210 65t206 -62t82 -156q2 -127 -164 -194q180 -74 180 -207z" />
    <glyph glyph-name="one.sup_alt" 
d="M512 893h-178q-111 0 -191 -2q0 88 -4 137q55 -4 158 -4h57q2 35 2 96v432l-194 -57l-25 131q140 36 238 72l94 28l37 -12q-4 -33 -4 -141v-551h39q96 0 164 6q-2 -25 -3 -137q-59 2 -190 2z" />
    <glyph glyph-name="one.inf_alt" 
d="M512 -418h-178q-111 0 -191 -2q0 88 -4 137q55 -4 158 -4h57q2 37 2 97v432l-194 -58l-25 131q91 23 155 45q64 21 83 27l94 29l37 -13q-4 -33 -4 -141v-551h39q96 0 164 6q-2 -25 -3 -137q-59 2 -190 2z" />
    <glyph glyph-name="zero.tab" horiz-adv-x="1146" 
d="M572 133q136 0 219 164q81 163 81 415t-80 405q-82 153 -218 153t-218 -164t-82 -416t81 -404q81 -153 217 -153zM582 1440q234 0 361 -200q126 -200 126 -528t-135 -538q-135 -211 -375 -211q-157 0 -267 95q-214 184 -214 620q0 340 135 551t369 211z" />
    <glyph glyph-name="one.tab" horiz-adv-x="1146" 
d="M659 0h-192q-98 0 -313 -6q-4 143 -9 182q104 -4 261 -4h110q2 63 2 174v856l-321 -104l-37 170q104 31 381 123l149 49l25 -19q-6 -55 -6 -219v-1030h73q195 0 279 4l-4 -182q-156 6 -398 6z" />
    <glyph glyph-name="two.tab" horiz-adv-x="1146" 
d="M564 0q-264 0 -458 -8l-26 133q38 35 150 143t182 176t162 168q93 100 129 156q92 144 92 252t-70 170t-188 63q-174 0 -347 -157l-67 166q203 172 415 172t334 -104t121 -270q0 -167 -90 -298q-49 -74 -90 -123q-215 -256 -444 -467q412 0 663 8l-14 -188q-190 8 -454 8
z" />
    <glyph glyph-name="three.tab" horiz-adv-x="1146" 
d="M465 147q166 1 264 57t98 152q0 119 -120 190q-121 71 -367 79l-25 139q238 49 363 136t125 185q0 72 -70 121t-176 49q-107 -1 -205 -31t-168 -79l-67 164q211 125 423 125t337 -94t124 -234q0 -250 -368 -371q395 -82 395 -356q0 -180 -152 -296q-152 -115 -373 -115
q-220 0 -378 55l-33 190q207 -66 373 -66z" />
    <glyph glyph-name="four.tab" horiz-adv-x="1146" 
d="M725 1106l-449 -578h447zM723 344v29h-98q-350 0 -537 -8l-43 127l737 944l129 -13q-6 -90 -6 -235v-660q100 0 187 4q-16 -104 -17 -167l-170 6v-127q0 -176 6 -244h-198q10 86 10 344z" />
    <glyph glyph-name="five.tab" horiz-adv-x="1146" 
d="M1038 406q0 -188 -148 -314t-370 -124q-222 0 -381 55l-33 188q210 -66 378 -66t264 76t96 178q0 127 -119 198t-346 71q-57 0 -180 -13l-29 15l12 235l8 252v217l33 31q246 -6 384 -6t397 6q-27 -154 -27 -195q-242 4 -377 4h-221l-14 -378l106 2q275 0 421 -122
t146 -310z" />
    <glyph glyph-name="six.tab" horiz-adv-x="1146" 
d="M870 441q0 130 -83 210t-204 80t-203 -84t-81 -213q0 -129 81 -215t206 -86t205 89q79 89 79 219zM618 899q192 0 320 -128q129 -129 129 -327t-139 -340q-138 -142 -356 -141q-218 0 -345 151t-127 412q0 362 202 606t603 318l45 -168q-541 -100 -655 -541
q131 158 323 158z" />
    <glyph glyph-name="seven.tab" horiz-adv-x="1146" 
d="M562 1399q220 0 468 6l47 -88q-10 -16 -125 -252l-420 -805q-90 -172 -129 -276l-215 28q66 111 187 348l444 854h-311q-291 0 -428 -2q14 173 14 193q248 -6 468 -6z" />
    <glyph glyph-name="eight.tab" horiz-adv-x="1146" 
d="M338 1063q0 -158 264 -256q109 39 170 109q62 70 62 156q0 88 -71 146t-179 58t-178 -60q-68 -60 -68 -153zM584 127q124 1 198 67t74 163t-68 167t-215 125q-283 -104 -282 -293q0 -104 85 -166t208 -63zM572 -37q-212 -1 -345 109t-133 256t84 244q84 97 230 149
q-119 49 -192 135t-73 199q0 161 129 273q130 112 320 112t313 -108t123 -257q0 -211 -266 -340q291 -135 291 -370q0 -172 -134 -287q-135 -115 -347 -115z" />
    <glyph glyph-name="nine.tab" horiz-adv-x="1146" 
d="M561 1268q-125 0 -205 -90t-80 -219t83 -209t204 -80t203 84t82 213t-81 215t-206 86zM80 956q0 198 139 340t356 142t345 -151t127 -413q0 -362 -202 -606t-603 -317l-45 168q541 98 655 540q-130 -157 -322 -157t-321 128t-129 326z" />
    <glyph glyph-name="dollar.tab" horiz-adv-x="1146" 
d="M319 1055q1 -72 55 -118t158 -91q6 72 15 208t16 206q-244 -21 -244 -205zM870 367q0 74 -54 126t-157 99l-30 -449q241 25 241 224zM123 1042q0 168 124 274t326 120q8 109 13 213q104 0 164 6q-8 -78 -21 -223q178 -25 303 -107l-65 -174q-106 74 -256 100l-35 -460
q166 -68 265 -143q126 -98 126 -268q0 -171 -120 -283t-329 -130q-8 -116 -8 -235h-172q4 23 23 235q-217 23 -395 125l12 207q66 -53 176 -98t223 -58l41 508q-297 120 -363 251q-32 62 -32 140z" />
    </font>
</defs>
</svg>
