<?xml version="1.0" standalone="no"?>
<!DOCTYPE svg PUBLIC "-//W3C//DTD SVG 1.1//EN" "http://www.w3.org/Graphics/SVG/1.1/DTD/svg11.dtd" >
<svg xmlns="http://www.w3.org/2000/svg">
<metadata>
Created by FontPrep 20130207 at Mon Aug 18 14:19:17 2014
 By Joe Blau
Copyright (C) 1990, 2011 Hoefler &#38; Frere-Jones. http://www.typography.com
</metadata>
<defs>
<font id="fdc62b113b3cf0247b7dbbcadc037c84" horiz-adv-x='1024' >
  <font-face 
    font-family="IdealSans-Light"
    font-weight="300"
    font-stretch="normal"
    units-per-em="2048"
    panose-1="0 0 0 0 0 0 0 0 0 0"
    ascent="1638"
    descent="-410"
    x-height="940"
    cap-height="1448"
    bbox="-350 -506 2398 2281"
    underline-thickness="102"
    underline-position="-102"
    unicode-range="U+0020-FB04"
  />
<missing-glyph horiz-adv-x="1024" 
d="M512 492l-367 -799h734zM922 1384l-353 -770l353 -770v1540zM102 -156l353 770l-353 770v-1540zM145 1536l367 -799l367 799h-734zM0 -410v2048h1024v-2048h-1024z" />
    <glyph glyph-name="f_f" unicode="ff" horiz-adv-x="1290" 
d="M1010 1067v-131h266q-8 -47 -8 -123h-258v-610q0 -125 6 -203h-158q10 111 10 338v475h-174l41 123h133v117q0 199 81 313t231 115q47 -1 96 -17l12 -135q-47 18 -90 19q-188 0 -188 -281zM367 1067v-131h266q-8 -47 -8 -123h-258v-610q0 -125 6 -203h-158q10 111 10 338
v475h-174l41 123h133v117q0 199 81 313t231 115q47 -1 96 -17l12 -135q-47 18 -90 19q-188 0 -188 -281z" />
    <glyph glyph-name="fi" unicode="fi" horiz-adv-x="1107" 
d="M367 1067v-131h266q-8 -47 -8 -123h-258v-610q0 -125 6 -203h-158q10 111 10 338v475h-174l41 123h133v117q0 199 81 313t231 115q47 -1 96 -17l12 -135q-47 18 -90 19q-188 0 -188 -281zM780 1263q0 43 29 73t73 30t72 -30t27 -70q0 -41 -29 -72q-28 -31 -72 -31t-72 29
t-28 71zM805 340v240q0 219 -12 352q96 0 159 8q-6 -55 -6 -233v-504q0 -123 6 -203h-157q10 111 10 340z" />
    <glyph glyph-name="fl" unicode="fl" horiz-adv-x="1107" 
d="M367 1067v-131h266q-8 -47 -8 -123h-258v-610q0 -125 6 -203h-158q10 111 10 338v475h-174l41 123h133v117q0 199 81 313t231 115q47 -1 96 -17l12 -135q-47 18 -90 19q-188 0 -188 -281zM805 340v770q0 225 -10 344q98 8 157 21q-6 -55 -6 -236v-1036q0 -123 6 -203
h-157q10 111 10 340z" />
    <glyph glyph-name="f_f_i" unicode="ffi" horiz-adv-x="1751" 
d="M1010 1067v-131h266q-8 -47 -8 -123h-258v-610q0 -125 6 -203h-158q10 111 10 338v475h-174l41 123h133v117q0 199 81 313t231 115q47 -1 96 -17l12 -135q-47 18 -90 19q-188 0 -188 -281zM367 1067v-131h266q-8 -47 -8 -123h-258v-610q0 -125 6 -203h-158q10 111 10 338
v475h-174l41 123h133v117q0 199 81 313t231 115q47 -1 96 -17l12 -135q-47 18 -90 19q-188 0 -188 -281zM1425 1263q0 43 29 73t73 30q43 0 71 -30t28 -70q0 -41 -29 -72t-73 -31t-71 29q-28 29 -28 71zM1450 340v240q0 219 -12 352q96 0 159 8q-6 -55 -6 -233v-504
q0 -123 6 -203h-157q10 111 10 340z" />
    <glyph glyph-name="f_f_l" unicode="ffl" horiz-adv-x="1751" 
d="M1010 1067v-131h266q-8 -47 -8 -123h-258v-610q0 -125 6 -203h-158q10 111 10 338v475h-174l41 123h133v117q0 199 81 313t231 115q47 -1 96 -17l12 -135q-47 18 -90 19q-188 0 -188 -281zM367 1067v-131h266q-8 -47 -8 -123h-258v-610q0 -125 6 -203h-158q10 111 10 338
v475h-174l41 123h133v117q0 199 81 313t231 115q47 -1 96 -17l12 -135q-47 18 -90 19q-188 0 -188 -281zM1450 340v770q0 225 -10 344q98 8 157 21q-6 -55 -6 -236v-1036q0 -123 6 -203h-157q10 111 10 340z" />
    <glyph glyph-name="f_f_b" unicode="ffb" horiz-adv-x="2404" 
d="M1010 1067v-131h266q-8 -47 -8 -123h-258v-610q0 -125 6 -203h-158q10 111 10 338v475h-174l41 123h133v117q0 199 81 313t231 115q47 -1 96 -17l12 -135q-47 18 -90 19q-188 0 -188 -281zM367 1067v-131h266q-8 -47 -8 -123h-258v-610q0 -125 6 -203h-158q10 111 10 338
v475h-174l41 123h133v117q0 199 81 313t231 115q47 -1 96 -17l12 -135q-47 18 -90 19q-188 0 -188 -281zM1829 92q146 0 244 114t98 274q0 161 -78 256q-79 95 -227 95t-275 -139v-526q92 -74 238 -74zM1915 956q173 0 285 -128t112 -340q0 -213 -144 -367t-358 -154
q-145 0 -243 80l-97 -76l-32 11q12 170 12 340v790q0 227 -10 344q39 2 157 19q-6 -51 -6 -236v-416q150 133 324 133z" />
    <glyph glyph-name="f_f_h" unicode="ffh" horiz-adv-x="2402" 
d="M1010 1067v-131h266q-8 -47 -8 -123h-258v-610q0 -125 6 -203h-158q10 111 10 338v475h-174l41 123h133v117q0 199 81 313t231 115q47 -1 96 -17l12 -135q-47 18 -90 19q-188 0 -188 -281zM367 1067v-131h266q-8 -47 -8 -123h-258v-610q0 -125 6 -203h-158q10 111 10 338
v475h-174l41 123h133v117q0 199 81 313t231 115q47 -1 96 -17l12 -135q-47 18 -90 19q-188 0 -188 -281zM2103 348v248q0 236 -194 235q-111 0 -214 -95t-104 -183v-350q0 -113 6 -203h-157q10 147 10 340v770q0 225 -10 344q98 8 157 21q-6 -55 -6 -236v-502q55 90 153 155
t204 64q141 0 219 -84t78 -243v-418q0 -51 6 -211h-160q12 131 12 348z" />
    <glyph glyph-name="f_f_j" unicode="ffj" horiz-adv-x="1751" 
d="M1010 1067v-131h266q-8 -47 -8 -123h-258v-610q0 -125 6 -203h-158q10 111 10 338v475h-174l41 123h133v117q0 199 81 313t231 115q47 -1 96 -17l12 -135q-47 18 -90 19q-188 0 -188 -281zM367 1067v-131h266q-8 -47 -8 -123h-258v-610q0 -125 6 -203h-158q10 111 10 338
v475h-174l41 123h133v117q0 199 81 313t231 115q47 -1 96 -17l12 -135q-47 18 -90 19q-188 0 -188 -281zM1425 1263q0 43 29 73t73 30q43 0 71 -30t28 -70q0 -41 -29 -72t-73 -31t-71 29q-28 29 -28 71zM1591 707v-824q-1 -169 -67 -245t-172 -76q-33 0 -82 12l-19 127
q49 -8 68 -8q67 2 99 43t32 141l2 703q0 219 -12 352q94 0 157 8q-6 -55 -6 -233z" />
    <glyph glyph-name="f_f_k" unicode="ffk" horiz-adv-x="2232" 
d="M367 1067v-131h266q-8 -47 -8 -123h-258v-610q0 -125 6 -203h-158q10 111 10 338v475h-174l41 123h133v117q0 199 81 313t231 115q47 -1 96 -17l12 -135q-47 18 -90 19q-188 0 -188 -281zM1010 1067v-131h266q-8 -47 -8 -123h-258v-610q0 -125 6 -203h-158q10 111 10 338
v475h-174l41 123h133v117q0 199 81 313t231 115q47 -1 96 -17l12 -135q-47 18 -90 19q-188 0 -188 -281zM1591 203q0 -125 6 -203h-157q10 111 10 338v772q0 225 -10 344q98 8 157 21q-6 -55 -6 -238v-715q41 47 214 219t196 199q109 0 184 6l-448 -434l106 -109
q71 -78 219 -228t162 -165l-151 -33l-482 498v-272z" />
    <glyph glyph-name="f_b" unicode="fb" horiz-adv-x="1759" 
d="M367 1067v-131h266q-8 -47 -8 -123h-258v-610q0 -125 6 -203h-158q10 111 10 338v475h-174l41 123h133v117q0 199 81 313t231 115q47 -1 96 -17l12 -135q-47 18 -90 19q-188 0 -188 -281zM1184 92q146 0 244 114t98 274q0 161 -78 256t-226 95t-276 -139v-526
q92 -74 238 -74zM1270 956q174 0 286 -128t111 -340q0 -213 -144 -367t-358 -154q-145 0 -243 80l-97 -76l-32 11q12 170 12 340v790q0 227 -10 344q41 2 157 19q-6 -53 -6 -236v-416q150 133 324 133z" />
    <glyph glyph-name="f_h" unicode="fh" horiz-adv-x="1757" 
d="M367 1067v-131h266q-8 -47 -8 -123h-258v-610q0 -125 6 -203h-158q10 111 10 338v475h-174l41 123h133v117q0 199 81 313t231 115q47 -1 96 -17l12 -135q-47 18 -90 19q-188 0 -188 -281zM1458 348v248q0 236 -194 235q-111 0 -214 -95t-104 -183v-350q0 -113 6 -203
h-157q10 147 10 340v770q0 225 -10 344q98 8 157 21q-6 -55 -6 -236v-502q56 90 154 155t203 64q141 0 219 -84t77 -243v-418q1 -51 7 -211h-160q12 131 12 348z" />
    <glyph glyph-name="f_j" unicode="fj" horiz-adv-x="1107" 
d="M367 1067v-131h266q-8 -47 -8 -123h-258v-610q0 -125 6 -203h-158q10 111 10 338v475h-174l41 123h133v117q0 199 81 313t231 115q47 -1 96 -17l12 -135q-47 18 -90 19q-188 0 -188 -281zM780 1263q0 43 29 73t73 30t72 -30t27 -70q0 -41 -29 -72q-28 -31 -72 -31t-72 29
t-28 71zM946 707v-824q0 -169 -66 -245t-173 -76q-33 0 -82 12l-19 127q49 -8 68 -8q68 2 100 43t31 141l2 703q0 219 -12 352q94 0 157 8q-6 -55 -6 -233z" />
    <glyph glyph-name="f_k" unicode="fk" horiz-adv-x="1589" 
d="M367 1067v-131h266q-8 -47 -8 -123h-258v-610q0 -125 6 -203h-158q10 111 10 338v475h-174l41 123h133v117q0 199 81 313t231 115q47 -1 96 -17l12 -135q-47 18 -90 19q-188 0 -188 -281zM946 203q0 -125 6 -203h-157q10 111 10 338v772q0 225 -10 344q98 8 157 21
q-6 -55 -6 -238v-715q41 47 214 219t196 199q106 0 184 6l-448 -434l106 -109q71 -78 219 -228t162 -165l-152 -33l-481 498v-272z" />
    <glyph glyph-name=".notdef" horiz-adv-x="1024" 
d="M512 492l-367 -799h734zM922 1384l-353 -770l353 -770v1540zM102 -156l353 770l-353 770v-1540zM145 1536l367 -799l367 799h-734zM0 -410v2048h1024v-2048h-1024z" />
    <glyph glyph-name=".null" horiz-adv-x="0" 
 />
    <glyph glyph-name="nonmarkingreturn" horiz-adv-x="681" 
 />
    <glyph glyph-name="space" unicode=" " horiz-adv-x="423" 
 />
    <glyph glyph-name="exclam" unicode="!" horiz-adv-x="446" 
d="M220 -33q-44 0 -70 29t-27 73q0 45 29 75q30 30 72 30t71 -30t29 -71q0 -42 -30 -74t-74 -32zM315 1460q-10 -139 -12 -209l-20 -633q-6 -117 -7 -204l-102 -8q0 37 -2 87q-2 49 -4 123t-4 127l-10 414q-4 145 -15 291q90 4 176 12z" />
    <glyph glyph-name="quotedbl" unicode="&#x22;" horiz-adv-x="657" 
d="M162 969l-80 -19q25 283 24 492q152 20 170 22q-44 -249 -114 -495zM487 977l-79 -19q25 272 26 492q133 18 168 23q-45 -250 -115 -496z" />
    <glyph glyph-name="numbersign" unicode="#" horiz-adv-x="1417" 
d="M551 860l-49 -379h352l49 377zM983 481q238 0 336 4q-18 -76 -23 -123l-321 3h-14l-5 -37q-31 -264 -32 -328h-140q23 111 56 365l-353 2l-4 -39q-31 -262 -34 -328h-138q27 137 58 367h-2q-240 0 -330 -5q12 68 18 123q102 -4 318 -4h10l49 381h-4q-195 0 -330 -6
q12 68 19 123q102 -4 317 -4h12q31 256 37 373q63 0 138 8q-29 -152 -50 -334l-6 -47h353q31 256 36 373q66 0 140 8q-10 -45 -50 -334l-6 -47h6q238 0 336 4q-18 -76 -22 -123l-322 2h-12l-49 -377h8z" />
    <glyph glyph-name="dollar" unicode="$" horiz-adv-x="1054" 
d="M266 1022q0 -88 58 -140t172 -102l34 426q0 14 5 39q-125 -3 -197 -69t-72 -154zM825 343q0 93 -61 146t-176 105l-39 -506q129 10 203 86q73 76 73 169zM129 1001q0 147 112 251t300 114l10 193q31 0 117 4q-6 -47 -17 -203q164 -18 289 -103l-41 -129q-111 84 -260 109
l-39 -500q148 -62 244 -132q117 -87 117 -246q0 -158 -111 -268t-309 -122q-3 -12 -11 -215h-124q6 41 22 217q-184 18 -360 121l12 150q168 -123 362 -150q0 18 2 29l41 516q-214 88 -285 170q-71 83 -71 194z" />
    <glyph glyph-name="percent" unicode="%" horiz-adv-x="1462" 
d="M569 1125q0 139 -102 139t-182 -127t-80 -264t108 -138q98 0 177 126t79 264zM1257 465q1 67 -27 105t-79 38q-98 0 -178 -127t-80 -265t108 -138q98 0 178 126q78 126 78 261zM242 -53l-99 51q109 133 258 328l572 745q184 240 241 324l101 -56q-72 -88 -185 -237
l-733 -955q-65 -85 -155 -200zM686 1118q0 -178 -116 -335t-263 -156q-104 0 -162 69q-57 70 -57 181q0 177 117 335t262 158q103 0 161 -70t58 -182zM1374 463q0 -178 -116 -335t-263 -157q-104 0 -162 70t-59 180q0 176 117 335t264 159q103 -1 161 -71t58 -181z" />
    <glyph glyph-name="ampersand" unicode="&#x26;" horiz-adv-x="1419" 
d="M492 1038q0 -104 102 -239q264 119 264 284q0 74 -47 124t-128 50t-136 -57q-55 -58 -55 -162zM528 98q186 0 377 170q-231 205 -375 385q-283 -113 -282 -303q0 -106 74 -179t206 -73zM516 -33q-178 -1 -298 105t-120 272q0 262 361 410q-111 164 -111 301t98 229
t244 92t228 -87t82 -201t-76 -205q-76 -92 -258 -178q156 -188 333 -347q106 109 232 273l100 -82q-152 -186 -239 -275q199 -164 270 -219l-92 -106l-271 235q-254 -217 -483 -217z" />
    <glyph glyph-name="quotesingle" unicode="'" horiz-adv-x="327" 
d="M162 969l-80 -19q25 283 24 492q152 20 170 22q-44 -249 -114 -495z" />
    <glyph glyph-name="parenleft" unicode="(" horiz-adv-x="815" 
d="M158 502q0 314 170 572q170 259 440 407l55 -95q-229 -133 -380 -360t-151 -519t154 -521q152 -229 379 -361l-57 -90q-268 145 -439 399t-171 568z" />
    <glyph glyph-name="parenright" unicode=")" horiz-adv-x="815" 
d="M659 511q0 -311 -172 -571t-440 -405l-55 94q227 131 380 359t152 520q0 293 -152 521q-153 228 -382 360l57 92q270 -145 441 -401t171 -569z" />
    <glyph glyph-name="asterisk" unicode="*" horiz-adv-x="759" 
d="M725 1237q4 -78 8 -113q-152 0 -280 -6q70 -166 116 -260q-45 -14 -104 -41q-39 145 -88 279q-49 -37 -223 -195q-33 49 -72 88q190 125 242 166q-113 76 -240 148q51 74 63 94q141 -117 222 -176q2 6 67 278q66 -18 113 -29q-70 -180 -98 -268q8 0 274 35z" />
    <glyph glyph-name="plus" unicode="+" horiz-adv-x="1130" 
d="M625 500v-54q0 -209 6 -313h-133q6 80 10 367h-49q-59 0 -159 -1t-144 -1q6 43 6 118l346 -6q-4 283 -10 363q4 0 133 6q-6 -111 -6 -322v-47q167 0 350 6q-4 -25 -10 -118l-308 2h-32z" />
    <glyph glyph-name="comma" unicode="," horiz-adv-x="421" 
d="M213 -63q0 72 -96 116l-29 13q35 113 125 112q55 0 93 -47t38 -121q0 -197 -258 -383l-49 72l14 14q162 113 162 224z" />
    <glyph glyph-name="hyphen" unicode="-" horiz-adv-x="849" 
d="M496 514h-158q-86 0 -221 -4q6 47 6 121q135 -6 301 -6t313 6q-10 -55 -10 -121q-160 4 -231 4z" />
    <glyph glyph-name="period" unicode="." horiz-adv-x="419" 
d="M210 178q44 0 72 -30t29 -74q1 -43 -29 -75t-74 -32t-72 30t-28 74q0 43 30 75q28 32 72 32z" />
    <glyph glyph-name="slash" unicode="/" horiz-adv-x="665" 
d="M659 1509q-31 -88 -92 -301l-395 -1409q-27 -94 -78 -288l-133 -13q47 156 137 479l312 1106q80 272 112 420q39 -2 137 6z" />
    <glyph glyph-name="zero" unicode="0" horiz-adv-x="1181" 
d="M934 505q0 175 -90 286t-248 111t-253 -120t-95 -294t91 -285t249 -111t252 119t94 294zM1079 510q0 -226 -138 -386q-137 -160 -359 -159t-350 147t-128 372t138 386q138 158 358 158q221 0 350 -146t129 -372z" />
    <glyph glyph-name="one" unicode="1" horiz-adv-x="675" 
d="M311 352v506l-217 -55l-22 127q137 33 264 69l100 29l23 -16q-6 -55 -6 -238v-561q0 -143 6 -213h-156q8 100 8 352z" />
    <glyph glyph-name="two" unicode="2" horiz-adv-x="974" 
d="M490 2q-220 0 -384 -8l-24 100q362 266 483 390t121 222t-58 147q-58 50 -159 50q-145 0 -287 -117l-43 123q158 121 324 121t266 -83t100 -220q0 -170 -196 -350q-129 -115 -316 -250q396 0 566 6q-12 -66 -15 -139q-158 8 -378 8z" />
    <glyph glyph-name="three" unicode="3" horiz-adv-x="948" 
d="M827 53q0 -168 -138 -274t-357 -107q-125 0 -250 33l-21 131q135 -35 277 -35t244 66q102 67 102 183t-117 184t-319 57l-21 104q221 59 326 136q104 77 104 182q0 80 -60 135t-169 55q-154 0 -287 -106l-49 118q168 115 337 115t270 -86t101 -216t-83 -213
q-84 -83 -236 -138q156 -23 251 -107t95 -217z" />
    <glyph glyph-name="four" unicode="4" horiz-adv-x="1038" 
d="M653 205v608l-450 -606q35 -2 450 -2zM653 23v67h-137q-291 0 -457 -8l-28 98l508 670l141 192l115 -12q-4 -74 -4 -239v-584q100 0 210 4q-12 -74 -14 -129l-196 6v-184q0 -133 4 -228h-150q8 104 8 347z" />
    <glyph glyph-name="five" unicode="5" horiz-adv-x="958" 
d="M709 93q0 127 -82 189t-206 62t-247 -25l-35 23q10 143 13 221l8 217q4 164 2 209l22 21q118 -4 262 -4t390 4q-14 -47 -19 -140q-193 4 -299 4h-221l-16 -413q68 10 133 10q216 0 328 -94t112 -260q0 -203 -167 -323t-421 -120q-94 1 -160 15l-20 131q74 -16 162 -17
q203 0 332 81t129 209z" />
    <glyph glyph-name="six" unicode="6" horiz-adv-x="1101" 
d="M567 713q-170 0 -309 -131q-4 -57 -4 -90q0 -188 83 -294t220 -106t217 94t80 228t-79 217q-79 82 -208 82zM605 831q179 -1 287 -119t108 -298t-127 -314q-125 -133 -325 -133q-200 1 -320 143t-120 364t86 406q85 184 266 319q181 136 433 177l27 -127
q-272 -49 -434 -194t-210 -359q150 135 329 135z" />
    <glyph glyph-name="seven" unicode="7" horiz-adv-x="974" 
d="M440 874q-260 0 -374 -2q12 117 12 138q199 -6 395 -6t399 6l37 -64q-29 -47 -108 -217l-393 -819q-98 -209 -115 -256l-131 70q98 174 172 333l389 817h-283z" />
    <glyph glyph-name="eight" unicode="8" horiz-adv-x="1044" 
d="M541 756q237 80 237 274q0 96 -69 162q-70 66 -179 66t-177 -68t-68 -165t64 -160q65 -62 192 -109zM807 346q0 188 -287 295q-283 -102 -282 -307q0 -110 85 -178t209 -68t199 74q76 74 76 184zM94 326q0 258 293 364q-244 113 -244 328q0 150 113 254t280 104
q168 0 276 -101t108 -245q0 -211 -250 -325q131 -59 206 -149t74 -196q0 -172 -121 -284t-308 -111q-187 -1 -307 103t-120 258z" />
    <glyph glyph-name="nine" unicode="9" horiz-adv-x="1103" 
d="M556 287q146 0 286 104q6 55 6 117q0 184 -77 290t-216 105q-139 0 -222 -93t-83 -225t80 -215t226 -83zM492 166q-162 0 -275 118t-113 300t125 314t326 132t317 -140t117 -374q0 -328 -185 -548t-554 -316l-57 117q516 127 624 503q-163 -106 -325 -106z" />
    <glyph glyph-name="colon" unicode=":" horiz-adv-x="417" 
d="M209 805q45 0 73 -31t29 -74q1 -42 -29 -74t-75 -32t-73 30t-28 72t29 76q29 33 74 33zM106 71q0 43 29 75t74 32t73 -30t29 -74q1 -43 -29 -75t-75 -32t-73 30t-28 74z" />
    <glyph glyph-name="semicolon" unicode=";" horiz-adv-x="430" 
d="M221 -63q0 70 -96 116l-29 13q35 113 125 112q53 0 92 -47t39 -121q0 -197 -258 -383l-49 72l14 14q162 113 162 224zM326 700q0 -42 -30 -74t-75 -32t-73 30t-28 72t31 76q29 33 73 33t73 -31t29 -74z" />
    <glyph glyph-name="less" unicode="&#x3c;" horiz-adv-x="1136" 
d="M803 92q-182 145 -553 424l-2 62q313 240 553 438l69 -101q-147 -106 -274 -206l-199 -158l211 -162q123 -98 264 -194z" />
    <glyph glyph-name="equal" unicode="=" horiz-adv-x="1130" 
d="M648 436q128 0 306 6q-4 -25 -10 -120l-289 4h-196l-281 -4q4 57 4 120q338 -6 466 -6zM648 782q128 0 306 6q-4 -25 -10 -120l-289 4h-196l-281 -4q4 57 4 120q338 -6 466 -6z" />
    <glyph glyph-name="greater" unicode="&#x3e;" horiz-adv-x="1136" 
d="M334 1016q182 -145 553 -424l2 -62q-313 -240 -553 -438l-68 101q119 88 273 206l196 158l-207 162q-152 119 -266 194z" />
    <glyph glyph-name="question" unicode="?" horiz-adv-x="864" 
d="M485 76q-1 -43 -31 -76t-76 -33t-74 31t-28 75q0 43 30 75t76 32t75 -30q28 -31 28 -74zM807 1167q0 -83 -51 -151t-125 -111t-147 -81q-175 -91 -175 -183q0 -59 41 -91t109 -32t141 27l27 -133q-84 -27 -164 -27q-135 0 -217 68t-82 182q0 83 51 147t124 105t147 80
q175 93 176 198q0 80 -62 127t-158 47q-96 -1 -188 -31t-156 -81l-6 151q56 41 156 69t182 28q170 -1 274 -85t103 -223z" />
    <glyph glyph-name="at" unicode="@" horiz-adv-x="1773" 
d="M965 819q-123 0 -217 -132t-95 -284q0 -186 111 -186q86 0 188 123t129 297l21 137q-51 45 -137 45zM1550 695q0 212 -145 371t-436 159q-291 -1 -507 -223t-216 -528t178 -480t468 -174t519 143l35 -78q-264 -155 -580 -155t-517 208q-202 208 -202 498q0 197 73 365
q137 316 466 451q152 62 311 63q303 0 477 -179t175 -420q-1 -241 -137 -420t-330 -179q-201 0 -127 289q-57 -125 -155 -207t-183 -82q-86 1 -134 71t-48 187q0 197 133 371t307 174q51 0 98 -16t64 -32l86 56l14 -10l-84 -547q-14 -80 -1 -125t65 -45q125 0 229 141
t104 353z" />
    <glyph glyph-name="A" unicode="A" horiz-adv-x="1423" 
d="M700 1186l-262 -600h525zM27 0l467 1036q139 305 184 426l41 13l493 -1086q96 -215 183 -389l-164 -14l-213 475h-635l-33 -76q-39 -92 -155 -385h-168z" />
    <glyph glyph-name="B" unicode="B" horiz-adv-x="1239" 
d="M551 813q176 0 269 71t93 189q0 244 -354 244q-55 0 -184 -6q-2 -23 -2 -135v-228q0 -113 2 -131q61 -4 176 -4zM628 133q152 0 253 71q100 71 100 204q-1 134 -107 208t-319 74q-129 0 -182 -4v-391q0 -107 2 -154q101 -8 253 -8zM1067 1090q0 -115 -68 -201t-184 -121
q158 -39 239 -132t81 -224q-1 -180 -141 -296t-384 -116h-395q10 123 10 494v452q0 371 -10 494l356 8q250 0 373 -104t123 -254z" />
    <glyph glyph-name="C" unicode="C" horiz-adv-x="1390" 
d="M829 -37q-311 0 -511 213q-200 212 -200 528t213 543q212 227 537 228q240 0 418 -125l-45 -138q-164 125 -383 125q-256 0 -421 -177q-165 -178 -165 -448t159 -442t413 -172t459 193l-11 -170q-203 -158 -463 -158z" />
    <glyph glyph-name="D" unicode="D" horiz-adv-x="1503" 
d="M1229 736q0 265 -166 423t-465 158q-139 0 -219 -6q-2 -43 -2 -166v-848q0 -111 2 -156q106 -10 221 -10q311 0 470 170t159 435zM1384 760q0 -336 -208 -548t-555 -212h-406q12 147 12 494v452q0 346 -12 494l389 10q364 0 572 -196t208 -494z" />
    <glyph glyph-name="E" unicode="E" horiz-adv-x="1114" 
d="M377 1149v-330l534 4q-6 -57 -6 -133l-528 2v-397q0 -117 2 -166q68 -2 262 -2t401 6q-12 -72 -12 -139q-162 8 -417 8t-398 -10q10 123 10 502v452q0 381 -10 504q229 -8 390 -8t403 8q-10 -47 -15 -135l-387 2q-170 0 -227 -2q-2 -49 -2 -166z" />
    <glyph glyph-name="F" unicode="F" horiz-adv-x="1069" 
d="M377 1149v-348l518 2q-6 -59 -6 -131l-512 2v-379q0 -238 4 -295h-166q10 123 10 494v452q0 381 -10 504q229 -8 391 -8t400 8q-8 -49 -13 -135l-387 2q-170 0 -227 -2q-2 -49 -2 -166z" />
    <glyph glyph-name="G" unicode="G" horiz-adv-x="1513" 
d="M119 710q0 316 219 540t551 225q117 0 237 -35t205 -92l-45 -140q-76 58 -188 94t-226 35q-264 0 -432 -177t-168 -447q0 -269 172 -441t433 -172q180 0 327 80v307q0 92 -4 131q-244 6 -426 -2q6 80 0 140q178 -6 310 -6t278 8q-10 -102 -10 -465v-184
q-221 -143 -492 -144q-317 0 -529 214q-212 215 -212 531z" />
    <glyph glyph-name="H" unicode="H" horiz-adv-x="1576" 
d="M1202 494v192h-825v-391q0 -238 4 -295h-166q10 123 10 494v452q0 371 -10 494q100 0 166 8q-4 -59 -4 -301v-334h825v133q0 371 -10 494q100 0 166 8q-6 -90 -6 -301v-852q0 -209 6 -295h-166q10 123 10 494z" />
    <glyph glyph-name="I" unicode="I" horiz-adv-x="618" 
d="M236 946q0 346 -13 494q102 0 168 8q-6 -88 -6 -301v-852q0 -209 6 -295h-168q12 147 13 494v452z" />
    <glyph glyph-name="J" unicode="J" horiz-adv-x="827" 
d="M471 946q0 346 -12 494q102 0 166 8q-4 -119 -4 -301v-782q0 -209 -81 -305t-268 -97q-129 0 -239 49l10 144q119 -58 226 -58t155 60t47 180v608z" />
    <glyph glyph-name="K" unicode="K" horiz-adv-x="1300" 
d="M377 295q0 -180 4 -295h-166q12 147 12 494v452q0 346 -12 494q100 0 166 8q-4 -119 -4 -301v-387l291 293q248 248 381 389h196l-704 -692l327 -334q135 -143 404 -416l-185 -14l-710 735v-426z" />
    <glyph glyph-name="L" unicode="L" horiz-adv-x="1085" 
d="M622 2q-248 0 -407 -8q12 147 12 500v452q0 346 -12 494q100 0 166 8q-4 -119 -4 -301v-850q0 -119 4 -166l233 -2q167 0 433 4q-8 -43 -13 -139q-164 8 -412 8z" />
    <glyph glyph-name="M" unicode="M" horiz-adv-x="1824" 
d="M125 0q39 195 76 481l69 506q39 272 58 477l43 11q10 -25 135 -312l405 -917l406 913q111 250 135 316h41q18 -168 59 -467l70 -516q37 -272 80 -492l-160 -12q-16 182 -37 315l-100 752q-467 -1049 -475 -1073l-41 -11l-475 1082l-101 -760q-31 -256 -32 -293h-156z" />
    <glyph glyph-name="N" unicode="N" horiz-adv-x="1609" 
d="M1247 946q0 346 -12 494q102 0 168 8q-10 -98 -10 -301l-11 -860q-7 -202 4 -312l-43 -10l-978 1184v-854q0 -209 6 -295h-168q12 123 18 494l6 479q0 393 -8 491l43 11l985 -1199v670z" />
    <glyph glyph-name="O" unicode="O" horiz-adv-x="1671" 
d="M826 -37q-314 0 -511 211t-196 508q0 336 207 564t520 228t510 -210q197 -211 196 -508q0 -336 -206 -565q-206 -228 -520 -228zM830 92q247 0 407 186t160 454q0 270 -156 442q-155 172 -401 172t-407 -186t-161 -453t156 -441t402 -174z" />
    <glyph glyph-name="P" unicode="P" horiz-adv-x="1136" 
d="M924 1012q0 305 -387 305q-47 0 -162 -4v-613q55 -6 117 -6q212 0 322 86t110 232zM1079 1022q0 -196 -146 -323q-146 -128 -446 -128q-75 0 -112 2v-278q0 -180 4 -295h-166q12 147 12 494v452q0 348 -12 496l350 8q248 0 382 -116t134 -312z" />
    <glyph glyph-name="Q" unicode="Q" horiz-adv-x="1675" 
d="M830 92q247 0 407 186t160 454q0 270 -156 442q-155 172 -401 172t-407 -186t-161 -453t156 -441t402 -174zM119 682q0 336 207 564t520 228t510 -210q197 -211 196 -508q0 -260 -129 -463t-348 -285l248 -69q209 -58 379 -95l-100 -120l-801 239q-299 6 -491 216
q-191 210 -191 503z" />
    <glyph glyph-name="R" unicode="R" horiz-adv-x="1271" 
d="M375 729h239q147 0 235 87q87 87 87 219t-89 207t-249 75t-223 -4v-584zM375 602v-307q0 -180 4 -295h-166q12 147 12 494v452q0 348 -12 496l360 8q246 2 384 -114t135 -287q-6 -295 -310 -412l222 -330q98 -149 213 -299l-177 -22l-397 616h-268z" />
    <glyph glyph-name="S" unicode="S" horiz-adv-x="1067" 
d="M961 387q0 -178 -126 -301t-339 -123t-400 117l10 162q70 -56 181 -100t235 -44t206 74q83 74 83 195q0 150 -231 274q-96 51 -194 104t-165 137q-68 84 -67 189q0 170 122 287q124 117 312 117t336 -101l-50 -133q-133 98 -274 98q-141 -1 -219 -71t-78 -178
q0 -70 49 -127t122 -97t158 -87q85 -48 158 -95t122 -124t49 -173z" />
    <glyph glyph-name="T" unicode="T" horiz-adv-x="1277" 
d="M713 1315v-1020q0 -238 4 -295h-166q10 123 10 494v446q0 322 -2 375q-211 0 -506 -4q8 55 8 139q352 -8 578 -8t586 8q-10 -47 -15 -139q-156 4 -497 4z" />
    <glyph glyph-name="U" unicode="U" horiz-adv-x="1525" 
d="M1327 1147v-574q0 -299 -158 -455t-414 -155q-257 0 -407 141t-149 385v457q0 371 -11 494q100 0 168 8q-6 -59 -6 -301v-606q0 -442 422 -443q188 0 297 110t109 304v434q0 375 -13 494q98 0 170 8q-8 -80 -8 -301z" />
    <glyph glyph-name="V" unicode="V" horiz-adv-x="1333" 
d="M27 1436l166 12l483 -1180l315 785q37 88 146 387h170l-439 -1041q-123 -287 -168 -426l-43 -12l-458 1086q-88 211 -172 389z" />
    <glyph glyph-name="W" unicode="W" horiz-adv-x="2027" 
d="M1999 1440l-377 -1041q-103 -283 -149 -426l-41 -12l-410 1163l-270 -737q-20 -59 -76 -201t-82 -223h-41l-379 1081q-100 287 -145 392l164 12l391 -1151l280 774q38 118 135 383l43 12l410 -1169l256 758q45 133 125 385h166z" />
    <glyph glyph-name="X" unicode="X" horiz-adv-x="1406" 
d="M262 0h-184l534 721l-217 301q-36 47 -303 418l174 14l434 -620l150 219q30 43 140 199t134 192h183l-521 -707l232 -319q178 -254 303 -416l-176 -14l-445 639l-151 -219q-31 -45 -147 -208t-140 -200z" />
    <glyph glyph-name="Y" unicode="Y" horiz-adv-x="1251" 
d="M702 295q0 -209 7 -295h-168q12 147 12 487v136l-219 340q-147 235 -311 477l167 14l441 -696l151 235q4 4 281 451h176l-537 -815v-334z" />
    <glyph glyph-name="Z" unicode="Z" horiz-adv-x="1267" 
d="M674 127q281 0 497 6q-10 -66 -14 -139q-171 8 -531 8t-538 -10l-31 31l916 1292q-102 2 -323 2t-509 -4q8 55 9 137q222 -8 540 -8t496 8l31 -29l-918 -1292q94 -2 375 -2z" />
    <glyph glyph-name="bracketleft" unicode="[" horiz-adv-x="757" 
d="M498 -459q-150 0 -271 -6l-18 12q10 96 10 398v1116q0 299 -10 399l20 21q115 -6 251 -6t255 6q-8 -59 -8 -123q-163 4 -245 4t-134 -2v-1436q0 -188 6 -268l146 -2q79 0 243 4q-12 -51 -14 -123q-81 6 -231 6z" />
    <glyph glyph-name="backslash" unicode="\" horiz-adv-x="645" 
d="M555 -502q-61 238 -100 367l-371 1309q-53 193 -96 329q74 0 133 6q18 -86 104 -393l342 -1204q84 -305 115 -401z" />
    <glyph glyph-name="bracketright" unicode="]" horiz-adv-x="757" 
d="M260 1475q152 0 268 6l21 -13q-10 -98 -10 -397v-1116q0 -299 10 -399l-21 -21q-115 6 -250 6t-255 -6q8 63 8 123q82 -2 231 -2h148v1434q0 190 -7 270l-145 2q-84 0 -244 -4q12 49 15 123q79 -6 231 -6z" />
    <glyph glyph-name="asciicircum" unicode="^" horiz-adv-x="1177" 
d="M713 1108l-131 164l-133 -174q-106 -139 -175 -238l-102 78q190 242 381 496l57 6q225 -291 396 -500l-105 -76q-77 105 -188 244z" />
    <glyph glyph-name="underscore" unicode="_" horiz-adv-x="1331" 
d="M862 0h-403q-166 0 -396 -4q6 47 7 121q215 -6 594 -6t606 6q-4 -27 -10 -121q-238 4 -398 4z" />
    <glyph glyph-name="grave" unicode="`" horiz-adv-x="628" 
d="M115 1393l178 14l190 -299l-92 -8z" />
    <glyph glyph-name="a" unicode="a" horiz-adv-x="983" 
d="M219 259q1 -169 191 -169q100 0 177 76t81 190l2 90q-55 6 -113 7q-178 -1 -258 -57t-80 -137zM354 -25q-118 0 -195 74t-77 202t121 213t358 85q57 0 111 -6l2 39q8 250 -217 249q-139 0 -267 -90l-32 125q154 90 320 90t252 -94q87 -94 83 -266l-12 -406q-2 -56 13 -78
t50 -22t82 21l-14 -103q-134 -68 -210 16q-40 44 -42 138q-39 -84 -123 -136q-85 -52 -203 -51z" />
    <glyph glyph-name="b" unicode="b" horiz-adv-x="1114" 
d="M541 92q146 0 244 114t98 274q0 161 -78 256q-79 95 -227 95t-275 -139v-526q92 -74 238 -74zM627 956q173 0 285 -128t112 -340q0 -213 -144 -367t-358 -154q-145 0 -243 80l-97 -76l-32 11q12 168 12 340v790q0 227 -10 344q39 2 157 19q-6 -53 -6 -236v-416
q150 133 324 133z" />
    <glyph glyph-name="c" unicode="c" horiz-adv-x="980" 
d="M576 829q-152 0 -248 -106t-96 -269q0 -162 100 -262q102 -100 260 -100t297 121l-8 -150q-145 -96 -314 -96q-207 0 -341 135t-134 345t138 360t356 149q174 0 301 -92l-41 -127q-118 92 -270 92z" />
    <glyph glyph-name="d" unicode="d" horiz-adv-x="1114" 
d="M568 831q-152 1 -244 -109t-92 -274t86 -260q87 -96 223 -96q85 0 157 44t113 114v487q-91 94 -243 94zM571 956q143 0 240 -77v231q0 225 -10 344q102 8 157 21q-6 -55 -6 -236v-940q0 -174 13 -297h-131l-13 115q-49 -59 -131 -105t-174 -45q-194 0 -310 132t-116 344
q0 213 136 363t345 150z" />
    <glyph glyph-name="e" unicode="e" horiz-adv-x="1024" 
d="M547 836q-123 0 -206 -83t-103 -212l571 14q-29 281 -262 281zM574 92q164 0 327 137l-6 -147q-163 -115 -363 -115t-320 133t-120 346q0 214 129 362t327 148t296 -124t98 -326l-94 -57l-615 -17q5 -164 91 -252t250 -88z" />
    <glyph glyph-name="f" unicode="f" horiz-adv-x="645" 
d="M367 1067v-131h266q-8 -47 -8 -123h-258v-610q0 -125 6 -203h-158q10 111 10 338v475h-174l41 123h133v117q0 199 81 313t231 115q47 -1 96 -17l12 -135q-47 18 -90 19q-188 0 -188 -281z" />
    <glyph glyph-name="g" unicode="g" horiz-adv-x="958" 
d="M166 -197q0 -61 71 -102t211 -41t243 60t104 143q0 125 -244 127l-76 2l-104 6q-205 -84 -205 -195zM721 616q0 98 -66 162t-166 64q-101 0 -169 -69t-68 -168t63 -159t167 -59q104 -1 171 65q68 66 68 164zM854 620q0 -144 -111 -245q-111 -100 -274 -101q-70 0 -125 19
q-92 -51 -92 -100q0 -80 211 -80l88 -2q377 -6 377 -230q0 -137 -148 -235t-344 -98t-300 66q-103 67 -103 169q0 143 213 246q-121 49 -121 138t135 167q-143 96 -143 254t109 261q110 103 272 103q84 0 164 -34q63 203 260 169l-11 -124q-127 18 -170 -99
q113 -100 113 -244z" />
    <glyph glyph-name="h" unicode="h" horiz-adv-x="1112" 
d="M815 348v248q0 236 -194 235q-111 0 -214 -95t-104 -183v-350q0 -113 6 -203h-157q10 147 10 340v770q0 225 -10 344q98 8 157 21q-6 -55 -6 -236v-502q55 90 153 155t203 64q141 0 219 -84t78 -243v-418q1 -51 7 -211h-160q12 131 12 348z" />
    <glyph glyph-name="i" unicode="i" horiz-adv-x="462" 
d="M137 1263q0 43 29 73t73 30q43 0 71 -30t28 -70q0 -41 -29 -72t-73 -31t-71 29q-28 29 -28 71zM162 340v240q0 219 -12 352q96 0 159 8q-6 -55 -6 -233v-504q0 -123 6 -203h-157q10 111 10 340z" />
    <glyph glyph-name="j" unicode="j" horiz-adv-x="462" 
d="M137 1263q0 43 29 73t73 30q43 0 71 -30t28 -70q0 -41 -29 -72t-73 -31t-71 29q-28 29 -28 71zM303 707v-824q-1 -169 -67 -245t-173 -76q-33 0 -81 12l-19 127q49 -8 68 -8q67 2 99 43t32 141l2 703q0 219 -12 352q94 0 157 8q-6 -55 -6 -233z" />
    <glyph glyph-name="k" unicode="k" horiz-adv-x="944" 
d="M303 203q0 -125 6 -203h-157q10 111 10 338v772q0 225 -10 344q98 8 157 21q-6 -55 -6 -238v-715q41 47 214 219t196 199q106 0 184 6l-448 -434l106 -109q71 -78 219 -228t162 -165l-152 -33l-481 498v-272z" />
    <glyph glyph-name="l" unicode="l" horiz-adv-x="462" 
d="M162 340v770q0 225 -10 344q98 8 157 21q-6 -55 -6 -236v-1036q0 -123 6 -203h-157q10 111 10 340z" />
    <glyph glyph-name="m" unicode="m" horiz-adv-x="1687" 
d="M1391 596q0 236 -183 235q-112 0 -202 -86t-91 -174v-360q0 -131 7 -211h-158q10 147 10 348v248q0 236 -178 235q-111 0 -202 -86t-91 -174v-360q0 -121 6 -211h-157q10 147 10 348v234q0 217 -12 348q45 0 139 8l10 -184q61 86 149 144t192 58q102 0 172 -54t91 -154
q49 84 140 146t215 62t199 -83t75 -244v-418q0 -131 6 -211h-160q12 131 13 348v248z" />
    <glyph glyph-name="n" unicode="n" horiz-adv-x="1112" 
d="M815 348v248q0 236 -194 235q-111 0 -214 -95t-104 -183v-342q0 -121 6 -211h-157q10 147 10 348v234q0 201 -10 348q45 0 139 8l10 -203q55 90 155 156t203 65q141 0 219 -84t78 -243v-418q1 -51 7 -211h-160q12 131 12 348z" />
    <glyph glyph-name="o" unicode="o" horiz-adv-x="1112" 
d="M552 92q146 0 236 106t91 273q-1 166 -91 263t-232 97t-233 -106t-91 -272q0 -165 86 -263q88 -98 234 -98zM1020 473q0 -211 -132 -358t-340 -147t-332 134q-124 135 -124 347q0 211 131 359t338 148t333 -136t126 -347z" />
    <glyph glyph-name="p" unicode="p" horiz-adv-x="1114" 
d="M546 90q150 0 244 114t93 279q0 166 -83 257q-82 91 -228 91t-269 -155v-486q93 -100 243 -100zM1024 480q0 -216 -141 -364t-313 -148t-267 83v-280q0 -129 8 -197q-2 0 -79 -7t-80 -7q10 98 10 317v703q0 227 -15 350q74 0 140 6l10 -135q135 155 320 155t296 -130
t111 -346z" />
    <glyph glyph-name="q" unicode="q" horiz-adv-x="1114" 
d="M811 -80v178q-119 -131 -300 -131t-301 130t-120 343t141 365t353 151q143 0 254 -82l96 78l33 -10q-14 -156 -15 -340v-821q0 -127 9 -207l-158 -14q8 80 8 360zM539 92q83 0 155 40t117 101v517q-93 82 -239 82t-243 -112t-97 -274t84 -258q85 -96 223 -96z" />
    <glyph glyph-name="r" unicode="r" horiz-adv-x="673" 
d="M303 543v-332q0 -121 6 -211h-157q10 111 10 348v262q0 182 -19 312q63 2 142 20l16 -211q107 202 332 225l-19 -163q-119 12 -215 -65t-96 -185z" />
    <glyph glyph-name="s" unicode="s" horiz-adv-x="831" 
d="M115 686q0 114 92 192q91 78 237 78t269 -73l-49 -125q-102 72 -228 71q-78 -1 -130 -35t-52 -92t50 -95t123 -63t145 -57t123 -87q50 -56 50 -136q0 -135 -103 -216t-270 -81t-286 78l8 150q135 -100 303 -101q90 0 150 39q59 39 59 101t-50 103t-123 67t-145 57
t-123 87q-50 56 -50 138z" />
    <glyph glyph-name="t" unicode="t" horiz-adv-x="692" 
d="M211 223v590h-164l39 123h127l14 205l125 33v-238h258q-6 -53 -6 -123h-252v-575q0 -74 30 -106t98 -32t143 47l-7 -124q-66 -51 -174 -52q-231 0 -231 252z" />
    <glyph glyph-name="u" unicode="u" horiz-adv-x="1114" 
d="M158 317v275q0 182 -11 340q94 0 158 8q-6 -84 -6 -225v-365q1 -258 205 -258q102 0 204 86t103 170v244q0 199 -12 340q100 0 159 8q-6 -84 -6 -225v-369q1 -207 13 -346h-131l-19 176q-53 -88 -151 -149t-193 -62q-313 0 -313 352z" />
    <glyph glyph-name="v" unicode="v" horiz-adv-x="964" 
d="M438 -29q-23 66 -123 303l-141 326q-119 274 -143 324l153 22l303 -749l131 338q8 23 70 179t84 220q88 0 156 6l-398 -958z" />
    <glyph glyph-name="w" unicode="w" horiz-adv-x="1429" 
d="M377 -29q-18 74 -101 303l-116 324q-76 211 -127 326l155 22l238 -717l102 299q96 279 138 406l100 10l250 -715l98 297q94 289 127 408q104 0 154 6l-338 -958l-88 -11q-33 123 -119 357l-135 381l-250 -725z" />
    <glyph glyph-name="x" unicode="x" horiz-adv-x="927" 
d="M473 573q177 246 254 361q98 0 164 6l-338 -459l78 -108q104 -164 256 -367l-150 -24l-270 403q-274 -371 -283 -385h-164l365 471l-47 70q-50 77 -264 383l151 20z" />
    <glyph glyph-name="y" unicode="y" horiz-adv-x="937" 
d="M184 -436l224 516q-51 133 -95 229t-131 296q-86 200 -149 319l160 22l286 -700l121 291q127 324 152 397q113 0 157 6l-456 -1092q-88 -213 -111 -278q-97 0 -158 -6z" />
    <glyph glyph-name="z" unicode="z" horiz-adv-x="917" 
d="M457 2q-182 0 -383 -10l-23 37l592 786q-362 0 -539 -4q8 57 9 129q179 -6 361 -6t368 6l22 -37l-592 -782q406 0 576 4q-12 -68 -14 -133q-195 10 -377 10z" />
    <glyph glyph-name="braceleft" unicode="{" horiz-adv-x="776" 
d="M428 688q0 34 -36 100q-110 198 -109 297q0 299 409 394l29 -93q-160 -42 -235 -114q-74 -72 -74 -148t68 -211t69 -197q0 -62 -50 -113q-50 -52 -175 -95q129 -41 177 -93q48 -53 48 -115t-69 -196q-68 -134 -68 -210t74 -149t235 -114l-29 -92q-410 94 -409 393
q0 102 109 296q36 65 36 100q0 36 -60 68t-225 73v78q166 41 226 74q59 33 59 67z" />
    <glyph glyph-name="bar" unicode="|" horiz-adv-x="585" 
d="M233 2v1053q0 322 -10 448q53 0 135 8q-6 -57 -6 -288v-1420q0 -232 6 -295h-135q10 135 10 494z" />
    <glyph glyph-name="braceright" unicode="}" horiz-adv-x="776" 
d="M494 -68q0 -299 -410 -393l-29 92q162 41 236 114t74 149t-69 210t-69 197q1 62 51 114t175 95q-129 41 -178 93q-48 53 -48 115t69 196t69 210t-74 149t-236 113l29 93q410 -94 410 -394q0 -106 -109 -295q-37 -65 -37 -100q0 -36 60 -68t225 -73v-78q-166 -41 -225 -74
q-60 -33 -60 -67t37 -100q109 -191 109 -298z" />
    <glyph glyph-name="asciitilde" unicode="~" horiz-adv-x="1038" 
d="M686 600q68 0 94 123l111 -16q-23 -117 -77 -173t-122 -56t-187 54q-120 55 -155 56q-70 0 -92 -119l-111 16q45 223 201 224q61 -1 181 -55t157 -54z" />
    <glyph glyph-name="uni00A0" unicode="&#xa0;" horiz-adv-x="423" 
 />
    <glyph glyph-name="exclamdown" unicode="&#xa1;" horiz-adv-x="446" 
d="M125 1365q0 42 30 74q29 31 73 31t71 -28t27 -73q0 -44 -29 -75q-29 -30 -73 -30t-72 30t-27 71zM133 -23q10 139 12 209l21 633q6 117 6 205l102 8q0 -46 11 -338l10 -413q4 -145 14 -291q-90 -5 -176 -13z" />
    <glyph glyph-name="cent" unicode="&#xa2;" horiz-adv-x="991" 
d="M229 463q-1 -143 61 -237t171 -126l47 629q0 4 6 102q-131 -21 -208 -123t-77 -245zM575 86q178 0 322 127l-6 -147q-147 -98 -332 -99q-8 -115 -8 -194h-115l17 204q-162 33 -262 160q-99 127 -99 315t118 333q118 144 310 167l10 195q33 0 119 8q-6 -37 -18 -201
q150 -14 264 -96l-41 -119q-100 80 -231 95q-5 -27 -9 -95l-36 -510q-4 -29 -6 -77t-5 -66h8z" />
    <glyph glyph-name="sterling" unicode="&#xa3;" horiz-adv-x="1030" 
d="M94 739h182q-59 123 -59 240q0 168 117 283q117 114 286 114t293 -71l-32 -125q-121 70 -246 70t-202 -72q-77 -70 -77 -180t72 -257q217 2 399 13q-2 -23 -8 -129q-162 4 -336 -2q33 -88 33 -158q0 -188 -180 -338q332 0 633 10q-12 -76 -13 -145q-130 8 -414 8
t-446 -10l-20 100q152 74 228 160t77 199q0 70 -45 167l-246 -4q4 61 4 127z" />
    <glyph glyph-name="yen" unicode="&#xa5;" horiz-adv-x="1245" 
d="M690 305h-2v-29q0 -195 6 -276h-153q10 283 10 305h-4q-307 0 -432 -4q6 49 6 125q178 -6 428 -6h2v166l-29 43q-74 0 -211 -1t-194 -1q6 45 6 118q141 -6 328 -6l-105 160q-35 55 -158 241t-133 201l154 13l412 -639l120 188q18 29 135 210q116 181 146 233h170
l-406 -607q193 0 342 6q-8 -35 -12 -118l-403 2l-25 -37v-172h2q248 0 434 6l-12 -125q-127 4 -422 4z" />
    <glyph glyph-name="section" unicode="&#xa7;" horiz-adv-x="935" 
d="M246 542q0 -68 68 -118q68 -49 218 -111q84 27 134 79q49 52 49 106q1 54 -19 87q-20 34 -72 68t-173 88q-98 -27 -152 -78q-53 -53 -53 -121zM104 528q0 92 58 164t164 111q-184 98 -185 258q-1 123 103 215t274 92t295 -86l-39 -125q-125 88 -270 88q-96 0 -158 -49
t-63 -121q0 -72 58 -122t141 -86q83 -35 167 -75q85 -40 143 -108t58 -160q0 -180 -197 -274q178 -96 178 -252q1 -135 -109 -230q-110 -96 -293 -96t-333 90l8 146q154 -111 332 -111q113 0 185 53q71 52 71 128t-60 126t-146 84q-86 35 -174 75q-88 41 -148 107t-60 158z
" />
    <glyph glyph-name="dieresis" unicode="&#xa8;" horiz-adv-x="747" 
d="M548 1352q42 0 70 -29t27 -70q0 -41 -29 -73q-28 -32 -70 -31q-42 0 -69 29q-27 28 -27 70t28 73t70 31zM202 1352q42 0 68 -29t27 -71q0 -42 -28 -72q-29 -30 -71 -31q-42 0 -69 29q-27 30 -27 70t29 72t71 32z" />
    <glyph glyph-name="copyright" unicode="&#xa9;" horiz-adv-x="1771" 
d="M890 330q-156 0 -262 108q-108 108 -108 280q0 171 113 289t293 117q137 0 229 -69l-25 -103q-88 70 -210 70t-202 -84q-79 -84 -79 -217t78 -212t203 -79t241 98l-6 -118q-109 -80 -265 -80zM1548 719q0 276 -193 473q-194 197 -470 197t-469 -197t-193 -473t193 -473
t469 -197t470 197q193 197 193 473zM1640 719q0 -313 -221 -535t-534 -221q-313 0 -535 221q-221 220 -221 534t221 535q220 221 534 221t535 -220q221 -222 221 -535z" />
    <glyph glyph-name="ordfeminine" unicode="&#xaa;" horiz-adv-x="727" 
d="M314 889q62 0 111 48q48 48 50 120l2 55q-53 4 -76 4q-207 0 -206 -121q1 -47 29 -77t90 -29zM336 1372q-94 0 -191 -61l-22 98q121 66 235 66q246 0 240 -248l-8 -275q-2 -63 43 -63q25 0 49 14l-6 -78q-43 -25 -88 -24q-98 0 -107 119q-27 -54 -84 -88t-136 -34
t-133 51q-54 50 -54 138q0 89 81 147t240 58q27 0 84 -4l2 33q7 151 -145 151z" />
    <glyph glyph-name="guillemotleft" unicode="&#xab;" horiz-adv-x="1128" 
d="M895 926q72 4 131 14q-154 -231 -340 -473q170 -262 330 -477l-86 -39q-186 201 -418 495l4 25q240 279 379 455zM481 926q70 2 133 14q-141 -211 -342 -473q78 -119 328 -459l-88 -39q-295 326 -414 477l6 25q260 308 377 455z" />
    <glyph glyph-name="registered" unicode="&#xae;" horiz-adv-x="946" 
d="M416 1098h49q43 0 65 19t23 50q0 63 -88 64q-35 0 -49 -2v-131zM416 1044v-71q0 -55 2 -70h-70q2 23 2 129v123q0 104 -2 127l113 4q78 0 118 -34t39 -83q-4 -82 -83 -112l116 -154l-76 -4l-106 145h-53zM803 1083q0 141 -95 239q-96 98 -236 99q-140 0 -234 -97
q-94 -98 -94 -240t94 -238t234 -96t236 96q95 96 95 237zM474 1475q164 0 276 -114t112 -277q0 -162 -114 -276t-276 -114q-164 0 -276 115t-112 277t113 275q113 114 277 114z" />
    <glyph glyph-name="macron" unicode="&#xaf;" horiz-adv-x="790" 
d="M455 1204h-140q-82 0 -221 -4q6 43 6 121q139 -6 294 -6t302 6q-10 -55 -10 -121q-164 4 -231 4z" />
    <glyph glyph-name="degree" unicode="&#xb0;" 
d="M563 1162q0 88 -47 144t-130 56t-133 -58t-50 -148t48 -144q48 -56 131 -56t132 58t49 148zM389 1460q131 0 209 -82t78 -211q0 -127 -83 -219t-214 -92t-210 84t-79 212t84 218t215 90z" />
    <glyph glyph-name="plusminus" unicode="&#xb1;" horiz-adv-x="1130" 
d="M616 18h-116q-113 0 -330 -4q4 57 4 119q190 -6 386 -6t398 6q-10 -55 -10 -119q-229 4 -332 4zM625 647v-26q0 -207 6 -306h-133q6 84 10 332h-35l-303 -4q4 57 4 121l334 -6q-4 240 -10 327q4 0 133 7q-6 -109 -6 -316v-18q201 0 336 6q-4 -25 -11 -121l-307 4h-18z
" />
    <glyph glyph-name="two.sup" unicode="&#xb2;" 
d="M382 909q-104 0 -284 -4l-14 84q246 205 309 268q139 133 139 224q0 59 -42 94t-113 35q-110 0 -219 -94l-45 94q127 108 259 108t205 -59t73 -149t-44 -156q-75 -114 -350 -344q47 0 416 6q-6 -104 -6 -111q-180 4 -284 4z" />
    <glyph glyph-name="three.sup" unicode="&#xb3;" 
d="M324 993q100 0 161 35t62 92q0 133 -303 144l-15 75q303 49 303 172q0 43 -44 72t-145 29t-204 -62l-35 92q134 74 266 74t207 -52t74 -134q0 -145 -239 -209q256 -39 256 -201q0 -102 -94 -166t-228 -63q-135 0 -231 33l-17 108q126 -39 226 -39z" />
    <glyph glyph-name="acute" unicode="&#xb4;" horiz-adv-x="628" 
d="M338 1393l205 14l-297 -299l-101 -8z" />
    <glyph glyph-name="paragraph" unicode="&#xb6;" horiz-adv-x="1265" 
d="M590 1352q37 0 97 -1t87 -1q-6 -55 -6 -273v-790q0 -193 6 -287h-133q12 152 12 457v55q-285 -2 -422 116t-137 302t129 303t367 119zM944 457v461q0 309 -12 428q61 0 135 6q-8 -74 -8 -273v-792q0 -160 8 -287h-135q12 121 12 457z" />
    <glyph glyph-name="periodcentered" unicode="&#xb7;" horiz-adv-x="417" 
d="M216 805q44 1 72 -29t27 -73t-29 -75t-72 -32t-72 31t-28 73t29 73q29 32 73 32z" />
    <glyph glyph-name="cedilla" unicode="&#xb8;" horiz-adv-x="608" 
d="M481 -319q0 -63 -53 -107t-141 -45q-88 0 -176 31l20 94q82 -33 164 -33t82 55q0 66 -191 109l-8 8q33 96 64 230l75 -21l-41 -145q205 -57 205 -176z" />
    <glyph glyph-name="one.sup" unicode="&#xb9;" horiz-adv-x="573" 
d="M389 1569v-525q0 -111 4 -137h-125q6 68 6 232v442l-176 -51l-22 98q4 0 207 64l82 24l28 -8q-4 -25 -4 -139z" />
    <glyph glyph-name="ordmasculine" unicode="&#xba;" horiz-adv-x="790" 
d="M594 1140q0 106 -54 170t-142 64t-143 -68q-56 -68 -56 -174t52 -170t141 -65q89 0 146 69q56 68 56 174zM717 1142q0 -144 -91 -244q-90 -101 -234 -101t-231 94q-87 93 -87 237t92 245t236 101t229 -94q86 -94 86 -238z" />
    <glyph glyph-name="guillemotright" unicode="&#xbb;" horiz-adv-x="1128" 
d="M233 -18q-70 -2 -133 -15q156 227 342 475q-74 113 -329 461l86 39q289 -315 417 -479l-4 -25q-219 -255 -379 -456zM647 -18q-70 -2 -133 -15q143 215 340 475q-106 164 -326 457l88 39q305 -336 412 -475l-4 -25q-303 -364 -377 -456z" />
    <glyph glyph-name="onequarter" unicode="&#xbc;" horiz-adv-x="1720" 
d="M1382 676l-303 -385q262 0 303 2v383zM438 1282v-522q0 -111 4 -137h-125q6 68 7 229v442l-177 -51l-22 100q4 0 207 64l82 25l28 -11q-4 -25 -4 -139zM381 -27l-92 43q90 121 235 328l533 772q184 266 217 324q61 -29 96 -47q-45 -57 -170 -238l-678 -981
q-28 -45 -141 -201zM1378 172v31h-82q-238 0 -321 -4l-19 84l338 426q74 92 90 110l103 -8q-2 -25 -2 -143v-373q31 0 76 1t61 1q-10 -61 -10 -98l-127 4v-72q0 -102 2 -131h-113q4 37 4 172z" />
    <glyph glyph-name="onehalf" unicode="&#xbd;" horiz-adv-x="1720" 
d="M1283 811q132 0 205 -59q73 -60 73 -150t-43 -156q-44 -66 -128 -146t-223 -198q47 0 416 7q-6 -104 -6 -111q-179 4 -283 4t-284 -4l-15 84q246 205 310 268q139 133 139 223q0 59 -42 95t-114 34q-110 0 -219 -94l-45 94q127 109 259 109zM438 1282v-522q0 -111 4 -137
h-125q6 68 7 229v442l-177 -51l-22 100q4 0 207 64l82 25l28 -11q-4 -25 -4 -139zM307 -27l-92 43q90 121 236 328l532 772q184 266 217 324q61 -29 96 -47q-45 -57 -170 -238l-677 -981q-29 -45 -142 -201z" />
    <glyph glyph-name="threequarters" unicode="&#xbe;" horiz-adv-x="1912" 
d="M1575 676l-303 -385q262 0 303 2v383zM563 -27l-92 43q90 121 236 328l532 772q184 266 217 324q61 -29 96 -47q-45 -57 -170 -238l-677 -981q-29 -45 -142 -201zM612 834q0 137 -303 143l-14 78q303 49 303 172q0 43 -44 71t-146 29q-102 0 -203 -63l-35 94
q137 72 267 72t205 -52t75 -135q0 -145 -240 -209q256 -37 256 -198q0 -102 -93 -167q-92 -65 -224 -65t-236 33l-16 108q121 -37 223 -37t164 35q61 35 61 91zM1571 172v31h-82q-238 0 -322 -4l-18 84l338 426q74 92 90 110l102 -8q-2 -25 -2 -143v-373q31 0 76 1t62 1
q-10 -61 -11 -98l-127 4v-72q0 -102 2 -131h-112q4 37 4 172z" />
    <glyph glyph-name="questiondown" unicode="&#xbf;" horiz-adv-x="864" 
d="M482 1257q-46 0 -74 31t-29 74q0 43 31 76q30 32 76 32t74 -30t28 -75q0 -44 -30 -76t-76 -32zM57 270q-1 84 51 152t124 110t147 81q176 90 176 184q0 59 -40 91q-39 32 -109 32t-140 -27l-28 133q84 27 163 27q135 0 219 -68t82 -182q0 -82 -51 -147q-51 -66 -125 -106
t-148 -79q-176 -93 -175 -199q0 -80 62 -127q61 -47 157 -47t189 31t155 82l6 -152q-54 -41 -154 -69t-184 -27q-170 0 -274 84t-103 223z" />
    <glyph glyph-name="Agrave" unicode="&#xc0;" horiz-adv-x="1423" 
d="M416 1886l178 15l190 -299l-92 -9zM700 1186l-262 -600h525zM27 0l467 1036q139 305 184 426l41 13l493 -1086q96 -215 183 -389l-164 -14l-213 475h-635l-33 -76q-39 -92 -155 -385h-168z" />
    <glyph glyph-name="Aacute" unicode="&#xc1;" horiz-adv-x="1423" 
d="M805 1886l205 15l-297 -299l-101 -9zM700 1186l-262 -600h525zM27 0l467 1036q139 305 184 426l41 13l493 -1086q96 -215 183 -389l-164 -14l-213 475h-635l-33 -76q-39 -92 -155 -385h-168z" />
    <glyph glyph-name="Acircumflex" unicode="&#xc2;" horiz-adv-x="1423" 
d="M631 1903h166l209 -301l-107 -11l-188 207l-183 -192h-125zM700 1186l-262 -600h525zM27 0l467 1036q139 305 184 426l41 13l493 -1086q96 -215 183 -389l-164 -14l-213 475h-635l-33 -76q-39 -92 -155 -385h-168z" />
    <glyph glyph-name="Atilde" unicode="&#xc3;" horiz-adv-x="1423" 
d="M564 1886q68 0 168 -72t132 -71q59 0 90 151l107 -16q-43 -258 -199 -258q-62 0 -162 72t-133 72t-51 -32t-33 -114l-108 16q25 137 72 195q49 57 117 57zM700 1186l-262 -600h525zM27 0l467 1036q139 305 184 426l41 13l493 -1086q96 -215 183 -389l-164 -14l-213 475
h-635l-33 -76q-39 -92 -155 -385h-168z" />
    <glyph glyph-name="Adieresis" unicode="&#xc4;" horiz-adv-x="1423" 
d="M979 1747q0 -41 -29 -73q-28 -32 -70 -32t-69 29t-27 71t28 73t70 31t70 -30q28 -28 27 -69zM631 1746q0 -42 -28 -73t-71 -31q-44 0 -70 29t-26 70t29 73t71 32t68 -30q26 -28 27 -70zM700 1186l-262 -600h525zM27 0l467 1036q139 305 184 426l41 13l493 -1086
q96 -215 183 -389l-164 -14l-213 475h-635l-33 -76q-39 -92 -155 -385h-168z" />
    <glyph glyph-name="Aring" unicode="&#xc5;" horiz-adv-x="1423" 
d="M834 1616q0 57 -34 94t-92 37t-94 -38t-36 -95t34 -95t94 -38q58 0 93 39t35 96zM700 1186l-262 -600h525zM477 1614q0 88 65 152t167 65q101 1 163 -59t62 -145t-49 -148t-133 -80l460 -1010q96 -215 183 -389l-164 -14l-213 475h-635l-33 -76q-39 -92 -155 -385h-168
l467 1036q119 262 159 363q-80 14 -128 71q-48 56 -48 144z" />
    <glyph glyph-name="AE" unicode="&#xc6;" horiz-adv-x="1820" 
d="M932 954q0 102 -4 312l-424 -680h428v368zM1321 2q-254 0 -399 -10q10 154 10 465h-510l-43 -72q-131 -213 -225 -385h-174l649 1036q201 317 254 414q233 -8 411 -8t420 8q-10 -61 -14 -139q-238 4 -396 4t-217 -2q-2 -49 -2 -164v-330l533 4q-6 -59 -6 -133l-527 2
v-397q0 -115 2 -164l224 -2q233 0 438 6q-10 -72 -12 -141q-162 8 -416 8z" />
    <glyph glyph-name="Ccedilla" unicode="&#xc7;" horiz-adv-x="1390" 
d="M829 -37h-16l-29 -106q205 -57 205 -176q0 -63 -53 -107q-52 -44 -140 -45q-88 0 -178 31l21 94q82 -33 164 -33t82 55q0 66 -191 109l-8 8q20 63 49 176q-274 31 -445 238t-171 481q0 332 212 559t537 228q240 0 418 -125l-45 -138q-164 125 -383 125q-256 0 -421 -177
q-165 -178 -165 -448t159 -442t413 -172t459 193l-11 -170q-203 -158 -463 -158z" />
    <glyph glyph-name="Egrave" unicode="&#xc8;" horiz-adv-x="1114" 
d="M332 1870l178 14l190 -299l-92 -8zM377 1149v-330l534 4q-6 -57 -6 -133l-528 2v-397q0 -117 2 -166q68 -2 262 -2t401 6q-12 -72 -12 -139q-162 8 -417 8t-398 -10q10 123 10 502v452q0 381 -10 504q229 -8 390 -8t403 8q-10 -47 -15 -135l-387 2q-170 0 -227 -2
q-2 -49 -2 -166z" />
    <glyph glyph-name="Eacute" unicode="&#xc9;" horiz-adv-x="1114" 
d="M377 1149v-330l534 4q-6 -57 -6 -133l-528 2v-397q0 -117 2 -166q68 -2 262 -2t401 6q-12 -72 -12 -139q-162 8 -417 8t-398 -10q10 123 10 502v452q0 381 -10 504q229 -8 390 -8t403 8q-10 -47 -15 -135l-387 2q-170 0 -227 -2q-2 -49 -2 -166zM723 1870l205 14
l-297 -299l-101 -8z" />
    <glyph glyph-name="Ecircumflex" unicode="&#xca;" horiz-adv-x="1114" 
d="M377 1149v-330l534 4q-6 -57 -6 -133l-528 2v-397q0 -117 2 -166q68 -2 262 -2t401 6q-12 -72 -12 -139q-162 8 -417 8t-398 -10q10 123 10 502v452q0 381 -10 504q229 -8 390 -8t403 8q-10 -47 -15 -135l-387 2q-170 0 -227 -2q-2 -49 -2 -166zM549 1886h166l209 -301
l-107 -10l-188 207l-183 -193h-124z" />
    <glyph glyph-name="Edieresis" unicode="&#xcb;" horiz-adv-x="1114" 
d="M377 1149v-330l534 4q-6 -57 -6 -133l-528 2v-397q0 -117 2 -166q68 -2 262 -2t401 6q-12 -72 -12 -139q-162 8 -417 8t-398 -10q10 123 10 502v452q0 381 -10 504q229 -8 390 -8t403 8q-10 -47 -15 -135l-387 2q-170 0 -227 -2q-2 -49 -2 -166zM798 1829q42 -1 70 -29
t27 -69q0 -41 -29 -73q-28 -32 -70 -32t-69 29t-27 71t28 72q28 31 70 31zM452 1829q42 -1 68 -29t27 -70q0 -42 -28 -73t-71 -31q-44 0 -70 29t-26 69t29 73q29 32 71 32z" />
    <glyph glyph-name="Igrave" unicode="&#xcc;" horiz-adv-x="618" 
d="M16 1870l179 14l190 -299l-92 -8zM236 946q0 346 -13 494q102 0 168 8q-6 -88 -6 -301v-852q0 -209 6 -295h-168q12 147 13 494v452z" />
    <glyph glyph-name="Iacute" unicode="&#xcd;" horiz-adv-x="618" 
d="M406 1870l204 14l-297 -299l-100 -8zM236 946q0 346 -13 494q102 0 168 8q-6 -88 -6 -301v-852q0 -209 6 -295h-168q12 147 13 494v452z" />
    <glyph glyph-name="Icircumflex" unicode="&#xce;" horiz-adv-x="618" 
d="M233 1886h166l209 -301l-106 -10l-189 207l-182 -193h-125zM236 946q0 346 -13 494q102 0 168 8q-6 -88 -6 -301v-852q0 -209 6 -295h-168q12 147 13 494v452z" />
    <glyph glyph-name="Idieresis" unicode="&#xcf;" horiz-adv-x="618" 
d="M482 1829q42 -1 70 -29t28 -69t-29 -73t-71 -32t-68 29t-27 71q0 42 28 72q27 31 69 31zM136 1829q42 -1 68 -29t27 -70t-27 -73t-71 -31t-70 29t-27 69t30 73q28 32 70 32zM236 946q0 346 -13 494q102 0 168 8q-6 -88 -6 -301v-852q0 -209 6 -295h-168q12 147 13 494
v452z" />
    <glyph glyph-name="Eth" unicode="&#xd0;" horiz-adv-x="1501" 
d="M1229 736q0 265 -166 423t-465 158q-139 0 -219 -6q-2 -43 -2 -166v-354q170 0 323 6q-8 -74 -8 -133q-180 4 -266 4h-49v-371q0 -111 2 -156q106 -10 221 -10q311 0 470 170t159 435zM1384 760q0 -336 -208 -548t-555 -212h-406q12 147 12 494v174l-164 -4q6 49 7 133
l157 -6v155q0 346 -12 494l389 10q364 0 572 -196t208 -494z" />
    <glyph glyph-name="Ntilde" unicode="&#xd1;" horiz-adv-x="1609" 
d="M965 1726q59 0 90 152l106 -16q-43 -258 -198 -258q-61 0 -161 72t-134 71q-34 0 -52 -32t-32 -113l-109 16q25 137 73 194q100 119 285 -14q99 -72 132 -72zM1247 946q0 346 -12 494q102 0 168 8q-10 -98 -10 -301l-11 -860q-7 -202 4 -312l-43 -10l-978 1184v-854
q0 -209 6 -295h-168q12 123 18 494l6 479q0 393 -8 491l43 11l985 -1199v670z" />
    <glyph glyph-name="Ograve" unicode="&#xd2;" horiz-adv-x="1671" 
d="M543 1886l178 15l190 -299l-92 -9zM826 -37q-314 0 -511 211t-196 508q0 336 207 564t520 228t510 -210q197 -211 196 -508q0 -336 -206 -565q-206 -228 -520 -228zM830 92q247 0 407 186t160 454q0 270 -156 442q-155 172 -401 172t-407 -186t-161 -453t156 -441
t402 -174z" />
    <glyph glyph-name="Oacute" unicode="&#xd3;" horiz-adv-x="1671" 
d="M826 -37q-314 0 -511 211t-196 508q0 336 207 564t520 228t510 -210q197 -211 196 -508q0 -336 -206 -565q-206 -228 -520 -228zM830 92q247 0 407 186t160 454q0 270 -156 442q-155 172 -401 172t-407 -186t-161 -453t156 -441t402 -174zM932 1886l205 15l-297 -299
l-101 -9z" />
    <glyph glyph-name="Ocircumflex" unicode="&#xd4;" horiz-adv-x="1671" 
d="M826 -37q-314 0 -511 211t-196 508q0 336 207 564t520 228t510 -210q197 -211 196 -508q0 -336 -206 -565q-206 -228 -520 -228zM830 92q247 0 407 186t160 454q0 270 -156 442q-155 172 -401 172t-407 -186t-161 -453t156 -441t402 -174zM758 1903h166l209 -301
l-107 -11l-188 207l-183 -192h-125z" />
    <glyph glyph-name="Otilde" unicode="&#xd5;" horiz-adv-x="1671" 
d="M690 1886q68 0 168 -72t133 -71q59 0 90 151l107 -16q-43 -258 -199 -258q-61 0 -161 72t-134 72q-33 0 -51 -32t-33 -114l-108 16q25 137 72 195q48 57 116 57zM826 -37q-314 0 -511 211t-196 508q0 336 207 564t520 228t510 -210q197 -211 196 -508q0 -336 -206 -565
q-206 -228 -520 -228zM830 92q247 0 407 186t160 454q0 270 -156 442q-155 172 -401 172t-407 -186t-161 -453t156 -441t402 -174z" />
    <glyph glyph-name="Odieresis" unicode="&#xd6;" horiz-adv-x="1671" 
d="M826 -37q-314 0 -511 211t-196 508q0 336 207 564t520 228t510 -210q197 -211 196 -508q0 -336 -206 -565q-206 -228 -520 -228zM830 92q247 0 407 186t160 454q0 270 -156 442q-155 172 -401 172t-407 -186t-161 -453t156 -441t402 -174zM1106 1747q0 -41 -29 -73
t-71 -32t-68 29q-27 29 -27 71t28 73t70 31q41 0 69 -30q28 -28 28 -69zM758 1746q0 -42 -28 -73t-71 -31t-69 29t-27 70q0 41 29 73t71 32q43 0 69 -30q26 -28 26 -70z" />
    <glyph glyph-name="multiply" unicode="&#xd7;" horiz-adv-x="1130" 
d="M954 246q-14 -12 -94 -84q-119 133 -295 313q-63 -63 -174 -177t-131 -134q-23 33 -84 88l309 303q-174 174 -309 303q47 33 96 82l293 -307q139 145 295 315q10 -14 84 -94q-129 -125 -297 -299q219 -227 307 -309z" />
    <glyph glyph-name="Oslash" unicode="&#xd8;" horiz-adv-x="1669" 
d="M827 94q248 0 407 184t159 440q0 257 -129 421l-785 -920q143 -125 348 -125zM276 717q0 -258 130 -422l784 924q-143 125 -346 124q-248 0 -408 -184t-160 -442zM1550 756q0 -336 -207 -564t-528 -229q-248 0 -432 146l-143 -168l-101 53q80 86 170 186
q-190 207 -190 502q0 336 207 564t530 229q244 0 428 -146q94 111 139 170q74 -45 101 -59q-29 -29 -162 -185q188 -205 188 -499z" />
    <glyph glyph-name="Ugrave" unicode="&#xd9;" horiz-adv-x="1525" 
d="M469 1870l178 14l191 -299l-93 -8zM1327 1147v-574q0 -299 -158 -455t-414 -155q-257 0 -407 141t-149 385v457q0 371 -11 494q100 0 168 8q-6 -59 -6 -301v-606q0 -442 422 -443q188 0 297 110t109 304v434q0 375 -13 494q98 0 170 8q-8 -80 -8 -301z" />
    <glyph glyph-name="Uacute" unicode="&#xda;" horiz-adv-x="1525" 
d="M1327 1147v-574q0 -299 -158 -455t-414 -155q-257 0 -407 141t-149 385v457q0 371 -11 494q100 0 168 8q-6 -59 -6 -301v-606q0 -442 422 -443q188 0 297 110t109 304v434q0 375 -13 494q98 0 170 8q-8 -80 -8 -301zM860 1870l205 14l-297 -299l-100 -8z" />
    <glyph glyph-name="Ucircumflex" unicode="&#xdb;" horiz-adv-x="1525" 
d="M1327 1147v-574q0 -299 -158 -455t-414 -155q-257 0 -407 141t-149 385v457q0 371 -11 494q100 0 168 8q-6 -59 -6 -301v-606q0 -442 422 -443q188 0 297 110t109 304v434q0 375 -13 494q98 0 170 8q-8 -80 -8 -301zM686 1886h166l209 -301l-107 -10l-188 207l-182 -193
h-125z" />
    <glyph glyph-name="Udieresis" unicode="&#xdc;" horiz-adv-x="1525" 
d="M1327 1147v-574q0 -299 -158 -455t-414 -155q-257 0 -407 141t-149 385v457q0 371 -11 494q100 0 168 8q-6 -59 -6 -301v-606q0 -442 422 -443q188 0 297 110t109 304v434q0 375 -13 494q98 0 170 8q-8 -80 -8 -301zM935 1829q41 -1 69 -29t28 -69t-28 -73t-71 -32
q-42 0 -69 29q-26 29 -26 71t27 72q28 31 70 31zM589 1829q43 -1 69 -29t26 -70t-28 -73t-70 -31t-70 29q-27 29 -27 69t29 73q29 32 71 32z" />
    <glyph glyph-name="Yacute" unicode="&#xdd;" horiz-adv-x="1251" 
d="M729 1870l205 14l-297 -299l-100 -8zM702 295q0 -209 7 -295h-168q12 147 12 487v136l-219 340q-147 235 -311 477l167 14l441 -696l151 235q4 4 281 451h176l-537 -815v-334z" />
    <glyph glyph-name="Thorn" unicode="&#xde;" horiz-adv-x="1169" 
d="M489 408q209 0 323 82t114 228t-98 225t-281 79q-61 0 -168 -4v-604q55 -6 110 -6zM225 946q0 346 -12 494q104 0 172 8q-6 -59 -6 -293q86 6 172 6q250 -1 390 -115t140 -292q0 -213 -147 -343t-449 -130q-33 0 -106 4q0 -225 6 -285h-170q10 123 10 494v452z" />
    <glyph glyph-name="germandbls" unicode="&#xdf;" horiz-adv-x="1017" 
d="M162 338v684q0 223 100 341t273 118q139 0 232 -87t93 -212q0 -82 -35 -153t-77 -109t-78 -75q-35 -38 -35 -65q0 -26 18 -48t85 -77t106 -94t75 -107t35 -141q0 -125 -98 -223t-260 -98q-76 0 -143 16l-15 131q74 -20 163 -20t151 54q61 54 61 128q0 73 -51 139
q-52 66 -112 110t-111 102t-51 104t36 93q37 46 80 84t80 98t37 136t-55 131q-56 56 -146 56t-152 -75t-65 -216v-860q0 -125 6 -203h-157q10 111 10 338z" />
    <glyph glyph-name="agrave" unicode="&#xe0;" horiz-adv-x="983" 
d="M197 1393l178 14l190 -299l-92 -8zM219 259q1 -169 191 -169q100 0 177 76t81 190l2 90q-55 6 -113 7q-178 -1 -258 -57t-80 -137zM354 -25q-118 0 -195 74t-77 202t121 213t358 85q57 0 111 -6l2 39q8 250 -217 249q-139 0 -267 -90l-32 125q154 90 320 90t252 -94
q87 -94 83 -266l-12 -406q-2 -56 13 -78t50 -22t82 21l-14 -103q-134 -68 -210 16q-40 44 -42 138q-39 -84 -123 -136q-85 -52 -203 -51z" />
    <glyph glyph-name="aacute" unicode="&#xe1;" horiz-adv-x="983" 
d="M588 1393l205 14l-297 -299l-101 -8zM219 259q1 -169 191 -169q100 0 177 76t81 190l2 90q-55 6 -113 7q-178 -1 -258 -57t-80 -137zM354 -25q-118 0 -195 74t-77 202t121 213t358 85q57 0 111 -6l2 39q8 250 -217 249q-139 0 -267 -90l-32 125q154 90 320 90t252 -94
q87 -94 83 -266l-12 -406q-2 -56 13 -78t50 -22t82 21l-14 -103q-134 -68 -210 16q-40 44 -42 138q-39 -84 -123 -136q-85 -52 -203 -51z" />
    <glyph glyph-name="acircumflex" unicode="&#xe2;" horiz-adv-x="983" 
d="M414 1409h166l208 -301l-106 -10l-188 207l-183 -193h-125zM219 259q1 -169 191 -169q100 0 177 76t81 190l2 90q-55 6 -113 7q-178 -1 -258 -57t-80 -137zM354 -25q-118 0 -195 74t-77 202t121 213t358 85q57 0 111 -6l2 39q8 250 -217 249q-139 0 -267 -90l-32 125
q154 90 320 90t252 -94q87 -94 83 -266l-12 -406q-2 -56 13 -78t50 -22t82 21l-14 -103q-134 -68 -210 16q-40 44 -42 138q-39 -84 -123 -136q-85 -52 -203 -51z" />
    <glyph glyph-name="atilde" unicode="&#xe3;" horiz-adv-x="983" 
d="M647 1249q59 0 90 152l107 -17q-43 -258 -199 -258q-61 0 -161 72t-134 72q-33 0 -51 -32t-33 -114l-108 17q25 137 72 194q100 119 285 -14q99 -72 132 -72zM219 259q1 -169 191 -169q100 0 177 76t81 190l2 90q-55 6 -113 7q-178 -1 -258 -57t-80 -137zM354 -25
q-118 0 -195 74t-77 202t121 213t358 85q57 0 111 -6l2 39q8 250 -217 249q-139 0 -267 -90l-32 125q154 90 320 90t252 -94q87 -94 83 -266l-12 -406q-2 -56 13 -78t50 -22t82 21l-14 -103q-134 -68 -210 16q-40 44 -42 138q-39 -84 -123 -136q-85 -52 -203 -51z" />
    <glyph glyph-name="adieresis" unicode="&#xe4;" horiz-adv-x="983" 
d="M663 1352q41 0 69 -29t28 -70t-29 -73t-71 -31q-42 0 -68 29q-26 28 -27 70q0 42 28 73t70 31zM412 1252q0 -42 -28 -72t-71 -31q-43 0 -69 29q-26 30 -27 70q0 40 29 72q28 32 70 32t69 -29t27 -71zM219 259q1 -169 191 -169q100 0 177 76t81 190l2 90q-55 6 -113 7
q-178 -1 -258 -57t-80 -137zM354 -25q-118 0 -195 74t-77 202t121 213t358 85q57 0 111 -6l2 39q8 250 -217 249q-139 0 -267 -90l-32 125q154 90 320 90t252 -94q87 -94 83 -266l-12 -406q-2 -56 13 -78t50 -22t82 21l-14 -103q-134 -68 -210 16q-40 44 -42 138
q-39 -84 -123 -136q-85 -52 -203 -51z" />
    <glyph glyph-name="aring" unicode="&#xe5;" horiz-adv-x="983" 
d="M616 1321q0 57 -33 94q-34 37 -92 37q-59 0 -95 -38t-36 -95t35 -95t93 -38t94 39q34 39 34 96zM219 259q1 -169 191 -169q100 0 177 76t81 190l2 90q-55 6 -113 7q-178 -1 -258 -57t-80 -137zM492 1536q102 0 164 -60t61 -151q0 -92 -65 -159q-65 -66 -166 -66t-163 61
q-63 61 -63 153t65 158q65 64 167 64zM354 -25q-118 0 -195 74t-77 202t121 213t358 85q57 0 111 -6l2 39q8 250 -217 249q-139 0 -267 -90l-32 125q154 90 320 90t252 -94q87 -94 83 -266l-12 -406q-2 -56 13 -78t50 -22t82 21l-14 -103q-134 -68 -210 16q-40 44 -42 138
q-39 -84 -123 -136q-85 -52 -203 -51z" />
    <glyph glyph-name="ae" unicode="&#xe6;" horiz-adv-x="1593" 
d="M1118 836q-115 0 -198 -85t-103 -210l561 14q-29 281 -260 281zM219 252q0 -72 46 -117q47 -45 149 -45t180 87t82 214l2 58l-135 2q-324 0 -324 -199zM813 432q12 -340 333 -340q161 0 327 137l-9 -147q-164 -115 -346 -115q-287 0 -381 250q-47 -113 -138 -177
t-222 -65q-131 0 -213 75t-82 202t117 210t350 83l133 -2l2 37q8 252 -238 252q-128 0 -256 -91l-32 125q154 90 315 90q242 0 305 -202q117 203 346 202q188 0 288 -126t99 -324l-94 -57z" />
    <glyph glyph-name="ccedilla" unicode="&#xe7;" horiz-adv-x="980" 
d="M576 829q-152 0 -248 -106t-96 -269q0 -162 100 -262q102 -100 260 -100t297 121l-8 -150q-141 -94 -308 -96l-30 -110q205 -57 205 -176q0 -63 -54 -107t-140 -45q-87 0 -177 31l20 94q82 -33 164 -33t82 55q0 66 -190 109l-9 8q29 94 52 180q-180 23 -292 153t-112 330
t138 351q138 150 356 149q174 0 301 -92l-41 -127q-118 92 -270 92z" />
    <glyph glyph-name="egrave" unicode="&#xe8;" horiz-adv-x="1024" 
d="M252 1393l178 14l191 -299l-93 -8zM547 836q-123 0 -206 -83t-103 -212l571 14q-29 281 -262 281zM574 92q164 0 327 137l-6 -147q-163 -115 -363 -115t-320 133t-120 346q0 214 129 362t327 148t296 -124t98 -326l-94 -57l-615 -17q5 -164 91 -252t250 -88z" />
    <glyph glyph-name="eacute" unicode="&#xe9;" horiz-adv-x="1024" 
d="M547 836q-123 0 -206 -83t-103 -212l571 14q-29 281 -262 281zM574 92q164 0 327 137l-6 -147q-163 -115 -363 -115t-320 133t-120 346q0 214 129 362t327 148t296 -124t98 -326l-94 -57l-615 -17q5 -164 91 -252t250 -88zM641 1393l205 14l-297 -299l-100 -8z" />
    <glyph glyph-name="ecircumflex" unicode="&#xea;" horiz-adv-x="1024" 
d="M547 836q-123 0 -206 -83t-103 -212l571 14q-29 281 -262 281zM574 92q164 0 327 137l-6 -147q-163 -115 -363 -115t-320 133t-120 346q0 214 129 362t327 148t296 -124t98 -326l-94 -57l-615 -17q5 -164 91 -252t250 -88zM469 1409h166l209 -301l-107 -10l-188 207
l-182 -193h-125z" />
    <glyph glyph-name="edieresis" unicode="&#xeb;" horiz-adv-x="1024" 
d="M547 836q-123 0 -206 -83t-103 -212l571 14q-29 281 -262 281zM574 92q164 0 327 137l-6 -147q-163 -115 -363 -115t-320 133t-120 346q0 214 129 362t327 148t296 -124t98 -326l-94 -57l-615 -17q5 -164 91 -252t250 -88zM718 1352q42 0 70 -29t27 -70q0 -41 -29 -73
q-28 -32 -70 -31q-42 0 -69 29q-27 28 -27 70t28 73t70 31zM372 1352q42 0 68 -29t27 -71q0 -42 -28 -72q-29 -30 -71 -31q-42 0 -69 29q-27 30 -27 70t29 72t71 32z" />
    <glyph glyph-name="igrave" unicode="&#xec;" horiz-adv-x="462" 
d="M-61 1393l178 14l190 -299l-92 -8zM162 340v240q0 219 -12 352q96 0 159 8q-6 -55 -6 -233v-504q0 -123 6 -203h-157q10 111 10 340z" />
    <glyph glyph-name="iacute" unicode="&#xed;" horiz-adv-x="462" 
d="M162 340v240q0 219 -12 352q96 0 159 8q-6 -55 -6 -233v-504q0 -123 6 -203h-157q10 111 10 340zM330 1393l205 14l-297 -299l-101 -8z" />
    <glyph glyph-name="icircumflex" unicode="&#xee;" horiz-adv-x="462" 
d="M162 340v240q0 219 -12 352q96 0 159 8q-6 -55 -6 -233v-504q0 -123 6 -203h-157q10 111 10 340zM156 1409h166l208 -301l-106 -10l-188 207l-183 -193h-125z" />
    <glyph glyph-name="idieresis" unicode="&#xef;" horiz-adv-x="462" 
d="M162 340v240q0 219 -12 352q96 0 159 8q-6 -55 -6 -233v-504q0 -123 6 -203h-157q10 111 10 340zM405 1352q41 0 69 -29t28 -70t-29 -73t-71 -31q-42 0 -68 29q-26 28 -27 70q0 42 28 73t70 31zM154 1252q0 -42 -28 -72t-71 -31q-43 0 -69 29q-26 30 -27 70q0 40 29 72
q28 32 70 32t69 -29t27 -71z" />
    <glyph glyph-name="eth" unicode="&#xf0;" horiz-adv-x="1112" 
d="M560 831q-142 -1 -235 -109t-93 -266t88 -260q90 -104 233 -104t235 110t93 271q0 160 -90 259q-89 99 -231 99zM547 -33q-209 0 -332 136t-123 347q0 210 131 358t340 148t318 -182q-68 236 -250 416l-271 -158q-39 45 -90 86q158 84 275 150q-123 96 -273 157l129 66
q137 -63 256 -160q23 14 230 142l86 -91q-74 -37 -232 -127q283 -289 285 -698q0 -270 -135 -430t-344 -160z" />
    <glyph glyph-name="ntilde" unicode="&#xf1;" horiz-adv-x="1112" 
d="M725 1249q59 0 90 152l107 -17q-43 -258 -199 -258q-61 0 -161 72t-134 72q-33 0 -51 -32t-33 -114l-108 17q25 137 72 194q100 119 285 -14q99 -72 132 -72zM815 348v248q0 236 -194 235q-111 0 -214 -95t-104 -183v-342q0 -121 6 -211h-157q10 147 10 348v234
q0 201 -10 348q45 0 139 8l10 -203q55 90 155 156t203 65q141 0 219 -84t78 -243v-418q1 -51 7 -211h-160q12 131 12 348z" />
    <glyph glyph-name="ograve" unicode="&#xf2;" horiz-adv-x="1112" 
d="M264 1393l178 14l191 -299l-92 -8zM552 92q146 0 236 106t91 273q-1 166 -91 263t-232 97t-233 -106t-91 -272q0 -165 86 -263q88 -98 234 -98zM1020 473q0 -211 -132 -358t-340 -147t-332 134q-124 135 -124 347q0 211 131 359t338 148t333 -136t126 -347z" />
    <glyph glyph-name="oacute" unicode="&#xf3;" horiz-adv-x="1112" 
d="M552 92q146 0 236 106t91 273q-1 166 -91 263t-232 97t-233 -106t-91 -272q0 -165 86 -263q88 -98 234 -98zM1020 473q0 -211 -132 -358t-340 -147t-332 134q-124 135 -124 347q0 211 131 359t338 148t333 -136t126 -347zM653 1393l205 14l-297 -299l-100 -8z" />
    <glyph glyph-name="ocircumflex" unicode="&#xf4;" horiz-adv-x="1112" 
d="M552 92q146 0 236 106t91 273q-1 166 -91 263t-232 97t-233 -106t-91 -272q0 -165 86 -263q88 -98 234 -98zM1020 473q0 -211 -132 -358t-340 -147t-332 134q-124 135 -124 347q0 211 131 359t338 148t333 -136t126 -347zM479 1409h166l209 -301l-106 -10l-189 207
l-182 -193h-125z" />
    <glyph glyph-name="otilde" unicode="&#xf5;" horiz-adv-x="1112" 
d="M713 1249q59 0 90 152l106 -17q-43 -258 -198 -258q-61 0 -161 72t-134 72q-33 0 -51 -32t-33 -114l-109 17q25 137 73 194q100 119 285 -14q99 -72 132 -72zM552 92q146 0 236 106t91 273q-1 166 -91 263t-232 97t-233 -106t-91 -272q0 -165 86 -263q88 -98 234 -98z
M1020 473q0 -211 -132 -358t-340 -147t-332 134q-124 135 -124 347q0 211 131 359t338 148t333 -136t126 -347z" />
    <glyph glyph-name="odieresis" unicode="&#xf6;" horiz-adv-x="1112" 
d="M552 92q146 0 236 106t91 273q-1 166 -91 263t-232 97t-233 -106t-91 -272q0 -165 86 -263q88 -98 234 -98zM1020 473q0 -211 -132 -358t-340 -147t-332 134q-124 135 -124 347q0 211 131 359t338 148t333 -136t126 -347zM730 1352q42 0 70 -29t27 -70t-29 -73t-70 -31
q-42 0 -69 29q-27 28 -27 70t28 73t70 31zM384 1352q42 0 68 -29t27 -71t-27 -72t-71 -31q-43 0 -70 29q-27 30 -27 70t29 72t71 32z" />
    <glyph glyph-name="divide" unicode="&#xf7;" horiz-adv-x="1130" 
d="M659 208q1 -42 -27 -72t-71 -30t-69 29t-27 70q0 41 29 71q28 30 70 31q42 0 69 -28q26 -29 26 -71zM564 1008q42 0 68 -30t27 -72t-27 -72t-71 -29q-43 0 -69 29q-26 30 -27 70q0 40 29 72q28 32 70 32zM629 612q221 0 352 4q-8 -61 -8 -118l-346 2h-131l-346 -2
q4 57 4 118q254 -4 475 -4z" />
    <glyph glyph-name="oslash" unicode="&#xf8;" horiz-adv-x="1112" 
d="M231 470q0 -148 54 -239l473 533q-80 68 -212 68t-224 -107t-91 -255zM564 92q136 0 227 106q90 106 90 254t-62 242l-471 -534q80 -68 216 -68zM567 956q162 0 279 -94l115 131q20 -20 75 -63l-123 -133q106 -129 107 -312q0 -223 -132 -370t-347 -148q-164 0 -281 94
l-119 -131l-78 56l132 141q-102 131 -103 311q0 222 131 370t344 148z" />
    <glyph glyph-name="ugrave" unicode="&#xf9;" horiz-adv-x="1114" 
d="M264 1393l178 14l191 -299l-92 -8zM158 317v275q0 182 -11 340q94 0 158 8q-6 -84 -6 -225v-365q1 -258 205 -258q102 0 204 86t103 170v244q0 199 -12 340q100 0 159 8q-6 -84 -6 -225v-369q1 -207 13 -346h-131l-19 176q-53 -88 -151 -149t-193 -62q-313 0 -313 352z
" />
    <glyph glyph-name="uacute" unicode="&#xfa;" horiz-adv-x="1114" 
d="M158 317v275q0 182 -11 340q94 0 158 8q-6 -84 -6 -225v-365q1 -258 205 -258q102 0 204 86t103 170v244q0 199 -12 340q100 0 159 8q-6 -84 -6 -225v-369q1 -207 13 -346h-131l-19 176q-53 -88 -151 -149t-193 -62q-313 0 -313 352zM653 1393l205 14l-297 -299l-100 -8z
" />
    <glyph glyph-name="ucircumflex" unicode="&#xfb;" horiz-adv-x="1114" 
d="M158 317v275q0 182 -11 340q94 0 158 8q-6 -84 -6 -225v-365q1 -258 205 -258q102 0 204 86t103 170v244q0 199 -12 340q100 0 159 8q-6 -84 -6 -225v-369q1 -207 13 -346h-131l-19 176q-53 -88 -151 -149t-193 -62q-313 0 -313 352zM481 1409h166l209 -301l-106 -10
l-189 207l-182 -193h-125z" />
    <glyph glyph-name="udieresis" unicode="&#xfc;" horiz-adv-x="1114" 
d="M158 317v275q0 182 -11 340q94 0 158 8q-6 -84 -6 -225v-365q1 -258 205 -258q102 0 204 86t103 170v244q0 199 -12 340q100 0 159 8q-6 -84 -6 -225v-369q1 -207 13 -346h-131l-19 176q-53 -88 -151 -149t-193 -62q-313 0 -313 352zM730 1352q42 0 70 -29t27 -70
t-29 -73t-70 -31q-42 0 -69 29q-27 28 -27 70t28 73t70 31zM384 1352q42 0 68 -29t27 -71t-27 -72t-71 -31q-43 0 -70 29q-27 30 -27 70t29 72t71 32z" />
    <glyph glyph-name="yacute" unicode="&#xfd;" horiz-adv-x="937" 
d="M582 1393l204 14l-297 -299l-100 -8zM184 -436l224 516q-51 133 -95 229t-131 296q-86 200 -149 319l160 22l286 -700l121 291q127 324 152 397q113 0 157 6l-456 -1092q-88 -213 -111 -278q-97 0 -158 -6z" />
    <glyph glyph-name="thorn" unicode="&#xfe;" horiz-adv-x="1112" 
d="M160 -123v1235q0 227 -10 344q39 2 157 19q-6 -53 -6 -236v-416q150 133 324 133q173 0 285 -128t112 -346t-142 -366t-314 -148t-265 83v-280q0 -129 8 -197q-2 0 -79 -7t-80 -7q10 98 10 317zM544 90q150 0 243 114t93 276t-77 256q-79 95 -227 95t-275 -139v-502
q93 -100 243 -100z" />
    <glyph glyph-name="ydieresis" unicode="&#xff;" horiz-adv-x="937" 
d="M754 1253q0 -41 -29 -73t-71 -31q-42 0 -68 29q-26 28 -27 70q0 42 28 73q27 31 69 31t70 -29t28 -70zM406 1252q0 -42 -28 -72t-71 -31q-43 0 -69 29q-26 30 -27 70q0 40 29 72q28 32 70 32t69 -29t27 -71zM184 -436l224 516q-51 133 -95 229t-131 296q-86 200 -149 319
l160 22l286 -700l121 291q127 324 152 397q113 0 157 6l-456 -1092q-88 -213 -111 -278q-97 0 -158 -6z" />
    <glyph glyph-name="Amacron" unicode="&#x100;" horiz-adv-x="1423" 
d="M766 1698h-139q-82 0 -221 -4q6 43 6 121q137 -6 293 -6t303 6q-10 -55 -11 -121q-164 4 -231 4zM700 1186l-262 -600h525zM27 0l467 1036q139 305 184 426l41 13l493 -1086q96 -215 183 -389l-164 -14l-213 475h-635l-33 -76q-39 -92 -155 -385h-168z" />
    <glyph glyph-name="amacron" unicode="&#x101;" horiz-adv-x="983" 
d="M549 1204h-139q-82 0 -222 -4q6 43 7 121q137 -6 293 -6t303 6q-10 -55 -11 -121q-164 4 -231 4zM219 259q1 -169 191 -169q100 0 177 76t81 190l2 90q-55 6 -113 7q-178 -1 -258 -57t-80 -137zM354 -25q-118 0 -195 74t-77 202t121 213t358 85q57 0 111 -6l2 39
q8 250 -217 249q-139 0 -267 -90l-32 125q154 90 320 90t252 -94q87 -94 83 -266l-12 -406q-2 -56 13 -78t50 -22t82 21l-14 -103q-134 -68 -210 16q-40 44 -42 138q-39 -84 -123 -136q-85 -52 -203 -51z" />
    <glyph glyph-name="Abreve" unicode="&#x102;" horiz-adv-x="1423" 
d="M708 1599q-138 0 -222 83q-83 83 -83 208l123 21q0 -97 49 -151t135 -54t131 56q46 56 44 141l121 8q4 -145 -78 -229t-220 -83zM700 1186l-262 -600h525zM27 0l467 1036q139 305 184 426l41 13l493 -1086q96 -215 183 -389l-164 -14l-213 475h-635l-33 -76
q-39 -92 -155 -385h-168z" />
    <glyph glyph-name="abreve" unicode="&#x103;" horiz-adv-x="983" 
d="M490 1106q-138 0 -221 83t-83 208l123 20q0 -96 49 -150q49 -55 134 -55q86 0 132 56t44 141l120 8q4 -145 -78 -228t-220 -83zM219 259q1 -169 191 -169q100 0 177 76t81 190l2 90q-55 6 -113 7q-178 -1 -258 -57t-80 -137zM354 -25q-118 0 -195 74t-77 202t121 213
t358 85q57 0 111 -6l2 39q8 250 -217 249q-139 0 -267 -90l-32 125q154 90 320 90t252 -94q87 -94 83 -266l-12 -406q-2 -56 13 -78t50 -22t82 21l-14 -103q-134 -68 -210 16q-40 44 -42 138q-39 -84 -123 -136q-85 -52 -203 -51z" />
    <glyph glyph-name="Aogonek" unicode="&#x104;" horiz-adv-x="1423" 
d="M700 1186l-262 -600h525zM1268 -328q52 0 121 47l-9 -100q-61 -45 -145 -45t-132 43t-48 115q0 129 174 258l-211 471h-635l-33 -76q-39 -92 -155 -385h-168l467 1036q139 305 184 426l41 13l493 -1086q80 -186 181 -387l4 -2q-225 -139 -226 -250q-1 -78 97 -78z" />
    <glyph glyph-name="aogonek" unicode="&#x105;" horiz-adv-x="983" 
d="M219 259q1 -169 191 -169q100 0 177 76t81 190l2 90q-55 6 -113 7q-178 -1 -258 -57t-80 -137zM711 -250q0 -78 95 -78q52 0 120 47l-8 -100q-62 -45 -146 -45t-132 43t-48 115q0 129 188 256q-98 25 -100 174q-39 -84 -123 -136q-85 -52 -203 -51q-118 0 -195 74
t-77 202t121 213t358 85q55 0 111 -6l2 39q8 250 -217 249q-139 0 -267 -90l-32 125q154 90 320 90t252 -94q87 -94 83 -266l-12 -406q-2 -56 13 -78t50 -22t82 21l-14 -99q-221 -150 -221 -262z" />
    <glyph glyph-name="Cacute" unicode="&#x106;" horiz-adv-x="1390" 
d="M829 -37q-311 0 -511 213q-200 212 -200 528t213 543q212 227 537 228q240 0 418 -125l-45 -138q-164 125 -383 125q-256 0 -421 -177q-165 -178 -165 -448t159 -442t413 -172t459 193l-11 -170q-203 -158 -463 -158zM915 1886l205 15l-297 -299l-100 -9z" />
    <glyph glyph-name="cacute" unicode="&#x107;" horiz-adv-x="980" 
d="M576 829q-152 0 -248 -106t-96 -269q0 -162 100 -262q102 -100 260 -100t297 121l-8 -150q-145 -96 -314 -96q-207 0 -341 135t-134 345t138 360t356 149q174 0 301 -92l-41 -127q-118 92 -270 92zM664 1393l204 14l-297 -299l-100 -8z" />
    <glyph glyph-name="Cdotaccent" unicode="&#x10a;" horiz-adv-x="1390" 
d="M911 1746q1 -42 -27 -73t-70 -31t-69 29t-27 71t28 73t70 31t69 -29q26 -29 26 -71zM829 -37q-311 0 -511 213q-200 212 -200 528t213 543q212 227 537 228q240 0 418 -125l-45 -138q-164 125 -383 125q-256 0 -421 -177q-165 -178 -165 -448t159 -442t413 -172t459 193
l-11 -170q-203 -158 -463 -158z" />
    <glyph glyph-name="cdotaccent" unicode="&#x10b;" horiz-adv-x="980" 
d="M662 1252q0 -42 -28 -72t-70 -31q-42 0 -68 29q-26 28 -27 70q0 42 28 73q27 31 69 31t69 -29t27 -71zM576 829q-152 0 -248 -106t-96 -269q0 -162 100 -262q102 -100 260 -100t297 121l-8 -150q-145 -96 -314 -96q-207 0 -341 135t-134 345t138 360t356 149
q174 0 301 -92l-41 -127q-118 92 -270 92z" />
    <glyph glyph-name="Ccaron" unicode="&#x10c;" horiz-adv-x="1390" 
d="M829 -37q-311 0 -511 213q-200 212 -200 528t213 543q212 227 537 228q240 0 418 -125l-45 -138q-164 125 -383 125q-256 0 -421 -177q-165 -178 -165 -448t159 -442t413 -172t459 193l-11 -170q-203 -158 -463 -158zM893 1604h-164l-213 297l109 10l188 -203l184 193
h121z" />
    <glyph glyph-name="ccaron" unicode="&#x10d;" horiz-adv-x="980" 
d="M576 829q-152 0 -248 -106t-96 -269q0 -162 100 -262q102 -100 260 -100t297 121l-8 -150q-145 -96 -314 -96q-207 0 -341 135t-134 345t138 360t356 149q174 0 301 -92l-41 -127q-118 92 -270 92zM641 1110h-164l-213 297l109 10l188 -203l184 193h121z" />
    <glyph glyph-name="Dcaron" unicode="&#x10e;" horiz-adv-x="1503" 
d="M1229 736q0 265 -166 423t-465 158q-139 0 -219 -6q-2 -43 -2 -166v-848q0 -111 2 -156q106 -10 221 -10q311 0 470 170t159 435zM1384 760q0 -336 -208 -548t-555 -212h-406q12 147 12 494v452q0 346 -12 494l389 10q364 0 572 -196t208 -494zM817 1587h-164l-213 297
l109 10l188 -202l185 192h120z" />
    <glyph glyph-name="dcaron" unicode="&#x10f;" horiz-adv-x="1114" 
d="M1126 1157l-63 -14q14 184 16 307l123 18q-51 -225 -76 -311zM568 831q-152 1 -244 -109t-92 -274t86 -260q87 -96 223 -96q85 0 157 44t113 114v487q-91 94 -243 94zM571 956q143 0 240 -77v231q0 225 -10 344q102 8 157 21q-6 -55 -6 -236v-940q0 -174 13 -297h-131
l-13 115q-49 -59 -131 -105t-174 -45q-194 0 -310 132t-116 344q0 213 136 363t345 150z" />
    <glyph glyph-name="Dcroat" unicode="&#x110;" horiz-adv-x="1501" 
d="M1229 736q0 265 -166 423t-465 158q-139 0 -219 -6q-2 -43 -2 -166v-354q170 0 323 6q-8 -74 -8 -133q-180 4 -266 4h-49v-371q0 -111 2 -156q106 -10 221 -10q311 0 470 170t159 435zM1384 760q0 -336 -208 -548t-555 -212h-406q12 147 12 494v174l-164 -4q6 49 7 133
l157 -6v155q0 346 -12 494l389 10q364 0 572 -196t208 -494z" />
    <glyph glyph-name="dcroat" unicode="&#x111;" horiz-adv-x="1114" 
d="M568 831q-152 1 -244 -109t-92 -274t86 -260q87 -96 223 -96q85 0 157 44t113 114v487q-91 94 -243 94zM952 1239v-12l144 6q-6 -27 -11 -119q-90 0 -133 2v-817q0 -174 13 -297h-131l-13 115q-49 -59 -131 -105t-174 -45q-194 0 -310 132t-116 344q0 213 136 363
t345 150q143 0 240 -77v237h-86l-248 -2q4 57 4 119q147 -6 330 -6q-4 156 -10 227q102 8 157 21q-6 -55 -6 -236z" />
    <glyph glyph-name="Emacron" unicode="&#x112;" horiz-adv-x="1114" 
d="M684 1681h-139q-82 0 -221 -4q6 43 6 121q139 -6 294 -6t302 6q-10 -55 -11 -121q-164 4 -231 4zM377 1149v-330l534 4q-6 -57 -6 -133l-528 2v-397q0 -117 2 -166q68 -2 262 -2t401 6q-12 -72 -12 -139q-162 8 -417 8t-398 -10q10 123 10 502v452q0 381 -10 504
q229 -8 390 -8t403 8q-10 -47 -15 -135l-387 2q-170 0 -227 -2q-2 -49 -2 -166z" />
    <glyph glyph-name="emacron" unicode="&#x113;" horiz-adv-x="1024" 
d="M602 1204h-139q-82 0 -221 -4q6 43 6 121q137 -6 293 -6t303 6q-10 -55 -10 -121q-164 4 -232 4zM547 836q-123 0 -206 -83t-103 -212l571 14q-29 281 -262 281zM574 92q164 0 327 137l-6 -147q-163 -115 -363 -115t-320 133t-120 346q0 214 129 362t327 148t296 -124
t98 -326l-94 -57l-615 -17q5 -164 91 -252t250 -88z" />
    <glyph glyph-name="Ebreve" unicode="&#x114;" horiz-adv-x="1114" 
d="M626 1583q-138 0 -222 83q-83 83 -82 208l122 20q0 -96 50 -150t134 -54q85 0 131 55t44 141l121 8q4 -145 -78 -228t-220 -83zM377 1149v-330l534 4q-6 -57 -6 -133l-528 2v-397q0 -117 2 -166q68 -2 262 -2t401 6q-12 -72 -12 -139q-162 8 -417 8t-398 -10
q10 123 10 502v452q0 381 -10 504q229 -8 390 -8t403 8q-10 -47 -15 -135l-387 2q-170 0 -227 -2q-2 -49 -2 -166z" />
    <glyph glyph-name="ebreve" unicode="&#x115;" horiz-adv-x="1024" 
d="M544 1106q-138 0 -221 83t-83 208l122 20q0 -96 50 -150q50 -55 134 -55q85 0 131 56t44 141l121 8q4 -145 -78 -228t-220 -83zM547 836q-123 0 -206 -83t-103 -212l571 14q-29 281 -262 281zM574 92q164 0 327 137l-6 -147q-163 -115 -363 -115t-320 133t-120 346
q0 214 129 362t327 148t296 -124t98 -326l-94 -57l-615 -17q5 -164 91 -252t250 -88z" />
    <glyph glyph-name="Edotaccent" unicode="&#x116;" horiz-adv-x="1114" 
d="M624 1829q42 -1 68 -29t27 -70q0 -42 -28 -73q-27 -31 -69 -31t-69 29t-27 71t28 72q28 31 70 31zM377 1149v-330l534 4q-6 -57 -6 -133l-528 2v-397q0 -117 2 -166q68 -2 262 -2t401 6q-12 -72 -12 -139q-162 8 -417 8t-398 -10q10 123 10 502v452q0 381 -10 504
q229 -8 390 -8t403 8q-10 -47 -15 -135l-387 2q-170 0 -227 -2q-2 -49 -2 -166z" />
    <glyph glyph-name="edotaccent" unicode="&#x117;" horiz-adv-x="1024" 
d="M544 1352q42 0 68 -29t27 -71q0 -42 -28 -72q-27 -30 -69 -31q-42 0 -69 29q-27 28 -27 70t28 73t70 31zM547 836q-123 0 -206 -83t-103 -212l571 14q-29 281 -262 281zM574 92q164 0 327 137l-6 -147q-163 -115 -363 -115t-320 133t-120 346q0 214 129 362t327 148
t296 -124t98 -326l-94 -57l-615 -17q5 -164 91 -252t250 -88z" />
    <glyph glyph-name="Eogonek" unicode="&#x118;" horiz-adv-x="1114" 
d="M805 -250q0 -78 95 -78q50 0 122 47l-8 -100q-62 -45 -146 -45t-132 43t-48 114t52 134t165 135l-287 2q-260 0 -403 -10q10 123 10 502v452q0 381 -10 504q229 -8 390 -8t403 8q-10 -47 -15 -135l-387 2q-170 0 -227 -2q-2 -49 -2 -166v-330l534 4q-6 -57 -6 -133
l-528 2v-397q0 -117 2 -166q68 -2 262 -2t401 6q-12 -72 -12 -139q-225 -137 -225 -244z" />
    <glyph glyph-name="eogonek" unicode="&#x119;" horiz-adv-x="1024" 
d="M547 836q-123 0 -206 -83t-103 -212l571 14q-29 281 -262 281zM588 -250q0 -78 96 -78q51 0 119 47l-8 -100q-61 -45 -145 -45t-132 43q-49 43 -49 115q0 121 154 239q-49 -4 -78 -4q-213 0 -333 133t-120 346q0 214 129 362t327 148t296 -125t98 -325l-94 -57l-615 -17
q5 -164 91 -252t250 -88t327 137l-6 -145q-307 -199 -307 -334z" />
    <glyph glyph-name="Ecaron" unicode="&#x11a;" horiz-adv-x="1114" 
d="M377 1149v-330l534 4q-6 -57 -6 -133l-528 2v-397q0 -117 2 -166q68 -2 262 -2t401 6q-12 -72 -12 -139q-162 8 -417 8t-398 -10q10 123 10 502v452q0 381 -10 504q229 -8 390 -8t403 8q-10 -47 -15 -135l-387 2q-170 0 -227 -2q-2 -49 -2 -166zM700 1587h-163l-213 297
l108 10l189 -202l184 192h121z" />
    <glyph glyph-name="ecaron" unicode="&#x11b;" horiz-adv-x="1024" 
d="M547 836q-123 0 -206 -83t-103 -212l571 14q-29 281 -262 281zM574 92q164 0 327 137l-6 -147q-163 -115 -363 -115t-320 133t-120 346q0 214 129 362t327 148t296 -124t98 -326l-94 -57l-615 -17q5 -164 91 -252t250 -88zM618 1110h-163l-213 297l108 10l189 -203
l184 193h121z" />
    <glyph glyph-name="Gbreve" unicode="&#x11e;" horiz-adv-x="1513" 
d="M838 1599q-138 0 -221 83t-82 208l122 21q-1 -97 49 -151t135 -54t131 56t44 141l121 8q4 -145 -78 -229q-83 -84 -221 -83zM119 710q0 316 219 540t551 225q117 0 237 -35t205 -92l-45 -140q-76 58 -188 94t-226 35q-264 0 -432 -177t-168 -447q0 -269 172 -441
t433 -172q180 0 327 80v307q0 92 -4 131q-244 6 -426 -2q6 80 0 140q178 -6 310 -6t278 8q-10 -102 -10 -465v-184q-221 -143 -492 -144q-317 0 -529 214q-212 215 -212 531z" />
    <glyph glyph-name="gbreve" unicode="&#x11f;" horiz-adv-x="958" 
d="M486 1106q-138 0 -222 83t-84 208l123 20q0 -96 50 -150q50 -55 135 -55q84 0 130 54t46 143l118 8q4 -145 -78 -228q-80 -83 -218 -83zM166 -197q0 -61 71 -102t211 -41t243 60t104 143q0 125 -244 127l-76 2l-104 6q-205 -84 -205 -195zM721 616q0 98 -66 162t-166 64
q-101 0 -169 -69t-68 -168t63 -159t167 -59q104 -1 171 65q68 66 68 164zM854 618q0 -142 -111 -243q-111 -100 -274 -101q-70 0 -125 19q-92 -51 -92 -100q0 -80 211 -80l88 -2q377 -6 377 -230q0 -137 -148 -235t-344 -98t-300 66q-103 67 -103 169q0 143 213 246
q-121 49 -121 138t135 167q-143 96 -143 254t109 261q110 103 272 103q90 0 168 -37q68 184 256 156l-11 -127q-121 20 -163 -84q106 -100 106 -242z" />
    <glyph glyph-name="Gdotaccent" unicode="&#x120;" horiz-adv-x="1513" 
d="M932 1746q0 -42 -28 -73t-70 -31t-68 29q-27 29 -27 71t28 73t70 31q43 0 69 -30q26 -28 26 -70zM119 710q0 316 219 540t551 225q117 0 237 -35t205 -92l-45 -140q-76 58 -188 94t-226 35q-264 0 -432 -177t-168 -447q0 -269 172 -441t433 -172q180 0 327 80v307
q0 92 -4 131q-244 6 -426 -2q6 80 0 140q178 -6 310 -6t278 8q-10 -102 -10 -465v-184q-221 -143 -492 -144q-317 0 -529 214q-212 215 -212 531z" />
    <glyph glyph-name="gdotaccent" unicode="&#x121;" horiz-adv-x="958" 
d="M494 1352q44 0 70 -29t26 -70t-29 -73t-71 -31q-42 0 -68 29q-26 28 -27 70q0 42 28 73t71 31zM166 -197q0 -61 71 -102t211 -41t243 60t104 143q0 125 -244 127l-76 2l-104 6q-205 -84 -205 -195zM721 616q0 98 -66 162t-166 64q-101 0 -169 -69t-68 -168t63 -159
t167 -59q104 -1 171 65q68 66 68 164zM854 620q0 -144 -111 -245q-111 -100 -274 -101q-70 0 -125 19q-92 -51 -92 -100q0 -80 211 -80l88 -2q377 -6 377 -230q0 -137 -148 -235t-344 -98t-300 66q-103 67 -103 169q0 143 213 246q-121 49 -121 138t135 167
q-143 96 -143 254t109 261q110 103 272 103q84 0 164 -34q63 203 260 169l-11 -124q-127 18 -170 -99q113 -100 113 -244z" />
    <glyph glyph-name="Gcommaaccent" unicode="&#x122;" horiz-adv-x="1513" 
d="M838 -127q44 0 72 -34t28 -85q0 -135 -197 -260l-39 47l48 35q70 58 70 112t-62 87l-25 10q23 88 105 88zM119 710q0 316 219 540t551 225q117 0 237 -35t205 -92l-45 -140q-76 58 -188 94t-226 35q-264 0 -432 -177t-168 -447q0 -269 172 -441t433 -172q180 0 327 80
v307q0 92 -4 131q-244 6 -426 -2q6 80 0 140q178 -6 310 -6t278 8q-10 -102 -10 -465v-184q-221 -143 -492 -144q-317 0 -529 214q-212 215 -212 531z" />
    <glyph glyph-name="gcommaaccent" unicode="&#x123;" horiz-adv-x="958" 
d="M485 1151q-41 0 -69 34t-29 85q0 135 195 260l41 -45l-48 -35q-71 -58 -71 -114t61 -85l27 -12q-25 -88 -107 -88zM166 -197q0 -61 71 -102t211 -41t243 60t104 143q0 125 -244 127l-76 2l-104 6q-205 -84 -205 -195zM721 616q0 98 -66 162t-166 64q-101 0 -169 -69
t-68 -168t63 -159t167 -59q104 -1 171 65q68 66 68 164zM854 620q0 -144 -111 -245q-111 -100 -274 -101q-70 0 -125 19q-92 -51 -92 -100q0 -80 211 -80l88 -2q377 -6 377 -230q0 -137 -148 -235t-344 -98t-300 66q-103 67 -103 169q0 143 213 246q-121 49 -121 138
t135 167q-143 96 -143 254t109 261q110 103 272 103q84 0 164 -34q63 203 260 169l-11 -124q-127 18 -170 -99q113 -100 113 -244z" />
    <glyph glyph-name="Hbar" unicode="&#x126;" horiz-adv-x="1576" 
d="M377 1051v-252h825v250l-231 2h-594zM1202 494v178h-825v-377q0 -209 6 -295h-170q12 147 12 494v555q-29 0 -82 -1t-80 -1q6 49 7 114l153 -4q-4 188 -10 283q104 0 170 8q-6 -86 -6 -293q121 -2 400 -2t423 2q-4 190 -10 285q104 0 172 8q-8 -76 -8 -291l164 4
q-10 -61 -11 -114q-102 0 -153 2v-754q0 -219 8 -295h-172q12 147 12 494z" />
    <glyph glyph-name="hbar" unicode="&#x127;" horiz-adv-x="1112" 
d="M303 1116v-379q55 90 153 155t203 64q141 0 219 -84t78 -243v-418q1 -51 7 -211h-160q12 131 12 348v248q0 236 -194 235q-111 0 -214 -95t-104 -183v-350q0 -113 6 -203h-157q10 147 10 340v776q-51 -2 -142 -2q4 57 5 119l137 -6q-4 158 -10 227q98 8 157 21
q-6 -55 -6 -236v-12h8q164 0 328 6q-6 -27 -10 -119l-252 2h-74z" />
    <glyph glyph-name="Imacron" unicode="&#x12a;" horiz-adv-x="618" 
d="M369 1681h-140q-82 0 -221 -4q6 43 6 121q139 -6 294 -6t302 6q-10 -55 -10 -121q-164 4 -231 4zM236 946q0 346 -13 494q102 0 168 8q-6 -88 -6 -301v-852q0 -209 6 -295h-168q12 147 13 494v452z" />
    <glyph glyph-name="imacron" unicode="&#x12b;" horiz-adv-x="462" 
d="M291 1204h-139q-82 0 -222 -4q6 43 7 121q139 -6 293 -6t302 6q-10 -55 -10 -121q-164 4 -231 4zM162 340v240q0 219 -12 352q96 0 159 8q-6 -55 -6 -233v-504q0 -123 6 -203h-157q10 111 10 340z" />
    <glyph glyph-name="Ibreve" unicode="&#x12c;" horiz-adv-x="618" 
d="M310 1583q-138 0 -221 83t-83 208l123 20q0 -96 49 -150t134 -54t131 55t44 141l121 8q4 -145 -78 -228t-220 -83zM236 946q0 346 -13 494q102 0 168 8q-6 -88 -6 -301v-852q0 -209 6 -295h-168q12 147 13 494v452z" />
    <glyph glyph-name="ibreve" unicode="&#x12d;" horiz-adv-x="462" 
d="M232 1106q-138 0 -221 83t-83 208l123 20q0 -96 49 -150q49 -55 134 -55q86 0 132 56t44 141l120 8q4 -145 -78 -228t-220 -83zM162 340v240q0 219 -12 352q96 0 159 8q-6 -55 -6 -233v-504q0 -123 6 -203h-157q10 111 10 340z" />
    <glyph glyph-name="Iogonek" unicode="&#x12e;" horiz-adv-x="620" 
d="M111 -264q0 133 165 264h-53q12 147 13 494v452q0 346 -13 494q102 0 168 8q-6 -88 -6 -301v-852q0 -201 6 -291l4 -4q-168 -129 -168 -244q0 -36 23 -60q22 -24 72 -24t122 47l-8 -100q-61 -45 -145 -45t-132 44t-48 118z" />
    <glyph glyph-name="iogonek" unicode="&#x12f;" horiz-adv-x="462" 
d="M137 1263q0 43 29 73t73 30q43 0 71 -30t28 -70q0 -41 -29 -72t-73 -31t-71 29q-28 29 -28 71zM145 -244q0 -36 23 -60q22 -24 72 -24t122 47l-8 -100q-61 -45 -145 -45t-132 44t-48 118q0 131 159 264h-36q10 111 10 340v240q0 219 -12 352q96 0 159 8q-6 -55 -6 -233
v-504q0 -123 6 -203q-164 -133 -164 -244z" />
    <glyph glyph-name="Idotaccent" unicode="&#x130;" horiz-adv-x="618" 
d="M308 1829q42 -1 68 -29t27 -70t-27 -73t-70 -31t-68 29t-27 71q0 42 28 72q27 31 69 31zM236 946q0 346 -13 494q102 0 168 8q-6 -88 -6 -301v-852q0 -209 6 -295h-168q12 147 13 494v452z" />
    <glyph glyph-name="dotlessi" unicode="&#x131;" horiz-adv-x="462" 
d="M162 340v240q0 219 -12 352q96 0 159 8q-6 -55 -6 -233v-504q0 -123 6 -203h-157q10 111 10 340z" />
    <glyph glyph-name="Kcommaaccent" unicode="&#x136;" horiz-adv-x="1300" 
d="M717 -125q43 0 71 -34t29 -85q0 -135 -196 -260l-39 47l47 35q69 58 69 112t-61 87l-25 10q23 88 105 88zM377 295q0 -180 4 -295h-166q12 147 12 494v452q0 346 -12 494q100 0 166 8q-4 -119 -4 -301v-387l291 293q248 248 381 389h196l-704 -692l327 -334
q135 -143 404 -416l-185 -14l-710 735v-426z" />
    <glyph glyph-name="kcommaaccent" unicode="&#x137;" horiz-adv-x="944" 
d="M494 -310q0 54 -62 87l-24 10q23 88 104 88q43 0 72 -34t28 -85q0 -135 -196 -260l-39 47l47 35q70 58 70 112zM303 203q0 -125 6 -203h-157q10 111 10 338v772q0 225 -10 344q98 8 157 21q-6 -55 -6 -238v-715q41 47 214 219t196 199q106 0 184 6l-448 -434l106 -109
q71 -78 219 -228t162 -165l-152 -33l-481 498v-272z" />
    <glyph glyph-name="Lacute" unicode="&#x139;" horiz-adv-x="1085" 
d="M622 2q-248 0 -407 -8q12 147 12 500v452q0 346 -12 494q100 0 166 8q-4 -119 -4 -301v-850q0 -119 4 -166l233 -2q167 0 433 4q-8 -43 -13 -139q-164 8 -412 8zM467 1849l205 15l-297 -299l-101 -9z" />
    <glyph glyph-name="lacute" unicode="&#x13a;" horiz-adv-x="462" 
d="M162 340v770q0 225 -10 344q98 8 157 21q-6 -55 -6 -236v-1036q0 -123 6 -203h-157q10 111 10 340zM315 1864l205 14l-297 -299l-100 -8z" />
    <glyph glyph-name="Lcommaaccent" unicode="&#x13b;" horiz-adv-x="1085" 
d="M622 2q-248 0 -407 -8q12 147 12 500v452q0 346 -12 494q100 0 166 8q-4 -119 -4 -301v-850q0 -119 4 -166l233 -2q167 0 433 4q-8 -43 -13 -139q-164 8 -412 8zM594 -310q0 54 -62 87l-24 10q23 88 104 88q43 0 72 -34t29 -85q0 -135 -197 -260l-39 47l47 35
q70 58 70 112z" />
    <glyph glyph-name="lcommaaccent" unicode="&#x13c;" horiz-adv-x="462" 
d="M162 340v770q0 225 -10 344q98 8 157 21q-6 -55 -6 -236v-1036q0 -123 6 -203h-157q10 111 10 340zM207 -310q0 54 -62 87l-24 10q23 88 104 88q43 0 72 -34t29 -85q0 -135 -197 -260l-39 47l47 35q70 58 70 112z" />
    <glyph glyph-name="Lcaron" unicode="&#x13d;" horiz-adv-x="1085" 
d="M610 1135l-63 -15q14 184 16 307l123 19q-51 -225 -76 -311zM622 2q-248 0 -407 -8q12 147 12 500v452q0 346 -12 494q100 0 166 8q-4 -119 -4 -301v-850q0 -119 4 -166l233 -2q167 0 433 4q-8 -43 -13 -139q-164 8 -412 8z" />
    <glyph glyph-name="lcaron" unicode="&#x13e;" horiz-adv-x="462" 
d="M477 1157l-63 -14q14 184 16 307l123 18q-51 -225 -76 -311zM162 340v770q0 225 -10 344q98 8 157 21q-6 -55 -6 -236v-1036q0 -123 6 -203h-157q10 111 10 340z" />
    <glyph glyph-name="Ldot" unicode="&#x13f;" horiz-adv-x="1085" 
d="M839 893q43 -1 69 -29t26 -70t-28 -73t-70 -31t-68 29q-27 29 -27 71t28 72q28 31 70 31zM622 2q-248 0 -407 -8q12 147 12 500v452q0 346 -12 494q100 0 166 8q-4 -119 -4 -301v-850q0 -119 4 -166l233 -2q167 0 433 4q-8 -43 -13 -139q-164 8 -412 8z" />
    <glyph glyph-name="ldot" unicode="&#x140;" horiz-adv-x="684" 
d="M566 803q42 -1 69 -29t27 -70t-28 -73t-70 -31t-68 29t-27 71q0 42 28 72q27 31 69 31zM162 340v770q0 225 -10 344q98 8 157 21q-6 -55 -6 -236v-1036q0 -123 6 -203h-157q10 111 10 340z" />
    <glyph glyph-name="Lslash" unicode="&#x141;" horiz-adv-x="1085" 
d="M622 0q-248 0 -407 -8q12 147 12 500v131l-137 -82q-8 25 -59 114q53 25 196 105v184q0 346 -12 494q100 0 166 8q-4 -119 -4 -301v-301q104 59 246 147q12 -31 55 -117l-301 -165v-414q0 -119 4 -166l233 -2q167 0 433 4q-8 -43 -13 -139q-164 8 -412 8z" />
    <glyph glyph-name="lslash" unicode="&#x142;" horiz-adv-x="462" 
d="M162 340v301q-43 -25 -129 -76q-29 61 -56 107q61 33 185 100v338q0 225 -10 344q98 8 157 21q-6 -55 -6 -236v-387q78 47 133 82q20 -51 56 -107l-189 -104v-520q0 -123 6 -203h-157q10 111 10 340z" />
    <glyph glyph-name="Nacute" unicode="&#x143;" horiz-adv-x="1609" 
d="M907 1870l205 14l-297 -299l-100 -8zM1247 946q0 346 -12 494q102 0 168 8q-10 -98 -10 -301l-11 -860q-7 -202 4 -312l-43 -10l-978 1184v-854q0 -209 6 -295h-168q12 123 18 494l6 479q0 393 -8 491l43 11l985 -1199v670z" />
    <glyph glyph-name="nacute" unicode="&#x144;" horiz-adv-x="1112" 
d="M815 348v248q0 236 -194 235q-111 0 -214 -95t-104 -183v-342q0 -121 6 -211h-157q10 147 10 348v234q0 201 -10 348q45 0 139 8l10 -203q55 90 155 156t203 65q141 0 219 -84t78 -243v-418q1 -51 7 -211h-160q12 131 12 348zM666 1393l204 14l-297 -299l-100 -8z" />
    <glyph glyph-name="Ncommaaccent" unicode="&#x145;" horiz-adv-x="1609" 
d="M803 -125q43 0 71 -34t29 -85q0 -135 -196 -260l-39 47l47 35q69 58 69 112t-61 87l-25 10q23 88 105 88zM1247 946q0 346 -12 494q102 0 168 8q-10 -98 -10 -301l-11 -860q-7 -202 4 -312l-43 -10l-978 1184v-854q0 -209 6 -295h-168q12 123 18 494l6 479q0 393 -8 491
l43 11l985 -1199v670z" />
    <glyph glyph-name="ncommaaccent" unicode="&#x146;" horiz-adv-x="1112" 
d="M815 348v248q0 236 -194 235q-111 0 -214 -95t-104 -183v-342q0 -121 6 -211h-157q10 147 10 348v234q0 201 -10 348q45 0 139 8l10 -203q55 90 155 156t203 65q141 0 219 -84t78 -243v-418q1 -51 7 -211h-160q12 131 12 348zM543 -310q0 54 -62 87l-24 10q23 88 104 88
q43 0 72 -34t29 -85q0 -135 -197 -260l-39 47l47 35q70 58 70 112z" />
    <glyph glyph-name="Ncaron" unicode="&#x147;" horiz-adv-x="1609" 
d="M885 1587h-164l-213 297l108 10l189 -202l184 192h121zM1247 946q0 346 -12 494q102 0 168 8q-10 -98 -10 -301l-11 -860q-7 -202 4 -312l-43 -10l-978 1184v-854q0 -209 6 -295h-168q12 123 18 494l6 479q0 393 -8 491l43 11l985 -1199v670z" />
    <glyph glyph-name="ncaron" unicode="&#x148;" horiz-adv-x="1112" 
d="M815 348v248q0 236 -194 235q-111 0 -214 -95t-104 -183v-342q0 -121 6 -211h-157q10 147 10 348v234q0 201 -10 348q45 0 139 8l10 -203q55 90 155 156t203 65q141 0 219 -84t78 -243v-418q1 -51 7 -211h-160q12 131 12 348zM643 1110h-164l-213 297l109 10l188 -203
l185 193h120z" />
    <glyph glyph-name="Omacron" unicode="&#x14c;" horiz-adv-x="1671" 
d="M826 -37q-314 0 -511 211t-196 508q0 336 207 564t520 228t510 -210q197 -211 196 -508q0 -336 -206 -565q-206 -228 -520 -228zM830 92q247 0 407 186t160 454q0 270 -156 442q-155 172 -401 172t-407 -186t-161 -453t156 -441t402 -174zM893 1698h-139q-82 0 -222 -4
q6 43 7 121q137 -6 293 -6t303 6q-10 -55 -11 -121q-164 4 -231 4z" />
    <glyph glyph-name="omacron" unicode="&#x14d;" horiz-adv-x="1112" 
d="M552 92q146 0 236 106t91 273q-1 166 -91 263t-232 97t-233 -106t-91 -272q0 -165 86 -263q88 -98 234 -98zM1020 473q0 -211 -132 -358t-340 -147t-332 134q-124 135 -124 347q0 211 131 359t338 148t333 -136t126 -347zM614 1204h-139q-82 0 -221 -4q6 43 6 121
q137 -6 293 -6t303 6q-10 -55 -10 -121q-164 4 -232 4z" />
    <glyph glyph-name="Obreve" unicode="&#x14e;" horiz-adv-x="1671" 
d="M834 1599q-138 0 -221 83t-83 208l123 21q0 -97 49 -151q48 -54 134 -54t132 56t44 141l121 8q4 -145 -78 -229q-83 -84 -221 -83zM826 -37q-314 0 -511 211t-196 508q0 336 207 564t520 228t510 -210q197 -211 196 -508q0 -336 -206 -565q-206 -228 -520 -228zM830 92
q247 0 407 186t160 454q0 270 -156 442q-155 172 -401 172t-407 -186t-161 -453t156 -441t402 -174z" />
    <glyph glyph-name="obreve" unicode="&#x14f;" horiz-adv-x="1112" 
d="M556 1106q-138 0 -221 83t-83 208l123 20q0 -96 49 -150q49 -55 134 -55t131 56t44 141l121 8q4 -145 -78 -228t-220 -83zM552 92q146 0 236 106t91 273q-1 166 -91 263t-232 97t-233 -106t-91 -272q0 -165 86 -263q88 -98 234 -98zM1020 473q0 -211 -132 -358t-340 -147
t-332 134q-124 135 -124 347q0 211 131 359t338 148t333 -136t126 -347z" />
    <glyph glyph-name="Ohungarumlaut" unicode="&#x150;" horiz-adv-x="1671" 
d="M826 -37q-314 0 -511 211t-196 508q0 336 207 564t520 228t510 -210q197 -211 196 -508q0 -336 -206 -565q-206 -228 -520 -228zM830 92q247 0 407 186t160 454q0 270 -156 442q-155 172 -401 172t-407 -186t-161 -453t156 -441t402 -174zM1040 1901l191 18l-205 -320
l-104 -4zM729 1898l184 15l-186 -318l-102 -6z" />
    <glyph glyph-name="ohungarumlaut" unicode="&#x151;" horiz-adv-x="1112" 
d="M552 92q146 0 236 106t91 273q-1 166 -91 263t-232 97t-233 -106t-91 -272q0 -165 86 -263q88 -98 234 -98zM1020 473q0 -211 -132 -358t-340 -147t-332 134q-124 135 -124 347q0 211 131 359t338 148t333 -136t126 -347zM762 1407l190 18l-204 -319l-105 -4zM451 1405
l184 14l-186 -317l-103 -6z" />
    <glyph glyph-name="OE" unicode="&#x152;" horiz-adv-x="1957" 
d="M872 133q117 0 191 6q4 90 4 285v598q0 190 -2 281q-55 6 -168 6q-283 0 -452 -162t-169 -422t165 -426t431 -166zM119 717q0 313 219 521t553 208l559 -4q156 0 401 8q-14 -63 -14 -139q-239 4 -397 4t-215 -2q-4 -49 -4 -164v-330l534 4q-6 -59 -6 -133l-528 2v-397
q0 -115 4 -164l221 -2q233 0 440 6q-12 -70 -12 -141q-162 8 -414 8l-602 -6q-315 0 -527 204t-212 517z" />
    <glyph glyph-name="oe" unicode="&#x153;" horiz-adv-x="1810" 
d="M1335 836q-125 0 -208 -83t-103 -212l571 14q-29 281 -260 281zM546 92q146 0 235 106t89 273q0 166 -89 263t-230 97t-230 -106t-89 -273q0 -168 84 -264t230 -96zM1360 92q164 0 330 137l-9 -147q-164 -115 -350 -115q-143 1 -245 63t-152 173q-56 -111 -160 -173
t-237 -63q-199 0 -322 135t-123 347q0 211 129 359t342 148q133 0 233 -65q99 -66 152 -176q60 113 162 177t236 64q190 0 286 -124t97 -326l-95 -57l-614 -17q4 -164 90 -252t250 -88z" />
    <glyph glyph-name="Racute" unicode="&#x154;" horiz-adv-x="1271" 
d="M711 1870l204 14l-297 -299l-100 -8zM375 729h239q147 0 235 87q87 87 87 219t-89 207t-249 75t-223 -4v-584zM375 602v-307q0 -180 4 -295h-166q12 147 12 494v452q0 348 -12 496l360 8q246 2 384 -114t135 -287q-6 -295 -310 -412l222 -330q98 -149 213 -299l-177 -22
l-397 616h-268z" />
    <glyph glyph-name="racute" unicode="&#x155;" horiz-adv-x="673" 
d="M303 543v-332q0 -121 6 -211h-157q10 111 10 348v262q0 182 -19 312q63 2 142 20l16 -211q107 202 332 225l-19 -163q-119 12 -215 -65t-96 -185zM481 1393l205 14l-297 -299l-100 -8z" />
    <glyph glyph-name="Rcommaaccent" unicode="&#x156;" horiz-adv-x="1271" 
d="M645 -310q0 54 -61 87l-25 10q23 88 105 88q44 0 72 -34t28 -85q0 -135 -197 -260l-39 47l47 35q70 58 70 112zM375 729h239q147 0 235 87q87 87 87 219t-89 207t-249 75t-223 -4v-584zM375 602v-307q0 -180 4 -295h-166q12 147 12 494v452q0 348 -12 496l360 8
q246 2 384 -114t135 -287q-6 -295 -310 -412l222 -330q98 -149 213 -299l-177 -22l-397 616h-268z" />
    <glyph glyph-name="rcommaaccent" unicode="&#x157;" horiz-adv-x="673" 
d="M303 543v-332q0 -121 6 -211h-157q10 111 10 348v262q0 182 -19 312q63 2 142 20l16 -211q107 202 332 225l-19 -163q-119 12 -215 -65t-96 -185zM240 -125q44 0 72 -34t28 -85q0 -135 -197 -260l-39 47l48 35q70 58 70 112t-62 87l-25 10q23 88 105 88z" />
    <glyph glyph-name="Rcaron" unicode="&#x158;" horiz-adv-x="1271" 
d="M688 1587h-164l-213 297l109 10l188 -202l185 192h120zM375 729h239q147 0 235 87q87 87 87 219t-89 207t-249 75t-223 -4v-584zM375 602v-307q0 -180 4 -295h-166q12 147 12 494v452q0 348 -12 496l360 8q246 2 384 -114t135 -287q-6 -295 -310 -412l222 -330
q98 -149 213 -299l-177 -22l-397 616h-268z" />
    <glyph glyph-name="rcaron" unicode="&#x159;" horiz-adv-x="673" 
d="M303 543v-332q0 -121 6 -211h-157q10 111 10 348v262q0 182 -19 312q63 2 142 20l16 -211q107 202 332 225l-19 -163q-119 12 -215 -65t-96 -185zM461 1110h-164l-213 297l109 10l188 -203l184 193h121z" />
    <glyph glyph-name="Sacute" unicode="&#x15a;" horiz-adv-x="1067" 
d="M961 387q0 -178 -126 -301t-339 -123t-400 117l10 162q70 -56 181 -100t235 -44t206 74q83 74 83 195q0 150 -231 274q-96 51 -194 104t-165 137q-68 84 -67 189q0 170 122 287q124 117 312 117t336 -101l-50 -133q-133 98 -274 98q-141 -1 -219 -71t-78 -178
q0 -70 49 -127t122 -97t158 -87q85 -48 158 -95t122 -124t49 -173zM680 1886l205 15l-297 -299l-101 -9z" />
    <glyph glyph-name="sacute" unicode="&#x15b;" horiz-adv-x="831" 
d="M115 686q0 114 92 192q91 78 237 78t269 -73l-49 -125q-102 72 -228 71q-78 -1 -130 -35t-52 -92t50 -95t123 -63t145 -57t123 -87q50 -56 50 -136q0 -135 -103 -216t-270 -81t-286 78l8 150q135 -100 303 -101q90 0 150 39q59 39 59 101t-50 103t-123 67t-145 57
t-123 87q-50 56 -50 138zM539 1393l204 14l-297 -299l-100 -8z" />
    <glyph glyph-name="Scedilla" unicode="&#x15e;" horiz-adv-x="1067" 
d="M961 387q0 -164 -108 -282t-294 -138l-31 -110q205 -57 205 -176q0 -63 -53 -107q-54 -44 -142 -45q-88 0 -176 31l21 94q82 -33 164 -33t82 55q0 66 -191 109l-8 8q18 57 49 170q-209 6 -383 117l10 162q70 -56 181 -100t235 -44t206 74q83 74 83 195q0 150 -231 274
q-96 51 -194 104t-165 137q-68 84 -67 189q0 170 122 287q124 117 312 117t336 -101l-50 -133q-133 98 -274 98q-141 -1 -219 -71t-78 -178q0 -70 49 -127t122 -97t158 -87q85 -48 158 -95t122 -124t49 -173z" />
    <glyph glyph-name="scedilla" unicode="&#x15f;" horiz-adv-x="831" 
d="M115 686q0 114 92 192q91 78 237 78t269 -73l-49 -125q-102 72 -228 71q-78 -1 -130 -35t-52 -92t50 -95t123 -63t145 -57t123 -87q50 -56 50 -136q0 -122 -85 -200t-214 -93l-30 -114q205 -57 205 -176q1 -63 -53 -107t-141 -45q-87 0 -177 31l20 94q82 -33 164 -33
t82 55q0 66 -190 109l-9 8q23 74 50 174q-172 6 -281 78l8 150q135 -100 303 -101q90 0 150 39q59 39 59 101t-50 103t-123 67t-145 57t-123 87q-50 56 -50 138z" />
    <glyph glyph-name="Scaron" unicode="&#x160;" horiz-adv-x="1067" 
d="M961 387q0 -178 -126 -301t-339 -123t-400 117l10 162q70 -56 181 -100t235 -44t206 74q83 74 83 195q0 150 -231 274q-96 51 -194 104t-165 137q-68 84 -67 189q0 170 122 287q124 117 312 117t336 -101l-50 -133q-133 98 -274 98q-141 -1 -219 -71t-78 -178
q0 -70 49 -127t122 -97t158 -87q85 -48 158 -95t122 -124t49 -173zM657 1604h-163l-213 297l108 10l189 -203l184 193h121z" />
    <glyph glyph-name="scaron" unicode="&#x161;" horiz-adv-x="831" 
d="M115 686q0 114 92 192q91 78 237 78t269 -73l-49 -125q-102 72 -228 71q-78 -1 -130 -35t-52 -92t50 -95t123 -63t145 -57t123 -87q50 -56 50 -136q0 -135 -103 -216t-270 -81t-286 78l8 150q135 -100 303 -101q90 0 150 39q59 39 59 101t-50 103t-123 67t-145 57
t-123 87q-50 56 -50 138zM516 1110h-164l-213 297l109 10l188 -203l185 193h120z" />
    <glyph glyph-name="Tcommaaccent" unicode="&#x162;" horiz-adv-x="1277" 
d="M713 1315v-1020q0 -238 4 -295h-166q10 123 10 494v446q0 322 -2 375q-211 0 -506 -4q8 55 8 139q352 -8 578 -8t586 8q-10 -47 -15 -139q-156 4 -497 4zM633 -125q43 0 72 -34t28 -85q0 -135 -196 -260l-39 47l47 35q69 58 69 112t-61 87l-25 10q23 88 105 88z" />
    <glyph glyph-name="Tcommaaccent" unicode="&#x21a;" horiz-adv-x="1277" 
d="M713 1315v-1020q0 -238 4 -295h-166q10 123 10 494v446q0 322 -2 375q-211 0 -506 -4q8 55 8 139q352 -8 578 -8t586 8q-10 -47 -15 -139q-156 4 -497 4zM633 -125q43 0 72 -34t28 -85q0 -135 -196 -260l-39 47l47 35q69 58 69 112t-61 87l-25 10q23 88 105 88z" />
    <glyph glyph-name="tcommaaccent" unicode="&#x163;" horiz-adv-x="692" 
d="M211 223v590h-164l39 123h127l14 205l125 33v-238h258q-6 -53 -6 -123h-252v-575q0 -74 30 -106t98 -32t143 47l-7 -124q-66 -51 -174 -52q-231 0 -231 252zM416 -127q44 0 72 -34t28 -85q0 -135 -197 -260l-38 47l47 35q70 58 70 112t-62 87l-25 10q23 88 105 88z" />
    <glyph glyph-name="tcommaaccent" unicode="&#x21b;" horiz-adv-x="692" 
d="M211 223v590h-164l39 123h127l14 205l125 33v-238h258q-6 -53 -6 -123h-252v-575q0 -74 30 -106t98 -32t143 47l-7 -124q-66 -51 -174 -52q-231 0 -231 252zM416 -127q44 0 72 -34t28 -85q0 -135 -197 -260l-38 47l47 35q70 58 70 112t-62 87l-25 10q23 88 105 88z" />
    <glyph glyph-name="Tcaron" unicode="&#x164;" horiz-adv-x="1277" 
d="M713 1315v-1020q0 -238 4 -295h-166q10 123 10 494v446q0 322 -2 375q-211 0 -506 -4q8 55 8 139q352 -8 578 -8t586 8q-10 -47 -15 -139q-156 4 -497 4zM715 1587h-164l-213 297l108 10l189 -202l184 192h121z" />
    <glyph glyph-name="tcaron" unicode="&#x165;" horiz-adv-x="692" 
d="M545 1122l-64 -14q14 184 17 307l123 19q-51 -226 -76 -312zM217 813h-164l39 123h127l14 205l125 33v-238h258q-6 -53 -6 -123h-252v-575q0 -74 30 -106t98 -32t143 47l-6 -124q-66 -51 -174 -52q-231 0 -232 252v590z" />
    <glyph glyph-name="Umacron" unicode="&#x16a;" horiz-adv-x="1525" 
d="M821 1681h-139q-82 0 -221 -4q6 43 6 121q137 -6 293 -6t303 6q-10 -55 -10 -121q-164 4 -232 4zM1327 1147v-574q0 -299 -158 -455t-414 -155q-257 0 -407 141t-149 385v457q0 371 -11 494q100 0 168 8q-6 -59 -6 -301v-606q0 -442 422 -443q188 0 297 110t109 304v434
q0 375 -13 494q98 0 170 8q-8 -80 -8 -301z" />
    <glyph glyph-name="umacron" unicode="&#x16b;" horiz-adv-x="1114" 
d="M614 1204h-139q-82 0 -221 -4q6 43 6 121q137 -6 293 -6t303 6q-10 -55 -10 -121q-164 4 -232 4zM158 317v275q0 182 -11 340q94 0 158 8q-6 -84 -6 -225v-365q1 -258 205 -258q102 0 204 86t103 170v244q0 199 -12 340q100 0 159 8q-6 -84 -6 -225v-369q1 -207 13 -346
h-131l-19 176q-53 -88 -151 -149t-193 -62q-313 0 -313 352z" />
    <glyph glyph-name="Ubreve" unicode="&#x16c;" horiz-adv-x="1525" 
d="M763 1583q-138 0 -221 83t-83 208l123 20q0 -96 49 -150t134 -54t131 55t44 141l121 8q4 -145 -78 -228t-220 -83zM1327 1147v-574q0 -299 -158 -455t-414 -155q-257 0 -407 141t-149 385v457q0 371 -11 494q100 0 168 8q-6 -59 -6 -301v-606q0 -442 422 -443
q188 0 297 110t109 304v434q0 375 -13 494q98 0 170 8q-8 -80 -8 -301z" />
    <glyph glyph-name="ubreve" unicode="&#x16d;" horiz-adv-x="1114" 
d="M556 1106q-138 0 -221 83t-83 208l123 20q0 -96 49 -150q49 -55 134 -55t131 56t44 141l121 8q4 -145 -78 -228t-220 -83zM158 317v275q0 182 -11 340q94 0 158 8q-6 -84 -6 -225v-365q1 -258 205 -258q102 0 204 86t103 170v244q0 199 -12 340q100 0 159 8
q-6 -84 -6 -225v-369q1 -207 13 -346h-131l-19 176q-53 -88 -151 -149t-193 -62q-313 0 -313 352z" />
    <glyph glyph-name="Uring" unicode="&#x16e;" horiz-adv-x="1525" 
d="M1327 1147v-574q0 -299 -158 -455t-414 -155q-257 0 -407 141t-149 385v457q0 371 -11 494q100 0 168 8q-6 -59 -6 -301v-606q0 -442 422 -443q188 0 297 110t109 304v434q0 375 -13 494q98 0 170 8q-8 -80 -8 -301zM889 1780q0 57 -34 94t-92 37t-94 -38t-36 -95
q0 -58 35 -96t93 -38t93 40q35 39 35 96zM764 1995q102 1 164 -59t61 -152t-65 -159t-165 -67t-164 62q-63 61 -63 153t65 157t167 65z" />
    <glyph glyph-name="uring" unicode="&#x16f;" horiz-adv-x="1114" 
d="M158 317v275q0 182 -11 340q94 0 158 8q-6 -84 -6 -225v-365q1 -258 205 -258q102 0 204 86t103 170v244q0 199 -12 340q100 0 159 8q-6 -84 -6 -225v-369q1 -207 13 -346h-131l-19 176q-53 -88 -151 -149t-193 -62q-313 0 -313 352zM684 1321q0 57 -34 94t-92 37
t-94 -38t-36 -95t35 -95t93 -38t93 39t35 96zM784 1325q0 -92 -64 -159q-64 -66 -166 -66q-101 0 -164 61q-62 61 -62 153t64 158q64 64 167 64q102 0 164 -59q61 -60 61 -152z" />
    <glyph glyph-name="Uhungarumlaut" unicode="&#x170;" horiz-adv-x="1525" 
d="M969 1884l190 19l-205 -320l-104 -4zM657 1882l185 14l-187 -317l-102 -6zM1327 1147v-574q0 -299 -158 -455t-414 -155q-257 0 -407 141t-149 385v457q0 371 -11 494q100 0 168 8q-6 -59 -6 -301v-606q0 -442 422 -443q188 0 297 110t109 304v434q0 375 -13 494
q98 0 170 8q-8 -80 -8 -301z" />
    <glyph glyph-name="uhungarumlaut" unicode="&#x171;" horiz-adv-x="1114" 
d="M762 1407l190 18l-204 -319l-105 -4zM451 1405l184 14l-186 -317l-103 -6zM158 317v275q0 182 -11 340q94 0 158 8q-6 -84 -6 -225v-365q1 -258 205 -258q102 0 204 86t103 170v244q0 199 -12 340q100 0 159 8q-6 -84 -6 -225v-369q1 -207 13 -346h-131l-19 176
q-53 -88 -151 -149t-193 -62q-313 0 -313 352z" />
    <glyph glyph-name="Uogonek" unicode="&#x172;" horiz-adv-x="1525" 
d="M729 -250q-1 -78 97 -78q52 0 120 47l-8 -100q-61 -45 -145 -45t-133 43q-48 43 -48 115q0 121 168 233q-12 -2 -39 -2q-243 0 -393 141t-149 385v457q0 371 -11 494q102 0 170 8q-6 -88 -6 -301v-604q0 -442 420 -443q188 0 296 109t108 303v434q0 375 -13 494
q104 0 172 8q-6 -59 -6 -301v-574q0 -299 -155 -454q-80 -76 -196 -122t-182 -113t-67 -134z" />
    <glyph glyph-name="uogonek" unicode="&#x173;" horiz-adv-x="1114" 
d="M836 -328q52 0 120 47l-8 -100q-61 -45 -145 -45t-132 43t-48 115q0 135 211 268l-19 176q-53 -88 -151 -149t-193 -62q-313 0 -313 352v275q0 182 -11 340q94 0 158 8q-6 -84 -6 -225v-365q1 -258 205 -258q102 0 204 86t103 170v244q0 199 -12 340q100 0 159 8
q-6 -84 -6 -225v-369q1 -207 13 -346q-225 -139 -226 -250q-1 -78 97 -78z" />
    <glyph glyph-name="Wcircumflex" unicode="&#x174;" horiz-adv-x="2027" 
d="M950 1886h166l209 -301l-106 -10l-189 207l-182 -193h-125zM1999 1440l-377 -1041q-103 -283 -149 -426l-41 -12l-410 1163l-270 -737q-20 -59 -76 -201t-82 -223h-41l-379 1081q-100 287 -145 392l164 12l391 -1151l280 774q38 118 135 383l43 12l410 -1169l256 758
q45 133 125 385h166z" />
    <glyph glyph-name="wcircumflex" unicode="&#x175;" horiz-adv-x="1429" 
d="M643 1409h166l209 -301l-107 -10l-188 207l-182 -193h-125zM377 -29q-18 74 -101 303l-116 324q-76 211 -127 326l155 22l238 -717l102 299q96 279 138 406l100 10l250 -715l98 297q94 289 127 408q104 0 154 6l-338 -958l-88 -11q-33 123 -119 357l-135 381l-250 -725z
" />
    <glyph glyph-name="Ycircumflex" unicode="&#x176;" horiz-adv-x="1251" 
d="M555 1886h166l209 -301l-107 -10l-188 207l-182 -193h-125zM702 295q0 -209 7 -295h-168q12 147 12 487v136l-219 340q-147 235 -311 477l167 14l441 -696l151 235q4 4 281 451h176l-537 -815v-334z" />
    <glyph glyph-name="ycircumflex" unicode="&#x177;" horiz-adv-x="937" 
d="M408 1409h165l209 -301l-106 -10l-189 207l-182 -193h-125zM184 -436l224 516q-51 133 -95 229t-131 296q-86 200 -149 319l160 22l286 -700l121 291q127 324 152 397q113 0 157 6l-456 -1092q-88 -213 -111 -278q-97 0 -158 -6z" />
    <glyph glyph-name="Ydieresis" unicode="&#x178;" horiz-adv-x="1251" 
d="M804 1829q42 -1 70 -29t27 -69q0 -41 -29 -73q-28 -32 -70 -32t-69 29t-27 71t28 72q28 31 70 31zM458 1829q42 -1 68 -29t27 -70q0 -42 -28 -73q-29 -31 -71 -31t-69 29t-27 69t29 73q29 32 71 32zM702 295q0 -209 7 -295h-168q12 147 12 487v136l-219 340
q-147 235 -311 477l167 14l441 -696l151 235q4 4 281 451h176l-537 -815v-334z" />
    <glyph glyph-name="Zacute" unicode="&#x179;" horiz-adv-x="1267" 
d="M674 127q281 0 497 6q-10 -66 -14 -139q-171 8 -531 8t-538 -10l-31 31l916 1292q-102 2 -323 2t-509 -4q8 55 9 137q222 -8 540 -8t496 8l31 -29l-918 -1292q94 -2 375 -2zM780 1870l205 14l-297 -299l-100 -8z" />
    <glyph glyph-name="zacute" unicode="&#x17a;" horiz-adv-x="917" 
d="M457 2q-182 0 -383 -10l-23 37l592 786q-362 0 -539 -4q8 57 9 129q179 -6 361 -6t368 6l22 -37l-592 -782q406 0 576 4q-12 -68 -14 -133q-195 10 -377 10zM582 1393l204 14l-297 -299l-100 -8z" />
    <glyph glyph-name="Zdotaccent" unicode="&#x17b;" horiz-adv-x="1267" 
d="M683 1829q43 -1 69 -29t26 -70t-28 -73t-69 -31q-42 0 -69 29q-26 29 -26 71t27 72q28 31 70 31zM674 127q281 0 497 6q-10 -66 -14 -139q-171 8 -531 8t-538 -10l-31 31l916 1292q-102 2 -323 2t-509 -4q8 55 9 137q222 -8 540 -8t496 8l31 -29l-918 -1292q94 -2 375 -2
z" />
    <glyph glyph-name="zdotaccent" unicode="&#x17c;" horiz-adv-x="917" 
d="M580 1252q0 -42 -28 -72t-70 -31q-42 0 -68 29q-26 28 -27 70q0 42 28 73q27 31 69 31t69 -29t27 -71zM457 2q-182 0 -383 -10l-23 37l592 786q-362 0 -539 -4q8 57 9 129q179 -6 361 -6t368 6l22 -37l-592 -782q406 0 576 4q-12 -68 -14 -133q-195 10 -377 10z" />
    <glyph glyph-name="Zcaron" unicode="&#x17d;" horiz-adv-x="1267" 
d="M674 127q281 0 497 6q-10 -66 -14 -139q-171 8 -531 8t-538 -10l-31 31l916 1292q-102 2 -323 2t-509 -4q8 55 9 137q222 -8 540 -8t496 8l31 -29l-918 -1292q94 -2 375 -2zM758 1587h-164l-213 297l108 10l189 -202l184 192h121z" />
    <glyph glyph-name="zcaron" unicode="&#x17e;" horiz-adv-x="917" 
d="M457 2q-182 0 -383 -10l-23 37l592 786q-362 0 -539 -4q8 57 9 129q179 -6 361 -6t368 6l22 -37l-592 -782q406 0 576 4q-12 -68 -14 -133q-195 10 -377 10zM559 1110h-164l-213 297l109 10l188 -203l185 193h120z" />
    <glyph glyph-name="florin" unicode="&#x192;" horiz-adv-x="876" 
d="M682 1307q-98 1 -144 -61t-71 -210l-14 -102h295q-15 -58 -23 -119h-291l-74 -520q-23 -164 -36 -295h-156q51 268 82 494l47 321h-188l59 119h147l13 80q33 215 118 317q86 102 240 103q84 0 145 -27l-32 -123q-90 23 -117 23z" />
    <glyph glyph-name="Aringacute" unicode="&#x1fa;" horiz-adv-x="1423" 
d="M795 2267l204 14l-297 -299l-100 -8zM834 1616q0 57 -34 94t-92 37t-94 -38t-36 -95t34 -95t94 -38q58 0 93 39t35 96zM700 1186l-262 -600h525zM477 1614q0 88 65 152t167 65q101 1 163 -59t62 -145t-49 -148t-133 -80l460 -1010q96 -215 183 -389l-164 -14l-213 475
h-635l-33 -76q-39 -92 -155 -385h-168l467 1036q119 262 159 363q-80 14 -128 71q-48 56 -48 144z" />
    <glyph glyph-name="aringacute" unicode="&#x1fb;" horiz-adv-x="983" 
d="M575 1972l205 15l-297 -299l-100 -9zM614 1321q0 57 -33 94q-35 37 -93 37t-94 -38t-36 -95t35 -95t93 -38t94 39q34 39 34 96zM219 259q1 -169 191 -169q100 0 177 76t81 190l2 90q-55 6 -113 7q-178 -1 -258 -57t-80 -137zM490 1536q102 0 164 -60t61 -151
q0 -92 -65 -159q-65 -66 -166 -66t-163 61q-63 61 -63 153t65 158q65 64 167 64zM354 -25q-118 0 -195 74t-77 202t121 213t358 85q57 0 111 -6l2 39q8 250 -217 249q-139 0 -267 -90l-32 125q154 90 320 90t252 -94q87 -94 83 -266l-12 -406q-2 -56 13 -78t50 -22t82 21
l-14 -103q-134 -68 -210 16q-40 44 -42 138q-39 -84 -123 -136q-85 -52 -203 -51z" />
    <glyph glyph-name="AEacute" unicode="&#x1fc;" horiz-adv-x="1820" 
d="M1225 1870l205 14l-297 -299l-101 -8zM932 954q0 102 -4 312l-424 -680h428v368zM1321 2q-254 0 -399 -10q10 154 10 465h-510l-43 -72q-131 -213 -225 -385h-174l649 1036q201 317 254 414q233 -8 411 -8t420 8q-10 -61 -14 -139q-238 4 -396 4t-217 -2q-2 -49 -2 -164
v-330l533 4q-6 -59 -6 -133l-527 2v-397q0 -115 2 -164l224 -2q233 0 438 6q-10 -72 -12 -141q-162 8 -416 8z" />
    <glyph glyph-name="aeacute" unicode="&#x1fd;" horiz-adv-x="1593" 
d="M893 1393l205 14l-297 -299l-101 -8zM1118 836q-115 0 -198 -85t-103 -210l561 14q-29 281 -260 281zM219 252q0 -72 46 -117q47 -45 149 -45t180 87t82 214l2 58l-135 2q-324 0 -324 -199zM813 432q12 -340 333 -340q161 0 327 137l-9 -147q-164 -115 -346 -115
q-287 0 -381 250q-47 -113 -138 -177t-222 -65q-131 0 -213 75t-82 202t117 210t350 83l133 -2l2 37q8 252 -238 252q-128 0 -256 -91l-32 125q154 90 315 90q242 0 305 -202q117 203 346 202q188 0 288 -126t99 -324l-94 -57z" />
    <glyph glyph-name="Oslashacute" unicode="&#x1fe;" horiz-adv-x="1669" 
d="M934 1886l205 15l-297 -299l-101 -9zM827 94q248 0 407 184t159 440q0 257 -129 421l-785 -920q143 -125 348 -125zM276 717q0 -258 130 -422l784 924q-143 125 -346 124q-248 0 -408 -184t-160 -442zM1550 756q0 -336 -207 -564t-528 -229q-248 0 -432 146l-143 -168
l-101 53q80 86 170 186q-190 207 -190 502q0 336 207 564t530 229q244 0 428 -146q94 111 139 170q74 -45 101 -59q-29 -29 -162 -185q188 -205 188 -499z" />
    <glyph glyph-name="oslashacute" unicode="&#x1ff;" horiz-adv-x="1112" 
d="M647 1393l205 14l-297 -299l-100 -8zM231 470q0 -148 54 -239l473 533q-80 68 -212 68t-224 -107t-91 -255zM564 92q136 0 227 106q90 106 90 254t-62 242l-471 -534q80 -68 216 -68zM567 956q162 0 279 -94l115 131q20 -20 75 -63l-123 -133q106 -129 107 -312
q0 -223 -132 -370t-347 -148q-164 0 -281 94l-119 -131l-78 56l132 141q-102 131 -103 311q0 222 131 370t344 148z" />
    <glyph glyph-name="Scommaaccent" unicode="&#x218;" horiz-adv-x="1067" 
d="M961 387q0 -178 -126 -301t-339 -123t-400 117l10 162q70 -56 181 -100t235 -44t206 74q83 74 83 195q0 150 -231 274q-96 51 -194 104t-165 137q-68 84 -67 189q0 170 122 287q124 117 312 117t336 -101l-50 -133q-133 98 -274 98q-141 -1 -219 -71t-78 -178
q0 -70 49 -127t122 -97t158 -87q85 -48 158 -95t122 -124t49 -173zM502 -310q0 54 -62 87l-24 10q23 88 104 88q43 0 72 -34t29 -85q0 -135 -197 -260l-39 47l47 35q70 58 70 112z" />
    <glyph glyph-name="scommaaccent" unicode="&#x219;" horiz-adv-x="831" 
d="M115 686q0 114 92 192q91 78 237 78t269 -73l-49 -125q-102 72 -228 71q-78 -1 -130 -35t-52 -92t50 -95t123 -63t145 -57t123 -87q50 -56 50 -136q0 -135 -103 -216t-270 -81t-286 78l8 150q135 -100 303 -101q90 0 150 39q59 39 59 101t-50 103t-123 67t-145 57
t-123 87q-50 56 -50 138zM375 -310q0 54 -62 87l-24 10q23 88 104 88q43 0 72 -34t29 -85q0 -135 -197 -260l-39 47l47 35q70 58 70 112z" />
    <glyph glyph-name="schwa" unicode="&#x259;" horiz-adv-x="1024" 
d="M477 86q123 0 206 84t103 213l-571 -16q29 -281 262 -281zM450 831q-164 0 -327 -137l6 146q167 116 365 116t318 -134t120 -346t-129 -360t-327 -148t-297 124q-97 125 -97 324l94 59l615 17q-5 164 -91 252t-250 87z" />
    <glyph glyph-name="circumflex" unicode="&#x2c6;" horiz-adv-x="835" 
d="M344 1409h166l209 -301l-107 -10l-188 207l-182 -193h-125z" />
    <glyph glyph-name="caron" unicode="&#x2c7;" horiz-adv-x="835" 
d="M494 1110h-164l-213 297l108 10l189 -203l184 193h121z" />
    <glyph glyph-name="breve" unicode="&#x2d8;" horiz-adv-x="782" 
d="M394 1106q-138 0 -221 83t-83 208l123 20q0 -96 49 -150q49 -55 134 -55t131 56t44 141l121 8q4 -145 -78 -228t-220 -83z" />
    <glyph glyph-name="dotaccent" unicode="&#x2d9;" horiz-adv-x="446" 
d="M224 1352q42 0 68 -29t27 -71t-27 -72t-70 -31q-42 0 -68 29q-26 28 -27 70q0 42 28 73q27 31 69 31z" />
    <glyph glyph-name="ring" unicode="&#x2da;" horiz-adv-x="626" 
d="M440 1321q0 57 -33 94q-35 37 -93 37t-94 -38t-36 -95t35 -95t93 -38t94 39q34 39 34 96zM84 1314q0 92 64 158q64 64 167 64q102 0 164 -60t62 -151q0 -92 -65 -159q-65 -66 -166 -66t-164 61q-62 61 -62 153z" />
    <glyph glyph-name="ogonek" unicode="&#x2db;" horiz-adv-x="608" 
d="M322 -328q50 0 120 47l-8 -100q-61 -45 -145 -45t-132 43t-48 115q-1 162 321 342l21 -54q-225 -158 -226 -270q1 -78 97 -78z" />
    <glyph glyph-name="tilde" unicode="&#x2dc;" horiz-adv-x="833" 
d="M563 1249q59 0 90 152l107 -17q-43 -258 -199 -258q-61 0 -161 72t-134 72q-33 0 -51 -32t-33 -114l-108 17q25 137 72 194q100 119 285 -14q99 -72 132 -72z" />
    <glyph glyph-name="hungarumlaut" unicode="&#x2dd;" horiz-adv-x="874" 
d="M565 1407l191 18l-205 -319l-105 -4zM254 1405l184 14l-186 -317l-102 -6z" />
    <glyph glyph-name="commaaccent" unicode="&#x326;" horiz-adv-x="471" 
d="M248 -310q0 54 -62 87l-24 10q23 88 104 88q43 0 72 -34t29 -85q0 -135 -197 -260l-39 47l47 35q70 58 70 112z" />
    <glyph glyph-name="baht" unicode="&#xe3f;" horiz-adv-x="1245" 
d="M558 793q160 -1 252 69q93 70 93 185q0 233 -350 233q-55 0 -184 -6q-2 -18 -2 -127v-225q0 -109 2 -127q29 -2 189 -2zM622 131q148 0 248 70q100 71 100 199t-104 203q-106 75 -315 75q-113 0 -184 -8v-383q0 -101 2 -148q105 -8 253 -8zM604 -2h-227l-119 -270
q-59 37 -115 51l103 219h-39q10 123 10 485v439q0 365 -10 481q328 10 360 10q139 0 252 -41q10 25 45 97t78 178q82 -49 109 -58q-35 -76 -127 -270q131 -96 131 -258q0 -111 -67 -194t-181 -117q155 -39 235 -129t80 -220q0 -175 -138 -289t-380 -114z" />
    <glyph glyph-name="Wgrave" unicode="&#x1e80;" horiz-adv-x="2027" 
d="M733 1870l178 14l191 -299l-92 -8zM1999 1440l-377 -1041q-103 -283 -149 -426l-41 -12l-410 1163l-270 -737q-20 -59 -76 -201t-82 -223h-41l-379 1081q-100 287 -145 392l164 12l391 -1151l280 774q38 118 135 383l43 12l410 -1169l256 758q45 133 125 385h166z" />
    <glyph glyph-name="wgrave" unicode="&#x1e81;" horiz-adv-x="1429" 
d="M426 1393l178 14l191 -299l-93 -8zM377 -29q-18 74 -101 303l-116 324q-76 211 -127 326l155 22l238 -717l102 299q96 279 138 406l100 10l250 -715l98 297q94 289 127 408q104 0 154 6l-338 -958l-88 -11q-33 123 -119 357l-135 381l-250 -725z" />
    <glyph glyph-name="Wacute" unicode="&#x1e82;" horiz-adv-x="2027" 
d="M1124 1870l205 14l-297 -299l-100 -8zM1999 1440l-377 -1041q-103 -283 -149 -426l-41 -12l-410 1163l-270 -737q-20 -59 -76 -201t-82 -223h-41l-379 1081q-100 287 -145 392l164 12l391 -1151l280 774q38 118 135 383l43 12l410 -1169l256 758q45 133 125 385h166z" />
    <glyph glyph-name="wacute" unicode="&#x1e83;" horiz-adv-x="1429" 
d="M817 1393l205 14l-297 -299l-100 -8zM377 -29q-18 74 -101 303l-116 324q-76 211 -127 326l155 22l238 -717l102 299q96 279 138 406l100 10l250 -715l98 297q94 289 127 408q104 0 154 6l-338 -958l-88 -11q-33 123 -119 357l-135 381l-250 -725z" />
    <glyph glyph-name="Wdieresis" unicode="&#x1e84;" horiz-adv-x="2027" 
d="M1199 1829q41 -1 69 -29t28 -69t-28 -73t-71 -32q-42 0 -69 29q-26 29 -26 71t27 72q28 31 70 31zM853 1829q43 -1 69 -29t26 -70t-28 -73t-70 -31q-43 0 -70 29q-26 29 -26 69t28 73q29 32 71 32zM1999 1440l-377 -1041q-103 -283 -149 -426l-41 -12l-410 1163
l-270 -737q-20 -59 -76 -201t-82 -223h-41l-379 1081q-100 287 -145 392l164 12l391 -1151l280 774q38 118 135 383l43 12l410 -1169l256 758q45 133 125 385h166z" />
    <glyph glyph-name="wdieresis" unicode="&#x1e85;" horiz-adv-x="1429" 
d="M892 1352q42 0 70 -29t27 -70t-29 -73t-70 -31q-42 0 -69 29q-27 28 -27 70t28 73t70 31zM546 1352q42 0 68 -29t27 -71q0 -42 -28 -72q-29 -30 -71 -31q-42 0 -69 29q-27 30 -27 70t29 72t71 32zM377 -29q-18 74 -101 303l-116 324q-76 211 -127 326l155 22l238 -717
l102 299q96 279 138 406l100 10l250 -715l98 297q94 289 127 408q104 0 154 6l-338 -958l-88 -11q-33 123 -119 357l-135 381l-250 -725z" />
    <glyph glyph-name="Ygrave" unicode="&#x1ef2;" horiz-adv-x="1251" 
d="M338 1870l178 14l191 -299l-93 -8zM702 295q0 -209 7 -295h-168q12 147 12 487v136l-219 340q-147 235 -311 477l167 14l441 -696l151 235q4 4 281 451h176l-537 -815v-334z" />
    <glyph glyph-name="ygrave" unicode="&#x1ef3;" horiz-adv-x="937" 
d="M190 1393l179 14l190 -299l-92 -8zM184 -436l224 516q-51 133 -95 229t-131 296q-86 200 -149 319l160 22l286 -700l121 291q127 324 152 397q113 0 157 6l-456 -1092q-88 -213 -111 -278q-97 0 -158 -6z" />
    <glyph glyph-name="enspace" unicode="&#x2002;" horiz-adv-x="1024" 
 />
    <glyph glyph-name="emspace" unicode="&#x2003;" horiz-adv-x="2048" 
 />
    <glyph glyph-name="threeperemspace" unicode="&#x2004;" horiz-adv-x="681" 
 />
    <glyph glyph-name="fourperemspace" unicode="&#x2005;" horiz-adv-x="512" 
 />
    <glyph glyph-name="figurespace" unicode="&#x2007;" horiz-adv-x="1146" 
 />
    <glyph glyph-name="thinspace" unicode="&#x2009;" horiz-adv-x="272" 
 />
    <glyph glyph-name="hairspace" unicode="&#x200a;" horiz-adv-x="153" 
 />
    <glyph glyph-name="endash" unicode="&#x2013;" horiz-adv-x="1079" 
d="M633 514h-193q-111 0 -323 -4q6 47 6 121q195 -6 417 -6t427 6q-8 -66 -9 -121q-225 4 -325 4z" />
    <glyph glyph-name="emdash" unicode="&#x2014;" horiz-adv-x="1978" 
d="M1407 514h-848q-184 0 -442 -4q6 47 6 121q255 -6 865 -6t874 6q-4 -27 -11 -121q-266 4 -444 4z" />
    <glyph glyph-name="quoteleft" unicode="&#x2018;" horiz-adv-x="409" 
d="M182 1178q0 -72 97 -117l28 -12q-35 -113 -125 -113q-53 0 -92 47t-39 121q0 197 260 383l47 -72l-14 -14q-162 -113 -162 -223z" />
    <glyph glyph-name="quoteright" unicode="&#x2019;" horiz-adv-x="409" 
d="M225 1225q0 74 -94 116l-31 15q37 111 125 110q55 0 93 -47t38 -121q0 -194 -258 -380l-47 71l12 12q162 113 162 224z" />
    <glyph glyph-name="quotesinglbase" unicode="&#x201a;" horiz-adv-x="409" 
d="M225 -63q0 72 -96 116l-29 13q35 113 125 112q53 0 92 -47t39 -121q0 -197 -260 -383l-47 72l14 14q162 113 162 224z" />
    <glyph glyph-name="quotedblleft" unicode="&#x201c;" horiz-adv-x="782" 
d="M182 1178q0 -72 97 -117l28 -12q-35 -113 -125 -113q-53 0 -92 47t-39 121q0 197 260 383l47 -72l-14 -14q-162 -113 -162 -223zM555 1178q0 -72 96 -117l29 -12q-35 -113 -125 -113q-53 0 -92 47t-39 121q0 197 260 383l47 -72l-14 -14q-162 -113 -162 -223z" />
    <glyph glyph-name="quotedblright" unicode="&#x201d;" horiz-adv-x="782" 
d="M598 1225q0 74 -94 116l-31 15q37 111 125 110q55 0 93 -47t38 -121q0 -194 -258 -380l-47 71l12 12q162 113 162 224zM225 1225q0 74 -94 116l-31 15q37 111 125 110q55 0 93 -47t38 -121q0 -194 -258 -380l-47 71l12 12q162 113 162 224z" />
    <glyph glyph-name="quotedblbase" unicode="&#x201e;" horiz-adv-x="782" 
d="M598 -63q0 72 -96 116l-29 13q35 113 125 112q53 0 92 -47t39 -121q0 -197 -260 -383l-47 72l14 14q162 113 162 224zM225 -63q0 72 -96 116l-29 13q35 113 125 112q53 0 92 -47t39 -121q0 -197 -260 -383l-47 72l14 14q162 113 162 224z" />
    <glyph glyph-name="dagger" unicode="&#x2020;" horiz-adv-x="1054" 
d="M471 1059q0 283 -16 430q59 0 145 10q-8 -117 -12 -301l-4 -139h102l197 10q67 4 94 8l-6 -133q-47 6 -131 8l-129 4q-41 2 -129 2l4 -702q0 -203 6 -297h-137q6 113 10 494l6 505q-84 0 -156 -2l-98 -4q-82 -2 -139 -8l6 133q31 -4 96 -8l193 -10h98z" />
    <glyph glyph-name="daggerdbl" unicode="&#x2021;" horiz-adv-x="1054" 
d="M971 365q-151 14 -387 14v-109q0 -180 8 -311h-137q8 135 12 420l-209 -4q-119 -4 -180 -10q0 2 3 64t3 65q37 -4 125 -9l258 -10l4 486q-273 0 -393 -13q0 2 3 64t3 65q61 -8 125 -10l260 -8v121q-6 227 -14 309q59 0 145 10q-8 -117 -12 -301l-4 -139l272 8q23 0 121 8
l-6 -129q-85 8 -227 9t-162 6l2 -486l272 8q78 4 121 11z" />
    <glyph glyph-name="bullet" unicode="&#x2022;" horiz-adv-x="860" 
d="M170 719q0 111 75 187t185 77t184 -77t74 -189t-75 -189t-183 -78t-184 80q-76 78 -76 189z" />
    <glyph glyph-name="ellipsis" unicode="&#x2026;" horiz-adv-x="1302" 
d="M993 69q0 45 29 75t72 30q44 0 72 -30t28 -71q0 -42 -30 -74t-74 -32t-70 29q-27 29 -27 73zM650 -33q-44 0 -72 30t-27 73q0 44 29 74q28 30 72 30t72 -30t28 -71q0 -42 -29 -74t-73 -32zM210 174q44 0 72 -30t29 -71q1 -42 -29 -74t-74 -32t-72 30t-28 73q0 44 30 74
q28 30 72 30z" />
    <glyph glyph-name="guilsinglleft" unicode="&#x2039;" horiz-adv-x="712" 
d="M481 926q70 2 133 14q-141 -211 -342 -473q78 -119 328 -459l-88 -39q-295 326 -414 477l6 25q260 308 377 455z" />
    <glyph glyph-name="guilsinglright" unicode="&#x203a;" horiz-adv-x="712" 
d="M229 -18q-68 -2 -131 -15q152 227 342 475q-66 100 -327 457l86 39q297 -324 415 -475l-4 -25q-246 -286 -381 -456z" />
    <glyph glyph-name="fraction" unicode="&#x2044;" horiz-adv-x="380" 
d="M-258 -27l-92 43q90 121 235 328l533 772q184 266 217 324q61 -29 96 -47q-45 -57 -170 -238l-678 -981q-28 -45 -141 -201z" />
    <glyph glyph-name="zero.sup" unicode="&#x2070;" 
d="M381 987q90 0 142 88q52 89 52 233t-51 227t-141 83t-142 -88q-53 -88 -53 -232t52 -228q52 -83 141 -83zM388 1718q146 0 224 -114t78 -298t-83 -302t-230 -117q-147 -1 -225 113t-78 298t84 302t230 118z" />
    <glyph glyph-name="four.sup" unicode="&#x2074;" 
d="M475 1583l-303 -385q262 0 303 2v383zM471 1079v31h-82q-238 0 -321 -4l-19 84l338 426q74 92 90 110l103 -8q-2 -25 -2 -143v-373q32 0 76 1t61 1q-10 -61 -10 -98l-127 4v-72q0 -102 2 -131h-113q4 37 4 172z" />
    <glyph glyph-name="five.sup" unicode="&#x2075;" 
d="M659 1140q0 -112 -89 -181t-226 -69t-231 32l-15 108q125 -37 224 -37t159 41q59 41 60 105q0 145 -269 145q-63 0 -122 -8l-13 10l6 127l7 133q2 45 2 140l14 14q200 -4 240 -4t237 4q-14 -100 -14 -113q-76 2 -217 2h-152l-10 -211l65 2q164 0 254 -64t90 -176z" />
    <glyph glyph-name="six.sup" unicode="&#x2076;" 
d="M575 1159q0 76 -49 120t-130 44t-137 -49t-56 -122t51 -121t134 -48t135 50t52 126zM409 1411q129 0 205 -71q76 -72 76 -182t-86 -190t-222 -81q-136 0 -217 85t-81 234q0 205 133 345t375 173l22 -100q-346 -51 -415 -311q82 98 210 98z" />
    <glyph glyph-name="seven.sup" unicode="&#x2077;" 
d="M379 1696q90 0 287 4l22 -62q-10 -14 -35 -62t-37 -69l-254 -456q-51 -90 -77 -152l-127 16q31 47 116 197l267 477h-201q-178 0 -256 -2q8 54 8 113q197 -4 287 -4z" />
    <glyph glyph-name="eight.sup" unicode="&#x2078;" 
d="M221 1509q0 -96 176 -147q158 43 158 143q0 53 -46 88t-121 35t-121 -35t-46 -84zM567 1114q0 102 -188 158q-182 -49 -182 -162q0 -57 52 -94t136 -37t133 38t49 97zM380 887q-134 0 -216 60t-82 157q0 150 201 211q-172 61 -172 190q0 92 79 154q80 61 200 61t197 -59
t79 -137t-42 -124t-132 -81q193 -72 192 -205q0 -100 -85 -164t-219 -63z" />
    <glyph glyph-name="nine.sup" unicode="&#x2079;" 
d="M190 1452q0 -76 50 -120t130 -44q81 0 137 49t56 122t-51 121t-134 48q-84 0 -136 -50t-52 -126zM357 1200q-129 0 -205 71t-76 181t86 192q86 80 222 80t217 -85t81 -234q0 -205 -133 -345t-375 -173l-22 100q172 25 277 106t136 203q-80 -96 -208 -96z" />
    <glyph glyph-name="zero.inf" unicode="&#x2080;" 
d="M381 -338q90 0 142 88t52 232t-51 228q-51 83 -141 83t-142 -88q-53 -89 -53 -233t52 -227t141 -83zM74 -26q0 184 84 302t230 117q146 1 224 -113t78 -298t-83 -303q-83 -117 -230 -117t-225 114t-78 298z" />
    <glyph glyph-name="one.inf" unicode="&#x2081;" horiz-adv-x="573" 
d="M389 244v-525q0 -111 4 -137h-125q6 68 6 232v442l-176 -51l-22 98q4 0 207 64l82 24l28 -8q-4 -25 -4 -139z" />
    <glyph glyph-name="two.inf" unicode="&#x2082;" 
d="M382 -416q-104 0 -284 -4l-14 84q246 205 309 268q139 133 139 224q0 59 -42 94t-113 35q-110 -1 -219 -95l-45 95q127 109 259 109t205 -60t73 -150t-44 -156q-75 -114 -350 -343q47 0 416 6q-6 -104 -6 -111q-180 4 -284 4z" />
    <glyph glyph-name="three.inf" unicode="&#x2083;" 
d="M324 -332q100 0 161 35t62 92q0 133 -303 144l-15 75q303 49 303 172q0 43 -44 72t-145 29t-204 -62l-35 92q134 74 266 74t207 -52t74 -134q0 -145 -239 -209q256 -39 256 -201q0 -101 -94 -165t-228 -64q-135 0 -231 33l-17 108q126 -39 226 -39z" />
    <glyph glyph-name="four.inf" unicode="&#x2084;" 
d="M475 258l-303 -385q262 0 303 2v383zM471 -246v31h-82q-238 0 -321 -4l-19 84l338 426q74 92 90 110l103 -8q-2 -25 -2 -143v-373q55 2 137 2q-10 -61 -10 -98q-70 4 -127 4v-72q0 -102 2 -131h-113q4 37 4 172z" />
    <glyph glyph-name="five.inf" unicode="&#x2085;" 
d="M659 -186q0 -112 -89 -180t-226 -68t-231 31l-15 108q125 -37 224 -37t159 41q59 41 60 105q0 145 -269 145q-63 0 -122 -8l-13 10l6 127l7 133q2 45 2 139l14 15q200 -4 240 -4t237 4q-14 -100 -14 -113q-76 2 -217 2h-152l-10 -211l65 2q164 -1 254 -65t90 -176z" />
    <glyph glyph-name="six.inf" unicode="&#x2086;" 
d="M575 -166q0 76 -49 120t-130 44t-137 -49t-56 -122t51 -121t134 -48t135 50t52 126zM409 86q129 0 205 -71t76 -181t-86 -192q-86 -80 -222 -80t-217 85t-81 234q0 205 133 345t375 173l22 -100q-346 -51 -415 -309q82 96 210 96z" />
    <glyph glyph-name="seven.inf" unicode="&#x2087;" 
d="M379 371q90 0 287 4l22 -62q-10 -14 -35 -62t-37 -69l-254 -456q-51 -90 -77 -152l-127 16q31 47 116 197l267 477h-201q-178 0 -256 -2q8 54 8 113q197 -4 287 -4z" />
    <glyph glyph-name="eight.inf" unicode="&#x2088;" 
d="M221 184q0 -96 176 -147q158 43 158 143q0 53 -46 88t-121 35t-121 -35t-46 -84zM567 -211q0 104 -188 160q-182 -51 -182 -164q0 -57 52 -94t136 -37t133 38t49 97zM380 -438q-134 0 -216 60t-82 157q0 147 201 213q-172 57 -172 188q0 92 79 154q80 61 200 61t197 -59
t79 -148q2 -125 -174 -192q193 -76 192 -207q0 -99 -85 -163t-219 -64z" />
    <glyph glyph-name="nine.inf" unicode="&#x2089;" 
d="M190 127q0 -76 50 -120t130 -44q81 0 137 49t56 122t-51 121t-134 48q-84 0 -136 -50t-52 -126zM356 -125q-128 0 -204 71q-76 72 -76 182t86 190t222 81q136 0 217 -85t81 -234q0 -205 -133 -345t-375 -173l-22 100q172 27 277 108t136 203q-82 -98 -209 -98z" />
    <glyph glyph-name="colonmonetary" unicode="&#x20a1;" horiz-adv-x="1488" 
d="M518 184q92 -63 219 -82l88 199l373 891q-100 68 -215 96q-150 -344 -238 -565q-164 -387 -227 -539zM844 1305q-250 1 -410 -177t-160 -439t148 -421l436 1037h-14zM119 672q0 324 208 544t525 220q20 0 61 -4q45 115 101 243q111 -55 116 -57l-92 -207q115 -29 217 -90
l107 260l115 -57q-301 -690 -385 -891l-226 -537q215 12 414 195l-10 -168q-201 -160 -455 -160h-4q-98 -231 -113 -268q-57 41 -112 59q35 80 98 221q-123 20 -221 80q-99 -231 -113 -268q-39 29 -112 63l122 277q-115 101 -178 243t-63 302z" />
    <glyph glyph-name="naira" unicode="&#x20a6;" horiz-adv-x="1765" 
d="M1311 831h-457l457 -557v557zM455 561h458l-458 555v-555zM694 449q-170 0 -239 -3v-159q0 -205 6 -289h-166q12 127 16 446q-68 -2 -205 -2q8 59 5 123q106 -4 200 -4q6 227 6 270l-213 -4q8 39 9 121q49 -2 206 -2v4q0 383 -10 480l43 12l410 -500h549v2q0 362 -13 459
q104 0 168 10q-8 -102 -12 -295l-2 -174q164 4 209 4q-12 -45 -12 -121l-199 4l-2 -268q147 0 209 2q-10 -55 -6 -123q-35 0 -203 7l-2 -170q-6 -150 2 -304l-43 -10l-399 484h-312z" />
    <glyph glyph-name="rupee" unicode="&#x20a8;" horiz-adv-x="2062" 
d="M1628 956q146 0 268 -73l-49 -125q-102 72 -227 71q-80 -1 -132 -35t-52 -92t51 -95t124 -63t145 -57t122 -87q51 -56 51 -136q0 -135 -103 -216t-270 -81t-288 78l8 150q139 -100 303 -101q90 0 150 39q59 39 59 101t-50 103t-123 67t-146 57t-123 87t-50 138
q0 114 92 192q94 78 240 78zM373 711h231q143 0 229 86q85 85 85 211t-88 199t-257 73l-200 -2v-567zM373 584v-297q0 -205 6 -289h-166q10 121 10 483v441q0 360 -10 481l354 8q238 3 373 -109t131 -280q-6 -291 -301 -404l215 -321q133 -193 207 -289l-174 -22l-387 598
h-258z" />
    <glyph glyph-name="won" unicode="&#x20a9;" horiz-adv-x="2277" 
d="M1753 834q-47 0 -173 1t-208 1l195 -555zM1145 1106l-199 -543h391zM918 834h-390l189 -555zM121 952q23 0 99 -1t122 -1l-25 72q-129 352 -141 381l154 12l157 -467h471l37 99q63 195 131 374l37 13l170 -486h459l150 455h157l-166 -453q45 0 122 1t106 1
q-10 -80 -9 -121q-74 2 -260 3l-98 -271q199 0 367 4q-8 -66 -9 -121q-274 4 -399 5l-22 -62q-113 -309 -146 -416l-35 -12l-174 490h-471l-26 -72q-29 -82 -83 -224t-73 -192h-35l-170 486q-68 1 -200 -1t-201 -2q4 31 4 121q90 -4 356 -4l-94 271q-155 0 -266 -3
q4 57 4 121z" />
    <glyph glyph-name="sheqel" unicode="&#x20aa;" horiz-adv-x="1398" 
d="M913 791q2 -17 2 -127t9 -242l-129 -6q2 35 2 313q0 76 -43 118t-121 42h-340v-658q0 -172 2 -231h-137q12 176 12 369v659h461q135 0 207 -63t75 -174zM860 141h250l-2 574q0 199 -4 313h137q-10 -104 -10 -444v-584h-373q-129 0 -198 59q-68 60 -103 185
q-16 57 -62 209t-55 186l113 -12l104 -332q47 -154 203 -154z" />
    <glyph glyph-name="Euro" unicode="&#x20ac;" horiz-adv-x="1339" 
d="M879 90q227 0 387 148l-11 -158q-170 -117 -392 -117t-385 132t-220 345q-82 -2 -229 -2q4 61 4 123q92 -6 203 -6q-9 125 6 227q-139 0 -203 -2q6 49 6 123q197 -6 221 -6q62 219 228 350t386 131t367 -112l-39 -125q-142 111 -320 111t-304 -97q-126 -96 -183 -258h244
q252 0 438 6q-12 -70 -14 -123q-129 2 -424 2h-270q-8 -46 -8 -112t8 -115h260q289 0 416 6q-14 -88 -17 -123l-399 2h-232q57 -162 185 -256t291 -94z" />
    <glyph glyph-name="peso" unicode="&#x20b1;" horiz-adv-x="1388" 
d="M430 891v-281q55 -6 113 -6q186 0 293 76t127 211h-533zM430 1004h533q-29 283 -375 282q-72 0 -158 -6v-276zM1311 885q-137 0 -195 2q-27 -188 -169 -300t-408 -112l-109 4v-188q0 -205 6 -291h-170q12 141 13 479v408q-63 -2 -213 -2q6 43 6 125q152 -4 207 -4
q-4 299 -13 399l348 8q232 0 364 -113t142 -294q66 0 201 4q-10 -47 -10 -125z" />
    <glyph glyph-name="numero" unicode="&#x2116;" horiz-adv-x="2422" 
d="M1922 305q-255 0 -374 -2q4 29 4 125q201 -6 375 -6t379 6q-2 -18 -8 -125q-121 2 -376 2zM1932 1260q-103 0 -171 -80q-67 -80 -67 -201t63 -197t167 -76t172 80q67 80 67 201t-64 197t-167 76zM2300 992q0 -166 -106 -284t-272 -118q-165 0 -265 110q-101 110 -101 275
t106 283t273 118q166 0 266 -108q99 -109 99 -276zM365 276q0 -197 6 -276h-168q10 121 16 461l4 446q6 330 -6 457l43 10l920 -1091l2 598q0 332 -15 460q106 0 170 9q-4 -29 -10 -281l-8 -801q-5 -143 2 -291l-41 -10l-915 1077v-768z" />
    <glyph glyph-name="published" unicode="&#x2117;" horiz-adv-x="1771" 
d="M811 508q0 -129 4 -160h-127q6 51 6 254v246q0 207 -6 256q117 6 197 6q145 0 226 -66t81 -173t-82 -180t-246 -75q-16 0 -53 5v-113zM864 713q100 0 155 40q54 40 54 113q0 147 -186 148q-19 0 -76 -4v-293q37 -4 53 -4zM1548 719q0 276 -193 473q-194 197 -470 197
t-469 -197t-193 -473t193 -473t469 -197t470 197q193 197 193 473zM1640 719q0 -313 -221 -535t-534 -221q-313 0 -535 221q-221 220 -221 534t221 535q220 221 534 221t535 -220q221 -222 221 -535z" />
    <glyph glyph-name="servicemark" unicode="&#x2120;" horiz-adv-x="1644" 
d="M252 1264q0 -76 160 -142q60 -24 111 -76q50 -52 50 -134t-66 -144q-67 -61 -181 -61t-207 57l6 106q86 -70 209 -69q61 1 97 31t36 76q0 75 -115 131q-47 24 -94 51q-115 66 -115 162t65 154t168 58t177 -49l-29 -90q-62 45 -134 45t-105 -29t-33 -77zM805 725h-113
l76 487q27 158 33 246l37 4q18 -43 69 -145l207 -420l275 565h32l72 -491l41 -246l-121 -8q0 10 -12 145l-39 338q-219 -453 -236 -485l-32 -6q-2 6 -60 125q-57 120 -109 230t-61 128l-45 -336q-14 -125 -14 -131z" />
    <glyph glyph-name="trademark" unicode="&#x2122;" horiz-adv-x="1722" 
d="M455 1268v-396q0 -90 4 -147h-129q6 47 6 246v196q0 127 -2 183q-168 0 -248 -2q4 45 4 104q96 -4 310 -4t307 4l-7 -104q-84 2 -243 2q-2 -23 -2 -82zM883 725h-113l76 487q27 158 33 246l36 4q18 -43 70 -145l207 -420l274 565h33l72 -491l41 -246l-121 -8
q0 10 -12 145l-39 338q-219 -453 -236 -485l-33 -6q-4 11 -112 238q-109 227 -117 245l-45 -336q-14 -125 -14 -131z" />
    <glyph glyph-name="onethird" unicode="&#x2153;" horiz-adv-x="1720" 
d="M303 -27l-92 43q90 121 235 328l533 772q184 266 217 324q61 -29 96 -47q-45 -57 -170 -238l-678 -981q-28 -45 -141 -201zM438 1282v-522q0 -111 4 -137h-125q6 68 7 229v442l-177 -51l-22 100q4 0 207 64l82 25l28 -11q-4 -25 -4 -139zM1248 86q99 0 161 35
q61 35 61 92q0 133 -303 143l-14 76q303 49 303 172q0 43 -44 72t-146 29t-203 -62l-35 92q133 74 265 74t207 -52t75 -134q0 -145 -240 -209q256 -39 256 -201q0 -101 -93 -165q-92 -64 -228 -64t-232 32l-16 109q127 -39 226 -39z" />
    <glyph glyph-name="twothirds" unicode="&#x2154;" horiz-adv-x="1912" 
d="M551 -27l-92 43q90 121 235 328l533 772q184 266 217 324q61 -29 96 -47q-45 -57 -170 -238l-678 -981q-28 -45 -141 -201zM717 1224q0 -90 -43 -158q-75 -117 -350 -341q231 0 415 6q-6 -111 -6 -113q-314 7 -567 0l-14 84q262 221 309 269q139 137 139 225q0 59 -42 94
t-114 35q-110 0 -219 -96l-45 96q124 107 258 107t206 -60q72 -58 73 -148zM1440 86q100 0 162 35q61 35 61 92q0 133 -303 143l-14 76q303 49 303 172q0 43 -44 72q-43 29 -145 29t-205 -62l-34 92q133 74 265 74t207 -52t74 -134q0 -145 -239 -209q256 -39 256 -201
q0 -101 -93 -165t-229 -64t-231 32l-17 109q126 -39 226 -39z" />
    <glyph glyph-name="onefifth" unicode="&#x2155;" horiz-adv-x="1720" 
d="M438 1282v-522q0 -111 4 -137h-125q6 68 7 229v442l-177 -51l-22 100q4 0 207 64l82 25l28 -11q-4 -25 -4 -139zM322 -27l-93 43q90 121 236 328l532 772q184 266 217 324q61 -29 97 -47q-45 -57 -170 -238l-678 -981q-28 -45 -141 -201zM1583 232q0 -112 -89 -180
q-88 -68 -226 -69q-138 0 -232 31l-14 109q125 -37 224 -37t159 41q59 41 59 104q0 145 -268 146q-63 0 -123 -8l-12 10l12 260q2 45 2 139l15 15q267 -5 477 0q-14 -100 -15 -113q-76 2 -217 2h-151l-10 -211l65 2q164 -1 254 -65t90 -176z" />
    <glyph glyph-name="twofifths" unicode="&#x2156;" horiz-adv-x="1912" 
d="M557 -27l-92 43q90 121 235 328l533 772q184 266 217 324q61 -29 96 -47q-45 -57 -170 -238l-678 -981q-28 -45 -141 -201zM717 1224q0 -90 -43 -158q-75 -117 -350 -341q231 0 415 6q-6 -111 -6 -113q-314 7 -567 0l-14 84q262 221 309 269q139 137 139 225q0 59 -42 94
t-114 35q-110 0 -219 -96l-45 96q124 107 258 107t206 -60q72 -58 73 -148zM1776 232q0 -112 -89 -180t-227 -69q-138 0 -231 31l-15 109q124 -37 224 -37t159 41t60 104q0 145 -268 146q-63 0 -123 -8l-13 10q0 36 7 127l6 133q2 45 2 139l14 15q268 -5 477 0
q-14 -100 -14 -113q-76 2 -217 2h-152l-10 -211l66 2q164 -1 254 -65t90 -176z" />
    <glyph glyph-name="threefifths" unicode="&#x2157;" horiz-adv-x="1912" 
d="M520 -27l-92 43q90 121 236 328l532 772q184 266 217 324q61 -29 96 -47q-45 -57 -170 -238l-677 -981q-29 -45 -142 -201zM612 834q0 137 -303 143l-14 78q303 49 303 172q0 43 -44 71t-146 29q-102 0 -203 -63l-35 94q137 72 267 72t205 -52t75 -135q0 -145 -240 -209
q256 -37 256 -198q0 -102 -93 -167q-92 -65 -224 -65t-236 33l-16 108q121 -37 223 -37t164 35q61 35 61 91zM1776 232q0 -112 -89 -180t-227 -69q-138 0 -231 31l-15 109q124 -37 224 -37t159 41t60 104q0 145 -268 146q-63 0 -123 -8l-13 10q0 36 7 127l6 133q2 45 2 139
l14 15q268 -5 477 0q-14 -100 -14 -113q-76 2 -217 2h-152l-10 -211l66 2q164 -1 254 -65t90 -176z" />
    <glyph glyph-name="fourfifths" unicode="&#x2158;" horiz-adv-x="1912" 
d="M526 1298l-303 -385q262 0 303 2v383zM535 -27l-93 43q90 121 236 328l532 772q184 266 217 324q61 -29 97 -47q-45 -57 -170 -238l-678 -981q-28 -45 -141 -201zM1776 232q0 -112 -89 -180t-227 -69q-138 0 -231 31l-15 109q124 -37 224 -37t159 41t60 104
q0 145 -268 146q-63 0 -123 -8l-13 10q0 36 7 127l6 133q2 45 2 139l14 15q268 -5 477 0q-14 -100 -14 -113q-76 2 -217 2h-152l-10 -211l66 2q164 -1 254 -65t90 -176zM629 754q0 -104 2 -131h-113q4 37 4 170v30h-82q-238 0 -321 -4l-19 84l338 428q18 21 90 111l103 -8
q-2 -27 -2 -144v-372q100 0 137 2q-10 -61 -10 -99l-127 2v-69z" />
    <glyph glyph-name="onesixth" unicode="&#x2159;" horiz-adv-x="1720" 
d="M1491 252q0 76 -49 120t-130 44t-137 -49q-57 -49 -57 -122t51 -121t135 -48t135 50q52 50 52 126zM438 1282v-522q0 -111 4 -137h-125q6 68 7 229v442l-177 -51l-22 100q4 0 207 64l82 25l28 -11q-4 -25 -4 -139zM352 -27l-92 43q90 121 236 328l532 772
q184 266 217 324q61 -29 96 -47q-45 -57 -170 -238l-677 -981q-29 -45 -142 -201zM1324 504q128 0 205 -71t77 -181t-86 -192q-86 -80 -222 -80t-218 85q-81 85 -81 234q-1 205 133 345t375 173l23 -100q-346 -51 -416 -311q82 98 210 98z" />
    <glyph glyph-name="fivesixths" unicode="&#x215a;" horiz-adv-x="1912" 
d="M1683 252q0 76 -49 120t-130 44t-137 -49t-56 -122t51 -121t134 -48t135 50t52 126zM530 -27l-92 43q90 121 236 328l532 772q184 266 217 324q61 -29 97 -47q-45 -57 -170 -238l-678 -981q-29 -45 -142 -201zM453 1305h-152l-10 -213q23 2 65 2q164 0 254 -64t90 -175
t-89 -181t-223 -70t-234 33l-15 108q263 -78 384 4q58 40 59 105q0 145 -269 145q-63 0 -123 -8l-12 8l12 263q2 45 3 139l14 12l237 -2q43 0 240 4q-14 -100 -14 -112q-76 2 -217 2zM1517 504q129 0 205 -71t76 -181t-86 -192q-86 -80 -222 -80t-217 85t-81 234
q0 205 133 345t375 173l22 -100q-346 -51 -415 -311q82 98 210 98z" />
    <glyph glyph-name="oneeighth" unicode="&#x215b;" horiz-adv-x="1720" 
d="M1145 602q0 -96 176 -147q158 43 158 143q0 53 -46 88t-121 35t-121 -35t-46 -84zM1491 207q0 102 -188 158q-182 -49 -183 -162q0 -57 52 -94t136 -37t134 38q49 38 49 97zM438 1282v-522q0 -111 4 -137h-125q6 68 7 229v442l-177 -51l-22 100q4 0 207 64l82 25l28 -11
q-4 -25 -4 -139zM334 -27l-92 43q90 121 235 328l533 772q184 266 217 324q61 -29 96 -47q-45 -57 -170 -238l-678 -981q-28 -45 -141 -201zM1608 207q0 -99 -85 -163t-219 -64t-217 60q-82 60 -81 157q0 150 200 211q-172 61 -172 190q0 92 80 154t200 61q120 0 196 -59
q76 -60 79 -138q2 -78 -42 -124t-132 -80q193 -72 193 -205z" />
    <glyph glyph-name="threeeighths" unicode="&#x215c;" horiz-adv-x="1912" 
d="M1337 602q0 -96 176 -147q158 43 158 143q0 53 -46 88t-121 35t-121 -35t-46 -84zM1683 207q0 102 -188 158q-182 -49 -182 -162q0 -57 52 -94t136 -37t133 38t49 97zM524 -27l-92 43q90 121 236 328l532 772q184 266 217 324q61 -29 96 -47q-45 -57 -170 -238l-677 -981
q-29 -45 -142 -201zM612 834q0 137 -303 143l-14 78q303 49 303 172q0 43 -44 71t-146 29q-102 0 -203 -63l-35 94q137 72 267 72t205 -52t75 -135q0 -145 -240 -209q256 -37 256 -198q0 -102 -93 -167q-92 -65 -224 -65t-236 33l-16 108q121 -37 223 -37t164 35
q61 35 61 91zM1496 -20q-134 0 -216 60t-82 157q0 150 201 211q-172 61 -172 190q0 92 80 154q79 62 199 61q120 0 197 -59q77 -60 79 -138t-42 -124t-132 -80q193 -72 192 -205q0 -99 -85 -163t-219 -64z" />
    <glyph glyph-name="fiveeighths" unicode="&#x215d;" horiz-adv-x="1912" 
d="M1337 602q0 -96 176 -147q158 43 158 143q0 53 -46 88t-121 35t-121 -35t-46 -84zM1683 207q0 102 -188 158q-182 -49 -182 -162q0 -57 52 -94t136 -37t133 38t49 97zM514 -27l-92 43q90 121 235 328l533 772q184 266 217 324q61 -29 96 -47q-45 -57 -170 -238l-678 -981
q-28 -45 -141 -201zM453 1305h-152l-10 -213q23 2 65 2q164 0 254 -64t90 -175t-89 -181t-223 -70t-234 33l-15 108q263 -78 384 4q58 40 59 105q0 145 -269 145q-63 0 -123 -8l-12 8l12 263q2 45 3 139l14 12l237 -2q43 0 240 4q-14 -100 -14 -112q-76 2 -217 2zM1496 -20
q-134 0 -216 60t-82 157q0 150 201 211q-172 61 -172 190q0 92 80 154q79 62 199 61q120 0 197 -59q77 -60 79 -138t-42 -124t-132 -80q193 -72 192 -205q0 -99 -85 -163t-219 -64z" />
    <glyph glyph-name="seveneighths" unicode="&#x215e;" horiz-adv-x="1912" 
d="M1337 602q0 -96 176 -147q158 43 158 143q0 53 -46 88t-121 35t-121 -35t-46 -84zM1683 207q0 102 -188 158q-182 -49 -182 -162q0 -57 52 -94t136 -37t133 38t49 97zM484 1407q90 0 286 4l23 -61q-10 -16 -36 -66t-36 -67l-254 -455q-61 -113 -78 -154l-127 17
q25 37 117 198l266 477h-201q-178 0 -256 -2q9 54 9 113q197 -4 287 -4zM449 -27l-93 43q90 121 236 328l532 772q184 266 217 324q61 -29 97 -47q-45 -57 -170 -238l-678 -981q-28 -45 -141 -201zM1496 -20q-134 0 -216 60t-82 157q0 150 201 211q-172 61 -172 190
q0 92 80 154q79 62 199 61q120 0 197 -59q77 -60 79 -138t-42 -124t-132 -80q193 -72 192 -205q0 -99 -85 -163t-219 -64z" />
    <glyph glyph-name="minus" unicode="&#x2212;" horiz-adv-x="1130" 
d="M626 612q177 0 306 4q-8 -61 -8 -118l-320 2h-90l-315 -2q4 57 4 118q246 -4 423 -4z" />
    <glyph glyph-name="box.1" unicode="&#xe000;" horiz-adv-x="1609" 
d="M170 424v504q0 295 -12 391l28 27h1233l25 -13q-6 -74 -6 -252v-827q0 -153 6 -227l-27 -27h-1233l-26 12q12 98 12 412z" />
    <glyph glyph-name="box.2" unicode="&#xe001;" horiz-adv-x="1609" 
d="M1300 385v467q0 297 -8 369h-983v-865q0 -184 4 -231h985q2 25 2 260zM170 399v547q0 291 -8 379l20 21h1243l19 -11q-6 -49 -6 -254v-839q0 -148 6 -222l-21 -20h-1243l-18 10q8 82 8 389z" />
    <glyph glyph-name="arrow.1_W" unicode="&#xe01d;" horiz-adv-x="1615" 
d="M1042 565q68 0 238 1t229 1q-6 -47 -6 -123q-517 13 -1171 5l119 -97q199 -166 272 -221l-84 -100l-535 461v24l531 465q72 -80 82 -94q-37 -29 -130 -109t-143 -119l-114 -94h712z" />
    <glyph glyph-name="arrow.1_E" unicode="&#xe01f;" horiz-adv-x="1615" 
d="M654 561q300 0 632 4l-119 94q-145 123 -272 222l84 100l534 -459v-26l-530 -465q-70 76 -84 96q41 31 138 114t137 113l114 92q-93 0 -291 3h-419q-227 -1 -469 -5q6 47 6 123q239 -6 539 -6z" />
    <glyph glyph-name="G.alt" horiz-adv-x="1513" 
d="M119 710q0 316 219 540t551 225q117 0 237 -35t205 -92l-45 -140q-76 58 -188 94t-226 35q-264 0 -432 -177t-168 -447q0 -269 172 -441t433 -172q180 0 327 80v287q0 205 -6 254q158 0 162 2l-8 -430v-184q-221 -143 -492 -144q-317 0 -529 214q-212 215 -212 531z" />
    <glyph glyph-name="J.alt" horiz-adv-x="616" 
d="M258 -6v952q0 371 -10 494q100 0 166 8q-4 -59 -4 -301v-1163q0 -210 -81 -308t-261 -98q-53 0 -109 12l-18 142q61 -12 106 -13q119 -1 165 59t46 216z" />
    <glyph glyph-name="a.sc" horiz-adv-x="1093" 
d="M539 809l-172 -399h342zM43 0l336 739q111 244 133 301l53 11l350 -772q45 -100 134 -277l-156 -12l-137 307h-434l-17 -39q-51 -117 -75 -180q-25 -63 -31 -78h-156z" />
    <glyph glyph-name="b.sc" horiz-adv-x="974" 
d="M451 588q116 0 179 44q62 44 62 122q0 158 -241 157q-76 0 -134 -4q-2 -18 -2 -88v-229q20 -2 136 -2zM479 123q258 0 258 179t-288 179q-63 0 -134 -4v-252q0 -67 2 -96q78 -6 162 -6zM831 774q0 -82 -48 -141t-130 -86q111 -27 169 -93t59 -159q-1 -133 -103 -214
t-286 -81h-322q6 72 6 352v324q0 281 -6 350l293 8q184 0 276 -74t92 -186z" />
    <glyph glyph-name="c.sc" horiz-adv-x="1042" 
d="M612 -27q-223 0 -368 152q-146 151 -146 377t155 388t388 161q172 0 301 -84l-35 -131q-123 88 -279 88t-270 -119q-112 -119 -112 -297t108 -292t278 -114t320 136l-10 -156q-145 -109 -330 -109z" />
    <glyph glyph-name="d.sc" horiz-adv-x="1124" 
d="M465 125q205 1 311 113t105 286q0 174 -111 280t-305 105q-68 0 -141 -4q-2 -31 -2 -110v-562q0 -72 2 -102q66 -6 141 -6zM1026 528q0 -230 -150 -378q-150 -150 -399 -150h-307q6 72 6 352v324q0 281 -6 350l291 8q265 0 415 -138t150 -368z" />
    <glyph glyph-name="e.sc" horiz-adv-x="878" 
d="M479 2q-192 0 -309 -8q6 72 6 354v332q0 285 -8 354q135 -6 303 -6t301 6q-10 -68 -10 -129q-82 2 -281 2h-159q-2 -33 -3 -102v-209l390 2q-4 -35 -4 -123l-386 2v-252q0 -70 3 -102l157 -2q177 0 320 6q-6 -45 -11 -133q-117 8 -309 8z" />
    <glyph glyph-name="f.sc" horiz-adv-x="837" 
d="M322 795v-213l364 2q-4 -35 -4 -123l-360 2v-252q0 -170 4 -211h-156q6 72 6 352v328q0 285 -8 354q135 -6 301 -6t297 6q-10 -68 -10 -129l-271 2q-121 0 -161 -2q-2 -33 -2 -110z" />
    <glyph glyph-name="g.sc" horiz-adv-x="1128" 
d="M644 924q-162 0 -280 -119t-118 -297t112 -292t283 -114q115 0 217 50v278h-102q-106 0 -185 -2q4 70 0 125q172 -4 218 -4t210 4q-8 -76 -8 -340v-135q-165 -104 -379 -104t-364 152q-150 154 -150 378t160 386t399 161q191 -1 320 -93l-43 -124q-127 90 -290 90z" />
    <glyph glyph-name="g.sc_alt" horiz-adv-x="1128" 
d="M644 924q-162 0 -280 -119t-118 -297t112 -292t283 -114q115 0 213 48v186q0 150 -4 182q147 0 149 2q-8 -147 -8 -305v-137q-165 -104 -379 -104t-364 152q-150 154 -150 378t160 386t399 161q191 -1 320 -93l-43 -124q-127 90 -290 90z" />
    <glyph glyph-name="h.sc" horiz-adv-x="1185" 
d="M866 348v123h-544v-260q0 -170 4 -211h-158q8 96 8 352v324q0 258 -8 350q106 0 158 8q-4 -43 -4 -217v-225h544v86q0 260 -10 348q109 0 160 8q-6 -43 -6 -217v-606q0 -170 6 -211h-160q10 90 10 348z" />
    <glyph glyph-name="i.sc" horiz-adv-x="509" 
d="M184 352v324q0 258 -8 350q106 0 158 8q-6 -43 -6 -217v-606q0 -170 6 -211h-158q8 96 8 352z" />
    <glyph glyph-name="j.sc" horiz-adv-x="669" 
d="M360 676q0 258 -8 350q106 0 158 8q-6 -51 -6 -217v-536q0 -160 -62 -234t-204 -74q-96 0 -187 37l8 135q82 -39 164 -39q137 0 137 162v408z" />
    <glyph glyph-name="k.sc" horiz-adv-x="1011" 
d="M322 211q0 -129 4 -211h-158q10 119 10 352v324q0 233 -10 350q106 0 158 8q-4 -86 -4 -217v-272l194 211q184 195 252 274h182l-481 -498l236 -249q180 -197 264 -281l-170 -12l-477 516v-295z" />
    <glyph glyph-name="l.sc" horiz-adv-x="839" 
d="M471 2q-182 0 -303 -8q8 96 8 356v326q0 258 -8 350q106 0 158 8q-4 -43 -4 -217v-584q0 -78 2 -108l155 -2q117 0 305 4q-6 -45 -10 -133q-121 8 -303 8z" />
    <glyph glyph-name="m.sc" horiz-adv-x="1372" 
d="M1266 0l-150 -10q-2 49 -26 225l-68 492l-311 -717l-54 -13q-8 19 -66 155t-140 324t-107 246l-65 -493q-8 -62 -11 -97q-4 -35 -7 -58t-5 -54h-150q29 129 60 346l49 356q31 213 41 347l57 10q17 -43 55 -125t44 -96l276 -615l273 611q31 68 96 223h53q8 -55 45 -342
l51 -363q35 -233 60 -352z" />
    <glyph glyph-name="n.sc" horiz-adv-x="1206" 
d="M897 676q0 258 -8 350q102 0 153 8q0 -4 -8 -217l-6 -614q0 -176 4 -217l-55 -13l-666 789v-551q0 -129 4 -211h-151q10 119 10 352l4 338q0 281 -6 350l55 11l670 -793v418z" />
    <glyph glyph-name="o.sc" horiz-adv-x="1226" 
d="M610 98q162 0 267 122q104 122 104 300t-101 293q-102 115 -264 115t-266 -123t-104 -301t101 -292t263 -114zM622 1051q226 -1 366 -149t140 -376t-150 -391q-150 -162 -374 -162q-225 0 -365 150q-141 150 -141 377t149 389t375 162z" />
    <glyph glyph-name="p.sc" horiz-adv-x="909" 
d="M707 705q0 205 -269 204q-78 0 -116 -2q-2 -23 -3 -108v-299q25 -2 89 -2q143 0 221 54t78 153zM406 381q-61 0 -84 2v-172q0 -129 4 -211h-158q8 96 8 352v324q0 260 -8 352l278 6q195 0 298 -86q104 -86 104 -234t-111 -241q-111 -92 -331 -92z" />
    <glyph glyph-name="q.sc" horiz-adv-x="1228" 
d="M616 928q-162 0 -266 -123t-104 -301t101 -292t263 -114t267 122q104 122 104 300t-101 293q-102 115 -264 115zM622 1051q226 -1 366 -149t140 -346t-88 -340t-237 -204l174 -45q156 -45 264 -67l-94 -111l-576 184q-209 11 -341 159t-132 372t149 385q149 162 375 162z
" />
    <glyph glyph-name="r.sc" horiz-adv-x="991" 
d="M319 518h166q100 0 161 57q60 57 61 142q0 193 -248 192q-98 0 -137 -2q-2 -23 -3 -90v-299zM319 403v-192q0 -129 5 -211h-156q8 96 8 352v324q0 260 -8 352q76 0 274 4t303 -79q106 -83 105 -214q-2 -209 -217 -299l162 -233q104 -152 143 -201l-166 -18l-268 415h-185
z" />
    <glyph glyph-name="s.sc" horiz-adv-x="839" 
d="M743 281q0 -133 -95 -221t-257 -87q-162 0 -297 84l6 146q54 -41 138 -72t170 -31t140 45t54 111t-48 112q-48 48 -118 82t-140 72t-117 98q-48 60 -48 138q0 127 91 210q90 83 238 83t255 -72l-39 -123q-100 70 -200 70t-152 -44t-52 -104t48 -104q48 -43 118 -77
t140 -72t118 -100t47 -144z" />
    <glyph glyph-name="t.sc" horiz-adv-x="972" 
d="M559 903v-692q0 -170 4 -211h-157q10 119 10 352v299q0 139 -6 252q-246 0 -349 -2q4 37 5 133q194 -6 422 -6t423 6q-8 -82 -8 -133q-109 2 -344 2z" />
    <glyph glyph-name="u.sc" horiz-adv-x="1153" 
d="M993 817v-401q-1 -217 -115 -330t-306 -113q-192 -1 -301 101q-110 102 -109 282v320q0 258 -8 350q104 0 155 8q-4 -86 -4 -217v-418q0 -297 277 -297q124 0 196 73t72 204v297q0 262 -10 350q104 0 159 8q-6 -43 -6 -217z" />
    <glyph glyph-name="v.sc" horiz-adv-x="1028" 
d="M43 1024l156 8l323 -799l209 531q45 109 98 260h158l-315 -741q-82 -188 -121 -297l-57 -13l-326 766q-98 232 -125 285z" />
    <glyph glyph-name="w.sc" horiz-adv-x="1519" 
d="M1475 1024l-271 -737q-18 -51 -46 -128t-60 -173l-54 -13l-282 785l-176 -479q-18 -53 -56 -153t-55 -149l-53 -2l-270 766q-59 174 -109 281l154 10l266 -770l178 498q76 223 98 272l54 10l280 -774l162 484l86 272h154z" />
    <glyph glyph-name="x.sc" horiz-adv-x="1075" 
d="M242 0h-168l375 518l-150 211q-20 29 -213 297l162 10l291 -420l100 148q16 27 90 133t90 131h166l-362 -504l372 -524l-164 -10l-296 434l-101 -148q-126 -178 -192 -276z" />
    <glyph glyph-name="y.sc" horiz-adv-x="970" 
d="M557 211q0 -150 6 -211h-157q10 119 10 348v90l-156 244q-110 176 -223 344l160 10l292 -473l99 156q31 45 190 309h162l-383 -586v-231z" />
    <glyph glyph-name="z.sc" horiz-adv-x="972" 
d="M514 121q168 0 365 4q-8 -78 -11 -131q-123 8 -381 8t-397 -8l-31 31l629 884q-61 2 -212 2t-351 -4q6 55 6 127q189 -6 399 -6t357 6l31 -28l-629 -883q57 -2 225 -2z" />
    <glyph glyph-name="aacute.sc" horiz-adv-x="1093" 
d="M643 1483l205 14l-297 -299l-100 -8zM539 809l-172 -399h342zM43 0l336 739q111 244 133 301l53 11l350 -772q45 -100 134 -277l-156 -12l-137 307h-434l-17 -39q-51 -117 -75 -180q-25 -63 -31 -78h-156z" />
    <glyph glyph-name="abreve.sc" horiz-adv-x="1093" 
d="M539 809l-172 -399h342zM546 1196q-138 0 -221 83t-83 208l123 20q0 -96 49 -150t134 -54t131 55t44 141l121 8q4 -145 -78 -228t-220 -83zM43 0l336 739q111 244 133 301l53 11l350 -772q45 -100 134 -277l-156 -12l-137 307h-434l-17 -39q-51 -117 -75 -180
q-25 -63 -31 -78h-156z" />
    <glyph glyph-name="acircumflex.sc" horiz-adv-x="1093" 
d="M539 809l-172 -399h342zM467 1487h166l209 -301l-107 -10l-188 206l-182 -192h-125zM43 0l336 739q111 244 133 301l53 11l350 -772q45 -100 134 -277l-156 -12l-137 307h-434l-17 -39q-51 -117 -75 -180q-25 -63 -31 -78h-156z" />
    <glyph glyph-name="adieresis.sc" horiz-adv-x="1093" 
d="M718 1442q42 0 70 -28t27 -70q0 -41 -29 -73q-28 -32 -70 -32t-69 29q-27 28 -27 70t28 73t70 31zM372 1442q42 0 68 -28t27 -71q0 -42 -28 -73q-29 -31 -71 -31t-69 29q-27 30 -27 70t29 72t71 32zM539 809l-172 -399h342zM43 0l336 739q111 244 133 301l53 11l350 -772
q45 -100 134 -277l-156 -12l-137 307h-434l-17 -39q-51 -117 -75 -180q-25 -63 -31 -78h-156z" />
    <glyph glyph-name="agrave.sc" horiz-adv-x="1093" 
d="M252 1483l178 14l191 -299l-93 -8zM539 809l-172 -399h342zM43 0l336 739q111 244 133 301l53 11l350 -772q45 -100 134 -277l-156 -12l-137 307h-434l-17 -39q-51 -117 -75 -180q-25 -63 -31 -78h-156z" />
    <glyph glyph-name="amacron.sc" horiz-adv-x="1093" 
d="M604 1294h-139q-82 0 -221 -4q6 43 6 121q137 -6 293 -6t303 6q-10 -55 -10 -121q-164 4 -232 4zM539 809l-172 -399h342zM43 0l336 739q111 244 133 301l53 11l350 -772q45 -100 134 -277l-156 -12l-137 307h-434l-17 -39q-51 -117 -75 -180q-25 -63 -31 -78h-156z" />
    <glyph glyph-name="aogonek.sc" horiz-adv-x="1093" 
d="M539 809l-172 -399h342zM918 -328q52 0 120 47l-8 -100q-61 -45 -145 -45t-132 43t-48 115q0 129 186 260l-135 305h-434l-17 -39q-51 -117 -75 -180q-25 -63 -31 -78h-156l336 739q111 244 133 301l53 11l350 -772q45 -100 134 -277h-5l3 -2q-225 -139 -226 -250
q-1 -78 97 -78z" />
    <glyph glyph-name="aring.sc" horiz-adv-x="1093" 
d="M670 1192q0 57 -34 94t-92 37t-94 -38t-36 -95t35 -95t93 -38t93 39t35 96zM539 809l-172 -399h342zM313 1192q0 86 65 150t167 65q101 0 163 -59q62 -60 62 -144t-46 -145t-126 -82l317 -698q45 -100 134 -277l-156 -12l-137 307h-434l-17 -39q-51 -117 -75 -180
q-25 -63 -31 -78h-156l336 739q76 166 106 236q-78 15 -125 73t-47 144z" />
    <glyph glyph-name="aringacute.sc" horiz-adv-x="1093" 
d="M645 1837l205 14l-297 -299l-100 -8zM670 1192q0 57 -34 94t-92 37t-94 -38t-36 -95t35 -95t93 -38t93 39t35 96zM539 809l-172 -399h342zM313 1192q0 86 65 150t167 65q101 0 163 -59q62 -60 62 -144t-46 -145t-126 -82l317 -698q45 -100 134 -277l-156 -12l-137 307
h-434l-17 -39q-51 -117 -75 -180q-25 -63 -31 -78h-156l336 739q76 166 106 236q-78 15 -125 73t-47 144z" />
    <glyph glyph-name="atilde.sc" horiz-adv-x="1093" 
d="M539 809l-172 -399h342zM702 1339q59 0 91 152l106 -16q-43 -258 -199 -258q-61 -1 -161 71t-133 72q-34 0 -52 -32t-32 -114l-109 17q45 249 189 251q68 0 168 -71q99 -72 132 -72zM43 0l336 739q111 244 133 301l53 11l350 -772q45 -100 134 -277l-156 -12l-137 307
h-434l-17 -39q-51 -117 -75 -180q-25 -63 -31 -78h-156z" />
    <glyph glyph-name="cacute.sc" horiz-adv-x="1042" 
d="M612 -27q-223 0 -368 152q-146 151 -146 377t155 388t388 161q172 0 301 -84l-35 -131q-123 88 -279 88t-270 -119q-112 -119 -112 -297t108 -292t278 -114t320 136l-10 -156q-145 -109 -330 -109zM705 1483l204 14l-297 -299l-100 -8z" />
    <glyph glyph-name="ccaron.sc" horiz-adv-x="1042" 
d="M612 -27q-223 0 -368 152q-146 151 -146 377t155 388t388 161q172 0 301 -84l-35 -131q-123 88 -279 88t-270 -119q-112 -119 -112 -297t108 -292t278 -114t320 136l-10 -156q-145 -109 -330 -109zM682 1200h-164l-213 297l109 10l188 -202l184 192h121z" />
    <glyph glyph-name="ccedilla.sc" horiz-adv-x="1042" 
d="M612 -27h-2l-30 -110q205 -57 204 -176q0 -63 -53 -107t-140 -45q-87 0 -177 31l20 94q82 -33 164 -33t82 56q0 66 -191 108l-8 8q27 82 51 181q-194 27 -314 172t-120 340q0 236 155 398t388 161q172 0 301 -84l-35 -131q-123 88 -279 88t-270 -119q-112 -119 -112 -297
t108 -292t278 -114t320 136l-10 -156q-145 -109 -330 -109z" />
    <glyph glyph-name="cdotaccent.sc" horiz-adv-x="1042" 
d="M606 1442q42 0 68 -28t26 -71q0 -42 -28 -73t-69 -31q-43 0 -69 29q-26 28 -26 70t28 73t70 31zM612 -27q-223 0 -368 152q-146 151 -146 377t155 388t388 161q172 0 301 -84l-35 -131q-123 88 -279 88t-270 -119q-112 -119 -112 -297t108 -292t278 -114t320 136
l-10 -156q-145 -109 -330 -109z" />
    <glyph glyph-name="dcaron.sc" horiz-adv-x="1124" 
d="M633 1200h-164l-213 297l109 10l188 -202l184 192h121zM465 125q205 1 311 113t105 286q0 174 -111 280t-305 105q-68 0 -141 -4q-2 -31 -2 -110v-562q0 -72 2 -102q66 -6 141 -6zM1026 528q0 -230 -150 -378q-150 -150 -399 -150h-307q6 72 6 352v324q0 281 -6 350
l291 8q265 0 415 -138t150 -368z" />
    <glyph glyph-name="dcroat.sc" horiz-adv-x="1124" 
d="M465 125q205 1 311 113t105 286q0 174 -111 280t-305 105q-68 0 -141 -4q-2 -31 -2 -110v-217q121 0 227 6q-10 -57 -10 -125q-135 4 -201 4h-16v-230q0 -72 2 -102q66 -6 141 -6zM1026 528q0 -230 -150 -378q-150 -150 -399 -150h-307q6 72 6 352v111l-129 -4
q6 49 6 125l123 -6v98q0 281 -6 350l291 8q265 0 415 -138t150 -368z" />
    <glyph glyph-name="eacute.sc" horiz-adv-x="878" 
d="M575 1483l205 14l-297 -299l-100 -8zM479 2q-192 0 -309 -8q6 72 6 354v332q0 285 -8 354q135 -6 303 -6t301 6q-10 -68 -10 -129q-82 2 -281 2h-159q-2 -33 -3 -102v-209l390 2q-4 -35 -4 -123l-386 2v-252q0 -70 3 -102l157 -2q177 0 320 6q-6 -45 -11 -133
q-117 8 -309 8z" />
    <glyph glyph-name="ebreve.sc" horiz-adv-x="878" 
d="M478 1196q-138 0 -221 83t-83 208l123 20q0 -96 49 -150t134 -54t131 55t44 141l121 8q4 -145 -78 -228t-220 -83zM479 2q-192 0 -309 -8q6 72 6 354v332q0 285 -8 354q135 -6 303 -6t301 6q-10 -68 -10 -129q-82 2 -281 2h-159q-2 -33 -3 -102v-209l390 2
q-4 -35 -4 -123l-386 2v-252q0 -70 3 -102l157 -2q177 0 320 6q-6 -45 -11 -133q-117 8 -309 8z" />
    <glyph glyph-name="ecaron.sc" horiz-adv-x="878" 
d="M553 1200h-164l-213 297l109 10l188 -202l184 192h121zM479 2q-192 0 -309 -8q6 72 6 354v332q0 285 -8 354q135 -6 303 -6t301 6q-10 -68 -10 -129q-82 2 -281 2h-159q-2 -33 -3 -102v-209l390 2q-4 -35 -4 -123l-386 2v-252q0 -70 3 -102l157 -2q177 0 320 6
q-6 -45 -11 -133q-117 8 -309 8z" />
    <glyph glyph-name="ecircumflex.sc" horiz-adv-x="878" 
d="M401 1499h166l209 -301l-106 -10l-189 207l-182 -193h-125zM479 2q-192 0 -309 -8q6 72 6 354v332q0 285 -8 354q135 -6 303 -6t301 6q-10 -68 -10 -129q-82 2 -281 2h-159q-2 -33 -3 -102v-209l390 2q-4 -35 -4 -123l-386 2v-252q0 -70 3 -102l157 -2q177 0 320 6
q-6 -45 -11 -133q-117 8 -309 8z" />
    <glyph glyph-name="edieresis.sc" horiz-adv-x="878" 
d="M652 1442q42 0 70 -28t28 -70q0 -41 -29 -73t-71 -32t-68 29q-26 28 -27 70q0 42 28 73q27 31 69 31zM306 1442q42 0 68 -28t27 -71q1 -42 -27 -73t-71 -31t-70 29q-27 30 -27 70t30 72q28 32 70 32zM479 2q-192 0 -309 -8q6 72 6 354v332q0 285 -8 354q135 -6 303 -6
t301 6q-10 -68 -10 -129q-82 2 -281 2h-159q-2 -33 -3 -102v-209l390 2q-4 -35 -4 -123l-386 2v-252q0 -70 3 -102l157 -2q177 0 320 6q-6 -45 -11 -133q-117 8 -309 8z" />
    <glyph glyph-name="edotaccent.sc" horiz-adv-x="878" 
d="M478 1442q42 0 68 -28t27 -71q1 -42 -27 -73t-70 -31t-68 29q-26 28 -27 70q0 42 28 73q27 31 69 31zM479 2q-192 0 -309 -8q6 72 6 354v332q0 285 -8 354q135 -6 303 -6t301 6q-10 -68 -10 -129q-82 2 -281 2h-159q-2 -33 -3 -102v-209l390 2q-4 -35 -4 -123l-386 2
v-252q0 -70 3 -102l157 -2q177 0 320 6q-6 -45 -11 -133q-117 8 -309 8z" />
    <glyph glyph-name="egrave.sc" horiz-adv-x="878" 
d="M186 1483l179 14l190 -299l-92 -8zM479 2q-192 0 -309 -8q6 72 6 354v332q0 285 -8 354q135 -6 303 -6t301 6q-10 -68 -10 -129q-82 2 -281 2h-159q-2 -33 -3 -102v-209l390 2q-4 -35 -4 -123l-386 2v-252q0 -70 3 -102l157 -2q177 0 320 6q-6 -45 -11 -133
q-117 8 -309 8z" />
    <glyph glyph-name="emacron.sc" horiz-adv-x="878" 
d="M537 1294h-140q-82 0 -221 -4q6 43 6 121q137 -6 293 -6t303 6q-10 -55 -10 -121q-164 4 -231 4zM479 2q-192 0 -309 -8q6 72 6 354v332q0 285 -8 354q135 -6 303 -6t301 6q-10 -68 -10 -129q-82 2 -281 2h-159q-2 -33 -3 -102v-209l390 2q-4 -35 -4 -123l-386 2v-252
q0 -70 3 -102l157 -2q177 0 320 6q-6 -45 -11 -133q-117 8 -309 8z" />
    <glyph glyph-name="eogonek.sc" horiz-adv-x="878" 
d="M555 -250q-1 -78 97 -78q52 0 120 47l-8 -100q-62 -45 -146 -45t-132 43t-48 115q0 131 217 268q-59 2 -213 2t-272 -8q6 72 6 354v332q0 285 -8 354q135 -6 303 -6t301 6q-10 -68 -10 -129q-82 2 -281 2h-159q-2 -33 -3 -102v-209l390 2q-4 -35 -4 -123l-386 2v-252
q0 -70 3 -102l157 -2q177 0 320 6q-6 -45 -11 -133q-2 0 -6 2h-2v-2q-225 -133 -225 -244z" />
    <glyph glyph-name="gbreve.sc" horiz-adv-x="1128" 
d="M614 1196q-138 0 -222 83q-83 83 -83 208l123 20q0 -96 49 -150t134 -54t131 55t45 141l120 8q5 -145 -77 -228t-220 -83zM644 924q-162 0 -280 -119t-118 -297t112 -292t283 -114q115 0 217 50v278h-102q-106 0 -185 -2q4 70 0 125q172 -4 218 -4t210 4q-8 -76 -8 -340
v-135q-165 -104 -379 -104t-364 152q-150 154 -150 378t160 386t399 161q191 -1 320 -93l-43 -124q-127 90 -290 90z" />
    <glyph glyph-name="Gbreve.alt" horiz-adv-x="1513" 
d="M836 1589q-138 0 -221 83t-83 208l123 21q-1 -97 49 -151t135 -54t131 55t44 141l121 9q4 -145 -78 -229q-83 -84 -221 -83zM119 710q0 316 219 540t551 225q117 0 237 -35t205 -92l-45 -140q-76 58 -188 94t-226 35q-264 0 -432 -177t-168 -447q0 -269 172 -441
t433 -172q180 0 327 80v287q0 205 -6 254q158 0 162 2l-8 -430v-184q-221 -143 -492 -144q-317 0 -529 214q-212 215 -212 531z" />
    <glyph glyph-name="gbreve.sc_alt" horiz-adv-x="1128" 
d="M622 1196q-138 0 -222 83q-83 83 -83 208l123 20q0 -96 49 -150t135 -54t131 55q46 55 44 141l121 8q4 -145 -78 -228t-220 -83zM644 924q-162 0 -280 -119t-118 -297t112 -292t283 -114q115 0 213 48v186q0 150 -4 182q147 0 149 2q-8 -147 -8 -305v-137
q-165 -104 -379 -104t-364 152q-150 154 -150 378t160 386t399 161q191 -1 320 -93l-43 -124q-127 90 -290 90z" />
    <glyph glyph-name="gcommaaccent.sc" horiz-adv-x="1128" 
d="M594 -312q0 54 -62 87l-24 10q23 88 104 88q43 0 72 -34t29 -85q0 -135 -197 -260l-39 47l47 35q70 58 70 112zM644 924q-162 0 -280 -119t-118 -297t112 -292t283 -114q115 0 217 50v278h-102q-106 0 -185 -2q4 70 0 125q172 -4 218 -4t210 4q-8 -76 -8 -340v-135
q-165 -104 -379 -104t-364 152q-150 154 -150 378t160 386t399 161q191 -1 320 -93l-43 -124q-127 90 -290 90z" />
    <glyph glyph-name="Gcommaaccent.alt" horiz-adv-x="1513" 
d="M836 -125q44 0 72 -34t28 -85q0 -135 -197 -260l-39 47l48 35q70 58 70 112t-62 87l-25 10q23 88 105 88zM119 710q0 316 219 540t551 225q117 0 237 -35t205 -92l-45 -140q-76 58 -188 94t-226 35q-264 0 -432 -177t-168 -447q0 -269 172 -441t433 -172q180 0 327 80
v287q0 205 -6 254q158 0 162 2l-8 -430v-184q-221 -143 -492 -144q-317 0 -529 214q-212 215 -212 531z" />
    <glyph glyph-name="gcommaaccent.sc_alt" horiz-adv-x="1128" 
d="M596 -312q0 54 -61 87l-25 10q23 88 104 88q43 0 72 -34t29 -85q0 -135 -197 -260l-39 47l47 35q70 58 70 112zM644 924q-162 0 -280 -119t-118 -297t112 -292t283 -114q115 0 213 48v186q0 150 -4 182q147 0 149 2q-8 -147 -8 -305v-137q-165 -104 -379 -104t-364 152
q-150 154 -150 378t160 386t399 161q191 -1 320 -93l-43 -124q-127 90 -290 90z" />
    <glyph glyph-name="gdotaccent.sc" horiz-adv-x="1128" 
d="M612 1442q42 0 68 -28q27 -28 27 -71q0 -42 -28 -73t-70 -31q-43 0 -69 29q-26 28 -26 70t28 73t70 31zM644 924q-162 0 -280 -119t-118 -297t112 -292t283 -114q115 0 217 50v278h-102q-106 0 -185 -2q4 70 0 125q172 -4 218 -4t210 4q-8 -76 -8 -340v-135
q-165 -104 -379 -104t-364 152q-150 154 -150 378t160 386t399 161q191 -1 320 -93l-43 -124q-127 90 -290 90z" />
    <glyph glyph-name="Gdotaccent.alt" horiz-adv-x="1513" 
d="M739 1732q0 42 28 72t70 31q43 -1 69 -29t26 -70t-28 -73t-70 -31t-68 29q-27 29 -27 71zM119 710q0 316 219 540t551 225q117 0 237 -35t205 -92l-45 -140q-76 58 -188 94t-226 35q-264 0 -432 -177t-168 -447q0 -269 172 -441t433 -172q180 0 327 80v287q0 205 -6 254
q158 0 162 2l-8 -430v-184q-221 -143 -492 -144q-317 0 -529 214q-212 215 -212 531z" />
    <glyph glyph-name="gdotaccent.sc_alt" horiz-adv-x="1128" 
d="M622 1442q42 0 68 -28t27 -71q0 -42 -28 -73t-70 -31q-43 0 -69 29q-26 28 -26 70t28 73t70 31zM644 924q-162 0 -280 -119t-118 -297t112 -292t283 -114q115 0 213 48v186q0 150 -4 182q147 0 149 2q-8 -147 -8 -305v-137q-165 -104 -379 -104t-364 152
q-150 154 -150 378t160 386t399 161q191 -1 320 -93l-43 -124q-127 90 -290 90z" />
    <glyph glyph-name="hbar.sc" horiz-adv-x="1185" 
d="M322 739v-159h544v157l-139 2h-405zM1010 211q0 -170 6 -211h-160q10 90 10 338v125h-544v-252q0 -170 4 -211h-158q8 96 8 352v387q-90 -4 -127 -4q4 66 4 109q39 -2 121 -2q0 68 -6 184q106 0 158 8q-4 -39 -4 -194q82 -2 272 -2h270q0 111 -8 188q109 0 160 8
q-6 -39 -6 -194l133 4q-10 -57 -10 -109l-123 2v-526z" />
    <glyph glyph-name="iacute.sc" horiz-adv-x="509" 
d="M184 352v324q0 258 -8 350q106 0 158 8q-6 -43 -6 -217v-606q0 -170 6 -211h-158q8 96 8 352zM354 1483l205 14l-297 -299l-100 -8z" />
    <glyph glyph-name="ibreve.sc" horiz-adv-x="509" 
d="M259 1196q-138 0 -221 83t-83 208l123 20q0 -96 49 -150t134 -54t131 55t44 141l121 8q4 -145 -78 -228t-220 -83zM184 352v324q0 258 -8 350q106 0 158 8q-6 -43 -6 -217v-606q0 -170 6 -211h-158q8 96 8 352z" />
    <glyph glyph-name="icircumflex.sc" horiz-adv-x="509" 
d="M184 352v324q0 258 -8 350q106 0 158 8q-6 -43 -6 -217v-606q0 -170 6 -211h-158q8 96 8 352zM182 1499h166l209 -301l-106 -10l-189 207l-182 -193h-125z" />
    <glyph glyph-name="idieresis.sc" horiz-adv-x="509" 
d="M184 352v324q0 258 -8 350q106 0 158 8q-6 -43 -6 -217v-606q0 -170 6 -211h-158q8 96 8 352zM431 1442q41 0 69 -28t28 -70q0 -41 -28 -73t-71 -32q-42 0 -69 29q-26 28 -26 70t27 73q28 31 70 31zM85 1442q43 0 69 -28t26 -71q0 -42 -28 -73t-70 -31q-43 0 -70 29
q-26 30 -26 70t28 72q29 32 71 32z" />
    <glyph glyph-name="idotaccent.sc" horiz-adv-x="509" 
d="M255 1442q43 0 69 -28t26 -71q0 -42 -28 -73t-69 -31q-42 0 -69 29q-26 28 -26 70t27 73q28 31 70 31zM184 352v324q0 258 -8 350q106 0 158 8q-6 -43 -6 -217v-606q0 -170 6 -211h-158q8 96 8 352z" />
    <glyph glyph-name="dotlessi.sc" horiz-adv-x="509" 
d="M184 352v324q0 258 -8 350q106 0 158 8q-6 -43 -6 -217v-606q0 -170 6 -211h-158q8 96 8 352z" />
    <glyph glyph-name="igrave.sc" horiz-adv-x="509" 
d="M-35 1483l178 14l191 -299l-92 -8zM184 352v324q0 258 -8 350q106 0 158 8q-6 -43 -6 -217v-606q0 -170 6 -211h-158q8 96 8 352z" />
    <glyph glyph-name="imacron.sc" horiz-adv-x="509" 
d="M317 1294h-139q-82 0 -221 -4q6 43 6 121q139 -6 294 -6t302 6q-10 -55 -10 -121q-164 4 -232 4zM184 352v324q0 258 -8 350q106 0 158 8q-6 -43 -6 -217v-606q0 -170 6 -211h-158q8 96 8 352z" />
    <glyph glyph-name="iogonek.sc" horiz-adv-x="509" 
d="M172 -244q0 -36 23 -60t73 -24t121 47l-8 -100q-61 -45 -145 -45t-133 44q-48 44 -48 118q0 131 158 264h-37q8 96 8 352v324q0 258 -8 350q106 0 158 8q-6 -43 -6 -217v-606q0 -170 6 -211q-162 -131 -162 -244z" />
    <glyph glyph-name="kcommaaccent.sc" horiz-adv-x="1011" 
d="M545 -310q0 54 -62 87l-24 10q23 88 104 88q43 0 72 -34t29 -85q0 -135 -197 -260l-39 47l47 35q70 58 70 112zM322 211q0 -129 4 -211h-158q10 119 10 352v324q0 233 -10 350q106 0 158 8q-4 -86 -4 -217v-272l194 211q184 195 252 274h182l-481 -498l236 -249
q180 -197 264 -281l-170 -12l-477 516v-295z" />
    <glyph glyph-name="lacute.sc" horiz-adv-x="839" 
d="M406 1454l204 14l-297 -299l-100 -8zM471 2q-182 0 -303 -8q8 96 8 356v326q0 258 -8 350q106 0 158 8q-4 -43 -4 -217v-584q0 -78 2 -108l155 -2q117 0 305 4q-6 -45 -10 -133q-121 8 -303 8z" />
    <glyph glyph-name="lcaron.sc" horiz-adv-x="839" 
d="M530 739l-63 -14q14 184 16 307l123 19q-51 -226 -76 -312zM471 2q-182 0 -303 -8q8 96 8 356v326q0 258 -8 350q106 0 158 8q-4 -43 -4 -217v-584q0 -78 2 -108l155 -2q117 0 305 4q-6 -45 -10 -133q-121 8 -303 8z" />
    <glyph glyph-name="lcommaaccent.sc" horiz-adv-x="839" 
d="M461 -125q43 0 71 -34t29 -85q0 -135 -196 -260l-39 47l47 35q69 58 69 112t-61 87l-25 10q23 88 105 88zM471 2q-182 0 -303 -8q8 96 8 356v326q0 258 -8 350q106 0 158 8q-4 -43 -4 -217v-584q0 -78 2 -108l155 -2q117 0 305 4q-6 -45 -10 -133q-121 8 -303 8z" />
    <glyph glyph-name="ldot.sc" horiz-adv-x="839" 
d="M658 678q42 0 69 -28t27 -71q0 -42 -28 -73t-70 -31t-68 29q-26 28 -27 70q0 42 28 73q27 31 69 31zM471 2q-182 0 -303 -8q8 96 8 356v326q0 258 -8 350q106 0 158 8q-4 -43 -4 -217v-584q0 -78 2 -108l155 -2q117 0 305 4q-6 -45 -10 -133q-121 8 -303 8z" />
    <glyph glyph-name="lslash.sc" horiz-adv-x="839" 
d="M471 2q-182 0 -303 -8q8 96 8 356v72l-92 -53q-31 68 -57 104q81 40 149 80v123q0 258 -8 350q106 0 158 8q-4 -43 -4 -217v-180l155 96q25 -57 55 -108q-70 -35 -210 -119v-273q0 -78 2 -108l155 -2q117 0 305 4q-6 -45 -10 -133q-121 8 -303 8z" />
    <glyph glyph-name="nacute.sc" horiz-adv-x="1206" 
d="M700 1483l205 14l-297 -299l-100 -8zM897 676q0 258 -8 350q102 0 153 8q0 -4 -8 -217l-6 -614q0 -176 4 -217l-55 -13l-666 789v-551q0 -129 4 -211h-151q10 119 10 352l4 338q0 281 -6 350l55 11l670 -793v418z" />
    <glyph glyph-name="ncaron.sc" horiz-adv-x="1206" 
d="M678 1194h-164l-213 297l109 10l188 -203l184 193h121zM897 676q0 258 -8 350q102 0 153 8q0 -4 -8 -217l-6 -614q0 -176 4 -217l-55 -13l-666 789v-551q0 -129 4 -211h-151q10 119 10 352l4 338q0 281 -6 350l55 11l670 -793v418z" />
    <glyph glyph-name="ncommaaccent.sc" horiz-adv-x="1206" 
d="M578 -310q0 54 -62 87l-24 10q23 88 104 88q43 0 72 -34t28 -85q0 -135 -196 -260l-39 47l47 35q70 58 70 112zM897 676q0 258 -8 350q102 0 153 8q0 -4 -8 -217l-6 -614q0 -176 4 -217l-55 -13l-666 789v-551q0 -129 4 -211h-151q10 119 10 352l4 338q0 281 -6 350
l55 11l670 -793v418z" />
    <glyph glyph-name="ntilde.sc" horiz-adv-x="1206" 
d="M760 1339q59 0 90 152l106 -16q-43 -258 -198 -258q-62 -1 -162 71t-133 72t-51 -32t-33 -114l-109 17q25 137 73 194q100 119 285 -14q99 -72 132 -72zM897 676q0 258 -8 350q102 0 153 8q0 -4 -8 -217l-6 -614q0 -176 4 -217l-55 -13l-666 789v-551q0 -129 4 -211h-151
q10 119 10 352l4 338q0 281 -6 350l55 11l670 -793v418z" />
    <glyph glyph-name="oacute.sc" horiz-adv-x="1226" 
d="M711 1483l204 14l-297 -299l-100 -8zM610 98q162 0 267 122q104 122 104 300t-101 293q-102 115 -264 115t-266 -123t-104 -301t101 -292t263 -114zM622 1051q226 -1 366 -149t140 -376t-150 -391q-150 -162 -374 -162q-225 0 -365 150q-141 150 -141 377t149 389
t375 162z" />
    <glyph glyph-name="obreve.sc" horiz-adv-x="1226" 
d="M616 1196q-138 0 -222 83q-83 83 -83 208l123 20q0 -96 49 -150t134 -54t132 55q46 55 44 141l120 8q5 -145 -77 -228t-220 -83zM610 98q162 0 267 122q104 122 104 300t-101 293q-102 115 -264 115t-266 -123t-104 -301t101 -292t263 -114zM622 1051q226 -1 366 -149
t140 -376t-150 -391q-150 -162 -374 -162q-225 0 -365 150q-141 150 -141 377t149 389t375 162z" />
    <glyph glyph-name="ocircumflex.sc" horiz-adv-x="1226" 
d="M610 98q162 0 267 122q104 122 104 300t-101 293q-102 115 -264 115t-266 -123t-104 -301t101 -292t263 -114zM622 1051q226 -1 366 -149t140 -376t-150 -391q-150 -162 -374 -162q-225 0 -365 150q-141 150 -141 377t149 389t375 162zM539 1499h166l208 -301l-106 -10
l-189 207l-182 -193h-125z" />
    <glyph glyph-name="odieresis.sc" horiz-adv-x="1226" 
d="M610 98q162 0 267 122q104 122 104 300t-101 293q-102 115 -264 115t-266 -123t-104 -301t101 -292t263 -114zM622 1051q226 -1 366 -149t140 -376t-150 -391q-150 -162 -374 -162q-225 0 -365 150q-141 150 -141 377t149 389t375 162zM788 1442q42 0 69 -28
q28 -28 28 -70q0 -41 -29 -73t-71 -32q-43 0 -69 29q-26 28 -26 70t28 73t70 31zM442 1442q42 0 68 -28q27 -28 27 -71q0 -42 -28 -73t-71 -31q-44 0 -70 29q-26 30 -26 70t29 72t71 32z" />
    <glyph glyph-name="ograve.sc" horiz-adv-x="1226" 
d="M322 1483l178 14l190 -299l-92 -8zM610 98q162 0 267 122q104 122 104 300t-101 293q-102 115 -264 115t-266 -123t-104 -301t101 -292t263 -114zM622 1051q226 -1 366 -149t140 -376t-150 -391q-150 -162 -374 -162q-225 0 -365 150q-141 150 -141 377t149 389t375 162z
" />
    <glyph glyph-name="ohungarumlaut.sc" horiz-adv-x="1226" 
d="M819 1497l191 19l-205 -320l-105 -4zM508 1495l184 14l-186 -317l-103 -6zM610 98q162 0 267 122q104 122 104 300t-101 293q-102 115 -264 115t-266 -123t-104 -301t101 -292t263 -114zM622 1051q226 -1 366 -149t140 -376t-150 -391q-150 -162 -374 -162
q-225 0 -365 150q-141 150 -141 377t149 389t375 162z" />
    <glyph glyph-name="omacron.sc" horiz-adv-x="1226" 
d="M674 1294h-139q-82 0 -222 -4q6 43 6 121q137 -6 293 -6t303 6q-10 -55 -10 -121q-164 4 -231 4zM610 98q162 0 267 122q104 122 104 300t-101 293q-102 115 -264 115t-266 -123t-104 -301t101 -292t263 -114zM622 1051q226 -1 366 -149t140 -376t-150 -391
q-150 -162 -374 -162q-225 0 -365 150q-141 150 -141 377t149 389t375 162z" />
    <glyph glyph-name="oslash.sc" horiz-adv-x="1226" 
d="M608 98q164 0 269 122q104 122 104 287t-76 273l-518 -608q92 -74 221 -74zM246 515q0 -167 76 -271l518 606q-94 78 -222 78q-164 0 -268 -123t-104 -290zM1128 520q0 -224 -150 -385q-150 -162 -380 -162q-168 0 -301 97q-45 -49 -111 -127l-80 57l123 133
q-131 147 -131 371t148 385q148 162 381 162q174 0 301 -99l106 123q49 -43 76 -59l-111 -127q129 -145 129 -369z" />
    <glyph glyph-name="oslashacute.sc" horiz-adv-x="1226" 
d="M711 1483l204 14l-297 -299l-100 -8zM608 98q164 0 269 122q104 122 104 287t-76 273l-518 -608q92 -74 221 -74zM246 515q0 -167 76 -271l518 606q-94 78 -222 78q-164 0 -268 -123t-104 -290zM1128 520q0 -224 -150 -385q-150 -162 -380 -162q-168 0 -301 97
q-45 -49 -111 -127l-80 57l123 133q-131 147 -131 371t148 385q148 162 381 162q174 0 301 -99l106 123q49 -43 76 -59l-111 -127q129 -145 129 -369z" />
    <glyph glyph-name="otilde.sc" horiz-adv-x="1226" 
d="M770 1339q59 0 90 152l107 -16q-43 -258 -199 -258q-62 -1 -162 71t-133 72t-51 -32t-33 -114l-108 17q25 137 72 194q100 119 285 -14q99 -72 132 -72zM610 98q162 0 267 122q104 122 104 300t-101 293q-102 115 -264 115t-266 -123t-104 -301t101 -292t263 -114z
M622 1051q226 -1 366 -149t140 -376t-150 -391q-150 -162 -374 -162q-225 0 -365 150q-141 150 -141 377t149 389t375 162z" />
    <glyph glyph-name="racute.sc" horiz-adv-x="991" 
d="M582 1483l204 14l-297 -299l-100 -8zM319 518h166q100 0 161 57q60 57 61 142q0 193 -248 192q-98 0 -137 -2q-2 -23 -3 -90v-299zM319 403v-192q0 -129 5 -211h-156q8 96 8 352v324q0 260 -8 352q76 0 274 4t303 -79q106 -83 105 -214q-2 -209 -217 -299l162 -233
q104 -152 143 -201l-166 -18l-268 415h-185z" />
    <glyph glyph-name="rcaron.sc" horiz-adv-x="991" 
d="M559 1200h-164l-213 297l109 10l188 -202l185 192h120zM319 518h166q100 0 161 57q60 57 61 142q0 193 -248 192q-98 0 -137 -2q-2 -23 -3 -90v-299zM319 403v-192q0 -129 5 -211h-156q8 96 8 352v324q0 260 -8 352q76 0 274 4t303 -79q106 -83 105 -214
q-2 -209 -217 -299l162 -233q104 -152 143 -201l-166 -18l-268 415h-185z" />
    <glyph glyph-name="rcommaaccent.sc" horiz-adv-x="991" 
d="M496 -310q0 54 -62 87l-24 10q23 88 104 88q43 0 72 -34t28 -85q0 -135 -196 -260l-39 47l47 35q70 58 70 112zM319 518h166q100 0 161 57q60 57 61 142q0 193 -248 192q-98 0 -137 -2q-2 -23 -3 -90v-299zM319 403v-192q0 -129 5 -211h-156q8 96 8 352v324q0 260 -8 352
q76 0 274 4t303 -79q106 -83 105 -214q-2 -209 -217 -299l162 -233q104 -152 143 -201l-166 -18l-268 415h-185z" />
    <glyph glyph-name="sacute.sc" horiz-adv-x="839" 
d="M743 281q0 -133 -95 -221t-257 -87q-162 0 -297 84l6 146q54 -41 138 -72t170 -31t140 45t54 111t-48 112q-48 48 -118 82t-140 72t-117 98q-48 60 -48 138q0 127 91 210q90 83 238 83t255 -72l-39 -123q-100 70 -200 70t-152 -44t-52 -104t48 -104q48 -43 118 -77
t140 -72t118 -100t47 -144zM549 1483l205 14l-297 -299l-101 -8z" />
    <glyph glyph-name="scaron.sc" horiz-adv-x="839" 
d="M743 281q0 -133 -95 -221t-257 -87q-162 0 -297 84l6 146q54 -41 138 -72t170 -31t140 45t54 111t-48 112q-48 48 -118 82t-140 72t-117 98q-48 60 -48 138q0 127 91 210q90 83 238 83t255 -72l-39 -123q-100 70 -200 70t-152 -44t-52 -104t48 -104q48 -43 118 -77
t140 -72t118 -100t47 -144zM526 1200h-164l-212 297l108 10l188 -202l185 192h121z" />
    <glyph glyph-name="scedilla.sc" horiz-adv-x="839" 
d="M743 281q1 -121 -79 -205t-215 -99l-31 -114q205 -57 205 -176q1 -63 -53 -107t-142 -45q-88 0 -176 31l20 94q82 -33 164 -33t82 56q0 66 -190 108l-9 8q20 63 50 176q-152 6 -275 82l6 146q54 -41 138 -72t170 -31t140 45t54 111t-48 112q-48 48 -118 82t-140 72
t-117 98q-48 60 -48 138q0 127 91 210q90 83 238 83t255 -72l-39 -123q-100 70 -200 70t-152 -44t-52 -104t48 -104q48 -43 118 -77t140 -72t118 -100t47 -144z" />
    <glyph glyph-name="scommaaccent.sc" horiz-adv-x="839" 
d="M743 281q0 -133 -95 -221t-257 -87q-162 0 -297 84l6 146q54 -41 138 -72t170 -31t140 45t54 111t-48 112q-48 48 -118 82t-140 72t-117 98q-48 60 -48 138q0 127 91 210q90 83 238 83t255 -72l-39 -123q-100 70 -200 70t-152 -44t-52 -104t48 -104q48 -43 118 -77
t140 -72t118 -100t47 -144zM377 -310q0 54 -62 87l-24 10q23 88 104 88q43 0 72 -34t29 -85q0 -135 -197 -260l-39 47l47 35q70 58 70 112z" />
    <glyph glyph-name="tcaron.sc" horiz-adv-x="972" 
d="M563 1200h-164l-213 297l109 10l188 -202l185 192h120zM559 903v-692q0 -170 4 -211h-157q10 119 10 352v299q0 139 -6 252q-246 0 -349 -2q4 37 5 133q194 -6 422 -6t423 6q-8 -82 -8 -133q-109 2 -344 2z" />
    <glyph glyph-name="tcommaaccent.sc" horiz-adv-x="972" 
d="M463 -310q0 54 -62 87l-24 10q23 88 104 88q43 0 72 -34t29 -85q0 -135 -197 -260l-39 47l47 35q70 58 70 112zM559 903v-692q0 -170 4 -211h-157q10 119 10 352v299q0 139 -6 252q-246 0 -349 -2q4 37 5 133q194 -6 422 -6t423 6q-8 -82 -8 -133q-109 2 -344 2z" />
    <glyph glyph-name="uacute.sc" horiz-adv-x="1153" 
d="M993 817v-401q-1 -217 -115 -330t-306 -113q-192 -1 -301 101q-110 102 -109 282v320q0 258 -8 350q104 0 155 8q-4 -86 -4 -217v-418q0 -297 277 -297q124 0 196 73t72 204v297q0 262 -10 350q104 0 159 8q-6 -43 -6 -217zM674 1483l205 14l-297 -299l-101 -8z" />
    <glyph glyph-name="ubreve.sc" horiz-adv-x="1153" 
d="M576 1196q-138 0 -221 83t-83 208l123 20q0 -96 49 -150t134 -54t132 55q46 55 44 141l120 8q4 -145 -78 -228t-220 -83zM993 817v-401q-1 -217 -115 -330t-306 -113q-192 -1 -301 101q-110 102 -109 282v320q0 258 -8 350q104 0 155 8q-4 -86 -4 -217v-418
q0 -297 277 -297q124 0 196 73t72 204v297q0 262 -10 350q104 0 159 8q-6 -43 -6 -217z" />
    <glyph glyph-name="ucircumflex.sc" horiz-adv-x="1153" 
d="M993 817v-401q-1 -217 -115 -330t-306 -113q-192 -1 -301 101q-110 102 -109 282v320q0 258 -8 350q104 0 155 8q-4 -86 -4 -217v-418q0 -297 277 -297q124 0 196 73t72 204v297q0 262 -10 350q104 0 159 8q-6 -43 -6 -217zM500 1499h166l208 -301l-106 -10l-188 207
l-183 -193h-125z" />
    <glyph glyph-name="udieresis.sc" horiz-adv-x="1153" 
d="M993 817v-401q-1 -217 -115 -330t-306 -113q-192 -1 -301 101q-110 102 -109 282v320q0 258 -8 350q104 0 155 8q-4 -86 -4 -217v-418q0 -297 277 -297q124 0 196 73t72 204v297q0 262 -10 350q104 0 159 8q-6 -43 -6 -217zM749 1442q41 0 69 -28t28 -70q0 -41 -29 -73
t-71 -32t-68 29q-26 28 -27 70q0 42 28 73t70 31zM402 1442q42 0 69 -28t27 -71q0 -42 -28 -73t-71 -31t-69 29q-26 30 -27 70q0 40 29 72q28 32 70 32z" />
    <glyph glyph-name="ugrave.sc" horiz-adv-x="1153" 
d="M993 817v-401q-1 -217 -115 -330t-306 -113q-192 -1 -301 101q-110 102 -109 282v320q0 258 -8 350q104 0 155 8q-4 -86 -4 -217v-418q0 -297 277 -297q124 0 196 73t72 204v297q0 262 -10 350q104 0 159 8q-6 -43 -6 -217zM283 1483l178 14l190 -299l-92 -8z" />
    <glyph glyph-name="uhungarumlaut.sc" horiz-adv-x="1153" 
d="M993 817v-401q-1 -217 -115 -330t-306 -113q-192 -1 -301 101q-110 102 -109 282v320q0 258 -8 350q104 0 155 8q-4 -86 -4 -217v-418q0 -297 277 -297q124 0 196 73t72 204v297q0 262 -10 350q104 0 159 8q-6 -43 -6 -217zM782 1497l191 19l-205 -320l-104 -4zM471 1495
l184 14l-186 -317l-102 -6z" />
    <glyph glyph-name="umacron.sc" horiz-adv-x="1153" 
d="M993 817v-401q-1 -217 -115 -330t-306 -113q-192 -1 -301 101q-110 102 -109 282v320q0 258 -8 350q104 0 155 8q-4 -86 -4 -217v-418q0 -297 277 -297q124 0 196 73t72 204v297q0 262 -10 350q104 0 159 8q-6 -43 -6 -217zM635 1294h-139q-82 0 -222 -4q6 43 7 121
q137 -6 293 -6t303 6q-10 -55 -11 -121q-164 4 -231 4z" />
    <glyph glyph-name="uogonek.sc" horiz-adv-x="1153" 
d="M426 -268q0 125 166 241h-29q-182 -1 -292 101t-109 282v320q0 258 -8 350q104 0 155 8q-4 -86 -4 -217v-418q0 -297 277 -297q124 0 196 73t72 204v297q0 262 -10 350q104 0 159 8q-6 -43 -6 -217v-401q0 -211 -114 -324q-43 -43 -162 -115q-174 -104 -174 -225
q1 -36 23 -58t72 -22t122 47l-8 -100q-62 -45 -146 -45t-132 43t-48 115z" />
    <glyph glyph-name="uring.sc" horiz-adv-x="1153" 
d="M993 817v-401q-1 -217 -115 -330t-306 -113q-192 -1 -301 101q-110 102 -109 282v320q0 258 -8 350q104 0 155 8q-4 -86 -4 -217v-418q0 -297 277 -297q124 0 196 73t72 204v297q0 262 -10 350q104 0 159 8q-6 -43 -6 -217zM702 1405q0 57 -33 94q-34 37 -92 37
q-59 0 -95 -38t-36 -95t35 -95t93 -38t94 39q34 39 34 96zM578 1620q102 0 164 -60t61 -151q0 -92 -65 -159q-65 -66 -166 -66t-163 61q-63 61 -63 153t65 158q65 64 167 64z" />
    <glyph glyph-name="wacute.sc" horiz-adv-x="1519" 
d="M860 1483l205 14l-297 -299l-100 -8zM1475 1024l-271 -737q-18 -51 -46 -128t-60 -173l-54 -13l-282 785l-176 -479q-18 -53 -56 -153t-55 -149l-53 -2l-270 766q-59 174 -109 281l154 10l266 -770l178 498q76 223 98 272l54 10l280 -774l162 484l86 272h154z" />
    <glyph glyph-name="wcircumflex.sc" horiz-adv-x="1519" 
d="M686 1499h166l209 -301l-107 -10l-188 207l-182 -193h-125zM1475 1024l-271 -737q-18 -51 -46 -128t-60 -173l-54 -13l-282 785l-176 -479q-18 -53 -56 -153t-55 -149l-53 -2l-270 766q-59 174 -109 281l154 10l266 -770l178 498q76 223 98 272l54 10l280 -774l162 484
l86 272h154z" />
    <glyph glyph-name="wdieresis.sc" horiz-adv-x="1519" 
d="M937 1442q41 0 69 -28t28 -70q0 -41 -28 -73t-71 -32q-42 0 -69 29q-26 28 -26 70t27 73q28 31 70 31zM591 1442q43 0 69 -28t26 -71q0 -42 -28 -73t-70 -31t-70 29q-26 30 -26 70t28 72q29 32 71 32zM1475 1024l-271 -737q-18 -51 -46 -128t-60 -173l-54 -13l-282 785
l-176 -479q-18 -53 -56 -153t-55 -149l-53 -2l-270 766q-59 174 -109 281l154 10l266 -770l178 498q76 223 98 272l54 10l280 -774l162 484l86 272h154z" />
    <glyph glyph-name="wgrave.sc" horiz-adv-x="1519" 
d="M471 1483l178 14l191 -299l-92 -8zM1475 1024l-271 -737q-18 -51 -46 -128t-60 -173l-54 -13l-282 785l-176 -479q-18 -53 -56 -153t-55 -149l-53 -2l-270 766q-59 174 -109 281l154 10l266 -770l178 498q76 223 98 272l54 10l280 -774l162 484l86 272h154z" />
    <glyph glyph-name="yacute.sc" horiz-adv-x="970" 
d="M588 1483l205 14l-297 -299l-101 -8zM557 211q0 -150 6 -211h-157q10 119 10 348v90l-156 244q-110 176 -223 344l160 10l292 -473l99 156q31 45 190 309h162l-383 -586v-231z" />
    <glyph glyph-name="ycircumflex.sc" horiz-adv-x="970" 
d="M414 1499h166l208 -301l-106 -10l-188 207l-183 -193h-125zM557 211q0 -150 6 -211h-157q10 119 10 348v90l-156 244q-110 176 -223 344l160 10l292 -473l99 156q31 45 190 309h162l-383 -586v-231z" />
    <glyph glyph-name="ydieresis.sc" horiz-adv-x="970" 
d="M663 1442q41 0 69 -28t28 -70q0 -41 -29 -73t-71 -32t-68 29q-26 28 -27 70q0 42 28 73t70 31zM316 1442q42 0 69 -28t27 -71q0 -42 -28 -73t-71 -31t-69 29q-26 30 -27 70q0 40 29 72q28 32 70 32zM557 211q0 -150 6 -211h-157q10 119 10 348v90l-156 244
q-110 176 -223 344l160 10l292 -473l99 156q31 45 190 309h162l-383 -586v-231z" />
    <glyph glyph-name="ygrave.sc" horiz-adv-x="970" 
d="M197 1483l178 14l190 -299l-92 -8zM557 211q0 -150 6 -211h-157q10 119 10 348v90l-156 244q-110 176 -223 344l160 10l292 -473l99 156q31 45 190 309h162l-383 -586v-231z" />
    <glyph glyph-name="zacute.sc" horiz-adv-x="972" 
d="M514 121q168 0 365 4q-8 -78 -11 -131q-123 8 -381 8t-397 -8l-31 31l629 884q-61 2 -212 2t-351 -4q6 55 6 127q189 -6 399 -6t357 6l31 -28l-629 -883q57 -2 225 -2zM621 1483l204 14l-297 -299l-100 -8z" />
    <glyph glyph-name="zcaron.sc" horiz-adv-x="972" 
d="M514 121q168 0 365 4q-8 -78 -11 -131q-123 8 -381 8t-397 -8l-31 31l629 884q-61 2 -212 2t-351 -4q6 55 6 127q189 -6 399 -6t357 6l31 -28l-629 -883q57 -2 225 -2zM598 1200h-164l-213 297l109 10l188 -202l184 192h121z" />
    <glyph glyph-name="zdotaccent.sc" horiz-adv-x="972" 
d="M524 1442q42 0 68 -28t26 -71q0 -42 -28 -73t-69 -31q-43 0 -69 29q-26 28 -26 70t28 73t70 31zM514 121q168 0 365 4q-8 -78 -11 -131q-123 8 -381 8t-397 -8l-31 31l629 884q-61 2 -212 2t-351 -4q6 55 6 127q189 -6 399 -6t357 6l31 -28l-629 -883q57 -2 225 -2z" />
    <glyph glyph-name="ae.sc" horiz-adv-x="1388" 
d="M694 680q0 125 -2 190l-286 -460h288v270zM993 2q-188 0 -305 -8q6 92 6 303h-356l-14 -27q-88 -137 -162 -270h-160l465 739q135 215 178 295q147 -6 320 -6t317 6q-10 -68 -10 -129q-82 2 -273 2h-159q-2 -33 -2 -102v-209l376 4q-4 -35 -4 -123l-372 2v-254
q0 -70 2 -102l157 -2q166 0 312 6q-6 -45 -11 -133q-117 8 -305 8z" />
    <glyph glyph-name="aeacute.sc" horiz-adv-x="1388" 
d="M969 1483l205 14l-297 -299l-101 -8zM694 680q0 125 -2 190l-286 -460h288v270zM993 2q-188 0 -305 -8q6 92 6 303h-356l-14 -27q-88 -137 -162 -270h-160l465 739q135 215 178 295q147 -6 320 -6t317 6q-10 -68 -10 -129q-82 2 -273 2h-159q-2 -33 -2 -102v-209l376 4
q-4 -35 -4 -123l-372 2v-254q0 -70 2 -102l157 -2q166 0 312 6q-6 -45 -11 -133q-117 8 -305 8z" />
    <glyph glyph-name="oe.sc" horiz-adv-x="1497" 
d="M657 909q-205 -1 -310 -113t-105 -286t110 -280q111 -105 307 -105q68 0 142 4q2 29 2 111v559q0 74 -2 104q-63 6 -144 6zM98 505q0 229 150 379t397 150l432 -6q176 0 314 6q-10 -68 -11 -129q-82 2 -272 2h-160q-2 -33 -2 -102v-209l377 4q-4 -35 -4 -123l-373 2v-254
q0 -70 2 -102l158 -2q168 0 311 6q-6 -45 -10 -133q-117 8 -303 8l-440 -2q-264 0 -415 138t-151 367z" />
    <glyph glyph-name="eth.sc" horiz-adv-x="1124" 
d="M465 125q205 1 311 113t105 286q0 174 -111 280t-305 105q-68 0 -141 -4q-2 -31 -2 -110v-217q121 0 227 6q-10 -57 -10 -125q-135 4 -201 4h-16v-230q0 -72 2 -102q66 -6 141 -6zM1026 528q0 -230 -150 -378q-150 -150 -399 -150h-307q6 72 6 352v111l-129 -4
q6 49 6 125l123 -6v98q0 281 -6 350l291 8q265 0 415 -138t150 -368z" />
    <glyph glyph-name="thorn.sc" horiz-adv-x="950" 
d="M457 840q197 0 303 -86t106 -236t-114 -240t-334 -92q-72 0 -96 2q0 -111 4 -188h-158q8 96 8 352v324q0 258 -8 350q106 0 158 8q-4 -38 -4 -198q43 4 135 4zM420 303q143 0 224 54t81 153q0 205 -276 205q-45 0 -127 -4q-2 -20 -3 -78v-326q29 -4 101 -4z" />
    <glyph glyph-name="one.alt" horiz-adv-x="598" 
d="M229 346v305q0 221 -12 359q96 0 162 8q-6 -55 -6 -238v-573q0 -125 6 -207h-160q10 113 10 346z" />
    <glyph glyph-name="zero.lin" horiz-adv-x="1255" 
d="M627 92q166 0 264 175t98 443t-97 435q-97 166 -262 166t-264 -175q-100 -176 -100 -444t98 -434t263 -166zM636 1440q234 0 368 -203t133 -527q1 -324 -141 -535q-142 -212 -376 -212t-368 203q-133 202 -133 526t141 536q142 212 376 212z" />
    <glyph glyph-name="one.lin" horiz-adv-x="755" 
d="M510 1188v-955q0 -186 4 -233h-156q8 104 9 389v868l-289 -90l-33 125q80 25 320 103l129 41l20 -13q-4 -37 -4 -235z" />
    <glyph glyph-name="two.lin" horiz-adv-x="1118" 
d="M547 2q-258 0 -441 -8l-22 100q123 121 177 175l146 146q91 91 185 200t119 152q77 133 87 180q9 48 9 91q0 117 -75 189t-202 71q-170 0 -340 -143l-55 125q199 154 395 154t311 -102q114 -102 113 -275q0 -139 -74 -267t-240 -312q-165 -184 -335 -347q485 0 692 6
q-10 -72 -12 -143q-180 8 -438 8z" />
    <glyph glyph-name="three.lin" horiz-adv-x="1060" 
d="M432 104q164 0 263 69t99 195t-129 202q-130 77 -378 81l-21 105q240 43 371 133t131 207q0 86 -73 145t-199 59q-178 0 -322 -116l-55 125q189 125 379 125t305 -94t115 -228q0 -266 -365 -375q197 -39 295 -132t98 -230q0 -180 -140 -293q-140 -112 -338 -112t-357 55
l-23 145q180 -66 344 -66z" />
    <glyph glyph-name="four.lin" horiz-adv-x="1148" 
d="M735 520h4v651l-518 -649q43 -2 514 -2zM739 362v41h-141q-336 0 -524 -8l-35 94l592 746l155 199l99 -11q-4 -78 -4 -260v-641q106 0 221 4q-12 -78 -15 -131l-206 6v-161q0 -145 4 -240h-154q8 80 8 362z" />
    <glyph glyph-name="five.lin" horiz-adv-x="1064" 
d="M948 403q0 -193 -139 -313t-360 -121q-176 0 -314 51l-22 144q171 -62 329 -62t258 84t100 221t-113 213q-114 76 -325 76q-45 0 -163 -12l-23 12q6 72 14 228l9 227q4 195 2 229l24 23q271 -4 381 -4t309 6q-12 -45 -22 -148q-201 4 -322 5h-227l-20 -441l90 4
q258 -1 396 -115t138 -307z" />
    <glyph glyph-name="six.lin" horiz-adv-x="1134" 
d="M891 436q0 144 -88 234q-88 88 -222 88q-133 0 -225 -98t-92 -237t87 -235t225 -96t227 100q88 100 88 244zM1038 440q0 -196 -132 -336t-340 -141t-333 147t-124 402q0 358 204 613q205 255 580 325l33 -127q-283 -53 -454 -221t-218 -414q58 90 154 143t208 54
q176 0 299 -125q123 -124 123 -320z" />
    <glyph glyph-name="seven.lin" horiz-adv-x="1046" 
d="M515 1399q214 0 427 6l41 -68q-10 -18 -115 -231l-411 -848q-109 -221 -125 -270l-164 22q84 145 184 355l436 897h-373q-219 0 -339 -2q12 116 12 145q213 -6 427 -6z" />
    <glyph glyph-name="eight.lin" horiz-adv-x="1144" 
d="M307 1071q0 -180 287 -280q124 41 194 113t70 173q0 100 -78 169t-198 69t-198 -70q-77 -70 -77 -174zM887 354q0 205 -314 316q-315 -102 -315 -322q0 -116 92 -188t228 -72t223 76q86 76 86 190zM1034 360q0 -170 -130 -284t-334 -113q-204 -1 -332 107t-127 258
q0 283 333 397q-285 115 -284 340q0 155 122 265t305 110t301 -106t118 -255q0 -219 -289 -344q317 -135 317 -375z" />
    <glyph glyph-name="nine.lin" horiz-adv-x="1134" 
d="M246 965q0 -143 87 -231t221 -89q134 0 226 97q92 96 92 236t-88 235t-226 95t-225 -100t-87 -243zM518 518q-176 0 -298 124t-122 320t132 335q132 141 339 141t332 -148t125 -401q0 -359 -204 -613t-578 -325l-35 127q283 55 451 221t219 410q-59 -87 -155 -139
t-206 -52z" />
    <glyph glyph-name="hyphen.lin" horiz-adv-x="849" 
d="M338 643q-45 0 -118 -1t-103 -1q6 43 6 119q180 -4 348 -4t266 4q-10 -51 -10 -119l-231 2h-158z" />
    <glyph glyph-name="endash.lin" horiz-adv-x="1079" 
d="M440 643q-68 0 -170 -1t-153 -1q6 43 6 119q259 -4 483 -4t361 4q-8 -61 -9 -119l-325 2h-193z" />
    <glyph glyph-name="emdash.lin" horiz-adv-x="1978" 
d="M559 643q-81 0 -231 -1t-211 -1q6 43 6 119q339 -4 951 -4t788 4q-4 -25 -11 -119l-444 2h-848z" />
    <glyph glyph-name="parenleft.lin" horiz-adv-x="815" 
d="M158 694q0 312 170 572t440 409l55 -96q-227 -131 -379 -359t-152 -522t154 -521q152 -228 379 -357l-57 -92q-268 145 -439 399t-171 567z" />
    <glyph glyph-name="parenright.lin" horiz-adv-x="815" 
d="M659 705q0 -313 -172 -573t-440 -404l-55 96q227 129 380 357q152 228 152 520t-152 521q-153 228 -382 359l57 94q270 -145 441 -401t171 -569z" />
    <glyph glyph-name="bracketleft.lin" horiz-adv-x="757" 
d="M478 -266q-171 0 -251 -4l-18 10q10 98 10 397v1116q0 303 -10 400l20 22q152 -8 276 -8t230 8q-8 -63 -8 -125q-163 4 -245 4t-134 -2v-1435q0 -186 6 -267l146 -2q79 1 243 5q-12 -49 -14 -125q-80 6 -251 6z" />
    <glyph glyph-name="bracketright.lin" horiz-adv-x="757" 
d="M280 1669q171 0 248 4l21 -10q-10 -98 -10 -397v-1116q0 -301 10 -400l-21 -22q-152 8 -276 8t-229 -8q8 63 8 125q280 -7 379 -3v1432q0 193 -7 272h-145q-84 0 -244 -4q12 49 15 125q80 -6 251 -6z" />
    <glyph glyph-name="braceleft.lin" horiz-adv-x="776" 
d="M428 881q0 35 -36 99t-73 146t-36 152q0 299 409 393l29 -92q-160 -41 -235 -113q-74 -72 -74 -148t68 -211q68 -133 69 -195q0 -62 -50 -114t-175 -96q129 -43 177 -95q48 -53 48 -115t-69 -195q-68 -133 -68 -210t74 -149t235 -112l-29 -94q-410 94 -409 395
q0 102 109 296q36 65 36 99t-59 68q-60 33 -226 72v79q166 39 226 72q59 33 59 68z" />
    <glyph glyph-name="braceright.lin" horiz-adv-x="776" 
d="M494 127q0 -301 -410 -395l-29 94q162 41 236 113q74 73 74 149t-69 210t-69 196q0 131 226 208q-129 42 -177 94t-49 116q0 64 69 196q69 133 69 210q0 76 -74 148t-236 113l29 92q410 -94 410 -393q0 -107 -109 -296q-37 -66 -37 -100t60 -67t225 -74v-77
q-166 -41 -225 -74q-60 -33 -60 -68q0 -36 37 -100q109 -190 109 -295z" />
    <glyph glyph-name="at.cap" horiz-adv-x="1701" 
d="M940 1001q-119 -1 -209 -125t-90 -270q0 -174 109 -174q82 0 179 117t120 280l20 129q-45 43 -129 43zM1145 334q-96 0 -125 75t6 197q-55 -116 -148 -194t-175 -78t-128 67q-45 68 -45 179q0 186 126 352t292 166q111 0 156 -45l82 53l14 -10l-82 -521q-29 -159 60 -159
q121 0 220 130t99 329t-129 350q-63 73 -173 117t-249 44q-282 0 -486 -212t-204 -502q0 -292 168 -456t444 -165q276 0 496 133l33 -71q-252 -150 -551 -150t-492 198t-192 474q0 188 69 349q131 302 443 431q145 59 297 60q289 0 453 -172q164 -173 165 -403
q0 -230 -129 -398t-315 -168z" />
    <glyph glyph-name="registered.alt" horiz-adv-x="1771" 
d="M778 733h101q79 0 123 41q44 42 44 104t-42 99q-44 37 -106 37t-120 -4v-277zM864 1110q144 0 224 -60t77 -157q-4 -156 -155 -221l131 -187q63 -92 96 -133l-135 -12l-203 303h-121v-162q0 -72 4 -133h-127q6 78 7 256v244q-1 182 -7 256q123 6 209 6zM1548 719
q0 276 -193 473q-194 197 -470 197t-469 -197t-193 -473t193 -473t469 -197t470 197q193 197 193 473zM1640 719q0 -313 -221 -535t-534 -221q-313 0 -535 221q-221 220 -221 534t221 535q220 221 534 221t535 -220q221 -222 221 -535z" />
    <glyph glyph-name="dollar.lin" horiz-adv-x="1122" 
d="M285 1069q0 -92 62 -148t181 -106l31 340q4 104 8 148q-129 -8 -205 -75t-77 -159zM877 348q0 98 -65 158t-185 115l-39 -525q133 14 211 84t78 168zM1024 376q0 -165 -120 -282t-326 -131q-9 -164 -9 -225h-135q12 80 23 227q-207 18 -381 123l10 156q68 -53 171 -94
t210 -54l51 572q-90 40 -142 66q-161 82 -209 178q-30 60 -30 137q0 159 121 269t317 118q8 106 13 202q82 0 127 7q0 -46 -21 -211q182 -23 307 -111l-49 -131q-119 84 -270 106l-43 -528q152 -61 269 -145q116 -84 116 -249z" />
    <glyph glyph-name="sterling.lin" horiz-adv-x="1091" 
d="M98 766h191q-66 139 -66 258q0 174 124 294q123 120 305 120t311 -76l-33 -133q-124 74 -260 74t-218 -73q-82 -74 -81 -186q0 -112 78 -276q240 2 432 14q-2 -18 -9 -135q-133 2 -366 -4q31 -82 31 -156q0 -199 -185 -354q289 0 670 12q-14 -78 -14 -151q-134 6 -436 6
t-474 -10l-20 108q317 152 317 371q0 72 -43 168q-129 -6 -260 -6q6 53 6 135z" />
    <glyph glyph-name="Euro.lin" horiz-adv-x="1400" 
d="M666 578q260 0 432 8q-10 -68 -17 -133q-131 2 -417 2h-238q59 -167 191 -263t303 -96q240 0 405 152l-10 -166q-181 -121 -411 -121t-401 136t-233 358q-166 0 -239 -2q6 49 6 133q66 -4 209 -8q-4 60 -4 120t10 119q-39 0 -109 -1t-100 -1q8 66 8 129q139 -4 228 -4
q70 225 240 362q171 136 399 136t389 -117l-43 -131q-145 113 -331 113q-186 -1 -317 -99t-190 -264h250q328 0 459 4q-12 -57 -17 -129q-133 2 -444 2h-279q-8 -51 -8 -120t8 -119h271z" />
    <glyph glyph-name="yen.lin" horiz-adv-x="1282" 
d="M711 438h2q311 0 444 4q-4 -14 -14 -129q-133 2 -430 2h-2v-28q0 -172 4 -287h-158q6 80 10 315h-6q-309 0 -440 -2q4 66 4 129q250 -4 438 -4h4l2 180l-22 35q-80 0 -222 -1t-202 -1q6 45 6 127q147 -6 342 -6l-111 176q-16 25 -139 210t-158 241l162 14l416 -668
l121 193q6 12 130 211t155 254h174l-414 -631q197 0 352 6q-4 -18 -14 -127l-416 2l-18 -28v-187z" />
    <glyph glyph-name="cent.lin" horiz-adv-x="1011" 
d="M250 705q0 -295 229 -365l13 143l34 492l6 96q-130 -19 -206 -121t-76 -245zM600 324q178 0 328 131l-6 -156q-152 -100 -334 -100q-8 -117 -8 -199h-127l18 209q-166 35 -267 164q-102 129 -102 319t122 338q122 147 317 172q8 160 8 197q39 0 129 8q-6 -41 -19 -205
q147 -14 267 -96l-43 -127q-104 80 -234 94l-53 -749h4z" />
    <glyph glyph-name="R_p" horiz-adv-x="2289" 
d="M373 711h231q143 0 229 86q85 85 85 211t-88 199t-257 73l-200 -2v-567zM1680 90q152 0 245 114q94 114 94 280q0 165 -84 256t-217 91q-162 0 -280 -155v-486q90 -100 242 -100zM2159 480q-1 -216 -143 -364t-313 -148t-265 83v-280q0 -129 8 -197q-4 0 -82 -7t-80 -7
q10 74 10 317v703q0 219 -12 350q72 0 139 6l9 -135q139 155 323 155t295 -130t111 -346zM373 584v-297q0 -205 6 -289h-166q10 121 10 483v441q0 360 -10 481l354 8q238 3 373 -109t131 -280q-6 -291 -301 -404l215 -321q133 -193 207 -289l-174 -22l-387 598h-258z" />
    <glyph glyph-name="numbersign.lin" horiz-adv-x="1478" 
d="M575 895l-49 -393h367l51 391zM1024 502q246 0 352 4q-18 -72 -24 -131l-334 4h-17l-4 -39q-33 -303 -34 -340h-146q29 131 60 379l-367 2l-4 -41q-29 -217 -37 -340h-143q31 170 57 381h-2q-270 0 -342 -6l22 131q102 -4 328 -4h10l52 395h-5q-190 0 -344 -6l23 127
q51 -2 330 -2h10q31 246 39 387q68 0 141 8q-41 -264 -49 -348l-6 -47h368q31 270 37 387q68 0 144 8q-7 -39 -27 -180t-25 -168l-6 -47h6q299 0 353 2q-18 -63 -25 -127l-336 2h-14l-47 -391h6z" />
    <glyph glyph-name="paragraph.lin" horiz-adv-x="1361" 
d="M1012 965q0 330 -15 438q80 0 166 6q-8 -78 -8 -279v-872q0 -152 8 -258h-164q12 111 13 434v531zM612 1409q41 0 113 -2t102 -2q-8 -51 -8 -283l2 -823q0 -233 6 -299h-159q10 174 10 475v57q-297 -2 -439 121t-143 334q0 174 134 298t382 124z" />
    <glyph glyph-name="section.lin" horiz-adv-x="968" 
d="M250 583q0 -71 70 -121t227 -116q88 27 141 81q53 53 53 115t-43 110t-91 74t-138 65q-107 -29 -163 -83t-56 -125zM106 570q0 95 62 170t170 116q-190 98 -191 258q1 129 107 227q106 99 283 99t307 -90l-43 -129q-127 90 -279 90q-102 0 -167 -50q-65 -51 -65 -125
t61 -124q59 -50 147 -89q88 -38 175 -80t147 -113t61 -167q0 -182 -205 -284q190 -99 190 -249t-114 -252t-302 -102t-352 97l8 147q162 -115 349 -115q119 1 193 57t73 135q1 79 -63 131t-154 89t-180 78t-154 111t-64 164z" />
    <glyph glyph-name="ordfeminine.lin" horiz-adv-x="720" 
d="M318 952q62 0 111 46q48 46 50 118v62q-49 4 -76 4q-207 0 -206 -123q-1 -45 29 -76t92 -31zM485 981q-57 -119 -219 -119q-80 0 -135 50q-53 50 -53 138t81 146t242 57q39 0 80 -6l2 33q7 152 -143 152q-104 0 -190 -58l-23 99q117 66 233 65q246 0 240 -248l-8 -266
q0 -70 45 -70q20 0 41 11l18 -66q-47 -35 -104 -35q-98 0 -107 117z" />
    <glyph glyph-name="ordmasculine.lin" horiz-adv-x="784" 
d="M598 1202q0 104 -54 169t-142 65t-145 -68q-56 -68 -56 -174t53 -170t142 -64t146 69q56 69 56 173zM404 1538q144 0 230 -94q87 -94 87 -238t-92 -244q-91 -100 -235 -102q-144 0 -230 94t-86 238t91 245t235 101z" />
    <glyph glyph-name="degree.lin" horiz-adv-x="761" 
d="M207 1220q0 -88 47 -144t130 -56t133 58t50 148q0 89 -47 143t-131 54t-133 -57t-49 -146zM680 1230q0 -128 -84 -220t-215 -92t-209 84t-78 213t83 219t214 90t210 -83t79 -211z" />
    <glyph glyph-name="percent.lin" horiz-adv-x="1519" 
d="M1040 78q102 0 186 133q83 133 83 277t-115 145q-102 0 -184 -131q-82 -132 -82 -278t112 -146zM1200 743q109 1 169 -73t61 -187q0 -184 -121 -349t-275 -165q-109 0 -169 74t-60 188q-1 182 121 347t274 165zM244 -61l-101 53q164 203 269 342l596 776q201 266 249 336
q51 -29 107 -55q-47 -55 -193 -248l-763 -996q-141 -179 -164 -208zM324 760q104 0 187 132t83 278t-115 147q-100 0 -183 -133q-83 -132 -83 -278t111 -146zM485 1425q109 1 169 -73t61 -189q0 -182 -122 -347t-274 -165q-109 0 -169 74t-60 186q0 184 120 349t275 165z
" />
    <glyph glyph-name="quotedbl.lin" horiz-adv-x="663" 
d="M164 1036l-80 -18q25 276 27 493q37 4 170 23q-39 -215 -117 -498zM492 1044l-80 -18q25 287 24 494q33 4 170 22q-42 -238 -114 -498z" />
    <glyph glyph-name="quotesingle.lin" horiz-adv-x="333" 
d="M164 1036l-80 -18q25 276 27 493q37 4 170 23q-39 -215 -117 -498z" />
    <glyph glyph-name="plus.lin" horiz-adv-x="1136" 
d="M629 623v-56q0 -207 6 -311h-135q6 80 10 367h-49l-301 -5q4 57 4 123q150 -6 346 -6q-4 281 -10 359q53 0 135 8q-6 -111 -6 -322v-45q194 0 350 6q-8 -41 -12 -123l-305 5h-33z" />
    <glyph glyph-name="minus.lin" horiz-adv-x="1136" 
d="M518 621q-109 0 -317 -5q6 47 6 127q180 -6 357 -6t372 6q-4 -25 -10 -127q-221 4 -318 5h-90z" />
    <glyph glyph-name="divide.lin" horiz-adv-x="1136" 
d="M479 329q0 43 29 73t73 30q43 0 71 -30t28 -71q0 -42 -29 -73t-73 -31t-72 30q-27 30 -27 72zM680 1029q0 -42 -29 -73q-29 -30 -73 -30t-72 30q-27 30 -27 71q0 42 29 73q29 30 73 30q43 0 71 -30t28 -71zM512 621q-129 0 -346 -5q6 47 6 127q188 -6 407 -6t420 6
q-10 -55 -10 -127q-229 4 -346 5h-131z" />
    <glyph glyph-name="equal.lin" horiz-adv-x="1136" 
d="M566 561q214 0 392 6q-8 -39 -12 -127l-287 4h-196l-283 -4q6 43 6 127q166 -6 380 -6zM649 909q131 0 309 6q-8 -37 -12 -127l-287 5h-196l-283 -5q6 43 6 127q332 -6 463 -6z" />
    <glyph glyph-name="multiply.lin" horiz-adv-x="1136" 
d="M864 1073l84 -96q-246 -246 -297 -299q241 -246 307 -309q-51 -41 -94 -88q-100 111 -295 315q-260 -264 -305 -313q-29 39 -86 92l309 303q-174 174 -309 303q51 37 96 84l295 -305q135 137 295 313z" />
    <glyph glyph-name="less.lin" horiz-adv-x="1142" 
d="M805 213q-131 104 -553 422l-2 70q262 201 553 436l71 -103q-147 -106 -274 -207l-199 -157l211 -162q135 -109 267 -195z" />
    <glyph glyph-name="greater.lin" horiz-adv-x="1142" 
d="M338 1141q168 -131 553 -422l2 -70q-319 -244 -551 -436l-72 102q119 88 273 207l196 158l-207 162q-152 119 -266 194z" />
    <glyph glyph-name="plusminus.lin" horiz-adv-x="1136" 
d="M502 137q-68 0 -173 -1t-157 -1q6 43 6 123q250 -4 451 -4t332 4q-8 -61 -9 -123l-331 2h-119zM629 768v-27q0 -215 8 -303h-139q10 137 10 330h-35l-301 -4q6 43 6 127q115 -4 330 -8q0 176 -10 325q10 0 139 6q-8 -96 -8 -313v-18q238 4 336 8q-8 -39 -13 -127l-303 4
h-20z" />
    <glyph glyph-name="onehalf.alt" horiz-adv-x="1912" 
d="M512 623h-186q-109 0 -179 -2q0 66 -4 106q49 -4 138 -4h92q2 47 2 131v442l-213 -65l-21 102q35 8 240 74l82 25l26 -11q-2 -25 -2 -139v-559h64q108 0 149 4q-2 -18 -2 -106q-55 2 -186 2zM537 -27l-93 43q90 121 236 328l532 772q184 266 218 324q61 -29 96 -47
q-45 -57 -170 -238l-678 -981q-28 -45 -141 -201zM1476 811q132 0 204 -59q72 -60 73 -150q0 -90 -43 -156t-127 -146t-223 -198q47 0 416 7q-6 -104 -7 -111q-180 4 -283 4t-284 -4l-14 84q246 205 309 268q139 133 139 223q0 59 -42 95t-113 34q-110 0 -219 -94l-45 94
q127 109 259 109z" />
    <glyph glyph-name="onethird.alt" horiz-adv-x="1912" 
d="M512 623h-186q-109 0 -179 -2q0 66 -4 106q49 -4 138 -4h92q2 47 2 131v442l-213 -65l-21 102q35 8 240 74l82 25l26 -11q-2 -25 -2 -139v-559h64q108 0 149 4q-2 -18 -2 -106q-55 2 -186 2zM537 -27l-93 43q90 121 236 328l532 772q184 266 218 324q61 -29 96 -47
q-45 -57 -170 -238l-678 -981q-28 -45 -141 -201zM1440 86q100 0 162 35q61 35 61 92q0 133 -303 143l-14 76q303 49 303 172q0 43 -44 72q-43 29 -145 29t-205 -62l-34 92q133 74 265 74t207 -52t74 -134q0 -145 -239 -209q256 -39 256 -201q0 -101 -93 -165t-229 -64
t-231 32l-17 109q126 -39 226 -39z" />
    <glyph glyph-name="onequarter.alt" horiz-adv-x="1912" 
d="M1575 676l-303 -385q262 0 303 2v383zM512 623h-186q-109 0 -179 -2q0 66 -4 106q49 -4 138 -4h92q2 47 2 131v442l-213 -65l-21 102q35 8 240 74l82 25l26 -11q-2 -25 -2 -139v-559h64q108 0 149 4q-2 -18 -2 -106q-55 2 -186 2zM582 -27l-93 43q90 121 236 328l532 772
q184 266 218 324q61 -29 96 -47q-45 -57 -170 -238l-678 -981q-28 -45 -141 -201zM1571 172v31h-82q-238 0 -322 -4l-18 84l338 426q74 92 90 110l102 -8q-2 -25 -2 -143v-373q31 0 76 1t62 1q-10 -61 -11 -98l-127 4v-72q0 -102 2 -131h-112q4 37 4 172z" />
    <glyph glyph-name="onefifth.alt" horiz-adv-x="1912" 
d="M512 623h-186q-109 0 -179 -2q0 66 -4 106q49 -4 138 -4h92q2 47 2 131v442l-213 -65l-21 102q35 8 240 74l82 25l26 -11q-2 -25 -2 -139v-559h64q108 0 149 4q-2 -18 -2 -106q-55 2 -186 2zM545 -27l-92 43q90 121 235 328l533 772q184 266 217 324q61 -29 96 -47
q-45 -57 -170 -238l-678 -981q-28 -45 -141 -201zM1776 232q0 -112 -89 -180t-227 -69q-138 0 -231 31l-15 109q124 -37 224 -37t159 41t60 104q0 145 -268 146q-63 0 -123 -8l-13 10q0 36 7 127l6 133q2 45 2 139l14 15q268 -5 477 0q-14 -100 -14 -113q-76 2 -217 2h-152
l-10 -211l66 2q164 -1 254 -65t90 -176z" />
    <glyph glyph-name="onesixth.alt" horiz-adv-x="1912" 
d="M1683 252q0 76 -49 120t-130 44t-137 -49t-56 -122t51 -121t134 -48t135 50t52 126zM512 623h-186q-109 0 -179 -2q0 66 -4 106q49 -4 138 -4h92q2 47 2 131v442l-213 -65l-21 102q35 8 240 74l82 25l26 -11q-2 -25 -2 -139v-559h64q108 0 149 4q-2 -18 -2 -106
q-55 2 -186 2zM555 -27l-92 43q90 121 235 328l533 772q184 266 217 324q61 -29 96 -47q-45 -57 -170 -238l-678 -981q-28 -45 -141 -201zM1517 504q129 0 205 -71t76 -181t-86 -192q-86 -80 -222 -80t-217 85t-81 234q0 205 133 345t375 173l22 -100q-346 -51 -415 -311
q82 98 210 98z" />
    <glyph glyph-name="oneeighth.alt" horiz-adv-x="1912" 
d="M1337 602q0 -96 176 -147q158 43 158 143q0 53 -46 88t-121 35t-121 -35t-46 -84zM1683 207q0 102 -188 158q-182 -49 -182 -162q0 -57 52 -94t136 -37t133 38t49 97zM512 623h-186q-109 0 -179 -2q0 66 -4 106q49 -4 138 -4h92q2 47 2 131v442l-213 -65l-21 102
q35 8 240 74l82 25l26 -11q-2 -25 -2 -139v-559h64q108 0 149 4q-2 -18 -2 -106q-55 2 -186 2zM549 -27l-92 43q90 121 235 328l533 772q184 266 217 324q61 -29 96 -47q-45 -57 -170 -238l-678 -981q-28 -45 -141 -201zM1496 -20q-134 0 -216 60t-82 157q0 150 201 211
q-172 61 -172 190q0 92 80 154q79 62 199 61q120 0 197 -59q77 -60 79 -138t-42 -124t-132 -80q193 -72 192 -205q0 -99 -85 -163t-219 -64z" />
    <glyph glyph-name="one.sup_alt" 
d="M506 907h-187q-109 0 -178 -2q0 66 -4 107q49 -2 137 -2l93 -2q2 47 2 131v444l-213 -65l-21 100q45 12 133 40t107 34l82 24l26 -8q-2 -25 -2 -139v-561h64q67 0 149 4q-2 -18 -2 -107q-55 2 -186 2z" />
    <glyph glyph-name="one.inf_alt" 
d="M506 -418h-187q-109 0 -178 -2q0 66 -4 107q49 -2 137 -2h93q2 47 2 129v444l-213 -65l-21 100q45 12 133 40t107 34l82 24l26 -8q-2 -25 -2 -139v-561h64q67 0 149 4q-2 -18 -2 -107q-55 2 -186 2z" />
    <glyph glyph-name="zero.tab" horiz-adv-x="1146" 
d="M571 92q156 0 248 175t92 443t-90 435q-90 166 -246 166q-155 0 -247 -175q-92 -176 -92 -444t90 -434t245 -166zM581 1440q228 0 353 -202t125 -528t-133 -536q-134 -211 -362 -211t-352 202q-124 201 -124 527t132 537q133 211 361 211z" />
    <glyph glyph-name="one.tab" horiz-adv-x="1146" 
d="M694 0h-223q-121 0 -315 -6q0 25 -6 141q147 -6 247 -6h150q4 176 4 260v868l-365 -122l-28 129q64 18 208 67t183 62l129 43l20 -13q-6 -55 -6 -235v-1059h115q143 0 258 6q0 -92 -2 -141q-152 6 -369 6z" />
    <glyph glyph-name="two.tab" horiz-adv-x="1146" 
d="M562 2q-270 0 -460 -8l-22 100q345 321 477 458q132 136 177 204q108 160 108 280q0 121 -78 192t-213 70q-188 0 -373 -172l-55 123q211 185 421 185t328 -102t119 -275q0 -139 -75 -261t-244 -304q-178 -187 -371 -361q512 0 733 6q-8 -57 -14 -143q-188 8 -458 8z" />
    <glyph glyph-name="three.tab" horiz-adv-x="1146" 
d="M473 104q182 0 293 71t111 183q-1 135 -137 211t-392 82l-20 105q260 49 390 139t130 203q0 86 -80 144t-219 58q-199 0 -371 -120l-55 123q211 131 422 131t332 -92t121 -230q0 -137 -108 -232t-300 -145q216 -33 326 -126t110 -234q0 -178 -152 -292
q-152 -113 -372 -113t-385 59l-25 145q199 -70 381 -70z" />
    <glyph glyph-name="four.tab" horiz-adv-x="1146" 
d="M743 492v690l-518 -690h518zM743 328v45h-135q-336 0 -526 -8l-35 94l739 975l99 -11q-6 -59 -6 -260v-671q96 0 219 4q-12 -78 -15 -131l-204 6v-131q0 -170 6 -240h-150q8 96 8 328z" />
    <glyph glyph-name="five.tab" horiz-adv-x="1146" 
d="M479 102q178 0 291 84t113 221t-127 213t-365 76q-80 0 -201 -16l-20 12l23 459l2 229l24 23q299 -4 428 -4t357 6q-20 -96 -21 -148q-238 4 -375 5h-272l-19 -445l134 8q279 -1 429 -115t150 -307t-152 -313t-373 -120q-220 0 -376 57l-25 143q197 -68 375 -68z" />
    <glyph glyph-name="six.tab" horiz-adv-x="1146" 
d="M913 436q0 144 -91 234q-91 88 -231 88q-141 0 -235 -98t-94 -237t89 -235t233 -96t237 100q92 100 92 244zM1061 440q0 -196 -136 -336q-137 -140 -351 -141t-340 147t-125 402q0 358 210 613q211 255 596 325l33 -127q-297 -55 -473 -223t-223 -416q58 92 156 146
t217 55q184 0 310 -125q126 -124 126 -320z" />
    <glyph glyph-name="seven.tab" horiz-adv-x="1146" 
d="M560 1399q239 0 474 6l41 -68q-23 -37 -117 -231l-448 -848q-90 -162 -133 -270l-162 22q66 111 193 355l475 897h-427q-245 0 -376 -2q10 61 14 145q227 -6 466 -6z" />
    <glyph glyph-name="eight.tab" horiz-adv-x="1146" 
d="M293 1075q0 -182 301 -284q131 41 205 115q73 74 73 174q0 99 -81 167q-82 68 -209 68t-208 -69t-81 -171zM901 350q0 207 -328 320q-163 -53 -245 -130t-82 -192q0 -116 95 -188t239 -72t232 76q89 76 89 186zM96 338q0 272 346 387q-133 49 -214 137t-81 207
q0 155 126 263q125 108 315 108t311 -104t121 -253q0 -225 -299 -348q330 -135 330 -379q1 -170 -135 -282t-345 -111q-209 -1 -342 107t-133 268z" />
    <glyph glyph-name="nine.tab" horiz-adv-x="1146" 
d="M233 965q-1 -143 91 -231t232 -89q140 0 235 97q94 96 94 236t-89 235q-90 95 -234 95t-236 -100t-93 -243zM522 518q-184 0 -310 124t-126 320t136 335q136 141 350 141t340 -148t126 -401q0 -359 -210 -613t-597 -325l-32 127q295 55 472 224t224 419
q-57 -91 -155 -147t-218 -56z" />
    </font>
</defs>
</svg>
