<?xml version="1.0" standalone="no"?>
<!DOCTYPE svg PUBLIC "-//W3C//DTD SVG 1.1//EN" "http://www.w3.org/Graphics/SVG/1.1/DTD/svg11.dtd" >
<svg xmlns="http://www.w3.org/2000/svg">
<metadata>
Created by FontPrep 20130207 at Mon Aug 18 14:19:19 2014
 By Joe Blau
Copyright (C) 1990, 2011 Hoefler &#38; Frere-Jones. http://www.typography.com
</metadata>
<defs>
<font id="49f84357194c015b7533ec7c9dcf973a" horiz-adv-x='1024' >
  <font-face 
    font-family="IdealSans-Medium"
    font-weight="350"
    font-stretch="normal"
    units-per-em="2048"
    panose-1="0 0 0 0 0 0 0 0 0 0"
    ascent="1638"
    descent="-410"
    x-height="969"
    cap-height="1450"
    bbox="-344 -551 2535 2292"
    underline-thickness="102"
    underline-position="-102"
    unicode-range="U+0020-FB04"
  />
<missing-glyph horiz-adv-x="1024" 
d="M512 492l-367 -799h734zM922 1384l-353 -770l353 -770v1540zM102 -156l353 770l-353 770v-1540zM145 1536l367 -799l367 799h-734zM0 -410v2048h1024v-2048h-1024z" />
    <glyph glyph-name="f_f" unicode="ff" horiz-adv-x="1425" 
d="M1337 1276q-170 0 -170 -223v-86h248q-8 -59 -8 -191h-240v-577q0 -131 9 -199h-267q14 123 15 334v442h-179l50 191h129v69q0 209 97 330t275 121q56 -1 117 -17l17 -208q-41 14 -93 14zM625 1276q-170 0 -170 -223v-86h247q-8 -59 -8 -191h-239v-577q0 -131 8 -199
h-266q14 123 14 334v442h-178l49 191h129v69q0 209 97 330t276 121q55 -1 116 -17l17 -208q-41 14 -92 14z" />
    <glyph glyph-name="fi" unicode="fi" horiz-adv-x="1232" 
d="M625 1276q-170 0 -170 -223v-86h247q-8 -59 -8 -191h-239v-577q0 -131 8 -199h-266q14 123 14 334v442h-178l49 191h129v69q0 209 97 330t276 121q55 -1 116 -17l17 -208q-41 14 -92 14zM831 1303q1 61 45 105t107 44t107 -42t43 -102q0 -60 -44 -104q-45 -44 -109 -45
q-64 0 -107 42q-42 42 -42 102zM850 336v274q0 225 -14 348q125 0 268 15q-8 -72 -8 -219v-555q0 -127 8 -199h-268q14 123 14 336z" />
    <glyph glyph-name="fl" unicode="fl" horiz-adv-x="1232" 
d="M625 1276q-170 0 -170 -223v-86h247q-8 -59 -8 -191h-239v-577q0 -131 8 -199h-266q14 123 14 334v442h-178l49 191h129v69q0 209 97 330t276 121q55 -1 116 -17l17 -208q-41 14 -92 14zM850 338v782q0 211 -14 334q197 16 268 31q-8 -72 -8 -246v-1038q0 -129 8 -201
h-268q14 123 14 338z" />
    <glyph glyph-name="f_f_i" unicode="ffi" horiz-adv-x="1945" 
d="M1337 1276q-170 0 -170 -223v-86h248q-8 -59 -8 -191h-240v-577q0 -131 9 -199h-267q14 123 15 334v442h-179l50 191h129v69q0 209 97 330t275 121q56 -1 117 -17l17 -208q-41 14 -93 14zM625 1276q-170 0 -170 -223v-86h247q-8 -59 -8 -191h-239v-577q0 -131 8 -199
h-266q14 123 14 334v442h-178l49 191h129v69q0 209 97 330t276 121q55 -1 116 -17l17 -208q-41 14 -92 14zM1845 1308q0 -60 -44 -104t-108 -45q-64 0 -107 42q-42 42 -42 102q0 61 44 105t108 44t106 -42q43 -42 43 -102zM1563 610q0 225 -15 348q125 0 269 15
q-8 -72 -9 -219v-555q1 -127 9 -199h-269q14 123 15 336v274z" />
    <glyph glyph-name="f_f_l" unicode="ffl" horiz-adv-x="1945" 
d="M1337 1276q-170 0 -170 -223v-86h248q-8 -59 -8 -191h-240v-577q0 -131 9 -199h-267q14 123 15 334v442h-179l50 191h129v69q0 209 97 330t275 121q56 -1 117 -17l17 -208q-41 14 -93 14zM625 1276q-170 0 -170 -223v-86h247q-8 -59 -8 -191h-239v-577q0 -131 8 -199
h-266q14 123 14 334v442h-178l49 191h129v69q0 209 97 330t276 121q55 -1 116 -17l17 -208q-41 14 -92 14zM1563 1120q0 211 -15 334q197 16 269 31q-8 -72 -9 -246v-1038q1 -129 9 -201h-269q14 123 15 338v782z" />
    <glyph glyph-name="f_f_b" unicode="ffb" horiz-adv-x="2586" 
d="M1337 1276q-170 0 -170 -223v-86h248q-8 -59 -8 -191h-240v-577q0 -131 9 -199h-267q14 123 15 334v442h-179l50 191h129v69q0 209 97 330t275 121q56 -1 117 -17l17 -208q-41 14 -93 14zM625 1276q-170 0 -170 -223v-86h247q-8 -59 -8 -191h-239v-577q0 -131 8 -199
h-266q14 123 14 334v442h-178l49 191h129v69q0 209 97 330t276 121q55 -1 116 -17l17 -208q-41 14 -92 14zM1999 158q115 0 193 98t77 237q0 139 -64 221q-65 81 -185 81t-212 -103v-483q76 -51 191 -51zM2513 503q-1 -218 -147 -379t-361 -161q-133 0 -246 74l-166 -68
l-45 15q14 156 15 356v782q0 211 -15 334q125 6 269 31q-8 -72 -9 -246v-369q135 117 305 117t285 -134t115 -352z" />
    <glyph glyph-name="f_f_h" unicode="ffh" horiz-adv-x="2584" 
d="M1337 1276q-170 0 -170 -223v-86h248q-8 -59 -8 -191h-240v-577q0 -131 9 -199h-267q14 123 15 334v442h-179l50 191h129v69q0 209 97 330t275 121q56 -1 117 -17l17 -208q-41 14 -93 14zM625 1276q-170 0 -170 -223v-86h247q-8 -59 -8 -191h-239v-577q0 -131 8 -199
h-266q14 123 14 334v442h-178l49 191h129v69q0 209 97 330t276 121q55 -1 116 -17l17 -208q-41 14 -92 14zM2204 586q0 201 -148 200q-94 0 -170 -72t-78 -161v-352q0 -129 9 -201h-267q12 131 13 338v782q0 203 -13 334q197 16 267 31q-8 -72 -9 -246v-459q56 96 152 152
t190 57q150 0 225 -90t74 -254v-434q1 -105 9 -211h-269q14 123 15 348v238z" />
    <glyph glyph-name="f_f_j" unicode="ffj" horiz-adv-x="1949" 
d="M1337 1276q-170 0 -170 -223v-86h248q-8 -59 -8 -191h-240v-577q0 -131 9 -199h-267q14 123 15 334v442h-179l50 191h129v69q0 209 97 330t275 121q56 -1 117 -17l17 -208q-41 14 -93 14zM625 1276q-170 0 -170 -223v-86h247q-8 -59 -8 -191h-239v-577q0 -131 8 -199
h-266q14 123 14 334v442h-178l49 191h129v69q0 209 97 330t276 121q55 -1 116 -17l17 -208q-41 14 -92 14zM1847 1308q0 -60 -44 -104t-108 -45q-64 0 -107 42q-42 42 -42 102q0 61 44 105t108 44t106 -42q43 -42 43 -102zM1812 -41q0 -213 -89 -312t-236 -100
q-43 0 -109 17l-28 207q53 -8 75 -9q72 0 107 41t35 138v669q0 225 -15 348q126 1 269 15q-8 -72 -9 -219v-795z" />
    <glyph glyph-name="f_f_k" unicode="ffk" horiz-adv-x="2449" 
d="M625 1276q-170 0 -170 -223v-86h247q-8 -59 -8 -191h-239v-577q0 -131 8 -199h-266q14 123 14 334v442h-178l49 191h129v69q0 209 97 330t276 121q55 -1 116 -17l17 -208q-41 14 -92 14zM1337 1276q-170 0 -170 -223v-86h248q-8 -59 -8 -191h-240v-577q0 -131 9 -199
h-267q14 123 15 334v442h-179l50 191h129v69q0 209 97 330t275 121q56 -1 117 -17l17 -208q-41 14 -93 14zM1808 201q0 -133 9 -201h-269q14 123 15 338v782q0 211 -15 334q197 16 269 31q-8 -72 -9 -248v-690q174 219 326 424q182 0 289 8l-387 -459l88 -106
q45 -51 167 -203t163 -195l-267 -41l-379 482v-256z" />
    <glyph glyph-name="f_b" unicode="fb" horiz-adv-x="1871" 
d="M625 1276q-170 0 -170 -223v-86h247q-8 -59 -8 -191h-239v-577q0 -131 8 -199h-266q14 123 14 334v442h-178l49 191h129v69q0 209 97 330t276 121q55 -1 116 -17l17 -208q-41 14 -92 14zM1556 493q0 139 -64 221q-64 81 -184 81t-212 -103v-483q76 -51 190 -51t193 98
q77 98 77 237zM1401 989q171 0 285 -134t114 -352t-146 -379t-362 -161q-133 0 -245 74l-166 -68l-45 15q14 156 14 356v782q0 211 -14 334q127 6 268 31q-8 -72 -8 -246v-369q135 117 305 117z" />
    <glyph glyph-name="f_h" unicode="fh" horiz-adv-x="1869" 
d="M625 1276q-170 0 -170 -223v-86h247q-8 -59 -8 -191h-239v-577q0 -131 8 -199h-266q14 123 14 334v442h-178l49 191h129v69q0 209 97 330t276 121q55 -1 116 -17l17 -208q-41 14 -92 14zM1491 348v238q0 201 -148 200q-93 0 -169 -72t-78 -161v-352q0 -129 8 -201h-266
q12 131 12 338v782q0 203 -12 334q197 16 266 31q-8 -72 -8 -246v-459q57 96 152 152t190 57q150 0 224 -90t75 -254v-434q0 -105 8 -211h-268q14 123 14 348z" />
    <glyph glyph-name="f_j" unicode="fj" horiz-adv-x="1236" 
d="M625 1276q-170 0 -170 -223v-86h247q-8 -59 -8 -191h-239v-577q0 -131 8 -199h-266q14 123 14 334v442h-178l49 191h129v69q0 209 97 330t276 121q55 -1 116 -17l17 -208q-41 14 -92 14zM834 1303q0 61 44 105t107 44t107 -42t43 -102q0 -60 -44 -104q-45 -44 -109 -45
q-64 0 -106 42t-42 102zM1100 754v-795q0 -213 -89 -312t-237 -100q-43 0 -108 17l-29 207q53 -8 76 -9q73 0 107 41t34 138v669q0 225 -14 348q125 1 268 15q-8 -72 -8 -219z" />
    <glyph glyph-name="f_k" unicode="fk" horiz-adv-x="1736" 
d="M625 1276q-170 0 -170 -223v-86h247q-8 -59 -8 -191h-239v-577q0 -131 8 -199h-266q14 123 14 334v442h-178l49 191h129v69q0 209 97 330t276 121q55 -1 116 -17l17 -208q-41 14 -92 14zM1096 201q0 -133 8 -201h-268q14 123 14 338v782q0 211 -14 334q197 16 268 31
q-8 -72 -8 -248v-690q174 219 325 424q182 0 289 8l-387 -459l88 -106q45 -51 167 -203t163 -195l-266 -41l-379 482v-256z" />
    <glyph glyph-name=".notdef" horiz-adv-x="1024" 
d="M512 492l-367 -799h734zM922 1384l-353 -770l353 -770v1540zM102 -156l353 770l-353 770v-1540zM145 1536l367 -799l367 799h-734zM0 -410v2048h1024v-2048h-1024z" />
    <glyph glyph-name=".null" horiz-adv-x="0" 
 />
    <glyph glyph-name="nonmarkingreturn" horiz-adv-x="681" 
 />
    <glyph glyph-name="space" unicode=" " horiz-adv-x="434" 
 />
    <glyph glyph-name="exclam" unicode="!" horiz-adv-x="540" 
d="M272 262q66 0 108 -42t42 -104t-44 -108q-44 -45 -110 -45t-106 42q-40 41 -41 105q0 64 43 108t108 44zM420 1470q-12 -117 -17 -206l-34 -623q-8 -164 -9 -190l-180 -11q0 29 -12 324l-16 407q-6 135 -23 281q20 2 93 5q73 4 198 13z" />
    <glyph glyph-name="quotedbl" unicode="&#x22;" horiz-adv-x="772" 
d="M573 926l-118 -25q18 311 16 557l248 27q-68 -321 -146 -559zM201 915l-119 -24q18 311 16 555q215 25 250 29q-61 -298 -147 -560z" />
    <glyph glyph-name="numbersign" unicode="#" horiz-adv-x="1454" 
d="M594 827l-41 -313h297l41 311zM1317 328l-301 2v-2q-31 -264 -33 -328h-213q29 113 55 330l-295 2v-4q-31 -264 -32 -328h-213q25 100 57 334q-174 0 -303 -6q20 102 31 190q94 -4 295 -4l41 315q-170 0 -306 -6q20 92 31 189q94 -4 297 -4q25 190 29 340q111 0 213 10
q-27 -125 -52 -336l-2 -14h297q25 229 29 340q111 0 213 10q-9 -43 -53 -350q219 0 313 4q-20 -76 -37 -189l-299 2l-41 -311q221 0 316 4q-23 -84 -37 -190z" />
    <glyph glyph-name="dollar" unicode="$" horiz-adv-x="1095" 
d="M334 997q0 -104 172 -176q18 238 31 353q-95 -6 -149 -56t-54 -121zM795 375q0 100 -166 172l-33 -381q94 12 146 68t53 141zM1016 391q0 -178 -116 -294t-316 -130l-11 -215h-176q14 86 27 221q-193 23 -356 113l14 238q166 -119 367 -152q27 270 38 430
q-215 79 -295 166q-79 86 -77 209q-1 161 117 271t315 122q8 152 12 199q113 0 168 6q-10 -82 -20 -213q147 -20 274 -96l-59 -203q-102 68 -238 98l-35 -393q157 -59 232 -115q75 -55 105 -117t30 -145z" />
    <glyph glyph-name="percent" unicode="%" horiz-adv-x="1513" 
d="M283 -66l-140 76q135 164 263 330l573 750q184 240 244 325q14 -8 69 -42t68 -40q-72 -88 -184 -237l-738 -961q-13 -13 -155 -201zM1272 466q0 114 -78 114t-142 -114t-65 -228q0 -114 76 -113q77 -1 143 113t66 228zM1446 465q0 -182 -119 -338t-274 -156
q-115 0 -180 75t-64 194q0 180 121 336t274 155q114 1 178 -73t64 -193zM322 772q78 0 143 114t65 229q0 114 -78 114t-143 -115q-65 -114 -65 -228t78 -114zM705 1112q0 -182 -119 -338t-275 -156q-115 0 -179 75t-64 194q0 180 119 337q120 157 276 156q115 0 179 -74
t63 -194z" />
    <glyph glyph-name="ampersand" unicode="&#x26;" horiz-adv-x="1464" 
d="M844 1075q0 63 -37 101t-97 38t-104 -46t-45 -130q0 -84 80 -188q203 92 203 225zM569 176q143 0 293 123q-211 180 -321 322q-207 -90 -207 -242q0 -87 62 -145t173 -58zM537 -37q-189 1 -319 107t-130 290q0 268 338 414q-98 145 -98 270q0 158 113 256q114 98 278 98
t256 -95q92 -97 92 -215t-70 -208t-237 -171q111 -137 260 -269q102 102 219 256l158 -137q-133 -158 -226 -250q178 -147 244 -196l-153 -168q-160 143 -248 219q-244 -201 -477 -201z" />
    <glyph glyph-name="quotesingle" unicode="'" horiz-adv-x="401" 
d="M201 915l-119 -24q18 311 16 555q215 25 250 29q-61 -298 -147 -560z" />
    <glyph glyph-name="parenleft" unicode="(" horiz-adv-x="845" 
d="M137 498q0 316 170 577q170 262 443 414l94 -133q-207 -135 -340 -349t-133 -504t133 -503t340 -348l-94 -133q-270 150 -442 406q-171 257 -171 573z" />
    <glyph glyph-name="parenright" unicode=")" horiz-adv-x="845" 
d="M475 504q0 289 -134 502t-341 350l96 133q270 -150 442 -407t171 -572q0 -315 -170 -578q-171 -261 -443 -413l-94 133q207 135 340 349t133 503z" />
    <glyph glyph-name="asterisk" unicode="*" horiz-adv-x="778" 
d="M737 1268q2 -20 5 -82t8 -94q-123 4 -261 2q63 -133 121 -236q-43 -14 -166 -63q-25 123 -69 264q-115 -100 -199 -191q-59 80 -113 138q207 125 234 141q-84 53 -227 127q29 39 96 149q113 -104 199 -174q25 102 49 260q125 -33 176 -43q-47 -92 -103 -245
q123 14 250 47z" />
    <glyph glyph-name="plus" unicode="+" horiz-adv-x="1163" 
d="M674 477v-55q0 -236 8 -309h-207q10 92 14 364h-51l-291 -4q6 68 7 189q96 -4 335 -9q-4 268 -14 359q43 0 207 10q-8 -76 -8 -315v-54q270 7 342 9q-8 -72 -12 -189l-297 4h-33z" />
    <glyph glyph-name="comma" unicode="," horiz-adv-x="503" 
d="M227 -57q0 84 -110 141l-39 22q20 82 68 124t115 42t119 -58t52 -155q0 -244 -344 -467l-65 99l16 12q98 63 143 119t45 121z" />
    <glyph glyph-name="hyphen" unicode="-" horiz-adv-x="870" 
d="M514 485h-170q-86 0 -221 -4q6 68 6 185q147 -6 311 -6t312 6q-10 -82 -11 -185q-160 4 -227 4z" />
    <glyph glyph-name="period" unicode="." horiz-adv-x="501" 
d="M401 118q0 -64 -44 -110q-43 -45 -109 -45t-107 42t-41 108q0 65 43 109t109 44t107 -42q42 -42 42 -106z" />
    <glyph glyph-name="slash" unicode="/" horiz-adv-x="710" 
d="M715 1511q-6 -20 -29 -94t-42 -137t-28 -92l-385 -1374l-81 -301l-201 -17q49 162 137 477l309 1104q78 272 113 424q78 -4 207 10z" />
    <glyph glyph-name="zero" unicode="0" horiz-adv-x="1214" 
d="M881 517q0 161 -72 255t-198 94q-125 0 -199 -100t-74 -259t73 -253t197 -94t199 98q74 98 74 259zM92 502q0 233 146 397t380 164q234 1 370 -151t136 -386t-145 -400q-145 -165 -379 -165t-372 154q-136 154 -136 387z" />
    <glyph glyph-name="one" unicode="1" horiz-adv-x="743" 
d="M303 350v453l-213 -51l-31 200q287 72 316 80l121 33l59 -23q-6 -55 -6 -221v-612q0 -141 6 -209h-264q12 88 12 350z" />
    <glyph glyph-name="two" unicode="2" horiz-adv-x="1013" 
d="M509 0q-230 0 -405 -8l-30 166q336 246 450 356t113 189q0 157 -176 157q-141 0 -283 -110l-57 194q179 121 361 121t290 -88t109 -232q0 -174 -187 -339q-104 -96 -262 -207q226 0 496 12q-12 -100 -15 -219q-174 8 -404 8z" />
    <glyph glyph-name="three" unicode="3" horiz-adv-x="985" 
d="M879 72q1 -176 -145 -287t-376 -111q-139 0 -274 37l-29 203q143 -39 277 -39t217 51q84 52 84 148q1 96 -103 152t-286 48l-27 156q211 66 302 130t91 141t-49 119t-139 42q-152 0 -281 -98l-61 184q180 117 366 117t296 -89q112 -89 112 -221t-76 -215t-223 -145
q145 -25 235 -107q89 -83 89 -216z" />
    <glyph glyph-name="four" unicode="4" horiz-adv-x="1124" 
d="M287 256h356l4 475zM639 -10v82h-111q-305 0 -467 -9l-32 166l501 652q35 45 140 188l211 -18q-6 -86 -7 -228v-563q115 0 218 4q-14 -98 -17 -201l-201 7v-160q0 -160 7 -227h-252q10 82 10 307z" />
    <glyph glyph-name="five" unicode="5" horiz-adv-x="1005" 
d="M668 111q0 102 -69 152t-180 50t-253 -26l-43 26q6 106 10 234l8 254q4 162 0 215l29 26q226 -6 360 -6t365 6q-18 -90 -23 -221q-217 4 -315 4h-190l-11 -323q66 8 97 8q227 0 345 -98t117 -275q0 -217 -173 -340t-447 -123q-115 1 -193 21l-28 203q102 -18 188 -19
q178 0 292 65t114 167z" />
    <glyph glyph-name="six" unicode="6" horiz-adv-x="1144" 
d="M811 425q-1 121 -63 187t-175 66t-229 -84q-4 -29 -4 -82q0 -176 66 -265t176 -89t170 73q59 74 59 194zM670 854q174 0 280 -122t106 -308t-133 -324q-133 -137 -351 -137t-348 151t-130 379q0 470 373 726q195 133 471 165l39 -202q-504 -74 -612 -441q131 113 305 113
z" />
    <glyph glyph-name="seven" unicode="7" horiz-adv-x="1026" 
d="M426 821q-240 0 -363 -2q14 186 15 223q240 -6 434 -6t418 6l39 -116q-31 -49 -115 -236l-365 -774q-92 -193 -114 -262l-225 94q78 131 169 330l349 743h-242z" />
    <glyph glyph-name="eight" unicode="8" horiz-adv-x="1097" 
d="M367 1010q0 -141 208 -224q83 32 131 94t48 140t-54 130t-141 52q-86 0 -139 -54t-53 -138zM770 352q0 156 -227 256q-217 -94 -217 -260q0 -90 68 -145t164 -55t154 58t58 146zM86 336q0 123 72 214t192 138q-94 47 -154 129t-61 191q0 160 124 268t306 108t301 -106
t119 -254q0 -201 -219 -322q246 -125 246 -329q0 -178 -131 -294t-335 -116q-204 1 -332 107t-128 266z" />
    <glyph glyph-name="nine" unicode="9" horiz-adv-x="1146" 
d="M336 606q0 -116 63 -184t179 -68t219 54q4 70 4 110q0 352 -236 352q-102 0 -166 -73q-63 -74 -63 -191zM475 174q-157 0 -271 121t-114 311t135 324q135 135 352 135t343 -145t127 -398q0 -692 -793 -868l-74 192q248 52 393 152t199 258q-139 -82 -297 -82z" />
    <glyph glyph-name="colon" unicode=":" horiz-adv-x="509" 
d="M406 728q0 -64 -44 -110q-44 -45 -110 -45t-107 42t-41 108t43 111t109 45t108 -43q42 -44 42 -108zM104 113q0 65 43 109t109 44t108 -42t42 -106t-44 -110q-44 -45 -110 -45t-107 42t-41 108z" />
    <glyph glyph-name="semicolon" unicode=";" horiz-adv-x="512" 
d="M233 -57q0 84 -112 141l-39 22q20 82 68 124t116 42q66 0 118 -58t52 -155q0 -244 -344 -467l-65 99l16 12q98 66 144 121t46 119zM408 728q0 -64 -43 -110q-43 -45 -109 -45t-106 43q-41 43 -41 108t43 110t107 45t107 -43q42 -44 42 -108z" />
    <glyph glyph-name="less" unicode="&#x3c;" horiz-adv-x="1167" 
d="M815 59q-315 250 -582 451l-4 90q35 27 584 471l111 -149q-168 -123 -273 -209l-188 -152l199 -155q176 -137 266 -195z" />
    <glyph glyph-name="equal" unicode="=" horiz-adv-x="1163" 
d="M584 832q168 0 413 8q-8 -63 -12 -185l-289 4h-241l-287 -4q6 66 6 185q242 -8 410 -8zM584 465q168 0 413 8q-8 -66 -12 -184l-289 4h-241l-287 -4q6 66 6 184q242 -8 410 -8z" />
    <glyph glyph-name="greater" unicode="&#x3e;" horiz-adv-x="1167" 
d="M352 1071q504 -391 582 -450l4 -91q-25 -18 -584 -471l-110 150q82 61 272 209l186 153l-196 154q-176 137 -266 195z" />
    <glyph glyph-name="question" unicode="?" horiz-adv-x="950" 
d="M256 115q0 65 44 109t112 44t110 -42t43 -106q0 -64 -45 -111q-46 -46 -112 -46t-109 43t-43 109zM891 1153q0 -88 -51 -154q-51 -65 -125 -103t-148 -69q-176 -74 -176 -147q0 -94 129 -94q78 0 146 24l32 -180q-98 -27 -204 -27q-156 0 -247 74t-91 199q0 82 50 144
t122 100t144 68q172 73 173 155q0 61 -49 95t-139 34q-188 0 -344 -113l-17 219q63 43 172 72t203 29q195 0 307 -88t113 -238z" />
    <glyph glyph-name="at" unicode="@" horiz-adv-x="1783" 
d="M948 778q-94 0 -170 -110t-76 -254t91 -144q69 0 147 102t100 249l19 120q-39 37 -111 37zM971 1206q-293 0 -501 -220t-208 -518t174 -464t451 -166q133 0 274 38t242 101l43 -106q-262 -156 -582 -156t-529 211q-208 211 -208 508q0 201 76 372q145 325 480 460
q157 63 319 63t292 -53t213 -141q170 -182 170 -427t-141 -422t-354 -177q-111 1 -152 73t-12 183q-56 -117 -146 -187t-163 -69q-100 0 -153 76q-52 77 -52 200q0 197 134 371t310 174q123 0 172 -53l131 63l29 -14l-88 -549q-33 -139 55 -139q109 0 202 122t93 320
q0 200 -128 356q-66 78 -180 124t-263 46z" />
    <glyph glyph-name="A" unicode="A" horiz-adv-x="1476" 
d="M725 1057l-211 -500h422zM10 0l473 1049q119 264 174 405l131 16l480 -1052q141 -305 198 -418l-284 -16l-166 383h-580l-71 -178q-53 -134 -76 -189h-279z" />
    <glyph glyph-name="B" unicode="B" horiz-adv-x="1298" 
d="M594 840q139 0 216 54t77 150t-73 148t-210 51q-41 0 -151 -6q-2 -33 -2 -109v-182q0 -79 2 -102q70 -4 141 -4zM641 207q305 0 305 227q0 100 -86 160t-256 59q-109 0 -153 -6v-332q0 -61 2 -98q92 -10 188 -10zM1143 1079q-1 -109 -63 -189t-165 -120q145 -43 219 -134
t74 -216q0 -180 -142 -300t-400 -120h-482q14 137 15 494v452q0 356 -15 494l443 10q258 0 387 -112t129 -259z" />
    <glyph glyph-name="C" unicode="C" horiz-adv-x="1388" 
d="M827 -37q-317 0 -523 210t-206 509q0 338 218 565t550 228q252 0 430 -125l-59 -230q-162 131 -376 131q-214 1 -355 -149t-141 -390t138 -381q139 -143 367 -143t437 193l-13 -266q-211 -152 -467 -152z" />
    <glyph glyph-name="D" unicode="D" horiz-adv-x="1505" 
d="M1143 737q0 231 -137 365t-388 135q-82 0 -155 -6q-2 -35 -2 -119v-782q0 -70 2 -107q88 -10 162 -10q262 1 390 147t128 377zM1405 742q0 -322 -208 -532t-548 -210h-465q14 137 15 494v452q0 356 -15 494l424 10q379 0 588 -192q209 -194 209 -516z" />
    <glyph glyph-name="E" unicode="E" horiz-adv-x="1142" 
d="M626 2q-280 0 -442 -10q14 137 15 502v452q0 369 -15 506q215 -10 428 -10t428 10q-12 -92 -16 -221q-232 4 -368 4t-195 -2q-2 -35 -2 -115v-266l485 4q-6 -88 -6 -209l-479 4v-323q0 -82 2 -117l188 -2q229 0 432 6q-10 -94 -14 -223q-161 10 -441 10z" />
    <glyph glyph-name="F" unicode="F" horiz-adv-x="1103" 
d="M656 1233q-134 0 -193 -2q-2 -37 -2 -119v-281l467 3q-6 -92 -6 -209l-461 4v-334q0 -238 8 -295h-285q14 137 15 494v452q0 369 -15 506q215 -10 429 -10t425 10q-12 -102 -14 -223q-234 4 -368 4z" />
    <glyph glyph-name="G" unicode="G" horiz-adv-x="1513" 
d="M832 -35q-310 0 -522 210q-212 211 -212 531t226 544t563 225q125 0 254 -38t215 -96l-70 -223q-72 57 -186 93t-226 36q-231 0 -372 -148q-142 -148 -142 -388t148 -382t364 -143q147 0 261 54v217q0 86 -5 121q-62 2 -136 2t-224 -7q6 143 2 215q186 -6 316 -6t303 9
q-14 -113 -15 -498v-178q-232 -150 -542 -150z" />
    <glyph glyph-name="H" unicode="H" horiz-adv-x="1605" 
d="M1145 641h-684v-346q0 -219 8 -295h-285q14 137 15 494v452q0 356 -15 494q201 0 285 10q-8 -80 -8 -303v-299h684v98q0 362 -17 494q203 0 285 10q-6 -90 -6 -303v-852q0 -209 6 -295h-285q16 131 17 485v156z" />
    <glyph glyph-name="I" unicode="I" horiz-adv-x="671" 
d="M205 946q0 356 -15 494q201 0 285 10q-8 -80 -8 -303v-852q0 -219 8 -295h-285q14 137 15 494v452z" />
    <glyph glyph-name="J" unicode="J" horiz-adv-x="913" 
d="M469 946q0 356 -14 494q201 0 284 10q-8 -80 -8 -303v-711q0 -248 -93 -360t-314 -113q-150 0 -289 57l14 232q133 -59 244 -59q176 0 176 210v543z" />
    <glyph glyph-name="K" unicode="K" horiz-adv-x="1380" 
d="M461 295q0 -219 8 -295h-285q14 137 15 494v452q0 356 -15 494q201 0 285 10q-8 -80 -8 -303v-367l241 281q4 4 326 383h320l-631 -690l315 -363q111 -127 344 -389l-313 -20l-602 706v-393z" />
    <glyph glyph-name="L" unicode="L" horiz-adv-x="1112" 
d="M624 2q-278 0 -440 -10q14 137 15 502v452q0 356 -15 494q201 0 285 10q-8 -80 -8 -303v-809q0 -84 4 -121q55 -2 199 -2t413 4q-14 -121 -16 -227q-159 10 -437 10z" />
    <glyph glyph-name="M" unicode="M" horiz-adv-x="1843" 
d="M102 0q37 162 82 494l62 454q47 334 59 508l127 14q74 -172 137 -301l357 -772l352 774l131 297h123q2 -12 65 -518l64 -456q39 -281 84 -494l-268 -16q-4 121 -33 311l-78 584q-336 -739 -401 -897l-99 -13q-102 244 -399 905l-74 -579q-25 -197 -28 -295h-263z" />
    <glyph glyph-name="N" unicode="N" horiz-adv-x="1615" 
d="M1178 946q0 362 -17 494q195 0 283 10q-10 -76 -17 -303l-8 -862q-6 -229 4 -301l-123 -17l-860 1006v-678q0 -219 9 -295h-279q16 137 23 494l6 483q4 319 -9 477l123 16l865 -1017v493z" />
    <glyph glyph-name="O" unicode="O" horiz-adv-x="1644" 
d="M812 -37q-318 0 -516 209t-198 510q0 340 208 566t526 226t517 -208q198 -209 197 -510q0 -340 -208 -566t-526 -227zM360 708q0 -238 128 -384q128 -148 332 -148t334 158t130 394t-129 385t-332 149t-333 -158t-130 -396z" />
    <glyph glyph-name="P" unicode="P" horiz-adv-x="1212" 
d="M909 975q0 260 -313 260q-82 0 -137 -4v-520q49 -6 100 -6q166 1 258 71t92 199zM461 295q0 -209 6 -295h-285q14 137 15 494v452q0 356 -15 494l428 10q268 0 414 -124t145 -332q0 -208 -152 -350q-153 -140 -462 -140l-94 2v-211z" />
    <glyph glyph-name="Q" unicode="Q" horiz-adv-x="1650" 
d="M360 708q0 -238 128 -384q128 -148 332 -148t334 158t130 394t-129 385t-332 149t-333 -158t-130 -396zM1722 -111l-161 -194l-807 270q-291 18 -473 223t-183 494q0 340 208 566t526 226t517 -208q198 -209 197 -510q0 -240 -108 -430t-297 -285l245 -72
q199 -55 336 -80z" />
    <glyph glyph-name="R" unicode="R" horiz-adv-x="1335" 
d="M457 735h186q125 0 200 72t75 180q0 250 -302 250q-86 0 -159 -6v-496zM459 537v-242q0 -209 6 -295h-283q14 137 15 494v452q0 356 -15 494l410 10q278 2 434 -119t152 -307q-6 -285 -293 -422l221 -321q96 -140 194 -269l-301 -28l-344 553h-196z" />
    <glyph glyph-name="S" unicode="S" horiz-adv-x="1103" 
d="M1012 410q0 -197 -135 -322t-359 -125q-104 0 -223 35t-203 86l12 256q72 -60 192 -108t228 -48t170 52t64 136q0 83 -64 141t-153 105q-89 48 -181 102t-155 138t-64 191q0 186 131 306t339 120t360 -107l-66 -215q-141 100 -293 100q-96 0 -155 -50q-59 -51 -59 -123
t62 -128q64 -56 154 -100q90 -45 180 -99t154 -142t64 -201z" />
    <glyph glyph-name="T" unicode="T" horiz-adv-x="1333" 
d="M795 1094v-799q0 -219 8 -295h-285q14 137 14 494v403q0 217 -4 328q-168 0 -471 -4q8 90 9 231q312 -10 600 -10t610 10q-12 -94 -16 -231q-303 4 -463 4q-2 -43 -2 -131z" />
    <glyph glyph-name="U" unicode="U" horiz-adv-x="1564" 
d="M1386 608q0 -172 -40 -282t-125 -193q-169 -170 -447 -170q-278 1 -437 145t-159 396v442q0 356 -14 494q201 0 285 10q-8 -80 -9 -303v-576q0 -385 351 -385q161 0 247 92t86 254v414q0 362 -16 494q203 0 289 10q-10 -74 -11 -303v-539z" />
    <glyph glyph-name="V" unicode="V" horiz-adv-x="1396" 
d="M10 1436l285 16l416 -1042l256 661q100 270 135 367h284l-448 -1049q-115 -262 -162 -407l-131 -15l-450 1051q-83 197 -185 418z" />
    <glyph glyph-name="W" unicode="W" horiz-adv-x="2068" 
d="M2058 1438l-385 -1049q-96 -266 -143 -407l-125 -15l-369 1008l-223 -613q-19 -49 -69 -180t-78 -213h-127l-375 1049q-92 266 -154 418l281 16l332 -1018l229 651q10 35 36 107t55 156q30 84 38 104l123 16l362 -1032l314 1002h278z" />
    <glyph glyph-name="X" unicode="X" horiz-adv-x="1474" 
d="M362 0h-305l523 723l-209 299q-237 333 -295 418l297 16l368 -551l115 178q37 57 122 183t120 178h301l-506 -705l215 -305q2 -4 125 -181t178 -253l-297 -16l-381 573l-121 -186q-33 -49 -122 -181t-128 -190z" />
    <glyph glyph-name="Y" unicode="Y" horiz-adv-x="1325" 
d="M795 295q0 -209 6 -295h-283q14 137 14 494v118l-215 338q-163 265 -313 490l289 16l375 -620l112 178q55 86 258 430h295l-538 -823v-326z" />
    <glyph glyph-name="Z" unicode="Z" horiz-adv-x="1320" 
d="M666 2q-396 0 -580 -10l-33 92l828 1149q-71 2 -265 2t-485 -4q12 113 14 221q321 -10 593 -10t497 10l33 -90l-828 -1151l260 -2q336 0 531 6q-16 -109 -17 -223q-152 10 -548 10z" />
    <glyph glyph-name="bracketleft" unicode="[" horiz-adv-x="796" 
d="M494 -467q-182 0 -295 -8l-25 14q12 119 12 410v1116q0 279 -12 399l27 29q139 -10 293 -10t280 8q-6 -72 -10 -191q-282 7 -356 3v-1328q0 -197 8 -262l123 -2q73 0 245 4q-14 -125 -16 -190q-92 8 -274 8z" />
    <glyph glyph-name="backslash" unicode="\" horiz-adv-x="675" 
d="M526 -504q-37 156 -92 348l-377 1340q-66 221 -96 317q119 0 205 10q23 -113 110 -430l324 -1138q104 -369 123 -430z" />
    <glyph glyph-name="bracketright" unicode="]" horiz-adv-x="796" 
d="M304 1485q182 0 294 8l25 -14q-12 -119 -13 -410v-1118q0 -279 13 -400l-27 -28q-140 10 -294 10t-279 -8q6 70 10 190q167 -4 241 -4t115 2v1323q0 201 -8 267l-123 2q-74 -1 -246 -5q14 94 17 193q93 -8 275 -8z" />
    <glyph glyph-name="asciicircum" unicode="^" horiz-adv-x="1179" 
d="M700 1079l-116 144l-117 -152q-8 -12 -76 -100t-104 -144l-154 119q260 328 408 524l82 7q51 -66 428 -531l-156 -117q-129 168 -195 250z" />
    <glyph glyph-name="underscore" unicode="_" horiz-adv-x="1376" 
d="M891 0h-408q-176 0 -417 -4q6 68 6 186q226 -6 622 -6t621 6q-10 -86 -10 -186q-258 4 -414 4z" />
    <glyph glyph-name="grave" unicode="`" horiz-adv-x="669" 
d="M76 1413l295 19l178 -316l-168 -10z" />
    <glyph glyph-name="a" unicode="a" horiz-adv-x="1030" 
d="M293 272q1 -59 35 -95t112 -36q78 1 134 57t61 148l4 92q-53 4 -76 4q-270 0 -270 -170zM360 -27q-137 0 -218 75q-81 74 -81 212t129 224t371 87q27 0 80 -4l2 29q4 96 -41 142t-143 46q-152 0 -279 -90l-43 195q170 100 365 100t289 -99t90 -280l-11 -383
q-2 -80 58 -80q27 0 73 15l-18 -156q-81 -31 -147 -31t-116 40t-63 120q-43 -74 -123 -118t-174 -44z" />
    <glyph glyph-name="b" unicode="b" horiz-adv-x="1159" 
d="M844 493q0 139 -65 221t-185 81q-120 0 -211 -103v-483q77 -51 191 -51t192 98t78 237zM688 989q170 0 284 -134t115 -352q0 -218 -146 -379t-361 -161q-133 0 -246 74l-166 -68l-45 15q14 156 14 356v782q0 211 -14 334q125 6 268 31q-8 -72 -8 -246v-369
q135 117 305 117z" />
    <glyph glyph-name="c" unicode="c" horiz-adv-x="983" 
d="M612 786q-132 0 -214 -87q-81 -87 -81 -227q1 -140 89 -222q88 -84 212 -84q82 0 146 27t135 90l-8 -232q-147 -88 -313 -88q-221 0 -363 140q-141 141 -141 359t147 373t375 154q178 0 309 -92l-55 -199q-106 88 -238 88z" />
    <glyph glyph-name="d" unicode="d" horiz-adv-x="1159" 
d="M583 795q-120 -1 -193 -95t-73 -238t72 -224t180 -80q66 0 122 32t85 89v442q-73 74 -193 74zM559 989q127 0 217 -65l-2 196q0 246 -10 334q193 16 266 31q-8 -72 -8 -223v-922q0 -209 14 -340h-231l-14 102q-45 -61 -123 -100t-162 -39q-197 0 -316 137
q-118 137 -118 355t139 376t348 158z" />
    <glyph glyph-name="e" unicode="e" horiz-adv-x="1052" 
d="M563 803q-100 0 -165 -66t-81 -170l449 15q-25 221 -203 221zM592 162q180 0 354 129l-6 -213q-176 -115 -375 -115q-239 0 -365 140q-126 139 -126 361t138 374t353 152t319 -133q104 -132 105 -343l-110 -76l-566 -16q23 -260 279 -260z" />
    <glyph glyph-name="f" unicode="f" horiz-adv-x="712" 
d="M625 1276q-170 0 -170 -223v-86h247q-8 -59 -8 -191h-239v-577q0 -131 8 -199h-266q14 123 14 334v442h-178l49 191h129v69q0 209 97 330t276 121q55 -1 116 -17l17 -208q-41 14 -92 14z" />
    <glyph glyph-name="g" unicode="g" horiz-adv-x="1011" 
d="M330 621q0 -87 49 -137t132 -50t134 54t51 140q0 87 -48 138t-130 51t-135 -55t-53 -141zM231 -186q1 -49 59 -84t183 -35t212 48t87 116q0 100 -229 100l-33 2q-55 0 -129 4q-150 -63 -150 -151zM922 634q0 -154 -121 -258q-121 -103 -305 -104q-72 0 -134 19
q-63 -39 -63 -75t46 -51t175 -15h43q432 0 432 -248q1 -152 -155 -260t-376 -109q-220 0 -332 69q-110 69 -109 175q0 150 200 235q-117 54 -117 152t140 178q-144 98 -144 263t121 275t303 109q84 0 160 -26q47 221 297 190l-10 -195q-135 23 -172 -65q121 -105 121 -259z
" />
    <glyph glyph-name="h" unicode="h" horiz-adv-x="1157" 
d="M778 348v238q0 201 -147 200q-94 0 -170 -72t-78 -161v-352q0 -129 8 -201h-266q12 131 12 338v782q0 203 -12 334q197 16 266 31q-8 -72 -8 -246v-459q57 96 153 152t189 57q151 0 225 -90t74 -254v-434q0 -105 8 -211h-268q14 123 14 348z" />
    <glyph glyph-name="i" unicode="i" horiz-adv-x="520" 
d="M119 1303q0 61 44 105t107 44q62 0 106 -42t44 -102t-44 -104t-108 -45q-64 0 -107 42q-42 42 -42 102zM137 336v274q0 225 -14 348q125 0 268 15q-8 -72 -8 -219v-555q0 -127 8 -199h-268q14 123 14 336z" />
    <glyph glyph-name="j" unicode="j" horiz-adv-x="522" 
d="M121 1303q0 61 44 105t107 44q62 0 106 -42t44 -102t-44 -104t-108 -45q-64 0 -107 42q-42 42 -42 102zM387 754v-795q0 -213 -89 -312t-237 -100q-43 0 -108 17l-29 207q53 -8 76 -9q72 0 106 41t35 138v669q0 225 -14 348q125 1 268 15q-8 -72 -8 -219z" />
    <glyph glyph-name="k" unicode="k" horiz-adv-x="1021" 
d="M383 201q0 -133 8 -201h-268q14 123 14 338v782q0 211 -14 334q197 16 268 31q-8 -72 -8 -248v-690q174 219 326 424q182 0 288 8l-387 -459l88 -106q45 -51 167 -203t163 -195l-266 -41l-379 482v-256z" />
    <glyph glyph-name="l" unicode="l" horiz-adv-x="520" 
d="M137 338v782q0 211 -14 334q197 16 268 31q-8 -72 -8 -246v-1038q0 -129 8 -201h-268q14 123 14 338z" />
    <glyph glyph-name="m" unicode="m" horiz-adv-x="1730" 
d="M1352 586q0 98 -31 149t-117 51t-150 -63t-65 -150v-362q0 -139 8 -211h-268q12 131 12 348v238q0 98 -28 149q-29 51 -113 51t-150 -63t-67 -150v-362q0 -139 8 -211h-268q14 123 14 348v264q0 219 -14 342q57 0 242 19l14 -170q63 88 147 137t170 49q219 0 275 -194
q53 88 140 141t187 53q299 0 299 -344v-434q1 -105 9 -211h-269q14 123 15 348v238z" />
    <glyph glyph-name="n" unicode="n" horiz-adv-x="1157" 
d="M778 348v238q0 201 -147 200q-92 0 -170 -74t-78 -159v-342q0 -139 8 -211h-266q12 131 12 348v264q0 211 -12 342q57 0 242 19l14 -195q59 98 155 154t189 57q151 0 225 -90t74 -254v-434q0 -105 8 -211h-268q14 123 14 348z" />
    <glyph glyph-name="o" unicode="o" horiz-adv-x="1124" 
d="M562 793q-110 0 -180 -86t-69 -235q0 -148 66 -230q67 -82 181 -82t182 86t67 234q0 148 -68 231q-69 82 -179 82zM1051 488q1 -219 -139 -372t-358 -153t-349 141q-131 142 -131 360t138 372t356 154t350 -142q132 -141 133 -360z" />
    <glyph glyph-name="p" unicode="p" horiz-adv-x="1159" 
d="M582 156q122 0 192 98t70 244t-70 221q-70 76 -188 76t-203 -121v-436q76 -82 199 -82zM1090 514q0 -242 -144 -396t-328 -155q-141 0 -235 70v-262q0 -123 8 -191q-10 0 -133 -11t-133 -13q12 133 12 344v708q0 219 -14 346q117 0 239 17l11 -127q127 145 308 145
t295 -138t114 -337z" />
    <glyph glyph-name="q" unicode="q" horiz-adv-x="1159" 
d="M1022 612v-829q0 -111 10 -203q-12 0 -134 -11t-132 -13q10 102 10 340v184q-106 -117 -284 -117t-299 137t-121 355t143 376t356 158q129 0 256 -76l168 72l41 -16q-14 -152 -14 -357zM317 463q0 -141 69 -223t179 -82q63 0 121 28t90 76v473q-80 59 -196 59t-189 -94
q-74 -96 -74 -237z" />
    <glyph glyph-name="r" unicode="r" horiz-adv-x="745" 
d="M383 535v-324q0 -139 8 -211h-266q12 106 12 348v295q0 174 -18 301q113 4 243 31l19 -205q104 192 340 219l-25 -258q-119 18 -216 -34t-97 -162z" />
    <glyph glyph-name="s" unicode="s" horiz-adv-x="880" 
d="M477 989q172 0 301 -74l-63 -190q-111 74 -247 74t-136 -101q0 -38 50 -66t122 -52t142 -58q70 -33 121 -93q50 -60 50 -144q0 -147 -111 -235q-112 -87 -284 -87q-86 0 -186 24t-158 60l10 217q160 -111 334 -110q74 0 118 26t44 74q0 47 -50 79q-50 33 -121 57t-142 56
t-121 92q-50 62 -50 148q0 129 102 216t275 87z" />
    <glyph glyph-name="t" unicode="t" horiz-adv-x="753" 
d="M197 776h-170l49 191h123l18 200l225 70v-270h252q-6 -68 -6 -191h-246v-479q0 -69 26 -97t91 -28t137 47l-6 -194q-82 -55 -217 -55q-278 -1 -276 306v500z" />
    <glyph glyph-name="u" unicode="u" horiz-adv-x="1157" 
d="M461 -37q-328 0 -328 371v278q0 209 -12 344q152 0 268 13q-10 -68 -10 -224v-358q0 -113 39 -167t123 -54q85 0 159 64t74 147v235q0 209 -12 344q152 0 270 13q-12 -80 -12 -224v-405q0 -211 14 -340h-227l-27 158q-55 -90 -145 -142t-174 -53z" />
    <glyph glyph-name="v" unicode="v" horiz-adv-x="1026" 
d="M10 948l258 25l254 -656l107 297q4 10 55 152t68 195q158 0 258 8l-404 -975l-180 -14q-27 82 -137 344l-115 264q-135 307 -164 360z" />
    <glyph glyph-name="w" unicode="w" horiz-adv-x="1509" 
d="M14 950l256 23l199 -615l86 246q70 201 121 357l170 12l217 -613l78 246q47 137 108 355q141 0 246 8l-354 -975l-166 -12q-47 162 -127 380l-92 250l-219 -618l-168 -12q-23 90 -113 342l-98 264q-98 262 -144 362z" />
    <glyph glyph-name="x" unicode="x" horiz-adv-x="1007" 
d="M55 948l264 25l201 -336l203 324q170 0 274 8l-342 -480l66 -94q94 -154 266 -389l-264 -26l-219 354l-225 -334h-271l359 477l-48 72q-117 182 -264 399z" />
    <glyph glyph-name="y" unicode="y" horiz-adv-x="1003" 
d="M14 948l265 25l237 -623l98 266q51 129 125 345q156 0 256 8l-442 -1059q-8 -23 -53 -131t-76 -207q-170 0 -264 -10l231 532q-76 193 -92 230l-117 264q-117 264 -168 360z" />
    <glyph glyph-name="z" unicode="z" horiz-adv-x="976" 
d="M492 0q-208 0 -412 -10l-27 88l525 688q-199 0 -478 -4q8 88 9 209q190 -8 405 -8t389 8l25 -88l-525 -686q326 0 508 6q-14 -94 -16 -213q-195 10 -403 10z" />
    <glyph glyph-name="braceleft" unicode="{" horiz-adv-x="831" 
d="M397 702q0 29 -70 157q-71 128 -71 216q0 309 446 408l41 -144q-264 -80 -264 -227q0 -57 67 -183t66 -186q0 -152 -221 -235q221 -76 221 -236q0 -59 -66 -184t-67 -182q0 -152 264 -228l-41 -143q-446 98 -446 408q0 99 105 279q36 60 36 91q0 72 -276 140v110
q276 68 276 139z" />
    <glyph glyph-name="bar" unicode="|" horiz-adv-x="622" 
d="M219 2v1042q0 342 -12 457q98 0 205 12q-6 -59 -6 -309v-1388q0 -247 4 -308h-203q12 127 12 494z" />
    <glyph glyph-name="braceright" unicode="}" horiz-adv-x="831" 
d="M352 -94q0 57 -66 183q-67 126 -67 185q0 152 219 236q-219 74 -219 235q0 57 67 183t66 184q0 147 -264 227l41 144q444 -98 444 -408q1 -88 -69 -215t-70 -155q1 -72 275 -140v-110q-274 -68 -275 -142q0 -29 70 -155t69 -215q0 -309 -444 -408l-41 143q264 76 264 228
z" />
    <glyph glyph-name="asciitilde" unicode="~" horiz-adv-x="1040" 
d="M338 735q68 0 192 -51t160 -51q66 0 86 119l166 -25q-51 -287 -242 -287q-68 0 -194 54t-158 55q-66 0 -82 -113l-166 23q53 276 238 276z" />
    <glyph glyph-name="uni00A0" unicode="&#xa0;" horiz-adv-x="434" 
 />
    <glyph glyph-name="exclamdown" unicode="&#xa1;" horiz-adv-x="540" 
d="M123 1328q0 64 43 109q43 44 108 44q64 0 106 -42t42 -106q0 -63 -43 -107t-107 -44t-107 41q-42 41 -42 105zM123 -27q12 117 16 207l35 621q8 164 8 192l180 11q0 -29 13 -324l18 -408q4 -143 23 -280q-18 -2 -86 -5t-124 -7t-83 -7z" />
    <glyph glyph-name="cent" unicode="&#xa2;" horiz-adv-x="999" 
d="M305 483q0 -238 174 -305l35 576v30q-98 -25 -154 -106q-55 -82 -55 -195zM74 465q0 193 124 343t322 175q6 123 6 182q74 0 170 11q-4 -27 -18 -195q139 -23 242 -90l-56 -191q-88 70 -200 88q-2 -11 -2 -38l-31 -461q-2 -19 -5 -65t-5 -66q158 6 294 123l-10 -226
q-135 -82 -293 -90q-6 -133 -4 -184h-166l17 194q-176 33 -281 165q-104 132 -104 325z" />
    <glyph glyph-name="sterling" unicode="&#xa3;" horiz-adv-x="1067" 
d="M92 768h162q-45 96 -45 197q0 171 127 291t310 120t317 -65l-52 -201q-117 61 -227 61t-175 -53t-65 -142t58 -204q199 2 366 14q-4 -39 -10 -184q-127 2 -285 0q12 -57 13 -90q0 -172 -144 -307q209 0 568 14q-12 -109 -15 -227q-141 8 -439 8t-458 -12l-26 166
q147 70 219 146t71 175q0 51 -24 115l-252 -4q6 66 6 182z" />
    <glyph glyph-name="yen" unicode="&#xa5;" horiz-adv-x="1316" 
d="M770 453q254 0 436 6q-2 -6 -14 -178q-125 4 -422 4v-4q0 -207 8 -281h-258q8 63 12 285q-309 0 -432 -4q6 61 6 178q174 -6 426 -6l3 104l-39 64q-279 0 -392 -3q6 61 7 175q117 -6 282 -7l-65 109q-281 449 -281 451l272 14l338 -582l99 164q29 49 112 201
q84 152 117 205h289l-361 -562q174 0 297 7q-2 -8 -14 -175q-115 2 -389 3l-37 -58v-110z" />
    <glyph glyph-name="section" unicode="&#xa7;" horiz-adv-x="989" 
d="M319 549q-1 -55 57 -97t187 -96q55 23 89 62t34 79q0 41 -17 67q-33 52 -216 132q-134 -45 -134 -147zM92 518q0 182 187 268q-147 94 -147 242t109 246q110 100 298 100t321 -86l-55 -194q-135 84 -275 84q-74 0 -120 -36t-45 -91q0 -55 56 -97t135 -78q79 -34 159 -74
t136 -109t56 -158q0 -176 -172 -269q150 -92 150 -244t-115 -249q-114 -99 -316 -99t-356 90l11 224q174 -117 354 -117q86 0 138 38t52 95t-57 98t-140 75t-166 73q-82 40 -140 108t-58 160z" />
    <glyph glyph-name="dieresis" unicode="&#xa8;" horiz-adv-x="831" 
d="M614 1421q58 0 98 -40t40 -98t-40 -101t-100 -43t-97 40q-38 40 -38 99t39 101t98 42zM356 1283q0 -58 -40 -101t-99 -43t-97 40t-38 99t39 101t98 42t98 -40t39 -98z" />
    <glyph glyph-name="copyright" unicode="&#xa9;" horiz-adv-x="1773" 
d="M518 717q0 168 117 288t299 119q133 0 225 -65l-35 -152q-82 63 -186 63t-170 -67t-66 -177t66 -176t176 -65q110 0 215 93l-8 -177q-102 -72 -240 -71q-173 0 -283 110t-110 277zM1522 719q0 269 -184 457t-451 188q-265 0 -451 -189t-186 -455t185 -456t451 -190
t452 188q184 188 184 457zM1647 719q-1 -315 -223 -537t-537 -223q-315 0 -538 222q-222 221 -222 537t222 538q221 222 537 222t538 -222t223 -537z" />
    <glyph glyph-name="ordfeminine" unicode="&#xaa;" horiz-adv-x="741" 
d="M248 1005q0 -81 84 -81q43 0 76 32t34 82l2 54l-47 2q-73 0 -111 -26t-38 -63zM373 1475q268 0 260 -254l-8 -246q0 -49 39 -49q14 0 43 8l-11 -115q-53 -27 -108 -26q-111 0 -133 104q-27 -47 -81 -76t-128 -29t-127 51q-53 50 -53 140t82 151q83 60 237 60q39 0 61 -2
l3 25q3 102 -107 102t-203 -62l-28 148q125 70 262 70z" />
    <glyph glyph-name="guillemotleft" unicode="&#xab;" horiz-adv-x="1265" 
d="M969 948q94 2 211 19q-178 -270 -334 -488q213 -344 311 -485l-156 -49q-188 205 -423 508l6 30q168 193 385 465zM492 948q92 2 208 19q-178 -270 -333 -488q96 -156 311 -465l-156 -49q-274 295 -424 488l6 30q191 219 388 465z" />
    <glyph glyph-name="registered" unicode="&#xae;" horiz-adv-x="966" 
d="M436 1087h39q82 0 82 62q0 57 -78 57l-43 -2v-117zM436 1016v-64q0 -47 2 -61h-98q4 49 4 133v121q0 82 -4 131l131 4q88 0 133 -36t45 -89q-2 -82 -84 -117l74 -98l39 -47l-107 -6l-92 129h-43zM811 1073q0 141 -94 239q-95 98 -235 97q-140 0 -232 -97
q-92 -96 -92 -238t92 -238t232 -96t234 96t95 237zM891 1075q0 -170 -119 -289q-119 -118 -290 -118q-170 0 -288 118t-118 288q0 169 118 288t290 119t289 -118q118 -118 118 -288z" />
    <glyph glyph-name="macron" unicode="&#xaf;" horiz-adv-x="817" 
d="M494 1190h-185q-86 0 -233 -4q8 86 8 182q162 -6 330 -6t327 6q-10 -86 -10 -182q-172 4 -237 4z" />
    <glyph glyph-name="degree" unicode="&#xb0;" horiz-adv-x="784" 
d="M549 1156q0 79 -41 127t-114 48q-74 0 -116 -49t-42 -128t42 -128t114 -49t115 50q42 50 42 129zM717 1161q0 -137 -93 -235q-92 -98 -236 -98t-231 92t-87 228t92 233t235 97t232 -89q88 -91 88 -228z" />
    <glyph glyph-name="plusminus" unicode="&#xb1;" horiz-adv-x="1163" 
d="M637 0h-117q-119 0 -356 -4q6 70 6 186q214 -6 414 -6t415 6q-10 -88 -10 -186q-246 4 -352 4zM674 653v-24q0 -225 8 -297h-207q10 98 14 321h-34l-291 -4q6 63 6 187q106 -4 319 -9q-4 223 -14 320q43 0 207 10q-8 -76 -8 -307v-23q241 5 325 9q-8 -68 -12 -187l-295 4
h-18z" />
    <glyph glyph-name="two.sup" unicode="&#xb2;" 
d="M384 883q-106 0 -294 -4l-18 131q244 199 301 256q117 115 116 192q0 47 -33 75q-34 28 -91 28q-105 0 -211 -88l-62 147q134 109 278 109q144 1 223 -63t79 -162t-42 -164q-42 -67 -126 -146q-61 -63 -182 -156q72 0 215 4t153 5q0 -28 -8 -168q-192 4 -298 4z" />
    <glyph glyph-name="three.sup" unicode="&#xb3;" 
d="M492 1491q0 80 -172 80q-96 0 -193 -58l-39 142q144 74 282 74q138 -1 221 -57t83 -144q0 -147 -221 -215q238 -43 237 -201q0 -116 -99 -182t-242 -66t-245 31l-20 160q129 -35 221 -35t146 26q53 26 53 70q0 111 -277 117l-16 108q281 51 281 150z" />
    <glyph glyph-name="acute" unicode="&#xb4;" horiz-adv-x="669" 
d="M307 1413l324 19l-334 -316l-172 -10z" />
    <glyph glyph-name="paragraph" unicode="&#xb6;" horiz-adv-x="1304" 
d="M573 1354q57 0 129 -2t109 -2q-8 -74 -8 -277v-799q0 -203 8 -274h-186q16 141 16 440v41q-289 0 -426 122t-137 331q0 172 132 296t363 124zM952 459v424q0 354 -14 463q80 0 186 8q-10 -92 -10 -281v-799q0 -186 10 -274h-186q14 106 14 459z" />
    <glyph glyph-name="periodcentered" unicode="&#xb7;" horiz-adv-x="512" 
d="M260 563q-66 0 -106 42t-41 108q0 65 43 109t108 44q66 0 108 -42t42 -106t-44 -110q-44 -45 -110 -45z" />
    <glyph glyph-name="cedilla" unicode="&#xb8;" horiz-adv-x="610" 
d="M516 -326q0 -78 -63 -130t-164 -52t-199 31l31 129q90 -29 164 -29t73 49q0 59 -188 99l-8 8q18 55 67 252l111 -27l-37 -135q213 -55 213 -195z" />
    <glyph glyph-name="one.sup" unicode="&#xb9;" horiz-adv-x="573" 
d="M424 1563v-535q0 -117 4 -145h-192q8 66 8 245v402l-174 -49l-29 147q90 23 235 72l97 29l55 -13q-4 -35 -4 -153z" />
    <glyph glyph-name="ordmasculine" unicode="&#xba;" horiz-adv-x="800" 
d="M543 1135q0 91 -39 141t-103 51q-63 0 -103 -52t-40 -143q0 -92 38 -142t102 -50t105 52q40 52 40 143zM735 1140q0 -146 -95 -246q-94 -101 -244 -101t-240 94q-90 93 -90 239t95 247t245 101t239 -94q90 -94 90 -240z" />
    <glyph glyph-name="guillemotright" unicode="&#xbb;" horiz-adv-x="1265" 
d="M297 -16q-94 -2 -211 -19q178 270 334 488q-102 166 -311 469l155 49q252 -274 424 -492l-6 -30q-168 -193 -385 -465zM774 -16q-94 -2 -207 -19q164 252 332 488q-96 156 -311 465l157 49q262 -285 422 -488l-6 -30q-156 -180 -387 -465z" />
    <glyph glyph-name="onequarter" unicode="&#xbc;" horiz-adv-x="1720" 
d="M1368 664l-260 -338h256zM473 1266v-535q0 -117 4 -145h-192q8 66 8 245v400l-174 -47l-29 147q164 42 236 70l96 31l55 -15q-4 -33 -4 -151zM434 -39l-135 57q147 207 285 414l389 602q221 340 262 418q15 -8 67 -32t66 -31q-98 -137 -229 -340l-506 -773zM1358 166v29
h-70q-209 0 -325 -7l-21 140l414 528l172 -12q-4 -35 -4 -142v-368q88 0 118 2q-10 -88 -10 -148q-57 4 -108 5v-60q0 -102 4 -133h-176q6 37 6 166z" />
    <glyph glyph-name="onehalf" unicode="&#xbd;" horiz-adv-x="1720" 
d="M473 1266v-535q0 -117 4 -145h-192q8 66 8 245v400l-174 -47l-29 147q164 42 236 70l96 31l55 -15q-4 -33 -4 -151zM369 -39l-136 57q147 207 285 414l389 602q221 340 262 418q15 -8 67 -32t67 -31q-98 -137 -230 -340l-506 -773zM1301 0q-105 0 -293 -4l-19 131
q244 199 301 256q117 115 117 192q0 47 -34 75t-91 28q-105 0 -211 -88l-61 147q134 109 278 109t222 -64t79 -160q0 -98 -42 -164t-126 -147q-61 -63 -182 -155l369 8q0 -63 -9 -168q-193 4 -298 4z" />
    <glyph glyph-name="threequarters" unicode="&#xbe;" horiz-adv-x="1912" 
d="M1561 664l-261 -338h256zM610 -39l-135 57q147 207 285 414l389 602q221 340 262 418q15 -8 67 -32t66 -31q-98 -137 -229 -340l-506 -773zM361 723q89 0 143 26q53 26 53 68q0 113 -276 117l-17 110q281 49 281 150q0 32 -38 56q-37 24 -133 24t-194 -57l-39 139
q137 74 279 74t224 -56q83 -56 83 -143q0 -145 -221 -217q238 -43 237 -199q0 -115 -99 -181q-100 -66 -242 -67q-142 0 -244 31l-21 158q135 -33 224 -33zM1550 166v29h-69q-209 0 -326 -7l-20 140l413 528l172 -12q-4 -35 -4 -142v-368q88 0 119 2q-10 -88 -10 -148
q-57 4 -109 5v-60q0 -102 4 -133h-176q6 37 6 166z" />
    <glyph glyph-name="questiondown" unicode="&#xbf;" horiz-adv-x="950" 
d="M383 1324q0 64 45 111q45 46 113 46q67 0 109 -43t42 -109q0 -67 -43 -111t-111 -44t-111 43q-44 43 -44 107zM57 291q-1 87 51 153t126 104t148 68q177 72 177 146q0 96 -129 96q-68 0 -145 -24l-33 180q98 27 203 26q157 0 247 -74t91 -200q-1 -82 -51 -144t-122 -98
t-144 -68q-173 -72 -173 -155q0 -61 49 -95t140 -34q190 0 344 113l18 -219q-66 -43 -174 -72t-201 -29q-195 0 -309 88t-113 238z" />
    <glyph glyph-name="Agrave" unicode="&#xc0;" horiz-adv-x="1476" 
d="M371 1890l295 19l178 -316l-168 -10zM725 1057l-211 -500h422zM10 0l473 1049q119 264 174 405l131 16l480 -1052q141 -305 198 -418l-284 -16l-166 383h-580l-71 -178q-53 -134 -76 -189h-279z" />
    <glyph glyph-name="Aacute" unicode="&#xc1;" horiz-adv-x="1476" 
d="M793 1890l323 19l-334 -316l-172 -10zM725 1057l-211 -500h422zM10 0l473 1049q119 264 174 405l131 16l480 -1052q141 -305 198 -418l-284 -16l-166 383h-580l-71 -178q-53 -134 -76 -189h-279z" />
    <glyph glyph-name="Acircumflex" unicode="&#xc2;" horiz-adv-x="1476" 
d="M725 1057l-211 -500h422zM612 1911h258l211 -322l-163 -12l-179 182l-166 -168h-186zM10 0l473 1049q119 264 174 405l131 16l480 -1052q141 -305 198 -418l-284 -16l-166 383h-580l-71 -178q-53 -134 -76 -189h-279z" />
    <glyph glyph-name="Atilde" unicode="&#xc3;" horiz-adv-x="1476" 
d="M725 1057l-211 -500h422zM576 1917q80 0 185 -71t136 -70q55 0 80 147l160 -22q-49 -315 -234 -316q-68 0 -174 72t-137 72t-47 -30t-29 -110l-162 23q53 305 222 305zM10 0l473 1049q119 264 174 405l131 16l480 -1052q141 -305 198 -418l-284 -16l-166 383h-580
l-71 -178q-53 -134 -76 -189h-279z" />
    <glyph glyph-name="Adieresis" unicode="&#xc4;" horiz-adv-x="1476" 
d="M795 1755q0 59 39 101t98 42t98 -40t39 -98t-40 -101t-99 -43t-97 40t-38 99zM399 1755q0 59 39 101q38 42 98 42t99 -40t39 -98t-40 -101t-100 -43t-97 40q-38 40 -38 99zM725 1057l-211 -500h422zM10 0l473 1049q119 264 174 405l131 16l480 -1052q141 -305 198 -418
l-284 -16l-166 383h-580l-71 -178q-53 -134 -76 -189h-279z" />
    <glyph glyph-name="Aring" unicode="&#xc5;" horiz-adv-x="1476" 
d="M842 1611q0 50 -30 82q-30 31 -82 31t-83 -32t-31 -83q0 -50 31 -83t82 -33t82 34t31 84zM725 1057l-211 -500h422zM991 1630q0 -88 -44 -154t-120 -92l441 -966q141 -305 198 -418l-284 -16l-166 383h-580l-71 -178q-53 -134 -76 -189h-279l473 1049q92 201 146 331
q-76 25 -119 84t-43 133q0 109 75 181q76 72 192 72t187 -66q70 -66 70 -154z" />
    <glyph glyph-name="AE" unicode="&#xc6;" horiz-adv-x="1861" 
d="M918 928q0 55 -5 219l-350 -594h355v375zM1346 2q-280 0 -443 -10q10 123 15 370h-463l-115 -204q-80 -145 -88 -158h-289l637 1053q170 272 236 399q224 -10 464 -10t459 10q-12 -92 -16 -223q-233 4 -367 4t-192 -2q-4 -35 -4 -113v-266l483 4q-6 -92 -6 -209l-477 4
v-323q0 -80 4 -115l184 -2q229 0 432 6q-10 -98 -14 -225q-160 10 -440 10z" />
    <glyph glyph-name="Ccedilla" unicode="&#xc7;" horiz-adv-x="1388" 
d="M827 -37h-12l-24 -94q213 -55 213 -195q0 -78 -64 -130t-164 -52t-198 31l30 129q90 -29 164 -29t74 49q0 59 -189 99l-8 8q16 55 53 194q-268 41 -436 242t-168 467q0 338 218 565t550 228q252 0 430 -125l-59 -230q-162 131 -376 131q-214 1 -355 -149t-141 -390
t138 -381q139 -143 367 -143t437 193l-13 -266q-211 -152 -467 -152z" />
    <glyph glyph-name="Egrave" unicode="&#xc8;" horiz-adv-x="1142" 
d="M266 1874l295 18l178 -315l-168 -10zM626 2q-280 0 -442 -10q14 137 15 502v452q0 369 -15 506q215 -10 428 -10t428 10q-12 -92 -16 -221q-232 4 -368 4t-195 -2q-2 -35 -2 -115v-266l485 4q-6 -88 -6 -209l-479 4v-323q0 -82 2 -117l188 -2q229 0 432 6
q-10 -94 -14 -223q-161 10 -441 10z" />
    <glyph glyph-name="Eacute" unicode="&#xc9;" horiz-adv-x="1142" 
d="M626 2q-280 0 -442 -10q14 137 15 502v452q0 369 -15 506q215 -10 428 -10t428 10q-12 -92 -16 -221q-232 4 -368 4t-195 -2q-2 -35 -2 -115v-266l485 4q-6 -88 -6 -209l-479 4v-323q0 -82 2 -117l188 -2q229 0 432 6q-10 -94 -14 -223q-161 10 -441 10zM686 1874l324 18
l-334 -315l-172 -10z" />
    <glyph glyph-name="Ecircumflex" unicode="&#xca;" horiz-adv-x="1142" 
d="M626 2q-280 0 -442 -10q14 137 15 502v452q0 369 -15 506q215 -10 428 -10t428 10q-12 -92 -16 -221q-232 4 -368 4t-195 -2q-2 -35 -2 -115v-266l485 4q-6 -88 -6 -209l-479 4v-323q0 -82 2 -117l188 -2q229 0 432 6q-10 -94 -14 -223q-161 10 -441 10zM508 1894h258
l211 -321l-164 -12l-178 182l-166 -168h-186z" />
    <glyph glyph-name="Edieresis" unicode="&#xcb;" horiz-adv-x="1142" 
d="M626 2q-280 0 -442 -10q14 137 15 502v452q0 369 -15 506q215 -10 428 -10t428 10q-12 -92 -16 -221q-232 4 -368 4t-195 -2q-2 -35 -2 -115v-266l485 4q-6 -88 -6 -209l-479 4v-323q0 -82 2 -117l188 -2q229 0 432 6q-10 -94 -14 -223q-161 10 -441 10zM827 1882
q59 0 99 -40t39 -98q0 -58 -40 -102q-39 -44 -99 -43q-60 0 -98 40q-38 39 -38 99t39 102t98 42zM569 1744q0 -58 -40 -102t-99 -43q-59 0 -97 40q-38 39 -38 99t39 102t98 42t98 -40t39 -98z" />
    <glyph glyph-name="Igrave" unicode="&#xcc;" horiz-adv-x="671" 
d="M-29 1874l295 18l178 -315l-168 -10zM205 946q0 356 -15 494q201 0 285 10q-8 -80 -8 -303v-852q0 -219 8 -295h-285q14 137 15 494v452z" />
    <glyph glyph-name="Iacute" unicode="&#xcd;" horiz-adv-x="671" 
d="M391 1874l324 18l-334 -315l-172 -10zM205 946q0 356 -15 494q201 0 285 10q-8 -80 -8 -303v-852q0 -219 8 -295h-285q14 137 15 494v452z" />
    <glyph glyph-name="Icircumflex" unicode="&#xce;" horiz-adv-x="671" 
d="M213 1894h258l211 -321l-164 -12l-178 182l-166 -168h-186zM205 946q0 356 -15 494q201 0 285 10q-8 -80 -8 -303v-852q0 -219 8 -295h-285q14 137 15 494v452z" />
    <glyph glyph-name="Idieresis" unicode="&#xcf;" horiz-adv-x="671" 
d="M670 1744q0 -58 -40 -102t-100 -43q-60 0 -97 40q-38 39 -38 99t39 102q38 42 98 42t99 -40t39 -98zM137 1882q59 0 98 -40t39 -98t-40 -102t-99 -43q-59 0 -97 40q-38 39 -38 99t39 102t98 42zM205 946q0 356 -15 494q201 0 285 10q-8 -80 -8 -303v-852q0 -219 8 -295
h-285q14 137 15 494v452z" />
    <glyph glyph-name="Eth" unicode="&#xd0;" horiz-adv-x="1503" 
d="M1143 737q0 231 -137 365t-388 135q-82 0 -155 -6q-2 -35 -2 -119v-293q154 0 287 6q-10 -92 -11 -196q-193 4 -274 4h-2v-303q0 -70 2 -107q88 -10 162 -10q262 1 390 147t128 377zM1405 742q0 -322 -208 -532t-548 -210h-465q14 137 15 494v139q-119 -4 -160 -4
q6 74 6 196l154 -6v127q0 356 -15 494l424 10q379 0 588 -192q209 -194 209 -516z" />
    <glyph glyph-name="Ntilde" unicode="&#xd1;" horiz-adv-x="1615" 
d="M654 1901q80 0 185 -71t136 -71q55 0 80 148l159 -23q-49 -315 -233 -315q-68 -1 -174 71t-137 72t-47 -30t-29 -109l-162 22q53 306 222 306zM1178 946q0 362 -17 494q195 0 283 10q-10 -76 -17 -303l-8 -862q-6 -229 4 -301l-123 -17l-860 1006v-678q0 -219 9 -295
h-279q16 137 23 494l6 483q4 319 -9 477l123 16l865 -1017v493z" />
    <glyph glyph-name="Ograve" unicode="&#xd2;" horiz-adv-x="1644" 
d="M459 1890l295 19l178 -316l-168 -10zM812 -37q-318 0 -516 209t-198 510q0 340 208 566t526 226t517 -208q198 -209 197 -510q0 -340 -208 -566t-526 -227zM360 708q0 -238 128 -384q128 -148 332 -148t334 158t130 394t-129 385t-332 149t-333 -158t-130 -396z" />
    <glyph glyph-name="Oacute" unicode="&#xd3;" horiz-adv-x="1644" 
d="M812 -37q-318 0 -516 209t-198 510q0 340 208 566t526 226t517 -208q198 -209 197 -510q0 -340 -208 -566t-526 -227zM360 708q0 -238 128 -384q128 -148 332 -148t334 158t130 394t-129 385t-332 149t-333 -158t-130 -396zM879 1890l323 19l-334 -316l-172 -10z" />
    <glyph glyph-name="Ocircumflex" unicode="&#xd4;" horiz-adv-x="1644" 
d="M812 -37q-318 0 -516 209t-198 510q0 340 208 566t526 226t517 -208q198 -209 197 -510q0 -340 -208 -566t-526 -227zM360 708q0 -238 128 -384q128 -148 332 -148t334 158t130 394t-129 385t-332 149t-333 -158t-130 -396zM700 1911h258l211 -322l-163 -12l-179 182
l-165 -168h-187z" />
    <glyph glyph-name="Otilde" unicode="&#xd5;" horiz-adv-x="1644" 
d="M680 1729q-31 0 -47 -30t-29 -110l-162 23q52 305 222 305q80 0 185 -71t136 -70q55 0 80 147l160 -22q-49 -315 -234 -316q-68 0 -174 72t-137 72zM812 -37q-318 0 -516 209t-198 510q0 340 208 566t526 226t517 -208q198 -209 197 -510q0 -340 -208 -566t-526 -227z
M360 708q0 -238 128 -384q128 -148 332 -148t334 158t130 394t-129 385t-332 149t-333 -158t-130 -396z" />
    <glyph glyph-name="Odieresis" unicode="&#xd6;" horiz-adv-x="1644" 
d="M812 -37q-318 0 -516 209t-198 510q0 340 208 566t526 226t517 -208q198 -209 197 -510q0 -340 -208 -566t-526 -227zM360 708q0 -238 128 -384q128 -148 332 -148t334 158t130 394t-129 385t-332 149t-333 -158t-130 -396zM883 1755q0 59 39 101t98 42t98 -40t39 -98
t-40 -101t-99 -43t-97 40t-38 99zM487 1755q0 59 39 101q38 42 98 42t99 -40t39 -98t-40 -101t-99 -43t-98 40q-38 40 -38 99z" />
    <glyph glyph-name="multiply" unicode="&#xd7;" horiz-adv-x="1163" 
d="M877 1006l129 -142q-37 -37 -295 -301q258 -260 307 -309q-76 -68 -144 -131q-139 158 -290 317q-145 -147 -305 -315q-43 49 -132 137q189 189 310 303l-310 303q92 74 146 127q266 -281 291 -305q123 127 293 316z" />
    <glyph glyph-name="Oslash" unicode="&#xd8;" horiz-adv-x="1642" 
d="M819 180q203 0 332 156t129 362t-80 340l-653 -768q112 -90 272 -90zM823 1257q-201 -1 -331 -157t-130 -366t82 -345l652 774q-117 94 -273 94zM98 682q0 340 208 566t536 227q233 0 409 -127q104 119 142 172q122 -81 147 -93q-33 -35 -168 -190q172 -205 172 -481
q0 -340 -208 -566t-535 -227q-233 0 -410 125l-135 -160l-150 84l166 183q-174 203 -174 487z" />
    <glyph glyph-name="Ugrave" unicode="&#xd9;" horiz-adv-x="1564" 
d="M418 1874l295 18l178 -315l-168 -10zM1386 608q0 -172 -40 -282t-125 -193q-169 -170 -447 -170q-278 1 -437 145t-159 396v442q0 356 -14 494q201 0 285 10q-8 -80 -9 -303v-576q0 -385 351 -385q161 0 247 92t86 254v414q0 362 -16 494q203 0 289 10q-10 -74 -11 -303
v-539z" />
    <glyph glyph-name="Uacute" unicode="&#xda;" horiz-adv-x="1564" 
d="M1386 608q0 -172 -40 -282t-125 -193q-169 -170 -447 -170q-278 1 -437 145t-159 396v442q0 356 -14 494q201 0 285 10q-8 -80 -9 -303v-576q0 -385 351 -385q161 0 247 92t86 254v414q0 362 -16 494q203 0 289 10q-10 -74 -11 -303v-539zM838 1874l323 18l-334 -315
l-172 -10z" />
    <glyph glyph-name="Ucircumflex" unicode="&#xdb;" horiz-adv-x="1564" 
d="M1386 608q0 -172 -40 -282t-125 -193q-169 -170 -447 -170q-278 1 -437 145t-159 396v442q0 356 -14 494q201 0 285 10q-8 -80 -9 -303v-576q0 -385 351 -385q161 0 247 92t86 254v414q0 362 -16 494q203 0 289 10q-10 -74 -11 -303v-539zM659 1894h259l210 -321
l-163 -12l-179 182l-165 -168h-187z" />
    <glyph glyph-name="Udieresis" unicode="&#xdc;" horiz-adv-x="1564" 
d="M1386 608q0 -172 -40 -282t-125 -193q-169 -170 -447 -170q-278 1 -437 145t-159 396v442q0 356 -14 494q201 0 285 10q-8 -80 -9 -303v-576q0 -385 351 -385q161 0 247 92t86 254v414q0 362 -16 494q203 0 289 10q-10 -74 -11 -303v-539zM1116 1744q0 -58 -40 -102
t-99 -43q-59 0 -97 40q-38 39 -38 99t39 102t98 42t98 -40t39 -98zM721 1744q0 -58 -40 -102t-99 -43q-59 0 -98 40q-38 39 -38 99t39 102t99 42t98 -40q39 -40 39 -98z" />
    <glyph glyph-name="Yacute" unicode="&#xdd;" horiz-adv-x="1325" 
d="M725 1874l324 18l-334 -315l-172 -10zM795 295q0 -209 6 -295h-283q14 137 14 494v118l-215 338q-163 265 -313 490l289 16l375 -620l112 178q55 86 258 430h295l-538 -823v-326z" />
    <glyph glyph-name="Thorn" unicode="&#xde;" horiz-adv-x="1247" 
d="M557 451q164 1 259 69t95 193q-1 125 -79 193t-226 67q-41 0 -143 -4v-512q53 -6 94 -6zM197 946q0 356 -15 494q205 0 289 10q-8 -74 -8 -264q102 4 135 4q270 0 424 -122t154 -308q0 -226 -157 -368t-466 -142q-25 0 -90 4q0 -194 8 -254h-289q14 137 15 494v452z" />
    <glyph glyph-name="germandbls" unicode="&#xdf;" horiz-adv-x="1085" 
d="M137 334v651q0 248 115 376t317 128q163 0 269 -92t106 -226q0 -75 -30 -141t-66 -102q-97 -94 -97 -126q1 -32 16 -52t92 -88t130 -147t53 -183q0 -140 -101 -240t-271 -100q-68 0 -150 16l-16 197q174 -42 252 21q47 38 47 90t-31 99q-31 46 -76 86l-90 80
q-108 96 -106 189q0 69 101 165q101 97 101 206q0 63 -40 103t-109 40q-68 0 -117 -61t-51 -174v-850q0 -131 8 -199h-270q14 123 14 334z" />
    <glyph glyph-name="agrave" unicode="&#xe0;" horiz-adv-x="1030" 
d="M154 1413l295 19l178 -316l-168 -10zM293 272q1 -59 35 -95t112 -36q78 1 134 57t61 148l4 92q-53 4 -76 4q-270 0 -270 -170zM360 -27q-137 0 -218 75q-81 74 -81 212t129 224t371 87q27 0 80 -4l2 29q4 96 -41 142t-143 46q-152 0 -279 -90l-43 195q170 100 365 100
t289 -99t90 -280l-11 -383q-2 -80 58 -80q27 0 73 15l-18 -156q-81 -31 -147 -31t-116 40t-63 120q-43 -74 -123 -118t-174 -44z" />
    <glyph glyph-name="aacute" unicode="&#xe1;" horiz-adv-x="1030" 
d="M573 1413l324 19l-334 -316l-172 -10zM293 272q1 -59 35 -95t112 -36q78 1 134 57t61 148l4 92q-53 4 -76 4q-270 0 -270 -170zM360 -27q-137 0 -218 75q-81 74 -81 212t129 224t371 87q27 0 80 -4l2 29q4 96 -41 142t-143 46q-152 0 -279 -90l-43 195q170 100 365 100
t289 -99t90 -280l-11 -383q-2 -80 58 -80q27 0 73 15l-18 -156q-81 -31 -147 -31t-116 40t-63 120q-43 -74 -123 -118t-174 -44z" />
    <glyph glyph-name="acircumflex" unicode="&#xe2;" horiz-adv-x="1030" 
d="M293 272q1 -59 35 -95t112 -36q78 1 134 57t61 148l4 92q-53 4 -76 4q-270 0 -270 -170zM395 1434h258l211 -322l-164 -12l-178 182l-166 -168h-186zM360 -27q-137 0 -218 75q-81 74 -81 212t129 224t371 87q27 0 80 -4l2 29q4 96 -41 142t-143 46q-152 0 -279 -90
l-43 195q170 100 365 100t289 -99t90 -280l-11 -383q-2 -80 58 -80q27 0 73 15l-18 -156q-81 -31 -147 -31t-116 40t-63 120q-43 -74 -123 -118t-174 -44z" />
    <glyph glyph-name="atilde" unicode="&#xe3;" horiz-adv-x="1030" 
d="M293 272q1 -59 35 -95t112 -36q78 1 134 57t61 148l4 92q-53 4 -76 4q-270 0 -270 -170zM360 1440q80 0 184 -71q105 -71 136 -71q55 0 80 148l160 -23q-49 -315 -234 -315q-68 0 -174 72t-137 72t-47 -30t-29 -110l-162 23q54 305 223 305zM360 -27q-137 0 -218 75
q-81 74 -81 212t129 224t371 87q27 0 80 -4l2 29q4 96 -41 142t-143 46q-152 0 -279 -90l-43 195q170 100 365 100t289 -99t90 -280l-11 -383q-2 -80 58 -80q27 0 73 15l-18 -156q-81 -31 -147 -31t-116 40t-63 120q-43 -74 -123 -118t-174 -44z" />
    <glyph glyph-name="adieresis" unicode="&#xe4;" horiz-adv-x="1030" 
d="M852 1283q0 -58 -40 -101t-99 -43t-98 40q-37 40 -37 99t38 101t98 42t99 -40t39 -98zM457 1283q0 -58 -40 -101q-39 -43 -99 -43t-98 40t-38 99t39 101t99 42t98 -40q39 -40 39 -98zM293 272q1 -59 35 -95t112 -36q78 1 134 57t61 148l4 92q-53 4 -76 4
q-270 0 -270 -170zM360 -27q-137 0 -218 75q-81 74 -81 212t129 224t371 87q27 0 80 -4l2 29q4 96 -41 142t-143 46q-152 0 -279 -90l-43 195q170 100 365 100t289 -99t90 -280l-11 -383q-2 -80 58 -80q27 0 73 15l-18 -156q-81 -31 -147 -31t-116 40t-63 120
q-43 -74 -123 -118t-174 -44z" />
    <glyph glyph-name="aring" unicode="&#xe5;" horiz-adv-x="1030" 
d="M629 1347q0 49 -30 81t-82 32t-83 -33t-31 -83t31 -82q31 -33 82 -33t82 34t31 84zM293 272q1 -59 35 -95t112 -36q78 1 134 57t61 148l4 92q-53 4 -76 4q-270 0 -270 -170zM778 1353q0 -101 -75 -176t-191 -75t-188 68q-70 68 -70 170t75 174t191 71q116 0 188 -65
q70 -66 70 -167zM360 -27q-137 0 -218 75q-81 74 -81 212t129 224t371 87q27 0 80 -4l2 29q4 96 -41 142t-143 46q-152 0 -279 -90l-43 195q170 100 365 100t289 -99t90 -280l-11 -383q-2 -80 58 -80q27 0 73 15l-18 -156q-81 -31 -147 -31t-116 40t-63 120
q-43 -74 -123 -118t-174 -44z" />
    <glyph glyph-name="ae" unicode="&#xe6;" horiz-adv-x="1607" 
d="M1116 803q-90 0 -154 -68t-81 -168l440 15q-25 221 -205 221zM293 274q-1 -57 35 -95t115 -38t137 69q57 69 61 173l2 53l-96 2q-254 0 -254 -164zM461 784q-154 0 -281 -90l-43 195q168 98 355 98q227 0 303 -160q125 162 333 162t310 -132q104 -132 104 -343l-108 -76
l-557 -16q18 -260 274 -260q172 0 350 129l-6 -213q-180 -115 -375 -115q-270 0 -375 197q-123 -188 -360 -189q-143 0 -233 78t-90 214t124 220q125 84 361 84l100 -2l2 29q10 190 -188 190z" />
    <glyph glyph-name="ccedilla" unicode="&#xe7;" horiz-adv-x="983" 
d="M612 786q-132 0 -214 -87q-81 -87 -81 -227q1 -140 89 -222q88 -84 212 -84q82 0 146 27t135 90l-8 -232q-147 -86 -297 -88l-25 -94q213 -55 213 -195q0 -78 -63 -130t-163 -52t-200 31l31 129q90 -29 164 -29t74 49q0 59 -189 99l-8 8q14 45 53 192q-182 31 -295 164
t-112 316q0 229 147 384t375 154q178 0 309 -92l-55 -199q-106 88 -238 88z" />
    <glyph glyph-name="egrave" unicode="&#xe8;" horiz-adv-x="1052" 
d="M197 1413l295 19l178 -316l-168 -10zM563 803q-100 0 -165 -66t-81 -170l449 15q-25 221 -203 221zM592 162q180 0 354 129l-6 -213q-176 -115 -375 -115q-239 0 -365 140q-126 139 -126 361t138 374t353 152t319 -133q104 -132 105 -343l-110 -76l-566 -16
q23 -260 279 -260z" />
    <glyph glyph-name="eacute" unicode="&#xe9;" horiz-adv-x="1052" 
d="M563 803q-100 0 -165 -66t-81 -170l449 15q-25 221 -203 221zM592 162q180 0 354 129l-6 -213q-176 -115 -375 -115q-239 0 -365 140q-126 139 -126 361t138 374t353 152t319 -133q104 -132 105 -343l-110 -76l-566 -16q23 -260 279 -260zM618 1413l324 19l-334 -316
l-172 -10z" />
    <glyph glyph-name="ecircumflex" unicode="&#xea;" horiz-adv-x="1052" 
d="M563 803q-100 0 -165 -66t-81 -170l449 15q-25 221 -203 221zM592 162q180 0 354 129l-6 -213q-176 -115 -375 -115q-239 0 -365 140q-126 139 -126 361t138 374t353 152t319 -133q104 -132 105 -343l-110 -76l-566 -16q23 -260 279 -260zM438 1434h258l211 -322
l-164 -12l-178 182l-166 -168h-186z" />
    <glyph glyph-name="edieresis" unicode="&#xeb;" horiz-adv-x="1052" 
d="M563 803q-100 0 -165 -66t-81 -170l449 15q-25 221 -203 221zM592 162q180 0 354 129l-6 -213q-176 -115 -375 -115q-239 0 -365 140q-126 139 -126 361t138 374t353 152t319 -133q104 -132 105 -343l-110 -76l-566 -16q23 -260 279 -260zM895 1283q0 -58 -40 -101
t-99 -43t-98 40q-38 40 -38 99t39 101t99 42t98 -40q39 -40 39 -98zM500 1283q0 -58 -40 -101t-100 -43t-97 40q-38 40 -38 99t39 101q38 42 98 42t99 -40t39 -98z" />
    <glyph glyph-name="igrave" unicode="&#xec;" horiz-adv-x="520" 
d="M-104 1413l294 19l179 -316l-168 -10zM137 336v274q0 225 -14 348q125 0 268 15q-8 -72 -8 -219v-555q0 -127 8 -199h-268q14 123 14 336z" />
    <glyph glyph-name="iacute" unicode="&#xed;" horiz-adv-x="520" 
d="M137 336v274q0 225 -14 348q125 0 268 15q-8 -72 -8 -219v-555q0 -127 8 -199h-268q14 123 14 336zM313 1413l324 19l-334 -316l-172 -10z" />
    <glyph glyph-name="icircumflex" unicode="&#xee;" horiz-adv-x="520" 
d="M137 336v274q0 225 -14 348q125 0 268 15q-8 -72 -8 -219v-555q0 -127 8 -199h-268q14 123 14 336zM137 1434h258l211 -322l-164 -12l-178 182l-166 -168h-186z" />
    <glyph glyph-name="idieresis" unicode="&#xef;" horiz-adv-x="520" 
d="M137 336v274q0 225 -14 348q125 0 268 15q-8 -72 -8 -219v-555q0 -127 8 -199h-268q14 123 14 336zM594 1283q0 -58 -40 -101t-99 -43t-98 40q-38 40 -38 99t39 101q38 42 98 42t99 -40t39 -98zM61 1421q59 0 99 -40t39 -98q0 -58 -40 -101q-39 -43 -99 -43t-98 40
t-38 99t39 101t98 42z" />
    <glyph glyph-name="eth" unicode="&#xf0;" horiz-adv-x="1124" 
d="M564 160q110 0 182 90t71 230q0 140 -72 221q-71 81 -181 81t-180 -88t-71 -225q0 -137 70 -223q71 -86 181 -86zM557 -37q-221 0 -352 140t-131 356q0 215 134 363t341 149q135 0 235 -78q-63 141 -178 262l-254 -141q-53 63 -131 121l260 133q-115 88 -243 139l215 94
q121 -55 217 -131q115 66 221 129q53 -57 125 -131q-143 -70 -223 -113q262 -289 264 -686q1 -279 -139 -443t-361 -163z" />
    <glyph glyph-name="ntilde" unicode="&#xf1;" horiz-adv-x="1157" 
d="M433 1440q79 0 184 -71t137 -71q55 0 80 148l159 -23q-49 -315 -233 -315q-68 0 -174 72t-138 72t-47 -30q-16 -30 -28 -110l-162 23q53 305 222 305zM778 348v238q0 201 -147 200q-92 0 -170 -74t-78 -159v-342q0 -139 8 -211h-266q12 131 12 348v264q0 211 -12 342
q57 0 242 19l14 -195q59 98 155 154t189 57q151 0 225 -90t74 -254v-434q0 -105 8 -211h-268q14 123 14 348z" />
    <glyph glyph-name="ograve" unicode="&#xf2;" horiz-adv-x="1124" 
d="M199 1413l295 19l178 -316l-168 -10zM562 793q-110 0 -180 -86t-69 -235q0 -148 66 -230q67 -82 181 -82t182 86t67 234q0 148 -68 231q-69 82 -179 82zM1051 488q1 -219 -139 -372t-358 -153t-349 141q-131 142 -131 360t138 372t356 154t350 -142q132 -141 133 -360z
" />
    <glyph glyph-name="oacute" unicode="&#xf3;" horiz-adv-x="1124" 
d="M562 793q-110 0 -180 -86t-69 -235q0 -148 66 -230q67 -82 181 -82t182 86t67 234q0 148 -68 231q-69 82 -179 82zM1051 488q1 -219 -139 -372t-358 -153t-349 141q-131 142 -131 360t138 372t356 154t350 -142q132 -141 133 -360zM621 1413l323 19l-334 -316l-172 -10z
" />
    <glyph glyph-name="ocircumflex" unicode="&#xf4;" horiz-adv-x="1124" 
d="M562 793q-110 0 -180 -86t-69 -235q0 -148 66 -230q67 -82 181 -82t182 86t67 234q0 148 -68 231q-69 82 -179 82zM1051 488q1 -219 -139 -372t-358 -153t-349 141q-131 142 -131 360t138 372t356 154t350 -142q132 -141 133 -360zM440 1434h258l211 -322l-164 -12
l-178 182l-166 -168h-186z" />
    <glyph glyph-name="otilde" unicode="&#xf5;" horiz-adv-x="1124" 
d="M404 1440q80 0 185 -71t136 -71q55 0 80 148l160 -23q-49 -315 -234 -315q-68 0 -174 72t-137 72t-47 -30t-29 -110l-162 23q53 305 222 305zM562 793q-110 0 -180 -86t-69 -235q0 -148 66 -230q67 -82 181 -82t182 86t67 234q0 148 -68 231q-69 82 -179 82zM1051 488
q1 -219 -139 -372t-358 -153t-349 141q-131 142 -131 360t138 372t356 154t350 -142q132 -141 133 -360z" />
    <glyph glyph-name="odieresis" unicode="&#xf6;" horiz-adv-x="1124" 
d="M562 793q-110 0 -180 -86t-69 -235q0 -148 66 -230q67 -82 181 -82t182 86t67 234q0 148 -68 231q-69 82 -179 82zM1051 488q1 -219 -139 -372t-358 -153t-349 141q-131 142 -131 360t138 372t356 154t350 -142q132 -141 133 -360zM897 1283q0 -58 -40 -101t-99 -43
t-98 40q-38 40 -38 99t40 101q39 42 98 42t98 -40t39 -98zM502 1283q0 -58 -40 -101t-100 -43t-97 40q-38 40 -38 99t39 101q38 42 98 42t99 -40t39 -98z" />
    <glyph glyph-name="divide" unicode="&#xf7;" horiz-adv-x="1159" 
d="M709 207q0 -55 -39 -97q-38 -42 -98 -42t-97 40t-37 95t39 96t99 41t96 -39q37 -39 37 -94zM709 932q0 -55 -39 -97q-38 -42 -98 -42q-60 1 -97 39t-37 94t39 97q39 42 99 42t96 -39q37 -39 37 -94zM649 479h-145q-135 0 -369 -4q6 72 6 184q209 -6 439 -6t444 6
q-10 -88 -10 -184q-242 4 -365 4z" />
    <glyph glyph-name="oslash" unicode="&#xf8;" horiz-adv-x="1124" 
d="M815 473q0 90 -27 160l-378 -430q59 -47 147 -47q121 0 189 87t69 230zM307 502q0 -120 25 -189l383 430q-67 53 -167 53t-170 -86q-70 -88 -71 -208zM547 -37q-150 0 -271 80q-94 -100 -108 -117l-115 90q86 88 119 127q-98 129 -98 308q0 231 138 385t361 153
q158 0 277 -84l106 121q58 -57 113 -94l-115 -127q96 -131 97 -305q1 -231 -139 -384t-365 -153z" />
    <glyph glyph-name="ugrave" unicode="&#xf9;" horiz-adv-x="1157" 
d="M215 1413l295 19l178 -316l-168 -10zM461 -37q-328 0 -328 371v278q0 209 -12 344q152 0 268 13q-10 -68 -10 -224v-358q0 -113 39 -167t123 -54q85 0 159 64t74 147v235q0 209 -12 344q152 0 270 13q-12 -80 -12 -224v-405q0 -211 14 -340h-227l-27 158
q-55 -90 -145 -142t-174 -53z" />
    <glyph glyph-name="uacute" unicode="&#xfa;" horiz-adv-x="1157" 
d="M461 -37q-328 0 -328 371v278q0 209 -12 344q152 0 268 13q-10 -68 -10 -224v-358q0 -113 39 -167t123 -54q85 0 159 64t74 147v235q0 209 -12 344q152 0 270 13q-12 -80 -12 -224v-405q0 -211 14 -340h-227l-27 158q-55 -90 -145 -142t-174 -53zM637 1413l324 19
l-334 -316l-172 -10z" />
    <glyph glyph-name="ucircumflex" unicode="&#xfb;" horiz-adv-x="1157" 
d="M461 -37q-328 0 -328 371v278q0 209 -12 344q152 0 268 13q-10 -68 -10 -224v-358q0 -113 39 -167t123 -54q85 0 159 64t74 147v235q0 209 -12 344q152 0 270 13q-12 -80 -12 -224v-405q0 -211 14 -340h-227l-27 158q-55 -90 -145 -142t-174 -53zM457 1434h258l211 -322
l-164 -12l-178 182l-166 -168h-187z" />
    <glyph glyph-name="udieresis" unicode="&#xfc;" horiz-adv-x="1157" 
d="M461 -37q-328 0 -328 371v278q0 209 -12 344q152 0 268 13q-10 -68 -10 -224v-358q0 -113 39 -167t123 -54q85 0 159 64t74 147v235q0 209 -12 344q152 0 270 13q-12 -80 -12 -224v-405q0 -211 14 -340h-227l-27 158q-55 -90 -145 -142t-174 -53zM913 1283
q0 -58 -40 -101t-99 -43t-97 40t-38 99t39 101t98 42t98 -40t39 -98zM518 1283q0 -58 -40 -101t-99 -43t-97 40t-38 99t39 101t98 42t98 -40t39 -98z" />
    <glyph glyph-name="yacute" unicode="&#xfd;" horiz-adv-x="1003" 
d="M575 1413l324 19l-334 -316l-172 -10zM14 948l265 25l237 -623l98 266q51 129 125 345q156 0 256 8l-442 -1059q-8 -23 -53 -131t-76 -207q-170 0 -264 -10l231 532q-76 193 -92 230l-117 264q-117 264 -168 360z" />
    <glyph glyph-name="thorn" unicode="&#xfe;" horiz-adv-x="1159" 
d="M137 -100v1222q0 211 -14 334q125 6 268 31q-8 -72 -8 -246v-369q135 117 306 117t286 -134q115 -135 115 -359t-144 -378t-328 -155q-141 0 -235 70v-262q0 -123 8 -191q-10 0 -133 -11t-133 -13q12 133 12 344zM582 156q122 0 192 98t70 238t-64 222t-182 80
q-119 0 -215 -102v-454q76 -82 199 -82z" />
    <glyph glyph-name="ydieresis" unicode="&#xff;" horiz-adv-x="1003" 
d="M852 1283q0 -58 -40 -101t-99 -43t-98 40q-37 40 -37 99t38 101t98 42t99 -40t39 -98zM457 1283q0 -58 -40 -101q-39 -43 -99 -43t-98 40t-38 99t39 101t99 42t98 -40q39 -40 39 -98zM14 948l265 25l237 -623l98 266q51 129 125 345q156 0 256 8l-442 -1059
q-8 -23 -53 -131t-76 -207q-170 0 -264 -10l231 532q-76 193 -92 230l-117 264q-117 264 -168 360z" />
    <glyph glyph-name="Amacron" unicode="&#x100;" horiz-adv-x="1476" 
d="M725 1057l-211 -500h422zM819 1667h-184q-86 0 -234 -4q8 86 9 182q162 -6 330 -6t327 6q-10 -86 -10 -182q-172 4 -238 4zM10 0l473 1049q119 264 174 405l131 16l480 -1052q141 -305 198 -418l-284 -16l-166 383h-580l-71 -178q-53 -134 -76 -189h-279z" />
    <glyph glyph-name="amacron" unicode="&#x101;" horiz-adv-x="1030" 
d="M293 272q1 -59 35 -95t112 -36q78 1 134 57t61 148l4 92q-53 4 -76 4q-270 0 -270 -170zM600 1190h-184q-86 0 -234 -4q8 86 8 182q162 -6 330 -6t328 6q-10 -86 -10 -182q-172 4 -238 4zM360 -27q-137 0 -218 75q-81 74 -81 212t129 224t371 87q27 0 80 -4l2 29
q4 96 -41 142t-143 46q-152 0 -279 -90l-43 195q170 100 365 100t289 -99t90 -280l-11 -383q-2 -80 58 -80q27 0 73 15l-18 -156q-81 -31 -147 -31t-116 40t-63 120q-43 -74 -123 -118t-174 -44z" />
    <glyph glyph-name="Abreve" unicode="&#x102;" horiz-adv-x="1476" 
d="M725 1057l-211 -500h422zM734 1579q-150 0 -241 92t-92 236l185 24q0 -94 40 -142t112 -48t107 49q36 49 36 125l180 10q4 -160 -86 -253q-91 -93 -241 -93zM10 0l473 1049q119 264 174 405l131 16l480 -1052q141 -305 198 -418l-284 -16l-166 383h-580l-71 -178
q-53 -134 -76 -189h-279z" />
    <glyph glyph-name="abreve" unicode="&#x103;" horiz-adv-x="1030" 
d="M293 272q1 -59 35 -95t112 -36q78 1 134 57t61 148l4 92q-53 4 -76 4q-270 0 -270 -170zM518 1102q-150 0 -243 92q-91 92 -91 236l185 24q0 -94 40 -142q39 -48 111 -48t108 49t36 125l180 10q4 -160 -86 -253t-240 -93zM360 -27q-137 0 -218 75q-81 74 -81 212t129 224
t371 87q27 0 80 -4l2 29q4 96 -41 142t-143 46q-152 0 -279 -90l-43 195q170 100 365 100t289 -99t90 -280l-11 -383q-2 -80 58 -80q27 0 73 15l-18 -156q-81 -31 -147 -31t-116 40t-63 120q-43 -74 -123 -118t-174 -44z" />
    <glyph glyph-name="Aogonek" unicode="&#x104;" horiz-adv-x="1476" 
d="M725 1057l-211 -500h422zM1239 -225q0 -37 25 -61q26 -24 76 -24t116 42l-8 -144q-74 -43 -173 -43q-99 -1 -161 51t-63 138q0 131 170 252l-39 -2l-166 383h-580l-71 -178q-53 -134 -76 -189h-279l473 1049q119 264 174 405l131 16l480 -1052q150 -324 196 -416l4 -2
q-229 -117 -229 -225z" />
    <glyph glyph-name="aogonek" unicode="&#x105;" horiz-adv-x="1030" 
d="M293 272q1 -59 35 -95t112 -36q78 1 134 57t61 148l4 92q-53 4 -76 4q-270 0 -270 -170zM360 -27q-137 0 -218 75q-81 74 -81 212t129 224t371 87q27 0 80 -4l2 29q4 96 -41 142t-143 46q-152 0 -279 -90l-43 195q170 100 365 100t289 -99t90 -282l-11 -381
q-2 -80 58 -80q27 0 73 15l-18 -152q-217 -135 -217 -235q0 -37 26 -61t76 -24t117 42l-10 -144q-70 -43 -171 -43q-100 -1 -162 51t-62 138q0 133 188 254q-96 35 -111 147q-43 -74 -123 -118t-174 -44z" />
    <glyph glyph-name="Cacute" unicode="&#x106;" horiz-adv-x="1388" 
d="M827 -37q-317 0 -523 210t-206 509q0 338 218 565t550 228q252 0 430 -125l-59 -230q-162 131 -376 131q-214 1 -355 -149t-141 -390t138 -381q139 -143 367 -143t437 193l-13 -266q-211 -152 -467 -152zM864 1890l324 19l-334 -316l-172 -10z" />
    <glyph glyph-name="cacute" unicode="&#x107;" horiz-adv-x="983" 
d="M612 786q-132 0 -214 -87q-81 -87 -81 -227q1 -140 89 -222q88 -84 212 -84q82 0 146 27t135 90l-8 -232q-147 -88 -313 -88q-221 0 -363 140q-141 141 -141 359t147 373t375 154q178 0 309 -92l-55 -199q-106 88 -238 88zM621 1413l323 19l-334 -316l-172 -10z" />
    <glyph glyph-name="Cdotaccent" unicode="&#x10a;" horiz-adv-x="1388" 
d="M807 1903q61 -1 101 -41t40 -98t-41 -100t-103 -42t-102 39q-38 39 -38 98t41 101t102 43zM827 -37q-317 0 -523 210t-206 509q0 338 218 565t550 228q252 0 430 -125l-59 -230q-162 131 -376 131q-214 1 -355 -149t-141 -390t138 -381q139 -143 367 -143t437 193
l-13 -266q-211 -152 -467 -152z" />
    <glyph glyph-name="cdotaccent" unicode="&#x10b;" horiz-adv-x="983" 
d="M563 1425q61 0 101 -40t41 -98q0 -58 -41 -100q-40 -42 -102 -42t-102 40t-40 98t41 100t102 42zM612 786q-132 0 -214 -87q-81 -87 -81 -227q1 -140 89 -222q88 -84 212 -84q82 0 146 27t135 90l-8 -232q-147 -88 -313 -88q-221 0 -363 140q-141 141 -141 359t147 373
t375 154q178 0 309 -92l-55 -199q-106 88 -238 88z" />
    <glyph glyph-name="Ccaron" unicode="&#x10c;" horiz-adv-x="1388" 
d="M827 -37q-317 0 -523 210t-206 509q0 338 218 565t550 228q252 0 430 -125l-59 -230q-162 131 -376 131q-214 1 -355 -149t-141 -390t138 -381q139 -143 367 -143t437 193l-13 -266q-211 -152 -467 -152zM930 1593h-258l-213 318l168 12l176 -180l168 170h182z" />
    <glyph glyph-name="ccaron" unicode="&#x10d;" horiz-adv-x="983" 
d="M612 786q-132 0 -214 -87q-81 -87 -81 -227q1 -140 89 -222q88 -84 212 -84q82 0 146 27t135 90l-8 -232q-147 -88 -313 -88q-221 0 -363 140q-141 141 -141 359t147 373t375 154q178 0 309 -92l-55 -199q-106 88 -238 88zM688 1116h-258l-213 318l168 12l176 -180
l168 170h182z" />
    <glyph glyph-name="Dcaron" unicode="&#x10e;" horiz-adv-x="1505" 
d="M1143 737q0 231 -137 365t-388 135q-82 0 -155 -6q-2 -35 -2 -119v-782q0 -70 2 -107q88 -10 162 -10q262 1 390 147t128 377zM1405 742q0 -322 -208 -532t-548 -210h-465q14 137 15 494v452q0 356 -15 494l424 10q379 0 588 -192q209 -194 209 -516zM866 1577h-258
l-213 317l168 13l176 -181l168 170h183z" />
    <glyph glyph-name="dcaron" unicode="&#x10f;" horiz-adv-x="1159" 
d="M583 795q-120 -1 -193 -95t-73 -238t72 -224t180 -80q66 0 122 32t85 89v442q-73 74 -193 74zM559 989q127 0 217 -65l-2 196q0 246 -10 334q193 16 266 31q-8 -72 -8 -223v-922q0 -209 14 -340h-231l-14 102q-45 -61 -123 -100t-162 -39q-197 0 -316 137
q-118 137 -118 355t139 376t348 158zM1227 1120l-101 -18q12 190 13 360q31 4 99 12t81 9q-57 -248 -92 -363z" />
    <glyph glyph-name="Dcroat" unicode="&#x110;" horiz-adv-x="1503" 
d="M1143 737q0 231 -137 365t-388 135q-82 0 -155 -6q-2 -35 -2 -119v-293q154 0 287 6q-10 -92 -11 -196q-193 4 -274 4h-2v-303q0 -70 2 -107q88 -10 162 -10q262 1 390 147t128 377zM1405 742q0 -322 -208 -532t-548 -210h-465q14 137 15 494v139q-119 -4 -160 -4
q6 74 6 196l154 -6v127q0 356 -15 494l424 10q379 0 588 -192q209 -194 209 -516z" />
    <glyph glyph-name="dcroat" unicode="&#x111;" horiz-adv-x="1159" 
d="M583 795q-120 -1 -193 -95t-73 -238t72 -224t180 -80q66 0 122 32t85 89v442q-73 74 -193 74zM1022 340q0 -209 14 -340h-231l-14 102q-45 -61 -123 -100t-162 -39q-197 0 -316 137q-118 137 -118 355t139 376t348 158q127 0 217 -65l-2 180h-55q-90 0 -230 -4
q6 63 7 172q135 -6 278 -6q-4 133 -10 188q193 16 266 31q-8 -72 -8 -217q55 0 145 4q-10 -78 -10 -172l-135 2v-762z" />
    <glyph glyph-name="Emacron" unicode="&#x112;" horiz-adv-x="1142" 
d="M713 1651h-185q-86 0 -233 -4q8 86 8 182q162 -6 330 -6t328 6q-10 -86 -11 -182q-172 4 -237 4zM626 2q-280 0 -442 -10q14 137 15 502v452q0 369 -15 506q215 -10 428 -10t428 10q-12 -92 -16 -221q-232 4 -368 4t-195 -2q-2 -35 -2 -115v-266l485 4q-6 -88 -6 -209
l-479 4v-323q0 -82 2 -117l188 -2q229 0 432 6q-10 -94 -14 -223q-161 10 -441 10z" />
    <glyph glyph-name="emacron" unicode="&#x113;" horiz-adv-x="1052" 
d="M645 1190h-184q-86 0 -234 -4q8 86 9 182q164 -6 330 -6t327 6q-10 -86 -10 -182q-172 4 -238 4zM563 803q-100 0 -165 -66t-81 -170l449 15q-25 221 -203 221zM592 162q180 0 354 129l-6 -213q-176 -115 -375 -115q-239 0 -365 140q-126 139 -126 361t138 374t353 152
t319 -133q104 -132 105 -343l-110 -76l-566 -16q23 -260 279 -260z" />
    <glyph glyph-name="Ebreve" unicode="&#x114;" horiz-adv-x="1142" 
d="M630 1563q-150 0 -242 92q-91 92 -91 235l184 25q0 -94 40 -142q40 -49 112 -49q71 0 107 49t36 125l180 11q4 -160 -86 -253t-240 -93zM626 2q-280 0 -442 -10q14 137 15 502v452q0 369 -15 506q215 -10 428 -10t428 10q-12 -92 -16 -221q-232 4 -368 4t-195 -2
q-2 -35 -2 -115v-266l485 4q-6 -88 -6 -209l-479 4v-323q0 -82 2 -117l188 -2q229 0 432 6q-10 -94 -14 -223q-161 10 -441 10z" />
    <glyph glyph-name="ebreve" unicode="&#x115;" horiz-adv-x="1052" 
d="M560 1102q-150 0 -242 92q-91 92 -91 236l185 24q0 -94 40 -142t112 -48t107 49q36 49 36 125l180 10q4 -160 -86 -253q-91 -93 -241 -93zM563 803q-100 0 -165 -66t-81 -170l449 15q-25 221 -203 221zM592 162q180 0 354 129l-6 -213q-176 -115 -375 -115
q-239 0 -365 140q-126 139 -126 361t138 374t353 152t319 -133q104 -132 105 -343l-110 -76l-566 -16q23 -260 279 -260z" />
    <glyph glyph-name="Edotaccent" unicode="&#x116;" horiz-adv-x="1142" 
d="M772 1748q0 -58 -41 -100t-103 -42t-102 39q-39 39 -39 98t41 101q40 42 102 42t102 -40t40 -98zM626 2q-280 0 -442 -10q14 137 15 502v452q0 369 -15 506q215 -10 428 -10t428 10q-12 -92 -16 -221q-232 4 -368 4t-195 -2q-2 -35 -2 -115v-266l485 4q-6 -88 -6 -209
l-479 4v-323q0 -82 2 -117l188 -2q229 0 432 6q-10 -94 -14 -223q-161 10 -441 10z" />
    <glyph glyph-name="edotaccent" unicode="&#x117;" horiz-adv-x="1052" 
d="M561 1425q61 0 101 -40t40 -98t-40 -100t-104 -42q-62 0 -101 40t-39 98t41 100t102 42zM563 803q-100 0 -165 -66t-81 -170l449 15q-25 221 -203 221zM592 162q180 0 354 129l-6 -213q-176 -115 -375 -115q-239 0 -365 140q-126 139 -126 361t138 374t353 152t319 -133
q104 -132 105 -343l-110 -76l-566 -16q23 -260 279 -260z" />
    <glyph glyph-name="Eogonek" unicode="&#x118;" horiz-adv-x="1142" 
d="M838 -225q0 -37 24 -61t76 -24q51 0 117 42l-8 -144q-74 -43 -173 -43q-100 -1 -162 51t-63 138q2 141 223 266q-78 2 -302 2t-386 -10q14 137 15 502v452q0 369 -15 506q215 -10 428 -10t428 10q-12 -92 -16 -221q-232 4 -368 4t-195 -2q-2 -35 -2 -115v-266l485 4
q-6 -88 -6 -209l-479 4v-323q0 -82 2 -117l188 -2q229 0 432 6q-10 -94 -14 -223q-229 -115 -229 -217z" />
    <glyph glyph-name="eogonek" unicode="&#x119;" horiz-adv-x="1052" 
d="M563 803q-100 0 -165 -66t-81 -170l449 15q-25 221 -203 221zM637 -225q0 -37 25 -61q26 -24 76 -24t116 42l-8 -144q-74 -43 -173 -43q-99 -1 -161 51t-63 138q0 119 143 229h-27q-239 0 -365 140q-126 139 -126 361t138 374t353 152t319 -133q104 -132 105 -343
l-110 -76l-566 -16q23 -260 279 -260q180 0 354 129l-6 -213q-303 -176 -303 -303z" />
    <glyph glyph-name="Ecaron" unicode="&#x11a;" horiz-adv-x="1142" 
d="M626 2q-280 0 -442 -10q14 137 15 502v452q0 369 -15 506q215 -10 428 -10t428 10q-12 -92 -16 -221q-232 4 -368 4t-195 -2q-2 -35 -2 -115v-266l485 4q-6 -88 -6 -209l-479 4v-323q0 -82 2 -117l188 -2q229 0 432 6q-10 -94 -14 -223q-161 10 -441 10zM754 1577h-258
l-213 317l168 13l176 -181l168 170h182z" />
    <glyph glyph-name="ecaron" unicode="&#x11b;" horiz-adv-x="1052" 
d="M563 803q-100 0 -165 -66t-81 -170l449 15q-25 221 -203 221zM592 162q180 0 354 129l-6 -213q-176 -115 -375 -115q-239 0 -365 140q-126 139 -126 361t138 374t353 152t319 -133q104 -132 105 -343l-110 -76l-566 -16q23 -260 279 -260zM684 1116h-258l-213 318l168 12
l176 -180l168 170h182z" />
    <glyph glyph-name="Gbreve" unicode="&#x11e;" horiz-adv-x="1513" 
d="M836 1579q-150 0 -241 92t-91 236l184 24q0 -94 40 -142t112 -48t108 49t35 125l180 10q4 -160 -86 -253q-91 -93 -241 -93zM832 -35q-310 0 -522 210q-212 211 -212 531t226 544t563 225q125 0 254 -38t215 -96l-70 -223q-72 57 -186 93t-226 36q-231 0 -372 -148
q-142 -148 -142 -388t148 -382t364 -143q147 0 261 54v217q0 86 -5 121q-62 2 -136 2t-224 -7q6 143 2 215q186 -6 316 -6t303 9q-14 -113 -15 -498v-178q-232 -150 -542 -150z" />
    <glyph glyph-name="gbreve" unicode="&#x11f;" horiz-adv-x="1011" 
d="M330 621q0 -87 49 -137t132 -50t134 54t51 140q0 87 -48 138t-130 51t-135 -55t-53 -141zM231 -186q1 -49 59 -84t183 -35t212 48t87 116q0 100 -229 100l-33 2q-55 0 -129 4q-150 -63 -150 -151zM514 1102q-150 0 -243 92q-91 92 -91 236l185 24q-1 -94 39 -142t111 -48
t108 49q36 49 36 125l181 10q4 -160 -86 -253t-240 -93zM922 632q0 -154 -121 -256q-121 -103 -305 -104q-72 0 -134 19q-63 -39 -63 -75t46 -51t175 -15h43q432 0 432 -248q1 -152 -155 -260t-376 -109q-220 0 -332 69q-110 69 -109 175q0 150 200 235q-117 54 -117 152
t140 178q-144 98 -144 263t121 275t303 109q94 0 168 -31q61 184 289 158l-10 -192q-117 12 -168 -33q117 -105 117 -259z" />
    <glyph glyph-name="Gdotaccent" unicode="&#x120;" horiz-adv-x="1513" 
d="M694 1759q0 59 41 101t103 43q62 -1 101 -41q40 -40 40 -98t-41 -100t-102 -42t-102 39q-40 39 -40 98zM832 -35q-310 0 -522 210q-212 211 -212 531t226 544t563 225q125 0 254 -38t215 -96l-70 -223q-72 57 -186 93t-226 36q-231 0 -372 -148q-142 -148 -142 -388
t148 -382t364 -143q147 0 261 54v217q0 86 -5 121q-62 2 -136 2t-224 -7q6 143 2 215q186 -6 316 -6t303 9q-14 -113 -15 -498v-178q-232 -150 -542 -150z" />
    <glyph glyph-name="gdotaccent" unicode="&#x121;" horiz-adv-x="1011" 
d="M528 1425q62 0 102 -40t40 -98t-41 -100t-103 -42t-102 40q-39 40 -39 98t41 100t102 42zM330 621q0 -87 49 -137t132 -50t134 54t51 140q0 87 -48 138t-130 51t-135 -55t-53 -141zM231 -186q1 -49 59 -84t183 -35t212 48t87 116q0 100 -229 100l-33 2q-55 0 -129 4
q-150 -63 -150 -151zM922 637q0 -158 -121 -261t-305 -104q-72 0 -134 19q-63 -39 -63 -75t46 -51t175 -15h43q432 0 432 -248q1 -152 -155 -260t-376 -109q-220 0 -332 69q-110 69 -109 175q0 150 200 235q-117 54 -117 152t140 178q-144 98 -144 263t121 275t303 109
q88 0 162 -28q59 203 295 176l-10 -193q-129 16 -180 -45q129 -104 129 -262z" />
    <glyph glyph-name="Gcommaaccent" unicode="&#x122;" horiz-adv-x="1513" 
d="M969 -252q0 -160 -256 -297l-54 64l52 34q75 53 75 109t-65 96l-29 15q14 57 54 88t94 31t91 -40q38 -39 38 -100zM832 -35q-310 0 -522 210q-212 211 -212 531t226 544t563 225q125 0 254 -38t215 -96l-70 -223q-72 57 -186 93t-226 36q-231 0 -372 -148
q-142 -148 -142 -388t148 -382t364 -143q147 0 261 54v217q0 86 -5 121q-62 2 -136 2t-224 -7q6 143 2 215q186 -6 316 -6t303 9q-14 -113 -15 -498v-178q-232 -150 -542 -150z" />
    <glyph glyph-name="gcommaaccent" unicode="&#x123;" horiz-adv-x="1011" 
d="M567 1372q0 -58 66 -92l26 -16q-14 -57 -54 -88t-92 -31t-90 39t-38 102q0 160 254 297l53 -65l-49 -33q-76 -55 -76 -113zM330 621q0 -87 49 -137t132 -50t134 54t51 140q0 87 -48 138t-130 51t-135 -55t-53 -141zM231 -186q1 -49 59 -84t183 -35t212 48t87 116
q0 100 -229 100l-33 2q-55 0 -129 4q-150 -63 -150 -151zM922 637q0 -158 -121 -261t-305 -104q-72 0 -134 19q-63 -39 -63 -75t46 -51t175 -15h43q432 0 432 -248q1 -152 -155 -260t-376 -109q-220 0 -332 69q-110 69 -109 175q0 150 200 235q-117 54 -117 152t140 178
q-144 98 -144 263t121 275t303 109q88 0 162 -28q59 203 295 176l-10 -193q-129 16 -180 -45q129 -104 129 -262z" />
    <glyph glyph-name="Hbar" unicode="&#x126;" horiz-adv-x="1605" 
d="M463 1032v-219h680v217l-166 2h-514zM1143 616h-680v-333q0 -209 8 -283h-289q14 137 15 494v528q-111 -4 -162 -4q6 72 6 176l152 -4q-4 160 -11 250q205 0 289 10q-8 -68 -8 -262h676q-4 176 -13 252q205 0 293 10q-12 -78 -12 -260l166 4q-10 -88 -10 -176l-156 2
l2 -725q0 -223 10 -295h-293q16 125 17 465v151z" />
    <glyph glyph-name="hbar" unicode="&#x127;" horiz-adv-x="1157" 
d="M778 348v238q0 201 -147 200q-94 0 -170 -72t-78 -161v-352q0 -129 8 -201h-266q12 131 12 338v766q-102 -4 -143 -4q6 63 6 172q90 -4 135 -4q-2 86 -10 186q197 16 266 31q-8 -63 -8 -219q154 0 289 6q-10 -78 -10 -172q-172 4 -246 4h-33v-324q57 96 153 152t189 57
q151 0 225 -90t74 -254v-434q0 -105 8 -211h-268q14 123 14 348z" />
    <glyph glyph-name="Imacron" unicode="&#x12a;" horiz-adv-x="671" 
d="M420 1651h-184q-86 0 -234 -4q8 86 8 182q162 -6 330 -6t328 6q-10 -86 -11 -182q-172 4 -237 4zM205 946q0 356 -15 494q201 0 285 10q-8 -80 -8 -303v-852q0 -219 8 -295h-285q14 137 15 494v452z" />
    <glyph glyph-name="imacron" unicode="&#x12b;" horiz-adv-x="520" 
d="M342 1190h-184q-86 0 -234 -4q8 86 8 182q164 -6 331 -6t327 6q-10 -86 -10 -182q-172 4 -238 4zM137 336v274q0 225 -14 348q125 0 268 15q-8 -72 -8 -219v-555q0 -127 8 -199h-268q14 123 14 336z" />
    <glyph glyph-name="Ibreve" unicode="&#x12c;" horiz-adv-x="671" 
d="M335 1563q-150 0 -242 92q-91 92 -91 235l184 25q0 -94 40 -142q40 -49 112 -49t108 49t35 125l181 11q4 -160 -86 -253t-241 -93zM205 946q0 356 -15 494q201 0 285 10q-8 -80 -8 -303v-852q0 -219 8 -295h-285q14 137 15 494v452z" />
    <glyph glyph-name="ibreve" unicode="&#x12d;" horiz-adv-x="520" 
d="M260 1102q-150 0 -243 92q-91 92 -91 236l185 24q0 -94 40 -142q39 -48 111 -48t108 49t36 125l180 10q4 -160 -86 -253t-240 -93zM137 336v274q0 225 -14 348q125 0 268 15q-8 -72 -8 -219v-555q0 -127 8 -199h-268q14 123 14 336z" />
    <glyph glyph-name="Iogonek" unicode="&#x12e;" horiz-adv-x="673" 
d="M205 946q0 356 -15 494q201 0 285 10q-8 -80 -8 -303v-852q0 -229 6 -291l6 -4q-195 -115 -194 -225q1 -37 25 -61t75 -24t117 42l-8 -144q-74 -43 -173 -43q-99 -1 -162 51t-63 138q2 145 193 266h-99q14 137 15 494v452z" />
    <glyph glyph-name="iogonek" unicode="&#x12f;" horiz-adv-x="520" 
d="M119 1303q0 61 44 105t107 44q62 0 106 -42t44 -102t-44 -104t-108 -45q-64 0 -107 42q-42 42 -42 102zM205 -225q1 -37 25 -61t75 -24t117 42l-8 -144q-74 -43 -173 -43q-99 -1 -161 51t-64 138q2 141 183 266h-76q14 123 14 336v274q0 225 -14 348q125 0 268 15
q-8 -72 -8 -219v-555q0 -127 8 -199q-186 -117 -186 -225z" />
    <glyph glyph-name="Idotaccent" unicode="&#x130;" horiz-adv-x="671" 
d="M475 1748q0 -58 -41 -100t-102 -42t-102 39q-40 39 -40 98t41 101t103 42t101 -40q40 -40 40 -98zM205 946q0 356 -15 494q201 0 285 10q-8 -80 -8 -303v-852q0 -219 8 -295h-285q14 137 15 494v452z" />
    <glyph glyph-name="dotlessi" unicode="&#x131;" horiz-adv-x="520" 
d="M137 336v274q0 225 -14 348q125 0 268 15q-8 -72 -8 -219v-555q0 -127 8 -199h-268q14 123 14 336z" />
    <glyph glyph-name="Kcommaaccent" unicode="&#x136;" horiz-adv-x="1380" 
d="M721 -335q0 56 -66 95l-28 15q14 57 54 88t93 31t91 -39t38 -101q0 -160 -256 -297l-53 64l51 35q76 53 76 109zM461 295q0 -219 8 -295h-285q14 137 15 494v452q0 356 -15 494q201 0 285 10q-8 -80 -8 -303v-367l241 281q4 4 326 383h320l-631 -690l315 -363
q111 -127 344 -389l-313 -20l-602 706v-393z" />
    <glyph glyph-name="kcommaaccent" unicode="&#x137;" horiz-adv-x="1021" 
d="M498 -335q0 56 -66 95l-29 15q15 57 55 88t93 31t91 -39t38 -101q0 -160 -256 -297l-53 64l51 35q76 53 76 109zM383 201q0 -133 8 -201h-268q14 123 14 338v782q0 211 -14 334q197 16 268 31q-8 -72 -8 -248v-690q174 219 326 424q182 0 288 8l-387 -459l88 -106
q45 -51 167 -203t163 -195l-266 -41l-379 482v-256z" />
    <glyph glyph-name="Lacute" unicode="&#x139;" horiz-adv-x="1112" 
d="M624 2q-278 0 -440 -10q14 137 15 502v452q0 356 -15 494q201 0 285 10q-8 -80 -8 -303v-809q0 -84 4 -121q55 -2 199 -2t413 4q-14 -121 -16 -227q-159 10 -437 10zM449 1858l323 18l-334 -315l-172 -11z" />
    <glyph glyph-name="lacute" unicode="&#x13a;" horiz-adv-x="520" 
d="M137 338v782q0 211 -14 334q197 16 268 31q-8 -72 -8 -246v-1038q0 -129 8 -201h-268q14 123 14 338zM305 1884l324 19l-334 -316l-172 -10z" />
    <glyph glyph-name="Lcommaaccent" unicode="&#x13b;" horiz-adv-x="1112" 
d="M624 2q-278 0 -440 -10q14 137 15 502v452q0 356 -15 494q201 0 285 10q-8 -80 -8 -303v-809q0 -84 4 -121q55 -2 199 -2t413 4q-14 -121 -16 -227q-159 10 -437 10zM627 -106q53 0 91 -39t38 -101q0 -160 -256 -297l-54 64l52 35q76 53 76 109t-66 95l-29 15
q15 57 55 88t93 31z" />
    <glyph glyph-name="lcommaaccent" unicode="&#x13c;" horiz-adv-x="520" 
d="M137 338v782q0 211 -14 334q197 16 268 31q-8 -72 -8 -246v-1038q0 -129 8 -201h-268q14 123 14 338zM201 -335q0 56 -66 95l-29 15q14 57 54 88t94 31q53 0 91 -39t38 -101q0 -160 -256 -297l-53 64l51 35q76 53 76 109z" />
    <glyph glyph-name="Lcaron" unicode="&#x13d;" horiz-adv-x="1112" 
d="M624 2q-278 0 -440 -10q14 137 15 502v452q0 356 -15 494q201 0 285 10q-8 -80 -8 -303v-809q0 -84 4 -121q55 -2 199 -2t413 4q-14 -121 -16 -227q-159 10 -437 10zM739 1085l-100 -18q12 190 12 360q31 3 99 11t81 10q-57 -248 -92 -363z" />
    <glyph glyph-name="lcaron" unicode="&#x13e;" horiz-adv-x="520" 
d="M137 338v782q0 211 -14 334q197 16 268 31q-8 -72 -8 -246v-1038q0 -129 8 -201h-268q14 123 14 338zM588 1120l-101 -18q12 190 13 360q30 4 98 12t82 9q-57 -248 -92 -363z" />
    <glyph glyph-name="Ldot" unicode="&#x13f;" horiz-adv-x="1112" 
d="M1020 792q0 -58 -41 -100t-103 -43q-62 0 -101 40q-40 40 -40 98q0 59 41 101q40 42 102 42t102 -40t40 -98zM624 2q-278 0 -440 -10q14 137 15 502v452q0 356 -15 494q201 0 285 10q-8 -80 -8 -303v-809q0 -84 4 -121q55 -2 199 -2t413 4q-14 -121 -16 -227
q-159 10 -437 10z" />
    <glyph glyph-name="ldot" unicode="&#x140;" horiz-adv-x="790" 
d="M647 856q61 0 101 -40t40 -98t-40 -101q-42 -42 -104 -42t-101 40q-39 41 -39 99t41 100t102 42zM137 338v782q0 211 -14 334q197 16 268 31q-8 -72 -8 -246v-1038q0 -129 8 -201h-268q14 123 14 338z" />
    <glyph glyph-name="Lslash" unicode="&#x141;" horiz-adv-x="1112" 
d="M624 2q-278 0 -440 -10q14 137 15 502v81l-121 -73q-16 41 -84 172q109 57 205 112v160q0 356 -15 494q201 0 285 10q-8 -80 -8 -303v-227q92 53 219 131q29 -76 82 -172q-219 -119 -301 -166v-375q0 -84 4 -121q55 -2 199 -2t413 4q-14 -121 -16 -227q-159 10 -437 10z
" />
    <glyph glyph-name="lslash" unicode="&#x142;" horiz-adv-x="538" 
d="M145 338v256q-53 -25 -116 -64q-39 96 -74 164l190 94v332q0 211 -14 334q197 16 268 31q-8 -72 -8 -246v-334l125 72q31 -82 72 -166q-70 -35 -197 -102v-508q0 -129 8 -201h-268q14 123 14 338z" />
    <glyph glyph-name="Nacute" unicode="&#x143;" horiz-adv-x="1615" 
d="M870 1874l324 18l-334 -315l-172 -10zM1178 946q0 362 -17 494q195 0 283 10q-10 -76 -17 -303l-8 -862q-6 -229 4 -301l-123 -17l-860 1006v-678q0 -219 9 -295h-279q16 137 23 494l6 483q4 319 -9 477l123 16l865 -1017v493z" />
    <glyph glyph-name="nacute" unicode="&#x144;" horiz-adv-x="1157" 
d="M778 348v238q0 201 -147 200q-92 0 -170 -74t-78 -159v-342q0 -139 8 -211h-266q12 131 12 348v264q0 211 -12 342q57 0 242 19l14 -195q59 98 155 154t189 57q151 0 225 -90t74 -254v-434q0 -105 8 -211h-268q14 123 14 348zM649 1413l324 19l-334 -316l-172 -10z" />
    <glyph glyph-name="Ncommaaccent" unicode="&#x145;" horiz-adv-x="1615" 
d="M752 -335q0 56 -66 95l-29 15q15 57 55 88t93 31t91 -39t38 -101q0 -160 -256 -297l-53 64l51 35q76 53 76 109zM1178 946q0 362 -17 494q195 0 283 10q-10 -76 -17 -303l-8 -862q-6 -229 4 -301l-123 -17l-860 1006v-678q0 -219 9 -295h-279q16 137 23 494l6 483
q4 319 -9 477l123 16l865 -1017v493z" />
    <glyph glyph-name="ncommaaccent" unicode="&#x146;" horiz-adv-x="1157" 
d="M778 348v238q0 201 -147 200q-92 0 -170 -74t-78 -159v-342q0 -139 8 -211h-266q12 131 12 348v264q0 211 -12 342q57 0 242 19l14 -195q59 98 155 154t189 57q151 0 225 -90t74 -254v-434q0 -105 8 -211h-268q14 123 14 348zM586 -106q53 0 91 -39t38 -101
q0 -160 -256 -297l-53 64l51 35q75 53 75 109t-65 95l-29 15q14 57 54 88t94 31z" />
    <glyph glyph-name="Ncaron" unicode="&#x147;" horiz-adv-x="1615" 
d="M936 1577h-258l-213 317l168 13l176 -181l168 170h182zM1178 946q0 362 -17 494q195 0 283 10q-10 -76 -17 -303l-8 -862q-6 -229 4 -301l-123 -17l-860 1006v-678q0 -219 9 -295h-279q16 137 23 494l6 483q4 319 -9 477l123 16l865 -1017v493z" />
    <glyph glyph-name="ncaron" unicode="&#x148;" horiz-adv-x="1157" 
d="M778 348v238q0 201 -147 200q-92 0 -170 -74t-78 -159v-342q0 -139 8 -211h-266q12 131 12 348v264q0 211 -12 342q57 0 242 19l14 -195q59 98 155 154t189 57q151 0 225 -90t74 -254v-434q0 -105 8 -211h-268q14 123 14 348zM715 1116h-258l-213 318l168 12l176 -180
l168 170h182z" />
    <glyph glyph-name="Omacron" unicode="&#x14c;" horiz-adv-x="1644" 
d="M812 -37q-318 0 -516 209t-198 510q0 340 208 566t526 226t517 -208q198 -209 197 -510q0 -340 -208 -566t-526 -227zM360 708q0 -238 128 -384q128 -148 332 -148t334 158t130 394t-129 385t-332 149t-333 -158t-130 -396zM905 1667h-184q-86 0 -234 -4q8 86 9 182
q164 -6 330 -6t327 6q-10 -86 -10 -182q-172 4 -238 4z" />
    <glyph glyph-name="omacron" unicode="&#x14d;" horiz-adv-x="1124" 
d="M562 793q-110 0 -180 -86t-69 -235q0 -148 66 -230q67 -82 181 -82t182 86t67 234q0 148 -68 231q-69 82 -179 82zM1051 488q1 -219 -139 -372t-358 -153t-349 141q-131 142 -131 360t138 372t356 154t350 -142q132 -141 133 -360zM647 1190h-184q-86 0 -234 -4
q8 86 9 182q164 -6 330 -6t327 6q-10 -86 -10 -182q-172 4 -238 4z" />
    <glyph glyph-name="Obreve" unicode="&#x14e;" horiz-adv-x="1644" 
d="M822 1579q-150 0 -241 92t-92 236l185 24q0 -94 40 -142t112 -48t107 49q36 49 36 125l180 10q4 -160 -86 -253q-91 -93 -241 -93zM812 -37q-318 0 -516 209t-198 510q0 340 208 566t526 226t517 -208q198 -209 197 -510q0 -340 -208 -566t-526 -227zM360 708
q0 -238 128 -384q128 -148 332 -148t334 158t130 394t-129 385t-332 149t-333 -158t-130 -396z" />
    <glyph glyph-name="obreve" unicode="&#x14f;" horiz-adv-x="1124" 
d="M562 1102q-150 0 -241 92t-92 236l185 24q0 -94 40 -142t112 -48t107 49q36 49 36 125l180 10q4 -160 -86 -253q-91 -93 -241 -93zM562 793q-110 0 -180 -86t-69 -235q0 -148 66 -230q67 -82 181 -82t182 86t67 234q0 148 -68 231q-69 82 -179 82zM1051 488
q1 -219 -139 -372t-358 -153t-349 141q-131 142 -131 360t138 372t356 154t350 -142q132 -141 133 -360z" />
    <glyph glyph-name="Ohungarumlaut" unicode="&#x150;" horiz-adv-x="1644" 
d="M812 -37q-318 0 -516 209t-198 510q0 340 208 566t526 226t517 -208q198 -209 197 -510q0 -340 -208 -566t-526 -227zM360 708q0 -238 128 -384q128 -148 332 -148t334 158t130 394t-129 385t-332 149t-333 -158t-130 -396zM1022 1905l285 20l-228 -330l-168 -6z
M655 1901l277 16l-199 -326l-168 -6z" />
    <glyph glyph-name="ohungarumlaut" unicode="&#x151;" horiz-adv-x="1124" 
d="M562 793q-110 0 -180 -86t-69 -235q0 -148 66 -230q67 -82 181 -82t182 86t67 234q0 148 -68 231q-69 82 -179 82zM1051 488q1 -219 -139 -372t-358 -153t-349 141q-131 142 -131 360t138 372t356 154t350 -142q132 -141 133 -360zM764 1427l285 21l-228 -330l-168 -6z
M397 1423l277 17l-199 -326l-168 -6z" />
    <glyph glyph-name="OE" unicode="&#x152;" horiz-adv-x="1943" 
d="M848 217q104 0 145 4q6 131 6 254v496q0 160 -4 248q-47 6 -123 6q-231 0 -369 -135t-138 -362t135 -369t348 -142zM98 716q0 316 220 523t546 207l553 -4q209 0 424 10q-12 -92 -16 -223q-229 4 -365 4t-194 -2q-4 -35 -4 -113v-266l483 4q-6 -92 -6 -209l-477 4v-323
q0 -80 4 -115l184 -2q233 0 432 6q-10 -98 -14 -225q-160 10 -434 10l-588 -6q-317 0 -533 202q-215 202 -215 518z" />
    <glyph glyph-name="oe" unicode="&#x153;" horiz-adv-x="1787" 
d="M1298 803q-100 0 -164 -66t-81 -170l448 15q-25 221 -203 221zM558 793q-110 0 -178 -86t-67 -235q-1 -148 63 -230t179 -82t181 86t65 234q0 148 -67 231q-66 82 -176 82zM1327 162q178 0 356 129l-8 -213q-176 -115 -372 -115q-260 0 -390 180q-131 -180 -356 -180
t-354 141q-129 140 -129 360t136 373t364 153t358 -185q137 184 377 184q207 0 311 -132t104 -343l-110 -76l-563 -16q18 -260 276 -260z" />
    <glyph glyph-name="Racute" unicode="&#x154;" horiz-adv-x="1335" 
d="M696 1874l324 18l-334 -315l-172 -10zM457 735h186q125 0 200 72t75 180q0 250 -302 250q-86 0 -159 -6v-496zM459 537v-242q0 -209 6 -295h-283q14 137 15 494v452q0 356 -15 494l410 10q278 2 434 -119t152 -307q-6 -285 -293 -422l221 -321q96 -140 194 -269l-301 -28
l-344 553h-196z" />
    <glyph glyph-name="racute" unicode="&#x155;" horiz-adv-x="745" 
d="M383 535v-324q0 -139 8 -211h-266q12 106 12 348v295q0 174 -18 301q113 4 243 31l19 -205q104 192 340 219l-25 -258q-119 18 -216 -34t-97 -162zM477 1413l324 19l-334 -316l-172 -10z" />
    <glyph glyph-name="Rcommaaccent" unicode="&#x156;" horiz-adv-x="1335" 
d="M637 -335q0 56 -66 95l-28 15q14 57 54 88t93 31t91 -39t38 -101q0 -160 -256 -297l-53 64l51 35q76 53 76 109zM457 735h186q125 0 200 72t75 180q0 250 -302 250q-86 0 -159 -6v-496zM459 537v-242q0 -209 6 -295h-283q14 137 15 494v452q0 356 -15 494l410 10
q278 2 434 -119t152 -307q-6 -285 -293 -422l221 -321q96 -140 194 -269l-301 -28l-344 553h-196z" />
    <glyph glyph-name="rcommaaccent" unicode="&#x157;" horiz-adv-x="745" 
d="M383 535v-324q0 -139 8 -211h-266q12 106 12 348v295q0 174 -18 301q113 4 243 31l19 -205q104 192 340 219l-25 -258q-119 18 -216 -34t-97 -162zM213 -335q0 56 -66 95l-28 15q14 57 54 88t93 31t91 -39t38 -101q0 -160 -256 -297l-53 64l51 35q76 53 76 109z" />
    <glyph glyph-name="Rcaron" unicode="&#x158;" horiz-adv-x="1335" 
d="M764 1577h-258l-213 317l168 13l176 -181l168 170h182zM457 735h186q125 0 200 72t75 180q0 250 -302 250q-86 0 -159 -6v-496zM459 537v-242q0 -209 6 -295h-283q14 137 15 494v452q0 356 -15 494l410 10q278 2 434 -119t152 -307q-6 -285 -293 -422l221 -321
q96 -140 194 -269l-301 -28l-344 553h-196z" />
    <glyph glyph-name="rcaron" unicode="&#x159;" horiz-adv-x="745" 
d="M383 535v-324q0 -139 8 -211h-266q12 106 12 348v295q0 174 -18 301q113 4 243 31l19 -205q104 192 340 219l-25 -258q-119 18 -216 -34t-97 -162zM545 1116h-258l-213 318l168 12l176 -180l168 170h182z" />
    <glyph glyph-name="Sacute" unicode="&#x15a;" horiz-adv-x="1103" 
d="M1012 410q0 -197 -135 -322t-359 -125q-104 0 -223 35t-203 86l12 256q72 -60 192 -108t228 -48t170 52t64 136q0 83 -64 141t-153 105q-89 48 -181 102t-155 138t-64 191q0 186 131 306t339 120t360 -107l-66 -215q-141 100 -293 100q-96 0 -155 -50q-59 -51 -59 -123
t62 -128q64 -56 154 -100q90 -45 180 -99t154 -142t64 -201zM664 1890l323 19l-334 -316l-172 -10z" />
    <glyph glyph-name="sacute" unicode="&#x15b;" horiz-adv-x="880" 
d="M477 989q172 0 301 -74l-63 -190q-111 74 -247 74t-136 -101q0 -38 50 -66t122 -52t142 -58q70 -33 121 -93q50 -60 50 -144q0 -147 -111 -235q-112 -87 -284 -87q-86 0 -186 24t-158 60l10 217q160 -111 334 -110q74 0 118 26t44 74q0 47 -50 79q-50 33 -121 57t-142 56
t-121 92q-50 62 -50 148q0 129 102 216t275 87zM535 1413l323 19l-334 -316l-172 -10z" />
    <glyph glyph-name="Scedilla" unicode="&#x15e;" horiz-adv-x="1103" 
d="M1012 410q0 -180 -115 -301t-309 -142l-27 -98q213 -55 213 -195q0 -78 -63 -130t-163 -52t-200 31l31 129q90 -29 164 -29t73 49q0 59 -188 99l-8 8q8 27 51 186q-219 16 -379 119l12 256q72 -60 192 -108t228 -48t170 52t64 136q0 83 -64 141t-153 105q-89 48 -181 102
t-155 138t-64 191q0 186 131 306t339 120t360 -107l-66 -215q-141 100 -293 100q-96 0 -155 -50q-59 -51 -59 -123t62 -128q64 -56 154 -100q90 -45 180 -99t154 -142t64 -201z" />
    <glyph glyph-name="scedilla" unicode="&#x15f;" horiz-adv-x="880" 
d="M477 989q172 0 301 -74l-63 -190q-111 74 -247 74t-136 -101q0 -38 50 -66t122 -52t142 -58q70 -33 121 -93q50 -60 50 -144q0 -131 -89 -215t-234 -103l-27 -98q213 -55 213 -195q0 -78 -64 -130t-164 -52t-198 31l31 129q89 -29 163 -29t74 49q0 59 -188 99l-8 8
q8 27 51 186q-190 10 -299 82l10 217q160 -111 334 -110q74 0 118 26t44 74q0 47 -50 79q-50 33 -121 57t-142 56t-121 92q-50 62 -50 148q0 129 102 216t275 87z" />
    <glyph glyph-name="Scaron" unicode="&#x160;" horiz-adv-x="1103" 
d="M1012 410q0 -197 -135 -322t-359 -125q-104 0 -223 35t-203 86l12 256q72 -60 192 -108t228 -48t170 52t64 136q0 83 -64 141t-153 105q-89 48 -181 102t-155 138t-64 191q0 186 131 306t339 120t360 -107l-66 -215q-141 100 -293 100q-96 0 -155 -50q-59 -51 -59 -123
t62 -128q64 -56 154 -100q90 -45 180 -99t154 -142t64 -201zM729 1593h-258l-213 318l168 12l176 -180l168 170h182z" />
    <glyph glyph-name="scaron" unicode="&#x161;" horiz-adv-x="880" 
d="M477 989q172 0 301 -74l-63 -190q-111 74 -247 74t-136 -101q0 -38 50 -66t122 -52t142 -58q70 -33 121 -93q50 -60 50 -144q0 -147 -111 -235q-112 -87 -284 -87q-86 0 -186 24t-158 60l10 217q160 -111 334 -110q74 0 118 26t44 74q0 47 -50 79q-50 33 -121 57t-142 56
t-121 92q-50 62 -50 148q0 129 102 216t275 87zM600 1116h-258l-213 318l168 12l176 -180l168 170h182z" />
    <glyph glyph-name="Tcommaaccent" unicode="&#x162;" horiz-adv-x="1333" 
d="M795 1094v-799q0 -219 8 -295h-285q14 137 14 494v403q0 217 -4 328q-168 0 -471 -4q8 90 9 231q312 -10 600 -10t610 10q-12 -94 -16 -231q-303 4 -463 4q-2 -43 -2 -131zM608 -335q0 56 -65 95l-29 15q14 57 54 88t93 31t91 -39t39 -101q0 -160 -256 -297l-54 64l51 35
q76 53 76 109z" />
    <glyph glyph-name="Tcommaaccent" unicode="&#x21a;" horiz-adv-x="1333" 
d="M795 1094v-799q0 -219 8 -295h-285q14 137 14 494v403q0 217 -4 328q-168 0 -471 -4q8 90 9 231q312 -10 600 -10t610 10q-12 -94 -16 -231q-303 4 -463 4q-2 -43 -2 -131zM608 -335q0 56 -65 95l-29 15q14 57 54 88t93 31t91 -39t39 -101q0 -160 -256 -297l-54 64l51 35
q76 53 76 109z" />
    <glyph glyph-name="tcommaaccent" unicode="&#x163;" horiz-adv-x="753" 
d="M197 776h-170l49 191h123l18 200l225 70v-270h252q-6 -68 -6 -191h-246v-479q0 -69 26 -97t91 -28t137 47l-6 -194q-82 -55 -217 -55q-278 -1 -276 306v500zM410 -335q0 56 -66 95l-29 15q15 57 55 88t93 31t91 -39t38 -101q0 -160 -256 -297l-53 64l51 35q76 53 76 109z
" />
    <glyph glyph-name="tcommaaccent" unicode="&#x21b;" horiz-adv-x="753" 
d="M197 776h-170l49 191h123l18 200l225 70v-270h252q-6 -68 -6 -191h-246v-479q0 -69 26 -97t91 -28t137 47l-6 -194q-82 -55 -217 -55q-278 -1 -276 306v500zM410 -335q0 56 -66 95l-29 15q15 57 55 88t93 31t91 -39t38 -101q0 -160 -256 -297l-53 64l51 35q76 53 76 109z
" />
    <glyph glyph-name="Tcaron" unicode="&#x164;" horiz-adv-x="1333" 
d="M795 1094v-799q0 -219 8 -295h-285q14 137 14 494v403q0 217 -4 328q-168 0 -471 -4q8 90 9 231q312 -10 600 -10t610 10q-12 -94 -16 -231q-303 4 -463 4q-2 -43 -2 -131zM793 1577h-258l-213 317l167 13l177 -181l168 170h182z" />
    <glyph glyph-name="tcaron" unicode="&#x165;" horiz-adv-x="753" 
d="M203 776h-170l49 191h123l18 200l226 70v-270h251q-6 -68 -6 -191h-245v-479q-1 -69 25 -97t91 -28t137 47l-6 -194q-82 -55 -217 -55q-278 -1 -276 306v500zM666 1133l-101 -19q12 190 13 361q30 4 98 11t82 9q-57 -247 -92 -362z" />
    <glyph glyph-name="Umacron" unicode="&#x16a;" horiz-adv-x="1564" 
d="M864 1651h-184q-86 0 -234 -4q8 86 9 182q165 -6 331 -6t326 6q-10 -86 -10 -182q-172 4 -238 4zM1386 608q0 -172 -40 -282t-125 -193q-169 -170 -447 -170q-278 1 -437 145t-159 396v442q0 356 -14 494q201 0 285 10q-8 -80 -9 -303v-576q0 -385 351 -385q161 0 247 92
t86 254v414q0 362 -16 494q203 0 289 10q-10 -74 -11 -303v-539z" />
    <glyph glyph-name="umacron" unicode="&#x16b;" horiz-adv-x="1157" 
d="M664 1190h-185q-86 0 -233 -4q8 86 8 182q164 -6 330 -6t327 6q-10 -86 -10 -182q-172 4 -237 4zM461 -37q-328 0 -328 371v278q0 209 -12 344q152 0 268 13q-10 -68 -10 -224v-358q0 -113 39 -167t123 -54q85 0 159 64t74 147v235q0 209 -12 344q152 0 270 13
q-12 -80 -12 -224v-405q0 -211 14 -340h-227l-27 158q-55 -90 -145 -142t-174 -53z" />
    <glyph glyph-name="Ubreve" unicode="&#x16c;" horiz-adv-x="1564" 
d="M782 1563q-150 0 -242 92q-91 92 -91 235l184 25q0 -94 40 -142q39 -49 111 -49t108 49t36 125l180 11q4 -160 -86 -253t-240 -93zM1386 608q0 -172 -40 -282t-125 -193q-169 -170 -447 -170q-278 1 -437 145t-159 396v442q0 356 -14 494q201 0 285 10q-8 -80 -9 -303
v-576q0 -385 351 -385q161 0 247 92t86 254v414q0 362 -16 494q203 0 289 10q-10 -74 -11 -303v-539z" />
    <glyph glyph-name="ubreve" unicode="&#x16d;" horiz-adv-x="1157" 
d="M578 1102q-150 0 -241 92t-91 236l184 24q0 -94 40 -142t112 -48t108 49t35 125l180 10q4 -160 -86 -253q-91 -93 -241 -93zM461 -37q-328 0 -328 371v278q0 209 -12 344q152 0 268 13q-10 -68 -10 -224v-358q0 -113 39 -167t123 -54q85 0 159 64t74 147v235
q0 209 -12 344q152 0 270 13q-12 -80 -12 -224v-405q0 -211 14 -340h-227l-27 158q-55 -90 -145 -142t-174 -53z" />
    <glyph glyph-name="Uring" unicode="&#x16e;" horiz-adv-x="1564" 
d="M1386 608q0 -172 -40 -282t-125 -193q-169 -170 -447 -170q-278 1 -437 145t-159 396v442q0 356 -14 494q201 0 285 10q-8 -80 -9 -303v-576q0 -385 351 -385q161 0 247 92t86 254v414q0 362 -16 494q203 0 289 10q-10 -74 -11 -303v-539zM893 1807q0 50 -30 82t-82 32
t-83 -33q-30 -33 -30 -83t30 -83q30 -32 82 -32q51 0 82 34t31 83zM518 1800q0 102 75 174t191 72t188 -66q70 -66 70 -166q0 -101 -74 -177q-75 -75 -192 -75q-118 0 -188 68t-70 170z" />
    <glyph glyph-name="uring" unicode="&#x16f;" horiz-adv-x="1157" 
d="M461 -37q-328 0 -328 371v278q0 209 -12 344q152 0 268 13q-10 -68 -10 -224v-358q0 -113 39 -167t123 -54q85 0 159 64t74 147v235q0 209 -12 344q152 0 270 13q-12 -80 -12 -224v-405q0 -211 14 -340h-227l-27 158q-55 -90 -145 -142t-174 -53zM690 1347q0 49 -30 81
t-82 32t-82 -33q-31 -33 -31 -83t31 -82q32 -33 82 -33t81 34t31 84zM573 1102q-117 0 -187 68t-71 170q0 102 75 174t192 71q118 1 188 -65t70 -167t-75 -176t-192 -75z" />
    <glyph glyph-name="Uhungarumlaut" unicode="&#x170;" horiz-adv-x="1564" 
d="M981 1888l285 21l-228 -330l-168 -6zM614 1884l277 17l-199 -326l-168 -6zM1386 608q0 -172 -40 -282t-125 -193q-169 -170 -447 -170q-278 1 -437 145t-159 396v442q0 356 -14 494q201 0 285 10q-8 -80 -9 -303v-576q0 -385 351 -385q161 0 247 92t86 254v414
q0 362 -16 494q203 0 289 10q-10 -74 -11 -303v-539z" />
    <glyph glyph-name="uhungarumlaut" unicode="&#x171;" horiz-adv-x="1157" 
d="M780 1427l285 21l-227 -330l-168 -6zM414 1423l276 17l-198 -326l-168 -6zM461 -37q-328 0 -328 371v278q0 209 -12 344q152 0 268 13q-10 -68 -10 -224v-358q0 -113 39 -167t123 -54q85 0 159 64t74 147v235q0 209 -12 344q152 0 270 13q-12 -80 -12 -224v-405
q0 -211 14 -340h-227l-27 158q-55 -90 -145 -142t-174 -53z" />
    <glyph glyph-name="Uogonek" unicode="&#x172;" horiz-adv-x="1564" 
d="M814 -455q-100 -1 -162 51t-62 138q0 123 166 229q-260 1 -419 145t-159 396v442q0 356 -14 494q203 0 287 10q-8 -80 -9 -303v-574q0 -203 89 -293t255 -90t250 90q86 90 86 252v414q0 362 -16 494q207 0 293 10q-10 -74 -10 -303v-535q0 -174 -40 -284t-129 -196
q-89 -87 -204 -130q-240 -96 -240 -227q0 -37 26 -61t76 -24t117 42l-8 -144q-74 -43 -173 -43z" />
    <glyph glyph-name="uogonek" unicode="&#x173;" horiz-adv-x="1157" 
d="M805 -225q-1 -37 25 -61t77 -24t117 42l-10 -144q-70 -43 -170 -43q-100 -1 -162 51t-64 138q0 141 211 266h-22l-27 158q-55 -90 -145 -142t-174 -53q-328 0 -328 371v278q0 209 -12 344q152 0 268 13q-10 -68 -10 -224v-358q0 -113 39 -167t123 -54q85 0 159 64t74 147
v235q0 209 -12 344q152 0 270 13q-12 -80 -12 -224v-405q0 -211 14 -340q-229 -117 -229 -225z" />
    <glyph glyph-name="Wcircumflex" unicode="&#x174;" horiz-adv-x="2068" 
d="M926 1894h258l211 -321l-164 -12l-178 182l-166 -168h-187zM2058 1438l-385 -1049q-96 -266 -143 -407l-125 -15l-369 1008l-223 -613q-19 -49 -69 -180t-78 -213h-127l-375 1049q-92 266 -154 418l281 16l332 -1018l229 651q10 35 36 107t55 156q30 84 38 104l123 16
l362 -1032l314 1002h278z" />
    <glyph glyph-name="wcircumflex" unicode="&#x175;" horiz-adv-x="1509" 
d="M641 1434h258l211 -322l-164 -12l-178 182l-166 -168h-186zM14 950l256 23l199 -615l86 246q70 201 121 357l170 12l217 -613l78 246q47 137 108 355q141 0 246 8l-354 -975l-166 -12q-47 162 -127 380l-92 250l-219 -618l-168 -12q-23 90 -113 342l-98 264
q-98 262 -144 362z" />
    <glyph glyph-name="Ycircumflex" unicode="&#x176;" horiz-adv-x="1325" 
d="M547 1894h258l211 -321l-164 -12l-178 182l-166 -168h-186zM795 295q0 -209 6 -295h-283q14 137 14 494v118l-215 338q-163 265 -313 490l289 16l375 -620l112 178q55 86 258 430h295l-538 -823v-326z" />
    <glyph glyph-name="ycircumflex" unicode="&#x177;" horiz-adv-x="1003" 
d="M395 1434h258l211 -322l-164 -12l-178 182l-166 -168h-186zM14 948l265 25l237 -623l98 266q51 129 125 345q156 0 256 8l-442 -1059q-8 -23 -53 -131t-76 -207q-170 0 -264 -10l231 532q-76 193 -92 230l-117 264q-117 264 -168 360z" />
    <glyph glyph-name="Ydieresis" unicode="&#x178;" horiz-adv-x="1325" 
d="M866 1882q58 0 98 -40t40 -98t-40 -102t-100 -43q-60 0 -97 40q-38 39 -38 99t39 102t98 42zM608 1744q0 -58 -40 -102t-99 -43q-59 0 -97 40q-38 39 -38 99t39 102t98 42t98 -40t39 -98zM795 295q0 -209 6 -295h-283q14 137 14 494v118l-215 338q-163 265 -313 490
l289 16l375 -620l112 178q55 86 258 430h295l-538 -823v-326z" />
    <glyph glyph-name="Zacute" unicode="&#x179;" horiz-adv-x="1320" 
d="M666 2q-396 0 -580 -10l-33 92l828 1149q-71 2 -265 2t-485 -4q12 113 14 221q321 -10 593 -10t497 10l33 -90l-828 -1151l260 -2q336 0 531 6q-16 -109 -17 -223q-152 10 -548 10zM766 1874l324 18l-334 -315l-172 -10z" />
    <glyph glyph-name="zacute" unicode="&#x17a;" horiz-adv-x="976" 
d="M492 0q-208 0 -412 -10l-27 88l525 688q-199 0 -478 -4q8 88 9 209q190 -8 405 -8t389 8l25 -88l-525 -686q326 0 508 6q-14 -94 -16 -213q-195 10 -403 10zM575 1413l324 19l-334 -316l-172 -10z" />
    <glyph glyph-name="Zdotaccent" unicode="&#x17b;" horiz-adv-x="1320" 
d="M850 1748q0 -58 -41 -100t-103 -42t-102 39q-39 39 -39 98t41 101q40 42 102 42t102 -40t40 -98zM666 2q-396 0 -580 -10l-33 92l828 1149q-71 2 -265 2t-485 -4q12 113 14 221q321 -10 593 -10t497 10l33 -90l-828 -1151l260 -2q336 0 531 6q-16 -109 -17 -223
q-152 10 -548 10z" />
    <glyph glyph-name="zdotaccent" unicode="&#x17c;" horiz-adv-x="976" 
d="M518 1425q61 0 101 -40t40 -98t-41 -100t-102 -42t-101 40t-40 98t41 100t102 42zM492 0q-208 0 -412 -10l-27 88l525 688q-199 0 -478 -4q8 88 9 209q190 -8 405 -8t389 8l25 -88l-525 -686q326 0 508 6q-14 -94 -16 -213q-195 10 -403 10z" />
    <glyph glyph-name="Zcaron" unicode="&#x17d;" horiz-adv-x="1320" 
d="M666 2q-396 0 -580 -10l-33 92l828 1149q-71 2 -265 2t-485 -4q12 113 14 221q321 -10 593 -10t497 10l33 -90l-828 -1151l260 -2q336 0 531 6q-16 -109 -17 -223q-152 10 -548 10zM831 1577h-258l-213 317l168 13l177 -181l167 170h183z" />
    <glyph glyph-name="zcaron" unicode="&#x17e;" horiz-adv-x="976" 
d="M492 0q-208 0 -412 -10l-27 88l525 688q-199 0 -478 -4q8 88 9 209q190 -8 405 -8t389 8l25 -88l-525 -686q326 0 508 6q-14 -94 -16 -213q-195 10 -403 10zM643 1116h-258l-213 318l168 12l176 -180l168 170h182z" />
    <glyph glyph-name="florin" unicode="&#x192;" horiz-adv-x="985" 
d="M754 1434q102 0 172 -33l-47 -191q-100 23 -119 23q-86 0 -129 -52t-64 -186l-8 -53h277q-17 -71 -33 -190h-271l-71 -527q-14 -100 -27 -233h-256q16 78 72 401l51 359h-199l78 190h148l6 43q68 449 420 449z" />
    <glyph glyph-name="Aringacute" unicode="&#x1fa;" horiz-adv-x="1476" 
d="M842 1611q0 50 -30 82q-30 31 -82 31t-83 -32t-31 -83q0 -50 31 -83t82 -33t82 34t31 84zM780 2273l324 19l-334 -316l-172 -10zM725 1057l-211 -500h422zM991 1630q0 -88 -44 -154t-120 -92l441 -966q141 -305 198 -418l-284 -16l-166 383h-580l-71 -178
q-53 -134 -76 -189h-279l473 1049q92 201 146 331q-76 25 -119 84t-43 133q0 109 75 181q76 72 192 72t187 -66q70 -66 70 -154z" />
    <glyph glyph-name="aringacute" unicode="&#x1fb;" horiz-adv-x="1030" 
d="M625 1347q0 49 -30 81t-82 32t-83 -33t-31 -83t31 -82q31 -33 82 -33t82 34t31 84zM563 2009l324 19l-334 -316l-172 -10zM293 272q1 -59 35 -95t112 -36q78 1 134 57t61 148l4 92q-53 4 -76 4q-270 0 -270 -170zM508 1102q-116 0 -188 68q-70 68 -70 170t75 174t191 71
q116 1 188 -65q70 -66 70 -167t-75 -176t-191 -75zM360 -27q-137 0 -218 75q-81 74 -81 212t129 224t371 87q27 0 80 -4l2 29q4 96 -41 142t-143 46q-152 0 -279 -90l-43 195q170 100 365 100t289 -99t90 -280l-11 -383q-2 -80 58 -80q27 0 73 15l-18 -156q-81 -31 -147 -31
t-116 40t-63 120q-43 -74 -123 -118t-174 -44z" />
    <glyph glyph-name="AEacute" unicode="&#x1fc;" horiz-adv-x="1861" 
d="M1155 1874l324 18l-334 -315l-172 -10zM918 928q0 55 -5 219l-350 -594h355v375zM1346 2q-280 0 -443 -10q10 123 15 370h-463l-115 -204q-80 -145 -88 -158h-289l637 1053q170 272 236 399q224 -10 464 -10t459 10q-12 -92 -16 -223q-233 4 -367 4t-192 -2
q-4 -35 -4 -113v-266l483 4q-6 -92 -6 -209l-477 4v-323q0 -80 4 -115l184 -2q229 0 432 6q-10 -98 -14 -225q-160 10 -440 10z" />
    <glyph glyph-name="aeacute" unicode="&#x1fd;" horiz-adv-x="1607" 
d="M860 1413l324 19l-334 -316l-172 -10zM1116 803q-90 0 -154 -68t-81 -168l440 15q-25 221 -205 221zM293 274q-1 -57 35 -95t115 -38t137 69q57 69 61 173l2 53l-96 2q-254 0 -254 -164zM461 784q-154 0 -281 -90l-43 195q168 98 355 98q227 0 303 -160q125 162 333 162
t310 -132q104 -132 104 -343l-108 -76l-557 -16q18 -260 274 -260q172 0 350 129l-6 -213q-180 -115 -375 -115q-270 0 -375 197q-123 -188 -360 -189q-143 0 -233 78t-90 214t124 220q125 84 361 84l100 -2l2 29q10 190 -188 190z" />
    <glyph glyph-name="Oslashacute" unicode="&#x1fe;" horiz-adv-x="1642" 
d="M881 1890l323 19l-334 -316l-172 -10zM819 180q203 0 332 156t129 362t-80 340l-653 -768q112 -90 272 -90zM823 1257q-201 -1 -331 -157t-130 -366t82 -345l652 774q-117 94 -273 94zM98 682q0 340 208 566t536 227q233 0 409 -127q104 119 142 172q122 -81 147 -93
q-33 -35 -168 -190q172 -205 172 -481q0 -340 -208 -566t-535 -227q-233 0 -410 125l-135 -160l-150 84l166 183q-174 203 -174 487z" />
    <glyph glyph-name="oslashacute" unicode="&#x1ff;" horiz-adv-x="1124" 
d="M618 1413l324 19l-334 -316l-172 -10zM815 473q0 90 -27 160l-378 -430q59 -47 147 -47q121 0 189 87t69 230zM307 502q0 -120 25 -189l383 430q-67 53 -167 53t-170 -86q-70 -88 -71 -208zM547 -37q-150 0 -271 80q-94 -100 -108 -117l-115 90q86 88 119 127
q-98 129 -98 308q0 231 138 385t361 153q158 0 277 -84l106 121q58 -57 113 -94l-115 -127q96 -131 97 -305q1 -231 -139 -384t-365 -153z" />
    <glyph glyph-name="Scommaaccent" unicode="&#x218;" horiz-adv-x="1103" 
d="M1012 410q0 -197 -135 -322t-359 -125q-104 0 -223 35t-203 86l12 256q72 -60 192 -108t228 -48t170 52t64 136q0 83 -64 141t-153 105q-89 48 -181 102t-155 138t-64 191q0 186 131 306t339 120t360 -107l-66 -215q-141 100 -293 100q-96 0 -155 -50q-59 -51 -59 -123
t62 -128q64 -56 154 -100q90 -45 180 -99t154 -142t64 -201zM498 -342q0 56 -66 96l-29 15q15 57 55 88t93 31t91 -40q38 -39 38 -100q0 -160 -256 -297l-53 64l51 34q76 53 76 109z" />
    <glyph glyph-name="scommaaccent" unicode="&#x219;" horiz-adv-x="880" 
d="M477 989q172 0 301 -74l-63 -190q-111 74 -247 74t-136 -101q0 -38 50 -66t122 -52t142 -58q70 -33 121 -93q50 -60 50 -144q0 -147 -111 -235q-112 -87 -284 -87q-86 0 -186 24t-158 60l10 217q160 -111 334 -110q74 0 118 26t44 74q0 47 -50 79q-50 33 -121 57t-142 56
t-121 92q-50 62 -50 148q0 129 102 216t275 87zM381 -335q0 56 -66 95l-28 15q14 57 54 88t93 31t91 -39t38 -101q0 -160 -256 -297l-53 64l51 35q76 53 76 109z" />
    <glyph glyph-name="schwa" unicode="&#x259;" horiz-adv-x="1052" 
d="M735 383l-448 -12q25 -223 202 -224q98 0 163 66t83 170zM485 987q240 0 367 -139t127 -360t-138 -373q-137 -152 -353 -152t-320 132t-105 341l111 78l565 16q-23 260 -278 261q-180 0 -355 -129l7 212q178 113 372 113z" />
    <glyph glyph-name="circumflex" unicode="&#x2c6;" horiz-adv-x="849" 
d="M303 1434h258l211 -322l-164 -12l-178 182l-166 -168h-186z" />
    <glyph glyph-name="caron" unicode="&#x2c7;" horiz-adv-x="849" 
d="M549 1116h-258l-213 318l168 12l176 -180l168 170h182z" />
    <glyph glyph-name="breve" unicode="&#x2d8;" horiz-adv-x="808" 
d="M406 1102q-150 0 -241 92t-91 236l184 24q0 -94 40 -142t112 -48t108 49t35 125l180 10q4 -160 -86 -253q-91 -93 -241 -93z" />
    <glyph glyph-name="dotaccent" unicode="&#x2d9;" horiz-adv-x="509" 
d="M397 1287q0 -58 -41 -100t-102 -42t-101 40t-40 98t41 100t102 42t101 -40t40 -98z" />
    <glyph glyph-name="ring" unicode="&#x2da;" horiz-adv-x="628" 
d="M434 1347q0 49 -30 81t-82 32t-82 -33q-31 -33 -31 -83t31 -82q32 -33 82 -33t81 34t31 84zM317 1102q-117 0 -187 68t-71 170q0 102 75 174t192 71q118 1 188 -65t70 -167t-75 -176t-192 -75z" />
    <glyph glyph-name="ogonek" unicode="&#x2db;" horiz-adv-x="610" 
d="M304 -455q-100 -1 -162 51t-62 138q0 190 387 368l25 -71q-223 -145 -224 -256q0 -37 25 -61t75 -24t117 42l-8 -144q-74 -43 -173 -43z" />
    <glyph glyph-name="tilde" unicode="&#x2dc;" horiz-adv-x="872" 
d="M267 1440q79 0 185 -71t136 -71q55 0 80 148l159 -23q-49 -315 -233 -315q-68 0 -174 72t-137 72t-47 -30t-29 -110l-162 23q53 305 222 305z" />
    <glyph glyph-name="hungarumlaut" unicode="&#x2dd;" horiz-adv-x="935" 
d="M588 1427l284 21l-227 -330l-168 -6zM221 1423l277 17l-199 -326l-168 -6z" />
    <glyph glyph-name="commaaccent" unicode="&#x326;" horiz-adv-x="473" 
d="M223 -335q0 56 -65 95l-29 15q14 57 54 88t93 31q54 0 92 -39t38 -101q0 -160 -256 -297l-54 64l51 35q76 53 76 109z" />
    <glyph glyph-name="baht" unicode="&#xe3f;" horiz-adv-x="1308" 
d="M606 819q120 0 197 55q78 55 78 148q0 188 -281 188q-39 0 -149 -6q-2 -27 -2 -98v-184q0 -78 2 -101q35 -2 155 -2zM660 203q118 0 200 55q82 56 82 160t-87 164t-255 61q-96 0 -151 -10v-328q0 -55 2 -92q91 -10 209 -10zM1196 410q0 -176 -139 -294t-395 -118h-295
l-146 -277q-86 53 -166 80q70 133 131 238q10 145 11 444v441q0 350 -15 481l443 12q162 0 280 -51q76 133 156 289q143 -84 158 -90q-7 -14 -168 -303q79 -92 79 -202t-60 -190t-163 -118q141 -43 215 -131t74 -211z" />
    <glyph glyph-name="Wgrave" unicode="&#x1e80;" horiz-adv-x="2068" 
d="M684 1874l295 18l178 -315l-168 -10zM2058 1438l-385 -1049q-96 -266 -143 -407l-125 -15l-369 1008l-223 -613q-19 -49 -69 -180t-78 -213h-127l-375 1049q-92 266 -154 418l281 16l332 -1018l229 651q10 35 36 107t55 156q30 84 38 104l123 16l362 -1032l314 1002h278z
" />
    <glyph glyph-name="wgrave" unicode="&#x1e81;" horiz-adv-x="1509" 
d="M399 1413l295 19l178 -316l-167 -10zM14 950l256 23l199 -615l86 246q70 201 121 357l170 12l217 -613l78 246q47 137 108 355q141 0 246 8l-354 -975l-166 -12q-47 162 -127 380l-92 250l-219 -618l-168 -12q-23 90 -113 342l-98 264q-98 262 -144 362z" />
    <glyph glyph-name="Wacute" unicode="&#x1e82;" horiz-adv-x="2068" 
d="M1106 1874l324 18l-334 -315l-172 -10zM2058 1438l-385 -1049q-96 -266 -143 -407l-125 -15l-369 1008l-223 -613q-19 -49 -69 -180t-78 -213h-127l-375 1049q-92 266 -154 418l281 16l332 -1018l229 651q10 35 36 107t55 156q30 84 38 104l123 16l362 -1032l314 1002
h278z" />
    <glyph glyph-name="wacute" unicode="&#x1e83;" horiz-adv-x="1509" 
d="M819 1413l324 19l-334 -316l-172 -10zM14 950l256 23l199 -615l86 246q70 201 121 357l170 12l217 -613l78 246q47 137 108 355q141 0 246 8l-354 -975l-166 -12q-47 162 -127 380l-92 250l-219 -618l-168 -12q-23 90 -113 342l-98 264q-98 262 -144 362z" />
    <glyph glyph-name="Wdieresis" unicode="&#x1e84;" horiz-adv-x="2068" 
d="M1382 1744q0 -58 -40 -102t-99 -43q-59 0 -97 40q-38 39 -38 99t39 102t98 42t98 -40t39 -98zM987 1744q0 -58 -40 -102t-99 -43q-59 0 -97 40q-38 39 -38 99t39 102t98 42t98 -40t39 -98zM2058 1438l-385 -1049q-96 -266 -143 -407l-125 -15l-369 1008l-223 -613
q-19 -49 -69 -180t-78 -213h-127l-375 1049q-92 266 -154 418l281 16l332 -1018l229 651q10 35 36 107t55 156q30 84 38 104l123 16l362 -1032l314 1002h278z" />
    <glyph glyph-name="wdieresis" unicode="&#x1e85;" horiz-adv-x="1509" 
d="M1098 1283q0 -58 -40 -101t-100 -43t-97 40q-38 40 -38 99t39 101q38 42 98 42t99 -40t39 -98zM565 1421q59 0 98 -40t39 -98t-40 -101t-98 -43q-60 0 -98 40t-38 99t39 101t98 42zM14 950l256 23l199 -615l86 246q70 201 121 357l170 12l217 -613l78 246q47 137 108 355
q141 0 246 8l-354 -975l-166 -12q-47 162 -127 380l-92 250l-219 -618l-168 -12q-23 90 -113 342l-98 264q-98 262 -144 362z" />
    <glyph glyph-name="Ygrave" unicode="&#x1ef2;" horiz-adv-x="1325" 
d="M303 1874l295 18l178 -315l-168 -10zM795 295q0 -209 6 -295h-283q14 137 14 494v118l-215 338q-163 265 -313 490l289 16l375 -620l112 178q55 86 258 430h295l-538 -823v-326z" />
    <glyph glyph-name="ygrave" unicode="&#x1ef3;" horiz-adv-x="1003" 
d="M154 1413l295 19l178 -316l-168 -10zM14 948l265 25l237 -623l98 266q51 129 125 345q156 0 256 8l-442 -1059q-8 -23 -53 -131t-76 -207q-170 0 -264 -10l231 532q-76 193 -92 230l-117 264q-117 264 -168 360z" />
    <glyph glyph-name="enspace" unicode="&#x2002;" horiz-adv-x="1024" 
 />
    <glyph glyph-name="emspace" unicode="&#x2003;" horiz-adv-x="2048" 
 />
    <glyph glyph-name="threeperemspace" unicode="&#x2004;" horiz-adv-x="681" 
 />
    <glyph glyph-name="fourperemspace" unicode="&#x2005;" horiz-adv-x="512" 
 />
    <glyph glyph-name="figurespace" unicode="&#x2007;" horiz-adv-x="1146" 
 />
    <glyph glyph-name="thinspace" unicode="&#x2009;" horiz-adv-x="272" 
 />
    <glyph glyph-name="hairspace" unicode="&#x200a;" horiz-adv-x="153" 
 />
    <glyph glyph-name="endash" unicode="&#x2013;" horiz-adv-x="1093" 
d="M635 485h-178q-113 0 -334 -4q6 68 6 185q207 -6 426 -6t420 6q-10 -82 -10 -185q-233 4 -330 4z" />
    <glyph glyph-name="emdash" unicode="&#x2014;" horiz-adv-x="2062" 
d="M1477 485h-895q-197 0 -459 -4q6 68 6 185q258 -6 906 -6t904 6q-10 -82 -10 -185q-291 4 -452 4z" />
    <glyph glyph-name="quoteleft" unicode="&#x2018;" horiz-adv-x="495" 
d="M401 983q-47 -166 -183 -166q-67 1 -119 59t-52 154q0 244 338 467l66 -98l-15 -13q-186 -123 -186 -239q0 -84 110 -141z" />
    <glyph glyph-name="quoteright" unicode="&#x2019;" horiz-adv-x="495" 
d="M278 1481q66 -1 118 -59t53 -154q0 -244 -340 -467l-64 100l14 12q186 121 187 238q0 86 -113 141l-39 23q20 82 68 124q50 42 116 42z" />
    <glyph glyph-name="quotesinglbase" unicode="&#x201a;" horiz-adv-x="493" 
d="M270 272q66 0 118 -58t52 -155q0 -244 -338 -467l-65 99l14 12q186 123 187 240q0 84 -111 141l-41 22q46 166 184 166z" />
    <glyph glyph-name="quotedblleft" unicode="&#x201c;" horiz-adv-x="956" 
d="M401 983q-47 -166 -183 -166q-67 1 -119 59t-52 154q0 244 338 467l66 -98l-15 -13q-186 -123 -186 -239q0 -84 110 -141zM864 983q-47 -166 -185 -166q-67 1 -118 59t-51 154q0 244 338 467l65 -98l-14 -13q-186 -123 -186 -239q0 -84 110 -141z" />
    <glyph glyph-name="quotedblright" unicode="&#x201d;" horiz-adv-x="956" 
d="M909 1268q0 -244 -338 -467l-65 100l14 12q186 121 187 238q0 84 -111 141l-41 23q47 166 185 166q66 -1 118 -59q51 -58 51 -154zM278 1481q66 -1 118 -59t53 -154q0 -244 -340 -467l-64 100l14 12q186 121 187 238q0 86 -113 141l-39 23q20 82 68 124q50 42 116 42z
" />
    <glyph glyph-name="quotedblbase" unicode="&#x201e;" horiz-adv-x="956" 
d="M700 -57q0 86 -112 141l-39 22q20 82 68 124t115 42t119 -58t52 -155q0 -244 -338 -467l-65 99l14 12q186 123 186 240zM270 272q66 0 118 -58t52 -155q0 -244 -338 -467l-65 99l14 12q186 123 187 240q0 84 -111 141l-41 22q46 166 184 166z" />
    <glyph glyph-name="dagger" unicode="&#x2020;" horiz-adv-x="1077" 
d="M442 1081q0 236 -20 416q90 0 237 10q-6 -63 -18 -313l-4 -113q29 0 102 4l189 11q53 2 94 10l-6 -211q-47 6 -131 8l-121 6q-41 2 -131 2l6 -647q0 -225 8 -313h-225q10 139 14 493l6 467q-80 0 -149 -2l-98 -4q-47 -2 -140 -10l6 211q47 -8 91 -10l190 -13
q37 -2 100 -2z" />
    <glyph glyph-name="daggerdbl" unicode="&#x2021;" horiz-adv-x="1077" 
d="M184 1102l256 -12v102q-4 176 -18 305q90 0 237 10q-6 -59 -18 -297l-4 -120q135 0 258 12q84 4 127 10l-6 -199q-178 17 -383 17l2 -426q55 0 191 6t196 16q0 -10 -3 -100t-3 -100q-68 10 -164 12q-86 6 -215 6l2 -104q4 -242 8 -289h-225q10 115 14 393
q-257 0 -381 -16q6 68 6 198q59 -8 123 -10l254 -12l4 426q-270 0 -387 -17q6 68 6 199q59 -8 123 -10z" />
    <glyph glyph-name="bullet" unicode="&#x2022;" horiz-adv-x="921" 
d="M772 726q0 -132 -88 -224t-221 -92t-223 94t-90 227t89 224t221 91t222 -94t90 -226z" />
    <glyph glyph-name="ellipsis" unicode="&#x2026;" horiz-adv-x="1583" 
d="M1325 -37q-67 0 -107 42t-40 108q0 65 43 109t108 44t107 -42t43 -106q0 -64 -44 -110q-44 -45 -110 -45zM942 118q0 -64 -44 -110q-44 -45 -110 -45t-106 42t-41 108q0 65 43 109q42 44 108 44t108 -42t42 -106zM104 113q0 65 43 109t109 44t108 -42t42 -106t-44 -110
q-44 -45 -110 -45t-107 42t-41 108z" />
    <glyph glyph-name="guilsinglleft" unicode="&#x2039;" horiz-adv-x="786" 
d="M492 948q92 2 208 19q-178 -270 -333 -488q96 -156 311 -465l-156 -49q-274 295 -424 488l6 30q191 219 388 465z" />
    <glyph glyph-name="guilsinglright" unicode="&#x203a;" horiz-adv-x="786" 
d="M295 -16q-92 -2 -209 -19q178 270 334 488q-96 156 -311 465l155 49q258 -276 424 -488l-6 -30q-190 -219 -387 -465z" />
    <glyph glyph-name="fraction" unicode="&#x2044;" horiz-adv-x="380" 
d="M-209 -39l-135 57q147 207 285 414l389 602q221 340 262 418q14 -8 66 -32t67 -31q-98 -137 -229 -340l-506 -773z" />
    <glyph glyph-name="zero.sup" unicode="&#x2070;" 
d="M381 1014q74 0 115 75t41 201q0 289 -154 289q-74 0 -115 -75t-41 -201q0 -289 154 -289zM387 1731q160 0 243 -117q83 -118 83 -314t-88 -317t-249 -121t-243 117t-82 313t88 318q88 121 248 121z" />
    <glyph glyph-name="four.sup" unicode="&#x2074;" 
d="M459 1546l-260 -338h256zM449 1077h-70q-209 0 -326 -6l-20 139l413 529l172 -13q-4 -35 -4 -141v-368q88 0 119 2q-10 -88 -10 -148q-57 4 -109 4v-59q0 -102 4 -133h-176q6 37 7 166v28z" />
    <glyph glyph-name="five.sup" unicode="&#x2075;" 
d="M412 1706q40 0 245 4q-16 -156 -16 -166q-80 2 -219 2h-129l-6 -160h37q164 0 261 -66t97 -188t-91 -195t-235 -73t-258 35l-12 160q131 -37 225 -37t143 32q48 32 48 81q0 117 -246 116q-55 0 -121 -6l-16 10l6 134l6 157v148l19 16q222 -4 262 -4z" />
    <glyph glyph-name="six.sup" unicode="&#x2076;" 
d="M537 1153q0 69 -39 105t-106 36q-68 0 -110 -40t-42 -106t42 -105t108 -39t106 40q41 40 41 109zM436 1415q122 0 198 -75q77 -74 77 -192q-1 -118 -93 -202t-238 -84t-232 92q-85 92 -85 258q1 214 139 356t400 167l31 -152q-330 -33 -397 -250q78 82 200 82z" />
    <glyph glyph-name="seven.sup" unicode="&#x2077;" 
d="M390 1706q87 0 292 4l25 -98q-10 -18 -39 -75t-37 -71l-232 -436q-55 -104 -75 -160l-197 23q25 36 64 109t51 94l241 448h-159q-92 0 -256 -4q10 92 10 170q225 -4 312 -4z" />
    <glyph glyph-name="eight.sup" unicode="&#x2078;" 
d="M252 1499q0 -84 151 -131q123 41 123 125q0 47 -38 76t-99 29t-99 -30q-38 -28 -38 -69zM535 1108q0 88 -160 139q-145 -47 -146 -139q0 -49 44 -80t113 -31t109 32t40 79zM379 862q-145 0 -233 64t-87 168q0 147 189 213q-160 63 -160 192q0 102 86 167t217 65
q131 1 214 -63t85 -159q0 -131 -166 -198q182 -76 183 -207q1 -110 -91 -176t-237 -66z" />
    <glyph glyph-name="nine.sup" unicode="&#x2079;" 
d="M526 1448q0 66 -42 106t-108 39q-66 1 -106 -39q-41 -40 -41 -109t39 -106t106 -37q68 0 110 40t42 106zM330 1184q-122 0 -198 74q-77 74 -77 191q0 118 92 202t239 84q148 -1 232 -93t84 -258q0 -215 -138 -356t-400 -166l-31 154q330 33 397 246q-78 -78 -200 -78z
" />
    <glyph glyph-name="zero.inf" unicode="&#x2080;" 
d="M381 -291q74 0 115 75t41 202q0 289 -154 288q-74 0 -115 -74t-41 -202q0 -289 154 -289zM387 426q160 0 243 -117t83 -313t-88 -318q-88 -120 -249 -120t-243 116t-82 314q0 196 88 317t248 121z" />
    <glyph glyph-name="one.inf" unicode="&#x2081;" horiz-adv-x="573" 
d="M424 258v-534q0 -117 4 -146h-192q8 66 8 246v401l-174 -49l-29 148q90 23 235 71l97 29l55 -12q-4 -35 -4 -154z" />
    <glyph glyph-name="two.inf" unicode="&#x2082;" 
d="M384 -422q-106 0 -294 -4l-18 131q244 199 301 256q117 113 116 193q1 46 -33 74t-91 28q-105 0 -211 -88l-62 147q134 109 278 109t223 -64t79 -160q0 -98 -42 -164t-126 -147q-61 -63 -182 -155l368 8q0 -28 -8 -168q-192 4 -298 4z" />
    <glyph glyph-name="three.inf" unicode="&#x2083;" 
d="M305 -285q92 0 146 26q53 26 53 71q0 111 -277 116l-16 109q281 51 281 149q0 35 -38 58t-110 22q-119 0 -217 -57l-39 141q144 74 282 74t221 -56t83 -145q0 -147 -221 -215q238 -43 237 -201q0 -115 -99 -181t-242 -67q-143 0 -245 31l-20 160q129 -35 221 -35z" />
    <glyph glyph-name="four.inf" unicode="&#x2084;" 
d="M459 242l-260 -338q182 0 256 2zM449 -227h-70q-209 0 -326 -6l-20 139l323 416l90 112l172 -12q-4 -35 -4 -141v-369q25 0 66 1t53 1q-10 -88 -10 -147l-109 6v-62q0 -102 4 -133h-176q6 37 7 166v29z" />
    <glyph glyph-name="five.inf" unicode="&#x2085;" 
d="M422 242h-129l-6 -160h37q164 0 261 -66t97 -188t-91 -196q-91 -73 -235 -73t-258 35l-12 160q131 -37 225 -37t143 32q48 32 48 81q0 117 -246 117q-55 0 -121 -6l-16 10l6 133l6 158v147l19 17q291 -5 507 0q-16 -156 -16 -166q-80 2 -219 2z" />
    <glyph glyph-name="six.inf" unicode="&#x2086;" 
d="M392 -10q-68 0 -110 -40t-42 -106t42 -106t108 -39q66 -1 106 39q41 40 41 110t-39 106t-106 36zM436 111q122 0 198 -75q77 -74 77 -192q-1 -118 -93 -202t-238 -84t-232 92q-85 92 -85 258q1 215 139 356t400 166l31 -151q-330 -33 -397 -250q78 82 200 82z" />
    <glyph glyph-name="seven.inf" unicode="&#x2087;" 
d="M324 240q-92 0 -256 -4q10 92 10 170q349 -6 604 0l25 -99q-13 -23 -41 -77q-27 -54 -35 -68l-232 -436q-55 -104 -75 -160l-197 22q23 32 63 108q40 75 52 95l241 449h-159z" />
    <glyph glyph-name="eight.inf" unicode="&#x2088;" 
d="M252 195q0 -84 151 -132q123 41 123 125q0 47 -38 76t-99 29q-61 -1 -99 -29t-38 -69zM535 -197q0 90 -160 142q-145 -47 -146 -142q0 -49 44 -79t113 -31t109 31t40 79zM379 -442q-145 0 -233 63q-87 63 -87 168q0 147 189 213q-160 63 -160 193q0 103 86 167t217 64
t214 -64t85 -157q0 -131 -166 -199q182 -76 183 -207q1 -109 -91 -175t-237 -66z" />
    <glyph glyph-name="nine.inf" unicode="&#x2089;" 
d="M229 140q0 -70 39 -106t106 -36q68 0 110 40t42 106t-42 105q-42 40 -108 40t-106 -40q-41 -40 -41 -109zM332 -121q-122 0 -200 74q-77 73 -77 191t92 202t239 84q148 0 232 -92t84 -258q0 -215 -138 -356t-400 -166l-31 153q330 33 397 248q-76 -80 -198 -80z" />
    <glyph glyph-name="colonmonetary" unicode="&#x20a1;" horiz-adv-x="1527" 
d="M365 694q0 -211 102 -338q8 16 29 66l288 719l33 78q-203 -16 -327 -165t-125 -360zM602 242q88 -47 191 -60q6 16 63 150l291 723l29 67q-86 57 -187 82q-102 -244 -196 -487zM98 666q0 330 215 551t545 221h31q45 123 96 243q121 -63 172 -79l-84 -195q96 -27 176 -72
q10 31 25 67l35 90q20 54 37 95q59 -29 170 -76q-220 -547 -307 -751q-87 -205 -147 -357t-83 -208q154 37 317 186l-16 -264q-174 -135 -393 -154q-18 -43 -107 -270q-76 51 -166 84l80 194q-102 16 -180 52q-80 -199 -94 -238q-78 47 -170 88l104 246q-121 98 -188 241
q-68 143 -68 306z" />
    <glyph glyph-name="naira" unicode="&#x20a6;" horiz-adv-x="1820" 
d="M1266 821h-322l322 -387v387zM551 569h323l-323 385v-385zM551 416v-129q0 -215 8 -289h-276q16 133 20 416q-35 0 -99 -2t-98 -2q6 41 7 182q86 -4 194 -4l2 215q-31 0 -99 -1t-106 -1q10 47 11 178q43 -2 198 -2q4 281 -10 444l129 17l387 -465h447q-6 342 -19 432
q195 0 279 10q-8 -80 -15 -295l-2 -143q47 0 116 1t87 1q-10 -51 -10 -180q-63 0 -195 4l-2 -213q154 0 207 2q-12 -66 -12 -182l-197 4l-2 -138q-7 -186 4 -294l-129 -13l-372 447h-453z" />
    <glyph glyph-name="rupee" unicode="&#x20a8;" horiz-adv-x="2170" 
d="M455 717h178q123 -1 195 71t73 177q0 240 -293 239l-153 -2v-485zM1717 989q171 0 302 -74l-65 -190q-106 74 -244 74t-137 -101q0 -38 50 -66t121 -52q72 -24 142 -58q70 -33 120 -93t50 -144q0 -147 -111 -235q-112 -87 -284 -87q-84 0 -185 24t-159 60l10 217
q160 -111 336 -110q74 0 117 26t43 74q0 47 -49 79q-49 33 -121 57t-143 56q-72 32 -120 92q-48 62 -49 148q1 129 103 216t273 87zM455 522v-235q0 -205 6 -289h-279q14 135 15 483v443q0 346 -15 481q33 0 402 8q272 4 424 -114t147 -300q-6 -281 -285 -413l215 -314
q134 -186 189 -260l-295 -28l-336 538h-188z" />
    <glyph glyph-name="won" unicode="&#x20a9;" horiz-adv-x="2351" 
d="M1452 823l145 -420l132 420h-277zM918 821h-281l135 -418zM1178 973l-144 -404h289zM2218 412q-137 0 -408 4l-12 -37q-90 -240 -139 -397l-119 -15l-162 449h-399l-23 -62q-18 -51 -67 -179t-78 -206h-119l-160 447q-135 -2 -409 -2q6 104 2 180q82 -4 344 -4l-76 215
q-94 -2 -270 -2q6 68 6 180q102 -4 201 -4l-4 14q-109 307 -150 408l268 16l142 -440h385l28 82q23 70 127 360l115 17l158 -459h377l22 70q102 338 109 358h266l-158 -428q127 0 215 6q-10 -86 -10 -182l-266 4l-80 -219q123 0 356 6q-12 -82 -12 -180z" />
    <glyph glyph-name="sheqel" unicode="&#x20aa;" horiz-adv-x="1443" 
d="M786 715q0 131 -133 131h-309v-615q0 -178 4 -231h-196q16 141 16 369v694h481q143 -1 222 -63t83 -173q4 -59 6 -191t9 -196l-183 -8v283zM854 217h250l-2 518q0 248 -6 328h196q-14 -102 -14 -459v-604h-430q-133 0 -194 58q-60 59 -97 192q-82 287 -111 399l156 -12
l98 -303q35 -117 154 -117z" />
    <glyph glyph-name="Euro" unicode="&#x20ac;" horiz-adv-x="1351" 
d="M898 1376q224 0 376 -112l-53 -197q-139 106 -324 107q-129 0 -234 -69t-161 -190h155q272 0 457 7q-16 -129 -18 -168q-129 2 -439 2h-200q-4 -53 -4 -92t6 -82h198q258 0 422 8q-16 -139 -18 -168q-127 2 -404 2h-153q57 -123 165 -190t236 -66q219 0 379 145l-12 -239
q-172 -111 -394 -111t-388 122q-165 122 -230 325l-229 -2q6 61 6 182q86 -6 190 -6q-2 16 -2 64t6 108l-190 -2q8 82 8 180q197 -6 223 -6q72 204 237 326t389 122z" />
    <glyph glyph-name="peso" unicode="&#x20b1;" horiz-adv-x="1519" 
d="M639 584q139 0 228 62t110 179h-434v-235q45 -6 96 -6zM543 973h438q-35 238 -305 237q-53 0 -133 -6v-231zM635 383q-61 0 -90 4v-111q0 -197 6 -276h-285q16 152 17 475v334q-27 0 -95 -1t-114 -1q6 57 6 184q131 -4 203 -4q-4 295 -17 420l424 10q248 0 391 -120
t162 -310q68 0 195 4q-8 -78 -8 -184l-197 2q-37 -195 -184 -311t-414 -115z" />
    <glyph glyph-name="numero" unicode="&#x2116;" horiz-adv-x="2476" 
d="M1973 1206q-77 0 -126 -61t-49 -167t47 -167t125 -61t127 62t49 168t-48 166t-125 60zM1966 250q-268 0 -399 -2q6 39 6 184q238 -6 404 -6t395 6q-8 -94 -9 -184q-129 2 -397 2zM2367 988q1 -171 -113 -290q-114 -118 -289 -118t-283 110t-108 281q0 170 115 289
q113 118 289 118t283 -109q106 -110 106 -281zM1112 881q0 338 -16 460q201 0 282 11q-8 -53 -14 -283l-10 -803q-6 -199 6 -280l-123 -15l-799 901l-2 -596q0 -203 8 -274h-276q14 135 20 459l7 450q4 297 -9 445l123 14l803 -913v424z" />
    <glyph glyph-name="published" unicode="&#x2117;" horiz-adv-x="1773" 
d="M881 719q75 0 117 32t42 93q0 125 -141 125q-4 0 -61 -4v-244q16 -2 43 -2zM1227 856q0 -116 -90 -194q-90 -76 -254 -78h-45v-82q0 -125 4 -154h-193q6 51 6 258v238q0 209 -6 260l240 6q160 0 249 -69t89 -185zM1522 719q0 269 -184 457t-451 188q-265 0 -451 -189
t-186 -455t185 -456t451 -190t452 188q184 188 184 457zM1647 719q-1 -315 -223 -537t-537 -223q-315 0 -538 222q-222 221 -222 537t222 538q221 222 537 222t538 -222t223 -537z" />
    <glyph glyph-name="servicemark" unicode="&#x2120;" horiz-adv-x="1701" 
d="M602 912q0 -88 -72 -153t-196 -65t-225 58l4 159q100 -78 223 -77q98 0 98 79q0 60 -153 122q-57 24 -106 76q-48 52 -48 137q0 84 71 146q70 62 180 62t202 -53l-35 -133q-80 47 -166 47t-86 -74q0 -56 154 -117q58 -23 107 -74q48 -52 48 -140zM1606 713l-185 -8
q0 33 -12 143l-27 258q-184 -365 -200 -401l-68 -9l-196 398l-31 -250q-12 -104 -13 -131h-176q10 45 41 248l37 227q23 160 35 258l94 6l70 -139l178 -336l174 338q12 18 38 74q25 55 30 63h92q4 -26 20 -138t19 -126l37 -227q25 -162 43 -248z" />
    <glyph glyph-name="trademark" unicode="&#x2122;" horiz-adv-x="1794" 
d="M508 1219v-357q0 -106 6 -149h-203q8 63 8 248v161q0 109 -2 162q-150 0 -229 -2q4 78 4 162q102 -4 326 -4t323 4q-2 -27 -8 -162q-80 2 -223 2q-2 -20 -2 -65zM967 713h-176q10 45 40 248l37 227q14 82 35 258l96 6q41 -90 70 -139l176 -336l174 338q8 14 36 70t34 67
h92l37 -264l37 -227q28 -174 43 -248l-185 -8q0 33 -12 143l-26 258l-201 -401l-68 -9l-194 398l-31 -250q-14 -121 -14 -131z" />
    <glyph glyph-name="onethird" unicode="&#x2153;" horiz-adv-x="1720" 
d="M473 1266v-535q0 -117 4 -145h-192q8 66 8 245v400l-174 -47l-29 147q164 42 236 70l96 31l55 -15q-4 -33 -4 -151zM362 -39l-135 57q147 207 285 414l389 602q221 340 262 418q15 -8 67 -32t66 -31q-98 -137 -229 -340l-506 -773zM1235 137q92 0 145 26t54 70
q0 111 -277 117l-16 109q281 51 280 149q0 35 -38 58t-109 22q-119 0 -217 -57l-39 141q144 74 282 74t221 -56t83 -145q0 -147 -222 -215q238 -43 238 -201q0 -115 -99 -181t-242 -67q-143 0 -245 31l-20 160q129 -35 221 -35z" />
    <glyph glyph-name="twothirds" unicode="&#x2154;" horiz-adv-x="1912" 
d="M596 -39l-135 57q147 207 284 414l390 602q221 340 262 418q14 -8 66 -32t67 -31q-98 -137 -230 -340l-505 -773zM427 1432q144 0 223 -65t79 -161t-42 -164t-126 -145q-80 -80 -182 -156q164 0 369 9l-9 -168q-193 4 -298 4t-294 -4l-18 131q223 179 321 275t97 171
q0 49 -33 77t-92 28q-102 0 -211 -90l-61 147q133 111 277 111zM1427 137q92 0 146 26q53 26 53 70q0 111 -276 117l-17 109q281 51 281 149q0 35 -38 58t-110 22q-119 0 -217 -57l-39 141q144 74 282 74t221 -56t83 -145q0 -147 -221 -215q238 -43 237 -201
q0 -115 -99 -181t-241 -67q-142 0 -245 31l-21 160q129 -35 221 -35z" />
    <glyph glyph-name="onefifth" unicode="&#x2155;" horiz-adv-x="1720" 
d="M473 1266v-535q0 -117 4 -145h-192q8 66 8 245v400l-174 -47l-29 147q164 42 236 70l96 31l55 -15q-4 -33 -4 -151zM381 -39l-135 57q147 207 284 414l390 602q221 340 262 418q14 -8 66 -32t67 -31q-98 -137 -230 -340l-505 -773zM1345 823q41 0 246 4
q-16 -156 -16 -165q-80 2 -219 2h-129l-6 -160h36q163 0 261 -66t98 -188t-91 -196q-91 -73 -235 -73t-258 35l-12 160q131 -37 225 -37t143 32q48 32 48 81q0 117 -246 117q-55 0 -121 -7l-16 11l6 133l6 158v147l18 16q221 -4 262 -4z" />
    <glyph glyph-name="twofifths" unicode="&#x2156;" horiz-adv-x="1912" 
d="M604 -39l-135 57q147 207 285 414l389 602q221 340 262 418q14 -8 66 -32t67 -31q-98 -137 -229 -340l-506 -773zM427 1432q144 0 223 -65t79 -161t-42 -164t-126 -145q-80 -80 -182 -156q164 0 369 9l-9 -168q-193 4 -298 4t-294 -4l-18 131q223 179 321 275t97 171
q0 49 -33 77t-92 28q-102 0 -211 -90l-61 147q133 111 277 111zM1538 823q41 0 246 4q-16 -156 -17 -165q-80 2 -219 2h-129l-6 -160h37q164 0 261 -66t97 -188t-91 -196q-91 -73 -235 -73t-257 35l-13 160q132 -37 226 -37t142 32t48 81q0 117 -246 117q-55 0 -120 -7
l-17 11l6 133l6 158v147l19 16q221 -4 262 -4z" />
    <glyph glyph-name="threefifths" unicode="&#x2157;" horiz-adv-x="1912" 
d="M567 -39l-135 57q147 207 285 414l389 602q221 340 262 418q14 -8 66 -32t67 -31q-98 -137 -229 -340l-506 -773zM361 723q89 0 143 26q53 26 53 68q0 113 -276 117l-17 110q281 49 281 150q0 32 -38 56q-37 24 -133 24t-194 -57l-39 139q137 74 279 74t224 -56
q83 -56 83 -143q0 -145 -221 -217q238 -43 237 -199q0 -115 -99 -181q-100 -66 -242 -67q-142 0 -244 31l-21 158q135 -33 224 -33zM1538 823q41 0 246 4q-16 -156 -17 -165q-80 2 -219 2h-129l-6 -160h37q164 0 261 -66t97 -188t-91 -196q-91 -73 -235 -73t-257 35l-13 160
q132 -37 226 -37t142 32t48 81q0 117 -246 117q-55 0 -120 -7l-17 11l6 133l6 158v147l19 16q221 -4 262 -4z" />
    <glyph glyph-name="fourfifths" unicode="&#x2158;" horiz-adv-x="1912" 
d="M502 1249l-260 -338h256zM584 -39l-135 57q147 207 284 414l389 602q221 340 262 418q14 -8 66 -32t68 -31q-98 -137 -230 -340l-506 -773zM1538 823q41 0 246 4q-16 -156 -17 -165q-80 2 -219 2h-129l-6 -160h37q164 0 261 -66t97 -188t-91 -196q-91 -73 -235 -73
t-257 35l-13 160q132 -37 226 -37t142 32t48 81q0 117 -246 117q-55 0 -120 -7l-17 11l6 133l6 158v147l19 16q221 -4 262 -4zM657 719q0 -104 5 -133h-177q6 35 7 166v26h-70q-248 0 -326 -4l-20 139l323 416q41 47 90 113l173 -12q-4 -37 -5 -144v-366q88 0 119 2
q-10 -88 -10 -148l-109 2v-57z" />
    <glyph glyph-name="onesixth" unicode="&#x2159;" horiz-adv-x="1720" 
d="M1311 121q67 -1 107 39t40 110t-39 106t-105 36t-110 -40q-43 -40 -43 -106t42 -106t108 -39zM473 1266v-535q0 -117 4 -145h-192q8 66 8 245v400l-174 -47l-29 147q164 42 236 70l96 31l55 -15q-4 -33 -4 -151zM410 -39l-136 57q147 207 285 414l389 602
q221 340 262 418q14 -8 66 -32t67 -31q-98 -137 -229 -340l-506 -773zM1632 265q0 -118 -92 -202q-92 -83 -238 -83t-232 92q-85 92 -85 258q0 215 138 356t401 166l30 -152q-330 -33 -397 -249q78 81 200 81q123 0 199 -74t76 -193z" />
    <glyph glyph-name="fivesixths" unicode="&#x215a;" horiz-adv-x="1912" 
d="M1506 412q-68 0 -110 -40t-42 -106t42 -106t108 -39q66 -1 106 39q41 40 41 110t-39 106t-106 36zM578 -39l-136 57q147 207 285 414l389 602q221 340 262 418q14 -8 66 -32t67 -31q-98 -137 -229 -340l-506 -773zM446 1409q41 0 246 4q-16 -156 -16 -166q-80 2 -219 2
h-129l-6 -159h36q164 0 262 -67t97 -189q0 -122 -91 -194q-92 -73 -236 -73t-257 35l-12 158q123 -35 221 -35t146 31t49 80q0 119 -246 118q-55 0 -121 -6l-16 10l6 134l6 155v150l18 16q221 -4 262 -4zM1825 265q0 -118 -92 -202q-92 -83 -239 -83q-148 0 -232 92t-84 258
q0 215 138 356t400 166l31 -152q-330 -33 -397 -249q78 81 200 81t198 -74q77 -74 77 -193z" />
    <glyph glyph-name="oneeighth" unicode="&#x215b;" horiz-adv-x="1720" 
d="M1178 616q0 -84 151 -131q123 41 123 125q0 47 -38 76t-99 29t-99 -29t-38 -70zM1460 225q0 88 -160 140q-145 -47 -145 -140q0 -49 44 -80t113 -31q68 0 108 32t40 79zM473 1266v-535q0 -117 4 -145h-192q8 66 8 245v400l-174 -47l-29 147q164 42 236 70l96 31l55 -15
q-4 -33 -4 -151zM389 -39l-135 57q147 207 285 414l389 602q221 340 262 418q14 -8 66 -32t67 -31q-98 -137 -229 -340l-506 -773zM1305 -20q-145 0 -233 63q-87 63 -87 168q0 147 189 213q-160 63 -160 192q0 102 86 167t217 65t214 -64t85 -157q0 -131 -166 -199
q182 -76 182 -207q0 -109 -91 -175t-236 -66z" />
    <glyph glyph-name="threeeighths" unicode="&#x215c;" horiz-adv-x="1912" 
d="M1370 616q0 -84 152 -131q123 41 123 125q0 47 -38 76q-37 29 -99 29t-100 -29t-38 -70zM1653 225q0 88 -160 140q-145 -47 -145 -140q0 -49 44 -80t112 -31t109 32q40 32 40 79zM567 -39l-135 57q147 207 285 414l389 602q221 340 262 418q14 -8 66 -32t67 -31
q-98 -137 -229 -340l-506 -773zM361 723q89 0 143 26q53 26 53 68q0 113 -276 117l-17 110q281 49 281 150q0 32 -38 56q-37 24 -133 24t-194 -57l-39 139q137 74 279 74t224 -56q83 -56 83 -143q0 -145 -221 -217q238 -43 237 -199q0 -115 -99 -181q-100 -66 -242 -67
q-142 0 -244 31l-21 158q135 -33 224 -33zM1497 -20q-145 0 -232 63t-87 168q0 147 188 213q-160 63 -160 192q0 102 86 167t217 65t214 -64t85 -157q0 -131 -166 -199q182 -76 183 -207q1 -109 -91 -175t-237 -66z" />
    <glyph glyph-name="fiveeighths" unicode="&#x215d;" horiz-adv-x="1912" 
d="M1370 616q0 -84 152 -131q123 41 123 125q0 47 -38 76q-37 29 -99 29t-100 -29t-38 -70zM1653 225q0 88 -160 140q-145 -47 -145 -140q0 -49 44 -80t112 -31t109 32q40 32 40 79zM561 -39l-135 57q147 207 285 414l389 602q221 340 262 418q14 -8 66 -32t67 -31
q-98 -137 -229 -340l-506 -773zM448 1409q41 0 246 4q-16 -156 -16 -166q-80 2 -219 2h-129l-6 -159h36q164 0 262 -67t97 -189q0 -122 -91 -194q-92 -73 -236 -73t-257 35l-12 158q123 -35 221 -35t146 31t49 80q0 119 -246 118q-55 0 -121 -6l-16 10l6 134l6 155v150
l18 16q221 -4 262 -4zM1497 -20q-145 0 -232 63t-87 168q0 147 188 213q-160 63 -160 192q0 102 86 167t217 65t214 -64t85 -157q0 -131 -166 -199q182 -76 183 -207q1 -109 -91 -175t-237 -66z" />
    <glyph glyph-name="seveneighths" unicode="&#x215e;" horiz-adv-x="1912" 
d="M1370 616q0 -84 152 -131q123 41 123 125q0 47 -38 76q-37 29 -99 29t-100 -29t-38 -70zM1653 225q0 88 -160 140q-145 -47 -145 -140q0 -49 44 -80t112 -31t109 32q40 32 40 79zM494 -39l-136 57q147 207 285 414l389 602q221 340 262 418q14 -8 66 -32t67 -31
q-98 -137 -229 -340l-506 -773zM480 1407q87 0 292 4l25 -98q-10 -18 -39 -75t-37 -71l-232 -436q-55 -104 -75 -160l-197 21q54 86 115 203l241 448h-159q-174 0 -256 -2q10 86 10 170q225 -4 312 -4zM1497 -20q-145 0 -232 63t-87 168q0 147 188 213q-160 63 -160 192
q0 102 86 167t217 65t214 -64t85 -157q0 -131 -166 -199q182 -76 183 -207q1 -109 -91 -175t-237 -66z" />
    <glyph glyph-name="minus" unicode="&#x2212;" horiz-adv-x="1163" 
d="M621 477h-84q-115 0 -349 -4q6 70 7 189q213 -6 390 -6t390 6q-10 -88 -10 -189q-242 4 -344 4z" />
    <glyph glyph-name="box.1" unicode="&#xe000;" horiz-adv-x="1628" 
d="M172 424v504q0 295 -12 391l28 27h1252l24 -13q-6 -74 -6 -252v-827q0 -153 6 -227l-26 -27h-1252l-26 12q12 98 12 412z" />
    <glyph glyph-name="box.2" unicode="&#xe001;" horiz-adv-x="1628" 
d="M1233 436v350q0 297 -10 357h-826l-2 -242v-452q0 -170 6 -246h830q2 12 2 233zM172 408v532q0 279 -12 379l28 27h1252l24 -13q-6 -49 -6 -262v-821q0 -174 6 -223l-26 -27h-1252l-26 12q12 100 12 396z" />
    <glyph glyph-name="arrow.1_W" unicode="&#xe01d;" horiz-adv-x="1617" 
d="M1022 600q260 0 489 4q-6 -70 -6 -186q-203 6 -575 6t-531 -2l86 -72q207 -170 287 -233l-125 -146l-586 518l-2 35l584 527q109 -123 123 -142q-33 -25 -144 -119t-137 -118l-88 -72h625z" />
    <glyph glyph-name="arrow.1_E" unicode="&#xe01f;" horiz-adv-x="1617" 
d="M692 598q372 0 531 2l-88 70q-236 195 -287 233l125 148l586 -521l2 -34l-584 -525q-74 74 -125 140q35 27 138 115t147 122l88 74h-627q-256 0 -489 -4q6 68 6 186q205 -6 577 -6z" />
    <glyph glyph-name="G.alt" horiz-adv-x="1513" 
d="M1374 291v-176q-232 -150 -542 -150t-522 210q-212 211 -212 531t226 544t563 225q125 0 254 -38t215 -96l-70 -223q-72 57 -186 93t-223 36q-231 0 -371 -148t-141 -387q0 -239 146 -380t361 -142q145 0 254 52v229q0 209 -8 266h268q-2 -12 -7 -186t-5 -260z" />
    <glyph glyph-name="J.alt" horiz-adv-x="673" 
d="M229 39v907q0 356 -14 494q201 0 283 10q-6 -90 -6 -303v-1110q0 -246 -96 -362t-308 -115q-76 0 -135 16l-29 229q66 -12 111 -12q113 -1 153 51t41 195z" />
    <glyph glyph-name="a.sc" horiz-adv-x="1157" 
d="M565 735l-133 -338h268zM369 229l-93 -229h-251l346 770q102 233 123 291l149 16l342 -768q74 -166 145 -309l-262 -12l-104 241h-395z" />
    <glyph glyph-name="b.sc" horiz-adv-x="1042" 
d="M496 877q-61 0 -107 -5q-2 -23 -2 -69v-182q23 -2 105 -3q193 0 192 132q0 127 -188 127zM723 328q0 142 -227 141q-66 0 -109 -6v-211q0 -36 2 -59q55 -6 131 -7q203 0 203 142zM915 791q0 -83 -47 -141t-125 -87q221 -61 222 -254q-1 -137 -107 -223t-307 -86h-410
q10 92 11 362v332q0 270 -11 361l381 8q199 0 296 -79t97 -193z" />
    <glyph glyph-name="c.sc" horiz-adv-x="1062" 
d="M84 514q0 234 164 400t414 167q182 0 317 -86l-45 -209q-118 92 -262 92t-241 -98q-97 -100 -97 -256t96 -251t246 -95t309 135l-12 -237q-156 -104 -342 -105q-239 0 -393 155q-154 154 -154 388z" />
    <glyph glyph-name="d.sc" horiz-adv-x="1159" 
d="M831 539q0 151 -89 241t-246 90q-27 0 -97 -4q-2 -23 -2 -80v-514q0 -47 2 -71l101 -6q168 0 250 96q81 96 81 248zM1075 546q-1 -240 -155 -394q-154 -152 -408 -152h-371q10 92 11 362v332q0 270 -11 361l336 8q285 0 442 -138q156 -139 156 -379z" />
    <glyph glyph-name="e.sc" horiz-adv-x="925" 
d="M498 2q-217 0 -357 -8q10 92 11 364v340q0 276 -11 367q205 -8 345 -8t341 8q-12 -94 -12 -205q-84 2 -280 2h-138q-2 -25 -2 -71v-156l367 2q-4 -55 -4 -180h-363v-189q0 -49 2 -71l138 -2q178 0 321 6q-6 -68 -10 -207q-131 8 -348 8z" />
    <glyph glyph-name="f.sc" horiz-adv-x="884" 
d="M539 858h-138q-2 -27 -2 -86v-156l336 2q-4 -111 -4 -184h-332v-217q0 -176 7 -217h-265q10 92 11 362v336q0 276 -11 367q205 -8 342 -8t334 8q-10 -109 -10 -209q-82 2 -268 2z" />
    <glyph glyph-name="g.sc" horiz-adv-x="1161" 
d="M682 874q-152 0 -252 -98t-100 -255t94 -251t240 -94q88 0 161 31v125q0 57 -2 80q-37 2 -103 2t-134 -4q6 92 2 182q131 -6 224 -6t243 6q-10 -72 -11 -359v-149q-184 -113 -418 -113t-388 155q-154 156 -154 390t168 400t428 165q209 0 352 -98l-65 -199
q-133 90 -285 90z" />
    <glyph glyph-name="g.sc_alt" horiz-adv-x="1161" 
d="M682 874q-152 0 -252 -99t-100 -255t95 -249t239 -93q80 0 155 27v147q0 150 -8 195h244q-10 -51 -11 -318v-141q-184 -117 -418 -117t-388 155q-154 156 -154 390t168 400t424 165q211 0 356 -100l-65 -201q-133 94 -285 94z" />
    <glyph glyph-name="h.sc" horiz-adv-x="1230" 
d="M836 446h-439v-229q0 -176 6 -217h-262q10 92 11 362v332q0 272 -11 361q197 0 262 8q-6 -43 -6 -221v-203h439v59q0 272 -13 357q197 0 264 8q-8 -57 -8 -221v-625q0 -162 8 -217h-264q12 88 13 350v96z" />
    <glyph glyph-name="i.sc" horiz-adv-x="557" 
d="M158 694q0 272 -11 361q195 0 263 8q-6 -43 -7 -221v-625q1 -176 7 -217h-263q10 92 11 362v332z" />
    <glyph glyph-name="j.sc" horiz-adv-x="753" 
d="M365 694q0 272 -11 361q197 0 262 8q-6 -43 -6 -221v-494q0 -197 -74 -286t-251 -89q-123 0 -236 43l12 217q98 -41 181 -40q123 0 123 141v360z" />
    <glyph glyph-name="k.sc" horiz-adv-x="1101" 
d="M399 217q0 -176 7 -217h-265q12 111 13 362v332q0 256 -13 361q197 0 265 8q-6 -43 -7 -221v-260l162 204q119 152 211 273h287l-426 -506l231 -291q129 -160 219 -258l-282 -18l-402 508v-277z" />
    <glyph glyph-name="l.sc" horiz-adv-x="880" 
d="M483 2q-205 0 -342 -8q10 92 11 366v334q0 272 -11 361q197 0 265 8q-6 -43 -7 -221v-557q0 -57 2 -82l121 -2q115 0 312 4q-10 -88 -15 -211q-131 8 -336 8z" />
    <glyph glyph-name="m.sc" horiz-adv-x="1423" 
d="M1341 0l-243 -12q-2 55 -27 229l-51 385q-100 -240 -174 -414t-84 -198l-109 -10l-260 612l-47 -377q-4 -31 -16 -149l-6 -66h-242q25 109 63 362l48 336q37 283 43 373l143 14l338 -741l231 520q12 27 50 116t44 101h140l49 -383l47 -333q26 -185 63 -365z" />
    <glyph glyph-name="n.sc" horiz-adv-x="1245" 
d="M864 694q0 276 -12 361q188 0 256 8q-4 -23 -10 -221l-6 -635q0 -154 6 -215l-133 -17l-584 670v-428q0 -156 6 -217h-252q14 172 15 362l2 349q6 250 -7 350l136 16l583 -671v288z" />
    <glyph glyph-name="o.sc" horiz-adv-x="1243" 
d="M330 522q0 -160 80 -256t210 -96q129 0 211 101t82 261t-80 256q-81 96 -210 96t-211 -100q-82 -102 -82 -262zM84 514q0 240 154 404t392 163q238 0 384 -151q145 -152 145 -390q1 -238 -153 -404q-154 -165 -392 -165t-385 152q-145 151 -145 391z" />
    <glyph glyph-name="p.sc" horiz-adv-x="989" 
d="M467 520q238 0 238 174t-213 174q-57 0 -95 -2q-2 -31 -2 -75v-267q23 -4 72 -4zM942 711q0 -165 -118 -269t-357 -104q-49 0 -68 2v-123q0 -156 7 -217h-265q10 92 11 362v332q-1 273 -11 361l346 8q219 0 337 -94t118 -258z" />
    <glyph glyph-name="q.sc" horiz-adv-x="1247" 
d="M913 532q-1 160 -81 256t-209 97t-211 -101t-82 -262t81 -256t209 -96t211 101q82 101 82 261zM84 500q0 254 154 418t392 163q238 0 384 -151q145 -152 145 -377q0 -172 -76 -308t-206 -208l170 -47q51 -14 239 -64l-147 -174l-588 223q-211 17 -339 165t-128 360z" />
    <glyph glyph-name="r.sc" horiz-adv-x="1064" 
d="M395 217q0 -176 6 -217h-260q10 92 11 362v332q0 272 -11 361l332 8q225 2 348 -86t121 -236q-2 -203 -207 -309l166 -244q29 -43 129 -180l-274 -22l-232 383h-22l-107 -2v-150zM393 541h121q86 0 137 47t51 119q0 164 -206 163q-35 0 -101 -4q-2 -33 -2 -84v-241z" />
    <glyph glyph-name="s.sc" horiz-adv-x="888" 
d="M807 307q-1 -154 -107 -245t-286 -91t-328 88l8 222q62 -43 152 -77t168 -34q157 0 157 115q0 45 -47 83q-48 38 -114 70t-134 72q-68 39 -114 102t-47 146q0 147 103 235t273 88t285 -75l-51 -197q-117 76 -227 76q-68 0 -106 -31t-38 -75t47 -80q47 -35 114 -67
t133 -70t112 -104q47 -66 47 -151z" />
    <glyph glyph-name="t.sc" horiz-adv-x="1036" 
d="M641 756v-539q0 -176 6 -217h-264q12 111 12 362v263q0 104 -6 225q-115 0 -328 -4q4 63 5 219q286 -8 454 -8t455 8q-12 -135 -12 -219q-217 4 -320 4q-2 -31 -2 -94z" />
    <glyph glyph-name="u.sc" horiz-adv-x="1202" 
d="M1063 842v-385q0 -236 -129 -361t-340 -125t-332 108t-121 300v315q0 256 -12 361q197 0 262 8q-6 -66 -6 -221v-410q0 -252 223 -252q100 0 156 60t55 168v286q0 256 -12 361q196 0 264 8q-8 -57 -8 -221z" />
    <glyph glyph-name="v.sc" horiz-adv-x="1099" 
d="M25 1053l260 12l274 -715l172 459l88 246h256l-327 -770q-70 -168 -119 -291l-142 -14l-327 763q-125 287 -135 310z" />
    <glyph glyph-name="w.sc" horiz-adv-x="1591" 
d="M1561 1055l-277 -764q-33 -90 -102 -297l-140 -17l-245 689l-244 -682l-141 -4l-269 765q-68 190 -114 306l258 12l219 -690l205 612q18 55 26 74l129 14l244 -692l121 410q14 39 42 138t36 126h252z" />
    <glyph glyph-name="x.sc" horiz-adv-x="1146" 
d="M324 0h-271l375 535l-358 520l266 12l242 -375l81 129q72 121 154 236h268l-360 -518l143 -209q27 -37 117 -171t109 -159l-269 -12l-252 391l-80 -127z" />
    <glyph glyph-name="y.sc" horiz-adv-x="1056" 
d="M645 217q0 -162 8 -217h-260q12 111 13 362v78l-156 250q-164 263 -230 365l263 12l249 -428l74 123q41 66 174 295h262l-397 -615v-225z" />
    <glyph glyph-name="z.sc" horiz-adv-x="1034" 
d="M608 195q166 0 338 4q-8 -92 -12 -205q-121 8 -409 8t-435 -8l-35 92l576 778q-39 2 -173 2t-343 -4q6 51 10 203q197 -8 441 -8t380 8l35 -90l-575 -778q36 -2 202 -2z" />
    <glyph glyph-name="aacute.sc" horiz-adv-x="1157" 
d="M565 735l-133 -338h268zM635 1505l323 19l-333 -316l-172 -10zM369 229l-93 -229h-251l346 770q102 233 123 291l149 16l342 -768q74 -166 145 -309l-262 -12l-104 241h-395z" />
    <glyph glyph-name="abreve.sc" horiz-adv-x="1157" 
d="M565 735l-133 -338h268zM576 1194q-150 0 -241 92t-91 236l184 24q0 -94 40 -142t112 -48t108 49t35 125l180 10q4 -160 -86 -253q-91 -93 -241 -93zM369 229l-93 -229h-251l346 770q102 233 123 291l149 16l342 -768q74 -166 145 -309l-262 -12l-104 241h-395z" />
    <glyph glyph-name="acircumflex.sc" horiz-adv-x="1157" 
d="M565 735l-133 -338h268zM453 1513h258l211 -321l-164 -12l-178 182l-166 -168h-187zM369 229l-93 -229h-251l346 770q102 233 123 291l149 16l342 -768q74 -166 145 -309l-262 -12l-104 241h-395z" />
    <glyph glyph-name="adieresis.sc" horiz-adv-x="1157" 
d="M565 735l-133 -338h268zM774 1513q59 0 98 -40t39 -98t-40 -101t-99 -43t-97 40t-38 99t39 101t98 42zM379 1513q59 0 98 -40t39 -98t-40 -101t-99 -43t-97 40t-38 99t39 101t98 42zM369 229l-93 -229h-251l346 770q102 233 123 291l149 16l342 -768q74 -166 145 -309
l-262 -12l-104 241h-395z" />
    <glyph glyph-name="agrave.sc" horiz-adv-x="1157" 
d="M565 735l-133 -338h268zM213 1505l295 19l178 -316l-168 -10zM369 229l-93 -229h-251l346 770q102 233 123 291l149 16l342 -768q74 -166 145 -309l-262 -12l-104 241h-395z" />
    <glyph glyph-name="amacron.sc" horiz-adv-x="1157" 
d="M565 735l-133 -338h268zM662 1282h-185q-86 0 -233 -4q8 86 8 182q162 -6 330 -6t327 6q-10 -86 -10 -182q-172 4 -237 4zM369 229l-93 -229h-251l346 770q102 233 123 291l149 16l342 -768q74 -166 145 -309l-262 -12l-104 241h-395z" />
    <glyph glyph-name="aogonek.sc" horiz-adv-x="1157" 
d="M565 735l-133 -338h268zM901 -225q0 -37 26 -61q27 -24 77 -24t116 42l-10 -144q-74 -43 -173 -43q-99 -1 -161 51t-61 138q0 133 184 256l-31 -2l-104 241h-395l-93 -229h-251l346 770q102 233 123 291l149 16l342 -768q74 -166 145 -309q-229 -117 -229 -225z" />
    <glyph glyph-name="aring.sc" horiz-adv-x="1157" 
d="M686 1218q0 50 -30 82t-82 31q-52 0 -82 -33q-30 -32 -31 -82q0 -50 31 -83q32 -33 82 -33t81 34t31 84zM565 735l-133 -338h268zM311 1204q0 108 75 180t192 72q118 0 188 -66t70 -152t-42 -150t-114 -95l305 -684q74 -166 145 -309l-262 -12l-104 241h-395l-93 -229
h-251l346 770q92 209 96 219q-72 27 -114 85t-42 130z" />
    <glyph glyph-name="aringacute.sc" horiz-adv-x="1157" 
d="M686 1218q0 50 -30 82t-82 31q-52 0 -82 -33q-30 -32 -31 -82q0 -50 31 -83q32 -33 82 -33t81 34t31 84zM565 735l-133 -338h268zM637 1878l324 18l-334 -315l-172 -10zM311 1204q0 108 75 180t192 72q118 0 188 -66t70 -152t-42 -150t-114 -95l305 -684
q74 -166 145 -309l-262 -12l-104 241h-395l-93 -229h-251l346 770q92 209 96 219q-72 27 -114 85t-42 130z" />
    <glyph glyph-name="atilde.sc" horiz-adv-x="1157" 
d="M565 735l-133 -338h268zM419 1532q79 0 184 -71t136 -70q55 0 80 147l160 -22q-49 -315 -234 -316q-68 0 -174 72t-137 72t-47 -30t-29 -110l-161 23q53 305 222 305zM369 229l-93 -229h-251l346 770q102 233 123 291l149 16l342 -768q74 -166 145 -309l-262 -12
l-104 241h-395z" />
    <glyph glyph-name="cacute.sc" horiz-adv-x="1062" 
d="M84 514q0 234 164 400t414 167q182 0 317 -86l-45 -209q-118 92 -262 92t-241 -98q-97 -100 -97 -256t96 -251t246 -95t309 135l-12 -237q-156 -104 -342 -105q-239 0 -393 155q-154 154 -154 388zM676 1505l323 19l-333 -316l-172 -10z" />
    <glyph glyph-name="ccaron.sc" horiz-adv-x="1062" 
d="M84 514q0 234 164 400t414 167q182 0 317 -86l-45 -209q-118 92 -262 92t-241 -98q-97 -100 -97 -256t96 -251t246 -95t309 135l-12 -237q-156 -104 -342 -105q-239 0 -393 155q-154 154 -154 388zM743 1208h-258l-213 318l168 12l176 -180l168 170h183z" />
    <glyph glyph-name="ccedilla.sc" horiz-adv-x="1062" 
d="M829 -319q0 -79 -63 -131q-64 -52 -164 -52t-199 31l31 129q90 -29 164 -29t74 49q0 59 -189 99l-8 8q14 45 53 197q-200 33 -322 178t-122 340q0 248 164 414t414 167q182 0 317 -86l-45 -209q-118 92 -262 92t-241 -98q-97 -100 -97 -256t96 -251t246 -95t309 135
l-12 -237q-152 -102 -330 -105l-27 -96q213 -55 213 -194z" />
    <glyph glyph-name="cdotaccent.sc" horiz-adv-x="1062" 
d="M475 1374q0 60 41 102q40 42 102 42t102 -40t40 -99q0 -58 -41 -100t-103 -42t-102 39q-39 39 -39 98zM84 514q0 234 164 400t414 167q182 0 317 -86l-45 -209q-118 92 -262 92t-241 -98q-97 -100 -97 -256t96 -251t246 -95t309 135l-12 -237q-156 -104 -342 -105
q-239 0 -393 155q-154 154 -154 388z" />
    <glyph glyph-name="dcaron.sc" horiz-adv-x="1159" 
d="M700 1208h-258l-213 318l168 12l176 -180l168 170h183zM831 539q0 151 -89 241t-246 90q-27 0 -97 -4q-2 -23 -2 -80v-514q0 -47 2 -71l101 -6q168 0 250 96q81 96 81 248zM1075 546q-1 -240 -155 -394q-154 -152 -408 -152h-371q10 92 11 362v332q0 270 -11 361l336 8
q285 0 442 -138q156 -139 156 -379z" />
    <glyph glyph-name="dcroat.sc" horiz-adv-x="1159" 
d="M831 539q0 151 -89 241t-246 90q-27 0 -97 -4q-2 -23 -2 -80v-172q104 0 197 7q-10 -78 -10 -175q-131 4 -187 5v-179q0 -47 2 -71l101 -6q168 0 250 96q81 96 81 248zM1075 546q-1 -240 -155 -394q-154 -152 -408 -152h-371q10 92 11 362v89q-98 -4 -136 -5q6 63 7 175
l129 -7v80q0 270 -11 361l336 8q285 0 442 -138q156 -139 156 -379z" />
    <glyph glyph-name="eacute.sc" horiz-adv-x="925" 
d="M553 1505l324 19l-334 -316l-172 -10zM498 2q-217 0 -357 -8q10 92 11 364v340q0 276 -11 367q205 -8 345 -8t341 8q-12 -94 -12 -205q-84 2 -280 2h-138q-2 -25 -2 -71v-156l367 2q-4 -55 -4 -180h-363v-189q0 -49 2 -71l138 -2q178 0 321 6q-6 -68 -10 -207
q-131 8 -348 8z" />
    <glyph glyph-name="ebreve.sc" horiz-adv-x="925" 
d="M496 1194q-150 0 -241 92t-91 236l184 24q0 -94 40 -142t112 -48t108 49t35 125l180 10q4 -160 -86 -253q-91 -93 -241 -93zM498 2q-217 0 -357 -8q10 92 11 364v340q0 276 -11 367q205 -8 345 -8t341 8q-12 -94 -12 -205q-84 2 -280 2h-138q-2 -25 -2 -71v-156l367 2
q-4 -55 -4 -180h-363v-189q0 -49 2 -71l138 -2q178 0 321 6q-6 -68 -10 -207q-131 8 -348 8z" />
    <glyph glyph-name="ecaron.sc" horiz-adv-x="925" 
d="M621 1208h-259l-212 318l167 12l177 -180l168 170h182zM498 2q-217 0 -357 -8q10 92 11 364v340q0 276 -11 367q205 -8 345 -8t341 8q-12 -94 -12 -205q-84 2 -280 2h-138q-2 -25 -2 -71v-156l367 2q-4 -55 -4 -180h-363v-189q0 -49 2 -71l138 -2q178 0 321 6
q-6 -68 -10 -207q-131 8 -348 8z" />
    <glyph glyph-name="ecircumflex.sc" horiz-adv-x="925" 
d="M375 1526h258l211 -322l-164 -12l-178 182l-166 -168h-186zM498 2q-217 0 -357 -8q10 92 11 364v340q0 276 -11 367q205 -8 345 -8t341 8q-12 -94 -12 -205q-84 2 -280 2h-138q-2 -25 -2 -71v-156l367 2q-4 -55 -4 -180h-363v-189q0 -49 2 -71l138 -2q178 0 321 6
q-6 -68 -10 -207q-131 8 -348 8z" />
    <glyph glyph-name="edieresis.sc" horiz-adv-x="925" 
d="M831 1375q1 -58 -39 -101t-100 -43t-97 40q-38 40 -38 99t39 101t98 42t99 -39q38 -41 38 -99zM299 1513q59 0 98 -40t39 -98t-40 -101t-99 -43t-97 40t-38 99t39 101t98 42zM498 2q-217 0 -357 -8q10 92 11 364v340q0 276 -11 367q205 -8 345 -8t341 8q-12 -94 -12 -205
q-84 2 -280 2h-138q-2 -25 -2 -71v-156l367 2q-4 -55 -4 -180h-363v-189q0 -49 2 -71l138 -2q178 0 321 6q-6 -68 -10 -207q-131 8 -348 8z" />
    <glyph glyph-name="edotaccent.sc" horiz-adv-x="925" 
d="M354 1374q0 60 41 102t103 42t101 -40q40 -40 40 -99q0 -58 -41 -100t-102 -42t-102 39q-40 39 -40 98zM498 2q-217 0 -357 -8q10 92 11 364v340q0 276 -11 367q205 -8 345 -8t341 8q-12 -94 -12 -205q-84 2 -280 2h-138q-2 -25 -2 -71v-156l367 2q-4 -55 -4 -180h-363
v-189q0 -49 2 -71l138 -2q178 0 321 6q-6 -68 -10 -207q-131 8 -348 8z" />
    <glyph glyph-name="egrave.sc" horiz-adv-x="925" 
d="M133 1505l295 19l178 -316l-168 -10zM498 2q-217 0 -357 -8q10 92 11 364v340q0 276 -11 367q205 -8 345 -8t341 8q-12 -94 -12 -205q-84 2 -280 2h-138q-2 -25 -2 -71v-156l367 2q-4 -55 -4 -180h-363v-189q0 -49 2 -71l138 -2q178 0 321 6q-6 -68 -10 -207
q-131 8 -348 8z" />
    <glyph glyph-name="emacron.sc" horiz-adv-x="925" 
d="M580 1282h-185q-86 0 -233 -4q8 86 8 182q164 -6 330 -6t327 6q-10 -86 -10 -182q-172 4 -237 4zM498 2q-217 0 -357 -8q10 92 11 364v340q0 276 -11 367q205 -8 345 -8t341 8q-12 -94 -12 -205q-84 2 -280 2h-138q-2 -25 -2 -71v-156l367 2q-4 -55 -4 -180h-363v-189
q0 -49 2 -71l138 -2q178 0 321 6q-6 -68 -10 -207q-131 8 -348 8z" />
    <glyph glyph-name="eogonek.sc" horiz-adv-x="925" 
d="M836 -4v-2q-229 -113 -230 -219q0 -37 26 -61t76 -24t117 42l-10 -144q-72 -43 -172 -43q-99 -1 -161 51t-62 138q0 143 223 266q-49 2 -205 2t-297 -8q10 92 11 364v340q0 276 -11 367q205 -8 345 -8t341 8q-12 -94 -12 -205q-84 2 -280 2h-138q-2 -25 -2 -71v-156
l367 2q-4 -55 -4 -180h-363v-189q0 -49 2 -71l138 -2q178 0 321 6q-6 -68 -10 -207q-2 0 -6 2h-4z" />
    <glyph glyph-name="gbreve.sc" horiz-adv-x="1161" 
d="M634 1194q-150 0 -242 92q-91 92 -91 236l184 24q0 -94 40 -142t112 -48q71 0 107 49t36 125l181 10q3 -160 -87 -253t-240 -93zM682 874q-152 0 -252 -98t-100 -255t94 -251t240 -94q88 0 161 31v125q0 57 -2 80q-37 2 -103 2t-134 -4q6 92 2 182q131 -6 224 -6t243 6
q-10 -72 -11 -359v-149q-184 -113 -418 -113t-388 155q-154 156 -154 390t168 400t428 165q209 0 352 -98l-65 -199q-133 90 -285 90z" />
    <glyph glyph-name="Gbreve.alt" horiz-adv-x="1513" 
d="M841 1579q-150 0 -242 92q-91 92 -91 236l184 24q0 -94 40 -142t112 -48t108 49t35 125l180 10q4 -160 -86 -253t-240 -93zM1374 291v-176q-232 -150 -542 -150t-522 210q-212 211 -212 531t226 544t563 225q125 0 254 -38t215 -96l-70 -223q-72 57 -186 93t-223 36
q-231 0 -371 -148t-141 -387q0 -239 146 -380t361 -142q145 0 254 52v229q0 209 -8 266h268q-2 -12 -7 -186t-5 -260z" />
    <glyph glyph-name="gbreve.sc_alt" horiz-adv-x="1161" 
d="M642 1198q-150 0 -242 92q-91 92 -91 236l185 24q0 -94 40 -142t112 -48t107 49t35 125l181 10q4 -160 -86 -253q-91 -93 -241 -93zM682 874q-152 0 -252 -99t-100 -255t95 -249t239 -93q80 0 155 27v147q0 150 -8 195h244q-10 -51 -11 -318v-141q-184 -117 -418 -117
t-388 155q-154 156 -154 390t168 400t424 165q211 0 356 -100l-65 -201q-133 94 -285 94z" />
    <glyph glyph-name="gcommaaccent.sc" horiz-adv-x="1161" 
d="M582 -342q0 56 -66 96l-29 15q15 57 55 88t93 31t91 -40q38 -39 38 -100q0 -160 -256 -297l-53 64l51 34q76 53 76 109zM682 874q-152 0 -252 -98t-100 -255t94 -251t240 -94q88 0 161 31v125q0 57 -2 80q-37 2 -103 2t-134 -4q6 92 2 182q131 -6 224 -6t243 6
q-10 -72 -11 -359v-149q-184 -113 -418 -113t-388 155q-154 156 -154 390t168 400t428 165q209 0 352 -98l-65 -199q-133 90 -285 90z" />
    <glyph glyph-name="Gcommaaccent.alt" horiz-adv-x="1513" 
d="M965 -252q0 -160 -256 -297l-54 64l52 34q75 53 75 109t-65 96l-29 15q14 57 54 88t93 31t91 -40q38 -39 39 -100zM1374 291v-176q-232 -150 -542 -150t-522 210q-212 211 -212 531t226 544t563 225q125 0 254 -38t215 -96l-70 -223q-72 57 -186 93t-223 36
q-231 0 -371 -148t-141 -387q0 -239 146 -380t361 -142q145 0 254 52v229q0 209 -8 266h268q-2 -12 -7 -186t-5 -260z" />
    <glyph glyph-name="gcommaaccent.sc_alt" horiz-adv-x="1161" 
d="M578 -344q0 56 -66 96l-29 15q15 57 55 88t93 31t91 -40q38 -39 38 -100q0 -160 -256 -297l-53 64l51 34q76 53 76 109zM682 874q-152 0 -252 -99t-100 -255t95 -249t239 -93q80 0 155 27v147q0 150 -8 195h244q-10 -51 -11 -318v-141q-184 -117 -418 -117t-388 155
q-154 156 -154 390t168 400t424 165q211 0 356 -100l-65 -201q-133 94 -285 94z" />
    <glyph glyph-name="gdotaccent.sc" horiz-adv-x="1161" 
d="M634 1518q62 0 102 -40t40 -99q0 -58 -41 -100t-103 -42t-102 39q-38 39 -38 98t40 102q40 42 102 42zM682 874q-152 0 -252 -98t-100 -255t94 -251t240 -94q88 0 161 31v125q0 57 -2 80q-37 2 -103 2t-134 -4q6 92 2 182q131 -6 224 -6t243 6q-10 -72 -11 -359v-149
q-184 -113 -418 -113t-388 155q-154 156 -154 390t168 400t428 165q209 0 352 -98l-65 -199q-133 90 -285 90z" />
    <glyph glyph-name="Gdotaccent.alt" horiz-adv-x="1513" 
d="M698 1759q0 59 41 101t103 43q62 -1 101 -41q40 -40 40 -98t-41 -100t-102 -42t-102 39q-40 39 -40 98zM1374 291v-176q-232 -150 -542 -150t-522 210q-212 211 -212 531t226 544t563 225q125 0 254 -38t215 -96l-70 -223q-72 57 -186 93t-223 36q-231 0 -371 -148
t-141 -387q0 -239 146 -380t361 -142q145 0 254 52v229q0 209 -8 266h268q-2 -12 -7 -186t-5 -260z" />
    <glyph glyph-name="gdotaccent.sc_alt" horiz-adv-x="1161" 
d="M500 1378q0 60 41 102t102 42t101 -40t40 -99q0 -58 -41 -100t-103 -42t-101 39t-39 98zM682 874q-152 0 -252 -99t-100 -255t95 -249t239 -93q80 0 155 27v147q0 150 -8 195h244q-10 -51 -11 -318v-141q-184 -117 -418 -117t-388 155q-154 156 -154 390t168 400t424 165
q211 0 356 -100l-65 -201q-133 94 -285 94z" />
    <glyph glyph-name="hbar.sc" horiz-adv-x="1230" 
d="M836 745q-44 0 -80 3h-359v-136h439v133zM1079 217q0 -162 8 -217h-264q12 84 13 317v107h-439v-219q0 -166 6 -205h-262q10 92 11 369v370q-90 -4 -134 -4q6 68 7 158l125 -4q-4 129 -9 166q197 0 262 8q-6 -35 -6 -178h437q-4 111 -11 170q197 0 264 8q-8 -47 -8 -174
l138 4q-8 -68 -9 -158l-129 2v-520z" />
    <glyph glyph-name="iacute.sc" horiz-adv-x="557" 
d="M158 694q0 272 -11 361q195 0 263 8q-6 -43 -7 -221v-625q1 -176 7 -217h-263q10 92 11 362v332zM336 1505l323 19l-333 -316l-172 -10z" />
    <glyph glyph-name="ibreve.sc" horiz-adv-x="557" 
d="M282 1194q-150 0 -242 92q-91 92 -91 236l184 24q0 -94 40 -142t112 -48q71 0 107 49t36 125l180 10q4 -160 -86 -253t-240 -93zM158 694q0 272 -11 361q195 0 263 8q-6 -43 -7 -221v-625q1 -176 7 -217h-263q10 92 11 362v332z" />
    <glyph glyph-name="icircumflex.sc" horiz-adv-x="557" 
d="M158 694q0 272 -11 361q195 0 263 8q-6 -43 -7 -221v-625q1 -176 7 -217h-263q10 92 11 362v332zM160 1526h258l211 -322l-164 -12l-178 182l-166 -168h-187z" />
    <glyph glyph-name="idieresis.sc" horiz-adv-x="557" 
d="M158 694q0 272 -11 361q195 0 263 8q-6 -43 -7 -221v-625q1 -176 7 -217h-263q10 92 11 362v332zM616 1375q0 -58 -40 -101t-98 -43q-60 0 -98 40t-38 99t39 101t98 42t99 -39q38 -41 38 -99zM84 1513q59 0 98 -40t39 -98t-40 -101t-99 -43t-97 40t-38 99t39 101t98 42z
" />
    <glyph glyph-name="idotaccent.sc" horiz-adv-x="557" 
d="M137 1374q0 60 41 102q40 42 102 42t102 -40t40 -99q0 -58 -41 -100t-103 -42t-101 39q-40 39 -40 98zM158 694q0 272 -11 361q195 0 263 8q-6 -43 -7 -221v-625q1 -176 7 -217h-263q10 92 11 362v332z" />
    <glyph glyph-name="dotlessi.sc" horiz-adv-x="557" 
d="M158 694q0 272 -11 361q195 0 263 8q-6 -43 -7 -221v-625q1 -176 7 -217h-263q10 92 11 362v332z" />
    <glyph glyph-name="igrave.sc" horiz-adv-x="557" 
d="M-82 1505l295 19l178 -316l-168 -10zM158 694q0 272 -11 361q195 0 263 8q-6 -43 -7 -221v-625q1 -176 7 -217h-263q10 92 11 362v332z" />
    <glyph glyph-name="imacron.sc" horiz-adv-x="557" 
d="M365 1282h-185q-86 0 -233 -4q8 86 8 182q161 -6 329 -6t328 6q-10 -86 -10 -182q-172 4 -237 4zM158 694q0 272 -11 361q195 0 263 8q-6 -43 -7 -221v-625q1 -176 7 -217h-263q10 92 11 362v332z" />
    <glyph glyph-name="iogonek.sc" horiz-adv-x="557" 
d="M260 -455q-100 -1 -162 51t-61 138q0 141 180 266h-70q10 92 11 362v332q0 272 -11 361q195 0 263 8q-6 -43 -7 -221v-625q1 -176 7 -217q-186 -117 -187 -225q0 -37 26 -61q27 -24 77 -24t116 42l-10 -144q-72 -43 -172 -43z" />
    <glyph glyph-name="kcommaaccent.sc" horiz-adv-x="1101" 
d="M553 -342q0 56 -66 96l-28 15q14 57 54 88t93 31t91 -40q38 -39 38 -100q0 -160 -256 -297l-53 64l51 34q76 53 76 109zM399 217q0 -176 7 -217h-265q12 111 13 362v332q0 256 -13 361q197 0 265 8q-6 -43 -7 -221v-260l162 204q119 152 211 273h287l-426 -506l231 -291
q129 -160 219 -258l-282 -18l-402 508v-277z" />
    <glyph glyph-name="lacute.sc" horiz-adv-x="880" 
d="M389 1511l324 19l-334 -316l-172 -10zM483 2q-205 0 -342 -8q10 92 11 366v334q0 272 -11 361q197 0 265 8q-6 -43 -7 -221v-557q0 -57 2 -82l121 -2q115 0 312 4q-10 -88 -15 -211q-131 8 -336 8z" />
    <glyph glyph-name="lcaron.sc" horiz-adv-x="880" 
d="M645 717l-100 -19q12 190 12 361q31 4 99 11t81 9q-57 -247 -92 -362zM483 2q-205 0 -342 -8q10 92 11 366v334q0 272 -11 361q197 0 265 8q-6 -43 -7 -221v-557q0 -57 2 -82l121 -2q115 0 312 4q-10 -88 -15 -211q-131 8 -336 8z" />
    <glyph glyph-name="lcommaaccent.sc" horiz-adv-x="880" 
d="M426 -342q0 56 -66 96l-28 15q14 57 54 88t93 31t91 -40q38 -39 38 -100q0 -160 -256 -297l-53 64l51 34q76 53 76 109zM483 2q-205 0 -342 -8q10 92 11 366v334q0 272 -11 361q197 0 265 8q-6 -43 -7 -221v-557q0 -57 2 -82l121 -2q115 0 312 4q-10 -88 -15 -211
q-131 8 -336 8z" />
    <glyph glyph-name="ldot.sc" horiz-adv-x="888" 
d="M708 745q62 0 102 -40t40 -98t-41 -100t-103 -42t-102 40q-39 40 -39 98t41 100q40 42 102 42zM483 2q-205 0 -342 -8q10 92 11 366v334q0 272 -11 361q197 0 265 8q-6 -43 -7 -221v-557q0 -57 2 -82l121 -2q115 0 312 4q-10 -88 -15 -211q-131 8 -336 8z" />
    <glyph glyph-name="lslash.sc" horiz-adv-x="880" 
d="M483 2q-205 0 -342 -8q10 92 11 366v39l-93 -51q-27 70 -69 158l162 80v108q0 272 -11 361q197 0 265 8q-6 -43 -7 -221v-137l136 79q27 -70 69 -159q-94 -47 -205 -109v-231q0 -57 2 -82l121 -2q115 0 312 4q-10 -88 -15 -211q-131 8 -336 8z" />
    <glyph glyph-name="nacute.sc" horiz-adv-x="1245" 
d="M680 1505l324 19l-334 -316l-172 -10zM864 694q0 276 -12 361q188 0 256 8q-4 -23 -10 -221l-6 -635q0 -154 6 -215l-133 -17l-584 670v-428q0 -156 6 -217h-252q14 172 15 362l2 349q6 250 -7 350l136 16l583 -671v288z" />
    <glyph glyph-name="ncaron.sc" horiz-adv-x="1245" 
d="M745 1208h-258l-213 318l168 12l176 -180l168 170h183zM864 694q0 276 -12 361q188 0 256 8q-4 -23 -10 -221l-6 -635q0 -154 6 -215l-133 -17l-584 670v-428q0 -156 6 -217h-252q14 172 15 362l2 349q6 250 -7 350l136 16l583 -671v288z" />
    <glyph glyph-name="ncommaaccent.sc" horiz-adv-x="1245" 
d="M563 -342q0 56 -65 96l-29 15q14 57 54 88t93 31q54 0 92 -40q38 -39 37 -100q0 -160 -256 -297l-53 64l51 34q76 53 76 109zM864 694q0 276 -12 361q188 0 256 8q-4 -23 -10 -221l-6 -635q0 -154 6 -215l-133 -17l-584 670v-428q0 -156 6 -217h-252q14 172 15 362l2 349
q6 250 -7 350l136 16l583 -671v288z" />
    <glyph glyph-name="ntilde.sc" horiz-adv-x="1245" 
d="M464 1532q79 0 184 -71t136 -70q55 0 80 147l160 -22q-49 -315 -233 -316q-69 0 -175 72t-137 72t-47 -30t-29 -110l-161 23q53 305 222 305zM864 694q0 276 -12 361q188 0 256 8q-4 -23 -10 -221l-6 -635q0 -154 6 -215l-133 -17l-584 670v-428q0 -156 6 -217h-252
q14 172 15 362l2 349q6 250 -7 350l136 16l583 -671v288z" />
    <glyph glyph-name="oacute.sc" horiz-adv-x="1243" 
d="M680 1505l324 19l-334 -316l-172 -10zM330 522q0 -160 80 -256t210 -96q129 0 211 101t82 261t-80 256q-81 96 -210 96t-211 -100q-82 -102 -82 -262zM84 514q0 240 154 404t392 163q238 0 384 -151q145 -152 145 -390q1 -238 -153 -404q-154 -165 -392 -165t-385 152
q-145 151 -145 391z" />
    <glyph glyph-name="obreve.sc" horiz-adv-x="1243" 
d="M622 1194q-150 0 -242 92q-91 92 -91 236l184 24q0 -94 40 -142t112 -48q71 0 107 49t36 125l180 10q4 -160 -86 -253t-240 -93zM330 522q0 -160 80 -256t210 -96q129 0 211 101t82 261t-80 256q-81 96 -210 96t-211 -100q-82 -102 -82 -262zM84 514q0 240 154 404
t392 163q238 0 384 -151q145 -152 145 -390q1 -238 -153 -404q-154 -165 -392 -165t-385 152q-145 151 -145 391z" />
    <glyph glyph-name="ocircumflex.sc" horiz-adv-x="1243" 
d="M330 522q0 -160 80 -256t210 -96q129 0 211 101t82 261t-80 256q-81 96 -210 96t-211 -100q-82 -102 -82 -262zM84 514q0 240 154 404t392 163q238 0 384 -151q145 -152 145 -390q1 -238 -153 -404q-154 -165 -392 -165t-385 152q-145 151 -145 391zM500 1526h258
l211 -322l-164 -12l-178 182l-166 -168h-187z" />
    <glyph glyph-name="odieresis.sc" horiz-adv-x="1243" 
d="M330 522q0 -160 80 -256t210 -96q129 0 211 101t82 261t-80 256q-81 96 -210 96t-211 -100q-82 -102 -82 -262zM84 514q0 240 154 404t392 163q238 0 384 -151q145 -152 145 -390q1 -238 -153 -404q-154 -165 -392 -165t-385 152q-145 151 -145 391zM956 1375
q0 -58 -40 -101t-99 -43t-97 40t-38 99t39 101t98 42t99 -39q38 -41 38 -99zM424 1513q59 0 98 -40t39 -98t-40 -101t-99 -43t-97 40t-38 99t39 101t98 42z" />
    <glyph glyph-name="ograve.sc" horiz-adv-x="1243" 
d="M258 1505l295 19l178 -316l-168 -10zM330 522q0 -160 80 -256t210 -96q129 0 211 101t82 261t-80 256q-81 96 -210 96t-211 -100q-82 -102 -82 -262zM84 514q0 240 154 404t392 163q238 0 384 -151q145 -152 145 -390q1 -238 -153 -404q-154 -165 -392 -165t-385 152
q-145 151 -145 391z" />
    <glyph glyph-name="ohungarumlaut.sc" horiz-adv-x="1243" 
d="M823 1520l285 20l-227 -330l-168 -6zM457 1516l276 16l-198 -326l-168 -6zM330 522q0 -160 80 -256t210 -96q129 0 211 101t82 261t-80 256q-81 96 -210 96t-211 -100q-82 -102 -82 -262zM84 514q0 240 154 404t392 163q238 0 384 -151q145 -152 145 -390
q1 -238 -153 -404q-154 -165 -392 -165t-385 152q-145 151 -145 391z" />
    <glyph glyph-name="omacron.sc" horiz-adv-x="1243" 
d="M707 1282h-185q-86 0 -233 -4q8 86 8 182q165 -6 331 -6t326 6q-10 -86 -10 -182q-172 4 -237 4zM330 522q0 -160 80 -256t210 -96q129 0 211 101t82 261t-80 256q-81 96 -210 96t-211 -100q-82 -102 -82 -262zM84 514q0 240 154 404t392 163q238 0 384 -151
q145 -152 145 -390q1 -238 -153 -404q-154 -165 -392 -165t-385 152q-145 151 -145 391z" />
    <glyph glyph-name="oslash.sc" horiz-adv-x="1243" 
d="M618 170q131 0 213 101t82 233t-39 215l-421 -494q71 -55 165 -55zM330 546q0 -136 41 -216l424 497q-74 57 -170 58q-131 1 -213 -101t-82 -238zM84 500q0 254 154 418t399 163q170 0 297 -86q96 113 108 127q63 -57 113 -88q-27 -27 -117 -133q121 -147 121 -348
q1 -252 -153 -417t-400 -165q-166 0 -295 84l-110 -125l-115 82l123 133q-125 143 -125 355z" />
    <glyph glyph-name="oslashacute.sc" horiz-adv-x="1243" 
d="M680 1505l324 19l-334 -316l-172 -10zM618 170q131 0 213 101t82 233t-39 215l-421 -494q71 -55 165 -55zM330 546q0 -136 41 -216l424 497q-74 57 -170 58q-131 1 -213 -101t-82 -238zM84 500q0 254 154 418t399 163q170 0 297 -86q96 113 108 127q63 -57 113 -88
q-27 -27 -117 -133q121 -147 121 -348q1 -252 -153 -417t-400 -165q-166 0 -295 84l-110 -125l-115 82l123 133q-125 143 -125 355z" />
    <glyph glyph-name="otilde.sc" horiz-adv-x="1243" 
d="M464 1532q79 0 184 -71t136 -70q55 0 80 147l160 -22q-49 -315 -233 -316q-69 0 -175 72t-137 72t-47 -30t-29 -110l-161 23q53 305 222 305zM330 522q0 -160 80 -256t210 -96q129 0 211 101t82 261t-80 256q-81 96 -210 96t-211 -100q-82 -102 -82 -262zM84 514
q0 240 154 404t392 163q238 0 384 -151q145 -152 145 -390q1 -238 -153 -404q-154 -165 -392 -165t-385 152q-145 151 -145 391z" />
    <glyph glyph-name="racute.sc" horiz-adv-x="1064" 
d="M395 217q0 -176 6 -217h-260q10 92 11 362v332q0 272 -11 361l332 8q225 2 348 -86t121 -236q-2 -203 -207 -309l166 -244q29 -43 129 -180l-274 -22l-232 383h-22l-107 -2v-150zM393 541h121q86 0 137 47t51 119q0 164 -206 163q-35 0 -101 -4q-2 -33 -2 -84v-241z
M573 1505l324 19l-334 -316l-172 -10z" />
    <glyph glyph-name="rcaron.sc" horiz-adv-x="1064" 
d="M395 217q0 -176 6 -217h-260q10 92 11 362v332q0 272 -11 361l332 8q225 2 348 -86t121 -236q-2 -203 -207 -309l166 -244q29 -43 129 -180l-274 -22l-232 383h-22l-107 -2v-150zM393 541h121q86 0 137 47t51 119q0 164 -206 163q-35 0 -101 -4q-2 -33 -2 -84v-241z
M641 1208h-258l-213 318l168 12l176 -180l168 170h182z" />
    <glyph glyph-name="rcommaaccent.sc" horiz-adv-x="1064" 
d="M395 217q0 -176 6 -217h-260q10 92 11 362v332q0 272 -11 361l332 8q225 2 348 -86t121 -236q-2 -203 -207 -309l166 -244q29 -43 129 -180l-274 -22l-232 383h-22l-107 -2v-150zM393 541h121q86 0 137 47t51 119q0 164 -206 163q-35 0 -101 -4q-2 -33 -2 -84v-241z
M498 -342q0 56 -66 96l-29 15q15 57 55 88t93 31t91 -40q38 -39 38 -100q0 -160 -256 -297l-53 64l51 34q76 53 76 109z" />
    <glyph glyph-name="sacute.sc" horiz-adv-x="888" 
d="M807 307q-1 -154 -107 -245t-286 -91t-328 88l8 222q62 -43 152 -77t168 -34q157 0 157 115q0 45 -47 83q-48 38 -114 70t-134 72q-68 39 -114 102t-47 146q0 147 103 235t273 88t285 -75l-51 -197q-117 76 -227 76q-68 0 -106 -31t-38 -75t47 -80q47 -35 114 -67
t133 -70t112 -104q47 -66 47 -151zM530 1505l324 19l-334 -316l-172 -10z" />
    <glyph glyph-name="scaron.sc" horiz-adv-x="888" 
d="M807 307q-1 -154 -107 -245t-286 -91t-328 88l8 222q62 -43 152 -77t168 -34q157 0 157 115q0 45 -47 83q-48 38 -114 70t-134 72q-68 39 -114 102t-47 146q0 147 103 235t273 88t285 -75l-51 -197q-117 76 -227 76q-68 0 -106 -31t-38 -75t47 -80q47 -35 114 -67
t133 -70t112 -104q47 -66 47 -151zM596 1208h-258l-213 318l168 12l176 -180l168 170h182z" />
    <glyph glyph-name="scedilla.sc" horiz-adv-x="888" 
d="M807 307q0 -135 -86 -224t-229 -106l-27 -102q213 -55 213 -194q0 -79 -64 -131t-164 -52t-198 31l31 129q89 -29 163 -29t74 49q0 59 -188 99l-8 8q23 70 51 188q-168 12 -289 86l8 222q62 -43 152 -77t168 -34q157 0 157 115q0 45 -47 83q-48 38 -114 70t-134 72
q-68 39 -114 102t-47 146q0 147 103 235t273 88t285 -75l-51 -197q-117 76 -227 76q-68 0 -106 -31t-38 -75t47 -80q47 -35 114 -67t133 -70t112 -104q47 -66 47 -151z" />
    <glyph glyph-name="scommaaccent.sc" horiz-adv-x="888" 
d="M807 307q-1 -154 -107 -245t-286 -91t-328 88l8 222q62 -43 152 -77t168 -34q157 0 157 115q0 45 -47 83q-48 38 -114 70t-134 72q-68 39 -114 102t-47 146q0 147 103 235t273 88t285 -75l-51 -197q-117 76 -227 76q-68 0 -106 -31t-38 -75t47 -80q47 -35 114 -67
t133 -70t112 -104q47 -66 47 -151zM371 -342q0 56 -66 96l-29 15q14 57 54 88t94 31q53 0 91 -40q38 -39 38 -100q0 -160 -256 -297l-53 64l51 34q76 53 76 109z" />
    <glyph glyph-name="tcaron.sc" horiz-adv-x="1036" 
d="M643 1208h-258l-213 318l168 12l176 -180l168 170h182zM641 756v-539q0 -176 6 -217h-264q12 111 12 362v263q0 104 -6 225q-115 0 -328 -4q4 63 5 219q286 -8 454 -8t455 8q-12 -135 -12 -219q-217 4 -320 4q-2 -31 -2 -94z" />
    <glyph glyph-name="tcommaaccent.sc" horiz-adv-x="1036" 
d="M461 -342q0 56 -66 96l-28 15q14 57 54 88t93 31t91 -40q38 -39 38 -100q0 -160 -256 -297l-53 64l51 34q76 53 76 109zM641 756v-539q0 -176 6 -217h-264q12 111 12 362v263q0 104 -6 225q-115 0 -328 -4q4 63 5 219q286 -8 454 -8t455 8q-12 -135 -12 -219
q-217 4 -320 4q-2 -31 -2 -94z" />
    <glyph glyph-name="uacute.sc" horiz-adv-x="1202" 
d="M1063 842v-385q0 -236 -129 -361t-340 -125t-332 108t-121 300v315q0 256 -12 361q197 0 262 8q-6 -66 -6 -221v-410q0 -252 223 -252q100 0 156 60t55 168v286q0 256 -12 361q196 0 264 8q-8 -57 -8 -221zM657 1505l324 19l-334 -316l-172 -10z" />
    <glyph glyph-name="ubreve.sc" horiz-adv-x="1202" 
d="M600 1194q-150 0 -243 92q-91 92 -91 236l185 24q-1 -94 39 -142t112 -48t108 49q35 49 35 125l181 10q4 -160 -86 -253t-240 -93zM1063 842v-385q0 -236 -129 -361t-340 -125t-332 108t-121 300v315q0 256 -12 361q197 0 262 8q-6 -66 -6 -221v-410q0 -252 223 -252
q100 0 156 60t55 168v286q0 256 -12 361q196 0 264 8q-8 -57 -8 -221z" />
    <glyph glyph-name="ucircumflex.sc" horiz-adv-x="1202" 
d="M1063 842v-385q0 -236 -129 -361t-340 -125t-332 108t-121 300v315q0 256 -12 361q197 0 262 8q-6 -66 -6 -221v-410q0 -252 223 -252q100 0 156 60t55 168v286q0 256 -12 361q196 0 264 8q-8 -57 -8 -221zM477 1526h258l211 -322l-164 -12l-178 182l-166 -168h-186z" />
    <glyph glyph-name="udieresis.sc" horiz-adv-x="1202" 
d="M1063 842v-385q0 -236 -129 -361t-340 -125t-332 108t-121 300v315q0 256 -12 361q197 0 262 8q-6 -66 -6 -221v-410q0 -252 223 -252q100 0 156 60t55 168v286q0 256 -12 361q196 0 264 8q-8 -57 -8 -221zM796 1513q60 0 99 -40t39 -98t-40 -101t-99 -43t-98 40
q-38 40 -38 99t39 101q38 42 98 42zM539 1375q0 -58 -40 -101q-39 -43 -99 -43t-98 40t-38 99t39 101t98 42t99 -39q39 -41 39 -99z" />
    <glyph glyph-name="ugrave.sc" horiz-adv-x="1202" 
d="M1063 842v-385q0 -236 -129 -361t-340 -125t-332 108t-121 300v315q0 256 -12 361q197 0 262 8q-6 -66 -6 -221v-410q0 -252 223 -252q100 0 156 60t55 168v286q0 256 -12 361q196 0 264 8q-8 -57 -8 -221zM236 1505l294 19l179 -316l-168 -10z" />
    <glyph glyph-name="uhungarumlaut.sc" horiz-adv-x="1202" 
d="M1063 842v-385q0 -236 -129 -361t-340 -125t-332 108t-121 300v315q0 256 -12 361q197 0 262 8q-6 -66 -6 -221v-410q0 -252 223 -252q100 0 156 60t55 168v286q0 256 -12 361q196 0 264 8q-8 -57 -8 -221zM801 1520l284 20l-227 -330l-168 -6zM434 1516l277 16
l-199 -326l-168 -6z" />
    <glyph glyph-name="umacron.sc" horiz-adv-x="1202" 
d="M1063 842v-385q0 -236 -129 -361t-340 -125t-332 108t-121 300v315q0 256 -12 361q197 0 262 8q-6 -66 -6 -221v-410q0 -252 223 -252q100 0 156 60t55 168v286q0 256 -12 361q196 0 264 8q-8 -57 -8 -221zM684 1282h-184q-86 0 -234 -4q8 86 8 182q164 -6 331 -6t327 6
q-10 -86 -10 -182q-172 4 -238 4z" />
    <glyph glyph-name="uogonek.sc" horiz-adv-x="1202" 
d="M410 -266q0 127 161 237q-197 5 -313 111t-117 297v315q0 256 -12 361q197 0 262 8q-6 -66 -6 -221v-410q0 -252 223 -252q100 0 156 60t55 168v286q0 256 -12 361q197 0 264 8q-8 -57 -8 -221v-385q0 -127 -30 -208t-89 -139q-58 -58 -152 -109q-196 -105 -196 -224
q0 -39 25 -63t77 -24t117 42l-10 -144q-70 -43 -170 -43q-101 -1 -163 51t-62 138z" />
    <glyph glyph-name="uring.sc" horiz-adv-x="1202" 
d="M1063 842v-385q0 -236 -129 -361t-340 -125t-332 108t-121 300v315q0 256 -12 361q197 0 262 8q-6 -66 -6 -221v-410q0 -252 223 -252q100 0 156 60t55 168v286q0 256 -12 361q196 0 264 8q-8 -57 -8 -221zM711 1439q0 50 -30 82q-30 31 -82 31t-83 -32t-31 -83
q0 -50 31 -83t82 -33t82 34t31 84zM860 1445q0 -101 -75 -176t-191 -75t-188 68q-70 68 -70 170t75 174t191 72t188 -66q70 -66 70 -167z" />
    <glyph glyph-name="wacute.sc" horiz-adv-x="1591" 
d="M854 1505l324 19l-334 -316l-172 -10zM1561 1055l-277 -764q-33 -90 -102 -297l-140 -17l-245 689l-244 -682l-141 -4l-269 765q-68 190 -114 306l258 12l219 -690l205 612q18 55 26 74l129 14l244 -692l121 410q14 39 42 138t36 126h252z" />
    <glyph glyph-name="wcircumflex.sc" horiz-adv-x="1591" 
d="M676 1526h258l211 -322l-164 -12l-178 182l-166 -168h-186zM1561 1055l-277 -764q-33 -90 -102 -297l-140 -17l-245 689l-244 -682l-141 -4l-269 765q-68 190 -114 306l258 12l219 -690l205 612q18 55 26 74l129 14l244 -692l121 410q14 39 42 138t36 126h252z" />
    <glyph glyph-name="wdieresis.sc" horiz-adv-x="1591" 
d="M1133 1375q0 -58 -40 -101q-39 -43 -99 -43t-98 40t-38 99t39 101t98 42t99 -39q39 -41 39 -99zM600 1513q59 0 98 -40t39 -98t-40 -101t-99 -43t-97 40t-38 99t39 101t98 42zM1561 1055l-277 -764q-33 -90 -102 -297l-140 -17l-245 689l-244 -682l-141 -4l-269 765
q-68 190 -114 306l258 12l219 -690l205 612q18 55 26 74l129 14l244 -692l121 410q14 39 42 138t36 126h252z" />
    <glyph glyph-name="wgrave.sc" horiz-adv-x="1591" 
d="M434 1505l295 19l178 -316l-168 -10zM1561 1055l-277 -764q-33 -90 -102 -297l-140 -17l-245 689l-244 -682l-141 -4l-269 765q-68 190 -114 306l258 12l219 -690l205 612q18 55 26 74l129 14l244 -692l121 410q14 39 42 138t36 126h252z" />
    <glyph glyph-name="yacute.sc" horiz-adv-x="1056" 
d="M590 1505l323 19l-333 -316l-172 -10zM645 217q0 -162 8 -217h-260q12 111 13 362v78l-156 250q-164 263 -230 365l263 12l249 -428l74 123q41 66 174 295h262l-397 -615v-225z" />
    <glyph glyph-name="ycircumflex.sc" horiz-adv-x="1056" 
d="M410 1526h258l211 -322l-164 -12l-178 182l-166 -168h-187zM645 217q0 -162 8 -217h-260q12 111 13 362v78l-156 250q-164 263 -230 365l263 12l249 -428l74 123q41 66 174 295h262l-397 -615v-225z" />
    <glyph glyph-name="ydieresis.sc" horiz-adv-x="1056" 
d="M729 1513q59 0 98 -40t39 -98t-40 -101t-99 -43t-97 40t-38 99t39 101t98 42zM334 1513q59 0 98 -40t39 -98t-40 -101t-99 -43t-98 40q-38 40 -38 99t40 101q39 42 98 42zM645 217q0 -162 8 -217h-260q12 111 13 362v78l-156 250q-164 263 -230 365l263 12l249 -428
l74 123q41 66 174 295h262l-397 -615v-225z" />
    <glyph glyph-name="ygrave.sc" horiz-adv-x="1056" 
d="M168 1505l295 19l178 -316l-168 -10zM645 217q0 -162 8 -217h-260q12 111 13 362v78l-156 250q-164 263 -230 365l263 12l249 -428l74 123q41 66 174 295h262l-397 -615v-225z" />
    <glyph glyph-name="zacute.sc" horiz-adv-x="1034" 
d="M608 195q166 0 338 4q-8 -92 -12 -205q-121 8 -409 8t-435 -8l-35 92l576 778q-39 2 -173 2t-343 -4q6 51 10 203q197 -8 441 -8t380 8l35 -90l-575 -778q36 -2 202 -2zM602 1505l324 19l-334 -316l-172 -10z" />
    <glyph glyph-name="zcaron.sc" horiz-adv-x="1034" 
d="M608 195q166 0 338 4q-8 -92 -12 -205q-121 8 -409 8t-435 -8l-35 92l576 778q-39 2 -173 2t-343 -4q6 51 10 203q197 -8 441 -8t380 8l35 -90l-575 -778q36 -2 202 -2zM668 1208h-258l-213 318l168 12l176 -180l168 170h182z" />
    <glyph glyph-name="zdotaccent.sc" horiz-adv-x="1034" 
d="M401 1374q0 60 41 102q40 42 102 42t102 -40t40 -99q0 -58 -41 -100t-103 -42t-102 39q-39 39 -39 98zM608 195q166 0 338 4q-8 -92 -12 -205q-121 8 -409 8t-435 -8l-35 92l576 778q-39 2 -173 2t-343 -4q6 51 10 203q197 -8 441 -8t380 8l35 -90l-575 -778
q36 -2 202 -2z" />
    <glyph glyph-name="ae.sc" horiz-adv-x="1460" 
d="M696 698q0 63 -2 103l-237 -408h239v305zM1035 2q-212 0 -349 -8q8 94 8 235h-327q-39 -67 -129 -229h-256l475 784q100 166 164 281q229 -8 371 -8t368 8q-12 -127 -12 -205q-82 2 -269 2h-137q-2 -25 -2 -71v-156l350 4q-4 -55 -4 -182l-346 2v-191q0 -49 2 -71l137 -2
q166 0 312 6q-10 -80 -11 -207q-133 8 -345 8z" />
    <glyph glyph-name="aeacute.sc" horiz-adv-x="1460" 
d="M696 698q0 63 -2 103l-237 -408h239v305zM950 1505l324 19l-334 -316l-172 -10zM1035 2q-212 0 -349 -8q8 94 8 235h-327q-39 -67 -129 -229h-256l475 784q100 166 164 281q229 -8 371 -8t368 8q-12 -127 -12 -205q-82 2 -269 2h-137q-2 -25 -2 -71v-156l350 4
q-4 -55 -4 -182l-346 2v-191q0 -49 2 -71l137 -2q166 0 312 6q-10 -80 -11 -207q-133 8 -345 8z" />
    <glyph glyph-name="oe.sc" horiz-adv-x="1525" 
d="M328 524q0 -152 89 -240t247 -89q25 0 94 4q2 23 2 80v514q0 45 -2 69q-74 8 -99 8q-167 0 -249 -97t-82 -249zM84 519q0 241 154 393t407 151l428 -6q141 0 354 8q-12 -94 -12 -205q-84 2 -270 2h-137q-2 -25 -2 -71v-156l350 4q-4 -55 -4 -182l-346 2v-191q0 -49 2 -71
l137 -2q166 0 311 6q-6 -68 -10 -207q-133 8 -340 8l-426 -2q-284 0 -440 139t-156 380z" />
    <glyph glyph-name="eth.sc" horiz-adv-x="1159" 
d="M831 539q0 151 -89 241t-246 90q-27 0 -97 -4q-2 -23 -2 -80v-172q104 0 197 7q-10 -78 -10 -175q-131 4 -187 5v-179q0 -47 2 -71l101 -6q168 0 250 96q81 96 81 248zM1075 546q-1 -240 -155 -394q-154 -152 -408 -152h-371q10 92 11 362v89q-98 -4 -136 -5q6 63 7 175
l129 -7v80q0 270 -11 361l336 8q285 0 442 -138q156 -139 156 -379z" />
    <glyph glyph-name="thorn.sc" horiz-adv-x="1026" 
d="M395 621v-267q23 -4 108 -4t151 45t67 131q0 172 -223 172q-64 0 -101 -2q-2 -31 -2 -75zM397 893h113q213 0 331 -96q117 -96 117 -258t-123 -267q-124 -104 -360 -104q-59 0 -78 2q0 -104 6 -170h-262q10 92 11 362v332q0 272 -11 361q160 0 262 8q-6 -39 -6 -170z" />
    <glyph glyph-name="one.alt" horiz-adv-x="649" 
d="M203 682q0 227 -15 356q143 0 271 13q-8 -74 -8 -224v-624q0 -129 8 -203h-271q14 127 15 344v338z" />
    <glyph glyph-name="zero.lin" horiz-adv-x="1282" 
d="M641 1231q-131 -1 -209 -149t-78 -390t79 -380q79 -140 209 -140t207 148t77 390t-77 382t-208 139zM649 1440q250 0 390 -202q141 -202 141 -526t-148 -537q-148 -212 -401 -212q-252 0 -390 202q-139 203 -139 527t148 536t399 212z" />
    <glyph glyph-name="one.lin" horiz-adv-x="839" 
d="M614 225q0 -162 9 -225h-269q10 92 11 379v776l-285 -88l-43 205q129 37 373 117l151 49l62 -19q-8 -57 -9 -237v-957z" />
    <glyph glyph-name="two.lin" horiz-adv-x="1153" 
d="M567 0q-268 0 -465 -8l-28 174q40 37 244 228t300 304q137 168 138 301q0 95 -64 153t-172 58q-164 0 -332 -133l-65 207q207 150 424 150t339 -106t122 -286q0 -137 -68 -254t-203 -268q-141 -164 -305 -307q182 0 612 10q-8 -92 -14 -231q-195 8 -463 8z" />
    <glyph glyph-name="three.lin" horiz-adv-x="1085" 
d="M723 371q0 109 -115 171t-340 68l-24 160q223 45 341 123t117 170q0 63 -59 108t-166 46q-172 0 -309 -105l-66 197q199 125 403 125t328 -96t123 -236q0 -250 -338 -371q365 -78 365 -348q0 -186 -147 -301q-147 -114 -362 -114t-365 57l-33 225q186 -64 336 -64t230 50
q81 50 81 135z" />
    <glyph glyph-name="four.lin" horiz-adv-x="1218" 
d="M309 553h406l4 510zM711 362h-103q-342 0 -528 -8l-39 170l569 715q25 31 54 69q28 38 58 76t40 52l199 -17q-6 -88 -7 -239v-621q172 0 222 4q-16 -125 -17 -209l-205 6v-124q0 -166 7 -236h-261q10 82 11 317v45z" />
    <glyph glyph-name="five.lin" horiz-adv-x="1103" 
d="M1004 408q0 -194 -142 -317q-142 -124 -360 -124t-373 58l-27 223q411 -126 568 4q80 66 80 170t-98 166q-98 61 -287 61q-55 0 -175 -12l-28 14q8 102 12 232l6 264q4 184 0 227l33 31q252 -6 378 -6t376 6q-20 -111 -25 -234q-233 4 -338 5h-186l-12 -330h73
q257 -6 391 -125t134 -313z" />
    <glyph glyph-name="six.lin" horiz-adv-x="1167" 
d="M346 442q0 -120 71 -198t179 -78t176 79t68 203t-70 196t-175 71q-105 0 -177 -76t-72 -197zM656 903q186 0 310 -128q124 -127 124 -327t-142 -342t-366 -143q-225 0 -358 154q-132 154 -132 422q0 367 210 611t618 300l47 -211q-506 -80 -623 -473q126 137 312 137z
" />
    <glyph glyph-name="seven.lin" horiz-adv-x="1105" 
d="M556 1399q214 0 448 6l43 -125q-31 -53 -121 -248l-379 -776q-82 -158 -125 -274l-272 30q82 141 182 348l395 811h-260q-266 0 -395 -2q14 195 14 236q256 -6 470 -6z" />
    <glyph glyph-name="eight.lin" horiz-adv-x="1185" 
d="M387 1057q0 -150 236 -238q92 37 145 101t53 142q0 79 -61 132q-60 53 -156 53t-156 -54t-61 -136zM838 363q0 170 -250 268q-242 -92 -242 -266q0 -95 74 -151t181 -56t172 58t65 147zM96 350q0 131 81 225t220 144q-111 49 -181 135t-71 197q-1 165 133 277t334 112
t325 -109q126 -109 126 -262q0 -215 -254 -338q279 -127 278 -358q0 -178 -138 -294t-359 -116q-222 1 -358 111t-136 276z" />
    <glyph glyph-name="nine.lin" horiz-adv-x="1167" 
d="M328 953q0 -123 70 -195t174 -72q106 0 178 77t72 197t-71 199q-71 78 -180 78t-176 -80t-67 -204zM511 500q-185 0 -309 127t-124 327t141 341q141 143 367 143t358 -154q133 -154 133 -407t-89 -441t-277 -316t-463 -167l-47 209q508 80 620 473q-125 -135 -310 -135z
" />
    <glyph glyph-name="hyphen.lin" horiz-adv-x="870" 
d="M344 623q-86 0 -221 -5q6 68 6 187q147 -6 311 -6t312 6q-10 -82 -11 -187q-160 4 -227 5h-170z" />
    <glyph glyph-name="endash.lin" horiz-adv-x="1093" 
d="M457 623q-113 0 -334 -5q6 68 6 187q207 -6 426 -6t420 6q-10 -82 -10 -187q-233 4 -330 5h-178z" />
    <glyph glyph-name="emdash.lin" horiz-adv-x="2062" 
d="M582 623q-197 0 -459 -5q6 68 6 187q258 -6 906 -6t904 6q-10 -82 -10 -187q-291 4 -452 5h-895z" />
    <glyph glyph-name="parenleft.lin" horiz-adv-x="845" 
d="M137 701q0 315 170 577t443 414l94 -133q-207 -135 -340 -349t-133 -504q0 -288 133 -501t340 -350l-94 -134q-270 150 -442 407q-171 257 -171 573z" />
    <glyph glyph-name="parenright.lin" horiz-adv-x="845" 
d="M475 707q0 289 -134 501t-341 351l96 133q270 -150 442 -406t171 -572q0 -316 -170 -579q-171 -262 -443 -414l-94 136q207 133 340 347t133 503z" />
    <glyph glyph-name="bracketleft.lin" horiz-adv-x="796" 
d="M494 -264q-182 0 -295 -8l-25 14q12 121 12 410v1118q0 279 -12 399l27 29q139 -10 293 -10t280 8q-6 -74 -10 -193q-168 4 -242 4t-114 -2v-1327q0 -197 8 -262l123 -2q73 0 245 4q-14 -125 -16 -190q-92 8 -274 8z" />
    <glyph glyph-name="bracketright.lin" horiz-adv-x="796" 
d="M304 1688q182 0 294 8l25 -15q-12 -121 -13 -409v-1118q0 -279 13 -400l-27 -28q-140 10 -294 10t-279 -8q6 70 10 190q167 -4 241 -4t115 2v1323q0 201 -8 266l-123 2q-74 0 -246 -4q14 96 17 193q93 -8 275 -8z" />
    <glyph glyph-name="braceleft.lin" horiz-adv-x="831" 
d="M397 904q0 32 -70 159q-71 127 -71 215q0 309 446 408l41 -144q-264 -76 -264 -227q0 -57 67 -183t66 -186q0 -152 -221 -235q221 -76 221 -236q0 -57 -66 -182t-67 -184q0 -147 264 -228l-41 -143q-446 98 -446 407q0 88 71 215t70 156q0 71 -276 139v111
q276 68 276 138z" />
    <glyph glyph-name="braceright.lin" horiz-adv-x="831" 
d="M352 109q0 57 -66 183q-67 126 -67 185q0 152 219 236q-219 74 -219 235q0 58 67 184t66 183q0 152 -264 227l41 144q444 -98 444 -408q1 -88 -69 -215t-70 -156q1 -71 275 -139v-111q-274 -68 -275 -139q0 -29 70 -157t69 -216q0 -309 -444 -407l-41 143q264 80 264 228
z" />
    <glyph glyph-name="at.cap" horiz-adv-x="1687" 
d="M906 961q-78 1 -150 -103t-72 -239t86 -136q63 -1 138 95t96 235l18 113q-37 35 -116 35zM1130 336q-102 0 -139 68t-10 169q-53 -109 -135 -173t-163 -64t-130 71t-49 185q0 182 125 346t289 164q113 0 159 -51l121 61l25 -16l-82 -512q-28 -129 49 -129q102 -1 189 111
t87 304t-131 339t-401 147t-463 -206t-193 -483t162 -431q160 -154 418 -154q121 0 253 35t226 92l39 -98q-242 -147 -540 -147t-492 197q-192 198 -192 460q0 261 120 457t303 296q184 100 392 101q149 -1 271 -51q226 -94 314 -319q41 -103 41 -214q0 -227 -132 -391
t-331 -164z" />
    <glyph glyph-name="registered.alt" horiz-adv-x="1773" 
d="M805 735h69q68 0 105 33t37 86q0 115 -135 115q-31 0 -76 -4v-230zM805 602v-139q0 -53 4 -115h-193q6 78 7 260v238q-1 180 -7 258l246 6q162 2 251 -62t87 -169q-2 -154 -149 -228l129 -184q61 -92 82 -113l-203 -14l-170 262h-84zM1522 719q0 269 -184 457t-451 188
q-265 0 -451 -189t-186 -455t185 -456t451 -190t452 188q184 188 184 457zM1647 719q-1 -315 -223 -537t-537 -223q-315 0 -538 222q-222 221 -222 537t222 538q221 222 537 222t538 -222t223 -537z" />
    <glyph glyph-name="dollar.lin" horiz-adv-x="1159" 
d="M354 1044q0 -111 181 -184q23 256 28 291l6 72q-99 -9 -157 -57t-58 -122zM842 371q0 117 -178 198l-31 -389q97 12 153 62t56 129zM612 -260h-188q8 59 25 229q-215 27 -379 115l12 246q156 -117 389 -148l6 66q2 8 8 73q5 65 15 163t14 145q-92 35 -146 61
q-169 83 -217 183q-32 65 -32 147q0 170 127 285t332 131l14 206q121 0 180 7q-4 -25 -24 -219q166 -25 290 -99l-69 -209q-111 68 -246 92l-39 -409q160 -60 265 -136q130 -96 129 -271t-126 -295t-331 -138q-1 -49 -5 -133t-4 -92z" />
    <glyph glyph-name="sterling.lin" horiz-adv-x="1126" 
d="M94 803h166q-45 100 -45 207q0 180 135 304q134 124 334 124t336 -72l-51 -211q-119 68 -245 68q-126 1 -195 -55q-131 -106 -9 -361q221 2 402 16q-4 -39 -11 -194q-141 2 -315 0q12 -57 12 -92q0 -186 -151 -326q244 2 612 16q-14 -113 -14 -235q-149 8 -467 8
t-488 -12l-30 174q154 72 230 150t75 186q0 53 -25 116l-262 -4q6 68 6 193z" />
    <glyph glyph-name="Euro.lin" horiz-adv-x="1402" 
d="M937 1438q235 0 390 -115l-57 -209q-141 106 -336 107q-135 0 -243 -70t-165 -193h156q287 0 477 7q-16 -125 -18 -177q-135 2 -459 3h-203q-6 -43 -6 -97t4 -84h205q270 0 440 8q-20 -172 -20 -180q-131 2 -420 2h-156q59 -126 170 -192t246 -66q233 0 395 146l-12 -250
q-181 -115 -413 -115t-404 126t-240 337l-237 -2q6 61 6 194q90 -6 196 -6q-2 18 -2 68t7 108l-197 -2q10 106 10 191q197 -6 230 -6q76 215 248 341q173 126 408 126z" />
    <glyph glyph-name="yen.lin" horiz-adv-x="1359" 
d="M799 473q258 0 448 6q-4 -20 -16 -188q-127 4 -432 4v-6q0 -213 8 -289h-268q8 113 12 295q-319 0 -449 -4q6 66 7 188q184 -6 442 -6l2 117l-33 55q-291 0 -411 -2q6 61 6 184q168 -8 299 -8l-74 125q-202 315 -291 459l285 14l348 -604l96 166q37 57 126 223t112 205
h299l-375 -588q133 0 309 8q-4 -20 -16 -184q-121 2 -404 2l-30 -49v-123z" />
    <glyph glyph-name="cent.lin" horiz-adv-x="1032" 
d="M324 709q0 -233 170 -299l36 575v25q-98 -26 -152 -106t-54 -195zM541 1399q88 0 184 10q-4 -29 -18 -192q141 -27 241 -95l-55 -198q-84 66 -203 90q-2 -13 -2 -33l-29 -467q-8 -92 -10 -127q162 12 295 125l-8 -236q-141 -84 -295 -92q-6 -133 -4 -184h-180l16 197
q-176 37 -284 170q-107 133 -107 327t127 344q127 152 328 181q4 160 4 180z" />
    <glyph glyph-name="R_p" horiz-adv-x="2410" 
d="M455 717h178q123 -1 195 71t73 177q0 240 -293 239l-153 -2v-485zM2056 496q0 144 -71 222q-72 77 -191 77t-201 -121v-436q76 -82 198 -82t194 98q71 98 71 242zM2296 514q0 -242 -144 -396t-325 -155q-143 0 -234 70v-262q0 -123 9 -191q-12 0 -136 -11t-133 -13
q12 133 13 344v708q0 219 -15 346q117 0 240 17l10 -127q127 145 308 145t294 -137t113 -338zM455 522v-235q0 -205 6 -289h-279q14 135 15 483v443q0 346 -15 481q33 0 402 8q272 4 424 -114t147 -300q-6 -281 -285 -413l215 -314q134 -186 189 -260l-295 -28l-336 538
h-188z" />
    <glyph glyph-name="numbersign.lin" horiz-adv-x="1511" 
d="M616 858l-38 -321h307l41 319zM1022 0h-221q27 102 59 342h-307v-2q-31 -236 -35 -340h-223q27 100 59 344q-252 0 -313 -6l33 203q94 -4 307 -4l41 323q-176 0 -318 -6l33 201q94 -4 309 -4q25 201 29 354q115 0 219 10q-33 -176 -51 -352l-2 -12h309q27 223 31 354
q113 0 219 10q-6 -31 -15 -95t-21 -146l-19 -123q227 0 325 4q-25 -94 -34 -201l-316 2l-39 -319q227 0 326 4q-29 -113 -35 -203l-315 4v-2q-35 -313 -35 -340z" />
    <glyph glyph-name="paragraph.lin" horiz-adv-x="1409" 
d="M1024 479v443q0 387 -14 481q109 0 221 10q-10 -98 -10 -293v-835q0 -193 10 -285h-221q14 113 14 479zM594 1413q59 0 144 -2t130 -2q-10 -98 -10 -289v-835q0 -174 8 -285h-219q14 162 15 461v43q-301 0 -444 127q-142 127 -142 344q0 180 137 309t381 129z" />
    <glyph glyph-name="section.lin" horiz-adv-x="1017" 
d="M324 580q0 -52 57 -94t192 -97q61 21 99 61t37 87q0 47 -39 85t-81 58t-122 55q-143 -44 -143 -155zM90 551q0 193 193 280q-152 95 -152 245t114 256q115 106 309 106t337 -86l-60 -205q-141 88 -286 88q-78 0 -125 -37t-47 -94t58 -100t141 -79t167 -78
q85 -42 143 -113t58 -163q0 -186 -182 -278q158 -96 158 -251t-120 -258t-325 -103t-373 94l11 229q182 -121 370 -121q88 0 142 40q53 41 53 99t-60 101t-146 77q-85 34 -171 74q-87 40 -147 112q-60 71 -60 165z" />
    <glyph glyph-name="ordfeminine.lin" horiz-adv-x="727" 
d="M248 1065q0 -35 22 -57t63 -21q42 0 75 30t34 79l2 59q-16 2 -49 2q-147 0 -147 -92zM373 1538q268 0 260 -254l-8 -237q0 -55 41 -56q12 0 32 4l19 -100q-61 -39 -129 -39q-111 0 -133 105q-27 -47 -81 -76t-128 -29t-127 49t-53 140t84 149t239 59q16 0 57 -4l3 27
q4 102 -112 102t-198 -57l-28 147q131 70 262 70z" />
    <glyph glyph-name="ordmasculine.lin" horiz-adv-x="786" 
d="M543 1199q0 91 -39 141t-103 50q-63 0 -103 -52t-40 -143t38 -141t102 -50t105 52q40 52 40 143zM406 1538q150 0 239 -96q90 -96 90 -240t-95 -246q-94 -102 -244 -102t-240 95t-90 241t95 247t245 101z" />
    <glyph glyph-name="degree.lin" horiz-adv-x="770" 
d="M549 1220q0 79 -41 127t-114 48q-74 0 -116 -50t-42 -128t42 -127q42 -50 114 -50t115 50q42 50 42 130zM70 1210q0 136 92 234t235 98t231 -90t89 -227q0 -137 -93 -235q-92 -98 -236 -99q-144 0 -231 91t-87 228z" />
    <glyph glyph-name="percent.lin" horiz-adv-x="1566" 
d="M1100 125q80 0 148 120q68 121 67 239q0 118 -81 118t-148 -119q-66 -119 -66 -239t80 -119zM1245 758q119 0 187 -77t67 -200q0 -188 -125 -350t-287 -162q-117 0 -185 78t-66 201q0 186 123 348q124 162 286 162zM1266 1468l145 -84q-53 -63 -194 -247l-764 -996
q-38 -51 -164 -209l-144 78q168 205 271 342l598 781q195 254 252 335zM331 799q81 0 149 119q68 118 67 238q0 120 -81 120t-149 -120q-67 -120 -67 -238t81 -119zM477 1432q119 0 186 -78t66 -201q0 -186 -124 -349t-286 -163q-119 0 -185 78t-66 201q0 188 123 350
q124 162 286 162z" />
    <glyph glyph-name="quotedbl.lin" horiz-adv-x="778" 
d="M207 983l-119 -22q16 266 16 555q225 27 248 28q-63 -309 -145 -561zM580 995l-119 -24q16 342 14 555q23 2 108 13t142 15q-65 -315 -145 -559z" />
    <glyph glyph-name="quotesingle.lin" horiz-adv-x="405" 
d="M207 983l-119 -22q16 266 16 555q225 27 248 28q-63 -309 -145 -561z" />
    <glyph glyph-name="plus.lin" horiz-adv-x="1163" 
d="M676 590v-58q0 -231 8 -305h-211q10 92 14 363h-51l-291 -4q6 68 7 192q98 -4 335 -8q-4 266 -14 358q47 0 211 11q-8 -80 -8 -316v-53q268 4 340 8q-8 -66 -12 -192l-295 4h-33z" />
    <glyph glyph-name="minus.lin" horiz-adv-x="1163" 
d="M621 590h-84q-113 0 -351 -4q6 68 7 194q213 -6 391 -6t391 6q-10 -88 -10 -194q-238 4 -344 4z" />
    <glyph glyph-name="divide.lin" horiz-adv-x="1159" 
d="M729 321q0 -57 -39 -99t-101 -42t-101 40q-38 40 -38 96t40 99q40 42 102 42t99 -40q38 -40 38 -96zM729 1047q0 -55 -39 -97t-101 -43q-62 0 -101 40q-38 40 -38 95t40 98q40 42 102 42t99 -40q38 -40 38 -95zM666 592h-146q-133 0 -370 -4q6 68 6 188q211 -6 441 -6
t443 6q-10 -86 -10 -188q-242 4 -364 4z" />
    <glyph glyph-name="equal.lin" horiz-adv-x="1163" 
d="M584 953q168 0 413 8q-8 -59 -12 -191l-289 4h-241l-287 -4q6 66 6 191q242 -8 410 -8zM584 582q168 0 413 8q-8 -63 -12 -193l-289 4h-241l-287 -4q6 66 6 193q242 -8 410 -8z" />
    <glyph glyph-name="multiply.lin" horiz-adv-x="1163" 
d="M713 678l307 -309q-43 -39 -146 -136q-139 158 -290 318l-305 -313q-43 49 -134 139q128 128 310 303q-63 63 -310 303q74 59 148 129q45 -45 291 -303q123 127 293 315q18 -26 66 -76t65 -69q-37 -37 -295 -301z" />
    <glyph glyph-name="less.lin" horiz-adv-x="1167" 
d="M813 170q-231 184 -580 451l-4 98q184 141 582 471l115 -154q-168 -123 -273 -209l-188 -151l199 -156q176 -137 266 -194z" />
    <glyph glyph-name="greater.lin" horiz-adv-x="1167" 
d="M354 1190q231 -184 580 -451l4 -96q-80 -61 -296 -237t-286 -236l-114 154q120 90 272 208l186 154l-196 154q-176 137 -266 194z" />
    <glyph glyph-name="plusminus.lin" horiz-adv-x="1163" 
d="M520 111q-117 0 -358 -5q6 70 6 193q218 -6 416 -6t417 6q-10 -86 -10 -193q-246 4 -354 5h-117zM676 764v-25q0 -221 8 -293h-213q14 109 14 318h-34l-289 -4q6 68 6 194q109 -4 317 -8q-4 219 -14 316q53 0 213 10q-8 -74 -8 -303v-23q239 4 325 8q-8 -63 -12 -194
l-295 4h-18z" />
    <glyph glyph-name="onehalf.alt" horiz-adv-x="1912" 
d="M580 -39l-136 57q147 207 285 414l389 602q221 340 262 418q14 -8 66 -32t67 -31q-98 -137 -229 -340l-506 -773zM524 586h-205q-117 0 -188 -2q0 115 -4 159q74 -6 158 -6h51q2 35 2 94v402l-186 -51l-25 147q41 10 135 40t105 32l96 31l55 -15q-4 -33 -4 -151v-529h39
q95 0 156 6q-2 -27 -2 -159q-55 2 -183 2zM1494 0q-106 0 -294 -4l-18 131q244 199 301 256q117 115 116 192q0 47 -33 75q-34 28 -91 28q-105 0 -211 -88l-62 147q134 109 278 109t223 -64t79 -160q0 -98 -42 -164t-126 -147q-61 -63 -182 -155l368 8q0 -28 -8 -168
q-192 4 -298 4z" />
    <glyph glyph-name="onethird.alt" horiz-adv-x="1912" 
d="M584 -39l-135 57q147 207 284 414l389 602q221 340 262 418q14 -8 66 -32t68 -31q-98 -137 -230 -340l-506 -773zM524 586h-205q-117 0 -188 -2q0 115 -4 159q74 -6 158 -6h51q2 35 2 94v402l-186 -51l-25 147q41 10 135 40t105 32l96 31l55 -15q-4 -33 -4 -151v-529h39
q95 0 156 6q-2 -27 -2 -159q-55 2 -183 2zM1427 137q92 0 146 26q53 26 53 70q0 111 -276 117l-17 109q281 51 281 149q0 35 -38 58t-110 22q-119 0 -217 -57l-39 141q144 74 282 74t221 -56t83 -145q0 -147 -221 -215q238 -43 237 -201q0 -115 -99 -181t-241 -67
q-142 0 -245 31l-21 160q129 -35 221 -35z" />
    <glyph glyph-name="onequarter.alt" horiz-adv-x="1912" 
d="M1561 664l-261 -338h256zM629 -39l-135 57q147 207 284 414l389 602q221 340 263 418q14 -8 66 -32t67 -31q-98 -137 -230 -340l-506 -773zM524 586h-205q-117 0 -188 -2q0 115 -4 159q74 -6 158 -6h51q2 35 2 94v402l-186 -51l-25 147q41 10 135 40t105 32l96 31l55 -15
q-4 -33 -4 -151v-529h39q95 0 156 6q-2 -27 -2 -159q-55 2 -183 2zM1550 166v29h-69q-209 0 -326 -7l-20 140l413 528l172 -12q-4 -35 -4 -142v-368q88 0 119 2q-10 -88 -10 -148q-57 4 -109 5v-60q0 -102 4 -133h-176q6 37 6 166z" />
    <glyph glyph-name="onefifth.alt" horiz-adv-x="1912" 
d="M594 -39l-135 57q147 207 284 414l390 602q221 340 262 418q14 -8 66 -32t67 -31q-98 -137 -230 -340l-505 -773zM524 586h-205q-117 0 -188 -2q0 115 -4 159q74 -6 158 -6h51q2 35 2 94v402l-186 -51l-25 147q41 10 135 40t105 32l96 31l55 -15q-4 -33 -4 -151v-529h39
q95 0 156 6q-2 -27 -2 -159q-55 2 -183 2zM1538 823q41 0 246 4q-16 -156 -17 -165q-80 2 -219 2h-129l-6 -160h37q164 0 261 -66t97 -188t-91 -196q-91 -73 -235 -73t-257 35l-13 160q132 -37 226 -37t142 32t48 81q0 117 -246 117q-55 0 -120 -7l-17 11l6 133l6 158v147
l19 16q221 -4 262 -4z" />
    <glyph glyph-name="onesixth.alt" horiz-adv-x="1912" 
d="M1506 412q-68 0 -110 -40t-42 -106t42 -106t108 -39q66 -1 106 39q41 40 41 110t-39 106t-106 36zM604 -39l-135 57q147 207 285 414l389 602q221 340 262 418q14 -8 66 -32t67 -31q-98 -137 -229 -340l-506 -773zM524 586h-205q-117 0 -188 -2q0 115 -4 159
q74 -6 158 -6h51q2 35 2 94v402l-186 -51l-25 147q41 10 135 40t105 32l96 31l55 -15q-4 -33 -4 -151v-529h39q95 0 156 6q-2 -27 -2 -159q-55 2 -183 2zM1825 265q0 -118 -92 -202q-92 -83 -239 -83q-148 0 -232 92t-84 258q0 215 138 356t400 166l31 -152
q-330 -33 -397 -249q78 81 200 81t198 -74q77 -74 77 -193z" />
    <glyph glyph-name="oneeighth.alt" horiz-adv-x="1912" 
d="M1370 616q0 -84 152 -131q123 41 123 125q0 47 -38 76q-37 29 -99 29t-100 -29t-38 -70zM1653 225q0 88 -160 140q-145 -47 -145 -140q0 -49 44 -80t112 -31t109 32q40 32 40 79zM592 -39l-135 57q147 207 284 414l389 602q221 340 263 418q14 -8 66 -32t67 -31
q-98 -137 -230 -340l-505 -773zM524 586h-205q-117 0 -188 -2q0 115 -4 159q74 -6 158 -6h51q2 35 2 94v402l-186 -51l-25 147q41 10 135 40t105 32l96 31l55 -15q-4 -33 -4 -151v-529h39q95 0 156 6q-2 -27 -2 -159q-55 2 -183 2zM1497 -20q-145 0 -232 63t-87 168
q0 147 188 213q-160 63 -160 192q0 102 86 167t217 65t214 -64t85 -157q0 -131 -166 -199q182 -76 183 -207q1 -109 -91 -175t-237 -66z" />
    <glyph glyph-name="one.sup_alt" 
d="M524 883h-205q-117 0 -188 -2q0 115 -4 159q49 -4 158 -4h51q2 35 2 92v404l-186 -53l-25 147q90 25 240 74l96 29l55 -13q-4 -35 -4 -153v-529h39q95 0 156 6q-2 -27 -2 -159q-55 2 -183 2z" />
    <glyph glyph-name="one.inf_alt" 
d="M524 -422h-205q-117 0 -188 -2q0 115 -4 160q49 -4 158 -4h51q2 35 2 92v403l-186 -53l-25 148q90 25 240 73l96 29l55 -12q-4 -35 -4 -154v-528h39q95 0 156 6q-2 -27 -2 -160q-55 2 -183 2z" />
    <glyph glyph-name="zero.tab" horiz-adv-x="1146" 
d="M573 1231q-121 -1 -191 -149t-71 -390q1 -242 71 -382q70 -138 191 -138t192 148t71 392q0 242 -71 380t-192 139zM582 1440q242 0 368 -199t127 -529q0 -330 -136 -540q-136 -209 -378 -209q-241 0 -367 199q-126 200 -126 530t135 539t377 209z" />
    <glyph glyph-name="one.tab" horiz-adv-x="1146" 
d="M674 0h-234q-109 0 -305 -6q0 148 -6 223q88 -4 254 -4h100q2 61 2 166v776l-309 -98l-39 207q27 8 387 125l152 49l61 -19q-6 -57 -6 -237v-969h78q184 0 258 4q-4 -46 -4 -223q-152 6 -389 6z" />
    <glyph glyph-name="two.tab" horiz-adv-x="1146" 
d="M564 0q-270 0 -468 -8l-26 174q393 365 489 469q184 201 197 344v22q0 95 -62 151t-174 56q-166 0 -342 -149l-67 209q215 166 452 166q199 0 323 -106t124 -286q0 -143 -72 -262t-219 -276q-148 -164 -291 -291q178 0 619 10q-12 -147 -15 -231q-198 8 -468 8z" />
    <glyph glyph-name="three.tab" horiz-adv-x="1146" 
d="M786 383q0 96 -116 159q-117 62 -344 68l-25 162q231 45 348 122t117 167q0 67 -64 111t-182 45q-193 0 -350 -105l-66 197q220 125 438 125t348 -96t130 -236q0 -250 -361 -371q385 -76 385 -348q0 -186 -158 -301q-158 -114 -384 -114q-227 0 -385 55l-33 225
q200 -62 360 -62t251 50t91 147z" />
    <glyph glyph-name="four.tab" horiz-adv-x="1146" 
d="M295 547h399l4 540zM690 317v39h-102q-338 0 -512 -8l-37 174l543 715q133 174 151 197l199 -17q-6 -90 -6 -237v-627q82 0 176 4q-16 -121 -17 -209l-159 6v-118q0 -166 6 -236h-254q12 78 12 317z" />
    <glyph glyph-name="five.tab" horiz-adv-x="1146" 
d="M1016 1405q-27 -216 -27 -234q-246 4 -364 5h-215l-13 -330h105q270 -6 410 -125t140 -311t-149 -318q-150 -124 -382 -124t-398 57l-29 223q442 -125 618 4q89 66 89 170t-110 166q-110 61 -318 61q-59 0 -191 -12l-28 14l12 232l6 264v227l33 31q270 -6 407 -6t404 6z
" />
    <glyph glyph-name="six.tab" horiz-adv-x="1146" 
d="M338 442q0 -120 70 -198t178 -78t178 79t70 203t-72 196t-178 71q-106 0 -176 -76t-70 -197zM643 903q188 0 311 -127q123 -128 123 -328t-141 -342q-140 -142 -364 -143q-224 0 -354 155t-130 425q0 362 208 604t611 303l49 -211q-514 -82 -622 -477q121 141 309 141z
" />
    <glyph glyph-name="seven.tab" horiz-adv-x="1146" 
d="M574 1399q226 0 466 6l43 -125q-31 -53 -120 -248l-394 -776q-88 -172 -127 -274l-270 30q66 111 182 348l412 811h-285q-274 0 -407 -2q14 195 14 236q260 -6 486 -6z" />
    <glyph glyph-name="eight.tab" horiz-adv-x="1146" 
d="M367 1057q0 -150 235 -238q94 37 148 101t55 142q1 79 -61 133t-159 54t-157 -55t-61 -137zM821 363q0 89 -62 153t-190 115q-244 -92 -243 -266q0 -94 73 -152q75 -57 183 -57t174 59q65 59 65 148zM80 350q0 131 81 225t222 144q-113 49 -183 135t-71 197
q0 165 132 277t330 112q197 0 323 -109t126 -262q0 -215 -256 -338q283 -129 283 -358q0 -178 -139 -294q-140 -116 -358 -116q-218 1 -354 111t-136 276z" />
    </font>
</defs>
</svg>
